<svg width="331" height="303" viewBox="0 0 331 303" fill="none" xmlns="http://www.w3.org/2000/svg">
<g clip-path="url(#clip0)">
<path fill-rule="evenodd" clip-rule="evenodd" d="M251.91 106.43L246.51 103.22V94.78L251.91 97.99V106.43Z" fill="#8A8881"/>
<path fill-rule="evenodd" clip-rule="evenodd" d="M257.14 95.29L252.24 97.99L246.68 94.78L251.91 91.75L257.14 95.12V95.29Z" fill="#F5F1E1"/>
<path fill-rule="evenodd" clip-rule="evenodd" d="M252.24 97.99L257.14 95.29V103.89L252.24 106.43V97.99Z" fill="#DBD8CD"/>
<path fill-rule="evenodd" clip-rule="evenodd" d="M250.75 0.28999C250.55 0.47999 250.46 0.73999 250.46 1.05999V91.35C250.46 91.67 250.55 91.93 250.75 92.12C250.94 92.32 251.2 92.41 251.52 92.41H251.62C251.93 92.41 252.19 92.32 252.39 92.12C252.58 91.93 252.68 91.67 252.68 91.35V1.04999C252.68 0.72999 252.58 0.46999 252.39 0.27999C252.19 0.0799902 251.94 -0.0100098 251.62 -0.0100098H251.52C251.2 -9.76585e-06 250.94 0.0899902 250.75 0.28999Z" fill="#383838"/>
<path fill-rule="evenodd" clip-rule="evenodd" d="M237.94 7.74997C237.31 8.40997 236.64 8.03997 235.91 6.63997V16.59C236.89 17.54 237.83 17.73 238.74 17.15C239.65 16.57 240.41 15.99 241.04 15.4C241.66 14.82 242.15 14.46 242.52 14.31C243.12 14.06 243.71 13.97 244.29 14.04C245.39 14.31 246.37 14.75 247.25 15.36C247.79 15.75 248.36 16.08 248.94 16.36C249.24 16.51 249.56 16.61 249.89 16.68C250.25 16.68 250.58 16.65 250.89 16.59V7.54997C250.65 7.36997 250.39 7.18997 250.12 7.00997C249.61 6.72997 248.95 6.39997 248.14 6.00997C247.33 5.61997 246.37 5.33997 245.27 5.18997C244.17 5.02997 242.94 5.24997 241.58 5.81997C240.23 6.39997 239.44 6.70997 239.21 6.72997C239 6.75997 238.57 7.08997 237.94 7.74997Z" fill="url(#paint0_linear)"/>
<path fill-rule="evenodd" clip-rule="evenodd" d="M270.13 100.69L265.24 103.55L259.67 100.35L264.73 97.1399L270.13 100.69Z" fill="#F5F1E1"/>
<path fill-rule="evenodd" clip-rule="evenodd" d="M265.24 103.55L270.13 100.69V109.46L265.24 111.99V103.55Z" fill="#DBD8CD"/>
<path fill-rule="evenodd" clip-rule="evenodd" d="M264.73 111.99L259.34 108.79V100.35L264.73 103.55V111.99Z" fill="#8A8881"/>
<path fill-rule="evenodd" clip-rule="evenodd" d="M264.08 6.01998C263.88 6.20998 263.79 6.45998 263.79 6.78998V97.08C263.79 97.4 263.88 97.66 264.08 97.85C264.27 98.04 264.52 98.14 264.85 98.14H264.95C265.26 98.14 265.52 98.04 265.72 97.85C265.91 97.65 266.01 97.4 266.01 97.08V6.78998C266.01 6.46998 265.91 6.20998 265.72 6.01998C265.52 5.82998 265.27 5.72998 264.95 5.72998H264.85C264.53 5.72998 264.27 5.82998 264.08 6.01998Z" fill="#383838"/>
<path fill-rule="evenodd" clip-rule="evenodd" d="M251.11 12.98C250.48 13.64 249.8 13.27 249.08 11.87V21.81C250.05 22.76 250.99 22.96 251.9 22.38C252.81 21.8 253.57 21.22 254.2 20.63C254.83 20.05 255.32 19.68 255.68 19.54C256.29 19.29 256.87 19.2 257.45 19.26C258.54 19.54 259.53 19.98 260.42 20.58C260.96 20.98 261.52 21.31 262.1 21.59C262.41 21.74 262.72 21.85 263.05 21.9C263.41 21.9 263.75 21.87 264.06 21.81V12.77C263.81 12.59 263.56 12.41 263.29 12.23C262.77 11.95 262.11 11.62 261.3 11.23C260.49 10.84 259.54 10.57 258.43 10.41C257.33 10.25 256.1 10.46 254.75 11.04C253.39 11.63 252.6 11.92 252.38 11.95C252.15 11.98 251.73 12.32 251.11 12.98Z" fill="url(#paint1_linear)"/>
<path fill-rule="evenodd" clip-rule="evenodd" d="M278.06 110.81L272.66 107.61L277.73 104.74L283.12 108.11V108.28L278.06 110.81Z" fill="#F5F1E1"/>
<path fill-rule="evenodd" clip-rule="evenodd" d="M283.12 108.28V116.88L278.06 119.41V110.81L283.12 108.28Z" fill="#DBD8CD"/>
<path fill-rule="evenodd" clip-rule="evenodd" d="M277.73 110.81V119.41L272.33 116.21V107.61L277.73 110.81Z" fill="#8A8881"/>
<path fill-rule="evenodd" clip-rule="evenodd" d="M277.58 13.78C277.39 13.97 277.29 14.23 277.29 14.55V104.84C277.29 105.16 277.39 105.42 277.58 105.61C277.77 105.8 278.02 105.9 278.35 105.9H278.45C278.77 105.9 279.03 105.8 279.22 105.61C279.41 105.41 279.51 105.16 279.51 104.84V14.55C279.51 14.23 279.41 13.97 279.22 13.78C279.03 13.59 278.78 13.49 278.45 13.49H278.35C278.02 13.49 277.77 13.59 277.58 13.78Z" fill="#383838"/>
<path fill-rule="evenodd" clip-rule="evenodd" d="M263.59 20.91C262.96 21.57 262.29 21.2 261.56 19.8V29.75C262.54 30.71 263.48 30.9 264.38 30.32C265.29 29.73 266.05 29.16 266.68 28.57C267.3 27.99 267.79 27.63 268.15 27.48C268.76 27.24 269.35 27.15 269.93 27.21C271.03 27.48 272.01 27.93 272.89 28.53C273.43 28.92 274 29.25 274.58 29.53C274.88 29.69 275.2 29.79 275.54 29.85C275.9 29.85 276.23 29.82 276.54 29.76V20.7C276.3 20.52 276.04 20.34 275.77 20.16C275.26 19.89 274.6 19.55 273.79 19.16C272.97 18.77 272.02 18.5 270.92 18.34C269.82 18.18 268.59 18.39 267.23 18.97C265.88 19.55 265.09 19.85 264.87 19.88C264.64 19.91 264.22 20.25 263.59 20.91Z" fill="url(#paint2_linear)"/>
<path fill-rule="evenodd" clip-rule="evenodd" d="M73.2398 102.38L68.3398 99.6699V99.5099L73.5798 96.1299L78.8098 99.1699L73.2398 102.38Z" fill="#F5F1E1"/>
<path fill-rule="evenodd" clip-rule="evenodd" d="M73.5801 102.38L78.9701 99.1699V107.61L73.5801 110.81V102.38Z" fill="#8A8881"/>
<path fill-rule="evenodd" clip-rule="evenodd" d="M73.2398 102.38V110.81L68.3398 108.28V99.6699L73.2398 102.38Z" fill="#DBD8CD"/>
<path fill-rule="evenodd" clip-rule="evenodd" d="M74.7401 4.66988C74.9301 4.86988 75.0301 5.11988 75.0301 5.43988V95.7399C75.0301 96.0499 74.9301 96.3099 74.7401 96.5099C74.5501 96.6999 74.2901 96.7999 73.9701 96.7999H73.8701C73.5501 96.7999 73.2901 96.6999 73.1001 96.5099C72.9101 96.3099 72.8101 96.0599 72.8101 95.7399V5.43988C72.8101 5.12988 72.9101 4.86988 73.1001 4.66988C73.2901 4.47988 73.5501 4.37988 73.8701 4.37988H73.9701C74.2901 4.37988 74.5501 4.47988 74.7401 4.66988Z" fill="#383838"/>
<path fill-rule="evenodd" clip-rule="evenodd" d="M87.5398 12.1398C88.1698 12.7998 88.8498 12.4298 89.5698 11.0298V20.9798C88.5998 21.9298 87.6598 22.1298 86.7498 21.5498C85.8398 20.9598 85.0798 20.3898 84.4498 19.7998C83.8198 19.2198 83.3298 18.8598 82.9698 18.7098C82.3598 18.4698 81.7798 18.3798 81.1998 18.4398C80.1098 18.7098 79.1199 19.1498 78.2299 19.7598C77.6899 20.1598 77.1299 20.4898 76.5499 20.7598C76.2499 20.9198 75.9298 21.0198 75.5998 21.0798C75.2398 21.0798 74.8998 21.0498 74.5898 20.9898V11.9498C74.8398 11.7698 75.0898 11.5898 75.3598 11.4098C75.8798 11.1398 76.5398 10.7998 77.3498 10.4098C78.1598 10.0198 79.1098 9.74983 80.2198 9.58983C81.3198 9.41983 82.5498 9.63983 83.8998 10.2198C85.2598 10.7998 86.0498 11.0998 86.2698 11.1298C86.4898 11.1398 86.9098 11.4798 87.5398 12.1398Z" fill="url(#paint3_linear)"/>
<path fill-rule="evenodd" clip-rule="evenodd" d="M60.2501 107.95L55.3501 105.08L60.7601 101.54L65.8201 104.74L60.2501 107.95Z" fill="#F5F1E1"/>
<path fill-rule="evenodd" clip-rule="evenodd" d="M60.7603 107.95L66.1503 104.74V113.18L60.7603 116.38V107.95Z" fill="#8A8881"/>
<path fill-rule="evenodd" clip-rule="evenodd" d="M60.2501 107.95V116.38L55.3501 113.85V105.08L60.2501 107.95Z" fill="#DBD8CD"/>
<path fill-rule="evenodd" clip-rule="evenodd" d="M61.41 10.3999C61.6 10.5999 61.7 10.8499 61.7 11.1699V101.46C61.7 101.78 61.6 102.04 61.41 102.23C61.22 102.42 60.96 102.52 60.64 102.52H60.54C60.22 102.52 59.96 102.42 59.77 102.23C59.58 102.04 59.48 101.78 59.48 101.46V11.1799C59.48 10.8599 59.58 10.5999 59.77 10.4099C59.96 10.2199 60.22 10.1199 60.54 10.1199H60.64C60.96 10.1199 61.22 10.2199 61.41 10.3999Z" fill="#383838"/>
<path fill-rule="evenodd" clip-rule="evenodd" d="M74.3799 17.3698C75.0099 18.0298 75.6799 17.6598 76.4099 16.2598V26.2098C75.4299 27.1598 74.4899 27.3498 73.5799 26.7798C72.6699 26.1998 71.9099 25.6198 71.2799 25.0298C70.6599 24.4498 70.1699 24.0898 69.7999 23.9398C69.1999 23.6998 68.6099 23.6098 68.0299 23.6698C66.9399 23.9398 65.9499 24.3898 65.0699 24.9898C64.5299 25.3798 63.9599 25.7198 63.3799 25.9898C63.0799 26.1498 62.7599 26.2498 62.4199 26.3098C62.0599 26.3098 61.7299 26.2798 61.4199 26.2198V17.1698C61.6599 16.9898 61.9199 16.8098 62.1899 16.6298C62.6999 16.3598 63.3599 16.0198 64.1699 15.6298C64.9899 15.2398 65.9399 14.9698 67.0399 14.8198C68.1499 14.6498 69.3699 14.8698 70.7299 15.4498C72.0799 16.0298 72.8699 16.3298 73.0899 16.3598C73.3299 16.3698 73.7599 16.7098 74.3799 17.3698Z" fill="url(#paint4_linear)"/>
<path fill-rule="evenodd" clip-rule="evenodd" d="M47.4299 115.2L42.3599 112.67V112.5L47.7699 109.12L52.8199 111.99L47.4299 115.2Z" fill="#F5F1E1"/>
<path fill-rule="evenodd" clip-rule="evenodd" d="M42.3599 112.67L47.4299 115.2V123.8L42.3599 121.27V112.67Z" fill="#DBD8CD"/>
<path fill-rule="evenodd" clip-rule="evenodd" d="M53.16 120.6L47.77 123.8V115.2L53.16 111.99V120.6Z" fill="#8A8881"/>
<path fill-rule="evenodd" clip-rule="evenodd" d="M47.9097 18.1699C48.1097 18.3599 48.2097 18.6099 48.2097 18.9399V109.23C48.2097 109.55 48.1097 109.81 47.9097 110C47.7197 110.2 47.4597 110.29 47.1397 110.29H47.0497C46.7297 110.29 46.4697 110.2 46.2797 110C46.0797 109.81 45.9897 109.55 45.9897 109.23V18.9399C45.9897 18.6199 46.0797 18.3599 46.2797 18.1699C46.4697 17.9699 46.7297 17.8799 47.0497 17.8799H47.1397C47.4597 17.8899 47.7197 17.9799 47.9097 18.1699Z" fill="#383838"/>
<path fill-rule="evenodd" clip-rule="evenodd" d="M61.8899 25.2999C62.5199 25.9599 63.1999 25.5899 63.9199 24.1899V34.1299C62.9499 35.0799 62.0099 35.2699 61.0999 34.6999C60.1899 34.1199 59.4299 33.5399 58.7999 32.9499C58.1699 32.3699 57.6799 31.9999 57.3199 31.8599C56.7099 31.6099 56.1299 31.5199 55.5499 31.5799C54.4599 31.8599 53.4699 32.2999 52.5799 32.8999C52.0399 33.2999 51.4799 33.6299 50.8999 33.9099C50.5899 34.0599 50.2799 34.1599 49.9499 34.2199C49.5899 34.2199 49.2499 34.1999 48.9399 34.1299V25.0899C49.1899 24.9099 49.4399 24.7299 49.7099 24.5499C50.2299 24.2699 50.8899 23.9399 51.6999 23.5399C52.5099 23.1499 53.4599 22.8799 54.5699 22.7299C55.6599 22.5699 56.8999 22.7799 58.2499 23.3599C59.6099 23.9499 60.3999 24.2399 60.6199 24.2699C60.8499 24.2999 61.2699 24.6399 61.8899 25.2999Z" fill="url(#paint5_linear)"/>
<path fill-rule="evenodd" clip-rule="evenodd" d="M296.87 138.89C318.1 151.05 329.41 165.33 330.83 181.71C332.24 198.12 323.33 211.84 304.1 222.85L228.12 266.4C208.88 277.42 184.96 282.52 156.34 281.7C127.73 280.91 102.81 274.43 81.5898 262.27C60.3598 250.11 49.0398 235.82 47.6298 219.41C46.2198 203.02 55.1298 189.32 74.3498 178.31L150.34 134.76C169.57 123.74 193.49 118.63 222.11 119.42C250.73 120.24 275.65 126.73 296.87 138.89Z" fill="#BEE26D"/>
<path fill-rule="evenodd" clip-rule="evenodd" d="M241.86 137.61C259.02 147.44 268.16 158.98 269.31 172.23C270.45 185.49 263.25 196.59 247.71 205.5L186.29 240.71C170.75 249.62 151.42 253.74 128.28 253.08C105.16 252.44 85.0098 247.2 67.8598 237.36C50.6998 227.52 41.5598 215.97 40.4098 202.7C39.2698 189.45 46.4698 178.37 62.0098 169.47L123.42 134.25C138.96 125.35 158.29 121.21 181.43 121.85C204.56 122.53 224.7 127.77 241.86 137.61Z" fill="#C3613D"/>
<path fill-rule="evenodd" clip-rule="evenodd" d="M192.29 74.4401L188.93 96.4901H189.77V96.6001L188.82 102.59V101.92L189.44 97.6701L185.8 97.3301L184.96 102.26V101.53L185.8 96.3801V96.2201L185.92 96.1001L187.37 96.2201L190.73 74.3301L192.29 74.4401ZM161.11 72.1501L161.23 73.3801L163.3 102.25H162.68V104.15V104.87H179.42L195.93 106.55L211.6 109.97L226.03 114.78L238.91 121.05L249.65 128.38L258.05 136.66L263.7 145.84L266.61 155.18V154.73C266.61 154.55 266.61 154.38 266.61 154.23V153.51L267.23 155.46V159.27L270.36 157.6V158.61L267.23 160.29V165.1L265.55 170.97L292.98 158.83L293.6 158.44V160.73L293.71 161.12V161.01L297.35 148.81L297.23 138.63V136.22L293.48 123.91L264.55 145.57L264.33 144.84H264.22L263.88 143.27L263.71 143.16L289.73 123.8L291.18 122.56L292.24 121.89L285.76 111.64L274.79 100.68L260.58 90.9401L243.73 82.7701L225.2 76.6201L224.25 79.2501L213.17 107.8L211.6 107.3L222.28 79.6501L222.78 78.4101L223.74 76.1201L203.87 71.9201L182.21 69.7401H161.01L161.11 72.1501ZM160.17 72.1501V69.7401L138.96 71.8201L121.89 75.1701L93.68 83.1201L68.27 93.5801L68.16 93.7001L58.53 98.7901V101.31L56.58 102.26V99.7501L36.37 113.56L20.26 129.24L13.99 137.52L8.17 147.42L5.2 157.27L5.87 157.61L7.61 158.72L35.03 176.02V177.13L35.53 175.46L31.9 173.05L32.29 171.71L35.99 174.12L37.44 169.41L42.03 161.46L47.8 153.8L49.48 151.95L46 148.71L46.84 147.87L50.31 151.12L54.06 147.03L60.55 141.26L61.28 140.64L72.25 132.92L69.51 129.45L70.91 128.61L73.59 131.96L78.29 129.11L98.27 119.21L103.3 117.41L101.62 114.28L103.3 113.55L104.98 116.8L120.53 111.65L120.87 111.54L138.72 107.29L137.76 103.93L139.78 103.59L140.73 106.95L146.55 105.71L162.66 104.15L160.25 73.3701L160.17 72.1501ZM299.12 138.35V140.42L300.8 145.85V158.95L297.05 171.6L284.68 190.12L277.08 198.18L258.55 213.23L235.89 226.21L209.92 237.07L195.82 241.38L163.76 248.49L141.87 250.78L119.21 250.67L96.93 248.37L75.61 243.95L56.03 237.29L38.68 228.89L24.07 218.87L12.77 207.57L4.93 195.31L0.95 182.38V169.28L2.63 163.74V161.56V159.26L6.38 147.01L12.31 137.16L13.99 134.87V136.54L20.26 128.26L36.37 112.59L46 105.5L68.16 92.6301L93.67 81.8801L121.88 74.1001L138.51 70.8501L160.05 68.5601H160.17V67.3201L160.28 68.5601L182.44 68.6701L204.38 70.9701L224.08 75.0601L224.59 73.7201V75.1701L244.85 81.7801L261.92 90.1201L276.25 100.08L287.55 111.28L295.16 123.31L299.13 136.07V138.35H299.12ZM185.91 96.2101L185.79 96.9301L189.54 97.3201V96.6001L185.91 96.2101ZM187.86 102.59V103.09L186.29 102.98V102.36L187.86 102.59ZM162.46 106L139.68 108.97L144.16 121.51L148.97 120.67L149.19 120.56L163.52 119.1H178.08L179.19 106H162.46ZM143.44 123.69L150.15 139.8L154.01 138.96L165.2 137.9L163.41 121.28L148.35 122.73L143.44 123.69ZM180.65 119.32L193.02 120.66L207.02 123.57L207.35 123.69L213.28 111.65L211.61 111.04L195.94 107.79L183.06 106.33L181.1 106.21L179.81 106.1L178.69 119.08L180.65 119.32ZM178.8 121.28H164.14L165.82 137.9H176.9L177.74 138.01L181.49 121.5L178.8 121.28ZM232.92 115.35L231.58 114.9L232.19 113.95L233.48 114.68L232.92 115.35ZM254.46 130.52L255.86 129.12L256.58 129.96L255.18 131.24L254.46 130.52ZM249.76 89.6101L237 109.14L237.56 109.48L237.45 110.31L234.32 114.9V114.29L236.89 110.43L234.43 109.25V108.86L237.01 110.09L237.34 109.59V109.48L234.43 108.13V108.02L235.67 108.52L248.42 88.9901L249.76 89.6101ZM194.03 122.85L183.78 121.73L180.15 138.24L198.84 141.38L199.51 141.6L208.47 125.87L194.03 122.85ZM210.86 126.71L200.23 141.88L208.79 144.62L217.47 148.93L218.93 149.93L234.93 137.39L231.58 134.98L231.08 134.87C228.77 133.68 226.43 132.5 224.08 131.34L221.85 130.28L210.86 126.71ZM207.34 123.69L219.76 127.88L231.07 133.31L231.68 133.76L241.81 124.13L238.9 122.12L226.02 115.85L214.32 111.88L207.34 123.69ZM278.3 108.97L261.17 125.37L261.56 125.71L261.4 125.88V125.99L260.84 126.44L258.15 128.96L260.73 126.44V126.32L259.39 124.98V124.64L260.96 126.21L261.3 125.87V125.7L259.51 123.9V123.79L260.46 124.74L277.59 108.29L278.3 108.97ZM243.27 125.15L233.14 134.77L240.58 139.92L248.08 147.25L248.53 148.09L259.73 140.53L258.05 137.89L249.65 129.45L243.27 125.15ZM293.47 126.43V126.31L293.58 126.53L293.47 126.43ZM295.15 145.01L275.39 155.92H275.17V153.62H275.28L275.4 154.86L295.15 144V145.01ZM41.19 144.62L41.3 144.39L25.07 129.12L25.91 128.28L42.14 143.45L42.98 142.61L43.09 142.72L41.3 144.62H41.19ZM65.53 124.41L51.87 106.95L53.21 106.11L66.92 123.57L65.53 124.41ZM101.4 108.41V107.69L98.27 108.87L98.6 109.49L101.4 108.41ZM104.03 113.33L101.52 108.4V108.74L100.68 109.14V110.71L100.57 110.82H100.29V109.25L98.72 109.81L100.45 112.95L100.79 113.79L100.9 114.51L98.16 109.48V108.75L98.61 108.53L88.26 88.9901L89.93 88.4301L100.29 107.91L101.41 107.58L101.52 107.69L104.15 112.5L104.03 113.33ZM135.37 98.7801L135.09 98.2801V98.1701L135.93 97.9501L129.83 77.3501L131.84 76.9601L138 97.5601L138.84 97.3301L140.51 102.59V103.43H140.4L138.83 98.2801V98.6201H138.72L135.47 99.2301L135.36 98.9001L138.72 98.2801V97.5601L135.19 98.1701V98.2801L135.37 98.7801ZM65.76 125.25L65.26 124.75V124.63H65.37L65.76 125.25ZM101.74 119.82L76.94 131.74L71.91 134.88L81.65 144.84L85.4 142.6L109.24 131.35L101.74 119.82ZM119.2 113.79L103.59 119.1L111.03 130.68L125.25 125.98L142.2 121.89L137.78 109.35L119.2 113.79ZM124.29 128.11L109.68 132.81L121.27 147.75L133.41 143.66L134.14 143.44L148.13 140.14L141.25 124.13L124.29 128.11ZM122.62 153.18L131.4 158.21L98.5 177.12L89.71 172.2L122.62 153.18ZM93.68 140.87L80.93 148.26L95.36 160.4L106.44 154.02L119.48 148.37L107.9 133.54L94.75 138.96V140.14L93.68 140.87ZM64.69 197.34L64.8 203.1L66.7 209.65L70.67 215.86L76.33 221.51L76.83 221.4L71.18 215.75L67.2 209.65L65.25 202.99V202.26L67.2 208.92L71.18 215.02L77.05 221.07L77.16 221.41L77.55 221.69L77.44 221.91V224.2L77.05 224.32H77.16L78.39 225.16L81.75 224.66L82.14 224.94V224.44L84.26 225.89L93.05 230.2L102.95 233.45L108.22 234.57L122.32 236.03L141.62 236.25V236.36L157.85 233.84L185.89 225.05L202.28 217.11L215.99 207.7L226.96 197.13L234.68 185.54L236.58 179.05V173.18L234.57 166.69L230.59 160.54L224.94 154.77L217.44 149.68L208.76 145.37L198.8 142.12L176.75 138.65H165.28L153.97 139.82L124.71 147.15L99.58 158.46L85.7 167.86L74.84 178.44L67.06 189.91L65.1 196.4V196.74L46 191.46L46.11 195.55L47.57 200.7L64.42 203.62L64.31 197.24L64.69 197.34ZM58.99 144.51L48.8 154.64L60 162.7L69.52 153.52L77.69 147.41L80.2 145.85L70.46 135.83L61.28 142.44L58.99 144.51ZM68.05 156.31L58.54 165.54L76.62 175.78L84.78 167.94L92.23 162.18L94.08 161.23L79.47 149.09L78.74 149.43L78.52 149.31V148.25L68.05 156.31ZM51.2 175.68L48.51 180.15L46.22 187.6L65.25 193.87L66.36 190.34L69.84 184.46L75.6 176.85L57.58 166.67L52.77 173.05L51.2 175.68ZM40.85 165.44L37.83 170.36L35.42 178.59L46.84 183.96L48.07 179.65L48.41 179.03L48.52 178.7L52.28 172.43L52.78 171.59L57.7 165.1L58.99 163.76L47.79 155.59L42.53 162.59L40.85 165.44ZM64.52 196.27L64.92 194.93L46 188.66V191.06L64.52 196.27ZM52.16 212.61L52.89 213L53.34 213.11L48.3 205.05L46 197.95L38.55 196L43.7 204.12L52.16 212.61ZM66.37 210.21L64.42 203.61L47.91 201.53L48.63 204.11L53.72 212.05L58.53 216.87L70.45 216.48L66.37 210.21ZM69.61 223.25L73.47 225.04L76.44 224.54L74.31 225.5L75.04 225.89L77.68 225.39L76.44 224.55V221.92L69.61 223.25ZM62.84 219.94L69.11 222.96L75.6 221.67L71.63 217.69L60.83 218.53L62.84 219.94ZM62.62 222.97L51.76 215.53L48.07 211.89L46.51 211.45V211.67L44.66 211.17L47.45 212.73V220.12V220.67L58.03 225.77L64.3 227.9L75.38 229.24L62.62 222.97ZM81.99 226.21L78.18 227.05L90.21 231.02L91.78 231.41L99.22 232.98L93.07 230.91L84.28 226.6L82.16 225.14V224.92L75.78 226.09V226.2L77.45 226.7L81.53 225.98L81.99 226.21ZM222.9 229.34L233.02 225.15L245.39 218.44L257.2 211.05L275.61 196.16L283.22 188.21L286.57 183.57V183.62L287.52 182.39V182.31L289.59 179.76L295.46 169.8L299.1 157.37V148.93L295.46 161.46L289.59 171.48L275.6 187.83L257.19 202.77L234.81 215.64L209.01 226.33L180.64 234.44L163.29 237.79L141.75 239.97L119.31 239.8L97.43 237.56L76.33 233.09L56.96 226.71L39.84 218.43L25.51 208.41L14.32 197.33L6.6 185.19L2.63 172.43V180.71L6.6 193.47L14.33 205.67L25.52 216.86L39.85 226.7L41.08 227.32L41.92 227.88L58.65 235.99L77.68 242.37L98.16 246.68L119.7 248.86L141.47 248.97L162.57 246.79L193.85 239.96L207.62 235.59L221.11 230.05L222.9 229.34ZM141.64 237.18V237.41L147.85 236.85L157.98 234.77L163.29 233.2L157.86 234.54L141.64 237.18ZM27.19 169.91L26.97 169.8H26.85L7.94 157.37L8.45 156.03L27.19 168.45L27.59 167.5L27.7 167.61V168.34H27.82L27.19 169.91ZM4.59 162.58L4.48 162.8L4.59 172.32L8.45 184.8L15.89 196.61H16.01V195.77V194.2L40.86 203.1L37.56 198.07L36.38 194.21L33.87 193.04L33.75 192.65L32.63 192.2L33.59 192.53L33.25 191.58L35.99 192.76L34.71 188.45L34.59 179.32H34.93V179.04H35.04V178.82L4.59 159.9L4.48 160.01V162.58H4.59ZM28.43 188.32L29.04 190.62H28.87V190.84L8.78 181.71L8.45 180.37L28.53 189.38L28.31 188.32H28.43ZM45.5 187.93L46.51 185.2L35.03 179.88V183.74V185.7L37.44 193.25L45.67 196.16L45.5 187.93ZM0.39 171.59V182.39V185.92H0V178.92C0 178.85 0 178.73 0 178.58V173.88C0 173.7 0 173.53 0 173.38V171.59H0.39ZM301.02 167.23V167.51L297.21 180.16L291.28 190.12L277.18 206.74L268.51 214.58L258.67 221.8L236 234.9L223.41 240.55L195.94 250.06L163.76 257.17L141.99 259.34H119.2L96.92 257.05L75.6 252.46L56.02 245.97L38.56 237.58L23.95 227.45L12.65 216.15L4.82 203.84L0.85 190.96V190.85L4.38 202.04L12.16 214.46L23.64 225.88L38.19 235.84L55.65 244.41L75.41 251.01L96.85 255.49L119.23 257.78L142.01 257.9L163.95 255.6L181.52 252.13L210.29 244.07L236.42 233.33L259.02 220.23L277.71 205.18L285.32 197.01L297.69 178.32L301.02 167.23ZM5.54 217.2V217.82L5.21 216.7L5.54 217.2ZM62.12 260.29V259.67L72.14 262.92V263.65L62.12 260.29ZM90.66 268.01L81.14 265.94V265.5L90.66 267.51V268.01ZM51.2 255.99L43.7 252.35V251.74L51.2 255.37V255.99ZM21.1 236.96L15.89 231.65V230.93L21.1 236.13V236.96ZM31.45 244.91L29.15 243.34V242.94L31.45 244.51V244.91ZM300.08 183.01V183.4L298.51 188.55L300.08 183.01ZM46.11 196.6L37.55 193.59L37.94 194.82L45.78 196.89H46V196.61H46.11V196.6ZM40.35 207.8L44.44 209.03V209.76L44.94 210.1L46.95 210.71L43.37 207.24L43.6 207.08V206.86L16.01 196.89L22.78 203.61L33.74 206.86V205.4L34.19 205.18L40.12 208.53L40.23 207.8H40.35ZM33.74 207.68L23.95 204.77L27.09 207.79L33.75 212.38V207.68H33.74ZM263.98 174.62L254.19 189.17L240.7 202.15L223.75 213.85L203.88 223.59L209.75 221.29L210.99 221.18L213.28 220.34V219.84L214.96 219.61H215.07L231.36 212.73L255.87 198.91L266.5 190.85L281.44 176.19V177.03L283.34 176.41L285.86 173.05L291.4 163.54L292.13 163.65L293.47 161.36L263.86 174.45V174.62H263.98ZM281.43 178.31L265.54 193.98L245.18 207.8L233.59 213.95L208.08 224.42L179.93 232.36V233.31L208.08 225.36L233.59 214.78L255.87 202.02L274.06 187.37L281.44 179.31V178.31H281.43ZM264.92 168.45L264.31 170.35L255.74 173.37L255.86 173.59H256.14V173.76L253.73 181.54L249.48 188.76L247.58 191.17L251.89 190.61L253.62 188.76L263.98 173.59V171.69L264.82 171.36L266.72 164.97V162.29V156.64L266.61 156.42L263.7 146.9L260.96 142.59L249.38 149.42L253.13 155.29L253.24 155.68L253.63 156.18L256.27 164.68V171.57L264.92 168.45ZM271.41 158.11L272.25 157.49H272.37L271.41 158.11ZM236.61 138.46L220.5 151L224.97 154.02L230.62 159.67L231.07 160.4L231.46 160.74L249.76 151.22L248.09 148.71L240.59 141.26L236.61 138.46ZM251.22 153.8L232.31 162.19L235.33 167L237.46 173.6V179.03L254.92 175.06L255.76 172.32V165.1L253.13 156.76L251.22 153.8ZM237.45 180.37L235.77 185.92L250.94 184.58L253.24 180.61L254.58 176.52L237.45 180.37ZM234.71 186.36L226.99 197.84L216.02 208.42L202.31 217.82L185.92 225.77L174.39 229.74L186.31 225.99L202.54 218.04L216.42 208.52L227.38 197.94L231.69 192.29L235.05 186.36H234.71ZM250.21 185.7L235.43 186.98L231.91 192.91L230.34 194.93L243.38 195.04L249.03 187.71L250.21 185.7ZM264.2 183.51H264.09L265.76 181.33V181.44L264.2 183.51ZM250.83 191.69L246.85 192.3L244.56 195.32L232.02 207.46H232.41L240.57 201.42L250.83 191.69ZM239.75 198.9L242.44 196.16L229.51 195.99L227.72 198.56L216.64 209.14L213.51 211.55L222.41 213.01L238.3 200.47L239.75 198.9ZM244.34 202.77L241.93 204.56L241.71 205.28L237.96 206.24V205.9L235.67 206.52L236.9 205.51L239.76 204.78L240.37 204.44L240.49 203.71L244.24 202.76H244.34V202.77ZM220.94 213.95L212.16 212.5L202.93 218.65L191.45 224.42L195.42 225.87L213.89 218.15L220.94 213.95ZM162.07 234.55L162.57 234.89L168.84 233.71L168.95 233.6L179.92 230.92V230.19L193.63 226.61L189.88 225.15L168 232.98L162.07 234.55Z" fill="#F3EDE1"/>
<path fill-rule="evenodd" clip-rule="evenodd" d="M190.72 74.3301L182.05 73.3801H161.23L161.11 72.1501H182.21L203.87 74.4401L222.78 78.4101L222.28 79.6501L203.37 75.5101L192.29 74.4501L190.72 74.3301ZM15.89 140.42L10.12 150.05L8.44998 156.03L7.93998 157.37L7.60998 158.71L5.86998 157.6L8.16998 149.82L13.99 139.92L20.26 131.64L36.37 116.08L56.58 102.26L58.53 101.31L68.16 96.1001L93.67 85.5201L121.88 77.6801L138.95 74.3201L160.16 72.1501L160.27 73.3801L139.45 75.3901L131.84 76.9601L129.83 77.3501L108.51 82.3901L89.92 88.4301L88.25 88.9901L69.5 96.9401L53.21 106.12L51.87 106.96L38.05 116.7L29.49 124.31L25.91 128.28L25.07 129.12L22.16 132.08L15.89 140.42ZM249.76 89.6101L248.42 88.9901L242.55 86.1401L224.36 80.0901L225.2 79.0301L243.73 85.1801L260.58 93.3501L274.79 103.09L285.76 114.17L291.18 122.57L289.73 123.81L283.96 114.68L278.31 108.97L277.59 108.3L273 103.82L259.18 94.2001L249.76 89.6101ZM293.58 126.54L297.21 138.63L297.33 148.81L293.69 161.01V161.12L293.58 160.73V158.44L292.96 158.83L295.25 151.22L295.14 145.01V144V138.74L291.39 126.71L293.46 126.43L293.58 126.54ZM16.01 195.76V196.6H15.89L8.44998 184.8L4.58998 172.32L4.47998 162.8L4.58998 162.58H6.59998V174.72L8.44998 180.37L8.77998 181.71L10.46 186.97L16.01 195.76Z" fill="#FF0000"/>
<path fill-rule="evenodd" clip-rule="evenodd" d="M160.17 72.15L138.96 74.32L121.89 77.68L93.6802 85.52L68.1602 96.1L58.5302 101.31V98.79L68.1602 93.7L68.2702 93.58L93.6802 83.12L121.89 75.17L138.96 71.82L160.17 69.74V72.15ZM161.11 72.15L161 69.74H182.2L203.86 71.92L223.73 76.12L222.77 78.41L203.86 74.44L182.2 72.15H161.11ZM56.5802 102.25L36.3702 116.07L20.2602 131.63L13.9902 139.91L8.1702 149.81L5.8702 157.59L5.2002 157.25L8.1702 147.4L13.9902 137.5L20.2602 129.22L36.3702 113.54L56.5802 99.73V102.25ZM291.17 122.57L285.75 114.17L274.78 103.09L260.57 93.35L243.72 85.18L225.19 79.03L224.24 79.25L225.19 76.62L243.72 82.77L260.57 90.94L274.78 100.68L285.75 111.64L292.23 121.89L291.17 122.57Z" fill="#AEA083"/>
<path fill-rule="evenodd" clip-rule="evenodd" d="M225.19 79.03L224.35 80.09L242.54 86.14L248.41 88.99L235.66 108.52L234.42 108.02L234.2 108.3L231.46 112.83L231.35 113.56L232.18 113.95L231.57 114.9L226.03 112.11L213.16 107.8L224.24 79.25L225.19 79.03ZM254.46 130.52L249.65 125.71L238.91 118.26L232.92 115.35L233.48 114.68L234.32 114.9L237.45 110.31L237.56 109.48L237 109.14L249.75 89.61L259.16 94.2L272.98 103.82L277.57 108.3L260.44 124.75L259.49 123.8V123.91L255.4 127.88L255.29 128.61L255.85 129.11L254.46 130.52ZM210.86 126.71L221.83 130.29L224.06 131.35C226.42 132.5 228.75 133.68 231.06 134.88L231.56 134.99L234.91 137.4L218.91 149.94L217.45 148.94L208.77 144.63L200.21 141.89L210.86 126.71ZM263.7 143.16L258.05 134.15L255.19 131.24L256.59 129.96L257.21 130.52L261.41 126.54L261.57 125.71L261.18 125.37L278.31 108.97L283.96 114.68L289.73 123.81L263.7 143.16ZM236.61 138.46L240.58 141.26L248.08 148.71L249.75 151.22L231.45 160.74L231.06 160.4L230.61 159.67L224.96 154.02L220.5 151L236.61 138.46Z" fill="#0099FF"/>
<path fill-rule="evenodd" clip-rule="evenodd" d="M15.8901 140.42L42.0201 161.46L37.4301 169.41L35.9801 174.12L32.2801 171.71L32.3901 171.38V170.65L27.6901 167.64L27.5801 167.53L27.1801 168.48L8.4501 156.03L10.1201 150.05L15.8901 140.42ZM27.1901 169.91L31.6701 172.93L31.7801 173.49L31.8901 173.04L35.5201 175.45L35.0201 177.12V176.01L7.6001 158.71L7.9301 157.37L26.8401 169.8H26.9601L27.1901 169.91ZM178.8 121.28L181.49 121.5L177.74 138.01L176.9 137.9H165.82L164.14 121.28H178.8ZM194.03 122.85L208.46 125.87L199.5 141.6L198.83 141.38L180.14 138.24L183.77 121.73L194.03 122.85ZM275.17 153.63L270.47 156.32L270.35 157.61L267.22 159.28V155.47L266.6 153.52V152.68L264.53 145.57L293.46 123.91L297.21 136.22V138.63L293.58 126.54L293.47 126.32V126.44L291.4 126.72L295.15 138.75V144L275.39 154.86L275.27 153.62H275.17V153.63ZM275.39 155.92L295.15 145.01L295.26 151.22L292.97 158.83L265.54 170.97L267.22 165.1V160.29L270.35 158.61H270.47L270.35 159.17L275.17 156.65L275.39 155.92ZM69.8401 184.46L66.3601 190.34L65.2501 193.87L46.2201 187.6L48.5101 180.15L51.2001 175.68L69.8401 184.46ZM64.5201 196.27L46.0001 191.07V188.67L64.9101 194.94L64.5201 196.27ZM47.4501 220.12L62.6201 222.97L75.3801 229.24L64.3001 227.9L58.0301 225.77L47.4501 220.67V220.12ZM251.22 153.8L253.12 156.76L255.75 165.1V172.32L254.91 175.06L237.45 179.03V173.6L235.32 167L232.3 162.19L251.22 153.8Z" fill="#62CE21"/>
<path fill-rule="evenodd" clip-rule="evenodd" d="M187.86 102.59H188.81L189.76 96.6001V96.4901H188.92L192.28 74.4401L203.36 75.5001L222.27 79.6401L211.59 107.29L195.92 103.93L187.86 103.09V102.59ZM179.42 102.25H163.3L161.23 73.3801H182.05L190.72 74.3301L187.36 96.2201L185.91 96.1001L185.79 96.2201V96.3801L184.95 101.53V102.26L186.29 102.37V102.99L179.63 102.26H179.42V102.25Z" fill="#66CC33"/>
<path fill-rule="evenodd" clip-rule="evenodd" d="M185.91 96.21L189.54 96.6V97.33L185.79 96.94L185.91 96.21ZM188.82 102.59H187.87L186.3 102.37L184.96 102.26L185.8 97.33L189.44 97.67L188.82 101.92V102.59ZM31.9002 173.04L31.7902 173.49L31.6802 172.93L27.2002 169.91L27.8202 168.35H27.7002V167.62L32.4002 170.63V171.36L32.2902 171.69L31.9002 173.04ZM270.35 157.6L270.47 156.31L275.17 153.62V155.92H275.39L275.17 156.65L270.35 159.17L270.47 158.61H270.35V157.6ZM69.6102 223.25L76.4402 221.91V224.54L77.6802 225.38L75.0402 225.88L74.3102 225.49L76.4402 224.53L73.4702 225.03L69.6102 223.25ZM91.7802 231.42L83.7102 227.44L81.9802 226.21L81.5302 225.99L77.4502 226.71L75.7802 226.21V226.1L82.1602 224.93V225.15L84.2802 226.61L93.0702 230.92L99.2202 232.99L91.7802 231.42ZM271.41 158.11L272.37 157.49H272.25L271.41 158.11Z" fill="#379000"/>
<path fill-rule="evenodd" clip-rule="evenodd" d="M163.3 102.25H179.42V104.88H162.68V104.16V102.26H163.3V102.25ZM211.6 109.98L195.93 106.56V103.93L211.6 107.29V109.98ZM231.57 114.9L232.91 115.35L238.9 118.26V121.06L226.02 114.79V112.11L231.57 114.9ZM263.7 143.16L263.87 143.27L264.21 144.84H264.32L264.54 145.57L266.61 152.68V153.52V154.24C266.61 154.39 266.61 154.56 266.61 154.74V155.19L263.7 145.85V143.16ZM258.05 134.15V136.67L249.65 128.39V125.7L254.46 130.51L255.18 131.23L258.05 134.15Z" fill="#FF2D00"/>
<path fill-rule="evenodd" clip-rule="evenodd" d="M160.27 73.3801L162.68 104.16L146.57 105.72L140.75 106.96L139.8 103.6L140.42 103.43H140.53V102.59L138.86 97.3301L138.02 97.5601L131.86 76.9601L139.47 75.3901L160.27 73.3801ZM135.49 99.2301L136.78 103.32V104.16L137.78 103.94L138.74 107.3L120.89 111.55L120.55 111.66L108.52 82.4001L129.84 77.3601L135.94 97.9601L135.1 98.1801V98.2901L135.38 98.7901V98.9001L135.49 99.2301ZM179.42 102.25H179.64L186.3 102.98L187.87 103.09L195.93 103.93V106.56L179.42 104.88V102.25ZM38.0501 116.69L60.5501 141.26L54.0601 147.03L50.3101 151.12L46.8401 147.87L47.3401 147.25V146.52L43.0801 142.71L42.9701 142.6L42.1301 143.44L25.9001 128.27L29.4801 124.3L38.0501 116.69ZM15.8901 140.42L22.1601 132.08L25.0701 129.12L41.3001 144.39L41.1901 144.62H41.0801L41.3001 145.35L45.5001 149.21L46.0001 148.71L49.4701 151.95L47.7901 153.8L42.0201 161.46L15.8901 140.42ZM226.03 114.79L211.6 109.98V107.29L213.17 107.79L226.04 112.1V114.79H226.03ZM238.91 118.26L249.65 125.71V128.4L238.91 121.07V118.26ZM258.05 136.67V134.15L263.7 143.16V145.85L258.05 136.67ZM84.7801 167.95L76.6201 175.79L58.5401 165.55L68.0501 156.32L84.7801 167.95ZM69.8401 184.46L51.2001 175.68L52.7701 173.04L57.5801 166.66L75.6001 176.84L69.8401 184.46ZM266.5 190.85L248.2 196.16L254.47 189.39L256.87 186.26L259.73 185.2L259.61 185.7L264.2 184.13V183.51L265.77 181.43V181.32H265.66L261.29 182.89V183.61L260.95 184.12L257.7 185.18L264.31 174.82H263.97V174.6H263.86V174.43L293.47 161.34L292.13 163.63L291.4 163.52L285.86 173.03L283.34 176.39L281.44 177.01V176.17L266.5 190.85ZM264.92 168.45L266.72 162.3V164.98L264.82 171.37L263.98 171.7L264.32 170.36L264.92 168.45ZM237.45 180.37L254.58 176.51L253.24 180.6L250.94 184.57L235.77 185.91L237.45 180.37ZM250.21 185.7L249.03 187.71L243.38 195.04L230.34 194.93L231.91 192.91L235.43 186.98L250.21 185.7ZM239.75 198.9L227.71 198.56L229.5 195.99L242.43 196.16L239.75 198.9Z" fill="#FFCC00"/>
<path fill-rule="evenodd" clip-rule="evenodd" d="M162.46 106H179.19L178.08 119.1H163.52L162.46 106ZM181.09 106.22L178.68 119.1L179.8 106.12L181.09 106.22ZM183.05 106.34L195.93 107.8L211.6 111.05L213.27 111.66L207.34 123.7L207.01 123.58L193.01 120.67L180.64 119.33L183.05 106.34Z" fill="#4AB100"/>
<path fill-rule="evenodd" clip-rule="evenodd" d="M181.09 106.22L183.05 106.34L180.65 119.32L178.69 119.1L181.09 106.22Z" fill="#F3EDE0"/>
<path fill-rule="evenodd" clip-rule="evenodd" d="M207.34 123.69L214.33 111.88L226.03 115.85L238.91 122.12L241.82 124.13L231.69 133.76L231.08 133.31L219.77 127.88L207.34 123.69ZM243.27 125.15L249.65 129.46L258.05 137.9L259.73 140.54L248.53 148.1L248.08 147.26L240.58 139.93L233.14 134.78L243.27 125.15ZM52.1598 212.61L43.7098 204.11L38.5598 195.99L46.0098 197.94L48.2998 205.05L53.3398 213.11L52.8898 213L52.1598 212.61ZM35.0298 183.74L45.4998 187.93L45.6698 196.16L37.4398 193.25L35.0298 185.7V183.74ZM46.1098 196.6H45.9998V196.88H45.7798L37.9398 194.81L37.5498 193.58L46.1098 196.6Z" fill="#007ED7"/>
<path fill-rule="evenodd" clip-rule="evenodd" d="M233.48 114.68L232.19 113.95L231.36 113.56L231.47 112.83L234.21 108.3L234.43 108.02V108.13L237.34 109.48V109.59L237.01 110.09L234.43 108.86V109.25L236.89 110.43L234.32 114.29V114.9L233.48 114.68ZM256.59 129.96L255.87 129.12L255.31 128.62L255.42 127.89L259.51 123.92L261.3 125.72V125.89L260.96 126.23L259.39 124.66V125L260.73 126.34V126.46L258.15 128.98L260.84 126.46L261.4 126.01V125.9L261.56 125.73L261.4 126.56L257.2 130.54L256.59 129.96ZM28.8702 190.85V190.63H29.0402L28.4302 188.33L33.1302 190.51V191.19L33.2402 191.58L33.5802 192.53L32.6202 192.2L33.7402 192.65L33.8602 193.04V193.37L29.1502 191.36L28.8702 190.85Z" fill="#005795"/>
<path fill-rule="evenodd" clip-rule="evenodd" d="M40.8498 165.44L52.2698 172.43L48.5098 178.7L48.3998 179.03L48.0598 179.65L46.8298 183.96L35.4098 178.59L37.8198 170.36L40.8498 165.44ZM91.7798 231.42L90.2098 231.03L78.1798 227.06L81.9898 226.22L83.7198 227.45L91.7798 231.42ZM45.4998 187.93L35.0298 183.74V179.88L46.5098 185.2L45.4998 187.93ZM266.72 162.3L264.92 168.45L256.25 171.59V164.7L253.61 156.2L253.22 155.7L253.11 155.31L249.36 149.44L260.94 142.61L263.68 146.92L266.59 156.44L266.7 156.66V162.3H266.72Z" fill="#45B300"/>
<path fill-rule="evenodd" clip-rule="evenodd" d="M299.12 138.35L301.42 145.85L301.53 158.95L297.67 171.6L285.3 190.23L277.08 198.18L268.91 206.12L258.55 213.23L248.2 220.34L236.39 226.61L210.26 237.29L196.16 241.76L163.92 248.87L141.98 251.17L119.2 251L96.8199 248.77L75.3799 244.29L55.6199 237.69L38.1599 229.12L23.6199 219.1L12.1399 207.68L4.35988 195.31L0.379883 182.38V171.58V169.28L2.61988 161.56V163.74L0.939883 169.28V182.38L4.91988 195.31L12.7599 207.57L24.0599 218.87L38.6699 228.89L56.0199 237.29L75.5999 243.95L96.9199 248.37L119.2 250.67L141.86 250.78L163.75 248.49L195.81 241.38L209.91 237.07L235.88 226.21L258.54 213.23L277.07 198.18L284.67 190.12L297.04 171.6L300.79 158.95V145.85L299.11 140.42V138.35H299.12ZM65.2499 202.26V202.99L67.1999 209.65L71.1799 215.75L76.8299 221.4L76.3299 221.51L70.6699 215.86L66.6999 209.65L64.7999 203.1L64.6899 197.34V196.72H65.1399L65.2499 202.26ZM221.1 230.08L207.61 235.62L193.84 239.99L162.56 246.82L141.46 249L119.69 248.89L98.1499 246.71L77.6699 242.4L58.6399 236.02L41.9099 227.91L41.0699 227.35L56.9599 235.01L76.3299 241.56L97.4299 245.98L119.31 248.16L141.75 248.27L163.29 246.1L195.08 238.99L221.1 230.08ZM245.4 218.44L233.03 225.15L222.91 229.34L245.4 218.44ZM141.64 237.18L157.87 234.55L163.3 233.21L157.99 234.78L147.86 236.86L141.65 237.42V237.18H141.64ZM281.43 178.31V179.32L274.05 187.38L255.86 202.03L233.58 214.79L208.07 225.37L179.92 233.32V232.37L208.07 224.43L233.58 213.96L245.17 207.81L265.53 193.99L281.43 178.31ZM234.71 186.36H235.05L231.69 192.29L227.38 197.94L216.42 208.52L202.54 218.04L186.31 225.99L174.39 229.74L185.92 225.77L202.31 217.82L216.02 208.42L226.99 197.84L234.71 186.36Z" fill="#94876D"/>
<path fill-rule="evenodd" clip-rule="evenodd" d="M69.5101 153.52L59.9901 162.7L48.7901 154.64L58.9801 144.51L69.5101 153.52ZM52.2701 172.43L40.8501 165.44L42.5301 162.58L47.7901 155.58L58.9901 163.75L57.7001 165.09L52.7801 171.58L52.2701 172.43ZM264.31 170.36L263.97 171.7V173.6L253.61 188.77L251.88 190.62L247.57 191.18L249.47 188.77L253.72 181.55L256.13 173.77V173.6H255.85L255.73 173.38L264.31 170.36ZM250.83 191.69L240.58 201.43L232.42 207.47H232.03L244.57 195.33L246.86 192.31L250.83 191.69Z" fill="#E5B800"/>
<path fill-rule="evenodd" clip-rule="evenodd" d="M106.44 154.02L95.3598 160.4L80.9298 148.26L93.6798 140.87L106.44 154.02ZM84.7798 167.95L68.0498 156.31L78.5198 148.25V149.31L78.7398 149.43L79.4698 149.09L94.0798 161.23L92.2298 162.18L84.7798 167.95ZM256.87 186.26L254.47 189.39L248.2 196.16L266.5 190.85L255.87 198.91L231.36 212.73L215.07 219.61H214.96L213.28 219.84V220.34L210.99 221.18L209.75 221.29L203.88 223.59L223.75 213.85L240.7 202.15L254.19 189.17L263.98 174.62V174.84H264.32L257.71 185.2L256.87 186.26ZM244.34 202.77H244.22L240.47 203.72L240.35 204.45L239.74 204.79L236.88 205.52L235.65 206.53L237.94 205.91V206.25L241.69 205.29L241.91 204.57L244.34 202.77ZM239.75 198.9L238.29 200.47L222.4 213.01L213.5 211.55L216.63 209.14L227.71 198.56L239.75 198.9ZM162.07 234.55L168 232.98L189.88 225.15L193.63 226.61L179.92 230.19V230.92L168.95 233.6L168.84 233.71L162.57 234.89L162.07 234.55ZM220.94 213.95L213.89 218.15L195.42 225.87L191.45 224.42L202.93 218.65L212.16 212.5L220.94 213.95Z" fill="#FF3000"/>
<path fill-rule="evenodd" clip-rule="evenodd" d="M137.77 103.93L136.77 104.15V103.31L135.48 99.2201L138.73 98.6101H138.84V98.2701L140.41 103.42L139.79 103.59L137.77 103.93ZM43.0901 142.72L47.3501 146.53V147.26L46.8501 147.88L46.0001 148.71L45.5001 149.21L41.3001 145.35L41.0801 144.62H41.1901H41.3001L43.0901 142.72ZM135.37 98.7801L135.2 98.2801V98.1701L138.73 97.5601V98.2801L135.37 98.9001V98.7801ZM264.2 183.51V184.13L259.61 185.7L259.73 185.2L256.87 186.26L257.71 185.2L260.96 184.14L261.3 183.63V182.91L265.67 181.34H265.78L264.11 183.52H264.2V183.51Z" fill="#B39000"/>
<path fill-rule="evenodd" clip-rule="evenodd" d="M3.9699 211.55L2.3999 206.52V199.13L3.9699 204.34V211.55ZM275.9 211.05V218.44L271.2 222.63V215.3L275.9 211.05ZM250.1 229.74L257.71 225.04V234.17L250.1 238.87V229.74ZM260.57 231.64V222.74L266.39 218.54V227.33L260.57 231.64ZM277.18 209.65L280.71 205.9V214.58L277.18 218.27V209.65ZM292.13 199.02V189.28L294.82 184.8V194.59L292.13 199.02ZM284.79 199.29L288.04 194.93V204.77L284.79 209.02V199.29ZM230.84 237.91V247.65L224.35 250.56V240.82L230.84 237.91ZM211.48 255.48V245.63L218.31 243.06V252.96L211.48 255.48Z" fill="#6D6048"/>
<path fill-rule="evenodd" clip-rule="evenodd" d="M13.9902 134.88V134.15L20.2602 125.87L36.3702 110.2L46.0002 103.09L68.1602 90.23L93.6802 79.99L121.88 72.04V74.1L93.6802 81.88L68.1602 92.63L46.0002 105.5L36.3702 112.61L20.2602 128.28L13.9902 136.56V134.88Z" fill="#C1D1DB"/>
<path fill-rule="evenodd" clip-rule="evenodd" d="M108.51 82.3901L120.54 111.65L104.99 116.8L103.31 113.55L104.03 113.33L104.15 112.49L101.52 107.68L101.41 107.57L100.29 107.9L89.9298 88.4301L108.51 82.3901ZM100.9 114.51L101.63 114.29L103.31 117.42L98.2798 119.22L78.2998 129.12L73.5998 131.97L70.9198 128.62L71.5298 128.28V127.55L67.9498 123.07V122.96L66.9398 123.57L53.2298 106.11L69.5198 96.9301L88.2698 88.9801L98.6198 108.51L98.1698 108.73V109.46L100.9 114.51ZM60.5498 141.26L38.0498 116.69L51.8698 106.95L65.5298 124.41L65.2498 124.63V124.75L65.7498 125.25L65.9698 125.47L66.5898 126.31H66.6998L67.5398 127.55L68.8798 129.12V129.84L69.4998 129.45L72.2398 132.92L61.2698 140.64L60.5498 141.26ZM133.42 143.67L121.28 147.76L109.69 132.82L124.3 128.12L133.42 143.67ZM106.44 154.02L93.6798 140.87L94.7498 140.14V138.96L107.9 133.54L119.48 148.37L106.44 154.02Z" fill="#FF3300"/>
<path fill-rule="evenodd" clip-rule="evenodd" d="M104.03 113.33L103.31 113.55L101.63 114.28L100.9 114.5L100.79 113.78L100.45 112.94L98.72 109.8L100.29 109.24V110.81H100.57L100.68 110.7V109.13L101.52 108.73V108.39L104.03 113.33ZM101.4 108.41L98.6 109.48L98.27 108.86L101.4 107.68V108.41ZM69.51 129.46L68.89 129.85V129.13L67.55 127.56L66.71 126.32H66.6L65.98 125.48L65.76 125.26L65.36 124.64H65.25L65.53 124.42L66.92 123.58L67.93 122.97V123.08L71.51 127.56V128.29L70.9 128.63L69.51 129.46Z" fill="#9F2700"/>
<path fill-rule="evenodd" clip-rule="evenodd" d="M119.2 113.79L125.25 125.99L111.03 130.69L103.59 119.11L119.2 113.79ZM101.74 119.82L109.24 131.35L85.4002 142.6L81.6502 144.84L71.9102 134.88L76.9402 131.74L101.74 119.82ZM69.5102 153.52L58.9902 144.51L61.2802 142.44L70.4602 135.83L80.2002 145.85L77.6902 147.41L69.5102 153.52Z" fill="#CC3300"/>
<path fill-rule="evenodd" clip-rule="evenodd" d="M163.52 119.1L149.19 120.56L148.97 120.67L144.16 121.51L139.68 108.97L162.46 106L163.52 119.1ZM119.2 113.79L137.78 109.37L142.2 121.91L125.25 126L119.2 113.79Z" fill="#E4B700"/>
<path fill-rule="evenodd" clip-rule="evenodd" d="M143.44 123.69L148.36 122.73L163.42 121.28L165.21 137.9L154.02 138.96L150.16 139.8L143.44 123.69ZM133.42 143.67L124.29 128.12L141.25 124.14L148.13 140.15L134.14 143.45L133.42 143.67Z" fill="#FFCD00"/>
<path fill-rule="evenodd" clip-rule="evenodd" d="M65.1402 196.72H64.6902V197.34L64.3002 197.23L64.4102 203.61L47.5602 200.69L46.1002 195.54L46.0002 191.46L65.1402 196.72ZM66.3702 210.21L70.4602 216.48L58.5402 216.87L53.7302 212.05L48.6402 204.11L47.9202 201.53L64.4302 203.61L66.3702 210.21ZM62.8402 219.94L60.8302 218.54L71.6302 217.7L75.6002 221.68L69.1102 222.97L62.8402 219.94ZM62.6202 222.97L47.4502 220.12V212.73L44.6602 211.17L46.5102 211.67V211.45L48.0702 211.89L51.7602 215.53L62.6202 222.97ZM8.78021 181.72L28.8702 190.85L29.1502 191.35L33.8602 193.36V193.03L36.3702 194.2L37.5502 198.06L40.8502 203.09L16.0002 194.19V195.76L10.4502 186.98L8.78021 181.72ZM33.2402 191.57L33.1302 191.18V190.5L28.4302 188.32H28.3102L28.5302 189.38L8.45021 180.37L6.60021 174.72V162.58H4.59022H4.47021V160.01L4.58021 159.9L35.0202 178.81V179.03H34.9102V179.31H34.5702L34.6902 188.44L35.9702 192.75L33.2402 191.57ZM33.7402 207.68V212.38L27.0802 207.79L23.9402 204.77L33.7402 207.68ZM40.3502 207.8H40.2402L40.1302 208.53L34.2002 205.18L33.7502 205.4V206.86L22.7902 203.61L16.0202 196.89L43.6102 206.86V207.08L43.3802 207.24L46.9602 210.71L44.9502 210.1L44.4502 209.76V209.03L40.3502 207.8Z" fill="#0096FF"/>
<path fill-rule="evenodd" clip-rule="evenodd" d="M258.55 213.23L268.9 206.12L277.07 198.18L285.3 190.23L297.66 171.59L301.53 158.95V165.66L301.02 167.23L297.66 178.31L285.3 197L277.68 205.17L258.99 220.22L236.39 233.32L210.25 244.06L181.49 252.12L163.92 255.59L141.98 257.89L119.2 257.77L96.8201 255.48L75.3801 251L55.6201 244.4L38.1701 235.84L23.6201 225.87L12.1401 214.46L4.37014 202.03L0.840137 190.85L0.730137 190.73V190.62L0.390137 189.16V185.92V182.39L4.37014 195.32L12.1401 207.68L23.6201 219.1L38.1701 229.12L55.6201 237.69L75.3801 244.29L96.8201 248.77L119.2 251L141.98 251.17L163.92 248.88L196.15 241.77L210.25 237.29L236.39 226.61L248.19 220.34L258.55 213.23Z" fill="url(#paint6_linear)"/>
<path fill-rule="evenodd" clip-rule="evenodd" d="M245.4 218.44L222.9 229.34L221.1 230.08L195.09 238.97L163.3 246.08L141.75 248.26L119.31 248.15L97.4299 245.97L76.3299 241.54L56.9699 234.99L41.0799 227.33L39.8499 226.71L25.5099 216.87L14.3299 205.68L6.59988 193.47L2.62988 180.71V172.43L6.59988 185.19L14.3299 197.34L25.5099 208.42L39.8499 218.44L56.9699 226.71L76.3299 233.1L97.4299 237.57L119.31 239.81L141.75 239.98L163.3 237.8L180.65 234.44L209.02 226.33L234.82 215.63L257.2 202.77L275.62 187.82L289.61 171.48L295.48 161.46L299.12 148.93V157.37L295.48 169.81L289.61 179.77L287.54 182.31V182.39L286.58 183.62V183.57L283.23 188.21L275.62 196.16L257.2 211.05L245.4 218.44Z" fill="url(#paint7_linear)"/>
<path fill-rule="evenodd" clip-rule="evenodd" d="M301.02 167.51V179.77L300.07 183.02L298.5 188.56L297.33 192.42V192.53L291.28 202.55L277.18 219.12L256.58 235.52L247.8 241.06L224.46 252.48L195.92 262.38L163.74 269.6L141.97 271.61H119.2L96.9202 269.32L90.6602 268.03V267.53L81.1402 265.52V265.96L75.6002 264.9L72.1302 263.67V262.94L62.1102 259.69V260.31L56.0102 258.24L51.1902 256V255.38L43.6902 251.75V252.36L38.5402 249.85L31.4402 244.93V244.53L29.1402 242.96V243.36L23.9402 239.83L21.0902 236.97V236.13L15.8802 230.93V231.65L12.6302 228.4L5.54023 217.2L5.21023 216.7L4.82023 216.14L0.850234 203.27L0.740234 190.73L0.850234 190.85V190.96L4.82023 203.84L12.6502 216.15L23.9502 227.45L38.5602 237.58L56.0202 245.97L75.6002 252.46L96.9202 257.05L119.2 259.34H141.98L163.75 257.17L195.93 250.06L223.4 240.55L235.99 234.9L258.66 221.8L268.5 214.58L277.17 206.74L291.27 190.12L297.2 180.16L301.02 167.51ZM3.97023 211.55V204.33L2.40023 199.12V206.51L3.97023 211.55ZM275.9 211.05L271.2 215.3V222.63L275.9 218.44V211.05ZM250.1 229.74V238.86L257.71 234.16V225.03L250.1 229.74ZM260.57 231.64L266.39 227.33V218.54L260.57 222.74V231.64ZM292.13 199.02L294.82 194.6V184.81L292.13 189.29V199.02ZM277.18 209.65V218.27L280.71 214.58V205.9L277.18 209.65ZM284.79 199.29V209.03L288.04 204.78V194.94L284.79 199.29ZM211.48 255.48L218.31 252.96V243.06L211.48 245.63V255.48ZM230.84 237.91L224.35 240.82V250.56L230.84 247.65V237.91Z" fill="url(#paint8_linear)"/>
<path fill-rule="evenodd" clip-rule="evenodd" d="M68.2402 197.44L169.33 141.27L236.24 177.3L133.02 237.27L68.2402 197.44Z" fill="#CCFFCC"/>
<path fill-rule="evenodd" clip-rule="evenodd" d="M72.2798 196.44L169.33 142.57L230.19 176.53L133.02 232.28L72.2798 196.44Z" fill="#00CC00"/>
<path d="M167.27 148.81L220.19 178.34L134.5 227.5L81.6702 196.33L167.27 148.81ZM167.27 147.66L79.6602 196.3L134.49 228.66L222.22 178.33L167.27 147.66Z" fill="white"/>
<path fill-rule="evenodd" clip-rule="evenodd" d="M18.5798 203.27C19.6998 203.27 20.6598 203.72 21.4498 204.62C22.2298 205.52 22.6298 206.7 22.6298 208.16V235.83C22.6298 237.18 22.2398 238.36 21.4498 239.37C20.6598 240.27 19.6998 240.72 18.5798 240.72C17.3398 240.72 16.3798 240.27 15.7098 239.37C14.9298 238.36 14.5298 237.18 14.5298 235.83V208.16C14.5298 206.69 14.9198 205.52 15.7098 204.62C16.3798 203.72 17.3298 203.27 18.5798 203.27Z" fill="#999999"/>
<path fill-rule="evenodd" clip-rule="evenodd" d="M16.5498 167.16H20.5898V206.65C20.5898 207.21 20.3698 207.71 19.9198 208.17C19.5798 208.51 19.1398 208.67 18.5798 208.67C18.0098 208.67 17.5698 208.5 17.2298 208.17C16.7798 207.72 16.5598 207.22 16.5598 206.65V167.16H16.5498Z" fill="#666666"/>
<path fill-rule="evenodd" clip-rule="evenodd" d="M117.11 266.88C117.79 265.87 118.68 265.36 119.81 265.36C121.05 265.36 122.06 265.86 122.84 266.88C123.63 267.78 124.03 268.91 124.03 270.26V297.92C124.03 299.27 123.64 300.46 122.84 301.46C122.06 302.37 121.04 302.81 119.81 302.81C118.68 302.81 117.78 302.36 117.11 301.46C116.21 300.45 115.76 299.27 115.76 297.92V270.26C115.76 268.9 116.21 267.77 117.11 266.88Z" fill="#999999"/>
<path fill-rule="evenodd" clip-rule="evenodd" d="M117.78 268.9V229.25H122V268.9C122 269.35 121.78 269.8 121.32 270.25C120.98 270.7 120.48 270.92 119.8 270.92C119.35 270.92 118.89 270.69 118.45 270.25C118 269.8 117.78 269.35 117.78 268.9Z" fill="#666666"/>
<path fill-rule="evenodd" clip-rule="evenodd" d="M79.8198 278.35V250.68C79.8198 249.21 80.2598 248.04 81.1698 247.14C81.8398 246.24 82.7398 245.79 83.8598 245.79C84.9898 245.79 85.9998 246.24 86.8998 247.14C87.6898 248.04 88.0798 249.22 88.0798 250.68V278.35C88.0798 279.69 87.6898 280.88 86.8998 281.89C85.9998 282.79 84.9898 283.24 83.8598 283.24C82.7398 283.24 81.8398 282.79 81.1698 281.89C80.2598 280.88 79.8198 279.69 79.8198 278.35Z" fill="#999999"/>
<path fill-rule="evenodd" clip-rule="evenodd" d="M81.8496 249.16V209.68H86.0696V249.16C86.0696 249.72 85.8396 250.22 85.3996 250.68C84.9496 251.02 84.4396 251.18 83.8696 251.18C83.4296 251.18 82.9696 251.02 82.5296 250.68C82.0696 250.23 81.8496 249.72 81.8496 249.16Z" fill="#666666"/>
<path fill-rule="evenodd" clip-rule="evenodd" d="M54.1796 225.87C54.9596 226.78 55.3596 227.96 55.3596 229.41V257.08C55.3596 258.43 54.9596 259.61 54.1796 260.62C53.3896 261.52 52.3696 261.97 51.1396 261.97C50.0196 261.97 49.1096 261.52 48.4496 260.62C47.5396 259.61 47.0996 258.43 47.0996 257.08V229.41C47.0996 227.95 47.5496 226.77 48.4496 225.87C49.1196 224.97 50.0196 224.53 51.1396 224.53C52.3696 224.53 53.3796 224.98 54.1796 225.87Z" fill="#999999"/>
<path fill-rule="evenodd" clip-rule="evenodd" d="M49.1094 188.42H53.3294V227.9C53.3294 228.46 53.1094 228.97 52.6594 229.42C52.3194 229.76 51.8094 229.93 51.1394 229.93C50.6894 229.93 50.2394 229.76 49.7894 229.42C49.3394 228.97 49.1194 228.46 49.1194 227.9V188.42H49.1094Z" fill="#666666"/>
<path d="M153.74 155.77L206.71 186.36" stroke="white" stroke-miterlimit="10"/>
<path d="M209.98 172.43L196.16 180.27" stroke="white" stroke-miterlimit="10"/>
<path d="M201.98 167.43L188.16 175.27" stroke="white" stroke-miterlimit="10"/>
<path d="M192.98 162.43L179.16 170.27" stroke="white" stroke-miterlimit="10"/>
<path d="M184.74 157.77L170.74 165.77" stroke="white" stroke-miterlimit="10"/>
<path d="M175.74 152.77L161.74 160.77" stroke="white" stroke-miterlimit="10"/>
<path d="M130.7 168.27L170.74 173.77L177.74 201.98" stroke="white" stroke-miterlimit="10"/>
<path fill-rule="evenodd" clip-rule="evenodd" d="M150.74 191.77L142.74 186.77L152.74 180.77L160.74 185.77L150.74 191.77Z" stroke="white" stroke-miterlimit="10"/>
<path d="M156.53 183.14L147.09 189.27" stroke="white" stroke-miterlimit="10"/>
<path d="M148.3 183.43L155.74 188.77" stroke="white" stroke-miterlimit="10"/>
</g>
<defs>
<linearGradient id="paint0_linear" x1="248.755" y1="11.3056" x2="199.685" y2="11.3056" gradientUnits="userSpaceOnUse">
<stop stop-color="#770000"/>
<stop offset="0.1843" stop-color="#FF0000"/>
<stop offset="0.2627" stop-color="#FFA1A1"/>
<stop offset="0.3725" stop-color="#FF0000"/>
<stop offset="0.4471" stop-color="#9D0000"/>
<stop offset="0.5216" stop-color="#FF0000"/>
<stop offset="0.6039" stop-color="#FF8585"/>
<stop offset="0.698" stop-color="#FF0000"/>
<stop offset="0.9529" stop-color="#B20000"/>
</linearGradient>
<linearGradient id="paint1_linear" x1="261.92" y1="16.5359" x2="212.844" y2="16.5359" gradientUnits="userSpaceOnUse">
<stop stop-color="#770000"/>
<stop offset="0.1843" stop-color="#FF0000"/>
<stop offset="0.2627" stop-color="#FFA1A1"/>
<stop offset="0.3725" stop-color="#FF0000"/>
<stop offset="0.4471" stop-color="#9D0000"/>
<stop offset="0.5216" stop-color="#FF0000"/>
<stop offset="0.6039" stop-color="#FF8585"/>
<stop offset="0.698" stop-color="#FF0000"/>
<stop offset="0.9529" stop-color="#B20000"/>
</linearGradient>
<linearGradient id="paint2_linear" x1="274.4" y1="24.468" x2="225.336" y2="24.468" gradientUnits="userSpaceOnUse">
<stop stop-color="#770000"/>
<stop offset="0.1843" stop-color="#FF0000"/>
<stop offset="0.2627" stop-color="#FFA1A1"/>
<stop offset="0.3725" stop-color="#FF0000"/>
<stop offset="0.4471" stop-color="#9D0000"/>
<stop offset="0.5216" stop-color="#FF0000"/>
<stop offset="0.6039" stop-color="#FF8585"/>
<stop offset="0.698" stop-color="#FF0000"/>
<stop offset="0.9529" stop-color="#B20000"/>
</linearGradient>
<linearGradient id="paint3_linear" x1="76.7267" y1="15.6938" x2="125.803" y2="15.6938" gradientUnits="userSpaceOnUse">
<stop stop-color="#770000"/>
<stop offset="0.1843" stop-color="#FF0000"/>
<stop offset="0.2627" stop-color="#FFA1A1"/>
<stop offset="0.3725" stop-color="#FF0000"/>
<stop offset="0.4471" stop-color="#9D0000"/>
<stop offset="0.5216" stop-color="#FF0000"/>
<stop offset="0.6039" stop-color="#FF8585"/>
<stop offset="0.698" stop-color="#FF0000"/>
<stop offset="0.9529" stop-color="#B20000"/>
</linearGradient>
<linearGradient id="paint4_linear" x1="63.5718" y1="20.9251" x2="112.642" y2="20.9251" gradientUnits="userSpaceOnUse">
<stop stop-color="#770000"/>
<stop offset="0.1843" stop-color="#FF0000"/>
<stop offset="0.2627" stop-color="#FFA1A1"/>
<stop offset="0.3725" stop-color="#FF0000"/>
<stop offset="0.4471" stop-color="#9D0000"/>
<stop offset="0.5216" stop-color="#FF0000"/>
<stop offset="0.6039" stop-color="#FF8585"/>
<stop offset="0.698" stop-color="#FF0000"/>
<stop offset="0.9529" stop-color="#B20000"/>
</linearGradient>
<linearGradient id="paint5_linear" x1="51.0833" y1="28.8517" x2="100.153" y2="28.8517" gradientUnits="userSpaceOnUse">
<stop stop-color="#770000"/>
<stop offset="0.1843" stop-color="#FF0000"/>
<stop offset="0.2627" stop-color="#FFA1A1"/>
<stop offset="0.3725" stop-color="#FF0000"/>
<stop offset="0.4471" stop-color="#9D0000"/>
<stop offset="0.5216" stop-color="#FF0000"/>
<stop offset="0.6039" stop-color="#FF8585"/>
<stop offset="0.698" stop-color="#FF0000"/>
<stop offset="0.9529" stop-color="#B20000"/>
</linearGradient>
<linearGradient id="paint6_linear" x1="0.388375" y1="208.418" x2="301.525" y2="208.418" gradientUnits="userSpaceOnUse">
<stop offset="0.5569" stop-color="#FF8B5D"/>
<stop offset="0.8745" stop-color="#C73200"/>
<stop offset="1" stop-color="#FF8B5D"/>
</linearGradient>
<linearGradient id="paint7_linear" x1="2.62869" y1="198.594" x2="299.119" y2="198.594" gradientUnits="userSpaceOnUse">
<stop offset="0.3098" stop-color="#EBE7D1"/>
<stop offset="0.9922" stop-color="#B8B284"/>
</linearGradient>
<linearGradient id="paint8_linear" x1="0.725679" y1="219.552" x2="301.023" y2="219.552" gradientUnits="userSpaceOnUse">
<stop offset="0.3098" stop-color="#EBE7D1"/>
<stop offset="0.9922" stop-color="#B8B284"/>
</linearGradient>
<clipPath id="clip0">
<rect width="330.97" height="302.81" fill="white"/>
</clipPath>
</defs>
</svg>
