<svg width="332" height="303" viewBox="0 0 332 303" fill="none" xmlns="http://www.w3.org/2000/svg">
<path fill-rule="evenodd" clip-rule="evenodd" d="M252.909 106.44L247.509 103.23V94.79L252.909 98V106.44Z" fill="#8A8881"/>
<path fill-rule="evenodd" clip-rule="evenodd" d="M258.139 95.3L253.239 98L247.679 94.79L252.909 91.76L258.139 95.13V95.3Z" fill="#F5F1E1"/>
<path fill-rule="evenodd" clip-rule="evenodd" d="M253.239 98L258.139 95.3V103.9L253.239 106.44V98Z" fill="#DBD8CD"/>
<path fill-rule="evenodd" clip-rule="evenodd" d="M251.748 0.3C251.548 0.49 251.458 0.75 251.458 1.07V91.36C251.458 91.68 251.548 91.94 251.748 92.13C251.938 92.33 252.198 92.42 252.518 92.42H252.618C252.928 92.42 253.188 92.33 253.388 92.13C253.578 91.94 253.678 91.68 253.678 91.36V1.06C253.678 0.74 253.578 0.48 253.388 0.29C253.188 0.09 252.938 0 252.618 0H252.518C252.198 0.01 251.938 0.1 251.748 0.3Z" fill="#383838"/>
<path fill-rule="evenodd" clip-rule="evenodd" d="M238.939 7.75998C238.309 8.41998 237.639 8.04998 236.909 6.64998V16.6C237.889 17.55 238.829 17.74 239.739 17.16C240.649 16.58 241.409 16 242.039 15.41C242.659 14.83 243.149 14.47 243.519 14.32C244.119 14.07 244.709 13.98 245.289 14.05C246.389 14.32 247.369 14.76 248.249 15.37C248.789 15.76 249.359 16.09 249.939 16.37C250.239 16.52 250.559 16.62 250.889 16.69C251.249 16.69 251.579 16.66 251.889 16.6V7.55998C251.649 7.37998 251.389 7.19998 251.119 7.01998C250.609 6.73998 249.949 6.40998 249.139 6.01998C248.329 5.62998 247.369 5.34998 246.269 5.19998C245.169 5.03998 243.939 5.25998 242.579 5.82998C241.229 6.40998 240.439 6.71998 240.209 6.73998C239.999 6.76998 239.569 7.09998 238.939 7.75998Z" fill="url(#paint0_linear)"/>
<path fill-rule="evenodd" clip-rule="evenodd" d="M271.129 100.7L266.239 103.56L260.669 100.36L265.729 97.1499L271.129 100.7Z" fill="#F5F1E1"/>
<path fill-rule="evenodd" clip-rule="evenodd" d="M266.239 103.56L271.129 100.7V109.47L266.239 112V103.56Z" fill="#DBD8CD"/>
<path fill-rule="evenodd" clip-rule="evenodd" d="M265.729 112L260.339 108.8V100.36L265.729 103.56V112Z" fill="#8A8881"/>
<path fill-rule="evenodd" clip-rule="evenodd" d="M265.079 6.02999C264.879 6.21999 264.789 6.46999 264.789 6.79999V97.09C264.789 97.41 264.879 97.67 265.079 97.86C265.269 98.05 265.519 98.15 265.849 98.15H265.949C266.259 98.15 266.519 98.05 266.719 97.86C266.909 97.66 267.009 97.41 267.009 97.09V6.79999C267.009 6.47999 266.909 6.21999 266.719 6.02999C266.519 5.83999 266.269 5.73999 265.949 5.73999H265.849C265.529 5.73999 265.269 5.83999 265.079 6.02999Z" fill="#383838"/>
<path fill-rule="evenodd" clip-rule="evenodd" d="M252.109 12.9901C251.479 13.6501 250.799 13.2801 250.079 11.8801V21.8201C251.049 22.7701 251.989 22.9701 252.899 22.3901C253.809 21.8101 254.569 21.2301 255.199 20.6401C255.829 20.0601 256.319 19.6901 256.679 19.5501C257.289 19.3001 257.869 19.2101 258.449 19.2701C259.539 19.5501 260.529 19.9901 261.419 20.5901C261.959 20.9901 262.519 21.3201 263.099 21.6001C263.409 21.7501 263.719 21.8601 264.049 21.9101C264.409 21.9101 264.749 21.8801 265.059 21.8201V12.7801C264.809 12.6001 264.559 12.4201 264.289 12.2401C263.769 11.9601 263.109 11.6301 262.299 11.2401C261.489 10.8501 260.539 10.5801 259.429 10.4201C258.329 10.2601 257.099 10.4701 255.749 11.0501C254.389 11.6401 253.599 11.9301 253.379 11.9601C253.149 11.9901 252.729 12.3301 252.109 12.9901Z" fill="url(#paint1_linear)"/>
<path fill-rule="evenodd" clip-rule="evenodd" d="M279.059 110.82L273.659 107.62L278.729 104.75L284.119 108.12V108.29L279.059 110.82Z" fill="#F5F1E1"/>
<path fill-rule="evenodd" clip-rule="evenodd" d="M284.119 108.29V116.89L279.059 119.42V110.82L284.119 108.29Z" fill="#DBD8CD"/>
<path fill-rule="evenodd" clip-rule="evenodd" d="M278.729 110.82V119.42L273.329 116.22V107.62L278.729 110.82Z" fill="#8A8881"/>
<path fill-rule="evenodd" clip-rule="evenodd" d="M278.579 13.79C278.389 13.98 278.289 14.24 278.289 14.56V104.85C278.289 105.17 278.389 105.43 278.579 105.62C278.769 105.81 279.019 105.91 279.349 105.91H279.449C279.769 105.91 280.029 105.81 280.219 105.62C280.409 105.42 280.509 105.17 280.509 104.85V14.56C280.509 14.24 280.409 13.98 280.219 13.79C280.029 13.6 279.779 13.5 279.449 13.5H279.349C279.019 13.5 278.769 13.6 278.579 13.79Z" fill="#383838"/>
<path fill-rule="evenodd" clip-rule="evenodd" d="M264.589 20.92C263.959 21.58 263.289 21.21 262.559 19.81V29.76C263.539 30.72 264.479 30.91 265.379 30.33C266.289 29.74 267.049 29.17 267.679 28.58C268.299 28 268.789 27.64 269.149 27.49C269.759 27.25 270.349 27.16 270.929 27.22C272.029 27.49 273.009 27.94 273.889 28.54C274.429 28.93 274.999 29.26 275.579 29.54C275.879 29.7 276.199 29.8 276.539 29.86C276.899 29.86 277.229 29.83 277.539 29.77V20.71C277.299 20.53 277.039 20.35 276.769 20.17C276.259 19.9 275.599 19.56 274.789 19.17C273.969 18.78 273.019 18.51 271.919 18.35C270.819 18.19 269.589 18.4 268.229 18.98C266.879 19.56 266.089 19.86 265.869 19.89C265.639 19.92 265.219 20.26 264.589 20.92Z" fill="url(#paint2_linear)"/>
<path fill-rule="evenodd" clip-rule="evenodd" d="M74.2385 102.39L69.3385 99.6799V99.5199L74.5785 96.1399L79.8085 99.1799L74.2385 102.39Z" fill="#F5F1E1"/>
<path fill-rule="evenodd" clip-rule="evenodd" d="M74.5785 102.39L79.9685 99.1799V107.62L74.5785 110.82V102.39Z" fill="#8A8881"/>
<path fill-rule="evenodd" clip-rule="evenodd" d="M74.2385 102.39V110.82L69.3385 108.29V99.6799L74.2385 102.39Z" fill="#DBD8CD"/>
<path fill-rule="evenodd" clip-rule="evenodd" d="M75.7385 4.67989C75.9285 4.87989 76.0285 5.12989 76.0285 5.44989V95.7499C76.0285 96.0599 75.9285 96.3199 75.7385 96.5199C75.5485 96.7099 75.2885 96.8099 74.9685 96.8099H74.8685C74.5485 96.8099 74.2885 96.7099 74.0985 96.5199C73.9085 96.3199 73.8085 96.0699 73.8085 95.7499V5.44989C73.8085 5.13989 73.9085 4.87989 74.0985 4.67989C74.2885 4.48989 74.5485 4.38989 74.8685 4.38989H74.9685C75.2885 4.38989 75.5485 4.48989 75.7385 4.67989Z" fill="#383838"/>
<path fill-rule="evenodd" clip-rule="evenodd" d="M88.5385 12.1498C89.1685 12.8098 89.8485 12.4398 90.5685 11.0398V20.9898C89.5985 21.9398 88.6585 22.1398 87.7485 21.5598C86.8385 20.9698 86.0785 20.3998 85.4485 19.8098C84.8185 19.2298 84.3285 18.8698 83.9685 18.7198C83.3585 18.4798 82.7785 18.3898 82.1985 18.4498C81.1085 18.7198 80.1185 19.1598 79.2285 19.7698C78.6885 20.1698 78.1285 20.4998 77.5485 20.7698C77.2485 20.9298 76.9285 21.0298 76.5985 21.0898C76.2385 21.0898 75.8985 21.0598 75.5885 20.9998V11.9598C75.8385 11.7798 76.0885 11.5998 76.3585 11.4198C76.8785 11.1498 77.5385 10.8098 78.3485 10.4198C79.1585 10.0298 80.1085 9.75984 81.2185 9.59984C82.3185 9.42984 83.5485 9.64984 84.8985 10.2298C86.2585 10.8098 87.0485 11.1098 87.2685 11.1398C87.4885 11.1498 87.9085 11.4898 88.5385 12.1498Z" fill="url(#paint3_linear)"/>
<path fill-rule="evenodd" clip-rule="evenodd" d="M61.2485 107.96L56.3485 105.09L61.7585 101.55L66.8185 104.75L61.2485 107.96Z" fill="#F5F1E1"/>
<path fill-rule="evenodd" clip-rule="evenodd" d="M61.7585 107.96L67.1485 104.75V113.19L61.7585 116.39V107.96Z" fill="#8A8881"/>
<path fill-rule="evenodd" clip-rule="evenodd" d="M61.2485 107.96V116.39L56.3485 113.86V105.09L61.2485 107.96Z" fill="#DBD8CD"/>
<path fill-rule="evenodd" clip-rule="evenodd" d="M62.4085 10.4099C62.5985 10.6099 62.6985 10.8599 62.6985 11.1799V101.47C62.6985 101.79 62.5985 102.05 62.4085 102.24C62.2185 102.43 61.9585 102.53 61.6385 102.53H61.5385C61.2185 102.53 60.9585 102.43 60.7685 102.24C60.5785 102.05 60.4785 101.79 60.4785 101.47V11.1899C60.4785 10.8699 60.5785 10.6099 60.7685 10.4199C60.9585 10.2299 61.2185 10.1299 61.5385 10.1299H61.6385C61.9585 10.1299 62.2185 10.2299 62.4085 10.4099Z" fill="#383838"/>
<path fill-rule="evenodd" clip-rule="evenodd" d="M75.3785 17.3798C76.0085 18.0398 76.6785 17.6698 77.4085 16.2698V26.2198C76.4285 27.1698 75.4885 27.3598 74.5785 26.7898C73.6685 26.2098 72.9085 25.6298 72.2785 25.0398C71.6585 24.4598 71.1685 24.0998 70.7985 23.9498C70.1985 23.7098 69.6085 23.6198 69.0285 23.6798C67.9385 23.9498 66.9485 24.3998 66.0685 24.9998C65.5285 25.3898 64.9585 25.7298 64.3785 25.9998C64.0785 26.1598 63.7585 26.2598 63.4185 26.3198C63.0585 26.3198 62.7285 26.2898 62.4185 26.2298V17.1798C62.6585 16.9998 62.9185 16.8198 63.1885 16.6398C63.6985 16.3698 64.3585 16.0298 65.1685 15.6398C65.9885 15.2498 66.9385 14.9798 68.0385 14.8298C69.1485 14.6598 70.3685 14.8798 71.7285 15.4598C73.0785 16.0398 73.8685 16.3398 74.0885 16.3698C74.3285 16.3798 74.7585 16.7198 75.3785 17.3798Z" fill="url(#paint4_linear)"/>
<path fill-rule="evenodd" clip-rule="evenodd" d="M48.4285 115.21L43.3585 112.68V112.51L48.7685 109.13L53.8185 112L48.4285 115.21Z" fill="#F5F1E1"/>
<path fill-rule="evenodd" clip-rule="evenodd" d="M43.3585 112.68L48.4285 115.21V123.81L43.3585 121.28V112.68Z" fill="#DBD8CD"/>
<path fill-rule="evenodd" clip-rule="evenodd" d="M54.1586 120.61L48.7686 123.81V115.21L54.1586 112V120.61Z" fill="#8A8881"/>
<path fill-rule="evenodd" clip-rule="evenodd" d="M48.9085 18.1799C49.1085 18.3699 49.2085 18.6199 49.2085 18.9499V109.24C49.2085 109.56 49.1085 109.82 48.9085 110.01C48.7185 110.21 48.4585 110.3 48.1385 110.3H48.0485C47.7285 110.3 47.4685 110.21 47.2785 110.01C47.0785 109.82 46.9885 109.56 46.9885 109.24V18.9499C46.9885 18.6299 47.0785 18.3699 47.2785 18.1799C47.4685 17.9799 47.7285 17.8899 48.0485 17.8899H48.1385C48.4585 17.8999 48.7185 17.9899 48.9085 18.1799Z" fill="#383838"/>
<path fill-rule="evenodd" clip-rule="evenodd" d="M62.8885 25.3099C63.5185 25.9699 64.1985 25.5999 64.9185 24.1999V34.1399C63.9485 35.0899 63.0085 35.2799 62.0985 34.7099C61.1885 34.1299 60.4285 33.5499 59.7985 32.9599C59.1685 32.3799 58.6785 32.0099 58.3185 31.8699C57.7085 31.6199 57.1285 31.5299 56.5485 31.5899C55.4585 31.8699 54.4685 32.3099 53.5785 32.9099C53.0385 33.3099 52.4785 33.6399 51.8985 33.9199C51.5885 34.0699 51.2785 34.1699 50.9485 34.2299C50.5885 34.2299 50.2485 34.2099 49.9385 34.1399V25.0999C50.1885 24.9199 50.4385 24.7399 50.7085 24.5599C51.2285 24.2799 51.8885 23.9499 52.6985 23.5499C53.5085 23.1599 54.4585 22.8899 55.5685 22.7399C56.6585 22.5799 57.8985 22.7899 59.2485 23.3699C60.6085 23.9599 61.3985 24.2499 61.6185 24.2799C61.8485 24.3099 62.2685 24.6499 62.8885 25.3099Z" fill="url(#paint5_linear)"/>
<path opacity="0.2" fill-rule="evenodd" clip-rule="evenodd" d="M297.868 138.9C319.098 151.06 330.408 165.34 331.828 181.72C333.238 198.13 324.329 211.85 305.099 222.86L229.118 266.41C209.878 277.43 185.958 282.53 157.338 281.71C128.728 280.92 103.808 274.44 82.5885 262.28C61.3585 250.12 50.0385 235.83 48.6285 219.42C47.2185 203.03 56.1285 189.33 75.3485 178.32L151.338 134.77C170.568 123.75 194.488 118.64 223.108 119.43C251.728 120.25 276.648 126.74 297.868 138.9Z" fill="#DCE56B"/>
<path fill-rule="evenodd" clip-rule="evenodd" d="M242.858 137.62C260.018 147.45 269.158 158.99 270.308 172.24C271.448 185.5 264.248 196.6 248.708 205.51L187.288 240.72C171.748 249.63 152.418 253.75 129.278 253.09C106.158 252.45 86.0085 247.21 68.8585 237.37C51.6985 227.53 42.5585 215.98 41.4085 202.71C40.2685 189.46 47.4685 178.38 63.0085 169.48L124.418 134.26C139.958 125.36 159.288 121.22 182.428 121.86C205.558 122.54 225.698 127.78 242.858 137.62Z" fill="#C3613D"/>
<path fill-rule="evenodd" clip-rule="evenodd" d="M193.289 74.4501L189.929 96.5001H190.769V96.6101L189.819 102.6V101.93L190.439 97.6801L186.799 97.3401L185.959 102.27V101.54L186.799 96.3901V96.2301L186.919 96.1101L188.369 96.2301L191.729 74.3401L193.289 74.4501ZM162.109 72.1601L162.229 73.3901L164.299 102.26H163.679V104.16V104.88H180.419L196.929 106.56L212.599 109.98L227.029 114.79L239.909 121.06L250.649 128.39L259.049 136.67L264.699 145.85L267.609 155.19V154.74C267.609 154.56 267.609 154.39 267.609 154.24V153.52L268.229 155.47V159.28L271.359 157.61V158.62L268.229 160.3V165.11L266.549 170.98L293.979 158.84L294.599 158.45V160.74L294.709 161.13V161.02L298.349 148.82L298.229 138.64V136.23L294.479 123.92L265.549 145.58L265.329 144.85H265.219L264.879 143.28L264.709 143.17L290.729 123.81L292.179 122.57L293.239 121.9L286.759 111.65L275.789 100.69L261.579 90.9501L244.729 82.7801L226.199 76.6301L225.249 79.2601L214.169 107.81L212.599 107.31L223.279 79.6601L223.779 78.4201L224.739 76.1301L204.869 71.9301L183.209 69.7501H162.009L162.109 72.1601ZM161.169 72.1601V69.7501L139.959 71.8301L122.889 75.1801L94.6785 83.1301L69.2685 93.5901L69.1585 93.7101L59.5285 98.8001V101.32L57.5785 102.27V99.7601L37.3685 113.57L21.2585 129.25L14.9885 137.53L9.16854 147.43L6.19853 157.28L6.86854 157.62L8.60854 158.73L36.0285 176.03V177.14L36.5285 175.47L32.8985 173.06L33.2885 171.72L36.9885 174.13L38.4385 169.42L43.0285 161.47L48.7985 153.81L50.4785 151.96L46.9985 148.72L47.8385 147.88L51.3085 151.13L55.0585 147.04L61.5485 141.27L62.2785 140.65L73.2485 132.93L70.5085 129.46L71.9085 128.62L74.5885 131.97L79.2885 129.12L99.2685 119.22L104.299 117.42L102.619 114.29L104.299 113.56L105.979 116.81L121.529 111.66L121.869 111.55L139.719 107.3L138.759 103.94L140.779 103.6L141.729 106.96L147.549 105.72L163.659 104.16L161.249 73.3801L161.169 72.1601ZM300.119 138.36V140.43L301.799 145.86V158.96L298.049 171.61L285.679 190.13L278.079 198.19L259.549 213.24L236.889 226.22L210.919 237.08L196.819 241.39L164.759 248.5L142.869 250.79L120.209 250.68L97.9285 248.38L76.6085 243.96L57.0285 237.3L39.6785 228.9L25.0685 218.88L13.7685 207.58L5.92853 195.32L1.94854 182.39V169.29L3.62854 163.75V161.57V159.27L7.37854 147.02L13.3085 137.17L14.9885 134.88V136.55L21.2585 128.27L37.3685 112.6L46.9985 105.51L69.1585 92.6401L94.6685 81.8901L122.879 74.1101L139.509 70.8601L161.049 68.5701H161.169V67.3301L161.279 68.5701L183.439 68.6801L205.379 70.9801L225.079 75.0701L225.589 73.7301V75.1801L245.849 81.7901L262.919 90.1301L277.249 100.09L288.549 111.29L296.159 123.32L300.129 136.08V138.36H300.119ZM186.909 96.2201L186.789 96.9401L190.539 97.3301V96.6101L186.909 96.2201ZM188.859 102.6V103.1L187.289 102.99V102.37L188.859 102.6ZM163.459 106.01L140.679 108.98L145.159 121.52L149.969 120.68L150.189 120.57L164.519 119.11H179.079L180.189 106.01H163.459ZM144.439 123.7L151.149 139.81L155.009 138.97L166.199 137.91L164.409 121.29L149.349 122.74L144.439 123.7ZM181.649 119.33L194.019 120.67L208.019 123.58L208.349 123.7L214.279 111.66L212.609 111.05L196.939 107.8L184.059 106.34L182.099 106.22L180.809 106.11L179.689 119.09L181.649 119.33ZM179.799 121.29H165.139L166.819 137.91H177.899L178.739 138.02L182.489 121.51L179.799 121.29ZM233.919 115.36L232.579 114.91L233.189 113.96L234.479 114.69L233.919 115.36ZM255.459 130.53L256.859 129.13L257.579 129.97L256.179 131.25L255.459 130.53ZM250.759 89.6201L237.999 109.15L238.559 109.49L238.449 110.32L235.319 114.91V114.3L237.889 110.44L235.429 109.26V108.87L238.009 110.1L238.339 109.6V109.49L235.429 108.14V108.03L236.669 108.53L249.419 89.0001L250.759 89.6201ZM195.029 122.86L184.779 121.74L181.149 138.25L199.839 141.39L200.509 141.61L209.469 125.88L195.029 122.86ZM211.859 126.72L201.229 141.89L209.789 144.63L218.469 148.94L219.929 149.94L235.929 137.4L232.579 134.99L232.079 134.88C229.769 133.69 227.429 132.51 225.079 131.35L222.849 130.29L211.859 126.72ZM208.339 123.7L220.759 127.89L232.069 133.32L232.679 133.77L242.809 124.14L239.899 122.13L227.019 115.86L215.319 111.89L208.339 123.7ZM279.299 108.98L262.169 125.38L262.559 125.72L262.399 125.89V126L261.839 126.45L259.149 128.97L261.729 126.45V126.33L260.389 124.99V124.65L261.959 126.22L262.299 125.88V125.71L260.509 123.91V123.8L261.459 124.75L278.589 108.3L279.299 108.98ZM244.269 125.16L234.139 134.78L241.579 139.93L249.079 147.26L249.529 148.1L260.729 140.54L259.049 137.9L250.649 129.46L244.269 125.16ZM294.469 126.44V126.32L294.579 126.54L294.469 126.44ZM296.149 145.02L276.389 155.93H276.169V153.63H276.279L276.399 154.87L296.149 144.01V145.02ZM42.1885 144.63L42.2985 144.4L26.0685 129.13L26.9085 128.29L43.1385 143.46L43.9785 142.62L44.0885 142.73L42.2985 144.63H42.1885ZM66.5285 124.42L52.8685 106.96L54.2085 106.12L67.9185 123.58L66.5285 124.42ZM102.399 108.42V107.7L99.2685 108.88L99.5985 109.5L102.399 108.42ZM105.029 113.34L102.519 108.41V108.75L101.679 109.15V110.72L101.569 110.83H101.289V109.26L99.7185 109.82L101.449 112.96L101.789 113.8L101.899 114.52L99.1585 109.49V108.76L99.6085 108.54L89.2585 89.0001L90.9285 88.4401L101.289 107.92L102.409 107.59L102.519 107.7L105.149 112.51L105.029 113.34ZM136.369 98.7901L136.089 98.2901V98.1801L136.929 97.9601L130.829 77.3601L132.839 76.9701L138.999 97.5701L139.839 97.3401L141.509 102.6V103.44H141.399L139.829 98.2901V98.6301H139.719L136.469 99.2401L136.359 98.9101L139.719 98.2901V97.5701L136.189 98.1801V98.2901L136.369 98.7901ZM66.7585 125.26L66.2585 124.76V124.64H66.3685L66.7585 125.26ZM102.739 119.83L77.9385 131.75L72.9085 134.89L82.6485 144.85L86.3985 142.61L110.239 131.36L102.739 119.83ZM120.199 113.8L104.589 119.11L112.029 130.69L126.249 125.99L143.199 121.9L138.779 109.36L120.199 113.8ZM125.289 128.12L110.679 132.82L122.269 147.76L134.409 143.67L135.139 143.45L149.129 140.15L142.249 124.14L125.289 128.12ZM123.619 153.19L132.399 158.22L99.4985 177.13L90.7085 172.21L123.619 153.19ZM94.6785 140.88L81.9285 148.27L96.3585 160.41L107.439 154.03L120.479 148.38L108.899 133.55L95.7485 138.97V140.15L94.6785 140.88ZM65.6885 197.35L65.7985 203.11L67.6985 209.66L71.6685 215.87L77.3285 221.52L77.8285 221.41L72.1785 215.76L68.1985 209.66L66.2485 203V202.27L68.1985 208.93L72.1785 215.03L78.0485 221.08L78.1585 221.42L78.5485 221.7L78.4385 221.92V224.21L78.0485 224.33H78.1585L79.3885 225.17L82.7485 224.67L83.1385 224.95V224.45L85.2585 225.9L94.0485 230.21L103.949 233.46L109.219 234.58L123.319 236.04L142.619 236.26V236.37L158.849 233.85L186.889 225.06L203.279 217.12L216.989 207.71L227.959 197.14L235.679 185.55L237.579 179.06V173.19L235.569 166.7L231.589 160.55L225.939 154.78L218.439 149.69L209.759 145.38L199.799 142.13L177.749 138.66H166.279L154.969 139.83L125.709 147.16L100.579 158.47L86.6985 167.87L75.8385 178.45L68.0585 189.92L66.0985 196.41V196.75L46.9985 191.47L47.1085 195.56L48.5685 200.71L65.4185 203.63L65.3085 197.25L65.6885 197.35ZM59.9885 144.52L49.7985 154.65L60.9985 162.71L70.5185 153.53L78.6885 147.42L81.1985 145.86L71.4585 135.84L62.2785 142.45L59.9885 144.52ZM69.0485 156.32L59.5385 165.55L77.6185 175.79L85.7785 167.95L93.2285 162.19L95.0785 161.24L80.4685 149.1L79.7385 149.44L79.5185 149.32V148.26L69.0485 156.32ZM52.1985 175.69L49.5085 180.16L47.2185 187.61L66.2485 193.88L67.3585 190.35L70.8385 184.47L76.5985 176.86L58.5785 166.68L53.7685 173.06L52.1985 175.69ZM41.8485 165.45L38.8285 170.37L36.4185 178.6L47.8385 183.97L49.0685 179.66L49.4085 179.04L49.5185 178.71L53.2785 172.44L53.7785 171.6L58.6985 165.11L59.9885 163.77L48.7885 155.6L43.5285 162.6L41.8485 165.45ZM65.5185 196.28L65.9185 194.94L46.9985 188.67V191.07L65.5185 196.28ZM53.1585 212.62L53.8885 213.01L54.3385 213.12L49.2985 205.06L46.9985 197.96L39.5485 196.01L44.6985 204.13L53.1585 212.62ZM67.3685 210.22L65.4185 203.62L48.9085 201.54L49.6285 204.12L54.7185 212.06L59.5285 216.88L71.4485 216.49L67.3685 210.22ZM70.6085 223.26L74.4685 225.05L77.4385 224.55L75.3085 225.51L76.0385 225.9L78.6785 225.4L77.4385 224.56V221.93L70.6085 223.26ZM63.8385 219.95L70.1085 222.97L76.5985 221.68L72.6285 217.7L61.8285 218.54L63.8385 219.95ZM63.6185 222.98L52.7585 215.54L49.0685 211.9L47.5085 211.46V211.68L45.6585 211.18L48.4485 212.74V220.13V220.68L59.0285 225.78L65.2985 227.91L76.3785 229.25L63.6185 222.98ZM82.9885 226.22L79.1785 227.06L91.2085 231.03L92.7785 231.42L100.219 232.99L94.0685 230.92L85.2785 226.61L83.1585 225.15V224.93L76.7785 226.1V226.21L78.4485 226.71L82.5285 225.99L82.9885 226.22ZM223.899 229.35L234.019 225.16L246.389 218.45L258.199 211.06L276.609 196.17L284.219 188.22L287.569 183.58V183.63L288.519 182.4V182.32L290.589 179.77L296.459 169.81L300.099 157.38V148.94L296.459 161.47L290.589 171.49L276.599 187.84L258.189 202.78L235.809 215.65L210.009 226.34L181.639 234.45L164.289 237.8L142.749 239.98L120.309 239.81L98.4285 237.57L77.3285 233.1L57.9585 226.72L40.8385 218.44L26.5085 208.42L15.3185 197.34L7.59854 185.2L3.62854 172.44V180.72L7.59854 193.48L15.3285 205.68L26.5185 216.87L40.8485 226.71L42.0785 227.33L42.9185 227.89L59.6485 236L78.6785 242.38L99.1585 246.69L120.699 248.87L142.469 248.98L163.569 246.8L194.849 239.97L208.619 235.6L222.109 230.06L223.899 229.35ZM142.639 237.19V237.42L148.849 236.86L158.979 234.78L164.289 233.21L158.859 234.55L142.639 237.19ZM28.1885 169.92L27.9685 169.81H27.8485L8.93854 157.38L9.44853 156.04L28.1885 168.46L28.5885 167.51L28.6985 167.62V168.35H28.8185L28.1885 169.92ZM5.58854 162.59L5.47854 162.81L5.58854 172.33L9.44853 184.81L16.8885 196.62H17.0085V195.78V194.21L41.8585 203.11L38.5585 198.08L37.3785 194.22L34.8685 193.05L34.7485 192.66L33.6285 192.21L34.5885 192.54L34.2485 191.59L36.9885 192.77L35.7085 188.46L35.5885 179.33H35.9285V179.05H36.0385V178.83L5.58854 159.91L5.47854 160.02V162.59H5.58854ZM29.4285 188.33L30.0385 190.63H29.8685V190.85L9.77853 181.72L9.44853 180.38L29.5285 189.39L29.3085 188.33H29.4285ZM46.4985 187.94L47.5085 185.21L36.0285 179.89V183.75V185.71L38.4385 193.26L46.6685 196.17L46.4985 187.94ZM1.38854 171.6V182.4V185.93H0.998535V178.93C0.998535 178.86 0.998535 178.74 0.998535 178.59V173.89C0.998535 173.71 0.998535 173.54 0.998535 173.39V171.6H1.38854ZM302.019 167.24V167.52L298.209 180.17L292.279 190.13L278.179 206.75L269.509 214.59L259.669 221.81L236.999 234.91L224.409 240.56L196.939 250.07L164.759 257.18L142.989 259.35H120.199L97.9185 257.06L76.5985 252.47L57.0185 245.98L39.5585 237.59L24.9485 227.46L13.6485 216.16L5.81854 203.85L1.84854 190.97V190.86L5.37854 202.05L13.1585 214.47L24.6385 225.89L39.1885 235.85L56.6485 244.42L76.4085 251.02L97.8485 255.5L120.229 257.79L143.009 257.91L164.949 255.61L182.519 252.14L211.289 244.08L237.419 233.34L260.019 220.24L278.709 205.19L286.319 197.02L298.689 178.33L302.019 167.24ZM6.53854 217.21V217.83L6.20854 216.71L6.53854 217.21ZM63.1185 260.3V259.68L73.1385 262.93V263.66L63.1185 260.3ZM91.6585 268.02L82.1385 265.95V265.51L91.6585 267.52V268.02ZM52.1985 256L44.6985 252.36V251.75L52.1985 255.38V256ZM22.0985 236.97L16.8885 231.66V230.94L22.0985 236.14V236.97ZM32.4485 244.92L30.1485 243.35V242.95L32.4485 244.52V244.92ZM301.079 183.02V183.41L299.509 188.56L301.079 183.02ZM47.1085 196.61L38.5485 193.6L38.9385 194.83L46.7785 196.9H46.9985V196.62H47.1085V196.61ZM41.3485 207.81L45.4385 209.04V209.77L45.9385 210.11L47.9485 210.72L44.3685 207.25L44.5985 207.09V206.87L17.0085 196.9L23.7785 203.62L34.7385 206.87V205.41L35.1885 205.19L41.1185 208.54L41.2285 207.81H41.3485ZM34.7385 207.69L24.9485 204.78L28.0885 207.8L34.7485 212.39V207.69H34.7385ZM264.979 174.63L255.189 189.18L241.699 202.16L224.749 213.86L204.879 223.6L210.749 221.3L211.989 221.19L214.279 220.35V219.85L215.959 219.62H216.069L232.359 212.74L256.869 198.92L267.499 190.86L282.439 176.2V177.04L284.339 176.42L286.859 173.06L292.399 163.55L293.129 163.66L294.469 161.37L264.859 174.46V174.63H264.979ZM282.429 178.32L266.539 193.99L246.179 207.81L234.589 213.96L209.079 224.43L180.929 232.37V233.32L209.079 225.37L234.589 214.79L256.869 202.03L275.059 187.38L282.439 179.32V178.32H282.429ZM265.919 168.46L265.309 170.36L256.739 173.38L256.859 173.6H257.139V173.77L254.729 181.55L250.479 188.77L248.579 191.18L252.889 190.62L254.619 188.77L264.979 173.6V171.7L265.819 171.37L267.719 164.98V162.3V156.65L267.609 156.43L264.699 146.91L261.959 142.6L250.379 149.43L254.129 155.3L254.239 155.69L254.629 156.19L257.269 164.69V171.58L265.919 168.46ZM272.409 158.12L273.249 157.5H273.369L272.409 158.12ZM237.609 138.47L221.499 151.01L225.969 154.03L231.619 159.68L232.069 160.41L232.459 160.75L250.759 151.23L249.089 148.72L241.589 141.27L237.609 138.47ZM252.219 153.81L233.309 162.2L236.329 167.01L238.459 173.61V179.04L255.919 175.07L256.759 172.33V165.11L254.129 156.77L252.219 153.81ZM238.449 180.38L236.769 185.93L251.939 184.59L254.239 180.62L255.579 176.53L238.449 180.38ZM235.709 186.37L227.989 197.85L217.019 208.43L203.309 217.83L186.919 225.78L175.389 229.75L187.309 226L203.539 218.05L217.419 208.53L228.379 197.95L232.689 192.3L236.049 186.37H235.709ZM251.209 185.71L236.429 186.99L232.909 192.92L231.339 194.94L244.379 195.05L250.029 187.72L251.209 185.71ZM265.199 183.52H265.089L266.759 181.34V181.45L265.199 183.52ZM251.829 191.7L247.849 192.31L245.559 195.33L233.019 207.47H233.409L241.569 201.43L251.829 191.7ZM240.749 198.91L243.439 196.17L230.509 196L228.719 198.57L217.639 209.15L214.509 211.56L223.409 213.02L239.299 200.48L240.749 198.91ZM245.339 202.78L242.929 204.57L242.709 205.29L238.959 206.25V205.91L236.669 206.53L237.899 205.52L240.759 204.79L241.369 204.45L241.489 203.72L245.239 202.77H245.339V202.78ZM221.939 213.96L213.159 212.51L203.929 218.66L192.449 224.43L196.419 225.88L214.889 218.16L221.939 213.96ZM163.069 234.56L163.569 234.9L169.839 233.72L169.949 233.61L180.919 230.93V230.2L194.629 226.62L190.879 225.16L168.999 232.99L163.069 234.56Z" fill="#F3EDE1"/>
<path fill-rule="evenodd" clip-rule="evenodd" d="M191.719 74.3402L183.049 73.3902H162.229L162.109 72.1602H183.209L204.869 74.4502L223.779 78.4202L223.279 79.6602L204.369 75.5202L193.289 74.4602L191.719 74.3402ZM16.8885 140.43L11.1185 150.06L9.44852 156.04L8.93852 157.38L8.60852 158.72L6.86852 157.61L9.16852 149.83L14.9885 139.93L21.2585 131.65L37.3685 116.09L57.5785 102.27L59.5285 101.32L69.1585 96.1102L94.6685 85.5302L122.879 77.6902L139.949 74.3302L161.159 72.1602L161.269 73.3902L140.449 75.4002L132.839 76.9702L130.829 77.3602L109.509 82.4002L90.9185 88.4402L89.2485 89.0002L70.4985 96.9502L54.2085 106.13L52.8685 106.97L39.0485 116.71L30.4885 124.32L26.9085 128.29L26.0685 129.13L23.1585 132.09L16.8885 140.43ZM250.759 89.6202L249.419 89.0002L243.549 86.1502L225.359 80.1002L226.199 79.0402L244.729 85.1902L261.578 93.3602L275.789 103.1L286.759 114.18L292.178 122.58L290.729 123.82L284.958 114.69L279.309 108.98L278.589 108.31L273.999 103.83L260.179 94.2102L250.759 89.6202ZM294.578 126.55L298.208 138.64L298.328 148.82L294.689 161.02V161.13L294.578 160.74V158.45L293.958 158.84L296.249 151.23L296.139 145.02V144.01V138.75L292.389 126.72L294.458 126.44L294.578 126.55ZM17.0085 195.77V196.61H16.8885L9.44852 184.81L5.58852 172.33L5.47852 162.81L5.58852 162.59H7.59852V174.73L9.44852 180.38L9.77852 181.72L11.4585 186.98L17.0085 195.77Z" fill="#FF0000"/>
<path fill-rule="evenodd" clip-rule="evenodd" d="M161.168 72.16L139.958 74.33L122.888 77.69L94.6785 85.53L69.1585 96.11L59.5285 101.32V98.8L69.1585 93.71L69.2685 93.59L94.6785 83.13L122.888 75.18L139.958 71.83L161.168 69.75V72.16ZM162.108 72.16L161.998 69.75H183.198L204.858 71.93L224.728 76.13L223.768 78.42L204.858 74.45L183.198 72.16H162.108ZM57.5785 102.26L37.3685 116.08L21.2585 131.64L14.9885 139.92L9.16849 149.82L6.86849 157.6L6.19849 157.26L9.16849 147.41L14.9885 137.51L21.2585 129.23L37.3685 113.55L57.5785 99.74V102.26ZM292.168 122.58L286.748 114.18L275.778 103.1L261.568 93.36L244.718 85.19L226.188 79.04L225.238 79.26L226.188 76.63L244.718 82.78L261.568 90.95L275.778 100.69L286.748 111.65L293.228 121.9L292.168 122.58Z" fill="#AEA083"/>
<path fill-rule="evenodd" clip-rule="evenodd" d="M226.188 79.04L225.348 80.1L243.538 86.15L249.408 89L236.658 108.53L235.418 108.03L235.198 108.31L232.458 112.84L232.348 113.57L233.178 113.96L232.568 114.91L227.028 112.12L214.158 107.81L225.238 79.26L226.188 79.04ZM255.458 130.53L250.648 125.72L239.908 118.27L233.918 115.36L234.478 114.69L235.318 114.91L238.448 110.32L238.558 109.49L237.998 109.15L250.748 89.62L260.158 94.21L273.979 103.83L278.568 108.31L261.438 124.76L260.488 123.81V123.92L256.398 127.89L256.288 128.62L256.848 129.12L255.458 130.53ZM211.858 126.72L222.828 130.3L225.058 131.36C227.418 132.51 229.748 133.69 232.058 134.89L232.558 135L235.908 137.41L219.908 149.95L218.448 148.95L209.768 144.64L201.208 141.9L211.858 126.72ZM264.699 143.17L259.048 134.16L256.188 131.25L257.588 129.97L258.208 130.53L262.408 126.55L262.568 125.72L262.178 125.38L279.308 108.98L284.958 114.69L290.729 123.82L264.699 143.17ZM237.608 138.47L241.578 141.27L249.078 148.72L250.748 151.23L232.448 160.75L232.058 160.41L231.608 159.68L225.958 154.03L221.498 151.01L237.608 138.47Z" fill="#0099FF"/>
<path fill-rule="evenodd" clip-rule="evenodd" d="M16.8885 140.43L43.0185 161.47L38.4285 169.42L36.9785 174.13L33.2785 171.72L33.3885 171.39V170.66L28.6885 167.65L28.5785 167.54L28.1785 168.49L9.44851 156.04L11.1185 150.06L16.8885 140.43ZM28.1885 169.92L32.6685 172.94L32.7785 173.5L32.8885 173.05L36.5185 175.46L36.0185 177.13V176.02L8.59851 158.72L8.92851 157.38L27.8385 169.81H27.9585L28.1885 169.92ZM179.799 121.29L182.489 121.51L178.739 138.02L177.898 137.91H166.819L165.139 121.29H179.799ZM195.029 122.86L209.459 125.88L200.499 141.61L199.829 141.39L181.139 138.25L184.769 121.74L195.029 122.86ZM276.169 153.64L271.469 156.33L271.349 157.62L268.219 159.29V155.48L267.599 153.53V152.69L265.529 145.58L294.458 123.92L298.208 136.23V138.64L294.578 126.55L294.469 126.33V126.45L292.398 126.73L296.148 138.76V144.01L276.389 154.87L276.268 153.63H276.169V153.64ZM276.389 155.93L296.148 145.02L296.259 151.23L293.969 158.84L266.539 170.98L268.219 165.11V160.3L271.349 158.62H271.469L271.349 159.18L276.169 156.66L276.389 155.93ZM70.8385 184.47L67.3585 190.35L66.2485 193.88L47.2185 187.61L49.5085 180.16L52.1985 175.69L70.8385 184.47ZM65.5185 196.28L46.9985 191.08V188.68L65.9085 194.95L65.5185 196.28ZM48.4485 220.13L63.6185 222.98L76.3785 229.25L65.2985 227.91L59.0285 225.78L48.4485 220.68V220.13ZM252.219 153.81L254.118 156.77L256.749 165.11V172.33L255.909 175.07L238.449 179.04V173.61L236.319 167.01L233.299 162.2L252.219 153.81Z" fill="#62CE21"/>
<path fill-rule="evenodd" clip-rule="evenodd" d="M188.859 102.6H189.809L190.759 96.6101V96.5001H189.919L193.279 74.4501L204.359 75.5101L223.269 79.6501L212.589 107.3L196.919 103.94L188.859 103.1V102.6ZM180.419 102.26H164.299L162.229 73.3901H183.049L191.719 74.3401L188.359 96.2301L186.909 96.1101L186.789 96.2301V96.3901L185.949 101.54V102.27L187.289 102.38V103L180.629 102.27H180.419V102.26Z" fill="#66CC33"/>
<path fill-rule="evenodd" clip-rule="evenodd" d="M186.908 96.22L190.538 96.61V97.34L186.788 96.95L186.908 96.22ZM189.818 102.6H188.868L187.298 102.38L185.958 102.27L186.798 97.34L190.438 97.68L189.818 101.93V102.6ZM32.8985 173.05L32.7885 173.5L32.6785 172.94L28.1985 169.92L28.8185 168.36H28.6985V167.63L33.3985 170.64V171.37L33.2885 171.7L32.8985 173.05ZM271.348 157.61L271.468 156.32L276.169 153.63V155.93H276.389L276.169 156.66L271.348 159.18L271.468 158.62H271.348V157.61ZM70.6085 223.26L77.4385 221.92V224.55L78.6785 225.39L76.0385 225.89L75.3085 225.5L77.4385 224.54L74.4685 225.04L70.6085 223.26ZM92.7785 231.43L84.7085 227.45L82.9785 226.22L82.5285 226L78.4485 226.72L76.7785 226.22V226.11L83.1585 224.94V225.16L85.2785 226.62L94.0685 230.93L100.218 233L92.7785 231.43ZM272.408 158.12L273.368 157.5H273.248L272.408 158.12Z" fill="#379000"/>
<path fill-rule="evenodd" clip-rule="evenodd" d="M164.298 102.26H180.418V104.89H163.678V104.17V102.27H164.298V102.26ZM212.598 109.99L196.928 106.57V103.94L212.598 107.3V109.99ZM232.568 114.91L233.908 115.36L239.898 118.27V121.07L227.018 114.8V112.12L232.568 114.91ZM264.698 143.17L264.868 143.28L265.208 144.85H265.318L265.538 145.58L267.608 152.69V153.53V154.25C267.608 154.4 267.608 154.57 267.608 154.75V155.2L264.698 145.86V143.17ZM259.048 134.16V136.68L250.648 128.4V125.71L255.458 130.52L256.178 131.24L259.048 134.16Z" fill="#FF2D00"/>
<path fill-rule="evenodd" clip-rule="evenodd" d="M161.269 73.3901L163.679 104.17L147.569 105.73L141.749 106.97L140.799 103.61L141.419 103.44H141.529V102.6L139.859 97.3401L139.019 97.5701L132.859 76.9701L140.469 75.4001L161.269 73.3901ZM136.489 99.2401L137.779 103.33V104.17L138.779 103.95L139.739 107.31L121.889 111.56L121.549 111.67L109.519 82.4101L130.839 77.3701L136.939 97.9701L136.099 98.1901V98.3001L136.379 98.8001V98.9101L136.489 99.2401ZM180.419 102.26H180.639L187.299 102.99L188.869 103.1L196.929 103.94V106.57L180.419 104.89V102.26ZM39.0485 116.7L61.5485 141.27L55.0586 147.04L51.3086 151.13L47.8386 147.88L48.3386 147.26V146.53L44.0786 142.72L43.9686 142.61L43.1286 143.45L26.8985 128.28L30.4785 124.31L39.0485 116.7ZM16.8885 140.43L23.1585 132.09L26.0685 129.13L42.2985 144.4L42.1885 144.63H42.0786L42.2985 145.36L46.4986 149.22L46.9986 148.72L50.4686 151.96L48.7886 153.81L43.0186 161.47L16.8885 140.43ZM227.029 114.8L212.599 109.99V107.3L214.169 107.8L227.039 112.11V114.8H227.029ZM239.909 118.27L250.649 125.72V128.41L239.909 121.08V118.27ZM259.049 136.68V134.16L264.699 143.17V145.86L259.049 136.68ZM85.7785 167.96L77.6186 175.8L59.5386 165.56L69.0486 156.33L85.7785 167.96ZM70.8385 184.47L52.1986 175.69L53.7686 173.05L58.5786 166.67L76.5985 176.85L70.8385 184.47ZM267.499 190.86L249.199 196.17L255.469 189.4L257.869 186.27L260.729 185.21L260.609 185.71L265.199 184.14V183.52L266.769 181.44V181.33H266.659L262.289 182.9V183.62L261.949 184.13L258.699 185.19L265.309 174.83H264.969V174.61H264.859V174.44L294.469 161.35L293.129 163.64L292.399 163.53L286.859 173.04L284.339 176.4L282.439 177.02V176.18L267.499 190.86ZM265.919 168.46L267.719 162.31V164.99L265.819 171.38L264.979 171.71L265.319 170.37L265.919 168.46ZM238.449 180.38L255.579 176.52L254.239 180.61L251.939 184.58L236.769 185.92L238.449 180.38ZM251.209 185.71L250.029 187.72L244.379 195.05L231.339 194.94L232.909 192.92L236.429 186.99L251.209 185.71ZM240.749 198.91L228.709 198.57L230.499 196L243.429 196.17L240.749 198.91Z" fill="#FFCC00"/>
<path fill-rule="evenodd" clip-rule="evenodd" d="M163.458 106.01H180.188L179.078 119.11H164.518L163.458 106.01ZM182.088 106.23L179.678 119.11L180.798 106.13L182.088 106.23ZM184.048 106.35L196.928 107.81L212.598 111.06L214.268 111.67L208.338 123.71L208.008 123.59L194.008 120.68L181.638 119.34L184.048 106.35Z" fill="#4AB100"/>
<path fill-rule="evenodd" clip-rule="evenodd" d="M182.088 106.23L184.048 106.35L181.648 119.33L179.688 119.11L182.088 106.23Z" fill="#F3EDE0"/>
<path fill-rule="evenodd" clip-rule="evenodd" d="M208.339 123.7L215.329 111.89L227.029 115.86L239.909 122.13L242.819 124.14L232.689 133.77L232.079 133.32L220.769 127.89L208.339 123.7ZM244.269 125.16L250.649 129.47L259.049 137.91L260.729 140.55L249.529 148.11L249.079 147.27L241.579 139.94L234.139 134.79L244.269 125.16ZM53.1586 212.62L44.7086 204.12L39.5586 196L47.0086 197.95L49.2986 205.06L54.3386 213.12L53.8886 213.01L53.1586 212.62ZM36.0286 183.75L46.4986 187.94L46.6686 196.17L38.4386 193.26L36.0286 185.71V183.75ZM47.1086 196.61H46.9986V196.89H46.7786L38.9386 194.82L38.5486 193.59L47.1086 196.61Z" fill="#007ED7"/>
<path fill-rule="evenodd" clip-rule="evenodd" d="M234.479 114.69L233.189 113.96L232.359 113.57L232.469 112.84L235.209 108.31L235.429 108.03V108.14L238.339 109.49V109.6L238.009 110.1L235.429 108.87V109.26L237.889 110.44L235.319 114.3V114.91L234.479 114.69ZM257.589 129.97L256.869 129.13L256.309 128.63L256.419 127.9L260.509 123.93L262.299 125.73V125.9L261.959 126.24L260.389 124.67V125.01L261.729 126.35V126.47L259.149 128.99L261.839 126.47L262.399 126.02V125.91L262.559 125.74L262.399 126.57L258.199 130.55L257.589 129.97ZM29.8686 190.86V190.64H30.0386L29.4286 188.34L34.1286 190.52V191.2L34.2386 191.59L34.5786 192.54L33.6186 192.21L34.7386 192.66L34.8586 193.05V193.38L30.1486 191.37L29.8686 190.86Z" fill="#005795"/>
<path fill-rule="evenodd" clip-rule="evenodd" d="M41.8486 165.45L53.2686 172.44L49.5086 178.71L49.3986 179.04L49.0586 179.66L47.8286 183.97L36.4086 178.6L38.8186 170.37L41.8486 165.45ZM92.7786 231.43L91.2086 231.04L79.1786 227.07L82.9886 226.23L84.7186 227.46L92.7786 231.43ZM46.4986 187.94L36.0286 183.75V179.89L47.5086 185.21L46.4986 187.94ZM267.719 162.31L265.919 168.46L257.249 171.6V164.71L254.609 156.21L254.219 155.71L254.109 155.32L250.359 149.45L261.939 142.62L264.679 146.93L267.589 156.45L267.699 156.67V162.31H267.719Z" fill="#45B300"/>
<path fill-rule="evenodd" clip-rule="evenodd" d="M300.119 138.36L302.419 145.86L302.529 158.96L298.669 171.61L286.299 190.24L278.079 198.19L269.909 206.13L259.549 213.24L249.199 220.35L237.389 226.62L211.259 237.3L197.159 241.77L164.919 248.88L142.979 251.18L120.199 251.01L97.8185 248.78L76.3785 244.3L56.6185 237.7L39.1585 229.13L24.6185 219.11L13.1385 207.69L5.35854 195.32L1.37854 182.39V171.59V169.29L3.61854 161.57V163.75L1.93854 169.29V182.39L5.91854 195.32L13.7585 207.58L25.0585 218.88L39.6685 228.9L57.0185 237.3L76.5985 243.96L97.9185 248.38L120.199 250.68L142.859 250.79L164.749 248.5L196.809 241.39L210.909 237.08L236.879 226.22L259.539 213.24L278.069 198.19L285.669 190.13L298.039 171.61L301.789 158.96V145.86L300.109 140.43V138.36H300.119ZM66.2485 202.27V203L68.1985 209.66L72.1785 215.76L77.8285 221.41L77.3285 221.52L71.6685 215.87L67.6985 209.66L65.7985 203.11L65.6885 197.35V196.73H66.1385L66.2485 202.27ZM222.099 230.09L208.609 235.63L194.839 240L163.559 246.83L142.459 249.01L120.689 248.9L99.1485 246.72L78.6685 242.41L59.6385 236.03L42.9085 227.92L42.0685 227.36L57.9585 235.02L77.3285 241.57L98.4285 245.99L120.309 248.17L142.749 248.28L164.289 246.11L196.079 239L222.099 230.09ZM246.399 218.45L234.029 225.16L223.909 229.35L246.399 218.45ZM142.639 237.19L158.869 234.56L164.299 233.22L158.989 234.79L148.859 236.87L142.649 237.43V237.19H142.639ZM282.429 178.32V179.33L275.049 187.39L256.859 202.04L234.579 214.8L209.069 225.38L180.919 233.33V232.38L209.069 224.44L234.579 213.97L246.169 207.82L266.529 194L282.429 178.32ZM235.709 186.37H236.049L232.689 192.3L228.379 197.95L217.419 208.53L203.539 218.05L187.309 226L175.389 229.75L186.919 225.78L203.309 217.83L217.019 208.43L227.989 197.85L235.709 186.37Z" fill="#94876D"/>
<path fill-rule="evenodd" clip-rule="evenodd" d="M70.5085 153.53L60.9885 162.71L49.7885 154.65L59.9785 144.52L70.5085 153.53ZM53.2685 172.44L41.8485 165.45L43.5285 162.59L48.7885 155.59L59.9885 163.76L58.6985 165.1L53.7785 171.59L53.2685 172.44ZM265.309 170.37L264.969 171.71V173.61L254.609 188.78L252.879 190.63L248.569 191.19L250.469 188.78L254.719 181.56L257.129 173.78V173.61H256.849L256.729 173.39L265.309 170.37ZM251.829 191.7L241.579 201.44L233.419 207.48H233.029L245.569 195.34L247.859 192.32L251.829 191.7Z" fill="#E5B800"/>
<path fill-rule="evenodd" clip-rule="evenodd" d="M107.439 154.03L96.3586 160.41L81.9286 148.27L94.6786 140.88L107.439 154.03ZM85.7786 167.96L69.0486 156.32L79.5186 148.26V149.32L79.7386 149.44L80.4686 149.1L95.0786 161.24L93.2286 162.19L85.7786 167.96ZM257.869 186.27L255.469 189.4L249.199 196.17L267.499 190.86L256.869 198.92L232.359 212.74L216.069 219.62H215.959L214.279 219.85V220.35L211.989 221.19L210.749 221.3L204.879 223.6L224.749 213.86L241.699 202.16L255.189 189.18L264.979 174.63V174.85H265.319L258.709 185.21L257.869 186.27ZM245.339 202.78H245.219L241.469 203.73L241.349 204.46L240.739 204.8L237.879 205.53L236.649 206.54L238.939 205.92V206.26L242.689 205.3L242.909 204.58L245.339 202.78ZM240.749 198.91L239.289 200.48L223.399 213.02L214.499 211.56L217.629 209.15L228.709 198.57L240.749 198.91ZM163.069 234.56L168.999 232.99L190.879 225.16L194.629 226.62L180.919 230.2V230.93L169.949 233.61L169.839 233.72L163.569 234.9L163.069 234.56ZM221.939 213.96L214.889 218.16L196.419 225.88L192.449 224.43L203.929 218.66L213.159 212.51L221.939 213.96Z" fill="#FF3000"/>
<path fill-rule="evenodd" clip-rule="evenodd" d="M138.768 103.94L137.768 104.16V103.32L136.478 99.2301L139.728 98.6201H139.838V98.2801L141.408 103.43L140.788 103.6L138.768 103.94ZM44.0885 142.73L48.3485 146.54V147.27L47.8485 147.89L46.9985 148.72L46.4985 149.22L42.2985 145.36L42.0785 144.63H42.1885H42.2985L44.0885 142.73ZM136.368 98.7901L136.198 98.2901V98.1801L139.728 97.5701V98.2901L136.368 98.9101V98.7901ZM265.199 183.52V184.14L260.608 185.71L260.729 185.21L257.868 186.27L258.708 185.21L261.958 184.15L262.298 183.64V182.92L266.669 181.35H266.778L265.108 183.53H265.199V183.52Z" fill="#B39000"/>
<path fill-rule="evenodd" clip-rule="evenodd" d="M4.96856 211.56L3.39856 206.53V199.14L4.96856 204.35V211.56ZM276.899 211.06V218.45L272.199 222.64V215.31L276.899 211.06ZM251.099 229.75L258.709 225.05V234.18L251.099 238.88V229.75ZM261.569 231.65V222.75L267.389 218.55V227.34L261.569 231.65ZM278.179 209.66L281.709 205.91V214.59L278.179 218.28V209.66ZM293.129 199.03V189.29L295.819 184.81V194.6L293.129 199.03ZM285.789 199.3L289.039 194.94V204.78L285.789 209.03V199.3ZM231.839 237.92V247.66L225.349 250.57V240.83L231.839 237.92ZM212.479 255.49V245.64L219.309 243.07V252.97L212.479 255.49Z" fill="#6D6048"/>
<path fill-rule="evenodd" clip-rule="evenodd" d="M14.9885 134.89V134.16L21.2585 125.88L37.3685 110.21L46.9985 103.1L69.1585 90.2401L94.6785 80L122.879 72.05V74.11L94.6785 81.89L69.1585 92.64L46.9985 105.51L37.3685 112.62L21.2585 128.29L14.9885 136.57V134.89Z" fill="#C1D1DB"/>
<path fill-rule="evenodd" clip-rule="evenodd" d="M109.509 82.4001L121.539 111.66L105.989 116.81L104.309 113.56L105.029 113.34L105.149 112.5L102.519 107.69L102.409 107.58L101.289 107.91L90.9286 88.4401L109.509 82.4001ZM101.899 114.52L102.629 114.3L104.309 117.43L99.2786 119.23L79.2986 129.13L74.5986 131.98L71.9186 128.63L72.5286 128.29V127.56L68.9486 123.08V122.97L67.9386 123.58L54.2286 106.12L70.5186 96.9401L89.2686 88.9902L99.6186 108.52L99.1686 108.74V109.47L101.899 114.52ZM61.5486 141.27L39.0486 116.7L52.8686 106.96L66.5286 124.42L66.2486 124.64V124.76L66.7486 125.26L66.9686 125.48L67.5886 126.32H67.6986L68.5386 127.56L69.8786 129.13V129.85L70.4986 129.46L73.2386 132.93L62.2686 140.65L61.5486 141.27ZM134.419 143.68L122.279 147.77L110.689 132.83L125.299 128.13L134.419 143.68ZM107.439 154.03L94.6786 140.88L95.7486 140.15V138.97L108.899 133.55L120.479 148.38L107.439 154.03Z" fill="#FF3300"/>
<path fill-rule="evenodd" clip-rule="evenodd" d="M105.029 113.34L104.309 113.56L102.629 114.29L101.899 114.51L101.789 113.79L101.449 112.95L99.7185 109.81L101.289 109.25V110.82H101.569L101.679 110.71V109.14L102.519 108.74V108.4L105.029 113.34ZM102.399 108.42L99.5985 109.49L99.2685 108.87L102.399 107.69V108.42ZM70.5085 129.47L69.8885 129.86V129.14L68.5485 127.57L67.7085 126.33H67.5985L66.9785 125.49L66.7585 125.27L66.3585 124.65H66.2485L66.5285 124.43L67.9185 123.59L68.9285 122.98V123.09L72.5085 127.57V128.3L71.8985 128.64L70.5085 129.47Z" fill="#9F2700"/>
<path fill-rule="evenodd" clip-rule="evenodd" d="M120.199 113.8L126.249 126L112.029 130.7L104.589 119.12L120.199 113.8ZM102.739 119.83L110.239 131.36L86.3985 142.61L82.6485 144.85L72.9085 134.89L77.9385 131.75L102.739 119.83ZM70.5085 153.53L59.9885 144.52L62.2785 142.45L71.4585 135.84L81.1985 145.86L78.6885 147.42L70.5085 153.53Z" fill="#CC3300"/>
<path fill-rule="evenodd" clip-rule="evenodd" d="M164.518 119.11L150.188 120.57L149.968 120.68L145.158 121.52L140.678 108.98L163.458 106.01L164.518 119.11ZM120.198 113.8L138.778 109.38L143.198 121.92L126.248 126.01L120.198 113.8Z" fill="#E4B700"/>
<path fill-rule="evenodd" clip-rule="evenodd" d="M144.439 123.7L149.359 122.74L164.419 121.29L166.209 137.91L155.019 138.97L151.159 139.81L144.439 123.7ZM134.419 143.68L125.289 128.13L142.249 124.15L149.129 140.16L135.139 143.46L134.419 143.68Z" fill="#FFCD00"/>
<path fill-rule="evenodd" clip-rule="evenodd" d="M66.1385 196.73H65.6885V197.35L65.2985 197.24L65.4085 203.62L48.5585 200.7L47.0985 195.55L46.9985 191.47L66.1385 196.73ZM67.3685 210.22L71.4585 216.49L59.5385 216.88L54.7285 212.06L49.6385 204.12L48.9185 201.54L65.4285 203.62L67.3685 210.22ZM63.8385 219.95L61.8285 218.55L72.6285 217.71L76.5985 221.69L70.1085 222.98L63.8385 219.95ZM63.6185 222.98L48.4485 220.13V212.74L45.6585 211.18L47.5085 211.68V211.46L49.0685 211.9L52.7585 215.54L63.6185 222.98ZM9.77851 181.73L29.8685 190.86L30.1485 191.36L34.8585 193.37V193.04L37.3685 194.21L38.5485 198.07L41.8485 203.1L16.9985 194.2V195.77L11.4485 186.99L9.77851 181.73ZM34.2385 191.58L34.1285 191.19V190.51L29.4285 188.33H29.3085L29.5285 189.39L9.44851 180.38L7.59851 174.73V162.59H5.58851H5.46851V160.02L5.57851 159.91L36.0185 178.82V179.04H35.9085V179.32H35.5685L35.6885 188.45L36.9685 192.76L34.2385 191.58ZM34.7385 207.69V212.39L28.0785 207.8L24.9385 204.78L34.7385 207.69ZM41.3485 207.81H41.2385L41.1285 208.54L35.1985 205.19L34.7485 205.41V206.87L23.7885 203.62L17.0185 196.9L44.6085 206.87V207.09L44.3785 207.25L47.9585 210.72L45.9485 210.11L45.4485 209.77V209.04L41.3485 207.81Z" fill="#0096FF"/>
<path fill-rule="evenodd" clip-rule="evenodd" d="M259.549 213.24L269.899 206.13L278.069 198.19L286.299 190.24L298.659 171.6L302.529 158.96V165.67L302.019 167.24L298.659 178.32L286.299 197.01L278.679 205.18L259.989 220.23L237.389 233.33L211.249 244.07L182.489 252.13L164.919 255.6L142.979 257.9L120.199 257.78L97.8186 255.49L76.3785 251.01L56.6185 244.41L39.1685 235.85L24.6186 225.88L13.1385 214.47L5.36855 202.04L1.83855 190.86L1.72855 190.74V190.63L1.38855 189.17V185.93V182.4L5.36855 195.33L13.1385 207.69L24.6186 219.11L39.1685 229.13L56.6185 237.7L76.3785 244.3L97.8186 248.78L120.199 251.01L142.979 251.18L164.919 248.89L197.149 241.78L211.249 237.3L237.389 226.62L249.189 220.35L259.549 213.24Z" fill="url(#paint6_linear)"/>
<path fill-rule="evenodd" clip-rule="evenodd" d="M246.399 218.45L223.899 229.35L222.099 230.09L196.089 238.98L164.299 246.09L142.749 248.27L120.309 248.16L98.4285 245.98L77.3285 241.55L57.9685 235L42.0785 227.34L40.8485 226.72L26.5085 216.88L15.3285 205.69L7.59854 193.48L3.62854 180.72V172.44L7.59854 185.2L15.3285 197.35L26.5085 208.43L40.8485 218.45L57.9685 226.72L77.3285 233.11L98.4285 237.58L120.309 239.82L142.749 239.99L164.299 237.81L181.649 234.45L210.019 226.34L235.819 215.64L258.199 202.78L276.619 187.83L290.609 171.49L296.479 161.47L300.119 148.94V157.38L296.479 169.82L290.609 179.78L288.539 182.32V182.4L287.579 183.63V183.58L284.229 188.22L276.619 196.17L258.199 211.06L246.399 218.45Z" fill="url(#paint7_linear)"/>
<path fill-rule="evenodd" clip-rule="evenodd" d="M302.019 167.52V179.78L301.069 183.03L299.499 188.57L298.329 192.43V192.54L292.279 202.56L278.179 219.13L257.579 235.53L248.799 241.07L225.459 252.49L196.919 262.39L164.739 269.61L142.969 271.62H120.199L97.9185 269.33L91.6585 268.04V267.54L82.1385 265.53V265.97L76.5985 264.91L73.1285 263.68V262.95L63.1085 259.7V260.32L57.0085 258.25L52.1885 256.01V255.39L44.6885 251.76V252.37L39.5385 249.86L32.4385 244.94V244.54L30.1385 242.97V243.37L24.9385 239.84L22.0885 236.98V236.14L16.8785 230.94V231.66L13.6285 228.41L6.53853 217.21L6.20853 216.71L5.81853 216.15L1.84853 203.28L1.73853 190.74L1.84853 190.86V190.97L5.81853 203.85L13.6485 216.16L24.9485 227.46L39.5585 237.59L57.0185 245.98L76.5985 252.47L97.9185 257.06L120.199 259.35H142.979L164.749 257.18L196.929 250.07L224.399 240.56L236.989 234.91L259.659 221.81L269.499 214.59L278.169 206.75L292.269 190.13L298.199 180.17L302.019 167.52ZM4.96853 211.56V204.34L3.39853 199.13V206.52L4.96853 211.56ZM276.899 211.06L272.199 215.31V222.64L276.899 218.45V211.06ZM251.099 229.75V238.87L258.709 234.17V225.04L251.099 229.75ZM261.569 231.65L267.389 227.34V218.55L261.569 222.75V231.65ZM293.129 199.03L295.819 194.61V184.82L293.129 189.3V199.03ZM278.179 209.66V218.28L281.709 214.59V205.91L278.179 209.66ZM285.789 199.3V209.04L289.039 204.79V194.95L285.789 199.3ZM212.479 255.49L219.309 252.97V243.07L212.479 245.64V255.49ZM231.839 237.92L225.349 240.83V250.57L231.839 247.66V237.92Z" fill="url(#paint8_linear)"/>
<path fill-rule="evenodd" clip-rule="evenodd" d="M94.4385 187.5C86.8685 191.87 83.2385 197.22 83.5185 203.54C83.8185 209.88 87.9385 215.35 95.9085 219.95C103.889 224.55 113.379 226.94 124.349 227.1C135.319 227.28 144.599 225.18 152.159 220.81L209.729 187.59C217.288 183.23 220.928 177.88 220.648 171.53C220.359 165.2 216.229 159.73 208.239 155.13C200.269 150.53 190.799 148.14 179.829 147.97C168.839 147.81 159.569 149.92 152.009 154.28L94.4385 187.5ZM95.6185 187.59L152.049 155.02C159.469 150.74 168.559 148.67 179.309 148.82C190.069 148.99 199.358 151.34 207.178 155.86C215.008 160.37 219.059 165.73 219.329 171.93C219.629 178.15 216.059 183.4 208.639 187.68L152.209 220.25C144.789 224.53 135.689 226.59 124.929 226.41C114.179 226.25 104.889 223.92 97.0785 219.41C89.2485 214.9 85.1985 209.53 84.8985 203.31C84.6185 197.11 88.1885 191.87 95.6185 187.59ZM98.7685 187.93C91.6485 192.04 88.1685 197.02 88.3085 202.87C88.4485 208.75 92.1685 213.8 99.4685 218.01C106.759 222.22 115.489 224.36 125.679 224.43C135.839 224.52 144.479 222.52 151.599 218.41L205.678 187.2C212.788 183.1 216.269 178.11 216.139 172.23C215.989 166.37 212.268 161.34 204.979 157.13C197.678 152.92 188.949 150.76 178.779 150.67C168.599 150.6 159.959 152.61 152.859 156.72L98.7685 187.93ZM86.1585 186.48C77.6985 191.36 73.7885 197.44 74.4385 204.71C75.1185 211.99 80.1585 218.34 89.5485 223.76C98.9385 229.18 109.939 232.08 122.549 232.47C135.159 232.85 145.699 230.6 154.159 225.72L218.508 188.58C226.958 183.7 230.859 177.62 230.209 170.34C229.539 163.06 224.508 156.71 215.118 151.29C205.729 145.87 194.719 142.96 182.099 142.57C169.489 142.21 158.959 144.46 150.509 149.33L86.1585 186.48ZM87.2085 186.6L150.709 149.96C159.059 145.14 169.429 142.91 181.829 143.26C194.229 143.61 205.038 146.45 214.258 151.77C223.469 157.08 228.379 163.31 228.989 170.47C229.599 177.62 225.729 183.61 217.368 188.43L153.879 225.07C145.539 229.89 135.159 232.11 122.769 231.76C110.359 231.42 99.5485 228.59 90.3385 223.27C81.1185 217.95 76.2185 211.71 75.6185 204.55C75.0085 197.4 78.8685 191.42 87.2085 186.6ZM90.1685 186.98C82.1485 191.61 78.3585 197.33 78.8285 204.14C79.3085 210.97 83.8885 216.89 92.5785 221.91C101.279 226.93 111.549 229.57 123.369 229.84C135.179 230.11 145.099 227.94 153.129 223.31L214.219 188.05C222.258 183.41 226.039 177.68 225.579 170.86C225.089 164.05 220.499 158.12 211.809 153.11C203.129 148.09 192.869 145.45 181.039 145.16C169.229 144.9 159.309 147.09 151.269 151.72L90.1685 186.98ZM91.4785 187L151.389 152.43C159.269 147.88 168.999 145.73 180.589 145.99C192.169 146.28 202.229 148.88 210.758 153.8C219.288 158.72 223.779 164.52 224.249 171.19C224.699 177.88 220.999 183.5 213.118 188.04L153.199 222.61C145.319 227.16 135.599 229.29 124.029 229.01C112.449 228.76 102.389 226.18 93.8585 221.25C85.3285 216.33 80.8385 210.52 80.3685 203.82C79.9085 197.15 83.6085 191.54 91.4785 187ZM100.499 217.49C93.4185 213.4 89.8185 208.49 89.7485 202.74C89.6485 197.02 93.0885 192.15 100.059 188.13L153.079 157.53C160.049 153.5 168.489 151.52 178.419 151.56C188.359 151.61 196.869 153.69 203.959 157.78C211.049 161.87 214.639 166.78 214.719 172.5C214.809 178.23 211.379 183.12 204.409 187.14L151.389 217.74C144.419 221.76 135.969 223.75 126.049 223.68C116.099 223.65 107.589 221.58 100.499 217.49ZM102.899 216.04C109.459 219.82 117.409 221.7 126.749 221.68C136.069 221.65 144.049 219.73 150.689 215.9L201.199 186.75C207.819 182.93 211.159 178.32 211.219 172.94C211.249 167.55 207.999 162.97 201.439 159.19C194.869 155.39 186.909 153.51 177.569 153.52C168.239 153.56 160.269 155.49 153.649 159.31L103.139 188.46C96.4985 192.29 93.1585 196.9 93.1085 202.27C93.0585 207.65 96.3185 212.25 102.899 216.04ZM103.879 215.48C97.4985 211.8 94.3585 207.32 94.4385 202.06C94.5285 196.82 97.8285 192.32 104.329 188.57L153.839 160C160.339 156.24 168.149 154.34 177.239 154.27C186.349 154.24 194.089 156.05 200.459 159.73C206.839 163.4 209.969 167.87 209.879 173.11C209.779 178.37 206.489 182.87 199.979 186.63L150.479 215.2C143.969 218.96 136.169 220.85 127.079 220.9C117.979 220.96 110.249 219.15 103.879 215.48Z" fill="white"/>
<path fill-rule="evenodd" clip-rule="evenodd" d="M94.4385 187.5L152.008 154.28C159.568 149.91 168.838 147.81 179.828 147.97C190.798 148.14 200.268 150.53 208.238 155.13C216.218 159.73 220.358 165.2 220.648 171.53C220.928 177.87 217.298 183.23 209.728 187.59L152.158 220.81C144.598 225.18 135.318 227.28 124.348 227.1C113.378 226.94 103.888 224.55 95.9085 219.95C87.9385 215.35 83.8185 209.88 83.5185 203.54C83.2285 197.22 86.8685 191.87 94.4385 187.5ZM95.6185 187.59C88.1985 191.87 84.6185 197.11 84.8985 203.31C85.1985 209.53 89.2485 214.89 97.0785 219.41C104.898 223.92 114.178 226.26 124.928 226.41C135.688 226.59 144.778 224.53 152.208 220.25L208.638 187.68C216.058 183.4 219.628 178.15 219.328 171.93C219.058 165.73 214.998 160.38 207.178 155.86C199.358 151.35 190.068 149 179.308 148.82C168.558 148.66 159.468 150.73 152.048 155.02L95.6185 187.59ZM98.7685 187.93L152.848 156.72C159.948 152.62 168.588 150.61 178.768 150.67C188.938 150.76 197.668 152.92 204.968 157.13C212.258 161.34 215.978 166.37 216.128 172.23C216.258 178.11 212.778 183.1 205.668 187.2L151.588 218.41C144.468 222.52 135.828 224.52 125.668 224.43C115.488 224.36 106.758 222.22 99.4585 218.01C92.1585 213.8 88.4385 208.75 88.2985 202.87C88.1685 197.02 91.6485 192.04 98.7685 187.93ZM87.2085 186.6C78.8685 191.42 75.0085 197.4 75.6185 204.55C76.2185 211.72 81.1185 217.95 90.3385 223.27C99.5485 228.58 110.358 231.42 122.768 231.76C135.168 232.11 145.538 229.89 153.878 225.07L217.368 188.43C225.718 183.61 229.598 177.62 228.988 170.47C228.378 163.31 223.468 157.08 214.258 151.77C205.038 146.45 194.228 143.61 181.828 143.26C169.428 142.91 159.058 145.14 150.708 149.96L87.2085 186.6ZM90.1685 186.98L151.258 151.72C159.298 147.08 169.218 144.89 181.028 145.16C192.858 145.45 203.118 148.09 211.798 153.11C220.498 158.13 225.088 164.05 225.568 170.86C226.028 177.68 222.248 183.41 214.208 188.05L153.118 223.31C145.098 227.94 135.178 230.11 123.358 229.84C111.538 229.57 101.268 226.92 92.5685 221.91C83.8785 216.89 79.2985 210.97 78.8185 204.14C78.3685 197.32 82.1485 191.61 90.1685 186.98ZM100.498 217.49C107.588 221.58 116.098 223.65 126.048 223.69C135.968 223.76 144.418 221.77 151.388 217.75L204.408 187.15C211.378 183.13 214.808 178.25 214.718 172.51C214.638 166.78 211.048 161.87 203.958 157.79C196.878 153.7 188.358 151.62 178.418 151.57C168.488 151.52 160.048 153.51 153.078 157.54L100.058 188.14C93.0885 192.16 89.6485 197.03 89.7485 202.75C89.8185 208.49 93.4185 213.4 100.498 217.49ZM91.4785 187C83.6085 191.54 79.9085 197.15 80.3685 203.82C80.8385 210.52 85.3385 216.33 93.8585 221.25C102.388 226.18 112.448 228.76 124.028 229.01C135.598 229.29 145.328 227.16 153.198 222.61L213.108 188.04C220.988 183.49 224.688 177.87 224.238 171.19C223.778 164.52 219.278 158.72 210.748 153.8C202.218 148.88 192.158 146.28 180.578 145.99C168.988 145.73 159.258 147.88 151.378 152.43L91.4785 187ZM102.898 216.04C96.3285 212.25 93.0585 207.65 93.0985 202.26C93.1485 196.89 96.4885 192.28 103.128 188.45L153.638 159.3C160.258 155.48 168.238 153.55 177.558 153.51C186.888 153.49 194.848 155.38 201.428 159.18C207.988 162.96 211.238 167.54 211.208 172.93C211.148 178.32 207.818 182.92 201.188 186.74L150.678 215.89C144.038 219.72 136.058 221.65 126.738 221.67C117.398 221.7 109.458 219.82 102.898 216.04ZM103.878 215.48C110.248 219.15 117.978 220.96 127.088 220.9C136.178 220.85 143.988 218.96 150.488 215.2L199.988 186.63C206.498 182.87 209.788 178.37 209.888 173.11C209.978 167.87 206.838 163.41 200.468 159.73C194.098 156.05 186.358 154.23 177.248 154.27C168.148 154.34 160.348 156.24 153.848 160L104.338 188.57C97.8385 192.33 94.5385 196.83 94.4485 202.06C94.3485 207.32 97.4985 211.8 103.878 215.48Z" fill="#E25829"/>
<path fill-rule="evenodd" clip-rule="evenodd" d="M100.029 193.61L164.219 157.34L206.709 180.61L141.169 219.32L100.029 193.61Z" fill="#CCFFCC"/>
<path fill-rule="evenodd" clip-rule="evenodd" d="M102.599 193.61L164.219 158.83L202.869 180.75L141.169 216.75L102.599 193.61Z" fill="#00CC00"/>
<path fill-rule="evenodd" clip-rule="evenodd" d="M19.5786 203.28C20.6986 203.28 21.6586 203.73 22.4486 204.63C23.2286 205.53 23.6286 206.71 23.6286 208.17V235.84C23.6286 237.19 23.2386 238.37 22.4486 239.38C21.6586 240.28 20.6986 240.73 19.5786 240.73C18.3386 240.73 17.3786 240.28 16.7086 239.38C15.9286 238.37 15.5286 237.19 15.5286 235.84V208.17C15.5286 206.7 15.9186 205.53 16.7086 204.63C17.3786 203.73 18.3286 203.28 19.5786 203.28Z" fill="#999999"/>
<path fill-rule="evenodd" clip-rule="evenodd" d="M17.5486 167.17H21.5886V206.66C21.5886 207.22 21.3686 207.72 20.9186 208.18C20.5786 208.52 20.1386 208.68 19.5786 208.68C19.0086 208.68 18.5686 208.51 18.2286 208.18C17.7786 207.73 17.5586 207.23 17.5586 206.66V167.17H17.5486Z" fill="#666666"/>
<path fill-rule="evenodd" clip-rule="evenodd" d="M118.109 266.89C118.789 265.88 119.679 265.37 120.809 265.37C122.049 265.37 123.059 265.87 123.839 266.89C124.629 267.79 125.029 268.92 125.029 270.27V297.93C125.029 299.28 124.639 300.47 123.839 301.47C123.059 302.38 122.039 302.82 120.809 302.82C119.679 302.82 118.779 302.37 118.109 301.47C117.209 300.46 116.759 299.28 116.759 297.93V270.27C116.759 268.91 117.209 267.78 118.109 266.89Z" fill="#999999"/>
<path fill-rule="evenodd" clip-rule="evenodd" d="M118.779 268.91V229.26H122.999V268.91C122.999 269.36 122.779 269.81 122.319 270.26C121.979 270.71 121.479 270.93 120.799 270.93C120.349 270.93 119.889 270.7 119.449 270.26C118.999 269.81 118.779 269.36 118.779 268.91Z" fill="#666666"/>
<path fill-rule="evenodd" clip-rule="evenodd" d="M80.8186 278.36V250.69C80.8186 249.22 81.2586 248.05 82.1686 247.15C82.8386 246.25 83.7386 245.8 84.8586 245.8C85.9886 245.8 86.9986 246.25 87.8986 247.15C88.6886 248.05 89.0786 249.23 89.0786 250.69V278.36C89.0786 279.7 88.6886 280.89 87.8986 281.9C86.9986 282.8 85.9886 283.25 84.8586 283.25C83.7386 283.25 82.8386 282.8 82.1686 281.9C81.2586 280.89 80.8186 279.7 80.8186 278.36Z" fill="#999999"/>
<path fill-rule="evenodd" clip-rule="evenodd" d="M82.8486 249.17V209.69H87.0686V249.17C87.0686 249.73 86.8386 250.23 86.3986 250.69C85.9486 251.03 85.4386 251.19 84.8686 251.19C84.4286 251.19 83.9686 251.03 83.5286 250.69C83.0686 250.24 82.8486 249.73 82.8486 249.17Z" fill="#666666"/>
<path fill-rule="evenodd" clip-rule="evenodd" d="M55.1785 225.88C55.9585 226.79 56.3585 227.97 56.3585 229.42V257.09C56.3585 258.44 55.9585 259.62 55.1785 260.63C54.3885 261.53 53.3685 261.98 52.1385 261.98C51.0185 261.98 50.1085 261.53 49.4485 260.63C48.5385 259.62 48.0985 258.44 48.0985 257.09V229.42C48.0985 227.96 48.5485 226.78 49.4485 225.88C50.1185 224.98 51.0185 224.54 52.1385 224.54C53.3685 224.54 54.3785 224.99 55.1785 225.88Z" fill="#999999"/>
<path fill-rule="evenodd" clip-rule="evenodd" d="M50.1085 188.43H54.3285V227.91C54.3285 228.47 54.1085 228.98 53.6585 229.43C53.3185 229.77 52.8085 229.94 52.1385 229.94C51.6885 229.94 51.2385 229.77 50.7885 229.43C50.3385 228.98 50.1185 228.47 50.1185 227.91V188.43H50.1085Z" fill="#666666"/>
<path fill-rule="evenodd" clip-rule="evenodd" d="M162.069 184.88L171.999 195.38L192.919 182.72L184.949 174.3L182.979 172.22L162.069 184.88Z" fill="#00CC00" stroke="white" stroke-width="0.1417" stroke-miterlimit="10"/>
<path d="M177.809 175.35L187.749 185.85" stroke="white" stroke-width="0.1417" stroke-miterlimit="10"/>
<path fill-rule="evenodd" clip-rule="evenodd" d="M179.939 190.58L179.769 182.42L170.009 180.07" fill="#00CC00"/>
<path d="M179.939 190.58L179.769 182.42L170.009 180.07" stroke="white" stroke-width="0.1417" stroke-miterlimit="10"/>
<path d="M179.509 177.13L184.669 174.01" stroke="white" stroke-width="0.1417" stroke-miterlimit="10"/>
<path d="M181.619 179.37L186.789 176.24" stroke="white" stroke-width="0.1417" stroke-miterlimit="10"/>
<path d="M183.739 181.61L188.909 178.48" stroke="white" stroke-width="0.1417" stroke-miterlimit="10"/>
<path d="M185.849 183.85L191.019 180.72" stroke="white" stroke-width="0.1417" stroke-miterlimit="10"/>
<path fill-rule="evenodd" clip-rule="evenodd" d="M165.669 182.44L165.869 182.75C165.979 182.93 166.219 182.98 166.399 182.87L175.819 176.99C175.999 176.88 176.049 176.64 175.939 176.46L175.739 176.15C175.629 175.97 175.389 175.92 175.209 176.03L165.789 181.91C165.619 182.02 165.559 182.26 165.669 182.44Z" fill="#2E3192"/>
<path fill-rule="evenodd" clip-rule="evenodd" d="M175.339 193.64L175.539 193.95C175.649 194.13 175.889 194.18 176.069 194.07L185.489 188.19C185.669 188.08 185.719 187.84 185.609 187.66L185.409 187.35C185.299 187.17 185.059 187.12 184.879 187.23L175.459 193.11C175.279 193.22 175.229 193.46 175.339 193.64Z" fill="#2E3192"/>
<path fill-rule="evenodd" clip-rule="evenodd" d="M138.328 199.71L148.268 210.22L169.178 197.56L161.208 189.14L159.248 187.05L138.328 199.71Z" fill="#00CC00" stroke="white" stroke-width="0.1417" stroke-miterlimit="10"/>
<path d="M154.078 190.18L164.008 200.69" stroke="white" stroke-width="0.1417" stroke-miterlimit="10"/>
<path fill-rule="evenodd" clip-rule="evenodd" d="M156.199 205.41L156.029 197.26L146.269 194.91" fill="#00CC00"/>
<path d="M156.199 205.41L156.029 197.26L146.269 194.91" stroke="white" stroke-width="0.1417" stroke-miterlimit="10"/>
<path d="M155.769 191.97L160.939 188.84" stroke="white" stroke-width="0.1417" stroke-miterlimit="10"/>
<path d="M157.879 194.21L163.049 191.08" stroke="white" stroke-width="0.1417" stroke-miterlimit="10"/>
<path d="M159.999 196.45L165.169 193.32" stroke="white" stroke-width="0.1417" stroke-miterlimit="10"/>
<path d="M162.109 198.68L167.279 195.55" stroke="white" stroke-width="0.1417" stroke-miterlimit="10"/>
<path fill-rule="evenodd" clip-rule="evenodd" d="M141.939 197.27L142.139 197.58C142.249 197.76 142.489 197.81 142.669 197.7L152.089 191.82C152.269 191.71 152.319 191.47 152.209 191.29L152.009 190.98C151.899 190.8 151.659 190.75 151.479 190.86L142.059 196.74C141.879 196.86 141.819 197.1 141.939 197.27Z" fill="#2E3192"/>
<path fill-rule="evenodd" clip-rule="evenodd" d="M151.599 208.47L151.799 208.78C151.909 208.96 152.149 209.01 152.329 208.9L161.749 203.02C161.929 202.91 161.979 202.67 161.869 202.49L161.669 202.18C161.559 202 161.319 201.95 161.139 202.06L151.719 207.94C151.539 208.06 151.489 208.3 151.599 208.47Z" fill="#2E3192"/>
<path fill-rule="evenodd" clip-rule="evenodd" d="M144.269 174.49L154.199 184.99L175.109 172.33L167.149 163.91L165.179 161.83L144.269 174.49Z" fill="#00CC00" stroke="white" stroke-width="0.1417" stroke-miterlimit="10"/>
<path d="M160.009 164.96L169.939 175.46" stroke="white" stroke-width="0.1417" stroke-miterlimit="10"/>
<path fill-rule="evenodd" clip-rule="evenodd" d="M162.138 180.19L161.958 172.04L152.198 169.69" fill="#00CC00"/>
<path d="M162.138 180.19L161.958 172.04L152.198 169.69" stroke="white" stroke-width="0.1417" stroke-miterlimit="10"/>
<path d="M161.698 166.75L166.868 163.62" stroke="white" stroke-width="0.1417" stroke-miterlimit="10"/>
<path d="M163.819 168.99L168.989 165.86" stroke="white" stroke-width="0.1417" stroke-miterlimit="10"/>
<path d="M165.929 171.22L171.099 168.09" stroke="white" stroke-width="0.1417" stroke-miterlimit="10"/>
<path d="M168.049 173.46L173.219 170.33" stroke="white" stroke-width="0.1417" stroke-miterlimit="10"/>
<path fill-rule="evenodd" clip-rule="evenodd" d="M147.869 172.05L148.069 172.36C148.179 172.54 148.419 172.59 148.599 172.48L158.019 166.6C158.199 166.49 158.249 166.25 158.139 166.07L157.939 165.76C157.829 165.58 157.589 165.53 157.409 165.64L147.989 171.52C147.809 171.64 147.759 171.87 147.869 172.05Z" fill="#2E3192"/>
<path fill-rule="evenodd" clip-rule="evenodd" d="M157.539 183.25L157.739 183.56C157.849 183.74 158.089 183.79 158.269 183.68L167.689 177.8C167.869 177.69 167.919 177.45 167.809 177.27L167.609 176.96C167.499 176.78 167.259 176.73 167.079 176.84L157.659 182.72C157.479 182.84 157.419 183.07 157.539 183.25Z" fill="#2E3192"/>
<path fill-rule="evenodd" clip-rule="evenodd" d="M120.529 189.33L130.459 199.83L151.369 187.17L143.409 178.75L141.439 176.67L120.529 189.33Z" fill="#00CC00" stroke="white" stroke-width="0.1417" stroke-miterlimit="10"/>
<path d="M136.269 179.8L146.209 190.3" stroke="white" stroke-width="0.1417" stroke-miterlimit="10"/>
<path fill-rule="evenodd" clip-rule="evenodd" d="M138.399 195.03L138.229 186.87L128.459 184.52" fill="#00CC00"/>
<path d="M138.399 195.03L138.229 186.87L128.459 184.52" stroke="white" stroke-width="0.1417" stroke-miterlimit="10"/>
<path d="M137.959 181.59L143.129 178.46" stroke="white" stroke-width="0.1417" stroke-miterlimit="10"/>
<path d="M140.079 183.82L145.249 180.69" stroke="white" stroke-width="0.1417" stroke-miterlimit="10"/>
<path d="M142.199 186.06L147.359 182.93" stroke="white" stroke-width="0.1417" stroke-miterlimit="10"/>
<path d="M144.309 188.3L149.479 185.17" stroke="white" stroke-width="0.1417" stroke-miterlimit="10"/>
<path fill-rule="evenodd" clip-rule="evenodd" d="M124.129 186.89L124.329 187.2C124.439 187.38 124.679 187.43 124.859 187.32L134.279 181.44C134.459 181.33 134.509 181.09 134.399 180.91L134.199 180.6C134.089 180.42 133.849 180.37 133.669 180.48L124.249 186.36C124.079 186.47 124.019 186.71 124.129 186.89Z" fill="#2E3192"/>
<path fill-rule="evenodd" clip-rule="evenodd" d="M133.799 198.09L133.999 198.4C134.109 198.58 134.349 198.63 134.529 198.52L143.949 192.64C144.129 192.53 144.179 192.29 144.069 192.11L143.869 191.8C143.759 191.62 143.519 191.57 143.339 191.68L133.919 197.56C133.739 197.67 133.689 197.91 133.799 198.09Z" fill="#2E3192"/>
<defs>
<linearGradient id="paint0_linear" x1="249.754" y1="11.3157" x2="200.683" y2="11.3157" gradientUnits="userSpaceOnUse">
<stop stop-color="#770000"/>
<stop offset="0.1843" stop-color="#FF0000"/>
<stop offset="0.2627" stop-color="#FFA1A1"/>
<stop offset="0.3725" stop-color="#FF0000"/>
<stop offset="0.4471" stop-color="#9D0000"/>
<stop offset="0.5216" stop-color="#FF0000"/>
<stop offset="0.6039" stop-color="#FF8585"/>
<stop offset="0.698" stop-color="#FF0000"/>
<stop offset="0.9529" stop-color="#B20000"/>
</linearGradient>
<linearGradient id="paint1_linear" x1="262.918" y1="16.5459" x2="213.842" y2="16.5459" gradientUnits="userSpaceOnUse">
<stop stop-color="#770000"/>
<stop offset="0.1843" stop-color="#FF0000"/>
<stop offset="0.2627" stop-color="#FFA1A1"/>
<stop offset="0.3725" stop-color="#FF0000"/>
<stop offset="0.4471" stop-color="#9D0000"/>
<stop offset="0.5216" stop-color="#FF0000"/>
<stop offset="0.6039" stop-color="#FF8585"/>
<stop offset="0.698" stop-color="#FF0000"/>
<stop offset="0.9529" stop-color="#B20000"/>
</linearGradient>
<linearGradient id="paint2_linear" x1="275.399" y1="24.4779" x2="226.334" y2="24.4779" gradientUnits="userSpaceOnUse">
<stop stop-color="#770000"/>
<stop offset="0.1843" stop-color="#FF0000"/>
<stop offset="0.2627" stop-color="#FFA1A1"/>
<stop offset="0.3725" stop-color="#FF0000"/>
<stop offset="0.4471" stop-color="#9D0000"/>
<stop offset="0.5216" stop-color="#FF0000"/>
<stop offset="0.6039" stop-color="#FF8585"/>
<stop offset="0.698" stop-color="#FF0000"/>
<stop offset="0.9529" stop-color="#B20000"/>
</linearGradient>
<linearGradient id="paint3_linear" x1="77.7253" y1="15.7038" x2="126.801" y2="15.7038" gradientUnits="userSpaceOnUse">
<stop stop-color="#770000"/>
<stop offset="0.1843" stop-color="#FF0000"/>
<stop offset="0.2627" stop-color="#FFA1A1"/>
<stop offset="0.3725" stop-color="#FF0000"/>
<stop offset="0.4471" stop-color="#9D0000"/>
<stop offset="0.5216" stop-color="#FF0000"/>
<stop offset="0.6039" stop-color="#FF8585"/>
<stop offset="0.698" stop-color="#FF0000"/>
<stop offset="0.9529" stop-color="#B20000"/>
</linearGradient>
<linearGradient id="paint4_linear" x1="64.5702" y1="20.9351" x2="113.64" y2="20.9351" gradientUnits="userSpaceOnUse">
<stop stop-color="#770000"/>
<stop offset="0.1843" stop-color="#FF0000"/>
<stop offset="0.2627" stop-color="#FFA1A1"/>
<stop offset="0.3725" stop-color="#FF0000"/>
<stop offset="0.4471" stop-color="#9D0000"/>
<stop offset="0.5216" stop-color="#FF0000"/>
<stop offset="0.6039" stop-color="#FF8585"/>
<stop offset="0.698" stop-color="#FF0000"/>
<stop offset="0.9529" stop-color="#B20000"/>
</linearGradient>
<linearGradient id="paint5_linear" x1="52.0816" y1="28.8618" x2="101.152" y2="28.8618" gradientUnits="userSpaceOnUse">
<stop stop-color="#770000"/>
<stop offset="0.1843" stop-color="#FF0000"/>
<stop offset="0.2627" stop-color="#FFA1A1"/>
<stop offset="0.3725" stop-color="#FF0000"/>
<stop offset="0.4471" stop-color="#9D0000"/>
<stop offset="0.5216" stop-color="#FF0000"/>
<stop offset="0.6039" stop-color="#FF8585"/>
<stop offset="0.698" stop-color="#FF0000"/>
<stop offset="0.9529" stop-color="#B20000"/>
</linearGradient>
<linearGradient id="paint6_linear" x1="1.38657" y1="208.428" x2="302.524" y2="208.428" gradientUnits="userSpaceOnUse">
<stop offset="0.5569" stop-color="#FF8B5D"/>
<stop offset="0.8745" stop-color="#C73200"/>
<stop offset="1" stop-color="#FF8B5D"/>
</linearGradient>
<linearGradient id="paint7_linear" x1="3.62709" y1="198.604" x2="300.118" y2="198.604" gradientUnits="userSpaceOnUse">
<stop offset="0.3098" stop-color="#EBE7D1"/>
<stop offset="0.9922" stop-color="#B8B284"/>
</linearGradient>
<linearGradient id="paint8_linear" x1="1.72391" y1="219.562" x2="302.021" y2="219.562" gradientUnits="userSpaceOnUse">
<stop offset="0.3098" stop-color="#EBE7D1"/>
<stop offset="0.9922" stop-color="#B8B284"/>
</linearGradient>
</defs>
</svg>
