<svg width="72" height="104" viewBox="0 0 72 104" fill="none" xmlns="http://www.w3.org/2000/svg">
<path d="M9.36387 48.9732L8.13321 47.7241L7.68479 49.4193L2.03325 70.7841L1.85897 71.443L2.40844 71.8461C15.0631 81.1309 18.7309 85.6409 28.9037 99.1029L30.2249 100.851L30.6797 98.7076C31.2735 95.9089 33.2738 91.0103 36.1928 84.9919C39.096 79.0062 42.863 72.0023 46.9279 65.0325C50.9928 58.0625 55.3486 51.1387 59.4274 45.3109C63.5208 39.4625 67.2893 34.785 70.1785 32.2519L70.5193 31.9532V31.5V5V2.69712L68.8366 4.2693C60.9679 11.6212 53.2359 22.7872 46.3453 34.7907C39.7352 46.3056 33.8657 58.6516 29.3621 69.2705L9.36387 48.9732Z" fill="#4CAF2E" stroke="white" stroke-width="2"/>
</svg>
