<svg width="72" height="73" viewBox="0 0 72 73" fill="none" xmlns="http://www.w3.org/2000/svg">
<mask id="path-1-outside-1" maskUnits="userSpaceOnUse" x="0" y="0" width="72" height="73" fill="black">
<rect fill="white" width="72" height="73"/>
<path fill-rule="evenodd" clip-rule="evenodd" d="M3.17018 62.8054C1.60994 64.3656 1.60994 66.8953 3.17018 68.4555C4.73043 70.0158 7.26008 70.0158 8.82033 68.4555L35.6039 41.6719L62.8923 68.9603C64.4523 70.5202 66.9814 70.5202 68.5413 68.9603C70.1013 67.4004 70.1013 64.8712 68.5413 63.3113L41.2529 36.0229L68.4555 8.82033C70.0158 7.26009 70.0158 4.73043 68.4555 3.17018C66.8953 1.60994 64.3656 1.60994 62.8054 3.17018L35.6028 30.3728L8.90501 3.67499C7.34508 2.11506 4.81594 2.11506 3.25601 3.67498C1.69608 5.23491 1.69609 7.76405 3.25601 9.32398L29.9538 36.0218L3.17018 62.8054Z"/>
</mask>
<path fill-rule="evenodd" clip-rule="evenodd" d="M3.17018 62.8054C1.60994 64.3656 1.60994 66.8953 3.17018 68.4555C4.73043 70.0158 7.26008 70.0158 8.82033 68.4555L35.6039 41.6719L62.8923 68.9603C64.4523 70.5202 66.9814 70.5202 68.5413 68.9603C70.1013 67.4004 70.1013 64.8712 68.5413 63.3113L41.2529 36.0229L68.4555 8.82033C70.0158 7.26009 70.0158 4.73043 68.4555 3.17018C66.8953 1.60994 64.3656 1.60994 62.8054 3.17018L35.6028 30.3728L8.90501 3.67499C7.34508 2.11506 4.81594 2.11506 3.25601 3.67498C1.69608 5.23491 1.69609 7.76405 3.25601 9.32398L29.9538 36.0218L3.17018 62.8054Z" fill="#FF0000"/>
<path fill-rule="evenodd" clip-rule="evenodd" d="M3.17018 62.8054C1.60994 64.3656 1.60994 66.8953 3.17018 68.4555C4.73043 70.0158 7.26008 70.0158 8.82033 68.4555L35.6039 41.6719L62.8923 68.9603C64.4523 70.5202 66.9814 70.5202 68.5413 68.9603C70.1013 67.4004 70.1013 64.8712 68.5413 63.3113L41.2529 36.0229L68.4555 8.82033C70.0158 7.26009 70.0158 4.73043 68.4555 3.17018C66.8953 1.60994 64.3656 1.60994 62.8054 3.17018L35.6028 30.3728L8.90501 3.67499C7.34508 2.11506 4.81594 2.11506 3.25601 3.67498C1.69608 5.23491 1.69609 7.76405 3.25601 9.32398L29.9538 36.0218L3.17018 62.8054Z" fill="#FF0000"/>
<path d="M3.17018 68.4555L4.5844 67.0413L3.17018 68.4555ZM3.17018 62.8054L1.75597 61.3912H1.75597L3.17018 62.8054ZM8.82033 68.4555L7.40611 67.0413H7.40611L8.82033 68.4555ZM35.6039 41.6719L37.0182 40.2577L35.6039 38.8435L34.1897 40.2577L35.6039 41.6719ZM62.8923 68.9603L64.3066 67.5461L62.8923 68.9603ZM68.5413 68.9603L69.9556 70.3745L68.5413 68.9603ZM68.5413 63.3113L67.1271 64.7255L68.5413 63.3113ZM41.2529 36.0229L39.8387 34.6087L38.4245 36.0229L39.8387 37.4371L41.2529 36.0229ZM68.4555 8.82033L67.0413 7.40612L67.0413 7.40612L68.4555 8.82033ZM68.4555 3.17018L67.0413 4.5844L68.4555 3.17018ZM62.8054 3.17018L61.3912 1.75597V1.75597L62.8054 3.17018ZM35.6028 30.3728L34.1886 31.787L35.6028 33.2012L37.017 31.787L35.6028 30.3728ZM8.90501 3.67499L7.49079 5.0892L8.90501 3.67499ZM3.25601 3.67498L1.8418 2.26077L1.8418 2.26077L3.25601 3.67498ZM3.25601 9.32398L4.67023 7.90977L3.25601 9.32398ZM29.9538 36.0218L31.368 37.436L32.7822 36.0218L31.368 34.6075L29.9538 36.0218ZM4.5844 67.0413C3.8052 66.2621 3.8052 64.9988 4.5844 64.2196L1.75597 61.3912C-0.585323 63.7324 -0.585324 67.5284 1.75597 69.8697L4.5844 67.0413ZM7.40611 67.0413C6.62692 67.8205 5.3636 67.8205 4.5844 67.0413L1.75597 69.8697C4.09726 72.211 7.89325 72.211 10.2345 69.8697L7.40611 67.0413ZM34.1897 40.2577L7.40611 67.0413L10.2345 69.8697L37.0182 43.0861L34.1897 40.2577ZM64.3066 67.5461L37.0182 40.2577L34.1897 43.0861L61.4781 70.3745L64.3066 67.5461ZM67.1271 67.5461C66.3483 68.325 65.0854 68.325 64.3066 67.5461L61.4781 70.3745C63.8191 72.7155 67.6146 72.7155 69.9556 70.3745L67.1271 67.5461ZM67.1271 64.7255C67.906 65.5044 67.906 66.7672 67.1271 67.5461L69.9556 70.3745C72.2965 68.0335 72.2965 64.2381 69.9556 61.8971L67.1271 64.7255ZM39.8387 37.4371L67.1271 64.7255L69.9556 61.8971L42.6671 34.6087L39.8387 37.4371ZM67.0413 7.40612L39.8387 34.6087L42.6671 37.4371L69.8697 10.2345L67.0413 7.40612ZM67.0413 4.5844C67.8205 5.3636 67.8205 6.62692 67.0413 7.40612L69.8697 10.2345C72.211 7.89325 72.211 4.09726 69.8697 1.75597L67.0413 4.5844ZM64.2196 4.5844C64.9988 3.8052 66.2621 3.8052 67.0413 4.5844L69.8697 1.75597C67.5284 -0.585321 63.7325 -0.585325 61.3912 1.75597L64.2196 4.5844ZM37.017 31.787L64.2196 4.5844L61.3912 1.75597L34.1886 28.9586L37.017 31.787ZM7.49079 5.0892L34.1886 31.787L37.017 28.9586L10.3192 2.26077L7.49079 5.0892ZM4.67023 5.0892C5.4491 4.31032 6.71192 4.31032 7.49079 5.0892L10.3192 2.26077C7.97825 -0.0802038 4.18277 -0.0802059 1.8418 2.26077L4.67023 5.0892ZM4.67023 7.90977C3.89135 7.13089 3.89135 5.86808 4.67023 5.0892L1.8418 2.26077C-0.499178 4.60175 -0.499175 8.39722 1.8418 10.7382L4.67023 7.90977ZM31.368 34.6075L4.67023 7.90977L1.8418 10.7382L28.5396 37.436L31.368 34.6075ZM4.5844 64.2196L31.368 37.436L28.5396 34.6075L1.75597 61.3912L4.5844 64.2196Z" fill="white" mask="url(#path-1-outside-1)"/>
</svg>
