<svg width="315" height="184" viewBox="0 0 315 184" fill="none" xmlns="http://www.w3.org/2000/svg">
<g clip-path="url(#clip0)">
<path fill-rule="evenodd" clip-rule="evenodd" d="M180.18 169.78C227.71 155.42 257.83 136.96 298.12 107.93C303.24 104.24 308.44 100.26 311.42 94.7C314.72 88.53 314.86 81.06 313.28 74.25C310.32 61.52 301.76 50.65 291.51 42.55C281.26 34.45 269.32 28.81 257.44 23.37C239.61 15.22 221.49 7.32003 202.34 3.09003C183.19 -1.13997 162.77 -1.52997 144.33 5.16003C135.61 8.32003 127.53 12.98 119.5 17.62C110.22 22.98 100.91 28.36 92.5 34.99C85.43 40.57 79.05 46.98 72 52.59C52.87 67.77 29.26 76.63 10.56 92.33C7.38997 94.99 4.31997 97.91 2.37997 101.56C-1.58003 109.02 -0.140027 118.3 3.31997 126.01C12.23 145.85 32.39 158 52.21 166.95C62.6 171.65 73.25 175.83 84.27 178.76C128.88 190.65 156.17 177.77 175.17 172.77L180.18 169.78Z" fill="#BEE26D"/>
<path fill-rule="evenodd" clip-rule="evenodd" d="M286.73 92.4599L158.48 166.4C152.57 169.81 145.28 171.44 136.62 171.3C127.99 171.15 120.53 169.28 114.21 165.66L26.52 115.48C20.2 111.86 16.91 107.58 16.6 102.62C16.34 97.6599 19.16 93.4699 25.08 90.0599L153.31 16.1299C159.23 12.7099 166.49 11.0799 175.12 11.2299C183.78 11.3699 191.27 13.2499 197.57 16.8599L285.26 67.0499C291.58 70.6599 294.87 74.9399 295.13 79.9099C295.44 84.8599 292.64 89.0499 286.73 92.4599Z" fill="#767261"/>
<path fill-rule="evenodd" clip-rule="evenodd" d="M285.8 92.9599L158.83 166.16C152.97 169.54 145.76 171.15 137.19 171.01C128.65 170.87 121.26 169.01 115.01 165.44L28.2201 115.76C21.9701 112.19 18.7001 107.94 18.4101 103.03C18.1501 98.1199 20.9501 93.9799 26.7901 90.5999L153.76 17.3999C159.62 14.0199 166.81 12.4099 175.35 12.5499C183.92 12.6899 191.33 14.5499 197.58 18.1299L284.38 67.7999C290.63 71.3699 293.88 75.6199 294.14 80.5299C294.44 85.4399 291.66 89.5799 285.8 92.9599Z" fill="#DAD5BF"/>
<path fill-rule="evenodd" clip-rule="evenodd" d="M277.39 96.89L159.34 164.97C153.9 168.11 147.19 169.61 139.22 169.48C131.28 169.36 124.4 167.62 118.59 164.3L37.8198 118.1C32.0098 114.78 28.9598 110.83 28.6798 106.26C28.4398 101.69 31.0398 97.84 36.4798 94.7L154.53 26.62C159.97 23.49 166.67 21.98 174.61 22.11C182.58 22.24 189.47 23.97 195.29 27.3L276.05 73.49C281.87 76.82 284.89 80.76 285.14 85.34C285.43 89.89 282.84 93.75 277.39 96.89Z" fill="#807B66"/>
<path fill-rule="evenodd" clip-rule="evenodd" d="M275.82 97.6298L159.02 165.02C153.63 168.13 147 169.62 139.11 169.49C131.25 169.37 124.45 167.65 118.69 164.36L38.8 118.66C33.05 115.37 30.03 111.47 29.76 106.94C29.52 102.42 32.09 98.5998 37.48 95.4998L154.28 28.0998C159.67 24.9998 166.29 23.4998 174.15 23.6398C182.04 23.7698 188.85 25.4798 194.6 28.7698L274.5 74.4798C280.25 77.7698 283.24 81.6698 283.49 86.1898C283.77 90.6998 281.21 94.5098 275.82 97.6298Z" fill="#ADA790"/>
<path fill-rule="evenodd" clip-rule="evenodd" d="M266.29 102.56L158.84 164.52C153.89 167.38 147.78 168.75 140.52 168.63C133.29 168.51 127.04 166.94 121.75 163.92L48.2801 121.91C42.9901 118.88 40.2201 115.29 39.9701 111.14C39.7501 106.98 42.1201 103.48 47.0801 100.62L154.53 38.6599C159.49 35.8099 165.57 34.4299 172.8 34.5499C180.06 34.6699 186.32 36.2399 191.61 39.2599L265.08 81.2699C270.37 84.2899 273.13 87.8899 273.35 92.0399C273.6 96.1999 271.26 99.7099 266.29 102.56Z" fill="#807B66"/>
<path fill-rule="evenodd" clip-rule="evenodd" d="M265.94 103.32L159.37 164.74C154.45 167.57 148.4 168.92 141.21 168.81C134.04 168.69 127.83 167.13 122.59 164.13L49.7197 122.44C44.4697 119.44 41.7197 115.88 41.4797 111.75C41.2497 107.63 43.5997 104.15 48.5197 101.31L155.08 39.9001C159.99 37.0701 166.03 35.7101 173.2 35.8301C180.39 35.9501 186.62 37.51 191.86 40.51L264.73 82.2C269.97 85.2 272.71 88.76 272.93 92.89C273.19 97.01 270.85 100.49 265.94 103.32Z" fill="#928C74"/>
<path fill-rule="evenodd" clip-rule="evenodd" d="M256.52 107.3L158.35 163.91C153.82 166.52 148.25 167.77 141.62 167.67C135.02 167.56 129.29 166.12 124.46 163.35L57.3 124.92C52.47 122.15 49.93 118.87 49.71 115.07C49.51 111.27 51.66 108.06 56.2 105.45L154.36 48.8399C158.89 46.2299 164.46 44.9799 171.06 45.0899C177.69 45.1999 183.42 46.6399 188.25 49.4099L255.41 87.8399C260.25 90.6099 262.77 93.8899 262.97 97.6899C263.19 101.48 261.05 104.69 256.52 107.3Z" fill="#565241"/>
<path fill-rule="evenodd" clip-rule="evenodd" d="M255.62 108.13L158.22 164.31C153.73 166.91 148.19 168.14 141.61 168.04C135.06 167.94 129.38 166.51 124.59 163.77L57.9798 125.67C53.1798 122.92 50.6798 119.67 50.4498 115.9C50.2498 112.13 52.3898 108.95 56.8798 106.36L154.28 50.1798C158.77 47.5898 164.29 46.3498 170.85 46.4598C177.42 46.5698 183.11 47.9899 187.9 50.7399L254.51 88.8298C259.31 91.5798 261.81 94.8298 262.01 98.5998C262.25 102.36 260.12 105.54 255.62 108.13Z" fill="#A65E46"/>
<path fill-rule="evenodd" clip-rule="evenodd" d="M59.6899 117.21L171.67 52.54L255.77 100.96L143.8 165.47L59.6899 117.21Z" fill="#CCFFCC"/>
<path fill-rule="evenodd" clip-rule="evenodd" d="M69.4199 116.45L170.2 58.24L245.89 101.82L145.11 159.88L69.4199 116.45Z" fill="#00CC00"/>
<path d="M214.77 92.8301C215.48 92.5601 216.77 91.8501 217.64 91.1301C220.37 88.8601 223.63 87.3201 226.49 85.2101C226.7 85.0601 226.93 84.8601 226.92 84.6001C226.92 84.4901 226.87 84.4001 226.83 84.3001C225.77 82.0201 224.64 79.7701 223.42 77.5701C223.02 76.8401 222.53 76.0501 221.74 75.8001C220.98 75.5601 220.18 75.8801 219.45 76.2001C217.82 76.9001 216.19 77.6101 214.65 78.4901" stroke="black" stroke-miterlimit="10"/>
<path d="M187.3 76.5401C188.01 76.2701 189.3 75.5601 190.17 74.8401C192.9 72.5701 196.16 71.0301 199.02 68.9201C199.23 68.7701 199.46 68.5701 199.45 68.3101C199.45 68.2001 199.4 68.1101 199.36 68.0101C198.3 65.7301 197.17 63.4801 195.95 61.2801C195.55 60.5501 195.06 59.7601 194.27 59.5101C193.51 59.2701 192.71 59.5901 191.98 59.9101C190.35 60.6101 188.72 61.3201 187.18 62.2001" stroke="black" stroke-miterlimit="10"/>
<path d="M256.36 101.19L242.95 110.45V96.4001L158.3 46.8901V59.9901C158.3 59.9901 172.67 53.9201 172.35 52.6401C172.03 51.3601 167.24 42.4201 165.64 42.7401" stroke="black" stroke-miterlimit="10"/>
<path d="M165.51 43.1101C164.73 43.4501 163.96 43.8001 163.18 44.1401C162.72 44.3401 162.27 44.5401 161.83 44.7901C160.77 45.4001 159.79 46.3201 158.56 46.4001" stroke="black" stroke-miterlimit="10"/>
<path d="M244.29 109.21C243.74 104.86 243.89 100.46 243.56 96.0901" stroke="black" stroke-width="0.2835" stroke-miterlimit="10" stroke-linecap="round" stroke-linejoin="round"/>
<path d="M244.4 95.52C244.63 97.69 244.89 99.85 245.2 102C245.51 104.14 245.86 106.3 245.73 108.46" stroke="black" stroke-width="0.2835" stroke-miterlimit="10" stroke-linecap="round" stroke-linejoin="round"/>
<path d="M247.19 107.4C246.32 103.24 246.11 98.9401 244.92 94.8601" stroke="black" stroke-width="0.2835" stroke-miterlimit="10" stroke-linecap="round" stroke-linejoin="round"/>
<path d="M245.61 94.26C246.34 96.34 247.08 98.45 247.32 100.64C247.44 101.71 247.44 102.8 247.62 103.86C247.68 104.22 247.77 104.58 247.85 104.93C247.98 105.48 248.11 106.04 248.24 106.59" stroke="black" stroke-width="0.2835" stroke-miterlimit="10" stroke-linecap="round" stroke-linejoin="round"/>
<path d="M249.14 106.07C249.02 105.54 248.89 105 248.84 104.46C248.81 104.11 248.8 103.76 248.77 103.41C248.74 103.08 248.68 102.75 248.62 102.43C248.08 99.5401 247.41 96.6601 246.63 93.8301" stroke="black" stroke-width="0.2835" stroke-miterlimit="10" stroke-linecap="round" stroke-linejoin="round"/>
<path d="M247.39 93.21C248.1 94.93 248.63 96.72 248.97 98.55C249.06 99.02 249.13 99.48 249.27 99.94C249.47 100.61 249.81 101.23 250.02 101.89C250.36 102.95 250.38 104.11 250.84 105.12" stroke="black" stroke-width="0.2835" stroke-miterlimit="10" stroke-linecap="round" stroke-linejoin="round"/>
<path d="M255.21 101.79C255.08 101.29 254.94 100.78 254.85 100.27C254.79 99.91 254.75 99.54 254.68 99.19C254.54 98.51 254.29 97.87 254.03 97.23" stroke="black" stroke-width="0.2835" stroke-miterlimit="10" stroke-linecap="round" stroke-linejoin="round"/>
<path d="M254.62 102.29C254.4 101.13 253.63 100.13 253.34 98.99C253.25 98.63 253.21 98.27 253.15 97.9C252.97 96.83 252.65 95.78 252.32 94.74" stroke="black" stroke-width="0.2835" stroke-miterlimit="10" stroke-linecap="round" stroke-linejoin="round"/>
<path d="M250.4 92.5C250.73 93.92 251.14 95.33 251.62 96.72C251.83 97.32 252.05 97.92 252.17 98.54C252.25 98.96 252.28 99.38 252.36 99.8C252.57 100.94 253.08 101.99 253.59 103.03" stroke="black" stroke-width="0.2835" stroke-miterlimit="10" stroke-linecap="round" stroke-linejoin="round"/>
<path d="M252.71 103.56C252.8 102.92 252.33 102.36 252.08 101.77C251.84 101.21 251.78 100.59 251.62 100.01C251.51 99.63 251.37 99.26 251.22 98.89C250.4 96.8 249.74 94.64 249.09 92.49" stroke="black" stroke-width="0.2835" stroke-miterlimit="10" stroke-linecap="round" stroke-linejoin="round"/>
<path d="M248.17 92.75C248.28 93.26 248.62 93.69 248.8 94.19C248.97 94.65 248.99 95.15 249.1 95.63C249.19 95.98 249.33 96.32 249.45 96.66C249.99 98.18 250.16 99.82 250.67 101.35C250.99 102.33 251.45 103.29 251.54 104.32" stroke="black" stroke-width="0.2835" stroke-miterlimit="10" stroke-linecap="round" stroke-linejoin="round"/>
<path d="M255.71 100.65C254.83 101.38 253.87 102 252.91 102.61C250.43 104.2 247.92 105.73 245.41 107.26C244.62 107.74 243.84 108.22 243.05 108.7" stroke="black" stroke-width="0.2835" stroke-miterlimit="10" stroke-linecap="round" stroke-linejoin="round"/>
<path d="M255.34 99.75C254.18 100.37 253.19 101.25 252.07 101.94C251.62 102.22 251.15 102.47 250.68 102.72C250.39 102.88 250.09 103.03 249.8 103.19C249.49 103.36 249.17 103.52 248.86 103.68C248.49 103.86 248.12 104.04 247.75 104.22C246.17 104.98 244.62 105.79 243.1 106.65" stroke="black" stroke-width="0.2835" stroke-miterlimit="10" stroke-linecap="round" stroke-linejoin="round"/>
<path d="M254.75 98.8301C254.03 99.0801 253.44 99.6201 252.83 100.08C251.54 101.05 250.07 101.72 248.6 102.39C248.22 102.56 247.84 102.74 247.46 102.91C246.74 103.24 246.01 103.57 245.34 104.01C245.09 104.17 244.85 104.35 244.6 104.51C244.12 104.81 243.6 105.04 243.08 105.27" stroke="black" stroke-width="0.2835" stroke-miterlimit="10" stroke-linecap="round" stroke-linejoin="round"/>
<path d="M254.28 97.97C253.46 98.25 252.69 98.67 251.92 99.09C251.55 99.29 251.18 99.49 250.82 99.69C250.28 99.98 249.74 100.28 249.2 100.56C247.19 101.63 245.15 102.64 243.08 103.59" stroke="black" stroke-width="0.2835" stroke-miterlimit="10" stroke-linecap="round" stroke-linejoin="round"/>
<path d="M253.72 96.8899C251.64 97.4599 249.76 98.5799 247.89 99.6399C247.31 99.9699 246.73 100.29 246.14 100.61C245.15 101.15 244.15 101.69 243.07 102.05" stroke="black" stroke-width="0.2835" stroke-miterlimit="10" stroke-linecap="round" stroke-linejoin="round"/>
<path d="M252.94 95.6001C250.39 96.4901 247.94 97.6701 245.65 99.1201C245.41 99.2701 245.17 99.4301 244.93 99.5801C244.32 99.9701 243.69 100.32 243.04 100.66" stroke="black" stroke-width="0.2835" stroke-miterlimit="10" stroke-linecap="round" stroke-linejoin="round"/>
<path d="M252.05 94.5801C250.59 95.1001 249.27 95.9501 247.88 96.6201C246.23 97.4201 244.45 97.9901 242.9 98.9701" stroke="black" stroke-width="0.2835" stroke-miterlimit="10" stroke-linecap="round" stroke-linejoin="round"/>
<path d="M251.41 93.51C248.59 94.65 245.82 95.92 243.11 97.3" stroke="black" stroke-width="0.2835" stroke-miterlimit="10" stroke-linecap="round" stroke-linejoin="round"/>
<path d="M159.97 59.7001C159.42 55.3501 159.57 50.9501 159.24 46.5801" stroke="black" stroke-width="0.2835" stroke-miterlimit="10" stroke-linecap="round" stroke-linejoin="round"/>
<path d="M160.08 46.01C160.31 48.18 160.57 50.34 160.88 52.49C161.19 54.63 161.54 56.79 161.41 58.95" stroke="black" stroke-width="0.2835" stroke-miterlimit="10" stroke-linecap="round" stroke-linejoin="round"/>
<path d="M162.87 57.9001C162 53.7401 161.79 49.4401 160.6 45.3601" stroke="black" stroke-width="0.2835" stroke-miterlimit="10" stroke-linecap="round" stroke-linejoin="round"/>
<path d="M161.29 44.75C162.02 46.83 162.76 48.94 163 51.13C163.12 52.2 163.12 53.29 163.3 54.35C163.36 54.71 163.45 55.07 163.53 55.42C163.66 55.97 163.79 56.53 163.92 57.08" stroke="black" stroke-width="0.2835" stroke-miterlimit="10" stroke-linecap="round" stroke-linejoin="round"/>
<path d="M164.83 56.5601C164.71 56.0301 164.58 55.4901 164.53 54.9501C164.5 54.6001 164.49 54.2501 164.46 53.9001C164.43 53.5701 164.37 53.2401 164.31 52.9201C163.77 50.0301 163.1 47.1501 162.32 44.3201" stroke="black" stroke-width="0.2835" stroke-miterlimit="10" stroke-linecap="round" stroke-linejoin="round"/>
<path d="M163.07 43.71C163.78 45.43 164.31 47.22 164.65 49.05C164.74 49.52 164.81 49.98 164.95 50.44C165.15 51.11 165.49 51.73 165.7 52.39C166.04 53.45 166.06 54.61 166.52 55.62" stroke="black" stroke-width="0.2835" stroke-miterlimit="10" stroke-linecap="round" stroke-linejoin="round"/>
<path d="M170.889 52.29C170.759 51.79 170.619 51.28 170.529 50.77C170.469 50.41 170.429 50.04 170.359 49.69C170.219 49.01 169.969 48.37 169.709 47.73" stroke="black" stroke-width="0.2835" stroke-miterlimit="10" stroke-linecap="round" stroke-linejoin="round"/>
<path d="M170.3 52.79C170.08 51.63 169.31 50.63 169.02 49.49C168.93 49.13 168.89 48.77 168.83 48.4C168.65 47.33 168.33 46.28 168 45.24" stroke="black" stroke-width="0.2835" stroke-miterlimit="10" stroke-linecap="round" stroke-linejoin="round"/>
<path d="M166.08 42.99C166.41 44.41 166.82 45.82 167.3 47.21C167.51 47.81 167.73 48.41 167.85 49.03C167.93 49.45 167.96 49.87 168.04 50.29C168.25 51.43 168.76 52.48 169.27 53.52" stroke="black" stroke-width="0.2835" stroke-miterlimit="10" stroke-linecap="round" stroke-linejoin="round"/>
<path d="M168.39 54.06C168.48 53.42 168.01 52.86 167.76 52.27C167.52 51.71 167.46 51.09 167.3 50.51C167.19 50.13 167.05 49.76 166.9 49.39C166.08 47.3 165.42 45.14 164.77 42.99" stroke="black" stroke-width="0.2835" stroke-miterlimit="10" stroke-linecap="round" stroke-linejoin="round"/>
<path d="M163.85 43.24C163.96 43.75 164.3 44.18 164.48 44.68C164.65 45.14 164.67 45.64 164.78 46.12C164.87 46.47 165.01 46.81 165.13 47.15C165.67 48.67 165.84 50.31 166.35 51.84C166.67 52.82 167.13 53.78 167.22 54.81" stroke="black" stroke-width="0.2835" stroke-miterlimit="10" stroke-linecap="round" stroke-linejoin="round"/>
<path d="M171.389 51.1399C170.509 51.8699 169.549 52.4899 168.589 53.0999C166.109 54.6899 163.599 56.2199 161.089 57.7499C160.299 58.2299 159.519 58.7099 158.729 59.1899" stroke="black" stroke-width="0.2835" stroke-miterlimit="10" stroke-linecap="round" stroke-linejoin="round"/>
<path d="M171.02 50.25C169.86 50.87 168.87 51.75 167.75 52.44C167.3 52.72 166.83 52.97 166.36 53.22C166.07 53.38 165.77 53.53 165.48 53.69C165.17 53.86 164.85 54.02 164.54 54.18C164.17 54.36 163.8 54.54 163.43 54.72C161.85 55.48 160.3 56.29 158.78 57.15" stroke="black" stroke-width="0.2835" stroke-miterlimit="10" stroke-linecap="round" stroke-linejoin="round"/>
<path d="M170.43 49.3201C169.71 49.5701 169.12 50.1101 168.51 50.5701C167.22 51.5401 165.75 52.2101 164.28 52.8801C163.9 53.0501 163.52 53.2301 163.14 53.4001C162.42 53.7301 161.69 54.0601 161.02 54.5001C160.77 54.6601 160.53 54.8401 160.28 55.0001C159.8 55.3001 159.28 55.5301 158.75 55.7601" stroke="black" stroke-width="0.2835" stroke-miterlimit="10" stroke-linecap="round" stroke-linejoin="round"/>
<path d="M169.96 48.46C169.14 48.74 168.37 49.16 167.6 49.58C167.23 49.78 166.86 49.98 166.5 50.18C165.96 50.47 165.42 50.77 164.88 51.05C162.87 52.12 160.83 53.13 158.76 54.08" stroke="black" stroke-width="0.2835" stroke-miterlimit="10" stroke-linecap="round" stroke-linejoin="round"/>
<path d="M169.4 47.3799C167.32 47.9499 165.44 49.0699 163.57 50.1299C162.99 50.4599 162.41 50.7799 161.82 51.0999C160.83 51.6399 159.83 52.1799 158.75 52.5399" stroke="black" stroke-width="0.2835" stroke-miterlimit="10" stroke-linecap="round" stroke-linejoin="round"/>
<path d="M168.62 46.0901C166.07 46.9801 163.62 48.1601 161.33 49.6101C161.09 49.7601 160.85 49.9201 160.61 50.0701C160 50.4601 159.37 50.8101 158.72 51.1501" stroke="black" stroke-width="0.2835" stroke-miterlimit="10" stroke-linecap="round" stroke-linejoin="round"/>
<path d="M167.73 45.0701C166.27 45.5901 164.95 46.4401 163.56 47.1101C161.91 47.9101 160.13 48.4801 158.58 49.4601" stroke="black" stroke-width="0.2835" stroke-miterlimit="10" stroke-linecap="round" stroke-linejoin="round"/>
<path d="M167.09 44C164.27 45.14 161.5 46.41 158.79 47.79" stroke="black" stroke-width="0.2835" stroke-miterlimit="10" stroke-linecap="round" stroke-linejoin="round"/>
<path d="M166.29 44.01L249.33 91.28" stroke="black" stroke-width="0.2835" stroke-miterlimit="10"/>
<path d="M248.05 91.6001L165.01 44.3301" stroke="black" stroke-width="0.2835" stroke-miterlimit="10"/>
<path d="M164.05 44.97L247.09 92.24" stroke="black" stroke-width="0.2835" stroke-miterlimit="10"/>
<path d="M163.09 45.6101L246.14 92.8801" stroke="black" stroke-width="0.2835" stroke-miterlimit="10"/>
<path d="M161.82 46.5701L244.86 93.8401" stroke="black" stroke-width="0.2835" stroke-miterlimit="10"/>
<path d="M160.86 47.21L243.9 94.48" stroke="black" stroke-width="0.2835" stroke-miterlimit="10"/>
<path d="M249.97 91.6001C248.37 90.9601 245.5 92.5601 242.94 95.1101" stroke="black" stroke-width="0.2835" stroke-miterlimit="10"/>
<path d="M249.01 90.6502C247.41 90.0102 244.54 91.6102 241.98 94.1602" stroke="black" stroke-width="0.2835" stroke-miterlimit="10"/>
<path d="M247.41 90.0101C245.81 89.3701 242.94 90.97 240.38 93.52" stroke="black" stroke-width="0.2835" stroke-miterlimit="10"/>
<path d="M246.14 89.0501C244.54 88.4101 241.67 90.0101 239.11 92.5601" stroke="black" stroke-width="0.2835" stroke-miterlimit="10"/>
<path d="M244.86 88.4102C243.26 87.7702 240.39 89.3702 237.83 91.9202" stroke="black" stroke-width="0.2835" stroke-miterlimit="10"/>
<path d="M243.58 87.7701C241.98 87.1301 239.11 88.7301 236.55 91.2801" stroke="black" stroke-width="0.2835" stroke-miterlimit="10"/>
<path d="M241.98 86.8101C240.38 86.1701 237.51 87.7701 234.95 90.3201" stroke="black" stroke-width="0.2835" stroke-miterlimit="10"/>
<path d="M240.71 85.8602C239.11 85.2202 236.24 86.8202 233.68 89.3702" stroke="black" stroke-width="0.2835" stroke-miterlimit="10"/>
<path d="M239.11 84.9002C237.51 84.2602 234.64 85.8602 232.08 88.4102" stroke="black" stroke-width="0.2835" stroke-miterlimit="10"/>
<path d="M237.51 84.2601C235.91 83.6201 233.04 85.22 230.48 87.77" stroke="black" stroke-width="0.2835" stroke-miterlimit="10"/>
<path d="M236.23 83.3001C234.63 82.6601 231.76 84.2601 229.2 86.8101" stroke="black" stroke-width="0.2835" stroke-miterlimit="10"/>
<path d="M234.32 82.6602C232.72 82.0202 229.85 83.6202 227.29 86.1702" stroke="black" stroke-width="0.2835" stroke-miterlimit="10"/>
<path d="M233.04 81.7C231.44 81.06 228.57 82.66 226.01 85.21" stroke="black" stroke-width="0.2835" stroke-miterlimit="10"/>
<path d="M231.44 80.74C229.84 80.1 226.97 81.7 224.41 84.25" stroke="black" stroke-width="0.2835" stroke-miterlimit="10"/>
<path d="M229.85 79.7901C228.25 79.1501 225.38 80.7501 222.82 83.3001" stroke="black" stroke-width="0.2835" stroke-miterlimit="10"/>
<path d="M227.93 79.1502C226.33 78.5102 223.46 80.1102 220.9 82.6602" stroke="black" stroke-width="0.2835" stroke-miterlimit="10"/>
<path d="M226.97 78.1902C225.37 77.5502 222.5 79.1502 219.94 81.7002" stroke="black" stroke-width="0.2835" stroke-miterlimit="10"/>
<path d="M225.37 77.5501C223.77 76.9101 220.9 78.5101 218.34 81.0601" stroke="black" stroke-width="0.2835" stroke-miterlimit="10"/>
<path d="M224.1 76.5901C222.5 75.9501 219.63 77.5501 217.07 80.1001" stroke="black" stroke-width="0.2835" stroke-miterlimit="10"/>
<path d="M222.82 75.9502C221.22 75.3102 218.35 76.9102 215.79 79.4602" stroke="black" stroke-width="0.2835" stroke-miterlimit="10"/>
<path d="M221.54 75.3201C219.94 74.6801 217.07 76.2801 214.51 78.8301" stroke="black" stroke-width="0.2835" stroke-miterlimit="10"/>
<path d="M219.95 74.3602C218.35 73.7202 215.48 75.3202 212.92 77.8702" stroke="black" stroke-width="0.2835" stroke-miterlimit="10"/>
<path d="M218.67 73.4002C217.07 72.7602 214.2 74.3602 211.64 76.9102" stroke="black" stroke-width="0.2835" stroke-miterlimit="10"/>
<path d="M217.07 72.4402C215.47 71.8002 212.6 73.4002 210.04 75.9502" stroke="black" stroke-width="0.2835" stroke-miterlimit="10"/>
<path d="M215.47 71.8001C213.87 71.1601 211 72.7601 208.44 75.3101" stroke="black" stroke-width="0.2835" stroke-miterlimit="10"/>
<path d="M214.2 70.8401C212.6 70.2001 209.73 71.8001 207.17 74.3501" stroke="black" stroke-width="0.2835" stroke-miterlimit="10"/>
<path d="M212.28 70.2002C210.68 69.5602 207.81 71.1602 205.25 73.7102" stroke="black" stroke-width="0.2835" stroke-miterlimit="10"/>
<path d="M211 69.25C209.4 68.61 206.53 70.21 203.97 72.76" stroke="black" stroke-width="0.2835" stroke-miterlimit="10"/>
<path d="M209.41 68.2901C207.81 67.6501 204.94 69.2501 202.38 71.8001" stroke="black" stroke-width="0.2835" stroke-miterlimit="10"/>
<path d="M207.81 67.3301C206.21 66.6901 203.34 68.2901 200.78 70.8401" stroke="black" stroke-width="0.2835" stroke-miterlimit="10"/>
<path d="M205.89 66.3702C204.29 65.7302 201.42 67.3302 198.86 69.8802" stroke="black" stroke-width="0.2835" stroke-miterlimit="10"/>
<path d="M204.93 65.4102C203.33 64.7702 200.46 66.3702 197.9 68.9202" stroke="black" stroke-width="0.2835" stroke-miterlimit="10"/>
<path d="M203.34 64.7801C201.74 64.1401 198.87 65.7401 196.31 68.2901" stroke="black" stroke-width="0.2835" stroke-miterlimit="10"/>
<path d="M202.06 63.8201C200.46 63.1801 197.59 64.7801 195.03 67.3301" stroke="black" stroke-width="0.2835" stroke-miterlimit="10"/>
<path d="M200.78 63.18C199.18 62.54 196.31 64.14 193.75 66.69" stroke="black" stroke-width="0.2835" stroke-miterlimit="10"/>
<path d="M199.5 62.5401C197.9 61.9001 195.03 63.5001 192.47 66.0501" stroke="black" stroke-width="0.2835" stroke-miterlimit="10"/>
<path d="M197.91 61.5801C196.31 60.9401 193.44 62.5401 190.88 65.0901" stroke="black" stroke-width="0.2835" stroke-miterlimit="10"/>
<path d="M196.63 60.6202C195.03 59.9802 192.16 61.5802 189.6 64.1302" stroke="black" stroke-width="0.2835" stroke-miterlimit="10"/>
<path d="M195.03 59.6602C193.43 59.0202 190.56 60.6202 188 63.1702" stroke="black" stroke-width="0.2835" stroke-miterlimit="10"/>
<path d="M193.44 59.0301C191.84 58.3901 188.97 59.9901 186.41 62.5401" stroke="black" stroke-width="0.2835" stroke-miterlimit="10"/>
<path d="M192.16 58.0701C190.56 57.4301 187.69 59.0301 185.13 61.5801" stroke="black" stroke-width="0.2835" stroke-miterlimit="10"/>
<path d="M190.24 57.43C188.64 56.79 185.77 58.39 183.21 60.94" stroke="black" stroke-width="0.2835" stroke-miterlimit="10"/>
<path d="M188.96 56.47C187.36 55.83 184.49 57.43 181.93 59.98" stroke="black" stroke-width="0.2835" stroke-miterlimit="10"/>
<path d="M187.37 55.5101C185.77 54.8701 182.9 56.4701 180.34 59.0201" stroke="black" stroke-width="0.2835" stroke-miterlimit="10"/>
<path d="M185.77 54.5501C184.17 53.9101 181.3 55.5101 178.74 58.0601" stroke="black" stroke-width="0.2835" stroke-miterlimit="10"/>
<path d="M185.77 54.5501C184.17 53.9101 181.3 55.5101 178.74 58.0601" stroke="black" stroke-width="0.2835" stroke-miterlimit="10"/>
<path d="M184.81 53.6001C183.21 52.9601 180.34 54.5601 177.78 57.1101" stroke="black" stroke-width="0.2835" stroke-miterlimit="10"/>
<path d="M183.21 52.96C181.61 52.32 178.74 53.92 176.18 56.47" stroke="black" stroke-width="0.2835" stroke-miterlimit="10"/>
<path d="M181.94 52C180.34 51.36 177.47 52.96 174.91 55.51" stroke="black" stroke-width="0.2835" stroke-miterlimit="10"/>
<path d="M180.66 51.3602C179.06 50.7202 176.19 52.3201 173.63 54.8701" stroke="black" stroke-width="0.2835" stroke-miterlimit="10"/>
<path d="M179.38 50.72C177.78 50.08 174.91 51.68 172.35 54.23" stroke="black" stroke-width="0.2835" stroke-miterlimit="10"/>
<path d="M177.79 49.7601C176.19 49.1201 173.32 50.7201 170.76 53.2701" stroke="black" stroke-width="0.2835" stroke-miterlimit="10"/>
<path d="M176.509 48.8101C174.909 48.1701 172.039 49.7701 169.479 52.3201" stroke="black" stroke-width="0.2835" stroke-miterlimit="10"/>
<path d="M174.91 47.8501C173.31 47.2101 170.44 48.8101 167.88 51.3601" stroke="black" stroke-width="0.2835" stroke-miterlimit="10"/>
<path d="M173.31 47.21C171.71 46.57 168.84 48.17 166.28 50.72" stroke="black" stroke-width="0.2835" stroke-miterlimit="10"/>
<path d="M172.04 46.25C170.44 45.61 167.57 47.21 165.01 49.76" stroke="black" stroke-width="0.2835" stroke-miterlimit="10"/>
<path d="M170.12 45.6102C168.52 44.9702 165.65 46.5701 163.09 49.1201" stroke="black" stroke-width="0.2835" stroke-miterlimit="10"/>
<path d="M168.84 44.6499C167.24 44.0099 164.37 45.6099 161.81 48.1599" stroke="black" stroke-width="0.2835" stroke-miterlimit="10"/>
<path d="M167.25 43.7C165.65 43.06 162.78 44.66 160.22 47.21" stroke="black" stroke-width="0.2835" stroke-miterlimit="10"/>
<path d="M165.65 42.74C164.05 42.1 161.18 43.7 158.62 46.25" stroke="black" stroke-width="0.2835" stroke-miterlimit="10"/>
<path d="M60.8599 115.56C60.9699 108.76 61.9099 101.92 62.2999 95.0999" stroke="black" stroke-width="0.2835" stroke-miterlimit="10" stroke-linecap="round" stroke-linejoin="round"/>
<path d="M63.3702 94.2898C63.2602 97.6698 63.1902 101.05 63.1802 104.43C63.1702 107.78 63.2002 111.16 62.6802 114.51" stroke="black" stroke-width="0.2835" stroke-miterlimit="10" stroke-linecap="round" stroke-linejoin="round"/>
<path d="M64.5901 112.96C64.3001 106.43 64.8001 99.7298 64.1201 93.2998" stroke="black" stroke-width="0.2835" stroke-miterlimit="10" stroke-linecap="round" stroke-linejoin="round"/>
<path d="M65.02 92.3999C65.52 95.6899 66.01 99.0099 65.91 102.44C65.86 104.11 65.67 105.8 65.7 107.47C65.71 108.04 65.75 108.6 65.78 109.16C65.84 110.03 65.89 110.9 65.95 111.78" stroke="black" stroke-width="0.2835" stroke-miterlimit="10" stroke-linecap="round" stroke-linejoin="round"/>
<path d="M67.11 111.02C67.06 110.18 67.01 109.34 67.04 108.5C67.06 107.96 67.12 107.41 67.14 106.87C67.16 106.35 67.15 105.84 67.13 105.33C67 100.79 66.72 96.2798 66.29 91.8098" stroke="black" stroke-width="0.2835" stroke-miterlimit="10" stroke-linecap="round" stroke-linejoin="round"/>
<path d="M67.2998 90.8999C67.8398 93.6199 68.1498 96.4499 68.2198 99.3199C68.2398 100.05 68.2398 100.79 68.3198 101.5C68.4398 102.55 68.7298 103.54 68.8698 104.59C69.0798 106.26 68.8998 108.07 69.2698 109.68" stroke="black" stroke-width="0.2835" stroke-miterlimit="10" stroke-linecap="round" stroke-linejoin="round"/>
<path d="M74.9902 104.8C74.9202 104.01 74.8501 103.21 74.8401 102.41C74.8301 101.84 74.8502 101.28 74.8302 100.71C74.7902 99.6499 74.6002 98.6299 74.4102 97.6099" stroke="black" stroke-width="0.2835" stroke-miterlimit="10" stroke-linecap="round" stroke-linejoin="round"/>
<path d="M74.2098 105.53C74.1498 103.71 73.4198 102.11 73.2898 100.3C73.2498 99.7399 73.2598 99.1699 73.2598 98.5999C73.2398 96.9199 73.0398 95.2699 72.8398 93.6299" stroke="black" stroke-width="0.2835" stroke-miterlimit="10" stroke-linecap="round" stroke-linejoin="round"/>
<path d="M70.96 90C71.1 92.24 71.34 94.46 71.65 96.64C71.79 97.59 71.94 98.53 71.97 99.51C71.99 100.17 71.95 100.83 71.97 101.49C72.01 103.28 72.44 104.95 72.86 106.6" stroke="black" stroke-width="0.2835" stroke-miterlimit="10" stroke-linecap="round" stroke-linejoin="round"/>
<path d="M71.7399 107.38C71.9599 106.39 71.5099 105.49 71.3099 104.55C71.1199 103.67 71.1599 102.7 71.0799 101.78C71.0199 101.18 70.9099 100.59 70.8099 100.01C70.2199 96.6999 69.8199 93.2999 69.4199 89.9099" stroke="black" stroke-width="0.2835" stroke-miterlimit="10" stroke-linecap="round" stroke-linejoin="round"/>
<path d="M68.29 90.24C68.32 91.05 68.66 91.74 68.78 92.52C68.9 93.25 68.83 94.03 68.88 94.77C68.92 95.32 69.03 95.85 69.11 96.39C69.48 98.8 69.4 101.35 69.72 103.77C69.93 105.32 70.3 106.84 70.23 108.45" stroke="black" stroke-width="0.2835" stroke-miterlimit="10" stroke-linecap="round" stroke-linejoin="round"/>
<path d="M75.78 103.05C74.62 104.12 73.38 105.02 72.15 105.91C68.96 108.2 65.73 110.41 62.51 112.62C61.5 113.31 60.49 114 59.48 114.69" stroke="black" stroke-width="0.2835" stroke-miterlimit="10" stroke-linecap="round" stroke-linejoin="round"/>
<path d="M75.4999 101.63C74.0299 102.51 72.7099 103.81 71.2699 104.81C70.6899 105.22 70.0999 105.57 69.4999 105.93C69.1299 106.15 68.7599 106.37 68.3799 106.6C67.9799 106.84 67.5899 107.07 67.1899 107.3C66.7299 107.56 66.2599 107.81 65.7899 108.06C63.7999 109.13 61.8399 110.28 59.8999 111.52" stroke="black" stroke-width="0.2835" stroke-miterlimit="10" stroke-linecap="round" stroke-linejoin="round"/>
<path d="M74.9701 100.15C74.0701 100.49 73.2901 101.28 72.4901 101.96C70.8101 103.37 68.9501 104.32 67.1101 105.25C66.6301 105.49 66.1501 105.74 65.6801 105.98C64.7701 106.44 63.8601 106.91 63.0001 107.54C62.6801 107.78 62.3701 108.03 62.0501 108.26C61.4301 108.7 60.7801 109.01 60.1201 109.33" stroke="black" stroke-width="0.2835" stroke-miterlimit="10" stroke-linecap="round" stroke-linejoin="round"/>
<path d="M74.5699 98.7798C73.5499 99.1598 72.5799 99.7598 71.5999 100.35C71.1299 100.64 70.6699 100.92 70.1999 101.21C69.5199 101.63 68.8299 102.04 68.1499 102.46C65.5999 103.99 63.0199 105.41 60.4199 106.74" stroke="black" stroke-width="0.2835" stroke-miterlimit="10" stroke-linecap="round" stroke-linejoin="round"/>
<path d="M74.1002 97.0598C71.5602 97.8098 69.1502 99.4098 66.7602 100.93C66.0202 101.4 65.2802 101.86 64.5402 102.32C63.2802 103.1 62.0102 103.86 60.6802 104.34" stroke="black" stroke-width="0.2835" stroke-miterlimit="10" stroke-linecap="round" stroke-linejoin="round"/>
<path d="M73.4001 95C70.2401 96.2 67.1501 97.87 64.2101 99.96C63.9001 100.18 63.5901 100.41 63.2801 100.63C62.4901 101.19 61.6901 101.7 60.8701 102.17" stroke="black" stroke-width="0.2835" stroke-miterlimit="10" stroke-linecap="round" stroke-linejoin="round"/>
<path d="M72.54 93.3499C70.73 94.0599 69.04 95.2799 67.28 96.2399C65.2 97.3699 63.01 98.1199 61.02 99.5499" stroke="black" stroke-width="0.2835" stroke-miterlimit="10" stroke-linecap="round" stroke-linejoin="round"/>
<path d="M71.9698 91.6499C68.4598 93.2299 64.9798 94.9999 61.5498 96.9599" stroke="black" stroke-width="0.2835" stroke-miterlimit="10" stroke-linecap="round" stroke-linejoin="round"/>
<path d="M139.92 163.77C136.78 161.22 139.92 146.67 151.99 140.63" stroke="black" stroke-width="0.2835" stroke-miterlimit="10"/>
<path d="M135.9 160.75C132.76 158.2 140.93 142.64 148.98 138.62" stroke="black" stroke-width="0.2835" stroke-miterlimit="10"/>
<path d="M132.88 158.74C129.74 156.19 135.9 142.64 145.96 136.61" stroke="black" stroke-width="0.2835" stroke-miterlimit="10"/>
<path d="M129.86 157.73C126.72 155.18 132.88 141.63 142.94 134.59" stroke="black" stroke-width="0.2835" stroke-miterlimit="10"/>
<path d="M127.85 155.72C124.71 153.17 132.37 140.65 139.92 132.58" stroke="black" stroke-width="0.2835" stroke-miterlimit="10"/>
<path d="M123.82 153.71C120.68 151.16 128.34 138.64 135.89 130.57" stroke="black" stroke-width="0.2835" stroke-miterlimit="10"/>
<path d="M119.8 151.7C116.66 149.15 125.84 135.6 133.89 129.57" stroke="black" stroke-width="0.2835" stroke-miterlimit="10"/>
<path d="M115.77 149.69C112.63 147.14 119.79 134.6 129.86 126.55" stroke="black" stroke-width="0.2835" stroke-miterlimit="10"/>
<path d="M111.75 146.67C108.61 144.12 115.77 131.58 125.84 124.54" stroke="black" stroke-width="0.2835" stroke-miterlimit="10"/>
<path d="M107.73 144.66C104.59 142.11 112.76 127.56 123.83 122.53" stroke="black" stroke-width="0.2835" stroke-miterlimit="10"/>
<path d="M104.71 142.64C101.57 140.09 104.71 127.55 118.8 119.5" stroke="black" stroke-width="0.2835" stroke-miterlimit="10"/>
<path d="M61.9502 94.8498C61.9502 94.8498 68.9902 90.8298 72.0102 89.8198" stroke="black" stroke-miterlimit="10"/>
<path d="M143.44 165.28C143.44 165.28 142.43 153.21 144.45 149.18C146.47 145.15 155.52 143.14 155.52 143.14" stroke="black" stroke-miterlimit="10"/>
<path d="M70.5 94.3499L148.98 144.66" stroke="black" stroke-width="0.2835" stroke-miterlimit="10" stroke-linecap="round" stroke-linejoin="round"/>
<path d="M67.48 96.3599L145.96 146.67" stroke="black" stroke-width="0.2835" stroke-miterlimit="10" stroke-linecap="round" stroke-linejoin="round"/>
<path d="M65.4697 99.3799L143.94 149.69" stroke="black" stroke-width="0.2835" stroke-miterlimit="10" stroke-linecap="round" stroke-linejoin="round"/>
<path d="M64.46 103.41L142.94 153.71" stroke="black" stroke-width="0.2835" stroke-miterlimit="10" stroke-linecap="round" stroke-linejoin="round"/>
<path d="M63.46 107.43L141.93 157.73" stroke="black" stroke-width="0.2835" stroke-miterlimit="10" stroke-linecap="round" stroke-linejoin="round"/>
<path d="M63.46 110.45L141.93 160.75" stroke="black" stroke-width="0.2835" stroke-miterlimit="10" stroke-linecap="round" stroke-linejoin="round"/>
<path d="M62.4502 113.47L140.93 163.77" stroke="black" stroke-width="0.2835" stroke-miterlimit="10" stroke-linecap="round" stroke-linejoin="round"/>
<path d="M151.99 66.1799L234.49 110.45" stroke="#CCFFCC" stroke-miterlimit="10"/>
<path d="M134.89 77.25L217.39 121.52" stroke="#CCFFCC" stroke-miterlimit="10"/>
<path d="M120.92 86.04L203.42 130.3" stroke="#CCFFCC" stroke-miterlimit="10"/>
<path d="M105.29 94.3298L187.79 138.6" stroke="#CCFFCC" stroke-miterlimit="10"/>
<path d="M92.1299 100.89L169.6 148.18" stroke="#CCFFCC" stroke-miterlimit="10"/>
<path d="M162.56 61.6499L169.6 65.6799" stroke="#CCFFCC" stroke-miterlimit="10" stroke-linecap="round" stroke-linejoin="round"/>
<path d="M206.83 78.76L203.81 81.77" stroke="#CCFFCC" stroke-miterlimit="10" stroke-linecap="round" stroke-linejoin="round"/>
<path d="M193.75 88.59L197.77 85.8" stroke="#CCFFCC" stroke-miterlimit="10" stroke-linecap="round" stroke-linejoin="round"/>
<path d="M240.03 105.92L233.99 101.9" stroke="#CCFFCC" stroke-miterlimit="10" stroke-linecap="round" stroke-linejoin="round"/>
<path d="M81.5698 108.44L86.0898 111.96" stroke="#CCFFCC" stroke-miterlimit="10" stroke-linecap="round" stroke-linejoin="round"/>
<path d="M125.84 122.02L118.42 125.85" stroke="#CCFFCC" stroke-miterlimit="10" stroke-linecap="round" stroke-linejoin="round"/>
<path d="M102.19 137.11L107.16 132.58" stroke="#CCFFCC" stroke-miterlimit="10" stroke-linecap="round" stroke-linejoin="round"/>
<path d="M159.54 152.2L152.05 148.21" stroke="#CCFFCC" stroke-miterlimit="10" stroke-linecap="round" stroke-linejoin="round"/>
<path d="M143.44 165.28L159.54 156.23L156.52 143.15L74.02 90.8298L76.63 103.27C76.63 103.27 61.4 117.63 59.93 116.99C58.47 116.35 61.14 96.2798 61.94 94.8598" stroke="black" stroke-miterlimit="10"/>
<path d="M122.29 136.99C121.78 137.58 120.58 138.62 119.48 139.25C116.03 141.23 113.31 143.89 110.01 146.03C109.77 146.19 109.47 146.35 109.16 146.27C109.03 146.24 108.93 146.17 108.82 146.1C106.33 144.5 107.22 141.13 106.22 138.11C105.91 137.19 105.21 134.91 105.21 134.09C105.21 132.08 109.23 130.07 112.25 128.05C113.79 127.02 121.85 123.23 123.32 122.01" stroke="black" stroke-miterlimit="10"/>
<path d="M144.28 165.86C144.37 159.6 145.26 153.3 145.61 147.02" stroke="black" stroke-width="0.2835" stroke-miterlimit="10" stroke-linecap="round" stroke-linejoin="round"/>
<path d="M146.63 146.27C146.53 149.39 146.47 152.5 146.46 155.6C146.45 158.69 146.49 161.8 146 164.88" stroke="black" stroke-width="0.2835" stroke-miterlimit="10" stroke-linecap="round" stroke-linejoin="round"/>
<path d="M147.79 163.47C147.51 157.46 147.97 151.29 147.32 145.37" stroke="black" stroke-width="0.2835" stroke-miterlimit="10" stroke-linecap="round" stroke-linejoin="round"/>
<path d="M148.18 144.54C148.65 147.57 149.12 150.63 149.03 153.79C148.99 155.33 148.81 156.89 148.84 158.42C148.85 158.94 148.89 159.46 148.92 159.97C148.97 160.77 149.03 161.58 149.08 162.38" stroke="black" stroke-width="0.2835" stroke-miterlimit="10" stroke-linecap="round" stroke-linejoin="round"/>
<path d="M150.18 161.69C150.13 160.92 150.08 160.15 150.11 159.36C150.13 158.86 150.18 158.36 150.2 157.86C150.22 157.39 150.21 156.91 150.19 156.44C150.06 152.26 149.79 148.1 149.38 143.99" stroke="black" stroke-width="0.2835" stroke-miterlimit="10" stroke-linecap="round" stroke-linejoin="round"/>
<path d="M150.32 143.16C150.83 145.67 151.13 148.27 151.2 150.91C151.22 151.58 151.22 152.26 151.3 152.92C151.42 153.89 151.69 154.8 151.82 155.77C152.02 157.31 151.85 158.97 152.2 160.46" stroke="black" stroke-width="0.2835" stroke-miterlimit="10" stroke-linecap="round" stroke-linejoin="round"/>
<path d="M157.6 155.97C157.53 155.24 157.47 154.51 157.45 153.76C157.44 153.24 157.46 152.71 157.43 152.2C157.39 151.22 157.21 150.28 157.03 149.34" stroke="black" stroke-width="0.2835" stroke-miterlimit="10" stroke-linecap="round" stroke-linejoin="round"/>
<path d="M156.86 156.64C156.8 154.96 156.11 153.49 155.98 151.83C155.94 151.31 155.95 150.79 155.95 150.26C155.93 148.71 155.74 147.19 155.54 145.69" stroke="black" stroke-width="0.2835" stroke-miterlimit="10" stroke-linecap="round" stroke-linejoin="round"/>
<path d="M153.78 142.34C153.92 144.4 154.14 146.44 154.44 148.46C154.57 149.33 154.72 150.21 154.75 151.11C154.77 151.71 154.74 152.33 154.75 152.93C154.79 154.57 155.2 156.12 155.59 157.64" stroke="black" stroke-width="0.2835" stroke-miterlimit="10" stroke-linecap="round" stroke-linejoin="round"/>
<path d="M154.53 158.34C154.73 157.43 154.31 156.6 154.12 155.73C153.94 154.92 153.98 154.03 153.9 153.18C153.85 152.62 153.74 152.09 153.64 151.55C153.08 148.5 152.7 145.37 152.31 142.25" stroke="black" stroke-width="0.2835" stroke-miterlimit="10" stroke-linecap="round" stroke-linejoin="round"/>
<path d="M153.12 159.32C153.19 157.84 152.83 156.44 152.64 155.01C152.33 152.78 152.41 150.43 152.05 148.21C151.97 147.71 151.87 147.23 151.83 146.72C151.78 146.03 151.84 145.31 151.73 144.64C151.61 143.92 151.29 143.29 151.26 142.54L71.9697 91.6399" stroke="black" stroke-width="0.2835" stroke-miterlimit="10" stroke-linecap="round" stroke-linejoin="round"/>
<path d="M158.34 154.36C157.25 155.34 156.08 156.17 154.92 156.99C151.91 159.1 148.88 161.13 145.84 163.15C144.89 163.79 143.94 164.42 142.99 165.06" stroke="black" stroke-width="0.2835" stroke-miterlimit="10" stroke-linecap="round" stroke-linejoin="round"/>
<path d="M158.07 153.05C156.68 153.86 155.44 155.05 154.09 155.98C153.54 156.35 152.98 156.68 152.42 157C152.07 157.2 151.72 157.41 151.37 157.61C151 157.83 150.62 158.05 150.25 158.25C149.81 158.49 149.37 158.72 148.93 158.95C147.06 159.93 145.2 160.99 143.38 162.13" stroke="black" stroke-width="0.2835" stroke-miterlimit="10" stroke-linecap="round" stroke-linejoin="round"/>
<path d="M157.57 151.69C156.72 152 155.99 152.73 155.23 153.35C153.65 154.65 151.9 155.51 150.17 156.37C149.72 156.59 149.27 156.82 148.82 157.04C147.96 157.46 147.1 157.89 146.29 158.47C145.99 158.69 145.7 158.92 145.39 159.13C144.81 159.53 144.19 159.82 143.58 160.11" stroke="black" stroke-width="0.2835" stroke-miterlimit="10" stroke-linecap="round" stroke-linejoin="round"/>
<path d="M157.2 150.43C156.24 150.78 155.32 151.33 154.4 151.88C153.96 152.14 153.52 152.4 153.08 152.67C152.44 153.05 151.79 153.44 151.14 153.81C148.74 155.21 146.31 156.52 143.86 157.74" stroke="black" stroke-width="0.2835" stroke-miterlimit="10" stroke-linecap="round" stroke-linejoin="round"/>
<path d="M156.74 148.84C154.34 149.53 152.08 151 149.82 152.39C149.12 152.82 148.42 153.25 147.72 153.67C146.53 154.38 145.33 155.08 144.09 155.52" stroke="black" stroke-width="0.2835" stroke-miterlimit="10" stroke-linecap="round" stroke-linejoin="round"/>
<path d="M156.09 146.94C153.11 148.04 150.2 149.58 147.43 151.5C147.14 151.7 146.85 151.91 146.55 152.11C145.81 152.62 145.05 153.09 144.28 153.53" stroke="black" stroke-width="0.2835" stroke-miterlimit="10" stroke-linecap="round" stroke-linejoin="round"/>
<path d="M155.27 145.43C153.57 146.08 151.97 147.21 150.31 148.08C148.35 149.12 146.29 149.81 144.41 151.12" stroke="black" stroke-width="0.2835" stroke-miterlimit="10" stroke-linecap="round" stroke-linejoin="round"/>
<path d="M154.73 143.86C151.42 145.31 148.14 146.94 144.91 148.74" stroke="black" stroke-width="0.2835" stroke-miterlimit="10" stroke-linecap="round" stroke-linejoin="round"/>
<path d="M96.1298 120.9C95.6198 121.49 94.4198 122.53 93.3198 123.16C89.8698 125.14 87.1498 127.8 83.8498 129.94C83.6098 130.1 83.3098 130.26 82.9998 130.18C82.8698 130.15 82.7698 130.08 82.6598 130.01C80.1698 128.41 81.0598 125.04 80.0598 122.02C79.7498 121.1 79.0498 118.82 79.0498 118C79.0498 115.99 83.0698 113.98 86.0898 111.96C87.6298 110.93 95.6898 107.14 97.1598 105.92" stroke="black" stroke-miterlimit="10"/>
<path d="M97.6601 138.62C94.5201 136.07 97.6601 121.52 109.73 115.48" stroke="black" stroke-width="0.2835" stroke-miterlimit="10"/>
<path d="M101.69 140.63C98.5498 138.08 101.69 123.53 113.76 117.49" stroke="black" stroke-width="0.2835" stroke-miterlimit="10"/>
<path d="M93.6403 135.6C90.5003 133.05 98.6703 117.49 106.72 113.47" stroke="black" stroke-width="0.2835" stroke-miterlimit="10"/>
<path d="M90.6201 133.59C87.4801 131.04 93.6401 117.49 103.7 111.46" stroke="black" stroke-width="0.2835" stroke-miterlimit="10"/>
<path d="M87.6001 132.58C84.4601 130.03 90.6201 116.48 100.68 109.44" stroke="black" stroke-width="0.2835" stroke-miterlimit="10"/>
<path d="M85.5902 130.57C82.4502 128.02 90.1102 115.5 97.6602 107.43" stroke="black" stroke-width="0.2835" stroke-miterlimit="10"/>
<path d="M81.5702 128.56C78.4302 126.01 86.0902 113.49 93.6402 105.42" stroke="black" stroke-width="0.2835" stroke-miterlimit="10"/>
<path d="M77.5401 126.55C74.4001 124 83.5801 110.45 91.6301 104.42" stroke="black" stroke-width="0.2835" stroke-miterlimit="10"/>
<path d="M73.52 124.53C70.38 121.98 77.54 109.44 87.61 101.39" stroke="black" stroke-width="0.2835" stroke-miterlimit="10"/>
<path d="M69.4902 121.52C66.3502 118.97 73.5102 106.43 83.5802 99.3899" stroke="black" stroke-width="0.2835" stroke-miterlimit="10"/>
<path d="M65.4703 119.5C62.3303 116.95 70.5003 102.4 81.5703 97.3699" stroke="black" stroke-width="0.2835" stroke-miterlimit="10"/>
<path d="M62.4501 117.49C59.3101 114.94 62.4501 102.4 76.5401 94.3499" stroke="black" stroke-width="0.2835" stroke-miterlimit="10"/>
</g>
<defs>
<clipPath id="clip0">
<rect width="314.25" height="183.66" fill="white"/>
</clipPath>
</defs>
</svg>
