<svg width="316" height="184" viewBox="0 0 316 184" fill="none" xmlns="http://www.w3.org/2000/svg">
<g opacity="0.2">
<path opacity="0.2" fill-rule="evenodd" clip-rule="evenodd" d="M181.179 169.78C228.709 155.42 258.829 136.96 299.119 107.93C304.239 104.24 309.439 100.26 312.419 94.7C315.719 88.53 315.859 81.06 314.279 74.25C311.319 61.52 302.759 50.65 292.509 42.55C282.259 34.45 270.319 28.81 258.439 23.37C240.609 15.22 222.489 7.32003 203.339 3.09003C184.189 -1.13997 163.769 -1.52997 145.329 5.16003C136.609 8.32003 128.529 12.98 120.499 17.62C111.219 22.98 101.909 28.36 93.499 34.99C86.429 40.57 80.049 46.98 72.999 52.59C53.869 67.77 30.259 76.63 11.559 92.33C8.389 94.99 5.319 97.91 3.379 101.56C-0.581003 109.02 0.858997 118.3 4.319 126.01C13.229 145.85 33.389 158 53.209 166.95C63.599 171.65 74.249 175.83 85.269 178.76C129.879 190.65 157.169 177.77 176.169 172.77L181.179 169.78Z" fill="#DCE56B"/>
</g>
<path fill-rule="evenodd" clip-rule="evenodd" d="M287.729 92.4599L159.479 166.4C153.569 169.81 146.279 171.44 137.619 171.3C128.989 171.15 121.529 169.28 115.209 165.66L27.519 115.48C21.199 111.86 17.909 107.58 17.599 102.62C17.339 97.6599 20.159 93.4699 26.079 90.0599L154.309 16.1299C160.229 12.7099 167.489 11.0799 176.119 11.2299C184.779 11.3699 192.269 13.2499 198.569 16.8599L286.259 67.0499C292.579 70.6599 295.869 74.9399 296.129 79.9099C296.439 84.8599 293.639 89.0499 287.729 92.4599Z" fill="#767261"/>
<path fill-rule="evenodd" clip-rule="evenodd" d="M286.799 92.9599L159.829 166.16C153.969 169.54 146.759 171.15 138.189 171.01C129.649 170.87 122.259 169.01 116.009 165.44L29.2189 115.76C22.9689 112.19 19.6989 107.94 19.4089 103.03C19.1489 98.1199 21.9489 93.9799 27.7889 90.5999L154.759 17.3999C160.619 14.0199 167.809 12.4099 176.349 12.5499C184.919 12.6899 192.329 14.5499 198.579 18.1299L285.379 67.7999C291.629 71.3699 294.879 75.6199 295.139 80.5299C295.439 85.4399 292.659 89.5799 286.799 92.9599Z" fill="#DAD5BF"/>
<path fill-rule="evenodd" clip-rule="evenodd" d="M278.389 96.89L160.339 164.97C154.899 168.11 148.189 169.61 140.219 169.48C132.279 169.36 125.399 167.62 119.589 164.3L38.819 118.1C33.009 114.78 29.959 110.83 29.679 106.26C29.439 101.69 32.039 97.84 37.479 94.7L155.529 26.62C160.969 23.49 167.669 21.98 175.609 22.11C183.579 22.24 190.469 23.97 196.289 27.3L277.049 73.49C282.869 76.82 285.889 80.76 286.139 85.34C286.429 89.89 283.839 93.75 278.389 96.89Z" fill="#807B66"/>
<path fill-rule="evenodd" clip-rule="evenodd" d="M276.819 97.6298L160.019 165.02C154.629 168.13 147.999 169.62 140.109 169.49C132.249 169.37 125.449 167.65 119.689 164.36L39.799 118.66C34.049 115.37 31.029 111.47 30.759 106.94C30.519 102.42 33.089 98.5998 38.479 95.4998L155.279 28.0998C160.669 24.9998 167.289 23.4998 175.149 23.6398C183.039 23.7698 189.849 25.4798 195.599 28.7698L275.499 74.4798C281.249 77.7698 284.239 81.6698 284.489 86.1898C284.769 90.6998 282.209 94.5098 276.819 97.6298Z" fill="#ADA790"/>
<path fill-rule="evenodd" clip-rule="evenodd" d="M267.289 102.56L159.839 164.52C154.889 167.38 148.779 168.75 141.519 168.63C134.289 168.51 128.039 166.94 122.749 163.92L49.2791 121.91C43.9891 118.88 41.2191 115.29 40.9691 111.14C40.7491 106.98 43.1191 103.48 48.0791 100.62L155.529 38.6599C160.489 35.8099 166.569 34.4299 173.799 34.5499C181.059 34.6699 187.319 36.2399 192.609 39.2599L266.079 81.2699C271.369 84.2899 274.129 87.8899 274.349 92.0399C274.599 96.1999 272.259 99.7099 267.289 102.56Z" fill="#807B66"/>
<path fill-rule="evenodd" clip-rule="evenodd" d="M266.939 103.32L160.369 164.74C155.449 167.57 149.399 168.92 142.209 168.81C135.039 168.69 128.829 167.13 123.589 164.13L50.719 122.44C45.469 119.44 42.719 115.88 42.479 111.75C42.249 107.63 44.599 104.15 49.519 101.31L156.079 39.9001C160.989 37.0701 167.029 35.7101 174.199 35.8301C181.389 35.9501 187.619 37.51 192.859 40.51L265.729 82.2C270.969 85.2 273.709 88.76 273.929 92.89C274.189 97.01 271.849 100.49 266.939 103.32Z" fill="#928C74"/>
<path fill-rule="evenodd" clip-rule="evenodd" d="M257.519 107.3L159.349 163.91C154.819 166.52 149.249 167.77 142.619 167.67C136.019 167.56 130.289 166.12 125.459 163.35L58.2991 124.92C53.4691 122.15 50.9291 118.87 50.7091 115.07C50.5091 111.27 52.6591 108.06 57.1991 105.45L155.359 48.8399C159.889 46.2299 165.459 44.9799 172.059 45.0899C178.689 45.1999 184.419 46.6399 189.249 49.4099L256.409 87.8399C261.249 90.6099 263.769 93.8899 263.969 97.6899C264.189 101.48 262.049 104.69 257.519 107.3Z" fill="#565241"/>
<path fill-rule="evenodd" clip-rule="evenodd" d="M256.619 108.13L159.219 164.31C154.729 166.91 149.189 168.14 142.609 168.04C136.059 167.94 130.379 166.51 125.589 163.77L58.9789 125.67C54.1789 122.92 51.6789 119.67 51.4489 115.9C51.2489 112.13 53.3889 108.95 57.8789 106.36L155.279 50.1798C159.769 47.5898 165.289 46.3498 171.849 46.4598C178.419 46.5698 184.109 47.9899 188.899 50.7399L255.509 88.8298C260.309 91.5798 262.809 94.8298 263.009 98.5998C263.249 102.36 261.119 105.54 256.619 108.13Z" fill="#A65E46"/>
<path fill-rule="evenodd" clip-rule="evenodd" d="M60.689 117.21L172.669 52.54L256.769 100.96L144.799 165.47L60.689 117.21Z" fill="#CCFFCC"/>
<path fill-rule="evenodd" clip-rule="evenodd" d="M70.4189 116.45L171.199 58.24L246.889 101.82L146.109 159.88L70.4189 116.45Z" fill="#00CC00"/>
<path d="M215.769 92.8301C216.479 92.5601 217.769 91.8501 218.639 91.1301C221.369 88.8601 224.629 87.3201 227.489 85.2101C227.699 85.0601 227.929 84.8601 227.919 84.6001C227.919 84.4901 227.869 84.4001 227.829 84.3001C226.769 82.0201 225.639 79.7701 224.419 77.5701C224.019 76.8401 223.529 76.0501 222.739 75.8001C221.979 75.5601 221.179 75.8801 220.449 76.2001C218.819 76.9001 217.189 77.6101 215.649 78.4901" stroke="black" stroke-miterlimit="10"/>
<path d="M188.299 76.5401C189.009 76.2701 190.299 75.5601 191.169 74.8401C193.899 72.5701 197.159 71.0301 200.019 68.9201C200.229 68.7701 200.459 68.5701 200.449 68.3101C200.449 68.2001 200.399 68.1101 200.359 68.0101C199.299 65.7301 198.169 63.4801 196.949 61.2801C196.549 60.5501 196.059 59.7601 195.269 59.5101C194.509 59.2701 193.709 59.5901 192.979 59.9101C191.349 60.6101 189.719 61.3201 188.179 62.2001" stroke="black" stroke-miterlimit="10"/>
<path d="M257.359 101.19L243.949 110.45V96.4001L159.299 46.8901V59.9901C159.299 59.9901 173.669 53.9201 173.349 52.6401C173.029 51.3601 168.239 42.4201 166.639 42.7401" stroke="black" stroke-miterlimit="10"/>
<path d="M166.509 43.1101C165.729 43.4501 164.959 43.8001 164.179 44.1401C163.719 44.3401 163.269 44.5401 162.829 44.7901C161.769 45.4001 160.789 46.3201 159.559 46.4001" stroke="black" stroke-miterlimit="10"/>
<path d="M245.289 109.21C244.739 104.86 244.889 100.46 244.559 96.0901" stroke="black" stroke-width="0.2835" stroke-miterlimit="10" stroke-linecap="round" stroke-linejoin="round"/>
<path d="M245.399 95.52C245.629 97.69 245.889 99.85 246.199 102C246.509 104.14 246.859 106.3 246.729 108.46" stroke="black" stroke-width="0.2835" stroke-miterlimit="10" stroke-linecap="round" stroke-linejoin="round"/>
<path d="M248.189 107.4C247.319 103.24 247.109 98.9401 245.919 94.8601" stroke="black" stroke-width="0.2835" stroke-miterlimit="10" stroke-linecap="round" stroke-linejoin="round"/>
<path d="M246.609 94.26C247.339 96.34 248.079 98.45 248.319 100.64C248.439 101.71 248.439 102.8 248.619 103.86C248.679 104.22 248.769 104.58 248.849 104.93C248.979 105.48 249.109 106.04 249.239 106.59" stroke="black" stroke-width="0.2835" stroke-miterlimit="10" stroke-linecap="round" stroke-linejoin="round"/>
<path d="M250.139 106.07C250.019 105.54 249.889 105 249.839 104.46C249.809 104.11 249.799 103.76 249.769 103.41C249.739 103.08 249.679 102.75 249.619 102.43C249.079 99.5401 248.409 96.6601 247.629 93.8301" stroke="black" stroke-width="0.2835" stroke-miterlimit="10" stroke-linecap="round" stroke-linejoin="round"/>
<path d="M248.389 93.21C249.099 94.93 249.629 96.72 249.969 98.55C250.059 99.02 250.129 99.48 250.269 99.94C250.469 100.61 250.809 101.23 251.019 101.89C251.359 102.95 251.379 104.11 251.839 105.12" stroke="black" stroke-width="0.2835" stroke-miterlimit="10" stroke-linecap="round" stroke-linejoin="round"/>
<path d="M256.209 101.79C256.079 101.29 255.939 100.78 255.849 100.27C255.789 99.91 255.749 99.54 255.679 99.19C255.539 98.51 255.289 97.87 255.029 97.23" stroke="black" stroke-width="0.2835" stroke-miterlimit="10" stroke-linecap="round" stroke-linejoin="round"/>
<path d="M255.619 102.29C255.399 101.13 254.629 100.13 254.339 98.99C254.249 98.63 254.209 98.27 254.149 97.9C253.969 96.83 253.649 95.78 253.319 94.74" stroke="black" stroke-width="0.2835" stroke-miterlimit="10" stroke-linecap="round" stroke-linejoin="round"/>
<path d="M251.399 92.5C251.729 93.92 252.139 95.33 252.619 96.72C252.829 97.32 253.049 97.92 253.169 98.54C253.249 98.96 253.279 99.38 253.359 99.8C253.569 100.94 254.079 101.99 254.589 103.03" stroke="black" stroke-width="0.2835" stroke-miterlimit="10" stroke-linecap="round" stroke-linejoin="round"/>
<path d="M253.709 103.56C253.799 102.92 253.329 102.36 253.079 101.77C252.839 101.21 252.779 100.59 252.619 100.01C252.509 99.63 252.369 99.26 252.219 98.89C251.399 96.8 250.739 94.64 250.089 92.49" stroke="black" stroke-width="0.2835" stroke-miterlimit="10" stroke-linecap="round" stroke-linejoin="round"/>
<path d="M249.169 92.75C249.279 93.26 249.619 93.69 249.799 94.19C249.969 94.65 249.989 95.15 250.099 95.63C250.189 95.98 250.329 96.32 250.449 96.66C250.989 98.18 251.159 99.82 251.669 101.35C251.989 102.33 252.449 103.29 252.539 104.32" stroke="black" stroke-width="0.2835" stroke-miterlimit="10" stroke-linecap="round" stroke-linejoin="round"/>
<path d="M256.709 100.65C255.829 101.38 254.869 102 253.909 102.61C251.429 104.2 248.919 105.73 246.409 107.26C245.619 107.74 244.839 108.22 244.049 108.7" stroke="black" stroke-width="0.2835" stroke-miterlimit="10" stroke-linecap="round" stroke-linejoin="round"/>
<path d="M256.339 99.75C255.179 100.37 254.189 101.25 253.069 101.94C252.619 102.22 252.149 102.47 251.679 102.72C251.389 102.88 251.089 103.03 250.799 103.19C250.489 103.36 250.169 103.52 249.859 103.68C249.489 103.86 249.119 104.04 248.749 104.22C247.169 104.98 245.619 105.79 244.099 106.65" stroke="black" stroke-width="0.2835" stroke-miterlimit="10" stroke-linecap="round" stroke-linejoin="round"/>
<path d="M255.749 98.8301C255.029 99.0801 254.439 99.6201 253.829 100.08C252.539 101.05 251.069 101.72 249.599 102.39C249.219 102.56 248.839 102.74 248.459 102.91C247.739 103.24 247.009 103.57 246.339 104.01C246.089 104.17 245.849 104.35 245.599 104.51C245.119 104.81 244.599 105.04 244.079 105.27" stroke="black" stroke-width="0.2835" stroke-miterlimit="10" stroke-linecap="round" stroke-linejoin="round"/>
<path d="M255.279 97.97C254.459 98.25 253.689 98.67 252.919 99.09C252.549 99.29 252.179 99.49 251.819 99.69C251.279 99.98 250.739 100.28 250.199 100.56C248.189 101.63 246.149 102.64 244.079 103.59" stroke="black" stroke-width="0.2835" stroke-miterlimit="10" stroke-linecap="round" stroke-linejoin="round"/>
<path d="M254.719 96.8899C252.639 97.4599 250.759 98.5799 248.889 99.6399C248.309 99.9699 247.729 100.29 247.139 100.61C246.149 101.15 245.149 101.69 244.069 102.05" stroke="black" stroke-width="0.2835" stroke-miterlimit="10" stroke-linecap="round" stroke-linejoin="round"/>
<path d="M253.939 95.6001C251.389 96.4901 248.939 97.6701 246.649 99.1201C246.409 99.2701 246.169 99.4301 245.929 99.5801C245.319 99.9701 244.689 100.32 244.039 100.66" stroke="black" stroke-width="0.2835" stroke-miterlimit="10" stroke-linecap="round" stroke-linejoin="round"/>
<path d="M253.049 94.5801C251.589 95.1001 250.269 95.9501 248.879 96.6201C247.229 97.4201 245.449 97.9901 243.899 98.9701" stroke="black" stroke-width="0.2835" stroke-miterlimit="10" stroke-linecap="round" stroke-linejoin="round"/>
<path d="M252.409 93.51C249.589 94.65 246.819 95.92 244.109 97.3" stroke="black" stroke-width="0.2835" stroke-miterlimit="10" stroke-linecap="round" stroke-linejoin="round"/>
<path d="M160.969 59.7001C160.419 55.3501 160.569 50.9501 160.239 46.5801" stroke="black" stroke-width="0.2835" stroke-miterlimit="10" stroke-linecap="round" stroke-linejoin="round"/>
<path d="M161.079 46.01C161.309 48.18 161.569 50.34 161.879 52.49C162.189 54.63 162.539 56.79 162.409 58.95" stroke="black" stroke-width="0.2835" stroke-miterlimit="10" stroke-linecap="round" stroke-linejoin="round"/>
<path d="M163.869 57.9001C162.999 53.7401 162.789 49.4401 161.599 45.3601" stroke="black" stroke-width="0.2835" stroke-miterlimit="10" stroke-linecap="round" stroke-linejoin="round"/>
<path d="M162.289 44.75C163.019 46.83 163.759 48.94 163.999 51.13C164.119 52.2 164.119 53.29 164.299 54.35C164.359 54.71 164.449 55.07 164.529 55.42C164.659 55.97 164.789 56.53 164.919 57.08" stroke="black" stroke-width="0.2835" stroke-miterlimit="10" stroke-linecap="round" stroke-linejoin="round"/>
<path d="M165.829 56.5601C165.709 56.0301 165.579 55.4901 165.529 54.9501C165.499 54.6001 165.489 54.2501 165.459 53.9001C165.429 53.5701 165.369 53.2401 165.309 52.9201C164.769 50.0301 164.099 47.1501 163.319 44.3201" stroke="black" stroke-width="0.2835" stroke-miterlimit="10" stroke-linecap="round" stroke-linejoin="round"/>
<path d="M164.069 43.71C164.779 45.43 165.309 47.22 165.649 49.05C165.739 49.52 165.809 49.98 165.949 50.44C166.149 51.11 166.489 51.73 166.699 52.39C167.039 53.45 167.059 54.61 167.519 55.62" stroke="black" stroke-width="0.2835" stroke-miterlimit="10" stroke-linecap="round" stroke-linejoin="round"/>
<path d="M171.889 52.29C171.759 51.79 171.619 51.28 171.529 50.77C171.469 50.41 171.429 50.04 171.359 49.69C171.219 49.01 170.969 48.37 170.709 47.73" stroke="black" stroke-width="0.2835" stroke-miterlimit="10" stroke-linecap="round" stroke-linejoin="round"/>
<path d="M171.299 52.79C171.079 51.63 170.309 50.63 170.019 49.49C169.929 49.13 169.889 48.77 169.829 48.4C169.649 47.33 169.329 46.28 168.999 45.24" stroke="black" stroke-width="0.2835" stroke-miterlimit="10" stroke-linecap="round" stroke-linejoin="round"/>
<path d="M167.079 42.99C167.409 44.41 167.819 45.82 168.299 47.21C168.509 47.81 168.729 48.41 168.849 49.03C168.929 49.45 168.959 49.87 169.039 50.29C169.249 51.43 169.759 52.48 170.269 53.52" stroke="black" stroke-width="0.2835" stroke-miterlimit="10" stroke-linecap="round" stroke-linejoin="round"/>
<path d="M169.389 54.06C169.479 53.42 169.009 52.86 168.759 52.27C168.519 51.71 168.459 51.09 168.299 50.51C168.189 50.13 168.049 49.76 167.899 49.39C167.079 47.3 166.419 45.14 165.769 42.99" stroke="black" stroke-width="0.2835" stroke-miterlimit="10" stroke-linecap="round" stroke-linejoin="round"/>
<path d="M164.849 43.24C164.959 43.75 165.299 44.18 165.479 44.68C165.649 45.14 165.669 45.64 165.779 46.12C165.869 46.47 166.009 46.81 166.129 47.15C166.669 48.67 166.839 50.31 167.349 51.84C167.669 52.82 168.129 53.78 168.219 54.81" stroke="black" stroke-width="0.2835" stroke-miterlimit="10" stroke-linecap="round" stroke-linejoin="round"/>
<path d="M172.389 51.1399C171.509 51.8699 170.549 52.4899 169.589 53.0999C167.109 54.6899 164.599 56.2199 162.089 57.7499C161.299 58.2299 160.519 58.7099 159.729 59.1899" stroke="black" stroke-width="0.2835" stroke-miterlimit="10" stroke-linecap="round" stroke-linejoin="round"/>
<path d="M172.019 50.25C170.859 50.87 169.869 51.75 168.749 52.44C168.299 52.72 167.829 52.97 167.359 53.22C167.069 53.38 166.769 53.53 166.479 53.69C166.169 53.86 165.849 54.02 165.539 54.18C165.169 54.36 164.799 54.54 164.429 54.72C162.849 55.48 161.299 56.29 159.779 57.15" stroke="black" stroke-width="0.2835" stroke-miterlimit="10" stroke-linecap="round" stroke-linejoin="round"/>
<path d="M171.429 49.3201C170.709 49.5701 170.119 50.1101 169.509 50.5701C168.219 51.5401 166.749 52.2101 165.279 52.8801C164.899 53.0501 164.519 53.2301 164.139 53.4001C163.419 53.7301 162.689 54.0601 162.019 54.5001C161.769 54.6601 161.529 54.8401 161.279 55.0001C160.799 55.3001 160.279 55.5301 159.749 55.7601" stroke="black" stroke-width="0.2835" stroke-miterlimit="10" stroke-linecap="round" stroke-linejoin="round"/>
<path d="M170.959 48.46C170.139 48.74 169.369 49.16 168.599 49.58C168.229 49.78 167.859 49.98 167.499 50.18C166.959 50.47 166.419 50.77 165.879 51.05C163.869 52.12 161.829 53.13 159.759 54.08" stroke="black" stroke-width="0.2835" stroke-miterlimit="10" stroke-linecap="round" stroke-linejoin="round"/>
<path d="M170.399 47.3799C168.319 47.9499 166.439 49.0699 164.569 50.1299C163.989 50.4599 163.409 50.7799 162.819 51.0999C161.829 51.6399 160.829 52.1799 159.749 52.5399" stroke="black" stroke-width="0.2835" stroke-miterlimit="10" stroke-linecap="round" stroke-linejoin="round"/>
<path d="M169.619 46.0901C167.069 46.9801 164.619 48.1601 162.329 49.6101C162.089 49.7601 161.849 49.9201 161.609 50.0701C160.999 50.4601 160.369 50.8101 159.719 51.1501" stroke="black" stroke-width="0.2835" stroke-miterlimit="10" stroke-linecap="round" stroke-linejoin="round"/>
<path d="M168.729 45.0701C167.269 45.5901 165.949 46.4401 164.559 47.1101C162.909 47.9101 161.129 48.4801 159.579 49.4601" stroke="black" stroke-width="0.2835" stroke-miterlimit="10" stroke-linecap="round" stroke-linejoin="round"/>
<path d="M168.089 44C165.269 45.14 162.499 46.41 159.789 47.79" stroke="black" stroke-width="0.2835" stroke-miterlimit="10" stroke-linecap="round" stroke-linejoin="round"/>
<path d="M167.289 44.01L250.329 91.28" stroke="black" stroke-width="0.2835" stroke-miterlimit="10"/>
<path d="M249.049 91.6001L166.009 44.3301" stroke="black" stroke-width="0.2835" stroke-miterlimit="10"/>
<path d="M165.049 44.97L248.089 92.24" stroke="black" stroke-width="0.2835" stroke-miterlimit="10"/>
<path d="M164.089 45.6101L247.139 92.8801" stroke="black" stroke-width="0.2835" stroke-miterlimit="10"/>
<path d="M162.819 46.5701L245.859 93.8401" stroke="black" stroke-width="0.2835" stroke-miterlimit="10"/>
<path d="M161.859 47.21L244.899 94.48" stroke="black" stroke-width="0.2835" stroke-miterlimit="10"/>
<path d="M250.969 91.6001C249.369 90.9601 246.499 92.5601 243.939 95.1101" stroke="black" stroke-width="0.2835" stroke-miterlimit="10"/>
<path d="M250.009 90.6502C248.409 90.0102 245.539 91.6102 242.979 94.1602" stroke="black" stroke-width="0.2835" stroke-miterlimit="10"/>
<path d="M248.409 90.0101C246.809 89.3701 243.939 90.97 241.379 93.52" stroke="black" stroke-width="0.2835" stroke-miterlimit="10"/>
<path d="M247.139 89.0501C245.539 88.4101 242.669 90.0101 240.109 92.5601" stroke="black" stroke-width="0.2835" stroke-miterlimit="10"/>
<path d="M245.859 88.4102C244.259 87.7702 241.389 89.3702 238.829 91.9202" stroke="black" stroke-width="0.2835" stroke-miterlimit="10"/>
<path d="M244.579 87.7701C242.979 87.1301 240.109 88.7301 237.549 91.2801" stroke="black" stroke-width="0.2835" stroke-miterlimit="10"/>
<path d="M242.979 86.8101C241.379 86.1701 238.509 87.7701 235.949 90.3201" stroke="black" stroke-width="0.2835" stroke-miterlimit="10"/>
<path d="M241.709 85.8602C240.109 85.2202 237.239 86.8202 234.679 89.3702" stroke="black" stroke-width="0.2835" stroke-miterlimit="10"/>
<path d="M240.109 84.9002C238.509 84.2602 235.639 85.8602 233.079 88.4102" stroke="black" stroke-width="0.2835" stroke-miterlimit="10"/>
<path d="M238.509 84.2601C236.909 83.6201 234.039 85.22 231.479 87.77" stroke="black" stroke-width="0.2835" stroke-miterlimit="10"/>
<path d="M237.229 83.3001C235.629 82.6601 232.759 84.2601 230.199 86.8101" stroke="black" stroke-width="0.2835" stroke-miterlimit="10"/>
<path d="M235.319 82.6602C233.719 82.0202 230.849 83.6202 228.289 86.1702" stroke="black" stroke-width="0.2835" stroke-miterlimit="10"/>
<path d="M234.039 81.7C232.439 81.06 229.569 82.66 227.009 85.21" stroke="black" stroke-width="0.2835" stroke-miterlimit="10"/>
<path d="M232.439 80.74C230.839 80.1 227.969 81.7 225.409 84.25" stroke="black" stroke-width="0.2835" stroke-miterlimit="10"/>
<path d="M230.849 79.7901C229.249 79.1501 226.379 80.7501 223.819 83.3001" stroke="black" stroke-width="0.2835" stroke-miterlimit="10"/>
<path d="M228.929 79.1502C227.329 78.5102 224.459 80.1102 221.899 82.6602" stroke="black" stroke-width="0.2835" stroke-miterlimit="10"/>
<path d="M227.969 78.1902C226.369 77.5502 223.499 79.1502 220.939 81.7002" stroke="black" stroke-width="0.2835" stroke-miterlimit="10"/>
<path d="M226.369 77.5501C224.769 76.9101 221.899 78.5101 219.339 81.0601" stroke="black" stroke-width="0.2835" stroke-miterlimit="10"/>
<path d="M225.099 76.5901C223.499 75.9501 220.629 77.5501 218.069 80.1001" stroke="black" stroke-width="0.2835" stroke-miterlimit="10"/>
<path d="M223.819 75.9502C222.219 75.3102 219.349 76.9102 216.789 79.4602" stroke="black" stroke-width="0.2835" stroke-miterlimit="10"/>
<path d="M222.539 75.3201C220.939 74.6801 218.069 76.2801 215.509 78.8301" stroke="black" stroke-width="0.2835" stroke-miterlimit="10"/>
<path d="M220.949 74.3602C219.349 73.7202 216.479 75.3202 213.919 77.8702" stroke="black" stroke-width="0.2835" stroke-miterlimit="10"/>
<path d="M219.669 73.4002C218.069 72.7602 215.199 74.3602 212.639 76.9102" stroke="black" stroke-width="0.2835" stroke-miterlimit="10"/>
<path d="M218.069 72.4402C216.469 71.8002 213.599 73.4002 211.039 75.9502" stroke="black" stroke-width="0.2835" stroke-miterlimit="10"/>
<path d="M216.469 71.8001C214.869 71.1601 211.999 72.7601 209.439 75.3101" stroke="black" stroke-width="0.2835" stroke-miterlimit="10"/>
<path d="M215.199 70.8401C213.599 70.2001 210.729 71.8001 208.169 74.3501" stroke="black" stroke-width="0.2835" stroke-miterlimit="10"/>
<path d="M213.279 70.2002C211.679 69.5602 208.809 71.1602 206.249 73.7102" stroke="black" stroke-width="0.2835" stroke-miterlimit="10"/>
<path d="M211.999 69.25C210.399 68.61 207.529 70.21 204.969 72.76" stroke="black" stroke-width="0.2835" stroke-miterlimit="10"/>
<path d="M210.409 68.2901C208.809 67.6501 205.939 69.2501 203.379 71.8001" stroke="black" stroke-width="0.2835" stroke-miterlimit="10"/>
<path d="M208.809 67.3301C207.209 66.6901 204.339 68.2901 201.779 70.8401" stroke="black" stroke-width="0.2835" stroke-miterlimit="10"/>
<path d="M206.889 66.3702C205.289 65.7302 202.419 67.3302 199.859 69.8802" stroke="black" stroke-width="0.2835" stroke-miterlimit="10"/>
<path d="M205.929 65.4102C204.329 64.7702 201.459 66.3702 198.899 68.9202" stroke="black" stroke-width="0.2835" stroke-miterlimit="10"/>
<path d="M204.339 64.7801C202.739 64.1401 199.869 65.7401 197.309 68.2901" stroke="black" stroke-width="0.2835" stroke-miterlimit="10"/>
<path d="M203.059 63.8201C201.459 63.1801 198.589 64.7801 196.029 67.3301" stroke="black" stroke-width="0.2835" stroke-miterlimit="10"/>
<path d="M201.779 63.18C200.179 62.54 197.309 64.14 194.749 66.69" stroke="black" stroke-width="0.2835" stroke-miterlimit="10"/>
<path d="M200.499 62.5401C198.899 61.9001 196.029 63.5001 193.469 66.0501" stroke="black" stroke-width="0.2835" stroke-miterlimit="10"/>
<path d="M198.909 61.5801C197.309 60.9401 194.439 62.5401 191.879 65.0901" stroke="black" stroke-width="0.2835" stroke-miterlimit="10"/>
<path d="M197.629 60.6202C196.029 59.9802 193.159 61.5802 190.599 64.1302" stroke="black" stroke-width="0.2835" stroke-miterlimit="10"/>
<path d="M196.029 59.6602C194.429 59.0202 191.559 60.6202 188.999 63.1702" stroke="black" stroke-width="0.2835" stroke-miterlimit="10"/>
<path d="M194.439 59.0301C192.839 58.3901 189.969 59.9901 187.409 62.5401" stroke="black" stroke-width="0.2835" stroke-miterlimit="10"/>
<path d="M193.159 58.0701C191.559 57.4301 188.689 59.0301 186.129 61.5801" stroke="black" stroke-width="0.2835" stroke-miterlimit="10"/>
<path d="M191.239 57.43C189.639 56.79 186.769 58.39 184.209 60.94" stroke="black" stroke-width="0.2835" stroke-miterlimit="10"/>
<path d="M189.959 56.47C188.359 55.83 185.489 57.43 182.929 59.98" stroke="black" stroke-width="0.2835" stroke-miterlimit="10"/>
<path d="M188.369 55.5101C186.769 54.8701 183.899 56.4701 181.339 59.0201" stroke="black" stroke-width="0.2835" stroke-miterlimit="10"/>
<path d="M186.769 54.5501C185.169 53.9101 182.299 55.5101 179.739 58.0601" stroke="black" stroke-width="0.2835" stroke-miterlimit="10"/>
<path d="M186.769 54.5501C185.169 53.9101 182.299 55.5101 179.739 58.0601" stroke="black" stroke-width="0.2835" stroke-miterlimit="10"/>
<path d="M185.809 53.6001C184.209 52.9601 181.339 54.5601 178.779 57.1101" stroke="black" stroke-width="0.2835" stroke-miterlimit="10"/>
<path d="M184.209 52.96C182.609 52.32 179.739 53.92 177.179 56.47" stroke="black" stroke-width="0.2835" stroke-miterlimit="10"/>
<path d="M182.939 52C181.339 51.36 178.469 52.96 175.909 55.51" stroke="black" stroke-width="0.2835" stroke-miterlimit="10"/>
<path d="M181.659 51.3602C180.059 50.7202 177.189 52.3201 174.629 54.8701" stroke="black" stroke-width="0.2835" stroke-miterlimit="10"/>
<path d="M180.379 50.72C178.779 50.08 175.909 51.68 173.349 54.23" stroke="black" stroke-width="0.2835" stroke-miterlimit="10"/>
<path d="M178.789 49.7601C177.189 49.1201 174.319 50.7201 171.759 53.2701" stroke="black" stroke-width="0.2835" stroke-miterlimit="10"/>
<path d="M177.509 48.8101C175.909 48.1701 173.039 49.7701 170.479 52.3201" stroke="black" stroke-width="0.2835" stroke-miterlimit="10"/>
<path d="M175.909 47.8501C174.309 47.2101 171.439 48.8101 168.879 51.3601" stroke="black" stroke-width="0.2835" stroke-miterlimit="10"/>
<path d="M174.309 47.21C172.709 46.57 169.839 48.17 167.279 50.72" stroke="black" stroke-width="0.2835" stroke-miterlimit="10"/>
<path d="M173.039 46.25C171.439 45.61 168.569 47.21 166.009 49.76" stroke="black" stroke-width="0.2835" stroke-miterlimit="10"/>
<path d="M171.119 45.6102C169.519 44.9702 166.649 46.5701 164.089 49.1201" stroke="black" stroke-width="0.2835" stroke-miterlimit="10"/>
<path d="M169.839 44.6499C168.239 44.0099 165.369 45.6099 162.809 48.1599" stroke="black" stroke-width="0.2835" stroke-miterlimit="10"/>
<path d="M168.249 43.7C166.649 43.06 163.779 44.66 161.219 47.21" stroke="black" stroke-width="0.2835" stroke-miterlimit="10"/>
<path d="M166.649 42.74C165.049 42.1 162.179 43.7 159.619 46.25" stroke="black" stroke-width="0.2835" stroke-miterlimit="10"/>
<path d="M61.8589 115.56C61.9689 108.76 62.9089 101.92 63.2989 95.0999" stroke="black" stroke-width="0.2835" stroke-miterlimit="10" stroke-linecap="round" stroke-linejoin="round"/>
<path d="M64.369 94.2898C64.259 97.6698 64.189 101.05 64.179 104.43C64.169 107.78 64.199 111.16 63.679 114.51" stroke="black" stroke-width="0.2835" stroke-miterlimit="10" stroke-linecap="round" stroke-linejoin="round"/>
<path d="M65.5889 112.96C65.2989 106.43 65.7989 99.7298 65.1189 93.2998" stroke="black" stroke-width="0.2835" stroke-miterlimit="10" stroke-linecap="round" stroke-linejoin="round"/>
<path d="M66.019 92.3999C66.519 95.6899 67.009 99.0099 66.909 102.44C66.859 104.11 66.669 105.8 66.699 107.47C66.709 108.04 66.749 108.6 66.779 109.16C66.839 110.03 66.889 110.9 66.949 111.78" stroke="black" stroke-width="0.2835" stroke-miterlimit="10" stroke-linecap="round" stroke-linejoin="round"/>
<path d="M68.1091 111.02C68.0591 110.18 68.0091 109.34 68.0391 108.5C68.0591 107.96 68.1191 107.41 68.1391 106.87C68.1591 106.35 68.1491 105.84 68.1291 105.33C67.9991 100.79 67.7191 96.2798 67.2891 91.8098" stroke="black" stroke-width="0.2835" stroke-miterlimit="10" stroke-linecap="round" stroke-linejoin="round"/>
<path d="M68.2991 90.8999C68.8391 93.6199 69.1491 96.4499 69.2191 99.3199C69.2391 100.05 69.2391 100.79 69.3191 101.5C69.4391 102.55 69.7291 103.54 69.8691 104.59C70.0791 106.26 69.8991 108.07 70.2691 109.68" stroke="black" stroke-width="0.2835" stroke-miterlimit="10" stroke-linecap="round" stroke-linejoin="round"/>
<path d="M75.9889 104.8C75.9189 104.01 75.8489 103.21 75.8389 102.41C75.8289 101.84 75.8489 101.28 75.8289 100.71C75.7889 99.6499 75.5989 98.6299 75.4089 97.6099" stroke="black" stroke-width="0.2835" stroke-miterlimit="10" stroke-linecap="round" stroke-linejoin="round"/>
<path d="M75.2091 105.53C75.1491 103.71 74.4191 102.11 74.2891 100.3C74.2491 99.7399 74.2591 99.1699 74.2591 98.5999C74.2391 96.9199 74.0391 95.2699 73.8391 93.6299" stroke="black" stroke-width="0.2835" stroke-miterlimit="10" stroke-linecap="round" stroke-linejoin="round"/>
<path d="M71.959 90C72.099 92.24 72.339 94.46 72.649 96.64C72.789 97.59 72.939 98.53 72.969 99.51C72.989 100.17 72.949 100.83 72.969 101.49C73.009 103.28 73.439 104.95 73.859 106.6" stroke="black" stroke-width="0.2835" stroke-miterlimit="10" stroke-linecap="round" stroke-linejoin="round"/>
<path d="M72.7389 107.38C72.9589 106.39 72.5089 105.49 72.3089 104.55C72.1189 103.67 72.1589 102.7 72.0789 101.78C72.0189 101.18 71.9089 100.59 71.8089 100.01C71.2189 96.6999 70.8189 93.2999 70.4189 89.9099" stroke="black" stroke-width="0.2835" stroke-miterlimit="10" stroke-linecap="round" stroke-linejoin="round"/>
<path d="M69.2891 90.24C69.3191 91.05 69.6591 91.74 69.7791 92.52C69.8991 93.25 69.8291 94.03 69.8791 94.77C69.9191 95.32 70.0291 95.85 70.1091 96.39C70.4791 98.8 70.3991 101.35 70.7191 103.77C70.9291 105.32 71.2991 106.84 71.2291 108.45" stroke="black" stroke-width="0.2835" stroke-miterlimit="10" stroke-linecap="round" stroke-linejoin="round"/>
<path d="M76.779 103.05C75.619 104.12 74.379 105.02 73.149 105.91C69.959 108.2 66.729 110.41 63.509 112.62C62.499 113.31 61.489 114 60.479 114.69" stroke="black" stroke-width="0.2835" stroke-miterlimit="10" stroke-linecap="round" stroke-linejoin="round"/>
<path d="M76.4989 101.63C75.0289 102.51 73.7089 103.81 72.2689 104.81C71.6889 105.22 71.0989 105.57 70.4989 105.93C70.1289 106.15 69.7589 106.37 69.3789 106.6C68.9789 106.84 68.5889 107.07 68.1889 107.3C67.7289 107.56 67.2589 107.81 66.7889 108.06C64.7989 109.13 62.8389 110.28 60.8989 111.52" stroke="black" stroke-width="0.2835" stroke-miterlimit="10" stroke-linecap="round" stroke-linejoin="round"/>
<path d="M75.9689 100.15C75.0689 100.49 74.2889 101.28 73.4889 101.96C71.8089 103.37 69.9489 104.32 68.1089 105.25C67.6289 105.49 67.1489 105.74 66.6789 105.98C65.7689 106.44 64.8589 106.91 63.9989 107.54C63.6789 107.78 63.3689 108.03 63.0489 108.26C62.4289 108.7 61.7789 109.01 61.1189 109.33" stroke="black" stroke-width="0.2835" stroke-miterlimit="10" stroke-linecap="round" stroke-linejoin="round"/>
<path d="M75.5689 98.7798C74.5489 99.1598 73.5789 99.7598 72.5989 100.35C72.1289 100.64 71.6689 100.92 71.1989 101.21C70.5189 101.63 69.8289 102.04 69.1489 102.46C66.5989 103.99 64.0189 105.41 61.4189 106.74" stroke="black" stroke-width="0.2835" stroke-miterlimit="10" stroke-linecap="round" stroke-linejoin="round"/>
<path d="M75.099 97.0598C72.559 97.8098 70.149 99.4098 67.759 100.93C67.019 101.4 66.279 101.86 65.539 102.32C64.279 103.1 63.009 103.86 61.679 104.34" stroke="black" stroke-width="0.2835" stroke-miterlimit="10" stroke-linecap="round" stroke-linejoin="round"/>
<path d="M74.3989 95C71.2389 96.2 68.1489 97.87 65.2089 99.96C64.8989 100.18 64.5889 100.41 64.2789 100.63C63.4889 101.19 62.6889 101.7 61.8689 102.17" stroke="black" stroke-width="0.2835" stroke-miterlimit="10" stroke-linecap="round" stroke-linejoin="round"/>
<path d="M73.539 93.3499C71.729 94.0599 70.039 95.2799 68.279 96.2399C66.199 97.3699 64.009 98.1199 62.019 99.5499" stroke="black" stroke-width="0.2835" stroke-miterlimit="10" stroke-linecap="round" stroke-linejoin="round"/>
<path d="M72.9691 91.6499C69.4591 93.2299 65.9791 94.9999 62.5491 96.9599" stroke="black" stroke-width="0.2835" stroke-miterlimit="10" stroke-linecap="round" stroke-linejoin="round"/>
<path d="M140.919 163.77C137.779 161.22 140.919 146.67 152.989 140.63" stroke="black" stroke-width="0.2835" stroke-miterlimit="10"/>
<path d="M136.899 160.75C133.759 158.2 141.929 142.64 149.979 138.62" stroke="black" stroke-width="0.2835" stroke-miterlimit="10"/>
<path d="M133.879 158.74C130.739 156.19 136.899 142.64 146.959 136.61" stroke="black" stroke-width="0.2835" stroke-miterlimit="10"/>
<path d="M130.859 157.73C127.719 155.18 133.879 141.63 143.939 134.59" stroke="black" stroke-width="0.2835" stroke-miterlimit="10"/>
<path d="M128.849 155.72C125.709 153.17 133.369 140.65 140.919 132.58" stroke="black" stroke-width="0.2835" stroke-miterlimit="10"/>
<path d="M124.819 153.71C121.679 151.16 129.339 138.64 136.889 130.57" stroke="black" stroke-width="0.2835" stroke-miterlimit="10"/>
<path d="M120.799 151.7C117.659 149.15 126.839 135.6 134.889 129.57" stroke="black" stroke-width="0.2835" stroke-miterlimit="10"/>
<path d="M116.769 149.69C113.629 147.14 120.789 134.6 130.859 126.55" stroke="black" stroke-width="0.2835" stroke-miterlimit="10"/>
<path d="M112.749 146.67C109.609 144.12 116.769 131.58 126.839 124.54" stroke="black" stroke-width="0.2835" stroke-miterlimit="10"/>
<path d="M108.729 144.66C105.589 142.11 113.759 127.56 124.829 122.53" stroke="black" stroke-width="0.2835" stroke-miterlimit="10"/>
<path d="M105.709 142.64C102.569 140.09 105.709 127.55 119.799 119.5" stroke="black" stroke-width="0.2835" stroke-miterlimit="10"/>
<path d="M62.949 94.8498C62.949 94.8498 69.989 90.8298 73.009 89.8198" stroke="black" stroke-miterlimit="10"/>
<path d="M144.439 165.28C144.439 165.28 143.429 153.21 145.449 149.18C147.469 145.15 156.519 143.14 156.519 143.14" stroke="black" stroke-miterlimit="10"/>
<path d="M71.499 94.3499L149.979 144.66" stroke="black" stroke-width="0.2835" stroke-miterlimit="10" stroke-linecap="round" stroke-linejoin="round"/>
<path d="M68.479 96.3599L146.959 146.67" stroke="black" stroke-width="0.2835" stroke-miterlimit="10" stroke-linecap="round" stroke-linejoin="round"/>
<path d="M66.469 99.3799L144.939 149.69" stroke="black" stroke-width="0.2835" stroke-miterlimit="10" stroke-linecap="round" stroke-linejoin="round"/>
<path d="M65.459 103.41L143.939 153.71" stroke="black" stroke-width="0.2835" stroke-miterlimit="10" stroke-linecap="round" stroke-linejoin="round"/>
<path d="M64.459 107.43L142.929 157.73" stroke="black" stroke-width="0.2835" stroke-miterlimit="10" stroke-linecap="round" stroke-linejoin="round"/>
<path d="M64.459 110.45L142.929 160.75" stroke="black" stroke-width="0.2835" stroke-miterlimit="10" stroke-linecap="round" stroke-linejoin="round"/>
<path d="M63.449 113.47L141.929 163.77" stroke="black" stroke-width="0.2835" stroke-miterlimit="10" stroke-linecap="round" stroke-linejoin="round"/>
<path d="M152.989 66.1799L235.489 110.45" stroke="#CCFFCC" stroke-miterlimit="10"/>
<path d="M135.889 77.25L218.389 121.52" stroke="#CCFFCC" stroke-miterlimit="10"/>
<path d="M121.919 86.04L204.419 130.3" stroke="#CCFFCC" stroke-miterlimit="10"/>
<path d="M106.289 94.3298L188.789 138.6" stroke="#CCFFCC" stroke-miterlimit="10"/>
<path d="M93.1289 100.89L170.599 148.18" stroke="#CCFFCC" stroke-miterlimit="10"/>
<path d="M163.559 61.6499L170.599 65.6799" stroke="#CCFFCC" stroke-miterlimit="10" stroke-linecap="round" stroke-linejoin="round"/>
<path d="M207.829 78.76L204.809 81.77" stroke="#CCFFCC" stroke-miterlimit="10" stroke-linecap="round" stroke-linejoin="round"/>
<path d="M194.749 88.59L198.769 85.8" stroke="#CCFFCC" stroke-miterlimit="10" stroke-linecap="round" stroke-linejoin="round"/>
<path d="M241.029 105.92L234.989 101.9" stroke="#CCFFCC" stroke-miterlimit="10" stroke-linecap="round" stroke-linejoin="round"/>
<path d="M82.5691 108.44L87.0891 111.96" stroke="#CCFFCC" stroke-miterlimit="10" stroke-linecap="round" stroke-linejoin="round"/>
<path d="M126.839 122.02L119.419 125.85" stroke="#CCFFCC" stroke-miterlimit="10" stroke-linecap="round" stroke-linejoin="round"/>
<path d="M103.189 137.11L108.159 132.58" stroke="#CCFFCC" stroke-miterlimit="10" stroke-linecap="round" stroke-linejoin="round"/>
<path d="M160.539 152.2L153.049 148.21" stroke="#CCFFCC" stroke-miterlimit="10" stroke-linecap="round" stroke-linejoin="round"/>
<path d="M144.439 165.28L160.539 156.23L157.519 143.15L75.019 90.8298L77.629 103.27C77.629 103.27 62.399 117.63 60.929 116.99C59.469 116.35 62.139 96.2798 62.939 94.8598" stroke="black" stroke-miterlimit="10"/>
<path d="M123.289 136.99C122.779 137.58 121.579 138.62 120.479 139.25C117.029 141.23 114.309 143.89 111.009 146.03C110.769 146.19 110.469 146.35 110.159 146.27C110.029 146.24 109.929 146.17 109.819 146.1C107.329 144.5 108.219 141.13 107.219 138.11C106.909 137.19 106.209 134.91 106.209 134.09C106.209 132.08 110.229 130.07 113.249 128.05C114.789 127.02 122.849 123.23 124.319 122.01" stroke="black" stroke-miterlimit="10"/>
<path d="M145.279 165.86C145.369 159.6 146.259 153.3 146.609 147.02" stroke="black" stroke-width="0.2835" stroke-miterlimit="10" stroke-linecap="round" stroke-linejoin="round"/>
<path d="M147.629 146.27C147.529 149.39 147.469 152.5 147.459 155.6C147.449 158.69 147.489 161.8 146.999 164.88" stroke="black" stroke-width="0.2835" stroke-miterlimit="10" stroke-linecap="round" stroke-linejoin="round"/>
<path d="M148.789 163.47C148.509 157.46 148.969 151.29 148.319 145.37" stroke="black" stroke-width="0.2835" stroke-miterlimit="10" stroke-linecap="round" stroke-linejoin="round"/>
<path d="M149.179 144.54C149.649 147.57 150.119 150.63 150.029 153.79C149.989 155.33 149.809 156.89 149.839 158.42C149.849 158.94 149.889 159.46 149.919 159.97C149.969 160.77 150.029 161.58 150.079 162.38" stroke="black" stroke-width="0.2835" stroke-miterlimit="10" stroke-linecap="round" stroke-linejoin="round"/>
<path d="M151.179 161.69C151.129 160.92 151.079 160.15 151.109 159.36C151.129 158.86 151.179 158.36 151.199 157.86C151.219 157.39 151.209 156.91 151.189 156.44C151.059 152.26 150.789 148.1 150.379 143.99" stroke="black" stroke-width="0.2835" stroke-miterlimit="10" stroke-linecap="round" stroke-linejoin="round"/>
<path d="M151.319 143.16C151.829 145.67 152.129 148.27 152.199 150.91C152.219 151.58 152.219 152.26 152.299 152.92C152.419 153.89 152.689 154.8 152.819 155.77C153.019 157.31 152.849 158.97 153.199 160.46" stroke="black" stroke-width="0.2835" stroke-miterlimit="10" stroke-linecap="round" stroke-linejoin="round"/>
<path d="M158.599 155.97C158.529 155.24 158.469 154.51 158.449 153.76C158.439 153.24 158.459 152.71 158.429 152.2C158.389 151.22 158.209 150.28 158.029 149.34" stroke="black" stroke-width="0.2835" stroke-miterlimit="10" stroke-linecap="round" stroke-linejoin="round"/>
<path d="M157.859 156.64C157.799 154.96 157.109 153.49 156.979 151.83C156.939 151.31 156.949 150.79 156.949 150.26C156.929 148.71 156.739 147.19 156.539 145.69" stroke="black" stroke-width="0.2835" stroke-miterlimit="10" stroke-linecap="round" stroke-linejoin="round"/>
<path d="M154.779 142.34C154.919 144.4 155.139 146.44 155.439 148.46C155.569 149.33 155.719 150.21 155.749 151.11C155.769 151.71 155.739 152.33 155.749 152.93C155.789 154.57 156.199 156.12 156.589 157.64" stroke="black" stroke-width="0.2835" stroke-miterlimit="10" stroke-linecap="round" stroke-linejoin="round"/>
<path d="M155.529 158.34C155.729 157.43 155.309 156.6 155.119 155.73C154.939 154.92 154.979 154.03 154.899 153.18C154.849 152.62 154.739 152.09 154.639 151.55C154.079 148.5 153.699 145.37 153.309 142.25" stroke="black" stroke-width="0.2835" stroke-miterlimit="10" stroke-linecap="round" stroke-linejoin="round"/>
<path d="M154.119 159.32C154.189 157.84 153.829 156.44 153.639 155.01C153.329 152.78 153.409 150.43 153.049 148.21C152.969 147.71 152.869 147.23 152.829 146.72C152.779 146.03 152.839 145.31 152.729 144.64C152.609 143.92 152.289 143.29 152.259 142.54L72.969 91.6399" stroke="black" stroke-width="0.2835" stroke-miterlimit="10" stroke-linecap="round" stroke-linejoin="round"/>
<path d="M159.339 154.36C158.249 155.34 157.079 156.17 155.919 156.99C152.909 159.1 149.879 161.13 146.839 163.15C145.889 163.79 144.939 164.42 143.989 165.06" stroke="black" stroke-width="0.2835" stroke-miterlimit="10" stroke-linecap="round" stroke-linejoin="round"/>
<path d="M159.069 153.05C157.679 153.86 156.439 155.05 155.089 155.98C154.539 156.35 153.979 156.68 153.419 157C153.069 157.2 152.719 157.41 152.369 157.61C151.999 157.83 151.619 158.05 151.239 158.25C150.799 158.49 150.359 158.72 149.919 158.95C148.049 159.93 146.189 160.99 144.369 162.13" stroke="black" stroke-width="0.2835" stroke-miterlimit="10" stroke-linecap="round" stroke-linejoin="round"/>
<path d="M158.569 151.69C157.719 152 156.989 152.73 156.229 153.35C154.649 154.65 152.899 155.51 151.169 156.37C150.719 156.59 150.269 156.82 149.819 157.04C148.959 157.46 148.099 157.89 147.289 158.47C146.989 158.69 146.699 158.92 146.389 159.13C145.809 159.53 145.189 159.82 144.579 160.11" stroke="black" stroke-width="0.2835" stroke-miterlimit="10" stroke-linecap="round" stroke-linejoin="round"/>
<path d="M158.199 150.43C157.239 150.78 156.319 151.33 155.399 151.88C154.959 152.14 154.519 152.4 154.079 152.67C153.439 153.05 152.789 153.44 152.139 153.81C149.739 155.21 147.309 156.52 144.859 157.74" stroke="black" stroke-width="0.2835" stroke-miterlimit="10" stroke-linecap="round" stroke-linejoin="round"/>
<path d="M157.739 148.84C155.339 149.53 153.079 151 150.819 152.39C150.119 152.82 149.419 153.25 148.719 153.67C147.529 154.38 146.329 155.08 145.089 155.52" stroke="black" stroke-width="0.2835" stroke-miterlimit="10" stroke-linecap="round" stroke-linejoin="round"/>
<path d="M157.089 146.94C154.109 148.04 151.199 149.58 148.429 151.5C148.139 151.7 147.849 151.91 147.549 152.11C146.809 152.62 146.049 153.09 145.279 153.53" stroke="black" stroke-width="0.2835" stroke-miterlimit="10" stroke-linecap="round" stroke-linejoin="round"/>
<path d="M156.269 145.43C154.569 146.08 152.969 147.21 151.309 148.08C149.349 149.12 147.289 149.81 145.409 151.12" stroke="black" stroke-width="0.2835" stroke-miterlimit="10" stroke-linecap="round" stroke-linejoin="round"/>
<path d="M155.729 143.86C152.419 145.31 149.139 146.94 145.909 148.74" stroke="black" stroke-width="0.2835" stroke-miterlimit="10" stroke-linecap="round" stroke-linejoin="round"/>
<path d="M97.1291 120.9C96.6191 121.49 95.4191 122.53 94.3191 123.16C90.8691 125.14 88.1491 127.8 84.8491 129.94C84.6091 130.1 84.3091 130.26 83.9991 130.18C83.8691 130.15 83.7691 130.08 83.6591 130.01C81.1691 128.41 82.0591 125.04 81.0591 122.02C80.7491 121.1 80.0491 118.82 80.0491 118C80.0491 115.99 84.0691 113.98 87.0891 111.96C88.6291 110.93 96.6891 107.14 98.1591 105.92" stroke="black" stroke-miterlimit="10"/>
<path d="M98.6591 138.62C95.5191 136.07 98.6591 121.52 110.729 115.48" stroke="black" stroke-width="0.2835" stroke-miterlimit="10"/>
<path d="M102.689 140.63C99.5491 138.08 102.689 123.53 114.759 117.49" stroke="black" stroke-width="0.2835" stroke-miterlimit="10"/>
<path d="M94.6391 135.6C91.4991 133.05 99.6691 117.49 107.719 113.47" stroke="black" stroke-width="0.2835" stroke-miterlimit="10"/>
<path d="M91.6191 133.59C88.4791 131.04 94.6391 117.49 104.699 111.46" stroke="black" stroke-width="0.2835" stroke-miterlimit="10"/>
<path d="M88.5991 132.58C85.4591 130.03 91.6191 116.48 101.679 109.44" stroke="black" stroke-width="0.2835" stroke-miterlimit="10"/>
<path d="M86.589 130.57C83.449 128.02 91.109 115.5 98.659 107.43" stroke="black" stroke-width="0.2835" stroke-miterlimit="10"/>
<path d="M82.569 128.56C79.429 126.01 87.089 113.49 94.639 105.42" stroke="black" stroke-width="0.2835" stroke-miterlimit="10"/>
<path d="M78.5392 126.55C75.3992 124 84.5792 110.45 92.6292 104.42" stroke="black" stroke-width="0.2835" stroke-miterlimit="10"/>
<path d="M74.519 124.53C71.379 121.98 78.539 109.44 88.609 101.39" stroke="black" stroke-width="0.2835" stroke-miterlimit="10"/>
<path d="M70.4892 121.52C67.3492 118.97 74.5092 106.43 84.5792 99.3899" stroke="black" stroke-width="0.2835" stroke-miterlimit="10"/>
<path d="M66.469 119.5C63.329 116.95 71.499 102.4 82.569 97.3699" stroke="black" stroke-width="0.2835" stroke-miterlimit="10"/>
<path d="M63.4491 117.49C60.3091 114.94 63.4491 102.4 77.5391 94.3499" stroke="black" stroke-width="0.2835" stroke-miterlimit="10"/>
</svg>
