<svg width="1367" height="772" viewBox="0 0 1367 772" fill="none" xmlns="http://www.w3.org/2000/svg">
<g clip-path="url(#clip0)">
<path d="M1366 0H0V768H1366V0Z" fill="white"/>
<g opacity="0.8">
<path opacity="0.8" d="M1069.24 704.804L1004.08 626.991L938.925 704.804L959.237 605.428L857.678 603.087L948.159 556.981L886.676 476.246L979.195 518.127L1004.08 419.796L1028.97 518.127L1121.48 476.246L1060 556.981L1150.48 603.087L1048.92 605.432L1069.24 704.804Z" fill="#85C3F8"/>
<path d="M776.43 365.219L711.275 287.406L646.12 365.219L666.432 265.843L564.872 263.502L655.353 217.396L593.871 136.661L686.389 178.542L711.275 80.2106L736.161 178.542L828.679 136.661L767.197 217.396L857.678 263.502L756.118 265.847L776.43 365.219Z" fill="#85C3F8"/>
<path d="M623.475 371L518 245.41L412.525 371L445.407 210.608L281 206.83L427.473 132.415L327.944 2.11085L477.714 69.7059L518 -89L558.286 69.7059L708.056 2.11085L608.527 132.415L755 206.83L590.593 210.615L623.475 371Z" fill="#9EC9EC"/>
<path d="M266.7 492L-7 279.863L-280.7 492L-195.375 221.077L-622 214.695L-241.913 88.9983L-500.184 -131.102L-111.539 -16.925L-7 -285L97.5392 -16.925L486.184 -131.102L227.913 88.9983L608 214.695L181.375 221.089L266.7 492Z" fill="#4898DB"/>
<path d="M1216.66 720L1013.5 477.284L810.339 720L873.674 410.025L557 402.723L839.13 258.908L647.421 7.08162L935.903 137.716L1013.5 -169L1091.1 137.716L1379.58 7.08162L1187.87 258.908L1470 402.723L1153.33 410.038L1216.66 720Z" fill="#064981" fill-opacity="0.89"/>
<path d="M1374.47 437L1269 311.41L1163.53 437L1196.41 276.608L1032 272.83L1178.47 198.415L1078.94 68.1108L1228.71 135.706L1269 -23L1309.29 135.706L1459.06 68.1108L1359.53 198.415L1506 272.83L1341.59 276.615L1374.47 437Z" fill="#9EC9EC"/>
<path d="M1456.36 854.41L1303.8 671.92L1151.24 854.41L1198.8 621.35L961 615.86L1172.86 507.73L1028.9 318.39L1245.53 416.61L1303.8 186L1362.07 416.61L1578.7 318.39L1434.74 507.73L1646.6 615.86L1408.8 621.36L1456.36 854.41Z" fill="#5588A9"/>
<path d="M535.921 545.41L363.133 362.92L190.344 545.41L244.21 312.35L-25.1216 306.86L214.83 198.73L51.7817 9.39L297.136 107.61L363.133 -123L429.129 107.61L674.483 9.39L511.435 198.73L751.387 306.86L482.055 312.36L535.921 545.41Z" fill="#B6E7FF"/>
<path d="M32.36 513.41L-120.2 330.92L-272.76 513.41L-225.2 280.35L-463 274.86L-251.14 166.73L-395.1 -22.61L-178.47 75.61L-120.2 -155L-61.93 75.61L154.7 -22.61L10.74 166.73L222.6 274.86L-15.2 280.36L32.36 513.41Z" fill="#5588A9"/>
<path opacity="0.8" d="M473.973 639.833L428.865 586.144L383.758 639.833L397.82 571.266L327.51 569.651L390.15 537.839L347.586 482.135L411.637 511.031L428.865 443.185L446.094 511.031L510.145 482.135L467.58 537.839L530.221 569.651L459.911 571.269L473.973 639.833Z" fill="#9EC9EC"/>
<path opacity="0.8" d="M139.585 719.531L94.4779 665.842L49.3705 719.531L63.4325 650.965L-6.87781 649.349L55.7629 617.537L13.1982 561.833L77.2492 590.73L94.4779 522.884L111.707 590.73L175.758 561.833L133.193 617.537L195.834 649.349L125.523 650.968L139.585 719.531Z" fill="#9EC9EC"/>
<g opacity="0.8">
<path opacity="0.8" d="M528.672 470.04L463.517 392.227L398.362 470.04L418.673 370.664L317.114 368.323L407.595 322.217L346.113 241.482L438.631 283.363L463.517 185.031L488.403 283.363L580.921 241.482L519.438 322.217L609.919 368.323L508.36 370.668L528.672 470.04Z" fill="#85C3F8"/>
</g>
<path d="M434.987 993L196 707.147L-42.9869 993L31.5164 627.934L-341 619.334L-9.11896 449.959L-234.634 153.376L104.719 307.228L196 -54L287.281 307.228L626.634 153.376L401.119 449.959L733 619.334L360.484 627.95L434.987 993Z" fill="#064981"/>
<path d="M1092.7 959L819 746.863L545.3 959L630.625 688.077L204 681.695L584.087 555.998L325.816 335.898L714.461 450.075L819 182L923.539 450.075L1312.18 335.898L1053.91 555.998L1434 681.695L1007.38 688.089L1092.7 959Z" fill="#4898DB"/>
<path d="M651.913 921L532.453 795.41L412.993 921L450.234 760.608L264.028 756.83L429.922 682.415L317.196 552.111L486.825 619.706L532.453 461L578.081 619.706L747.71 552.111L634.984 682.415L800.878 756.83L614.672 760.615L651.913 921Z" fill="#9EC9EC"/>
<path d="M1361.92 1012.41L1189.13 829.92L1016.34 1012.41L1070.21 779.35L800.878 773.86L1040.83 665.73L877.782 476.39L1123.14 574.61L1189.13 344L1255.13 574.61L1500.48 476.39L1337.43 665.73L1577.39 773.86L1308.06 779.36L1361.92 1012.41Z" fill="#B6E7FF"/>
</g>
<g filter="url(#filter0_d)">
<path d="M634.34 348.373C653.394 348.373 668.84 341.209 668.84 332.373C668.84 323.536 653.394 316.373 634.34 316.373C615.286 316.373 599.84 323.536 599.84 332.373C599.84 341.209 615.286 348.373 634.34 348.373Z" fill="white"/>
<path d="M523.34 363.373C532.453 363.373 539.84 350.613 539.84 334.873C539.84 319.133 532.453 306.373 523.34 306.373C514.227 306.373 506.84 319.133 506.84 334.873C506.84 350.613 514.227 363.373 523.34 363.373Z" fill="white"/>
<path d="M393.84 426.373C401.02 426.373 406.84 420.553 406.84 413.373C406.84 406.193 401.02 400.373 393.84 400.373C386.66 400.373 380.84 406.193 380.84 413.373C380.84 420.553 386.66 426.373 393.84 426.373Z" fill="black"/>
<path d="M393.84 437.713C380.42 437.713 369.5 426.793 369.5 413.373C369.5 399.953 380.42 389.033 393.84 389.033C407.26 389.033 418.18 399.953 418.18 413.373C418.18 426.793 407.26 437.713 393.84 437.713ZM393.84 411.713C392.92 411.713 392.18 412.463 392.18 413.373C392.18 414.283 392.93 415.033 393.84 415.033C394.75 415.033 395.5 414.283 395.5 413.373C395.5 412.463 394.76 411.713 393.84 411.713Z" fill="white"/>
<path d="M638.84 426.373C646.02 426.373 651.84 420.553 651.84 413.373C651.84 406.193 646.02 400.373 638.84 400.373C631.66 400.373 625.84 406.193 625.84 413.373C625.84 420.553 631.66 426.373 638.84 426.373Z" fill="black"/>
<path d="M638.84 437.713C625.42 437.713 614.5 426.793 614.5 413.373C614.5 399.953 625.42 389.033 638.84 389.033C652.26 389.033 663.18 399.953 663.18 413.373C663.18 426.793 652.26 437.713 638.84 437.713ZM638.84 411.713C637.92 411.713 637.18 412.463 637.18 413.373C637.18 414.283 637.93 415.033 638.84 415.033C639.75 415.033 640.5 414.283 640.5 413.373C640.5 412.463 639.76 411.713 638.84 411.713Z" fill="white"/>
<path d="M307.84 289.013H330.17V343.523H307.84V289.013Z" fill="black"/>
<path d="M330.18 363.363H307.84C296.88 363.363 288 354.483 288 343.523V289.013C288 278.053 296.88 269.173 307.84 269.173H330.17C341.13 269.173 350.01 278.053 350.01 289.013V343.523C350.02 354.483 341.14 363.363 330.18 363.363Z" fill="white"/>
<path d="M423.16 326.253C423.16 317.433 421.15 310.853 417.12 306.523C413.09 302.193 406.75 300.033 398.09 300.033H378.98V322.203H399.08V342.223H356.4V280.013H398.26C414.47 280.013 426.44 283.793 434.16 291.343C441.88 298.903 445.74 310.643 445.74 326.583V333.363C445.74 366.233 428.84 382.663 395.03 382.663H357.31V362.643H394.54C413.62 362.643 423.16 352.823 423.16 333.193V326.253Z" fill="black"/>
<path d="M395.03 402.513H357.31C346.35 402.513 337.47 393.633 337.47 382.673V362.653C337.47 359.223 338.34 356.003 339.87 353.193C337.78 350.053 336.56 346.273 336.56 342.223V280.013C336.56 269.053 345.44 260.173 356.4 260.173H398.26C419.77 260.173 436.52 265.893 448.04 277.163C459.68 288.563 465.59 305.183 465.59 326.583V333.363C465.58 377.303 439.87 402.513 395.03 402.513Z" fill="white"/>
<path d="M526.16 282.513C540.22 282.513 550.45 286.633 556.85 294.883C563.25 303.123 566.45 315.993 566.45 333.473V385.673H513.09V365.653H543.95V335.213C543.95 323.573 542.56 315.233 539.77 310.193C536.98 305.143 532.09 302.623 525.09 302.623C518.58 302.623 513.14 305.863 508.75 312.343C504.37 318.823 500.27 329.843 496.47 345.393L486.46 385.683H462.64L473.81 342.833C476.57 332.463 479.16 324.333 481.59 318.433L461.07 284.183H485.8L493.58 298.743C496.89 293.673 501.42 289.703 507.19 286.833C512.94 283.943 519.27 282.513 526.16 282.513Z" fill="black"/>
<path d="M566.45 405.513H513.09C507.96 405.513 503.29 403.573 499.77 400.383C496.21 403.603 491.51 405.513 486.45 405.513H462.63C456.48 405.513 450.69 402.663 446.93 397.803C443.17 392.943 441.88 386.613 443.43 380.663L454.6 337.813C456.36 331.193 458.04 325.463 459.69 320.493L444.04 294.363C440.37 288.233 440.28 280.603 443.8 274.383C447.32 268.163 453.92 264.323 461.06 264.323H485.79C490.53 264.323 495.02 266.013 498.53 268.953C506.99 264.783 516.28 262.673 526.16 262.673C551.62 262.673 565.43 273.573 572.53 282.713C581.79 294.653 586.29 311.253 586.29 333.463V385.663C586.29 396.623 577.41 405.513 566.45 405.513ZM516.83 345.803H524.1V335.203C524.1 331.323 523.92 328.333 523.68 326.063C522.07 329.273 519.63 335.223 516.83 345.803Z" fill="white"/>
<path d="M581.02 287.013H603.35V341.523H581.02V287.013Z" fill="black"/>
<path d="M603.35 361.363H581.02C570.06 361.363 561.18 352.483 561.18 341.523V287.013C561.18 276.053 570.06 267.173 581.02 267.173H603.35C614.31 267.173 623.19 276.053 623.19 287.013V341.523C623.2 352.483 614.31 361.363 603.35 361.363Z" fill="white"/>
<path d="M624.43 363.743C640.88 360.823 654.07 355.743 664 348.503C673.93 341.263 679.61 332.573 681.03 322.413C682.4 312.693 676.99 306.973 664.81 305.263L623.2 299.413L630.87 244.853L653.48 248.033L648.6 282.763L671.29 285.953C695.87 289.403 706.65 301.863 703.63 323.323C701.25 340.253 692.79 354.293 678.25 365.453C663.71 376.603 644.66 383.953 621.1 387.493L624.43 363.743Z" fill="black"/>
<path d="M621.09 407.343C615.9 407.343 610.87 405.303 607.13 401.593C602.68 397.183 600.57 390.933 601.44 384.733L604.78 360.973C605.97 352.473 612.5 345.703 620.96 344.193C634.34 341.813 644.88 337.873 652.31 332.453C656.28 329.563 658.49 326.883 659.76 324.573L620.44 319.043C615.23 318.313 610.52 315.543 607.36 311.333C604.19 307.133 602.82 301.843 603.56 296.633L611.23 242.073C611.96 236.863 614.73 232.153 618.94 228.993C623.14 225.823 628.43 224.463 633.64 225.193L656.25 228.373C667.1 229.903 674.66 239.933 673.14 250.783L671 265.873L674.04 266.303C691.16 268.713 704.2 274.963 712.8 284.903C719.18 292.273 726.17 305.403 723.27 326.093C720.15 348.283 709.06 366.823 690.31 381.203C673.14 394.373 650.84 403.093 624.04 407.123C623.06 407.263 622.07 407.343 621.09 407.343Z" fill="white"/>
<path d="M727.57 290.013H754.7L788.2 336.423C791.67 333.283 794.32 329.583 796.14 325.343C797.96 321.093 799.26 315.363 800.03 308.133L801.77 290.013H824.6L822.61 309.623C822.06 315.143 820.94 320.083 819.26 324.473C817.58 328.853 815.32 332.923 812.48 336.673C809.64 340.423 805.1 345.083 798.87 350.653L829.73 392.673H802.76L761.48 335.423C758.5 337.133 756.41 339.633 755.19 342.913C753.98 346.193 752.57 352.803 750.97 362.723L745.84 392.673H722.68L729.63 358.423C731.62 348.993 733.44 342.233 735.09 338.153C736.74 334.073 738.8 330.833 741.25 328.433C743.7 326.033 747.11 323.893 751.47 322.023L727.57 290.013Z" fill="black"/>
<path d="M829.73 412.513H802.76C796.38 412.513 790.4 409.453 786.67 404.273L768.35 378.863L765.4 396.013C763.77 405.543 755.51 412.503 745.84 412.503H722.68C716.73 412.503 711.09 409.833 707.32 405.223C703.55 400.613 702.05 394.553 703.24 388.723L710.19 354.473C710.2 354.423 710.21 354.383 710.22 354.333C712.5 343.503 714.56 335.993 716.71 330.703C718.63 325.963 721.03 321.773 723.85 318.193L711.67 301.883C707.18 295.863 706.47 287.833 709.83 281.123C713.19 274.413 720.06 270.173 727.57 270.173H754.7C761.07 270.173 767.06 273.233 770.79 278.403L781.53 293.273L782.02 288.123C783 277.943 791.55 270.173 801.77 270.173H824.6C830.21 270.173 835.56 272.553 839.32 276.713C843.08 280.873 844.91 286.433 844.34 292.013L842.35 311.623C841.63 318.843 840.09 325.563 837.78 331.583C835.43 337.693 832.24 343.443 828.29 348.663C827.31 349.963 826.21 351.303 824.98 352.703L845.71 380.943C850.14 386.973 850.8 394.983 847.42 401.653C844.05 408.303 837.21 412.513 829.73 412.513Z" fill="white"/>
<path d="M922.84 399.663H900.42V340.023C900.42 331.473 898.59 325.503 894.92 322.113C891.25 318.723 885.09 317.023 876.43 317.023H842.02V297.013H877.76C894.03 297.013 905.61 300.333 912.5 306.983C919.39 313.633 922.84 324.703 922.84 340.193V399.663Z" fill="black"/>
<path d="M922.84 419.513H900.42C889.46 419.513 880.58 410.633 880.58 399.673V340.033C880.58 338.823 880.52 337.853 880.45 337.103C879.49 336.983 878.17 336.883 876.43 336.883H842.02C831.06 336.883 822.18 328.003 822.18 317.043V297.013C822.18 286.053 831.06 277.173 842.02 277.173H877.76C899.57 277.173 915.44 282.253 926.27 292.693C937.16 303.193 942.68 319.173 942.68 340.193V399.673C942.68 410.623 933.79 419.513 922.84 419.513Z" fill="white"/>
<path d="M1011.99 338.253C1011.99 329.433 1009.98 322.853 1005.95 318.523C1001.92 314.193 995.58 312.033 986.92 312.033H967.81V334.203H987.91V354.223H945.22V292.013H987.08C1003.29 292.013 1015.26 295.793 1022.98 303.343C1030.7 310.903 1034.56 322.643 1034.56 338.583V345.363C1034.56 378.233 1017.66 394.663 983.85 394.663H946.13V374.643H983.36C1002.44 374.643 1011.98 364.823 1011.98 345.193V338.253H1011.99Z" fill="black"/>
<path d="M983.86 414.513H946.14C935.18 414.513 926.3 405.633 926.3 394.673V374.653C926.3 371.223 927.17 368.003 928.7 365.193C926.61 362.053 925.39 358.273 925.39 354.223V292.013C925.39 281.053 934.27 272.173 945.23 272.173H987.09C1008.6 272.173 1025.35 277.893 1036.87 289.163C1048.51 300.553 1054.42 317.183 1054.42 338.583V345.363C1054.42 389.303 1028.7 414.513 983.86 414.513Z" fill="white"/>
<path d="M307.84 289.013H330.17V343.523H307.84V289.013Z" fill="black"/>
<path d="M330.18 353.443H307.84C302.36 353.443 297.92 349.003 297.92 343.523V289.013C297.92 283.533 302.36 279.093 307.84 279.093H330.17C335.65 279.093 340.09 283.533 340.09 289.013V343.523C340.1 349.003 335.66 353.443 330.18 353.443ZM317.76 333.603H320.25V298.933H317.76V333.603Z" fill="black"/>
<path d="M423.16 329.253C423.16 320.433 421.15 313.853 417.12 309.523C413.09 305.193 406.75 303.033 398.09 303.033H378.98V325.203H399.08V345.223H356.4V283.013H398.26C414.47 283.013 426.44 286.793 434.16 294.343C441.88 301.903 445.74 313.643 445.74 329.583V336.363C445.74 369.233 428.84 385.663 395.03 385.663H357.31V365.643H394.54C413.62 365.643 423.16 355.823 423.16 336.193V329.253Z" fill="black"/>
<path d="M395.03 395.593H357.31C351.83 395.593 347.39 391.153 347.39 385.673V365.653C347.39 360.173 351.83 355.733 357.31 355.733H394.54C408.17 355.733 413.24 350.443 413.24 336.203V329.253C413.24 323.143 412.07 318.663 409.86 316.283C407.3 313.533 402.05 312.953 398.1 312.953H388.91V315.283H399.09C404.57 315.283 409.01 319.723 409.01 325.203V345.223C409.01 350.703 404.57 355.143 399.09 355.143H356.4C350.92 355.143 346.48 350.703 346.48 345.223V283.013C346.48 277.533 350.92 273.093 356.4 273.093H398.26C417.08 273.093 431.5 277.853 441.1 287.253C450.76 296.713 455.66 310.953 455.66 329.583V336.363C455.66 374.553 434.13 395.593 395.03 395.593ZM367.23 375.743H395.03C423.24 375.743 435.82 363.593 435.82 336.363V329.583C435.82 316.493 432.93 307.023 427.22 301.433C421.45 295.793 411.71 292.933 398.26 292.933H366.32V335.303H389.16V335.123H378.98C373.5 335.123 369.06 330.683 369.06 325.203V303.023C369.06 297.543 373.5 293.103 378.98 293.103H398.09C409.57 293.103 418.42 296.353 424.38 302.763C430.15 308.973 433.08 317.883 433.08 329.253V336.203C433.08 361.223 419.03 375.573 394.54 375.573H367.24V375.743H367.23Z" fill="black"/>
<path d="M524.16 284.513C538.22 284.513 548.45 288.633 554.85 296.883C561.25 305.123 564.45 317.993 564.45 335.473V387.673H511.09V367.653H541.95V337.213C541.95 325.573 540.56 317.233 537.77 312.193C534.98 307.143 530.09 304.623 523.09 304.623C516.58 304.623 511.14 307.863 506.75 314.343C502.37 320.823 498.27 331.843 494.47 347.393L484.46 387.683H460.64L471.81 344.833C474.57 334.463 477.16 326.333 479.59 320.433L459.07 286.183H483.8L491.58 300.743C494.89 295.673 499.42 291.703 505.19 288.833C510.94 285.943 517.27 284.513 524.16 284.513Z" fill="black"/>
<path d="M564.45 397.593H511.09C505.61 397.593 501.17 393.153 501.17 387.673V367.653C501.17 362.173 505.61 357.733 511.09 357.733H532.02V337.213C532.02 324.253 530.18 318.973 529.08 316.983C528.61 316.133 527.73 314.543 523.08 314.543C520.99 314.543 518.17 315.153 514.96 319.903C512.42 323.663 508.46 331.903 504.1 349.753L494.08 390.073C492.98 394.493 489.01 397.603 484.45 397.603H460.63C457.56 397.603 454.66 396.183 452.78 393.753C450.9 391.323 450.25 388.153 451.03 385.183L462.2 342.333C464.44 333.913 466.54 327.013 468.58 321.383L450.55 291.283C448.71 288.213 448.67 284.403 450.43 281.293C452.19 278.183 455.49 276.263 459.06 276.263H483.79C487.45 276.263 490.82 278.283 492.54 281.513L493.92 284.093C496.03 282.553 498.31 281.163 500.75 279.953C507.87 276.413 515.75 274.613 524.16 274.613C541.38 274.613 554.34 280.063 562.69 290.823C570.55 300.953 574.37 315.563 574.37 335.493V387.693C574.37 393.143 569.93 397.593 564.45 397.593ZM521.01 377.743H554.52V335.463C554.52 320.313 551.99 309.383 547.01 302.953C542.56 297.213 535.08 294.423 524.16 294.423C518.77 294.423 514.01 295.493 509.59 297.683C505.4 299.773 502.22 302.533 499.87 306.133C497.95 309.073 494.62 310.763 491.13 310.623C487.63 310.473 484.46 308.483 482.81 305.383L477.84 296.073H476.56L488.08 315.303C489.69 317.993 489.94 321.283 488.74 324.173C486.49 329.653 484.01 337.443 481.38 347.353L473.46 377.733H476.69L484.83 344.973C488.95 328.153 493.43 316.293 498.52 308.763C506.4 297.123 516.22 294.683 523.08 294.683C533.63 294.683 541.93 299.193 546.45 307.373C550.09 313.973 551.86 323.733 551.86 337.193V367.633C551.86 373.113 547.42 377.553 541.94 377.553H521.01V377.743Z" fill="black"/>
<path d="M580.02 293.013H602.35V347.523H580.02V293.013Z" fill="black"/>
<path d="M602.35 357.443H580.02C574.54 357.443 570.1 353.003 570.1 347.523V293.013C570.1 287.533 574.54 283.093 580.02 283.093H602.35C607.83 283.093 612.27 287.533 612.27 293.013V347.523C612.27 353.003 607.83 357.443 602.35 357.443ZM589.94 337.603H592.43V302.933H589.94V337.603Z" fill="black"/>
<path d="M624.54 364.083C640.99 361.163 654.18 356.083 664.11 348.843C674.04 341.603 679.72 332.913 681.14 322.753C682.51 313.033 677.1 307.313 664.92 305.603L623.31 299.753L630.98 245.193L653.59 248.373L648.7 283.113L671.39 286.303C695.97 289.753 706.75 302.213 703.73 323.673C701.35 340.603 692.89 354.643 678.35 365.803C663.81 376.953 644.76 384.303 621.2 387.843L624.54 364.083Z" fill="black"/>
<path d="M621.2 397.763C618.61 397.763 616.09 396.743 614.22 394.893C611.99 392.693 610.94 389.563 611.38 386.463L614.72 362.703C615.32 358.453 618.58 355.063 622.81 354.313C637.69 351.673 649.61 347.133 658.27 340.823C666.01 335.183 670.28 328.823 671.32 321.363C671.56 319.663 671.42 318.523 670.91 317.983C670.52 317.573 668.83 316.163 663.55 315.423L621.93 309.573C616.5 308.813 612.72 303.793 613.49 298.363L621.16 243.803C621.53 241.193 622.91 238.843 625.01 237.263C627.11 235.683 629.76 234.993 632.36 235.363L654.97 238.543C657.58 238.913 659.93 240.293 661.51 242.393C663.09 244.493 663.78 247.143 663.41 249.743L659.91 274.653L672.78 276.463C687.46 278.523 698.44 283.663 705.42 291.733C712.74 300.193 715.48 311.403 713.56 325.043C710.82 344.563 701 360.923 684.39 373.663C668.57 385.803 647.8 393.863 622.68 397.643C622.19 397.733 621.69 397.763 621.2 397.763ZM633.39 372.423L632.96 375.503C648.76 371.763 661.96 365.883 672.31 357.933C684.82 348.333 691.89 336.683 693.91 322.303C695.01 314.473 693.87 308.733 690.41 304.733C686.66 300.403 679.8 297.503 670.02 296.133L647.33 292.943C641.9 292.183 638.12 287.163 638.89 281.733L642.39 256.823L639.43 256.403L634.52 291.313L666.31 295.783C674.65 296.953 681.05 299.843 685.33 304.363C688.68 307.903 692.37 314.203 690.98 324.143C689.17 337.013 682.1 348.023 669.97 356.873C660.35 363.863 648.08 369.083 633.39 372.423Z" fill="black"/>
<path d="M727.57 291.013H754.7L788.2 337.423C791.67 334.283 794.32 330.583 796.14 326.343C797.96 322.093 799.26 316.363 800.03 309.133L801.77 291.013H824.6L822.61 310.623C822.06 316.143 820.94 321.083 819.26 325.473C817.58 329.853 815.32 333.923 812.48 337.673C809.64 341.423 805.1 346.083 798.87 351.653L829.73 393.673H802.76L761.48 336.423C758.5 338.133 756.41 340.633 755.19 343.913C753.98 347.193 752.57 353.803 750.97 363.723L745.84 393.673H722.68L729.63 359.423C731.62 349.993 733.44 343.233 735.09 339.153C736.74 335.073 738.8 331.833 741.25 329.433C743.7 327.033 747.11 324.893 751.47 323.023L727.57 291.013Z" fill="black"/>
<path d="M829.73 403.593H802.76C799.57 403.593 796.58 402.063 794.71 399.473L762.61 354.953C762.09 357.533 761.48 360.903 760.77 365.303L755.62 395.343C754.8 400.103 750.67 403.593 745.84 403.593H722.68C719.7 403.593 716.88 402.253 715 399.953C713.12 397.653 712.37 394.623 712.96 391.703L719.91 357.453C722.05 347.283 724 340.103 725.9 335.433C728.06 330.093 730.9 325.693 734.32 322.343C735.12 321.563 735.98 320.803 736.89 320.083L719.62 296.953C717.37 293.943 717.02 289.923 718.7 286.573C720.38 283.213 723.81 281.103 727.57 281.103H754.7C757.89 281.103 760.88 282.633 762.74 285.213L787.9 320.063C788.88 316.973 789.64 312.973 790.16 308.143L791.89 290.083C792.38 284.993 796.65 281.113 801.77 281.113H824.6C827.41 281.113 830.08 282.303 831.96 284.383C833.84 286.463 834.75 289.243 834.47 292.033L832.48 311.643C831.84 317.993 830.51 323.853 828.52 329.043C826.51 334.283 823.77 339.203 820.38 343.683C818.3 346.433 815.55 349.483 812.08 352.903L837.72 387.823C839.93 390.833 840.26 394.843 838.57 398.173C836.89 401.483 833.47 403.593 829.73 403.593ZM807.84 383.743H810.14L790.88 357.513C788.61 354.423 788.38 350.413 790.02 347.163C789.09 347.333 788.13 347.373 787.17 347.273C784.36 346.973 781.82 345.503 780.17 343.213L749.64 300.923H747.37L759.43 317.083C761.25 319.513 761.85 322.653 761.06 325.583C760.97 325.903 760.87 326.213 760.76 326.523C764.1 326.273 767.46 327.733 769.54 330.613L807.84 383.743ZM734.82 383.743H737.48L741.2 362.043C743.47 347.943 744.97 342.973 745.89 340.463C746.22 339.563 746.6 338.703 747.02 337.863C746.02 339.183 745.11 340.853 744.29 342.873C743.31 345.293 741.65 350.483 739.34 361.453L734.82 383.743ZM810.78 300.933L809.9 310.073C809.9 310.113 809.89 310.143 809.89 310.183C809 318.473 807.49 325.033 805.26 330.243C805.07 330.673 804.88 331.103 804.68 331.523C806.89 328.573 808.68 325.343 810 321.903C811.36 318.363 812.28 314.233 812.74 309.623L813.62 300.923H810.78V300.933Z" fill="black"/>
<path d="M922.84 399.663H900.42V340.023C900.42 331.473 898.59 325.503 894.92 322.113C891.25 318.723 885.09 317.023 876.43 317.023H842.02V297.013H877.76C894.03 297.013 905.61 300.333 912.5 306.983C919.39 313.633 922.84 324.703 922.84 340.193V399.663Z" fill="black"/>
<path d="M922.84 409.593H900.42C894.94 409.593 890.5 405.153 890.5 399.673V340.033C890.5 331.963 888.57 329.763 888.18 329.403C887.56 328.833 884.87 326.953 876.43 326.953H842.02C836.54 326.953 832.1 322.513 832.1 317.033V297.013C832.1 291.533 836.54 287.093 842.02 287.093H877.76C896.87 287.093 910.49 291.263 919.39 299.843C928.27 308.403 932.77 321.983 932.77 340.203V399.683C932.76 405.143 928.31 409.593 922.84 409.593ZM910.34 389.743H912.92V340.183C912.92 327.553 910.46 318.783 905.61 314.113C900.73 309.413 891.1 306.923 877.75 306.923H851.94V307.103H876.43C887.78 307.103 896.03 309.633 901.65 314.823C907.5 320.233 910.34 328.473 910.34 340.023V389.743Z" fill="black"/>
<path d="M1010.99 339.253C1010.99 330.433 1008.98 323.853 1004.95 319.523C1000.92 315.193 994.58 313.033 985.92 313.033H966.81V335.203H986.91V355.223H944.22V293.013H986.08C1002.29 293.013 1014.26 296.793 1021.98 304.343C1029.7 311.903 1033.56 323.643 1033.56 339.583V346.363C1033.56 379.233 1016.66 395.663 982.85 395.663H945.13V375.643H982.36C1001.44 375.643 1010.98 365.823 1010.98 346.193V339.253H1010.99Z" fill="black"/>
<path d="M982.86 405.593H945.14C939.66 405.593 935.22 401.153 935.22 395.673V375.653C935.22 370.173 939.66 365.733 945.14 365.733H982.37C996 365.733 1001.07 360.443 1001.07 346.203V339.253C1001.07 333.143 999.9 328.663 997.69 326.283C995.13 323.533 989.88 322.953 985.93 322.953H976.74V325.283H986.92C992.4 325.283 996.84 329.723 996.84 335.203V355.223C996.84 360.703 992.4 365.143 986.92 365.143H944.23C938.75 365.143 934.31 360.703 934.31 355.223V293.013C934.31 287.533 938.75 283.093 944.23 283.093H986.09C1004.91 283.093 1019.33 287.853 1028.93 297.253C1038.59 306.713 1043.49 320.953 1043.49 339.583V346.363C1043.49 384.553 1021.96 405.593 982.86 405.593ZM955.06 385.743H982.86C1011.07 385.743 1023.65 373.593 1023.65 346.363V339.583C1023.65 326.493 1020.76 317.023 1015.05 311.433C1009.28 305.793 999.54 302.933 986.09 302.933H954.15V345.303H977V345.123H966.82C961.34 345.123 956.9 340.683 956.9 335.203V313.023C956.9 307.543 961.34 303.103 966.82 303.103H985.93C997.41 303.103 1006.26 306.353 1012.22 312.763C1017.99 318.973 1020.92 327.883 1020.92 339.253V346.203C1020.92 371.223 1006.87 385.573 982.38 385.573H955.08V385.743H955.06Z" fill="black"/>
<path d="M332.43 278.753H301.59V341.773H332.43V278.753Z" fill="#149FDA"/>
<path d="M433.13 284.303C424.62 275.973 411.54 271.753 394.25 271.753H348.15V342.463H399.34V313.943H379.24V300.283H394.1C401.49 300.283 406.84 302.013 410.01 305.423C413.26 308.923 414.91 314.583 414.91 322.253V329.203C414.91 346.393 407.17 354.403 390.54 354.403H349.06V382.923H391.03C409 382.923 422.79 378.373 432.03 369.393C441.3 360.383 446 346.913 446 329.363V322.583C445.99 305.533 441.67 292.653 433.13 284.303Z" fill="#E41609"/>
<path d="M554.21 288.273C546.99 278.973 535.54 274.263 520.16 274.263C512.63 274.263 505.61 275.863 499.28 279.013C495.04 281.123 491.35 283.813 488.27 287.033L482.34 275.923H447.55L470.84 314.803C468.58 320.643 466.18 328.343 463.68 337.753L451.12 385.923H483.77L494.59 342.393C498.26 327.403 502.18 316.753 506.27 310.713C509.84 305.433 514.04 302.863 519.09 302.863C526.26 302.863 528.78 305.933 530.05 308.233C531.71 311.253 533.7 317.683 533.7 331.203V357.393H502.84V385.913H564.7V329.463C564.7 310.843 561.27 297.373 554.21 288.273Z" fill="#4CAF2E"/>
<path d="M604.61 284.753H573.77V347.773H604.61V284.753Z" fill="#149FDA"/>
<path d="M668.85 279.533L650.37 276.933L655.25 242.203L624.22 237.843L615.37 300.823L661.2 307.263C673.59 309.003 674.52 314.483 673.8 319.613C672.53 328.663 667.51 336.273 658.47 342.863C649.11 349.683 636.4 354.553 620.67 357.353L617.63 357.893L613.07 390.343L618.71 389.493C642.87 385.863 662.76 378.163 677.81 366.623C693.2 354.823 702.29 339.713 704.82 321.713C707.14 305.103 702.8 284.303 668.85 279.533Z" fill="#FFCC01"/>
<path d="M802.57 349.213C807.59 344.563 811.3 340.623 813.87 337.233C816.94 333.183 819.41 328.723 821.23 323.983C823.04 319.263 824.25 313.903 824.84 308.043L827.3 283.753H795.9L793.8 305.673C793.08 312.443 791.88 317.823 790.23 321.653C789.29 323.843 788.09 325.883 786.63 327.743L754.87 283.753H717.08L743 318.463C740.34 319.963 738.09 321.613 736.28 323.383C733.42 326.183 731.02 329.933 729.15 334.543C727.38 338.903 725.53 345.763 723.46 355.563L715.48 394.903H747.43L753.17 361.383C755.1 349.413 756.41 344.443 757.18 342.373C757.57 341.323 758.07 340.403 758.7 339.593L798.59 394.903H836.13L802.57 349.213Z" fill="#4CAF2E"/>
<path d="M913.45 299.913C905.66 292.403 893.33 288.753 875.76 288.753H835.77V317.273H874.43C881.84 317.273 887.23 318.643 890.03 321.233C892.74 323.733 894.17 328.853 894.17 336.023V399.923H925.09V336.193C925.09 319.573 921.17 307.363 913.45 299.913Z" fill="#E41609"/>
<path d="M1022.98 296.303C1014.47 287.973 1001.39 283.753 984.1 283.753H937.98V354.463H989.18V325.943H969.08V312.283H983.94C991.33 312.283 996.68 314.013 999.85 317.423C1003.1 320.923 1004.75 326.583 1004.75 334.253V341.203C1004.75 358.393 997.01 366.403 980.38 366.403H938.9V394.923H980.88C998.85 394.923 1012.65 390.373 1021.88 381.393C1031.15 372.383 1035.85 358.913 1035.85 341.363V334.583C1035.84 317.533 1031.51 304.653 1022.98 296.303Z" fill="#149FDA"/>
<path d="M638.84 432.873C647.953 432.873 655.34 425.485 655.34 416.373C655.34 407.26 647.953 399.873 638.84 399.873C629.727 399.873 622.34 407.26 622.34 416.373C622.34 425.485 629.727 432.873 638.84 432.873Z" fill="black"/>
<path d="M639.34 426.373C646.244 426.373 651.84 420.776 651.84 413.873C651.84 406.969 646.244 401.373 639.34 401.373C632.437 401.373 626.84 406.969 626.84 413.873C626.84 420.776 632.437 426.373 639.34 426.373Z" fill="#FFCC01"/>
<path d="M393.84 432.873C402.953 432.873 410.34 425.485 410.34 416.373C410.34 407.26 402.953 399.873 393.84 399.873C384.727 399.873 377.34 407.26 377.34 416.373C377.34 425.485 384.727 432.873 393.84 432.873Z" fill="black"/>
<path d="M394.34 426.373C401.244 426.373 406.84 420.776 406.84 413.873C406.84 406.969 401.244 401.373 394.34 401.373C387.437 401.373 381.84 406.969 381.84 413.873C381.84 420.776 387.437 426.373 394.34 426.373Z" fill="#E41609"/>
</g>
<path d="M846.623 207.914L852.707 208.859C854.692 209.168 856.261 210.163 857.414 211.844C858.653 213.539 859.118 215.379 858.81 217.364L850.566 270.437C850.258 272.422 849.256 274.034 847.561 275.274C845.953 276.526 844.156 276.998 842.171 276.69L836.087 275.745C834.102 275.437 832.49 274.435 831.251 272.74C830.012 271.045 829.546 269.205 829.855 267.22L838.098 214.147C838.407 212.162 839.408 210.55 841.103 209.311C842.798 208.072 844.638 207.606 846.623 207.914ZM839.244 193.113C837.259 192.805 835.641 191.847 834.388 190.238C833.235 188.557 832.813 186.723 833.121 184.738C833.429 182.754 834.388 181.135 835.997 179.882C837.692 178.643 839.531 178.178 841.516 178.486L889.024 185.865C903.349 188.09 909.52 195.589 907.536 208.361C905.593 220.874 898.983 234.121 887.709 248.102C884.636 251.955 880.596 253.493 875.591 252.715L868.342 251.589C866.789 251.348 865.731 250.477 865.168 248.975C864.606 247.474 864.857 246.143 865.921 244.983C877.86 231.282 884.72 218.693 886.503 207.215C886.878 204.799 886.622 203.035 885.734 201.925C884.859 200.729 883.127 199.93 880.538 199.527L839.244 193.113ZM924.826 206.407C922.842 206.098 921.223 205.14 919.97 203.531C918.817 201.85 918.395 200.016 918.703 198.031C919.012 196.047 919.97 194.428 921.579 193.175C923.274 191.936 925.114 191.471 927.098 191.779L970.722 198.555C985.048 200.78 991.219 208.279 989.235 221.051L982.901 261.827C982.593 263.812 981.591 265.424 979.897 266.663C978.202 267.902 976.362 268.368 974.377 268.059L968.681 267.175C966.696 266.866 965.084 265.865 963.845 264.17C962.606 262.475 962.14 260.635 962.449 258.65L968.42 220.204C968.822 217.615 968.579 215.765 967.691 214.655C966.817 213.459 965.085 212.66 962.496 212.258L948.774 210.126C947.998 210.006 947.549 210.334 947.428 211.11L940.572 255.252C940.264 257.237 939.262 258.849 937.567 260.088C935.872 261.327 934.032 261.793 932.047 261.484L926.093 260.56C924.108 260.251 922.496 259.25 921.257 257.555C920.017 255.86 919.552 254.02 919.86 252.035L926.717 207.893C926.837 207.117 926.552 206.675 925.862 206.567L924.826 206.407ZM1002.72 265.038L1003.41 211.057C1003.45 209.118 1004.23 207.516 1005.75 206.25C1007.27 204.983 1008.98 204.498 1010.88 204.793L1016.06 205.597C1018.13 205.919 1019.79 206.884 1021.05 208.493C1022.39 210.115 1022.98 211.975 1022.83 214.073L1021.11 237.934C1021.01 238.624 1021.27 238.93 1021.9 238.851C1025.15 238.384 1027.65 236.519 1029.4 233.255C1031.14 229.99 1032.74 224.272 1034.18 216.101C1034.59 214.043 1035.6 212.388 1037.21 211.135C1038.9 209.896 1040.74 209.431 1042.73 209.739L1045.45 210.161C1047.52 210.483 1049.13 211.485 1050.28 213.166C1051.53 214.775 1051.92 216.558 1051.44 218.516C1048.96 230.504 1045.21 239.29 1040.19 244.873C1035.27 250.384 1028.9 253.24 1021.09 253.441C1020.37 253.506 1019.96 253.884 1019.86 254.575L1019.53 258.369C1019.42 259.059 1019.76 259.465 1020.54 259.585L1022.22 259.847C1031.8 261.335 1040.28 258.764 1047.68 252.135C1055.08 245.419 1060.35 234.837 1063.48 220.386C1063.96 218.428 1065.04 216.873 1066.72 215.72C1068.42 214.48 1070.26 214.015 1072.24 214.323L1076.38 214.967C1078.54 215.302 1080.2 216.31 1081.35 217.992C1082.59 219.687 1082.97 221.513 1082.49 223.471C1078.32 244.035 1070.52 258.379 1059.1 266.503C1047.69 274.541 1032.06 277.018 1012.21 273.935L1010.01 273.594C1007.94 273.272 1006.19 272.293 1004.76 270.658C1003.42 269.036 1002.74 267.162 1002.72 265.038ZM1085.19 277.715C1089.28 264.474 1091.67 255.079 1092.35 249.529C1093.05 243.893 1092.84 235.596 1091.71 224.639C1091.56 222.759 1092.16 221.173 1093.51 219.881C1094.86 218.588 1096.44 218.082 1098.25 218.364L1103.82 219.228C1106.06 219.577 1107.9 220.569 1109.32 222.204C1110.85 223.767 1111.58 225.604 1111.52 227.715L1111.36 232.993C1111.33 233.166 1111.36 233.259 1111.45 233.272C1111.62 233.299 1111.71 233.27 1111.73 233.183C1120.14 225.121 1128.27 221.7 1136.12 222.92C1155.11 225.869 1162.76 239.21 1159.07 262.942L1155.09 288.572C1154.78 290.557 1153.78 292.169 1152.09 293.408C1150.48 294.661 1148.64 295.126 1146.57 294.805L1124.56 291.387C1122.58 291.078 1120.96 290.077 1119.73 288.382C1118.49 286.687 1118.02 284.847 1118.33 282.862C1118.64 280.877 1119.63 279.308 1121.31 278.155C1123.01 276.916 1124.85 276.451 1126.83 276.759L1134.6 277.965C1135.38 278.086 1135.83 277.758 1135.95 276.981L1138.28 261.965C1139.44 254.457 1139.35 248.787 1138 244.954C1136.76 241.048 1134.49 238.84 1131.21 238.331C1128.54 237.915 1126.13 238.602 1124 240.392C1121.88 242.095 1119.34 246.165 1116.4 252.602C1113.46 259.038 1109.99 268.531 1106.01 281.081C1105.43 283.112 1104.21 284.691 1102.36 285.817C1100.51 286.943 1098.54 287.345 1096.47 287.024L1090.39 286.079C1088.49 285.784 1087.01 284.802 1085.94 283.134C1084.87 281.466 1084.62 279.659 1085.19 277.715Z" fill="#08064F"/>
</g>
<defs>
<filter id="filter0_d" x="268" y="209" width="806.42" height="252.713" filterUnits="userSpaceOnUse" color-interpolation-filters="sRGB">
<feFlood flood-opacity="0" result="BackgroundImageFix"/>
<feColorMatrix in="SourceAlpha" type="matrix" values="0 0 0 0 0 0 0 0 0 0 0 0 0 0 0 0 0 0 127 0"/>
<feOffset dy="4"/>
<feGaussianBlur stdDeviation="10"/>
<feColorMatrix type="matrix" values="0 0 0 0 0.0235294 0 0 0 0 0.286275 0 0 0 0 0.501961 0 0 0 0.4 0"/>
<feBlend mode="normal" in2="BackgroundImageFix" result="effect1_dropShadow"/>
<feBlend mode="normal" in="SourceGraphic" in2="effect1_dropShadow" result="shape"/>
</filter>
<clipPath id="clip0">
<rect width="1367" height="772" fill="white"/>
</clipPath>
</defs>
</svg>
