<svg width="1370" height="768" viewBox="0 0 1370 768" fill="none" xmlns="http://www.w3.org/2000/svg">
<rect x="2.5" y="0.5" width="1367" height="767"/>
<path fill-rule="evenodd" clip-rule="evenodd" d="M796.654 386.86C798.954 386.86 800.245 386.645 800.5 386.234L800.324 385.637C797.877 385.637 796.537 385.833 796.302 386.234L796.654 386.86Z" fill="#EB5594"/>
<path fill-rule="evenodd" clip-rule="evenodd" d="M789.266 377.995C789.169 378.201 789.041 378.495 788.865 378.886C789.159 379.679 789.638 380.148 790.323 380.285H795.588C795.666 380.285 795.764 380.275 795.842 380.236C796.018 380.217 796.116 379.786 796.116 378.964C796.116 378.044 795.49 377.399 794.257 377.056C793.073 376.753 791.488 376.753 789.472 377.056C789.482 377.311 789.413 377.614 789.266 377.995Z" fill="#EB5594"/>
<path fill-rule="evenodd" clip-rule="evenodd" d="M794.531 372.056C796.155 371.909 797.143 371.635 797.505 371.243V369.922C797.388 369.922 796.762 369.893 795.646 369.795C794.404 369.678 793.405 369.629 792.632 369.629L792.535 370.011C792.515 370.402 792.535 370.872 792.632 371.41L794.531 372.056Z" fill="#EB5594"/>
<path fill-rule="evenodd" clip-rule="evenodd" d="M751.574 357.995C751.819 358.298 752.289 358.582 752.993 358.836C753.815 359.149 754.696 359.296 755.645 359.296C756.672 359.296 757.396 359.276 757.807 359.218C758.179 359.159 758.668 359.012 759.216 358.787C759.285 358.953 759.353 359.042 759.441 359.042C759.598 359.042 759.667 358.621 759.667 357.809C759.667 356.948 759.618 356.488 759.539 356.409L759.441 356.488C756.379 356.184 753.883 356.253 751.966 356.703L751.574 357.995Z" fill="#EB5594"/>
<path fill-rule="evenodd" clip-rule="evenodd" d="M745.028 346.84C744.715 346.84 743.873 346.879 742.562 346.967C741.26 347.025 740.096 347.055 739.059 347.055L738.002 347.642C738.354 348.767 738.687 349.481 738.98 349.765C739.333 350.098 740.076 350.274 741.192 350.274C742.053 350.274 742.767 350.127 743.364 349.814C743.971 349.442 744.48 349.198 744.861 349.051C744.92 349.256 744.979 349.354 745.038 349.354C745.194 349.374 745.263 348.982 745.263 348.16C745.263 347.319 745.223 346.849 745.135 346.761L745.028 346.84Z" fill="#EB5594"/>
<path fill-rule="evenodd" clip-rule="evenodd" d="M741.485 342.29C741.368 342.348 741.339 342.427 741.358 342.505C741.476 342.622 741.975 342.671 742.865 342.671C744.9 342.671 746.182 342.397 746.711 341.869V340.675C746.574 340.675 746.133 340.636 745.429 340.548C744.47 340.548 743.149 340.714 741.495 341.057V342.29H741.485Z" fill="#EB5594"/>
<path fill-rule="evenodd" clip-rule="evenodd" d="M773.923 371.116C774.04 371.234 774.442 371.4 775.107 371.625H780.322C780.322 371.508 780.43 371.165 780.636 370.568C780.87 369.942 780.988 369.521 780.988 369.296C779.129 368.67 777.974 368.357 777.534 368.357C776.536 368.357 775.156 368.885 773.424 369.923C773.522 370.519 773.678 370.911 773.923 371.116Z" fill="#FFF63F"/>
<path fill-rule="evenodd" clip-rule="evenodd" d="M765.547 355.91L765.342 356.801C765.537 357.29 765.978 357.681 766.624 357.994C767.367 358.337 768.238 358.503 769.236 358.503C770.097 358.503 770.763 358.454 771.272 358.376L771.751 358.21C771.751 358.043 771.966 357.603 772.377 356.889C772.788 356.174 772.994 355.587 772.994 355.108C771.722 354.912 770.469 354.912 769.236 355.108C768.992 355.166 767.768 355.44 765.547 355.91Z" fill="#FFF63F"/>
<path fill-rule="evenodd" clip-rule="evenodd" d="M747.552 350.264C747.689 350.636 748.022 350.979 748.531 351.292C749.177 351.683 749.979 351.879 750.918 351.879C751.799 351.879 752.533 351.81 753.081 351.664L753.658 351.458C753.756 351.654 753.844 351.752 753.962 351.752C754.177 351.771 754.275 351.38 754.275 350.568C754.275 349.707 754.236 349.198 754.177 349.031H754.099C753.296 348.865 751.398 348.865 748.384 349.031L747.552 350.264Z" fill="#FFF63F"/>
<path fill-rule="evenodd" clip-rule="evenodd" d="M735.076 324.461C734.978 324.461 734.91 324.363 734.851 324.167C734.577 323.933 734.029 323.815 733.168 323.815C732.425 323.815 731.133 324.852 729.274 326.917C728.325 327.964 727.415 329.031 726.534 330.097C726.974 328.747 727.189 326.007 727.189 321.897C727.189 320.116 727.141 318.825 727.043 318.032C726.808 316.026 726.299 314.813 725.506 314.421C724.058 315.302 723.412 316.966 723.549 319.392C723.608 320.664 723.833 322.181 724.215 323.942C724.215 324.754 724.146 325.165 723.99 325.126C723.931 325.126 723.872 325.028 723.814 324.833V325.253C723.461 324.911 722.414 323.531 720.673 321.095C719.312 319.167 717.835 317.758 716.24 316.848C716.005 317.073 715.79 317.181 715.584 317.142C715.467 317.2 715.408 317.641 715.408 318.463C715.408 319.422 716.24 321.672 717.923 325.214C718.813 327.113 719.929 329.422 721.279 332.172V332.514C721.142 332.436 720.741 331.946 720.095 331.076C719.586 330.361 718.872 329.97 717.923 329.882C717.16 331.555 716.778 333.395 716.778 335.401C716.778 337.328 717.894 338.649 720.144 339.393C720.262 339.452 722.444 339.863 726.73 340.655C728.207 338.757 729.597 336.487 730.888 333.825C731.661 332.377 733.041 329.246 735.076 324.461Z" fill="#348024"/>
<path fill-rule="evenodd" clip-rule="evenodd" d="M798.993 366.566C799.051 370.187 799.071 372.075 799.041 372.222C797.006 369.639 795.499 368.239 794.531 368.014C794.12 368.053 793.621 368.014 793.024 367.936C792.642 367.995 792.446 368.445 792.446 369.286C792.446 370.167 793.865 371.958 796.703 374.678C800.186 377.839 802.564 380.089 803.866 381.381C804.55 381.351 805.05 381.293 805.372 381.214C805.94 381.097 806.214 380.618 806.214 379.766C806.214 377.251 805.705 374.081 804.707 370.265C803.494 365.646 802.094 362.907 800.499 362.026C799.472 362.877 798.963 364.384 798.993 366.566Z" fill="#348024"/>
<path fill-rule="evenodd" clip-rule="evenodd" d="M756.613 328.786C756.613 337.289 756.721 342.475 756.926 344.374C757.455 349.462 758.981 354.951 761.525 360.842C764.295 359.169 765.86 358.21 766.212 357.955C766.447 357.789 766.565 356.84 766.565 355.108C766.565 344.931 766.164 336.291 765.361 329.217C764.128 318.404 762.015 311.74 759.001 309.226C757.787 310.243 757.034 313.306 756.74 318.394C756.662 319.891 756.613 323.355 756.613 328.786Z" fill="#348024"/>
<path fill-rule="evenodd" clip-rule="evenodd" d="M782.681 329.471C780.43 332.612 779.315 342.701 779.315 359.736C779.315 360.275 779.442 361.586 779.716 363.69C780.01 365.813 780.156 367.555 780.156 368.905C780.137 369.071 780.156 369.238 780.254 369.414C780.43 369.747 780.959 369.923 781.839 369.923C784.56 369.923 786.194 367.173 786.752 361.645C786.752 356.008 786.752 353.053 786.752 352.77C786.752 346.439 786.673 342.593 786.478 341.223C786.067 337.945 784.804 334.021 782.681 329.471Z" fill="#348024"/>
<path fill-rule="evenodd" clip-rule="evenodd" d="M448.539 498.508C448.226 498.508 447.385 498.548 446.074 498.636C444.772 498.694 443.608 498.724 442.57 498.724L441.514 499.311C441.866 500.436 442.199 501.15 442.492 501.434C442.844 501.767 443.588 501.943 444.704 501.943C445.565 501.943 446.279 501.796 446.876 501.483C447.483 501.111 447.991 500.867 448.373 500.72C448.432 500.925 448.49 501.023 448.549 501.023C448.706 501.043 448.774 500.651 448.774 499.829C448.774 498.988 448.735 498.518 448.647 498.43L448.539 498.508Z" fill="#EB5594"/>
<path fill-rule="evenodd" clip-rule="evenodd" d="M444.997 493.959C444.88 494.017 444.85 494.096 444.87 494.174C444.987 494.291 445.486 494.34 446.377 494.34C448.412 494.34 449.694 494.066 450.222 493.538V492.344C450.085 492.344 449.645 492.305 448.94 492.217C447.981 492.217 446.661 492.383 445.007 492.726V493.959H444.997Z" fill="#EB5594"/>
<path fill-rule="evenodd" clip-rule="evenodd" d="M451.064 501.933C451.201 502.305 451.534 502.648 452.042 502.961C452.688 503.352 453.491 503.548 454.43 503.548C455.311 503.548 456.045 503.479 456.593 503.333L457.17 503.127C457.268 503.323 457.356 503.421 457.473 503.421C457.688 503.44 457.786 503.049 457.786 502.237C457.786 501.376 457.747 500.867 457.688 500.7H457.61C456.808 500.534 454.91 500.534 451.896 500.7L451.064 501.933Z" fill="#FFF63F"/>
<path fill-rule="evenodd" clip-rule="evenodd" d="M1208.67 326.418C1208.58 326.418 1208.51 326.321 1208.45 326.125C1208.18 325.89 1207.63 325.773 1206.77 325.773C1206.02 325.773 1204.73 326.81 1202.87 328.874C1201.92 329.921 1201.01 330.988 1200.13 332.055C1200.57 330.704 1200.79 327.964 1200.79 323.855C1200.79 322.074 1200.74 320.782 1200.64 319.99C1200.41 317.984 1199.9 316.77 1199.1 316.379C1197.66 317.26 1197.01 318.923 1197.15 321.35C1197.21 322.622 1197.43 324.138 1197.81 325.9C1197.81 326.712 1197.74 327.123 1197.59 327.084C1197.53 327.084 1197.47 326.986 1197.41 326.79V327.211C1197.06 326.869 1196.01 325.489 1194.27 323.052C1192.9 321.125 1191.43 319.716 1189.84 318.806C1189.6 319.031 1189.39 319.138 1189.18 319.099C1189.07 319.158 1189.01 319.598 1189.01 320.42C1189.01 321.379 1189.84 323.63 1191.52 327.172C1192.41 329.07 1193.53 331.379 1194.88 334.129V334.472C1194.74 334.393 1194.34 333.904 1193.69 333.033C1193.19 332.319 1192.47 331.927 1191.52 331.839C1190.76 333.513 1190.38 335.352 1190.38 337.358C1190.38 339.286 1191.49 340.607 1193.74 341.35C1193.86 341.409 1196.04 341.82 1200.33 342.613C1201.81 340.714 1203.2 338.444 1204.49 335.783C1205.26 334.335 1206.64 331.203 1208.67 326.418Z" fill="#348024"/>
<path fill-rule="evenodd" clip-rule="evenodd" d="M431.738 482.98C431.641 482.98 431.572 482.882 431.513 482.686C431.239 482.452 430.691 482.334 429.83 482.334C429.087 482.334 427.795 483.371 425.936 485.436C424.987 486.483 424.077 487.55 423.196 488.616C423.636 487.266 423.852 484.526 423.852 480.416C423.852 478.635 423.803 477.344 423.705 476.551C423.47 474.545 422.961 473.332 422.169 472.94C420.72 473.821 420.075 475.485 420.212 477.911C420.27 479.183 420.495 480.7 420.877 482.461C420.877 483.273 420.808 483.684 420.652 483.645C420.593 483.645 420.534 483.547 420.476 483.352V483.773C420.123 483.43 419.076 482.05 417.335 479.614C415.975 477.686 414.497 476.277 412.902 475.367C412.667 475.592 412.452 475.7 412.246 475.661C412.129 475.719 412.07 476.16 412.07 476.982C412.07 477.941 412.902 480.191 414.585 483.733C415.476 485.632 416.591 487.941 417.941 490.691V491.033C417.804 490.955 417.403 490.466 416.757 489.595C416.249 488.88 415.534 488.489 414.585 488.401C413.822 490.074 413.44 491.914 413.44 493.92C413.44 495.847 414.556 497.168 416.806 497.912C416.924 497.971 419.106 498.382 423.392 499.174C424.869 497.276 426.259 495.006 427.55 492.344C428.323 490.896 429.703 487.765 431.738 482.98Z" fill="#348024"/>
<path fill-rule="evenodd" clip-rule="evenodd" d="M871.021 612.896C873.32 612.896 874.612 612.681 874.866 612.27L874.69 611.673C872.244 611.673 870.903 611.869 870.668 612.27L871.021 612.896Z" fill="#EB5594"/>
<path fill-rule="evenodd" clip-rule="evenodd" d="M863.633 604.031C863.535 604.237 863.408 604.53 863.232 604.922C863.525 605.714 864.005 606.184 864.69 606.321H869.954C870.033 606.321 870.13 606.311 870.209 606.272C870.385 606.252 870.483 605.822 870.483 605C870.483 604.07 869.856 603.434 868.624 603.092C867.44 602.788 865.854 602.788 863.839 603.092C863.848 603.346 863.78 603.65 863.633 604.031Z" fill="#EB5594"/>
<path fill-rule="evenodd" clip-rule="evenodd" d="M868.898 598.092C870.522 597.945 871.51 597.671 871.872 597.28V595.959C871.755 595.959 871.129 595.929 870.013 595.831C868.77 595.714 867.772 595.665 866.999 595.665L866.901 596.047C866.882 596.438 866.901 596.908 866.999 597.446L868.898 598.092Z" fill="#EB5594"/>
<path fill-rule="evenodd" clip-rule="evenodd" d="M873.36 592.602C873.418 596.223 873.438 598.111 873.409 598.258C871.373 595.675 869.866 594.276 868.898 594.05C868.487 594.09 867.988 594.05 867.391 593.972C867.009 594.031 866.813 594.481 866.813 595.323C866.813 596.203 868.232 597.994 871.07 600.714C874.554 603.875 876.931 606.125 878.233 607.417C878.918 607.388 879.417 607.329 879.74 607.251C880.307 607.133 880.581 606.654 880.581 605.802C880.581 603.288 880.072 600.117 879.074 596.301C877.861 591.682 876.462 588.943 874.867 588.062C873.839 588.913 873.33 590.42 873.36 592.602Z" fill="#348024"/>
<path fill-rule="evenodd" clip-rule="evenodd" d="M504.989 255.251C505.234 255.555 505.704 255.839 506.408 256.093C507.23 256.406 508.111 256.553 509.06 256.553C510.087 256.553 510.811 256.533 511.222 256.475C511.594 256.416 512.083 256.269 512.631 256.044C512.7 256.21 512.768 256.298 512.856 256.298C513.013 256.298 513.082 255.878 513.082 255.065C513.082 254.204 513.033 253.745 512.954 253.666L512.856 253.745C509.794 253.441 507.299 253.51 505.381 253.96L504.989 255.251Z" fill="#EB5594"/>
<path fill-rule="evenodd" clip-rule="evenodd" d="M498.443 244.096C498.13 244.096 497.289 244.135 495.977 244.224C494.676 244.282 493.512 244.312 492.474 244.312L491.417 244.899C491.77 246.024 492.102 246.738 492.396 247.022C492.748 247.355 493.492 247.531 494.607 247.531C495.469 247.531 496.183 247.384 496.78 247.071C497.386 246.699 497.895 246.455 498.277 246.308C498.336 246.513 498.394 246.611 498.453 246.611C498.61 246.631 498.678 246.239 498.678 245.417C498.678 244.576 498.639 244.106 498.551 244.018L498.443 244.096Z" fill="#EB5594"/>
<path fill-rule="evenodd" clip-rule="evenodd" d="M494.901 239.546C494.783 239.605 494.754 239.683 494.774 239.762C494.891 239.879 495.39 239.928 496.281 239.928C498.316 239.928 499.598 239.654 500.126 239.126V237.932C499.989 237.932 499.549 237.893 498.844 237.805C497.885 237.805 496.564 237.971 494.911 238.314V239.546H494.901Z" fill="#EB5594"/>
<path fill-rule="evenodd" clip-rule="evenodd" d="M500.968 247.521C501.105 247.893 501.437 248.236 501.946 248.549C502.592 248.94 503.394 249.136 504.334 249.136C505.214 249.136 505.948 249.067 506.496 248.921L507.074 248.715C507.172 248.911 507.26 249.009 507.377 249.009C507.592 249.028 507.69 248.637 507.69 247.825C507.69 246.964 507.651 246.455 507.592 246.288H507.514C506.712 246.122 504.813 246.122 501.8 246.288L500.968 247.521Z" fill="#FFF63F"/>
<path fill-rule="evenodd" clip-rule="evenodd" d="M510.029 226.043C510.029 234.546 510.136 239.732 510.342 241.63C510.87 246.719 512.397 252.208 514.941 258.099C517.71 256.426 519.276 255.467 519.628 255.212C519.863 255.046 519.98 254.097 519.98 252.365C519.98 242.188 519.579 233.548 518.777 226.473C517.544 215.661 515.43 208.997 512.416 206.482C511.203 207.5 510.45 210.563 510.156 215.651C510.078 217.148 510.029 220.612 510.029 226.043Z" fill="#348024"/>
<path fill-rule="evenodd" clip-rule="evenodd" d="M898.683 397.468C897.528 399.317 895.571 400.227 892.812 400.227C889.583 400.227 886.08 399.826 882.273 399.024V389.689C884.573 386.117 888.203 384.571 893.154 385.031C898.223 385.266 900.748 387.213 900.748 390.902C900.757 393.789 900.072 395.961 898.683 397.468Z" fill="#C69C6D"/>
<path fill-rule="evenodd" clip-rule="evenodd" d="M851.881 372.428C854.073 370.931 856.548 370.931 859.308 372.428C859.308 373.465 859.885 374.796 861.03 376.401C860.912 378.015 860.697 378.984 860.335 379.336C859.768 380.139 858.505 380.54 856.539 380.54L850.325 379.845H849.983C849.64 379.845 849.464 378.925 849.464 377.086C849.464 375.246 850.266 373.69 851.881 372.428Z" fill="#C69C6D"/>
<path fill-rule="evenodd" clip-rule="evenodd" d="M896.1 365.52L895.581 367.584C895.356 367.927 895.405 368.338 895.757 368.798C895.757 369.14 894.779 369.316 892.822 369.316C889.142 369.316 886.491 368.445 884.886 366.733L884.357 364.659L884.886 361.899L895.238 361.557L896.1 365.52Z" fill="#C69C6D"/>
<path fill-rule="evenodd" clip-rule="evenodd" d="M447.042 470.318L443.412 470.837C436.034 470.494 431.376 470.035 429.419 469.457C429.077 469.8 428.9 468.42 428.9 465.308C428.9 461.052 432.071 458.743 438.402 458.4C444.742 458.058 447.903 460.308 447.903 465.142C447.893 468.019 447.609 469.751 447.042 470.318Z" fill="#C69C6D"/>
<path fill-rule="evenodd" clip-rule="evenodd" d="M411.63 443.556L410.759 447.529C408.694 448.096 405.925 448.38 402.471 448.38L401.776 447.529C401.316 446.716 401.091 445.454 401.091 443.732C401.091 441.54 402.011 440.385 403.841 440.278C405.69 440.043 407.941 439.994 410.593 440.102L411.63 443.556Z" fill="#C69C6D"/>
<path fill-rule="evenodd" clip-rule="evenodd" d="M382.959 463.42V461.335C386.414 460.533 389.633 460.934 392.627 462.549L392.285 464.79L387.793 465.827C385.034 465.142 383.419 464.339 382.959 463.42Z" fill="#C69C6D"/>
<path fill-rule="evenodd" clip-rule="evenodd" d="M478.119 481.551L474.841 485.348C473.237 486.61 471.563 487.246 469.841 487.246C467.767 487.246 466.553 487.129 466.211 486.904L465.868 486.385C465.291 485.583 464.998 482.882 464.998 478.273C465.927 478.273 466.906 478.156 467.933 477.931C470.585 477.588 473.697 477.412 477.268 477.412L478.119 481.551Z" fill="#C69C6D"/>
<path fill-rule="evenodd" clip-rule="evenodd" d="M800.49 569.529L790.695 573.492L796.722 566.495L788.092 572.151L796.771 561.955L784.784 570.605L790.763 565.233L784.843 568.325L790.147 562.758L778.532 568.775L784.334 563.286L784.804 561.759L779.226 566.554L788.18 552.571L777.798 561.936L784.452 553.667L789.109 543.403L781.32 550.291L788.17 541.436L785.323 543.09L788.004 538.97L783.414 543.735L801.517 519.879L794.159 527.962L797.505 522.609L794.697 524.948L795.91 521.758L794.472 523.04L802.222 508.206L799.149 511.337L803.092 501.571L801.38 504.027L804.785 492.491L804.775 499.086L805.353 505.094L807.809 510.534L805.959 512.296L811.136 519.586L807.672 518.255L816.938 536.798L815.03 534.263L817.065 539.117L821.586 542.248L814.277 542.375L822.584 548.139L815.568 546.407L826.723 560.292L822.555 558.178L826.41 562.699L817.604 559.46L826.195 570.507L816.371 565.272L818.905 569.94L807.73 566.584L806.791 566.975" fill="#4C7733"/>
<path fill-rule="evenodd" clip-rule="evenodd" d="M807.691 565.047L807.094 572.425C807.427 576.398 808.66 579.754 810.793 582.494C809.952 582.798 809.1 582.935 808.239 582.905C807.134 582.807 806.028 582.357 804.893 581.555C804.824 581.477 804.717 581.388 804.589 581.31C804.364 581.623 804.13 581.897 803.865 582.132C802.349 583.756 800.656 584.706 798.806 584.999C798.885 584.794 798.973 584.618 799.051 584.471C799.423 583.717 799.775 582.935 800.088 582.142C798.669 582.895 797.221 583.316 795.744 583.414C795.92 583.189 796.116 582.974 796.331 582.768C798.298 580.116 799.57 577.337 800.167 574.412V567.543L807.691 565.047Z" fill="#603813"/>
<path fill-rule="evenodd" clip-rule="evenodd" d="M675.24 322.944L665.446 326.907L671.473 319.911L662.843 325.567L671.522 315.371L659.535 324.021L665.514 318.649L659.594 321.741L664.898 316.173L653.283 322.191L659.085 316.701L659.555 315.175L653.977 319.97L662.931 305.987L652.549 315.351L659.203 307.083L663.86 296.818L656.071 303.707L662.921 294.851L660.074 296.505L662.755 292.385L658.165 297.151L676.268 273.295L668.909 281.377L672.256 276.025L669.448 278.363L670.661 275.173L669.223 276.455L676.972 261.621L673.9 264.752L677.843 254.987L676.131 257.443L679.536 245.906L679.526 252.501L680.104 258.509L682.56 263.95L680.71 265.711L685.887 273.001L682.423 271.67L691.689 290.213L689.781 287.679L691.816 292.532L696.337 295.663L689.028 295.791L697.335 301.554L690.319 299.822L701.474 313.707L697.306 311.594L701.161 316.114L692.355 312.875L700.946 323.923L691.122 318.688L693.656 323.355L682.481 319.999L681.542 320.39" fill="#4C7733"/>
<path fill-rule="evenodd" clip-rule="evenodd" d="M682.442 318.463L681.845 325.841C682.178 329.814 683.411 333.17 685.544 335.91C684.703 336.213 683.851 336.35 682.99 336.321C681.885 336.223 680.779 335.773 679.644 334.97C679.575 334.892 679.468 334.804 679.34 334.726C679.115 335.039 678.881 335.313 678.616 335.548C677.1 337.172 675.407 338.121 673.557 338.415C673.636 338.209 673.724 338.033 673.802 337.886C674.174 337.133 674.526 336.35 674.839 335.557C673.42 336.311 671.972 336.732 670.495 336.83C670.671 336.604 670.866 336.389 671.082 336.184C673.049 333.532 674.321 330.753 674.918 327.827V320.958L682.442 318.463Z" fill="#603813"/>
<path fill-rule="evenodd" clip-rule="evenodd" d="M738.981 285.262L729.978 288.902L735.517 282.464L727.581 287.669L735.556 278.285L724.538 286.241L730.037 281.299L724.596 284.147L729.469 279.029L718.784 284.558L724.127 279.509L724.548 278.109L719.42 282.522L727.659 269.655L718.109 278.276L724.225 270.663L728.52 261.22L721.348 267.561L727.649 259.41L725.037 260.927L727.503 257.14L723.275 261.524L739.93 239.576L733.158 247.022L736.241 242.09L733.657 244.243L734.773 241.307L733.452 242.482L740.576 228.841L737.757 231.718L741.388 222.735L739.802 224.986L742.934 214.389V220.446L743.462 225.974L745.722 230.974L744.02 232.599L748.775 239.302L745.595 238.088L754.118 255.144L752.367 252.815L754.235 257.277L758.394 260.154L751.672 260.271L759.314 265.575L752.856 263.989L763.12 276.759L759.285 274.812L762.837 278.98L754.725 275.986L762.631 286.162L753.599 281.338L755.928 285.634L745.644 282.552L744.783 282.904" fill="#40632A"/>
<path fill-rule="evenodd" clip-rule="evenodd" d="M745.615 281.133L745.067 287.924C745.38 291.583 746.515 294.666 748.472 297.18C747.699 297.464 746.916 297.591 746.123 297.562C745.106 297.474 744.088 297.053 743.051 296.319C742.982 296.241 742.894 296.173 742.777 296.094C742.571 296.388 742.346 296.632 742.111 296.848C740.712 298.345 739.156 299.216 737.454 299.48C737.532 299.284 737.601 299.128 737.679 299C738.021 298.306 738.344 297.591 738.638 296.857C737.336 297.552 736.006 297.934 734.646 298.032C734.812 297.826 734.988 297.631 735.184 297.435C736.994 294.998 738.168 292.435 738.706 289.754V283.432L745.615 281.133Z" fill="#603813"/>
<path fill-rule="evenodd" clip-rule="evenodd" d="M977.6 338.601L967.805 342.564L973.833 335.567L965.202 341.223L973.882 331.027L961.895 339.677L967.873 334.305L961.953 337.397L967.257 331.829L955.642 337.847L961.445 332.358L961.914 330.831L956.337 335.626L965.29 321.643L954.908 331.007L961.562 322.739L966.22 312.474L958.431 319.363L965.28 310.508L962.433 312.161L965.114 308.042L960.525 312.807L978.627 288.951L971.269 297.033L974.615 291.681L971.807 294.02L973.02 290.83L971.582 292.112L979.332 277.277L976.259 280.409L980.203 270.643L978.49 273.099L981.896 261.562L981.886 268.158L982.463 274.166L984.919 279.606L983.07 281.368L988.246 288.657L984.782 287.327L994.049 305.869L992.141 303.335L994.176 308.189L998.697 311.32L991.387 311.447L999.695 317.21L992.679 315.478L1003.83 329.363L999.665 327.25L1003.52 331.771L994.714 328.532L1003.31 339.579L993.481 334.344L996.015 339.012L984.841 335.655L983.901 336.047" fill="#40632A"/>
<path fill-rule="evenodd" clip-rule="evenodd" d="M984.802 334.119L984.205 341.497C984.537 345.47 985.77 348.826 987.904 351.566C987.062 351.869 986.211 352.006 985.35 351.977C984.244 351.879 983.138 351.429 982.003 350.627C981.935 350.548 981.827 350.46 981.7 350.382C981.475 350.695 981.24 350.969 980.976 351.204C979.459 352.828 977.766 353.777 975.917 354.071C975.995 353.865 976.083 353.689 976.161 353.543C976.533 352.789 976.885 352.006 977.199 351.214C975.78 351.967 974.332 352.388 972.854 352.486C973.03 352.261 973.226 352.045 973.441 351.84C975.408 349.188 976.68 346.409 977.277 343.483V336.614L984.802 334.119Z" fill="#603813"/>
<path fill-rule="evenodd" clip-rule="evenodd" d="M366.031 422.752L356.237 426.715L362.264 419.719L353.634 425.375L362.313 415.179L350.326 423.829L356.305 418.457L350.385 421.549L355.689 415.981L344.074 421.999L349.876 416.51L350.346 414.983L344.768 419.778L353.722 405.795L343.34 415.159L349.994 406.891L354.651 396.626L346.862 403.515L353.712 394.659L350.865 396.313L353.546 392.194L348.956 396.959L367.059 373.103L359.701 381.185L363.047 375.833L360.239 378.172L361.452 374.982L360.014 376.263L367.763 361.429L364.691 364.56L368.634 354.795L366.922 357.251L370.327 345.714L370.317 352.31L370.895 358.318L373.351 363.758L371.501 365.519L376.678 372.809L373.214 371.479L382.48 390.021L380.572 387.487L382.607 392.34L387.128 395.472L379.819 395.599L388.126 401.362L381.11 399.63L392.265 413.515L388.097 411.402L391.952 415.922L383.146 412.684L391.737 423.731L381.913 418.496L384.447 423.163L373.272 419.807L372.333 420.199" fill="#4C7733"/>
<path fill-rule="evenodd" clip-rule="evenodd" d="M373.233 418.271L372.636 425.649C372.969 429.622 374.202 432.978 376.335 435.718C375.494 436.021 374.642 436.158 373.781 436.129C372.675 436.031 371.57 435.581 370.435 434.778C370.366 434.7 370.259 434.612 370.131 434.534C369.906 434.847 369.671 435.121 369.407 435.356C367.891 436.98 366.198 437.929 364.348 438.223C364.427 438.017 364.515 437.841 364.593 437.694C364.965 436.941 365.317 436.158 365.63 435.366C364.211 436.119 362.763 436.54 361.286 436.638C361.462 436.413 361.657 436.197 361.873 435.992C363.84 433.34 365.112 430.561 365.708 427.635V420.766L373.233 418.271Z" fill="#603813"/>
<path fill-rule="evenodd" clip-rule="evenodd" d="M1082.31 497.922C1082.55 498.225 1083.02 498.509 1083.73 498.763C1084.55 499.076 1085.43 499.223 1086.38 499.223C1087.41 499.223 1088.13 499.204 1088.54 499.145C1088.91 499.086 1089.4 498.939 1089.95 498.714C1090.02 498.881 1090.09 498.969 1090.18 498.969C1090.33 498.969 1090.4 498.548 1090.4 497.736C1090.4 496.875 1090.35 496.415 1090.28 496.337L1090.18 496.415C1087.11 496.112 1084.62 496.18 1082.7 496.63L1082.31 497.922Z" fill="#EB5594"/>
<path fill-rule="evenodd" clip-rule="evenodd" d="M1104.66 511.044C1104.78 511.161 1105.18 511.327 1105.84 511.552H1111.06C1111.06 511.435 1111.17 511.092 1111.37 510.496C1111.61 509.869 1111.72 509.449 1111.72 509.224C1109.86 508.597 1108.71 508.284 1108.27 508.284C1107.27 508.284 1105.89 508.813 1104.16 509.85C1104.26 510.447 1104.41 510.838 1104.66 511.044Z" fill="#FFF63F"/>
<path fill-rule="evenodd" clip-rule="evenodd" d="M1096.28 495.837L1096.08 496.728C1096.27 497.217 1096.71 497.608 1097.36 497.922C1098.1 498.264 1098.97 498.43 1099.97 498.43C1100.83 498.43 1101.5 498.381 1102.01 498.303L1102.49 498.137C1102.49 497.971 1102.7 497.53 1103.11 496.816C1103.52 496.102 1103.73 495.514 1103.73 495.035C1102.46 494.839 1101.21 494.839 1099.97 495.035C1099.73 495.094 1098.5 495.368 1096.28 495.837Z" fill="#FFF63F"/>
<path fill-rule="evenodd" clip-rule="evenodd" d="M1075.76 486.767C1075.45 486.767 1074.61 486.806 1073.3 486.894C1072 486.953 1070.83 486.982 1069.8 486.982L1068.74 487.569C1069.09 488.694 1069.42 489.409 1069.72 489.693C1070.07 490.025 1070.81 490.201 1071.93 490.201C1072.79 490.201 1073.5 490.055 1074.1 489.741C1074.71 489.37 1075.22 489.125 1075.6 488.978C1075.66 489.184 1075.72 489.282 1075.77 489.282C1075.93 489.301 1076 488.91 1076 488.088C1076 487.246 1075.96 486.777 1075.87 486.688L1075.76 486.767Z" fill="#EB5594"/>
<path fill-rule="evenodd" clip-rule="evenodd" d="M1072.22 482.217C1072.1 482.276 1072.07 482.354 1072.09 482.432C1072.21 482.55 1072.71 482.598 1073.6 482.598C1075.64 482.598 1076.92 482.324 1077.45 481.796V480.602C1077.31 480.602 1076.87 480.563 1076.17 480.475C1075.21 480.475 1073.89 480.641 1072.22 480.984V482.217Z" fill="#EB5594"/>
<path fill-rule="evenodd" clip-rule="evenodd" d="M1078.29 490.192C1078.43 490.563 1078.76 490.906 1079.27 491.219C1079.91 491.611 1080.72 491.806 1081.65 491.806C1082.54 491.806 1083.27 491.738 1083.82 491.591L1084.39 491.385C1084.49 491.581 1084.58 491.679 1084.7 491.679C1084.91 491.699 1085.01 491.307 1085.01 490.495C1085.01 489.634 1084.97 489.125 1084.91 488.959H1084.83C1084.03 488.792 1082.13 488.792 1079.12 488.959L1078.29 490.192Z" fill="#FFF63F"/>
<path fill-rule="evenodd" clip-rule="evenodd" d="M1087.35 468.713C1087.35 477.216 1087.46 482.403 1087.66 484.301C1088.19 489.389 1089.72 494.879 1092.26 500.769C1095.03 499.096 1096.6 498.137 1096.95 497.883C1097.18 497.716 1097.3 496.767 1097.3 495.035C1097.3 484.859 1096.9 476.218 1096.1 469.144C1094.86 458.331 1092.75 451.668 1089.74 449.153C1088.52 450.17 1087.77 453.233 1087.48 458.321C1087.4 459.819 1087.35 463.283 1087.35 468.713Z" fill="#348024"/>
<path fill-rule="evenodd" clip-rule="evenodd" d="M1113.42 469.398C1111.17 472.539 1110.05 482.627 1110.05 499.663C1110.05 500.201 1110.18 501.513 1110.45 503.616C1110.75 505.74 1110.89 507.482 1110.89 508.832C1110.87 508.998 1110.89 509.165 1110.99 509.341C1111.17 509.673 1111.69 509.85 1112.58 509.85C1115.3 509.85 1116.93 507.1 1117.49 501.571C1117.49 495.935 1117.49 492.98 1117.49 492.696C1117.49 486.365 1117.41 482.52 1117.21 481.15C1116.8 477.872 1115.54 473.948 1113.42 469.398Z" fill="#348024"/>
<path fill-rule="evenodd" clip-rule="evenodd" d="M762.465 497.599L753.463 501.239L759.001 494.8L751.065 500.006L759.04 490.622L748.022 498.577L753.521 493.636L748.081 496.483L752.954 491.365L742.268 496.894L747.611 491.845L748.032 490.446L742.904 494.859L751.144 481.991L741.593 490.612L747.709 482.999L752.005 473.557L744.832 479.897L751.134 471.746L748.521 473.263L750.987 469.476L746.76 473.86L763.414 451.912L756.643 459.358L759.725 454.427L757.142 456.579L758.257 453.644L756.936 454.818L764.06 441.178L761.242 444.054L764.872 435.072L763.287 437.322L766.418 426.725V432.782L766.946 438.311L769.207 443.311L767.504 444.935L772.26 451.638L769.08 450.425L777.602 467.48L775.851 465.151L777.72 469.613L781.878 472.49L775.156 472.607L782.798 477.911L776.34 476.326L786.605 489.095L782.769 487.148L786.321 491.317L778.209 488.322L786.115 498.499L777.084 493.675L779.413 497.97L769.129 494.888L768.267 495.24" fill="#40632A"/>
<path fill-rule="evenodd" clip-rule="evenodd" d="M769.099 493.469L768.551 500.26C768.864 503.92 769.999 507.002 771.956 509.517C771.183 509.801 770.4 509.928 769.608 509.898C768.59 509.81 767.573 509.39 766.535 508.656C766.467 508.577 766.379 508.509 766.261 508.431C766.056 508.724 765.831 508.969 765.596 509.184C764.197 510.681 762.641 511.552 760.938 511.816C761.016 511.621 761.085 511.464 761.163 511.337C761.506 510.642 761.829 509.928 762.122 509.194C760.821 509.889 759.49 510.27 758.13 510.368C758.296 510.163 758.472 509.967 758.668 509.771C760.478 507.335 761.652 504.771 762.191 502.09V495.769L769.099 493.469Z" fill="#603813"/>
<rect x="2.5" y="0.5" width="1367" height="767" stroke="black"/>
</svg>
