<svg width="143" height="138" viewBox="0 0 143 138" fill="none" xmlns="http://www.w3.org/2000/svg">
<path d="M68.6023 31.8675C69.0099 28.755 73.5147 28.755 73.9222 31.8674C74.625 37.2345 81.6419 38.5077 84.4257 34.0616C85.2614 32.7268 86.6883 32.4735 87.8812 32.9713C89.055 33.4611 89.7722 34.567 89.3215 36.0148C87.7397 41.0958 93.432 45.337 97.8481 42.3679L98.2583 42.0922C100.774 40.401 103.638 43.6835 101.622 45.9468C98.0428 49.9657 101.721 56.0787 106.876 55.129C108.377 54.8523 109.475 55.7071 109.885 56.8894C110.289 58.0556 109.951 59.2966 108.605 59.9107C103.776 62.1134 104.503 69.1874 109.677 70.3648C111.139 70.6976 111.746 71.8676 111.609 73.0922C111.471 74.3231 110.604 75.3653 109.088 75.3967C103.806 75.5061 101.585 82.269 105.882 85.4299C107.066 86.3012 107.134 87.5681 106.483 88.6252C105.82 89.7031 104.537 90.3198 103.111 89.7399C98.28 87.7761 93.3442 92.9441 96.0169 97.6563C97.5259 100.317 94.0101 102.952 91.8796 100.758L91.5501 100.418L90.4738 101.463L91.5501 100.418C87.8403 96.5964 81.3858 99.5432 81.8435 104.85C81.9765 106.391 81.0184 107.355 79.7634 107.605C78.4972 107.858 77.1687 107.328 76.6337 105.843C74.8272 100.827 67.6974 100.827 65.8908 105.843C65.3559 107.328 64.0274 107.858 62.7612 107.605C61.5062 107.355 60.5481 106.391 60.6811 104.85C61.1388 99.5432 54.6843 96.5963 50.9745 100.418L50.645 100.758C48.5145 102.952 44.9987 100.317 46.5077 97.6563C49.1804 92.9441 44.2446 87.7761 39.4137 89.7399C37.9872 90.3198 36.7048 89.7031 36.0411 88.6252C35.3903 87.5681 35.4584 86.3012 36.6429 85.4299C40.9398 82.269 38.7181 75.5061 33.4367 75.3967C31.9207 75.3653 31.0537 74.3231 30.9157 73.0922C30.7783 71.8676 31.3855 70.6976 32.8477 70.3648C38.0219 69.1874 38.7483 62.1134 33.9194 59.9107C32.5732 59.2966 32.2356 58.0556 32.6398 56.8894C33.0496 55.7071 34.1474 54.8523 35.6491 55.129C40.8037 56.0787 44.4818 49.9657 40.9023 45.9468C38.8864 43.6834 41.7509 40.4011 44.2663 42.0922L44.6764 42.3679C49.0926 45.337 54.7848 41.0958 53.2031 36.0148C52.7524 34.567 53.4696 33.4611 54.6434 32.9713C55.8363 32.4735 57.2632 32.7268 58.0989 34.0616C60.8826 38.5077 67.8996 37.2345 68.6023 31.8675Z" fill="#149FDA" stroke="#021B5B" stroke-width="3"/>
<circle cx="72.3936" cy="70.1311" r="12.0738" fill="#AFD9E3" stroke="#021B5B" stroke-width="3"/>
</svg>
