<svg width="176" height="170" viewBox="0 0 176 170" fill="none" xmlns="http://www.w3.org/2000/svg">
<path d="M84.3165 38.0567C84.8482 33.9959 90.7255 33.9959 91.2573 38.0567L91.4637 39.633C92.2551 45.6775 100.183 47.4054 103.418 42.2385L104.277 40.866C106.454 37.3899 111.805 39.8478 110.586 43.7637L110.285 44.7291C108.461 50.5884 115.025 55.4793 120.118 52.0554L121.007 51.4575C122.704 50.317 124.442 50.8286 125.513 52.1086C126.593 53.3981 126.829 55.2807 125.447 56.8325C121.309 61.4785 125.489 68.6955 131.544 67.5798C133.593 67.2023 135.109 68.3866 135.671 69.9798C136.227 71.554 135.777 73.2783 133.933 74.1195C128.288 76.6948 129.137 84.9655 135.186 86.3422C137.188 86.7977 138.02 88.4254 137.835 90.0799C137.649 91.7406 136.46 93.1849 134.391 93.2278C128.211 93.3558 125.619 101.266 130.64 104.96C133.958 107.4 131.065 112.569 127.25 111.018L126.603 110.755C120.893 108.434 115.46 114.622 118.501 119.983L118.81 120.528C120.836 124.1 116.115 127.639 113.254 124.692L112.277 123.686C108.019 119.3 100.612 122.682 101.137 128.772L101.253 130.118C101.605 134.2 95.8616 135.459 94.4733 131.605L93.9023 130.02C91.8386 124.29 83.7352 124.29 81.6714 130.02L81.1005 131.605C79.7122 135.46 73.9684 134.2 74.3205 130.118L74.4367 128.772C74.962 122.682 67.5543 119.3 63.2968 123.686L62.3197 124.692C59.4587 127.639 54.7375 124.1 56.7639 120.528L57.0727 119.983C60.1136 114.622 54.6811 108.434 48.971 110.755L48.3239 111.018C44.5085 112.569 41.6161 107.4 44.9337 104.96C49.9545 101.266 47.3628 93.3558 41.1829 93.2278C39.1136 93.1849 37.9251 91.7406 37.7388 90.0799C37.5533 88.4254 38.3856 86.7977 40.3874 86.3422C46.437 84.9655 47.2861 76.6948 41.6404 74.1195C39.7963 73.2783 39.3472 71.554 39.9026 69.9798C40.4648 68.3866 41.9807 67.2023 44.0296 67.5798C50.0847 68.6955 54.2652 61.4785 50.1271 56.8325C48.745 55.2807 48.9809 53.3981 50.0603 52.1086C51.1319 50.8285 52.8702 50.317 54.5666 51.4575L55.4559 52.0554C60.5486 55.4793 67.1128 50.5884 65.2887 44.7291L64.9882 43.7636C63.7691 39.8478 69.1201 37.3898 71.2965 40.8659L72.1559 42.2385C75.3909 47.4054 83.3186 45.6775 84.1101 39.633L84.3165 38.0567Z" fill="#2FB108" stroke="#021954" stroke-width="3"/>
<circle cx="89.1803" cy="86.3934" r="15.2213" fill="#AFD9E3" stroke="#021B5B" stroke-width="3"/>
</svg>
