<svg width="239" height="231" viewBox="0 0 239 231" fill="none" xmlns="http://www.w3.org/2000/svg">
<path d="M115.817 38.0566C116.348 33.9959 122.226 33.9958 122.757 38.0567L125.465 58.7376C126.257 64.7821 134.184 66.51 137.419 61.3431L148.589 43.5028C150.766 40.0267 156.117 42.4847 154.898 46.4005L148.857 65.8041C147.033 71.6634 153.597 76.5543 158.69 73.1304L175.916 61.549C179.331 59.2535 183.219 63.7091 180.483 66.7815L167.32 81.56C163.203 86.1818 167.265 93.3971 173.352 92.2756L193.191 88.6201C197.248 87.8725 199.031 93.5343 195.277 95.2465L177.441 103.383C171.782 105.964 172.632 114.254 178.696 115.634L197.9 120.004C201.925 120.92 201.323 126.831 197.196 126.916L177.305 127.328C171.097 127.457 168.586 135.384 173.588 139.063L189.407 150.7C192.727 153.142 189.833 158.314 186.015 156.762L167.044 149.05C161.334 146.729 155.902 152.917 158.943 158.278L168.825 175.703C170.852 179.275 166.13 182.814 163.269 179.867L148.671 164.828C144.413 160.442 137.006 163.824 137.531 169.914L139.302 190.452C139.655 194.533 133.911 195.793 132.522 191.938L125.402 172.17C123.339 166.44 115.235 166.44 113.171 172.17L106.051 191.938C104.663 195.793 98.9192 194.533 99.2713 190.452L101.043 169.914C101.568 163.824 94.1605 160.442 89.9029 164.828L75.3044 179.867C72.4435 182.814 67.7222 179.275 69.7486 175.703L79.6312 158.278C82.6721 152.917 77.2396 146.729 71.5296 149.05L52.5584 156.762C48.7409 158.314 45.847 153.142 49.1664 150.7L64.9861 139.063C69.9875 135.384 67.4767 127.457 61.2691 127.328L41.3781 126.916C37.2505 126.831 36.6484 120.92 40.674 120.004L59.8774 115.634C65.9419 114.254 66.7914 105.964 61.1327 103.383L43.2964 95.2465C39.5426 93.5342 41.3256 87.8725 45.3831 88.6201L65.2222 92.2756C71.3091 93.3971 75.3705 86.1818 71.2539 81.56L58.0911 66.7815C55.3547 63.7091 59.2431 59.2535 62.6576 61.549L79.8838 73.1304C84.9764 76.5543 91.5406 71.6634 89.7166 65.8041L83.676 46.4005C82.4569 42.4846 87.8079 40.0267 89.9843 43.5028L101.154 61.3431C104.389 66.51 112.317 64.7821 113.109 58.7376L115.817 38.0566Z" fill="#072D89" stroke="#021B5B" stroke-width="3"/>
<circle cx="121.18" cy="117.393" r="21.2213" fill="#AFD9E3" stroke="#021B5B" stroke-width="3"/>
</svg>
