<svg width="384" height="300" viewBox="0 0 384 300" fill="none" xmlns="http://www.w3.org/2000/svg">
<path d="M115.817 38.0566C116.348 33.9959 122.226 33.9958 122.757 38.0567L125.465 58.7376C126.257 64.7821 134.184 66.51 137.419 61.3431L148.589 43.5028C150.766 40.0267 156.117 42.4847 154.898 46.4005L148.857 65.8041C147.033 71.6634 153.597 76.5543 158.69 73.1304L175.916 61.549C179.331 59.2535 183.219 63.7091 180.483 66.7815L167.32 81.56C163.203 86.1818 167.265 93.3971 173.352 92.2756L193.191 88.6201C197.248 87.8725 199.031 93.5343 195.277 95.2465L177.441 103.383C171.782 105.964 172.632 114.254 178.696 115.634L197.9 120.004C201.925 120.92 201.323 126.831 197.196 126.916L177.305 127.328C171.097 127.457 168.586 135.384 173.588 139.063L189.407 150.7C192.727 153.142 189.833 158.314 186.015 156.762L167.044 149.05C161.334 146.729 155.902 152.917 158.943 158.278L168.825 175.703C170.852 179.275 166.13 182.814 163.269 179.867L148.671 164.828C144.413 160.442 137.006 163.824 137.531 169.914L139.302 190.452C139.655 194.533 133.911 195.793 132.522 191.938L125.402 172.17C123.339 166.44 115.235 166.44 113.171 172.17L106.051 191.938C104.663 195.793 98.9192 194.533 99.2713 190.452L101.043 169.914C101.568 163.824 94.1605 160.442 89.9029 164.828L75.3044 179.867C72.4435 182.814 67.7222 179.275 69.7486 175.703L79.6312 158.278C82.6721 152.917 77.2396 146.729 71.5296 149.05L52.5584 156.762C48.7409 158.314 45.847 153.142 49.1664 150.7L64.9861 139.063C69.9875 135.384 67.4767 127.457 61.2691 127.328L41.3781 126.916C37.2505 126.831 36.6484 120.92 40.674 120.004L59.8774 115.634C65.9419 114.254 66.7914 105.964 61.1327 103.383L43.2964 95.2465C39.5426 93.5342 41.3256 87.8725 45.3831 88.6201L65.2222 92.2756C71.3091 93.3971 75.3705 86.1818 71.2539 81.56L58.0911 66.7815C55.3547 63.7091 59.2431 59.2535 62.6576 61.549L79.8838 73.1304C84.9764 76.5543 91.5406 71.6634 89.7166 65.8041L83.676 46.4005C82.4569 42.4846 87.8079 40.0267 89.9843 43.5028L101.154 61.3431C104.389 66.51 112.317 64.7821 113.109 58.7376L115.817 38.0566Z" fill="#072D89" stroke="#021B5B" stroke-width="3"/>
<circle cx="121.18" cy="117.393" r="21.2213" fill="#AFD9E3" stroke="#021B5B" stroke-width="3"/>
<path d="M236.602 193.867C237.01 190.755 241.515 190.755 241.922 193.867C242.625 199.235 249.642 200.508 252.426 196.062C253.261 194.727 254.688 194.473 255.881 194.971C257.055 195.461 257.772 196.567 257.322 198.015C255.74 203.096 261.432 207.337 265.848 204.368L266.258 204.092C268.774 202.401 271.638 205.683 269.622 207.947C266.043 211.966 269.721 218.079 274.876 217.129C276.377 216.852 277.475 217.707 277.885 218.889C278.289 220.056 277.951 221.297 276.605 221.911C271.776 224.113 272.503 231.187 277.677 232.365C279.139 232.698 279.746 233.868 279.609 235.092C279.471 236.323 278.604 237.365 277.088 237.397C271.806 237.506 269.585 244.269 273.882 247.43C275.066 248.301 275.134 249.568 274.483 250.625C273.82 251.703 272.537 252.32 271.111 251.74C266.28 249.776 261.344 254.944 264.017 259.656C265.526 262.317 262.01 264.952 259.88 262.758L259.55 262.418L258.474 263.463L259.55 262.418C255.84 258.596 249.386 261.543 249.843 266.85C249.976 268.391 249.018 269.355 247.763 269.605C246.497 269.858 245.169 269.328 244.634 267.843C242.827 262.827 235.697 262.827 233.891 267.843C233.356 269.328 232.027 269.858 230.761 269.605C229.506 269.355 228.548 268.391 228.681 266.85C229.139 261.543 222.684 258.596 218.975 262.418L218.645 262.758C216.514 264.952 212.999 262.317 214.508 259.656C217.18 254.944 212.245 249.776 207.414 251.74C205.987 252.32 204.705 251.703 204.041 250.625C203.39 249.568 203.458 248.301 204.643 247.43C208.94 244.269 206.718 237.506 201.437 237.397C199.921 237.365 199.054 236.323 198.916 235.092C198.778 233.868 199.386 232.698 200.848 232.365C206.022 231.187 206.748 224.113 201.919 221.911C200.573 221.297 200.236 220.056 200.64 218.889C201.05 217.707 202.147 216.852 203.649 217.129C208.804 218.079 212.482 211.966 208.902 207.947C206.886 205.683 209.751 202.401 212.266 204.092L212.676 204.368C217.093 207.337 222.785 203.096 221.203 198.015C220.752 196.567 221.47 195.461 222.643 194.971C223.836 194.473 225.263 194.727 226.099 196.062C228.883 200.508 235.9 199.235 236.602 193.867Z" fill="#149FDA" stroke="#021B5B" stroke-width="3"/>
<circle cx="240.394" cy="232.131" r="12.0738" fill="#AFD9E3" stroke="#021B5B" stroke-width="3"/>
<path d="M292.317 48.0567C292.848 43.9959 298.726 43.9959 299.257 48.0567L299.464 49.633C300.255 55.6775 308.183 57.4054 311.418 52.2385L312.277 50.866C314.454 47.3899 319.805 49.8478 318.586 53.7637L318.285 54.7291C316.461 60.5884 323.025 65.4793 328.118 62.0554L329.007 61.4575C330.704 60.317 332.442 60.8286 333.513 62.1086C334.593 63.3981 334.829 65.2807 333.447 66.8325C329.309 71.4785 333.489 78.6955 339.544 77.5798C341.593 77.2023 343.109 78.3866 343.671 79.9798C344.227 81.554 343.777 83.2783 341.933 84.1195C336.288 86.6948 337.137 94.9655 343.186 96.3422C345.188 96.7977 346.02 98.4254 345.835 100.08C345.649 101.741 344.46 103.185 342.391 103.228C336.211 103.356 333.619 111.266 338.64 114.96C341.958 117.4 339.065 122.569 335.25 121.018L334.603 120.755C328.893 118.434 323.46 124.622 326.501 129.983L326.81 130.528C328.836 134.1 324.115 137.639 321.254 134.692L320.277 133.686C316.019 129.3 308.612 132.682 309.137 138.772L309.253 140.118C309.605 144.2 303.862 145.459 302.473 141.605L301.902 140.02C299.839 134.29 291.735 134.29 289.671 140.02L289.1 141.605C287.712 145.46 281.968 144.2 282.321 140.118L282.437 138.772C282.962 132.682 275.554 129.3 271.297 133.686L270.32 134.692C267.459 137.639 262.737 134.1 264.764 130.528L265.073 129.983C268.114 124.622 262.681 118.434 256.971 120.755L256.324 121.018C252.508 122.569 249.616 117.4 252.934 114.96C257.955 111.266 255.363 103.356 249.183 103.228C247.114 103.185 245.925 101.741 245.739 100.08C245.553 98.4254 246.386 96.7977 248.387 96.3422C254.437 94.9655 255.286 86.6948 249.64 84.1195C247.796 83.2783 247.347 81.554 247.903 79.9798C248.465 78.3866 249.981 77.2023 252.03 77.5798C258.085 78.6955 262.265 71.4785 258.127 66.8325C256.745 65.2807 256.981 63.3981 258.06 62.1086C259.132 60.8285 260.87 60.317 262.567 61.4575L263.456 62.0554C268.549 65.4793 275.113 60.5884 273.289 54.7291L272.988 53.7636C271.769 49.8478 277.12 47.3898 279.297 50.8659L280.156 52.2385C283.391 57.4054 291.319 55.6775 292.11 49.633L292.317 48.0567Z" fill="#2FB108" stroke="#021954" stroke-width="3"/>
<circle cx="297.18" cy="96.3934" r="15.2213" fill="#AFD9E3" stroke="#021B5B" stroke-width="3"/>
</svg>
