<svg width="296" height="503" viewBox="0 0 296 503" fill="none" xmlns="http://www.w3.org/2000/svg">
<path d="M211.476 331.922H105.888C93.0181 331.922 82.5911 321.487 82.5911 308.625V172.342C82.5911 159.472 93.0258 149.045 105.888 149.045H211.476C224.346 149.045 234.773 159.479 234.773 172.342V308.625C234.773 321.487 224.346 331.922 211.476 331.922Z" fill="white" stroke="white" stroke-width="5.6693" stroke-miterlimit="10" stroke-linecap="round" stroke-linejoin="round"/>
<path d="M207.862 335.775H105.487C92.6174 335.775 82.1904 325.341 82.1904 312.478V176.195C82.1904 163.325 92.6251 152.898 105.487 152.898H207.862C220.732 152.898 231.159 163.333 231.159 176.195V312.478C231.166 325.341 220.732 335.775 207.862 335.775Z" fill="white" stroke="white" stroke-width="5.6693" stroke-miterlimit="10" stroke-linecap="round" stroke-linejoin="round"/>
<path d="M110.913 77.6585C110.913 77.6585 106.35 73.6048 104.324 74.6144C102.297 75.6317 97.7344 81.2035 99.7613 87.8004C101.788 94.3895 113.456 103.522 113.456 103.522L110.913 77.6585Z" fill="white" stroke="white" stroke-width="5.6693" stroke-miterlimit="10" stroke-linecap="round" stroke-linejoin="round"/>
<path d="M199.153 101.495C199.153 101.495 201.18 104.03 206.76 97.9422C212.339 91.854 212.339 84.2476 211.83 81.7121C211.322 79.1767 208.786 73.5971 203.207 73.0885C197.627 72.5875 199.153 101.495 199.153 101.495Z" fill="white" stroke="white" stroke-width="5.6693" stroke-miterlimit="10" stroke-linecap="round" stroke-linejoin="round"/>
<path d="M118.404 190.275L124.569 147.118L136.776 144.598C136.776 144.598 137.924 143.265 157.707 143.265C171.402 143.265 175.317 144.598 176.835 144.598L189.304 147.118L195.6 189.728C195.6 189.728 194.583 271.371 192.048 275.934C186.722 285.521 118.01 273.907 118.01 273.907L118.519 190.236" fill="white"/>
<path d="M118.404 190.275L124.569 147.118L136.776 144.598C136.776 144.598 137.924 143.265 157.707 143.265C171.402 143.265 175.317 144.598 176.835 144.598L189.304 147.118L195.6 189.728C195.6 189.728 194.583 271.371 192.048 275.934C186.722 285.521 118.01 273.907 118.01 273.907L118.519 190.236" stroke="white" stroke-width="5.6693" stroke-miterlimit="10" stroke-linecap="round" stroke-linejoin="round"/>
<path d="M193.574 275.448H118.018V317.033H193.574V275.448Z" fill="white" stroke="white" stroke-width="5.6693" stroke-miterlimit="10" stroke-linecap="round" stroke-linejoin="round"/>
<path d="M224.253 337.74H88.3478C82.6064 337.74 77.9517 333.086 77.9517 327.344C77.9517 321.603 82.6064 316.948 88.3478 316.948H224.253C229.995 316.948 234.65 321.603 234.65 327.344C234.65 333.086 229.995 337.74 224.253 337.74Z" fill="white" stroke="white" stroke-width="5.6693" stroke-miterlimit="10" stroke-linecap="round" stroke-linejoin="round"/>
<path d="M84.04 270.362H74.4067V412.965H84.04V270.362Z" fill="white" stroke="white" stroke-width="5.6693" stroke-miterlimit="10" stroke-linecap="round" stroke-linejoin="round"/>
<path d="M238.703 270.362H229.07V412.965H238.703V270.362Z" fill="white" stroke="white" stroke-width="5.6693" stroke-miterlimit="10" stroke-linecap="round" stroke-linejoin="round"/>
<path d="M89.897 270.423H66.0604C61.2978 270.423 57.4368 266.562 57.4368 261.8V260.967C57.4368 256.205 61.2978 252.344 66.0604 252.344H89.897C94.6596 252.344 98.5206 256.205 98.5206 260.967V261.8C98.5206 266.562 94.6596 270.423 89.897 270.423Z" fill="white" stroke="white" stroke-width="5.6693" stroke-miterlimit="10" stroke-linecap="round" stroke-linejoin="round"/>
<path d="M247.027 270.424H223.19C218.427 270.424 214.566 266.563 214.566 261.8V260.197C214.566 255.434 218.427 251.573 223.19 251.573H247.027C251.789 251.573 255.65 255.434 255.65 260.197V261.8C255.643 266.563 251.782 270.424 247.027 270.424Z" fill="white" stroke="white" stroke-width="5.6693" stroke-miterlimit="10" stroke-linecap="round" stroke-linejoin="round"/>
<path d="M143.512 423.785H81.3581C76.6725 423.785 72.8809 419.993 72.8809 415.307V412.957H151.989V415.307C151.989 419.985 148.197 423.785 143.512 423.785Z" fill="white" stroke="white" stroke-width="5.6693" stroke-miterlimit="10" stroke-linecap="round" stroke-linejoin="round"/>
<path d="M231.243 423.785H169.09C164.404 423.785 160.613 419.993 160.613 415.307V412.957H239.721V415.307C239.721 419.985 235.921 423.785 231.243 423.785Z" fill="white" stroke="white" stroke-width="5.6693" stroke-miterlimit="10" stroke-linecap="round" stroke-linejoin="round"/>
<path d="M74.4066 373.299H65.783V384.458H74.4066V373.299Z" fill="white" stroke="white" stroke-width="5.6693" stroke-miterlimit="10" stroke-linecap="round" stroke-linejoin="round"/>
<path d="M247.327 373.299H238.703V384.458H247.327V373.299Z" fill="white" stroke="white" stroke-width="5.6693" stroke-miterlimit="10" stroke-linecap="round" stroke-linejoin="round"/>
<path d="M171.772 126.85C171.772 126.85 169.745 142.571 171.772 143.581C173.798 144.59 177.12 144.505 176.981 145.577C176.819 146.817 172.357 154.054 158.077 154.74C144.598 155.387 136.005 146.91 136.907 145.577C137.801 144.243 140.922 144.752 142.864 143.581C145.4 142.062 143.373 126.85 143.373 126.85H171.772Z" fill="white" stroke="white" stroke-width="5.6693" stroke-miterlimit="10" stroke-linecap="round" stroke-linejoin="round"/>
<path d="M205.234 62.9545C205.234 62.9545 202.189 93.3801 199.145 101.495C196.101 109.61 187.986 126.85 172.773 131.412C157.561 135.974 143.866 132.93 136.26 130.395C128.653 127.859 114.458 108.593 113.44 103.522C112.423 98.451 107.861 83.2382 109.888 64.4727C111.915 45.7071 123.582 31.0029 123.582 31.0029L171.756 24.4138L199.646 40.1353L205.234 62.9545Z" fill="white" stroke="white" stroke-width="5.6693" stroke-miterlimit="10" stroke-linecap="round" stroke-linejoin="round"/>
<path d="M124.26 67.5552C128.792 64.5728 134.618 63.6403 139.851 65.0583L124.26 67.5552Z" fill="white"/>
<path d="M124.145 67.378C125.101 66.3376 126.249 65.4514 127.49 64.6961L128.445 64.1644L129.439 63.6866L130.472 63.2858L131.528 62.939C131.882 62.8389 132.245 62.731 132.607 62.6077L133.709 62.2917C134.079 62.2223 134.456 62.153 134.834 62.1453C135.212 62.1453 135.589 62.1915 135.967 62.2609C137.447 62.6154 138.911 63.3321 139.928 64.858C140.021 64.989 139.982 65.174 139.851 65.2587C139.843 65.2664 139.836 65.2741 139.82 65.2741H139.812C138.209 66.091 136.976 66.3993 135.759 66.6151C135.15 66.723 134.564 66.7153 133.955 66.5997L133.031 66.4455C132.722 66.407 132.406 66.3916 132.09 66.3839L131.15 66.407L130.202 66.4841L129.247 66.5765L128.283 66.723C126.996 66.9311 125.709 67.2856 124.399 67.7325C124.284 67.7711 124.153 67.7094 124.114 67.5938C124.068 67.5245 124.091 67.432 124.145 67.378Z" fill="white"/>
<path d="M186.507 67.5552C181.975 64.5728 176.149 63.6403 170.916 65.0583L186.507 67.5552Z" fill="white"/>
<path d="M186.383 67.7403C185.073 67.2933 183.794 66.9388 182.499 66.7307L181.536 66.5843L180.58 66.4918L179.632 66.4147L178.692 66.3916C178.376 66.407 178.068 66.4224 177.752 66.4533L176.827 66.6074C176.218 66.723 175.633 66.7307 175.024 66.6228C173.799 66.3993 172.566 66.0987 170.97 65.2818H170.963C170.816 65.2125 170.762 65.0352 170.839 64.8888C170.847 64.8811 170.847 64.8657 170.855 64.858C171.872 63.3321 173.328 62.6154 174.816 62.2609C175.186 62.1915 175.571 62.1453 175.949 62.1453C176.326 62.153 176.704 62.2223 177.074 62.2917L178.176 62.6077C178.538 62.731 178.893 62.8389 179.255 62.939L180.311 63.2858L181.343 63.6866L182.337 64.1644L183.293 64.6961C184.534 65.4591 185.674 66.3377 186.638 67.378C186.723 67.4705 186.715 67.6092 186.622 67.694C186.545 67.748 186.46 67.7634 186.383 67.7403Z" fill="white"/>
<path d="M134.264 87.8004C137.064 87.8004 139.335 84.7365 139.335 80.957C139.335 77.1774 137.064 74.1135 134.264 74.1135C131.463 74.1135 129.193 77.1774 129.193 80.957C129.193 84.7365 131.463 87.8004 134.264 87.8004Z" fill="white" stroke="white" stroke-width="5.6693" stroke-miterlimit="10" stroke-linecap="round" stroke-linejoin="round"/>
<path d="M176.311 88.309C179.112 88.309 181.382 85.245 181.382 81.4655C181.382 77.686 179.112 74.6221 176.311 74.6221C173.51 74.6221 171.24 77.686 171.24 81.4655C171.24 85.245 173.51 88.309 176.311 88.309Z" fill="white" stroke="white" stroke-width="5.6693" stroke-miterlimit="10" stroke-linecap="round" stroke-linejoin="round"/>
<path d="M154.717 98.9749C152.968 99.2061 151.149 97.9422 150.763 96.2236C150.501 95.083 150.825 93.8808 151.349 92.8327C151.881 91.7923 152.605 90.8675 153.253 89.8888C154.54 87.9313 155.464 85.7426 156.089 83.4846" fill="white"/>
<path d="M154.717 98.9749C154.023 99.9998 152.652 100.439 151.257 100.324C150.216 99.6299 149.315 98.6743 148.845 97.395C148.359 96.1003 148.436 94.821 148.69 93.7344C148.952 92.6478 149.438 91.6998 149.923 90.9138C150.417 90.12 150.91 89.4572 151.318 88.8484C151.719 88.255 152.074 87.6308 152.405 86.9911C152.729 86.3438 153.029 85.681 153.291 84.9951C154.177 84.5481 155.025 84.0241 156.089 83.4846C156.713 84.4942 157.067 85.5037 157.376 86.5596C157.06 87.3765 156.705 88.1856 156.305 88.9717C155.904 89.7578 155.449 90.5361 154.956 91.276C154.47 92.0004 154.008 92.6323 153.653 93.2103C153.299 93.7883 153.06 94.297 152.944 94.7825C152.829 95.2526 152.852 95.661 152.944 95.8768C153.029 96.1157 153.253 96.4317 153.576 96.5781C153.538 97.3025 153.815 98.1657 154.717 98.9749Z" fill="white"/>
<path d="M56.4041 473.708C51.2252 473.708 47.0251 469.508 47.0251 464.329V294.445C47.0251 289.266 51.2252 285.066 56.4041 285.066C61.5829 285.066 65.783 289.266 65.783 294.445V464.321C65.783 469.508 61.5829 473.708 56.4041 473.708Z" fill="white" stroke="white" stroke-width="5.6693" stroke-miterlimit="10" stroke-linecap="round" stroke-linejoin="round"/>
<path d="M47.0174 452.916H44.8287C40.9986 452.916 37.8928 449.81 37.8928 445.98V312.794C37.8928 308.964 40.9986 305.858 44.8287 305.858H47.0174V452.916Z" fill="white" stroke="white" stroke-width="5.6693" stroke-miterlimit="10" stroke-linecap="round" stroke-linejoin="round"/>
<path d="M256.706 473.708C251.527 473.708 247.327 469.508 247.327 464.329V294.445C247.327 289.266 251.527 285.066 256.706 285.066C261.885 285.066 266.085 289.266 266.085 294.445V464.321C266.093 469.508 261.893 473.708 256.706 473.708Z" fill="white" stroke="white" stroke-width="5.6693" stroke-miterlimit="10" stroke-linecap="round" stroke-linejoin="round"/>
<path d="M266.093 450.38H268.281C272.112 450.38 275.217 447.274 275.217 443.444V310.259C275.217 306.429 272.112 303.323 268.281 303.323H266.093V450.38Z" fill="white" stroke="white" stroke-width="5.6693" stroke-miterlimit="10" stroke-linecap="round" stroke-linejoin="round"/>
<path d="M203.715 80.7027C203.715 80.7027 190.529 49.2598 189.011 42.6707C187.493 36.0815 182.422 51.7953 149.453 53.8298C116.484 55.8644 111.93 57.8835 111.93 57.8835L109.649 80.957C109.649 80.957 99.7612 65.9985 101.788 38.1084C103.815 10.2182 113.448 19.3428 113.448 19.3428C113.448 19.3428 108.377 7.68277 117.001 5.64823C125.625 3.61369 144.382 2.09549 148.945 3.6214C153.507 5.13959 162.131 8.69233 162.131 8.69233C162.131 8.69233 162.131 1.08593 171.764 4.63867C181.397 8.1914 198.136 7.68277 203.708 25.431C209.28 43.1793 208.278 75.6317 203.715 80.7027Z" fill="white" stroke="white" stroke-width="5.6693" stroke-miterlimit="10" stroke-linecap="round" stroke-linejoin="round"/>
<path opacity="0.1" d="M143.966 132.915C143.966 132.915 160.613 135.974 170.916 131.936C172.72 131.227 168.219 139.018 157.068 138.51C145.908 138.001 143.966 132.915 143.966 132.915Z" fill="white" stroke="white" stroke-width="5.6693" stroke-miterlimit="10" stroke-linecap="round" stroke-linejoin="round"/>
<path d="M140.83 110.311C144.128 111.383 145.97 111.544 149.199 111.891C150.663 112.045 153.307 112.346 154.779 112.4C158.825 112.531 162.285 112.408 166.947 111.891C168.142 111.76 170.4 111.329 171.51 110.874C172.619 110.427 172.812 109.009 173.028 107.83C172.25 107.437 171.101 107.907 170.23 108.007C169.529 108.092 168.643 107.668 167.957 107.83C166.924 108.061 165.969 108.323 164.913 108.339C156.613 108.47 148.359 108.947 140.221 107.321C140.067 107.838 140.498 108.994 140.575 109.864" fill="white"/>
<path d="M139.088 116.631C142.525 117.733 146.07 118.11 149.646 118.496C152.683 118.827 155.688 119.043 158.748 118.997C162.501 118.943 166.323 118.665 170.022 118.018C171.81 117.702 173.652 117.255 175.217 116.315C177.644 114.851 178.862 112.269 179.355 109.587C179.663 107.899 179.671 106.05 178.692 104.539C177.714 103.029 176.45 102.173 174.777 101.526C172.697 100.724 170.585 101.387 168.496 101.703C169.074 101.626 169.66 101.549 170.238 101.472C170.053 101.487 169.868 101.487 169.683 101.457C170.261 101.534 170.847 101.611 171.425 101.688C170.277 101.503 169.121 101.218 167.957 101.287C166.67 101.364 165.468 101.734 164.204 101.942C164.782 101.865 165.368 101.788 165.946 101.711C164.127 101.942 162.231 101.85 160.397 101.888C158.516 101.927 156.636 101.965 154.763 101.965C151.018 101.965 147.28 101.819 143.566 101.333C144.144 101.41 144.729 101.487 145.307 101.564C144.19 101.41 143.08 101.225 141.97 101.01C140.298 100.686 138.418 100.709 136.923 101.672C135.566 102.543 134.202 103.938 133.909 105.587C133.624 107.206 133.632 108.169 133.925 109.81C134.017 110.327 134.141 110.828 134.233 111.344C134.156 110.766 134.079 110.18 134.002 109.602C134.01 109.695 134.025 109.78 134.033 109.872C134.248 111.668 134.618 113.178 135.952 114.504C137.084 115.637 138.949 116.5 140.583 116.423C142.279 116.346 144.036 115.791 145.215 114.504C146.309 113.309 147.334 111.552 147.134 109.872C146.987 108.624 146.741 107.429 146.54 106.196C146.618 106.774 146.695 107.36 146.772 107.938C146.749 107.791 146.741 107.645 146.748 107.499C146.671 108.077 146.594 108.662 146.517 109.24C146.525 109.186 146.54 109.125 146.548 109.071C143.859 110.597 141.177 112.122 138.487 113.648C143.666 114.666 148.929 115.051 154.201 115.066C156.582 115.074 158.963 115.02 161.337 114.974C164.181 114.912 166.909 114.804 169.699 114.165C169.121 114.242 168.535 114.319 167.957 114.396C168.258 114.357 168.496 114.373 168.797 114.404C168.219 114.327 167.633 114.249 167.055 114.172C168.419 114.411 169.722 114.643 171.109 114.458C171.98 114.342 172.835 114.142 173.706 114.026C173.128 114.103 172.542 114.18 171.964 114.257C172.149 114.234 172.342 114.234 172.527 114.249C171.949 114.172 171.363 114.095 170.785 114.018C170.963 114.034 171.132 114.08 171.294 114.165C169.768 111.475 168.242 108.793 166.716 106.104C166.601 106.751 166.485 107.391 166.246 108.007C166.47 107.483 166.685 106.967 166.909 106.443C166.809 106.658 166.709 106.843 166.57 107.036C166.909 106.597 167.256 106.15 167.595 105.711C167.502 105.826 167.402 105.934 167.279 106.027C167.718 105.687 168.165 105.341 168.604 105.002C168.481 105.094 168.35 105.171 168.211 105.233C168.735 105.009 169.252 104.794 169.776 104.57C168.458 105.071 167.04 105.325 165.645 105.533C166.223 105.456 166.809 105.379 167.387 105.302C160.289 106.242 153.214 105.942 146.147 105.009C146.725 105.086 147.311 105.163 147.889 105.24C146.078 104.986 144.321 104.57 142.579 104.007C139.312 102.959 135.281 105.233 134.518 108.585C133.694 112.153 135.589 115.506 139.088 116.631Z" fill="white"/>
<path d="M139.82 107.075C139.82 107.075 149.962 108.593 157.06 108.593C164.157 108.593 172.781 107.576 172.781 107.576C172.781 107.576 173.798 119.744 157.06 120.253C140.321 120.762 139.82 107.075 139.82 107.075Z" fill="white" stroke="white" stroke-width="5.6693" stroke-miterlimit="10" stroke-linecap="round" stroke-linejoin="round"/>
<path d="M142.417 113.348C144.56 112.77 146.825 112.939 149.037 113.117C152.914 113.425 156.798 113.733 160.674 114.057C163.387 114.28 166.939 114.989 169.483 115.945C169.421 116.862 168.311 117.124 167.456 117.463C166.546 117.825 165.868 118.742 164.92 118.981C164.003 119.212 163.325 119.374 162.385 119.49C160.582 119.713 159.117 120.284 157.314 120.507C156.613 120.592 153.969 120.022 153.26 119.999C151.704 119.952 150.155 119.536 148.698 118.981C147.95 118.696 147.419 118.249 146.671 117.964C146.232 117.794 145.538 117.224 145.153 116.947C144.76 116.669 144.452 116.299 144.136 115.929C143.511 115.19 142.733 114.642 142.109 113.903" fill="white"/>
<path d="M144.159 119.667C144.614 119.552 145.068 119.467 145.531 119.398C144.953 119.475 144.367 119.552 143.789 119.629C146.825 119.259 149.954 119.744 152.983 119.983C156.035 120.23 159.11 120.384 162.146 120.769C161.568 120.692 160.982 120.615 160.404 120.538C162.894 120.877 165.383 121.401 167.749 122.264C166.223 119.575 164.697 116.893 163.171 114.203C163.163 114.35 163.125 114.481 163.055 114.612C163.279 114.088 163.495 113.571 163.718 113.047C163.68 113.101 163.641 113.163 163.61 113.217C163.949 112.778 164.296 112.331 164.635 111.891C164.543 111.999 164.443 112.092 164.327 112.176C164.766 111.837 165.213 111.491 165.653 111.151C165.452 111.275 165.26 111.375 165.044 111.475C165.568 111.252 166.084 111.036 166.608 110.812C165.583 111.221 164.489 111.529 163.564 112.13C162.986 112.508 162.501 112.963 161.869 113.248C162.393 113.024 162.909 112.808 163.433 112.585C162.639 112.839 161.807 113.001 160.99 113.124C161.568 113.047 162.154 112.97 162.732 112.893C161.283 113.086 159.857 113.263 158.439 113.602C157.491 113.826 156.543 114.057 155.58 114.188C156.158 114.111 156.744 114.034 157.322 113.957C156.944 113.987 156.559 113.926 156.189 113.88C156.767 113.957 157.353 114.034 157.931 114.111C156.019 113.841 154.108 113.579 152.189 113.363C152.767 113.44 153.353 113.517 153.931 113.594C152.729 113.417 151.58 113.086 150.44 112.67C150.964 112.893 151.48 113.109 152.004 113.332C150.74 112.801 149.561 112.107 148.451 111.306C148.891 111.645 149.338 111.991 149.777 112.331C149.222 111.899 148.821 111.344 148.328 110.851C147.804 110.327 147.234 109.849 146.733 109.294C144.444 106.728 139.766 106.79 137.462 109.294C134.95 112.03 135.019 115.822 137.462 118.565C138.279 119.475 139.188 120.392 140.067 121.239C141.146 122.28 142.463 123.189 143.804 123.852C145.392 124.63 146.949 125.424 148.66 125.886C150.286 126.326 151.973 126.41 153.638 126.603C153.06 126.526 152.474 126.449 151.896 126.372C153.607 126.603 155.341 127.058 157.067 127.089C159.441 127.127 161.784 126.156 164.119 125.833C163.541 125.91 162.955 125.987 162.377 126.064C164.211 125.817 165.976 125.632 167.687 124.908C168.365 124.623 168.92 124.376 169.498 123.944C169.907 123.644 170.284 123.351 170.754 123.143C170.23 123.366 169.714 123.582 169.19 123.806C170.23 123.405 171.302 123.058 172.257 122.48C173.929 121.471 175.463 119.667 175.802 117.702C176.095 115.999 176.126 114.18 175.139 112.654C174.168 111.151 172.904 110.257 171.224 109.641C166.585 107.946 161.614 107.591 156.728 107.198C154.224 106.998 151.719 106.797 149.222 106.597C146.332 106.366 143.512 106.335 140.668 107.044C137.339 107.876 135.019 111.791 136.09 115.105C137.208 118.534 140.591 120.561 144.159 119.667Z" fill="white"/>
<path d="M149.453 408.256H105.333V294.298C105.333 282.114 115.213 272.242 127.39 272.242C139.574 272.242 149.446 282.122 149.446 294.298V408.256H149.453Z" fill="white" stroke="white" stroke-width="5.6693" stroke-miterlimit="10" stroke-linecap="round" stroke-linejoin="round"/>
<path d="M207.769 408.256H163.649V294.298C163.649 282.114 173.529 272.242 185.705 272.242C197.889 272.242 207.761 282.122 207.761 294.298V408.256H207.769Z" fill="white" stroke="white" stroke-width="5.6693" stroke-miterlimit="10" stroke-linecap="round" stroke-linejoin="round"/>
<path d="M99.7614 406.838C99.7614 406.838 112.046 387.541 125.178 388.011C138.31 388.481 150.594 404.48 151.018 406.838C151.442 409.188 151.442 412.487 149.746 413.897C148.051 415.307 103.568 415.777 101.873 414.367C100.185 412.957 98.0659 412.957 99.7614 406.838Z" fill="white" stroke="white" stroke-width="5.6693" stroke-miterlimit="10" stroke-linecap="round" stroke-linejoin="round"/>
<path d="M161.984 406.838C161.984 406.838 173.837 387.541 186.499 388.011C199.161 388.481 211.014 404.48 211.422 406.838C211.83 409.196 211.83 412.487 210.197 413.897C208.563 415.307 165.66 415.777 164.027 414.367C162.4 412.957 160.35 412.957 161.984 406.838Z" fill="white" stroke="white" stroke-width="5.6693" stroke-miterlimit="10" stroke-linecap="round" stroke-linejoin="round"/>
<path d="M195.469 190.275L189.304 147.118C189.304 147.118 202.76 148.359 211.653 160.219C213.965 163.302 215.383 166.354 217.819 171.009C222.52 179.979 226.296 194.128 226.296 196.44C226.296 199.307 199.323 201.064 199.323 201.064L195.469 190.275Z" fill="white" stroke="white" stroke-width="5.6693" stroke-miterlimit="10" stroke-linecap="round" stroke-linejoin="round"/>
<path d="M79.1 181.027C79.6317 180.403 84.1709 185.127 89.2727 192.425C94.3821 199.723 98.089 206.151 97.5572 206.775C97.0255 207.399 92.4555 201.989 87.346 194.683C82.2443 187.385 78.5682 181.651 79.1 181.027Z" fill="white" stroke="white" stroke-width="5.6693" stroke-miterlimit="10" stroke-linecap="round" stroke-linejoin="round"/>
<path d="M212.6 200.284C219.856 199.135 225.645 197.617 225.53 196.894C225.416 196.171 219.441 196.517 212.185 197.665C204.929 198.814 199.14 200.332 199.254 201.055C199.369 201.778 205.344 201.433 212.6 200.284Z" fill="white" stroke="white" stroke-width="5.6693" stroke-miterlimit="10" stroke-linecap="round" stroke-linejoin="round"/>
<path d="M201.635 199.523L215.283 235.875C215.283 235.875 218.836 247.535 220.354 249.569C221.872 251.596 222.658 253.122 222.658 253.122C222.658 253.122 223.907 255.149 224.415 258.193C224.924 261.237 224.924 263.773 227.46 263.264C229.995 262.755 228.477 251.095 228.477 251.095C228.477 251.095 234.565 252.614 235.066 255.658C235.567 258.702 236.784 265.175 237.601 266.817C238.619 268.844 239.52 269.491 240.646 269.352C244.699 268.844 242.094 263.958 242.672 264.79C246.225 269.861 249.292 264.882 248.252 262.255C248.252 262.255 250.787 264.79 251.805 263.773C252.822 262.755 251.805 259.21 251.805 259.21C251.805 259.21 253.323 258.193 253.831 257.184C254.34 256.166 252.814 253.13 249.269 249.577C245.716 246.024 236.083 243.998 234.565 241.462C233.047 238.927 220.146 196.448 220.146 196.448L201.635 199.523Z" fill="white" stroke="white" stroke-width="5.6693" stroke-miterlimit="10" stroke-linecap="round" stroke-linejoin="round"/>
<path d="M251.797 259.203C251.797 259.203 248.267 250.001 240.561 247.689L251.797 259.203Z" fill="white"/>
<path d="M251.797 259.203C250.441 258.278 249.4 257.361 248.429 256.444C247.466 255.519 246.595 254.617 245.77 253.692C244.938 252.775 244.129 251.881 243.312 250.91C242.487 249.932 241.601 248.999 240.561 247.681C242.141 247.25 243.798 247.465 245.246 248.067C246.687 248.683 247.99 249.608 249.007 250.748C250.032 251.881 250.818 253.199 251.335 254.609C251.82 256.043 252.105 257.569 251.797 259.203Z" fill="white"/>
<path d="M248.244 262.247C248.244 262.247 245.177 253.854 239.012 250.001L248.244 262.247Z" fill="white"/>
<path d="M248.244 262.247C246.934 261.368 245.979 260.466 245.092 259.542C244.221 258.609 243.459 257.669 242.765 256.698C242.071 255.719 241.424 254.74 240.823 253.662C240.214 252.575 239.613 251.488 239.02 250.001C240.592 249.947 242.033 250.471 243.258 251.234C244.468 252.012 245.516 253.006 246.318 254.155C247.127 255.295 247.736 256.559 248.106 257.908C248.452 259.257 248.622 260.698 248.244 262.247Z" fill="white"/>
<path d="M242.664 264.782C242.664 264.782 242.271 255.396 235.251 250.001L242.664 264.782Z" fill="white"/>
<path d="M242.664 264.782C241.663 263.441 240.946 262.239 240.283 261.044C239.636 259.85 239.042 258.709 238.495 257.561C237.956 256.405 237.424 255.272 236.892 254.07C236.391 252.821 235.775 251.635 235.251 250.009C236.9 250.194 238.41 250.91 239.597 251.951C240.807 252.976 241.786 254.263 242.441 255.681C243.111 257.091 243.504 258.617 243.589 260.166C243.659 261.699 243.474 263.287 242.664 264.782Z" fill="white"/>
<path d="M82.2188 458.743H88.6692V417.621H82.2188V458.743Z" fill="white" stroke="white" stroke-width="5.6693" stroke-miterlimit="10" stroke-linecap="round" stroke-linejoin="round"/>
<path d="M88.6714 454.226H78.9919V460.676H88.6714V454.226Z" fill="white" stroke="white" stroke-width="5.6693" stroke-miterlimit="10" stroke-linecap="round" stroke-linejoin="round"/>
<path d="M75.4701 486.586H70.7228C68.7808 486.586 67.2009 485.006 67.2009 483.064V433.965C67.2009 432.023 68.7808 430.443 70.7228 430.443H75.4701C77.4121 430.443 78.992 432.023 78.992 433.965V483.064C78.992 485.006 77.4121 486.586 75.4701 486.586Z" fill="white" stroke="white" stroke-width="5.6693" stroke-miterlimit="10" stroke-linecap="round" stroke-linejoin="round"/>
<path d="M67.2009 479.164H65.9601C64.9429 479.164 64.126 478.339 64.126 477.33V439.699C64.126 438.681 64.9506 437.865 65.9601 437.865H67.2009V479.164Z" fill="white" stroke="white" stroke-width="5.6693" stroke-miterlimit="10" stroke-linecap="round" stroke-linejoin="round"/>
<path d="M231.644 413.766H225.194V454.888H231.644V413.766Z" fill="white" stroke="white" stroke-width="5.6693" stroke-miterlimit="10" stroke-linecap="round" stroke-linejoin="round"/>
<path d="M225.195 456.829L234.874 456.829L234.874 450.378L225.195 450.378L225.195 456.829Z" fill="white" stroke="white" stroke-width="5.6693" stroke-miterlimit="10" stroke-linecap="round" stroke-linejoin="round"/>
<path d="M238.395 482.732H243.142C245.084 482.732 246.664 481.152 246.664 479.21V430.112C246.664 428.17 245.084 426.59 243.142 426.59H238.395C236.453 426.59 234.873 428.17 234.873 430.112V479.21C234.873 481.152 236.453 482.732 238.395 482.732Z" fill="white" stroke="white" stroke-width="5.6693" stroke-miterlimit="10" stroke-linecap="round" stroke-linejoin="round"/>
<path d="M246.664 475.311H247.905C248.922 475.311 249.739 474.486 249.739 473.477V435.845C249.739 434.828 248.915 434.011 247.905 434.011H246.664V475.311Z" fill="white" stroke="white" stroke-width="5.6693" stroke-miterlimit="10" stroke-linecap="round" stroke-linejoin="round"/>
<path d="M124.569 147.118L79.3542 180.965L97.7345 207.075L118.404 189.504L124.569 147.118Z" fill="white" stroke="white" stroke-width="5.6693" stroke-miterlimit="10" stroke-linecap="round" stroke-linejoin="round"/>
<path d="M96.8251 205.688C96.8251 205.688 65.5902 223.406 60.7119 224.122C49.8148 225.725 33.9084 150.455 33.9084 150.455L49.4911 143.966L67.6171 196.494L82.9532 185.651L96.8251 205.688Z" fill="white" stroke="white" stroke-width="5.6693" stroke-miterlimit="10" stroke-linecap="round" stroke-linejoin="round"/>
<path d="M53.6682 156.366C53.6682 156.366 46.2159 132.229 46.5704 130.187C46.9249 128.144 49.4989 119.467 52.0113 116.585C54.5236 113.702 61.9142 107.56 63.1242 106.959C64.3341 106.358 65.336 104.978 64.1492 103.653C62.9623 102.327 59.1013 99.2602 54.0304 102.836C48.9595 106.412 45.9847 108.601 45.9847 108.601C45.9847 108.601 43.4955 103.507 43.1487 102.227C42.8019 100.948 40.6826 89.1568 40.1046 86.0203C39.5266 82.8837 37.8235 75.6472 37.6154 74.8842C37.4073 74.1213 35.8274 72.3488 34.1937 72.9345C32.5676 73.5125 31.034 74.9613 31.3037 76.4333C31.5734 77.9052 33.6388 93.5573 33.9162 94.5823C34.1937 95.6073 34.6175 99.16 34.5482 99.4066C34.4788 99.6532 33.6619 100.701 33.0608 99.4914C32.4597 98.2814 24.73 74.4912 24.73 74.4912C24.73 74.4912 23.6125 71.2622 22.1714 70.846C20.7302 70.4298 17.2777 72.4952 17.2854 73.7128C17.2931 74.9382 21.1002 88.5249 21.9633 90.8677C22.8264 93.2105 25.7087 101.773 25.9168 102.535C26.1249 103.306 26.1403 104.47 24.807 103.56C23.4738 102.651 17.7478 87.7234 16.9386 85.7428C16.1217 83.7699 15.1738 81.2807 14.7037 80.5794C14.2413 79.8781 12.0989 79.092 10.704 80.0245C9.30908 80.957 8.82357 82.1901 9.17037 83.4694C9.51716 84.7487 16.6843 103.953 17.2854 105.163C17.8865 106.373 18.3104 107.907 18.3797 108.161C18.4491 108.416 18.0792 109.071 17.3548 108.439C16.6303 107.807 9.10872 92.7789 8.47678 91.7386C7.84484 90.6982 5.89507 89.5807 4.23815 90.5826C2.58894 91.5844 2.8895 93.696 3.42126 94.6516C3.95301 95.6073 11.5594 111.398 12.2376 112.862C12.9158 114.327 14.6575 123.744 17.3548 126.58C20.0521 129.416 25.4698 133.408 28.8838 135.003C29.9627 135.504 36.9064 161.26 37.4767 163.302C38.0624 165.344 53.6682 156.366 53.6682 156.366Z" fill="white" stroke="white" stroke-width="5.6693" stroke-miterlimit="10" stroke-linecap="round" stroke-linejoin="round"/>
<path d="M45.9077 108.423C45.9077 108.423 42.9946 109.695 42.7172 110.18C42.4397 110.666 35.1108 114.041 33.6697 118.835C32.2285 123.628 31.8817 125.37 31.8817 125.37C31.8817 125.37 30.2094 122.257 31.8586 118.234C33.5078 114.211 40.0661 110.365 41.2992 109.687C42.5323 109.009 45.3528 107.267 45.3528 107.267L45.9077 108.423Z" fill="white" stroke="white" stroke-width="5.6693" stroke-miterlimit="10" stroke-linecap="round" stroke-linejoin="round"/>
<path d="M211.476 333.463H105.888C93.0181 333.463 82.5911 323.029 82.5911 310.166V173.883C82.5911 161.013 93.0258 150.586 105.888 150.586H211.476C224.346 150.586 234.773 161.021 234.773 173.883V310.166C234.773 323.029 224.346 333.463 211.476 333.463Z" fill="#1A1A1A"/>
<path d="M207.862 337.317H105.487C92.6174 337.317 82.1904 326.882 82.1904 314.02V177.736C82.1904 164.866 92.6251 154.439 105.487 154.439H207.862C220.732 154.439 231.159 164.874 231.159 177.736V314.02C231.166 326.882 220.732 337.317 207.862 337.317Z" fill="#333333"/>
<path d="M110.913 79.1997C110.913 79.1997 106.35 75.1461 104.324 76.1556C102.297 77.1729 97.7344 82.7448 99.7613 89.3416C101.788 95.9307 113.456 105.063 113.456 105.063L110.913 79.1997Z" fill="#E3BB94"/>
<path d="M199.153 103.036C199.153 103.036 201.18 105.572 206.76 99.4835C212.339 93.3953 212.339 85.7889 211.83 83.2534C211.322 80.7179 208.786 75.1384 203.207 74.6297C197.627 74.1288 199.153 103.036 199.153 103.036Z" fill="#E3BB94"/>
<path d="M118.404 191.816L124.569 148.659L136.776 146.139C136.776 146.139 137.924 144.806 157.707 144.806C171.402 144.806 175.317 146.139 176.835 146.139L189.304 148.659L195.6 191.269C195.6 191.269 194.583 272.913 192.048 277.475C186.722 287.062 118.01 275.448 118.01 275.448L118.519 191.778" fill="#1B1464"/>
<path d="M193.574 276.989H118.018V318.574H193.574V276.989Z" fill="#36525E"/>
<path d="M224.253 339.282H88.3478C82.6064 339.282 77.9517 334.627 77.9517 328.885C77.9517 323.144 82.6064 318.489 88.3478 318.489H224.253C229.995 318.489 234.65 323.144 234.65 328.885C234.65 334.627 229.995 339.282 224.253 339.282Z" fill="#545454"/>
<path d="M84.04 271.903H74.4067V414.506H84.04V271.903Z" fill="#A5A0A3"/>
<path d="M238.703 271.903H229.07V414.506H238.703V271.903Z" fill="#A5A0A3"/>
<path d="M89.897 271.965H66.0604C61.2978 271.965 57.4368 268.104 57.4368 263.341V262.509C57.4368 257.746 61.2978 253.885 66.0604 253.885H89.897C94.6596 253.885 98.5206 257.746 98.5206 262.509V263.341C98.5206 268.104 94.6596 271.965 89.897 271.965Z" fill="#CCC9CD"/>
<path d="M247.027 271.965H223.19C218.427 271.965 214.566 268.104 214.566 263.341V261.738C214.566 256.975 218.427 253.114 223.19 253.114H247.027C251.789 253.114 255.65 256.975 255.65 261.738V263.341C255.643 268.104 251.782 271.965 247.027 271.965Z" fill="#CCC9CD"/>
<path d="M143.512 425.326H81.3581C76.6725 425.326 72.8809 421.534 72.8809 416.849V414.498H151.989V416.849C151.989 421.526 148.197 425.326 143.512 425.326Z" fill="#A5A0A3"/>
<path d="M231.243 425.326H169.09C164.404 425.326 160.613 421.534 160.613 416.849V414.498H239.721V416.849C239.721 421.526 235.921 425.326 231.243 425.326Z" fill="#A5A0A3"/>
<path d="M74.4066 374.84H65.783V385.999H74.4066V374.84Z" fill="#787878"/>
<path d="M247.327 374.84H238.703V385.999H247.327V374.84Z" fill="#787878"/>
<path d="M171.772 128.391C171.772 128.391 169.745 144.112 171.772 145.122C173.798 146.131 177.12 146.047 176.981 147.118C176.819 148.359 172.357 155.595 158.077 156.281C144.598 156.928 136.005 148.451 136.907 147.118C137.801 145.785 140.922 146.293 142.864 145.122C145.4 143.604 143.373 128.391 143.373 128.391H171.772Z" fill="#E3BB94"/>
<path d="M205.234 64.4957C205.234 64.4957 202.189 94.9213 199.145 103.036C196.101 111.151 187.986 128.391 172.773 132.953C157.561 137.516 143.866 134.472 136.26 131.936C128.653 129.401 114.458 110.134 113.44 105.063C112.423 99.9923 107.861 84.7795 109.888 66.0139C111.915 47.2484 123.582 32.5442 123.582 32.5442L171.756 25.9551L199.646 41.6765L205.234 64.4957Z" fill="#EFCAA6"/>
<path d="M124.145 68.9193C125.101 67.8789 126.249 66.9926 127.49 66.2374L128.445 65.7056L129.439 65.2278L130.472 64.8271L131.528 64.4803C131.882 64.3801 132.245 64.2722 132.607 64.1489L133.709 63.8329C134.079 63.7636 134.456 63.6942 134.834 63.6865C135.212 63.6865 135.589 63.7328 135.967 63.8021C137.447 64.1566 138.911 64.8733 139.928 66.3992L139.812 66.8231C138.21 67.64 136.976 67.9483 135.759 68.164C135.15 68.2719 134.564 68.2642 133.955 68.1486L133.031 67.9945C132.722 67.956 132.406 67.9406 132.091 67.9329L131.15 67.956L130.202 68.033L129.247 68.1255L128.283 68.2719C126.996 68.48 125.709 68.8345 124.399 69.2815L124.145 68.9193Z" fill="#844D20"/>
<path d="M186.383 69.2815C185.073 68.8345 183.794 68.48 182.499 68.2719L181.536 68.1255L180.58 68.033L179.632 67.956L178.692 67.9329C178.376 67.9483 178.068 67.9637 177.752 67.9945L176.827 68.1486C176.218 68.2642 175.633 68.2719 175.024 68.164C173.798 67.9406 172.565 67.64 170.97 66.8231L170.854 66.3992C171.872 64.8733 173.328 64.1566 174.816 63.8021C175.186 63.7328 175.571 63.6865 175.949 63.6865C176.326 63.6942 176.704 63.7636 177.074 63.8329L178.176 64.1489C178.538 64.2722 178.892 64.3801 179.255 64.4803L180.31 64.8271L181.343 65.2278L182.337 65.7056L183.293 66.2374C184.534 67.0003 185.674 67.8789 186.638 68.9193L186.383 69.2815Z" fill="#844D20"/>
<path d="M134.264 89.3417C137.064 89.3417 139.335 86.2778 139.335 82.4982C139.335 78.7187 137.064 75.6548 134.264 75.6548C131.463 75.6548 129.193 78.7187 129.193 82.4982C129.193 86.2778 131.463 89.3417 134.264 89.3417Z" fill="#461A00"/>
<path d="M176.311 89.8502C179.112 89.8502 181.382 86.7863 181.382 83.0068C181.382 79.2273 179.112 76.1633 176.311 76.1633C173.51 76.1633 171.24 79.2273 171.24 83.0068C171.24 86.7863 173.51 89.8502 176.311 89.8502Z" fill="#461A00"/>
<path d="M154.717 100.516C153.946 100.848 152.983 100.801 152.12 100.454C151.342 99.969 150.702 99.2522 150.371 98.366C150.031 97.472 150.07 96.5241 150.278 95.6687C150.486 94.8132 150.879 94.0272 151.318 93.3182C151.758 92.6092 152.243 91.9541 152.683 91.299C153.114 90.6517 153.507 89.9735 153.869 89.2722C154.224 88.5709 154.548 87.8542 154.825 87.1221C155.264 86.4439 155.657 85.7426 156.089 85.0259C156.081 85.8582 155.989 86.6828 155.842 87.5151C155.549 88.2858 155.21 89.0333 154.84 89.7731C154.463 90.5053 154.047 91.222 153.592 91.9079C153.137 92.5938 152.659 93.2334 152.251 93.8885C151.843 94.5435 151.511 95.2217 151.342 95.9307C151.172 96.632 151.157 97.3641 151.396 97.9884C151.627 98.6126 152.105 99.1752 152.698 99.522C153.207 100.015 153.892 100.393 154.717 100.516Z" fill="#8C6239"/>
<path d="M56.4041 475.249C51.2252 475.249 47.0251 471.049 47.0251 465.87V295.986C47.0251 290.807 51.2252 286.607 56.4041 286.607C61.5829 286.607 65.783 290.807 65.783 295.986V465.862C65.783 471.049 61.5829 475.249 56.4041 475.249Z" fill="#1D1D1B" stroke="black" stroke-miterlimit="10"/>
<path d="M47.0174 454.457H44.8287C40.9986 454.457 37.8928 451.351 37.8928 447.521V314.336C37.8928 310.505 40.9986 307.4 44.8287 307.4H47.0174V454.457Z" fill="#BCB9BB"/>
<path d="M256.706 475.249C251.527 475.249 247.327 471.049 247.327 465.87V295.986C247.327 290.807 251.527 286.607 256.706 286.607C261.885 286.607 266.085 290.807 266.085 295.986V465.862C266.093 471.049 261.893 475.249 256.706 475.249Z" fill="#1D1D1B" stroke="black" stroke-miterlimit="10"/>
<path d="M266.093 451.921H268.281C272.112 451.921 275.217 448.815 275.217 444.985V311.8C275.217 307.97 272.112 304.864 268.281 304.864H266.093V451.921Z" fill="#BCB9BB"/>
<path d="M203.715 82.2439C203.715 82.2439 190.529 50.8011 189.011 44.2119C187.493 37.6228 182.422 53.3365 149.453 55.3711C116.484 57.4056 111.93 59.4247 111.93 59.4247L109.649 82.4983C109.649 82.4983 99.7612 67.5398 101.788 39.6496C103.815 11.7595 113.448 20.8841 113.448 20.8841C113.448 20.8841 108.377 9.22403 117.001 7.18949C125.625 5.15495 144.382 3.63675 148.945 5.16266C153.507 6.68085 162.131 10.2336 162.131 10.2336C162.131 10.2336 162.131 2.62719 171.764 6.17993C181.397 9.73266 198.136 9.22403 203.708 26.9723C209.28 44.7206 208.278 77.173 203.715 82.2439Z" fill="#844D20"/>
<path opacity="0.1" d="M143.966 134.456C143.966 134.456 160.613 137.516 170.916 133.477C172.72 132.768 168.219 140.56 157.068 140.051C145.908 139.542 143.966 134.456 143.966 134.456Z" fill="#844D20"/>
<path d="M140.83 111.853C144.128 112.924 145.97 113.086 149.199 113.433C150.663 113.587 153.307 113.887 154.779 113.941C158.825 114.072 162.285 113.949 166.947 113.433C168.142 113.302 170.4 112.87 171.51 112.415C172.619 111.968 172.812 110.55 173.028 109.371C172.25 108.978 171.101 109.448 170.23 109.548C169.529 109.633 168.643 109.209 167.957 109.371C166.924 109.602 165.969 109.864 164.913 109.88C156.613 110.011 148.359 110.489 140.221 108.863C140.067 109.379 140.498 110.535 140.575 111.406" fill="white"/>
<path d="M139.82 108.616C139.82 108.616 149.962 110.134 157.06 110.134C164.157 110.134 172.781 109.117 172.781 109.117C172.781 109.117 173.798 121.286 157.06 121.794C140.321 122.303 139.82 108.616 139.82 108.616Z" stroke="#A67C52" stroke-miterlimit="10"/>
<path d="M142.417 114.889C144.56 114.311 146.826 114.481 149.037 114.658C152.914 114.966 156.798 115.274 160.674 115.598C163.387 115.822 166.94 116.531 169.483 117.486C169.421 118.403 168.311 118.665 167.456 119.004C166.547 119.367 165.869 120.284 164.921 120.523C164.004 120.754 163.325 120.916 162.385 121.031C160.582 121.255 159.118 121.825 157.314 122.048C156.613 122.133 153.97 121.563 153.261 121.54C151.704 121.494 150.155 121.077 148.698 120.523C147.951 120.237 147.419 119.79 146.671 119.505C146.232 119.336 145.539 118.765 145.153 118.488C144.76 118.211 144.452 117.841 144.136 117.471C143.512 116.731 142.733 116.184 142.109 115.444" fill="#D86755"/>
<path d="M149.453 409.797H105.333V295.84C105.333 283.656 115.213 273.783 127.39 273.783C139.574 273.783 149.446 283.663 149.446 295.84V409.797H149.453Z" fill="#56869B"/>
<path d="M207.769 409.797H163.649V295.84C163.649 283.656 173.529 273.783 185.705 273.783C197.889 273.783 207.761 283.663 207.761 295.84V409.797H207.769Z" fill="#56869B"/>
<path d="M99.7614 408.379C99.7614 408.379 112.046 389.082 125.178 389.552C138.31 390.022 150.594 406.021 151.018 408.379C151.442 410.73 151.442 414.028 149.746 415.438C148.051 416.849 103.568 417.319 101.873 415.908C100.185 414.498 98.0659 414.498 99.7614 408.379Z" fill="#1B1464"/>
<path d="M161.984 408.379C161.984 408.379 173.837 389.082 186.499 389.552C199.161 390.022 211.014 406.021 211.422 408.379C211.83 410.737 211.83 414.028 210.197 415.438C208.563 416.849 165.66 417.319 164.027 415.908C162.4 414.498 160.35 414.498 161.984 408.379Z" fill="#1B1464"/>
<path d="M195.469 191.816L189.304 148.659C189.304 148.659 202.76 149.9 211.653 161.76C213.965 164.843 215.383 167.895 217.819 172.55C222.52 181.52 226.296 195.669 226.296 197.981C226.296 200.848 199.323 202.605 199.323 202.605L195.469 191.816Z" fill="#2E3192"/>
<path d="M79.1 182.568C79.6317 181.944 84.1709 186.668 89.2727 193.966C94.3821 201.265 98.089 207.692 97.5572 208.316C97.0255 208.94 92.4555 203.53 87.346 196.224C82.2443 188.926 78.5682 183.193 79.1 182.568Z" fill="#1B1464"/>
<path d="M212.6 201.825C219.856 200.676 225.645 199.159 225.53 198.436C225.416 197.713 219.441 198.058 212.185 199.207C204.929 200.356 199.14 201.873 199.254 202.596C199.369 203.319 205.344 202.974 212.6 201.825Z" fill="#1B1464"/>
<path d="M201.635 201.064L215.283 237.416C215.283 237.416 218.836 249.076 220.354 251.111C221.872 253.138 222.658 254.663 222.658 254.663C222.658 254.663 223.907 256.69 224.415 259.734C224.924 262.779 224.924 265.314 227.46 264.805C229.995 264.297 228.477 252.637 228.477 252.637C228.477 252.637 234.565 254.155 235.066 257.199C235.567 260.243 236.784 266.717 237.601 268.358C238.619 270.385 239.52 271.032 240.646 270.894C244.699 270.385 242.094 265.499 242.672 266.331C246.225 271.402 249.292 266.424 248.252 263.796C248.252 263.796 250.787 266.331 251.805 265.314C252.822 264.297 251.805 260.752 251.805 260.752C251.805 260.752 253.323 259.734 253.831 258.725C254.34 257.708 252.814 254.671 249.269 251.118C245.716 247.566 236.083 245.539 234.565 243.003C233.047 240.468 220.146 197.989 220.146 197.989L201.635 201.064Z" fill="#EFCAA6"/>
<path d="M251.797 260.744C251.134 259.526 250.394 258.363 249.624 257.23C248.845 256.105 248.013 255.026 247.096 254.024C246.194 253.007 245.177 252.113 244.106 251.28C243.019 250.463 241.825 249.808 240.561 249.223C241.917 249.523 243.258 250.016 244.445 250.779C245.632 251.535 246.726 252.459 247.666 253.5C249.531 255.611 251.003 258.07 251.797 260.744Z" fill="#E3BB94"/>
<path d="M248.244 263.788C247.635 262.632 246.988 261.515 246.333 260.405C245.663 259.303 244.969 258.224 244.221 257.184C243.489 256.136 242.665 255.157 241.817 254.193C240.954 253.246 240.014 252.375 239.012 251.535C240.175 252.12 241.277 252.868 242.241 253.77C243.204 254.671 244.075 255.665 244.846 256.737C246.356 258.887 247.574 261.253 248.244 263.788Z" fill="#E3BB94"/>
<path d="M242.665 266.324C242.418 264.921 242.056 263.557 241.647 262.216C241.223 260.883 240.723 259.573 240.121 258.324C239.543 257.06 238.811 255.866 238.01 254.733L237.386 253.893L236.7 253.099C236.276 252.529 235.721 252.097 235.243 251.55C236.422 252.336 237.578 253.23 238.48 254.363C239.412 255.465 240.206 256.69 240.815 257.993C242.048 260.598 242.749 263.464 242.665 266.324Z" fill="#E3BB94"/>
<path d="M82.2188 460.284H88.6692V419.162H82.2188V460.284Z" fill="#A5A0A3"/>
<path d="M88.6714 455.767H78.9919V462.217H88.6714V455.767Z" fill="#A5A0A3"/>
<path d="M75.4701 488.127H70.7228C68.7808 488.127 67.2009 486.547 67.2009 484.605V435.506C67.2009 433.564 68.7808 431.984 70.7228 431.984H75.4701C77.4121 431.984 78.992 433.564 78.992 435.506V484.605C78.992 486.547 77.4121 488.127 75.4701 488.127Z" fill="#1D1D1B" stroke="black" stroke-miterlimit="10"/>
<path d="M67.2009 480.705H65.9601C64.9429 480.705 64.126 479.881 64.126 478.871V441.24C64.126 440.223 64.9506 439.406 65.9601 439.406H67.2009V480.705Z" fill="#BCB9BB"/>
<path d="M231.644 415.307H225.194V456.429H231.644V415.307Z" fill="#A5A0A3"/>
<path d="M225.195 458.37L234.874 458.37L234.874 451.919L225.195 451.919L225.195 458.37Z" fill="#A5A0A3"/>
<path d="M238.395 484.273H243.142C245.084 484.273 246.664 482.693 246.664 480.751V431.653C246.664 429.711 245.084 428.131 243.142 428.131H238.395C236.453 428.131 234.873 429.711 234.873 431.653V480.751C234.873 482.693 236.453 484.273 238.395 484.273Z" fill="#1D1D1B" stroke="black" stroke-miterlimit="10"/>
<path d="M246.664 476.852H247.905C248.922 476.852 249.739 476.027 249.739 475.018V437.386C249.739 436.369 248.915 435.552 247.905 435.552H246.664V476.852Z" fill="#BCB9BB"/>
<path d="M124.569 148.659L79.3542 182.507L97.7345 208.616L118.404 191.045L124.569 148.659Z" fill="#2E3192"/>
<path d="M96.8251 207.229C96.8251 207.229 65.5902 224.947 60.7119 225.664C49.8148 227.266 33.9084 151.996 33.9084 151.996L49.4911 145.507L67.6171 198.035L82.9532 187.192L96.8251 207.229Z" fill="#EFCAA6"/>
<path d="M53.6682 157.907C53.6682 157.907 46.2159 133.77 46.5704 131.728C46.9249 129.686 49.4989 121.008 52.0113 118.126C54.5236 115.244 61.9142 109.101 63.1242 108.5C64.3341 107.899 65.336 106.52 64.1492 105.194C62.9623 103.869 59.1013 100.801 54.0304 104.377C48.9595 107.953 45.9847 110.142 45.9847 110.142C45.9847 110.142 43.4955 105.048 43.1487 103.768C42.8019 102.489 40.6826 90.6981 40.1046 87.5615C39.5266 84.425 37.8235 77.1885 37.6154 76.4255C37.4073 75.6625 35.8274 73.89 34.1937 74.4757C32.5676 75.0537 31.034 76.5026 31.3037 77.9745C31.5734 79.4465 33.6388 95.0986 33.9162 96.1236C34.1937 97.1485 34.6175 100.701 34.5482 100.948C34.4788 101.194 33.6619 102.243 33.0608 101.033C32.4597 99.8227 24.73 76.0325 24.73 76.0325C24.73 76.0325 23.6125 72.8034 22.1714 72.3873C20.7302 71.9711 17.2777 74.0365 17.2854 75.2541C17.2931 76.4795 21.1002 90.0662 21.9633 92.409C22.8264 94.7518 25.7087 103.314 25.9168 104.077C26.1249 104.847 26.1403 106.011 24.807 105.102C23.4738 104.192 17.7478 89.2647 16.9386 87.2841C16.1217 85.3112 15.1738 82.822 14.7037 82.1207C14.2413 81.4194 12.0989 80.6333 10.704 81.5658C9.30908 82.4983 8.82357 83.7313 9.17037 85.0106C9.51716 86.2899 16.6843 105.495 17.2854 106.705C17.8865 107.915 18.3104 109.448 18.3797 109.703C18.4491 109.957 18.0792 110.612 17.3548 109.98C16.6303 109.348 9.10872 94.3202 8.47678 93.2798C7.84484 92.2394 5.89507 91.122 4.23815 92.1238C2.58894 93.1257 2.8895 95.2373 3.42126 96.1929C3.95301 97.1485 11.5594 112.939 12.2376 114.404C12.9158 115.868 14.6575 125.285 17.3548 128.121C20.0521 130.957 25.4698 134.949 28.8838 136.545C29.9627 137.046 36.9064 162.801 37.4767 164.843C38.0624 166.885 53.6682 157.907 53.6682 157.907Z" fill="#EFCAA6"/>
<path d="M45.9077 109.965C45.9077 109.965 42.9946 111.236 42.7172 111.722C42.4397 112.207 35.1108 115.583 33.6697 120.376C32.2285 125.17 31.8817 126.911 31.8817 126.911C31.8817 126.911 30.2094 123.798 31.8586 119.775C33.5078 115.752 40.0661 111.907 41.2992 111.228C42.5323 110.55 45.3528 108.809 45.3528 108.809L45.9077 109.965Z" fill="#E3BB94"/>
<ellipse cx="160.565" cy="467.003" rx="134.895" ry="35.9971" fill="black" fill-opacity="0.1"/>
</svg>
