<svg width="408" height="688" viewBox="0 0 408 688" fill="none" xmlns="http://www.w3.org/2000/svg">
<ellipse cx="206.038" cy="638.71" rx="175.038" ry="46.7096" fill="black" fill-opacity="0.1"/>
<path d="M275.52 447.816H138.51C121.81 447.816 108.28 434.276 108.28 417.586V240.746C108.28 224.046 121.82 210.516 138.51 210.516H275.52C292.22 210.516 305.75 224.056 305.75 240.746V417.576C305.75 434.276 292.22 447.816 275.52 447.816Z" fill="white" stroke="white" stroke-width="5.6693" stroke-miterlimit="10" stroke-linecap="round" stroke-linejoin="round"/>
<path d="M270.83 452.816H137.99C121.29 452.816 107.76 439.276 107.76 422.586V245.746C107.76 229.046 121.3 215.516 137.99 215.516H270.83C287.53 215.516 301.06 229.056 301.06 245.746V422.576C301.07 439.276 287.53 452.816 270.83 452.816Z" fill="white" stroke="white" stroke-width="5.6693" stroke-miterlimit="10" stroke-linecap="round" stroke-linejoin="round"/>
<path d="M145.03 117.886C145.03 117.886 139.11 112.626 136.48 113.936C133.85 115.256 127.93 122.486 130.56 131.046C133.19 139.596 148.33 151.446 148.33 151.446L145.03 117.886Z" fill="white" stroke="white" stroke-width="5.6693" stroke-miterlimit="10" stroke-linecap="round" stroke-linejoin="round"/>
<path d="M259.53 148.806C259.53 148.806 262.16 152.096 269.4 144.196C276.64 136.296 276.64 126.426 275.98 123.136C275.32 119.846 272.03 112.606 264.79 111.946C257.55 111.306 259.53 148.806 259.53 148.806Z" fill="white" stroke="white" stroke-width="5.6693" stroke-miterlimit="10" stroke-linecap="round" stroke-linejoin="round"/>
<path d="M154.75 264.006L162.75 208.006L178.59 204.736C178.59 204.736 180.08 203.006 205.75 203.006C223.52 203.006 228.6 204.736 230.57 204.736L246.75 208.006L254.92 263.296C254.92 263.296 253.6 369.236 250.31 375.156C243.4 387.596 154.24 372.526 154.24 372.526L154.9 263.956" fill="white"/>
<path d="M154.75 264.006L162.75 208.006L178.59 204.736C178.59 204.736 180.08 203.006 205.75 203.006C223.52 203.006 228.6 204.736 230.57 204.736L246.75 208.006L254.92 263.296C254.92 263.296 253.6 369.236 250.31 375.156C243.4 387.596 154.24 372.526 154.24 372.526L154.9 263.956" stroke="white" stroke-width="5.6693" stroke-miterlimit="10" stroke-linecap="round" stroke-linejoin="round"/>
<path d="M252.29 374.536H154.25V428.496H252.29V374.536Z" fill="white" stroke="white" stroke-width="5.6693" stroke-miterlimit="10" stroke-linecap="round" stroke-linejoin="round"/>
<path d="M292.1 455.366H115.75C108.3 455.366 102.26 449.326 102.26 441.876C102.26 434.426 108.3 428.386 115.75 428.386H292.1C299.55 428.386 305.59 434.426 305.59 441.876C305.59 449.326 299.55 455.366 292.1 455.366Z" fill="white" stroke="white" stroke-width="5.6693" stroke-miterlimit="10" stroke-linecap="round" stroke-linejoin="round"/>
<path d="M110.16 367.926H97.6599V552.966H110.16V367.926Z" fill="white" stroke="white" stroke-width="5.6693" stroke-miterlimit="10" stroke-linecap="round" stroke-linejoin="round"/>
<path d="M310.85 367.926H298.35V552.966H310.85V367.926Z" fill="white" stroke="white" stroke-width="5.6693" stroke-miterlimit="10" stroke-linecap="round" stroke-linejoin="round"/>
<path d="M117.76 368.006H86.8399C80.6599 368.006 75.6499 362.996 75.6499 356.816V355.736C75.6499 349.556 80.6599 344.546 86.8399 344.546H117.77C123.95 344.546 128.96 349.556 128.96 355.736V356.816C128.95 363.006 123.94 368.006 117.76 368.006Z" fill="white" stroke="white" stroke-width="5.6693" stroke-miterlimit="10" stroke-linecap="round" stroke-linejoin="round"/>
<path d="M321.65 368.006H290.72C284.54 368.006 279.53 362.996 279.53 356.816V354.736C279.53 348.556 284.54 343.546 290.72 343.546H321.65C327.83 343.546 332.84 348.556 332.84 354.736V356.816C332.83 363.006 327.82 368.006 321.65 368.006Z" fill="white" stroke="white" stroke-width="5.6693" stroke-miterlimit="10" stroke-linecap="round" stroke-linejoin="round"/>
<path d="M187.33 567.007H106.68C100.6 567.007 95.6799 562.087 95.6799 556.007V552.957H198.33V556.007C198.33 562.087 193.41 567.007 187.33 567.007Z" fill="white" stroke="white" stroke-width="5.6693" stroke-miterlimit="10" stroke-linecap="round" stroke-linejoin="round"/>
<path d="M301.17 567.007H220.52C214.44 567.007 209.52 562.087 209.52 556.007V552.957H312.17V556.007C312.17 562.087 307.24 567.007 301.17 567.007Z" fill="white" stroke="white" stroke-width="5.6693" stroke-miterlimit="10" stroke-linecap="round" stroke-linejoin="round"/>
<path d="M97.66 501.506H86.47V515.986H97.66V501.506Z" fill="white" stroke="white" stroke-width="5.6693" stroke-miterlimit="10" stroke-linecap="round" stroke-linejoin="round"/>
<path d="M322.04 501.506H310.85V515.986H322.04V501.506Z" fill="white" stroke="white" stroke-width="5.6693" stroke-miterlimit="10" stroke-linecap="round" stroke-linejoin="round"/>
<path d="M224 181.707C224 181.707 221.37 202.107 224 203.417C226.63 204.737 230.94 204.617 230.76 206.007C230.55 207.617 224.76 217.007 206.23 217.897C188.74 218.737 177.59 207.737 178.76 206.007C179.92 204.277 183.97 204.937 186.49 203.417C189.78 201.447 187.15 181.707 187.15 181.707H224Z" fill="white" stroke="white" stroke-width="5.6693" stroke-miterlimit="10" stroke-linecap="round" stroke-linejoin="round"/>
<path d="M267.42 98.7961C267.42 98.7961 263.47 138.276 259.52 148.806C255.57 159.336 245.04 181.706 225.3 187.626C205.56 193.546 187.79 189.596 177.92 186.306C168.05 183.016 149.63 158.016 148.31 151.436C146.99 144.856 141.07 125.116 143.7 100.766C146.33 76.4161 161.47 57.3361 161.47 57.3361L223.98 48.7861L260.17 69.1861L267.42 98.7961Z" fill="white" stroke="white" stroke-width="5.6693" stroke-miterlimit="10" stroke-linecap="round" stroke-linejoin="round"/>
<path d="M162.35 104.776C168.23 100.906 175.79 99.6959 182.58 101.536L162.35 104.776Z" fill="white"/>
<path d="M162.2 104.536C163.44 103.186 164.93 102.036 166.54 101.056L167.78 100.366L169.07 99.7461L170.41 99.2261L171.78 98.7761C172.24 98.6461 172.71 98.5061 173.18 98.3461L174.61 97.9361C175.09 97.8461 175.58 97.7561 176.07 97.7461C176.56 97.7461 177.05 97.8061 177.54 97.8961C179.46 98.3561 181.36 99.2861 182.68 101.266C182.8 101.436 182.75 101.676 182.58 101.786C182.57 101.796 182.56 101.806 182.54 101.806H182.53C180.45 102.866 178.85 103.266 177.27 103.546C176.48 103.686 175.72 103.676 174.93 103.526L173.73 103.326C173.33 103.276 172.92 103.256 172.51 103.246L171.29 103.276L170.06 103.376L168.82 103.496L167.57 103.686C165.9 103.956 164.23 104.416 162.53 104.996C162.38 105.046 162.21 104.966 162.16 104.816C162.1 104.726 162.13 104.616 162.2 104.536Z" fill="white"/>
<path d="M243.12 104.776C237.24 100.906 229.68 99.6964 222.89 101.536L243.12 104.776Z" fill="white"/>
<path d="M242.96 105.016C241.26 104.436 239.6 103.976 237.92 103.706L236.67 103.516L235.43 103.396L234.2 103.296L232.98 103.266C232.57 103.286 232.17 103.306 231.76 103.346L230.56 103.546C229.77 103.696 229.01 103.706 228.22 103.566C226.63 103.276 225.03 102.886 222.96 101.826H222.95C222.76 101.736 222.69 101.506 222.79 101.316C222.8 101.306 222.8 101.286 222.81 101.276C224.13 99.2963 226.02 98.3663 227.95 97.9063C228.43 97.8163 228.93 97.7563 229.42 97.7563C229.91 97.7663 230.4 97.8563 230.88 97.9463L232.31 98.3563C232.78 98.5163 233.24 98.6563 233.71 98.7863L235.08 99.2363L236.42 99.7563L237.71 100.376L238.95 101.066C240.56 102.056 242.04 103.196 243.29 104.546C243.4 104.666 243.39 104.846 243.27 104.956C243.17 105.026 243.06 105.046 242.96 105.016Z" fill="white"/>
<path d="M175.33 131.036C178.964 131.036 181.91 127.061 181.91 122.156C181.91 117.252 178.964 113.276 175.33 113.276C171.696 113.276 168.75 117.252 168.75 122.156C168.75 127.061 171.696 131.036 175.33 131.036Z" fill="white" stroke="white" stroke-width="5.6693" stroke-miterlimit="10" stroke-linecap="round" stroke-linejoin="round"/>
<path d="M229.89 131.697C233.524 131.697 236.47 127.721 236.47 122.817C236.47 117.912 233.524 113.937 229.89 113.937C226.256 113.937 223.31 117.912 223.31 122.817C223.31 127.721 226.256 131.697 229.89 131.697Z" fill="white" stroke="white" stroke-width="5.6693" stroke-miterlimit="10" stroke-linecap="round" stroke-linejoin="round"/>
<path d="M201.87 145.546C199.6 145.846 197.24 144.206 196.74 141.976C196.4 140.496 196.82 138.936 197.5 137.576C198.18 136.216 199.13 135.026 199.97 133.756C201.64 131.216 202.84 128.376 203.65 125.446" fill="white"/>
<path d="M201.87 145.546C200.97 146.876 199.19 147.446 197.38 147.296C196.03 146.396 194.86 145.156 194.25 143.496C193.62 141.816 193.72 140.156 194.05 138.746C194.39 137.336 195.02 136.106 195.65 135.086C196.29 134.056 196.93 133.196 197.46 132.406C197.98 131.636 198.44 130.826 198.87 129.996C199.29 129.156 199.68 128.296 200.02 127.406C201.17 126.826 202.27 126.146 203.65 125.446C204.46 126.756 204.92 128.066 205.32 129.436C204.91 130.496 204.45 131.546 203.93 132.566C203.41 133.586 202.82 134.596 202.18 135.556C201.55 136.496 200.95 137.316 200.49 138.066C200.03 138.816 199.72 139.476 199.57 140.106C199.42 140.716 199.45 141.246 199.57 141.526C199.68 141.836 199.97 142.246 200.39 142.436C200.34 143.366 200.7 144.486 201.87 145.546Z" fill="white"/>
<path d="M74.2999 631.796C67.5799 631.796 62.1299 626.346 62.1299 619.626V399.186C62.1299 392.466 67.5799 387.016 74.2999 387.016C81.0199 387.016 86.4699 392.466 86.4699 399.186V619.616C86.4699 626.346 81.0199 631.796 74.2999 631.796Z" fill="white" stroke="white" stroke-width="5.6693" stroke-miterlimit="10" stroke-linecap="round" stroke-linejoin="round"/>
<path d="M62.1198 604.816H59.2798C54.3098 604.816 50.2798 600.786 50.2798 595.816V422.986C50.2798 418.016 54.3098 413.986 59.2798 413.986H62.1198V604.816Z" fill="white" stroke="white" stroke-width="5.6693" stroke-miterlimit="10" stroke-linecap="round" stroke-linejoin="round"/>
<path d="M334.21 631.796C327.49 631.796 322.04 626.346 322.04 619.626V399.186C322.04 392.466 327.49 387.016 334.21 387.016C340.93 387.016 346.38 392.466 346.38 399.186V619.616C346.39 626.346 340.94 631.796 334.21 631.796Z" fill="white" stroke="white" stroke-width="5.6693" stroke-miterlimit="10" stroke-linecap="round" stroke-linejoin="round"/>
<path d="M346.39 601.526H349.23C354.2 601.526 358.23 597.496 358.23 592.526V419.696C358.23 414.726 354.2 410.696 349.23 410.696H346.39V601.526Z" fill="white" stroke="white" stroke-width="5.6693" stroke-miterlimit="10" stroke-linecap="round" stroke-linejoin="round"/>
<path d="M265.45 121.826C265.45 121.826 248.34 81.0263 246.37 72.4763C244.4 63.9263 237.82 84.3163 195.04 86.9563C152.26 89.5963 146.35 92.2163 146.35 92.2163L143.39 122.156C143.39 122.156 130.56 102.746 133.19 66.5563C135.82 30.3663 148.32 42.2063 148.32 42.2063C148.32 42.2063 141.74 27.0763 152.93 24.4363C164.12 21.7963 188.46 19.8263 194.38 21.8063C200.3 23.7763 211.49 28.3863 211.49 28.3863C211.49 28.3863 211.49 18.5163 223.99 23.1263C236.49 27.7363 258.21 27.0763 265.44 50.1063C272.67 73.1363 271.37 115.246 265.45 121.826Z" fill="white" stroke="white" stroke-width="5.6693" stroke-miterlimit="10" stroke-linecap="round" stroke-linejoin="round"/>
<path opacity="0.1" d="M187.92 189.586C187.92 189.586 209.52 193.556 222.89 188.316C225.23 187.396 219.39 197.506 204.92 196.846C190.45 196.186 187.92 189.586 187.92 189.586Z" fill="white" stroke="white" stroke-width="5.6693" stroke-miterlimit="10" stroke-linecap="round" stroke-linejoin="round"/>
<path d="M183.85 160.246C188.13 161.636 190.52 161.846 194.71 162.296C196.61 162.496 200.04 162.886 201.95 162.956C207.2 163.126 211.69 162.966 217.74 162.296C219.29 162.126 222.22 161.566 223.66 160.976C225.1 160.396 225.35 158.556 225.63 157.026C224.62 156.516 223.13 157.126 222 157.256C221.09 157.366 219.94 156.816 219.05 157.026C217.71 157.326 216.47 157.666 215.1 157.686C204.33 157.856 193.62 158.476 183.06 156.366C182.86 157.036 183.42 158.536 183.52 159.666" fill="white"/>
<path d="M181.59 168.446C186.05 169.876 190.65 170.366 195.29 170.866C199.23 171.296 203.13 171.576 207.1 171.516C211.97 171.446 216.93 171.086 221.73 170.246C224.05 169.836 226.44 169.256 228.47 168.036C231.62 166.136 233.2 162.786 233.84 159.306C234.24 157.116 234.25 154.716 232.98 152.756C231.71 150.796 230.07 149.686 227.9 148.846C225.2 147.806 222.46 148.666 219.75 149.076C220.5 148.976 221.26 148.876 222.01 148.776C221.77 148.796 221.53 148.796 221.29 148.756C222.04 148.856 222.8 148.956 223.55 149.056C222.06 148.816 220.56 148.446 219.05 148.536C217.38 148.636 215.82 149.116 214.18 149.386C214.93 149.286 215.69 149.186 216.44 149.086C214.08 149.386 211.62 149.266 209.24 149.316C206.8 149.366 204.36 149.416 201.93 149.416C197.07 149.416 192.22 149.226 187.4 148.596C188.15 148.696 188.91 148.796 189.66 148.896C188.21 148.696 186.77 148.456 185.33 148.176C183.16 147.756 180.72 147.786 178.78 149.036C177.02 150.166 175.25 151.976 174.87 154.116C174.5 156.216 174.51 157.466 174.89 159.596C175.01 160.266 175.17 160.916 175.29 161.586C175.19 160.836 175.09 160.076 174.99 159.326C175 159.446 175.02 159.556 175.03 159.676C175.31 162.006 175.79 163.966 177.52 165.686C178.99 167.156 181.41 168.276 183.53 168.176C185.73 168.076 188.01 167.356 189.54 165.686C190.96 164.136 192.29 161.856 192.03 159.676C191.84 158.056 191.52 156.506 191.26 154.906C191.36 155.656 191.46 156.416 191.56 157.166C191.53 156.976 191.52 156.786 191.53 156.596C191.43 157.346 191.33 158.106 191.23 158.856C191.24 158.786 191.26 158.706 191.27 158.636C187.78 160.616 184.3 162.596 180.81 164.576C187.53 165.896 194.36 166.396 201.2 166.416C204.29 166.426 207.38 166.356 210.46 166.296C214.15 166.216 217.69 166.076 221.31 165.246C220.56 165.346 219.8 165.446 219.05 165.546C219.44 165.496 219.75 165.516 220.14 165.556C219.39 165.456 218.63 165.356 217.88 165.256C219.65 165.566 221.34 165.866 223.14 165.626C224.27 165.476 225.38 165.216 226.51 165.066C225.76 165.166 225 165.266 224.25 165.366C224.49 165.336 224.74 165.336 224.98 165.356C224.23 165.256 223.47 165.156 222.72 165.056C222.95 165.076 223.17 165.136 223.38 165.246C221.4 161.756 219.42 158.276 217.44 154.786C217.29 155.626 217.14 156.456 216.83 157.256C217.12 156.576 217.4 155.906 217.69 155.226C217.56 155.506 217.43 155.746 217.25 155.996C217.69 155.426 218.14 154.846 218.58 154.276C218.46 154.426 218.33 154.566 218.17 154.686C218.74 154.246 219.32 153.796 219.89 153.356C219.73 153.476 219.56 153.576 219.38 153.656C220.06 153.366 220.73 153.086 221.41 152.796C219.7 153.446 217.86 153.776 216.05 154.046C216.8 153.946 217.56 153.846 218.31 153.746C209.1 154.966 199.92 154.576 190.75 153.366C191.5 153.466 192.26 153.566 193.01 153.666C190.66 153.336 188.38 152.796 186.12 152.066C181.88 150.706 176.65 153.656 175.66 158.006C174.59 162.636 177.05 166.996 181.59 168.446Z" fill="white"/>
<path d="M182.54 156.046C182.54 156.046 195.7 158.016 204.91 158.016C214.12 158.016 225.31 156.696 225.31 156.696C225.31 156.696 226.63 172.486 204.91 173.146C183.2 173.816 182.54 156.046 182.54 156.046Z" fill="white" stroke="white" stroke-width="5.6693" stroke-miterlimit="10" stroke-linecap="round" stroke-linejoin="round"/>
<path d="M185.91 164.196C188.69 163.446 191.63 163.666 194.5 163.896C199.53 164.296 204.57 164.696 209.6 165.116C213.12 165.406 217.73 166.326 221.03 167.566C220.95 168.756 219.51 169.096 218.4 169.536C217.22 170.006 216.34 171.196 215.11 171.506C213.92 171.806 213.04 172.016 211.82 172.166C209.48 172.456 207.58 173.196 205.24 173.486C204.33 173.596 200.9 172.856 199.98 172.826C197.96 172.766 195.95 172.226 194.06 171.506C193.09 171.136 192.4 170.556 191.43 170.186C190.86 169.966 189.96 169.226 189.46 168.866C188.95 168.506 188.55 168.026 188.14 167.546C187.33 166.586 186.32 165.876 185.51 164.916" fill="white"/>
<path d="M188.17 172.396C188.76 172.246 189.35 172.136 189.95 172.046C189.2 172.146 188.44 172.246 187.69 172.346C191.63 171.866 195.69 172.496 199.62 172.806C203.58 173.126 207.57 173.326 211.51 173.826C210.76 173.726 210 173.626 209.25 173.526C212.48 173.966 215.71 174.646 218.78 175.766C216.8 172.276 214.82 168.796 212.84 165.306C212.83 165.496 212.78 165.666 212.69 165.836C212.98 165.156 213.26 164.486 213.55 163.806C213.5 163.876 213.45 163.956 213.41 164.026C213.85 163.456 214.3 162.876 214.74 162.306C214.62 162.446 214.49 162.566 214.34 162.676C214.91 162.236 215.49 161.786 216.06 161.346C215.8 161.506 215.55 161.636 215.27 161.766C215.95 161.476 216.62 161.196 217.3 160.906C215.97 161.436 214.55 161.836 213.35 162.616C212.6 163.106 211.97 163.696 211.15 164.066C211.83 163.776 212.5 163.496 213.18 163.206C212.15 163.536 211.07 163.746 210.01 163.906C210.76 163.806 211.52 163.706 212.27 163.606C210.39 163.856 208.54 164.086 206.7 164.526C205.47 164.816 204.24 165.116 202.99 165.286C203.74 165.186 204.5 165.086 205.25 164.986C204.76 165.026 204.26 164.946 203.78 164.886C204.53 164.986 205.29 165.086 206.04 165.186C203.56 164.836 201.08 164.496 198.59 164.216C199.34 164.316 200.1 164.416 200.85 164.516C199.29 164.286 197.8 163.856 196.32 163.316C197 163.606 197.67 163.886 198.35 164.176C196.71 163.486 195.18 162.586 193.74 161.546C194.31 161.986 194.89 162.436 195.46 162.876C194.74 162.316 194.22 161.596 193.58 160.956C192.9 160.276 192.16 159.656 191.51 158.936C188.54 155.606 182.47 155.686 179.48 158.936C176.22 162.486 176.31 167.406 179.48 170.966C180.54 172.146 181.72 173.336 182.86 174.436C184.26 175.786 185.97 176.966 187.71 177.826C189.77 178.836 191.79 179.866 194.01 180.466C196.12 181.036 198.31 181.146 200.47 181.396C199.72 181.296 198.96 181.196 198.21 181.096C200.43 181.396 202.68 181.986 204.92 182.026C208 182.076 211.04 180.816 214.07 180.396C213.32 180.496 212.56 180.596 211.81 180.696C214.19 180.376 216.48 180.136 218.7 179.196C219.58 178.826 220.3 178.506 221.05 177.946C221.58 177.556 222.07 177.176 222.68 176.906C222 177.196 221.33 177.476 220.65 177.766C222 177.246 223.39 176.796 224.63 176.046C226.8 174.736 228.79 172.396 229.23 169.846C229.61 167.636 229.65 165.276 228.37 163.296C227.11 161.346 225.47 160.186 223.29 159.386C217.27 157.186 210.82 156.726 204.48 156.216C201.23 155.956 197.98 155.696 194.74 155.436C190.99 155.136 187.33 155.096 183.64 156.016C179.32 157.096 176.31 162.176 177.7 166.476C179.15 170.926 183.54 173.556 188.17 172.396Z" fill="white"/>
<path d="M195.04 546.856H137.79V398.996C137.79 383.186 150.61 370.376 166.41 370.376C182.22 370.376 195.03 383.196 195.03 398.996V546.856H195.04Z" fill="white" stroke="white" stroke-width="5.6693" stroke-miterlimit="10" stroke-linecap="round" stroke-linejoin="round"/>
<path d="M270.71 546.856H213.46V398.996C213.46 383.186 226.28 370.376 242.08 370.376C257.89 370.376 270.7 383.196 270.7 398.996V546.856H270.71Z" fill="white" stroke="white" stroke-width="5.6693" stroke-miterlimit="10" stroke-linecap="round" stroke-linejoin="round"/>
<path d="M130.56 545.026C130.56 545.026 146.5 519.986 163.54 520.596C180.58 521.206 196.52 541.966 197.07 545.026C197.62 548.086 197.62 552.356 195.42 554.186C193.22 556.016 135.5 556.626 133.3 554.796C131.11 552.966 128.36 552.966 130.56 545.026Z" fill="white" stroke="white" stroke-width="5.6693" stroke-miterlimit="10" stroke-linecap="round" stroke-linejoin="round"/>
<path d="M211.31 545.026C211.31 545.026 226.69 519.986 243.12 520.596C259.56 521.206 274.93 541.966 275.46 545.026C275.99 548.076 275.99 552.356 273.87 554.186C271.75 556.016 216.08 556.626 213.96 554.796C211.84 552.966 209.18 552.966 211.31 545.026Z" fill="white" stroke="white" stroke-width="5.6693" stroke-miterlimit="10" stroke-linecap="round" stroke-linejoin="round"/>
<path d="M254.75 264.006L246.75 208.006C246.75 208.006 264.21 209.616 275.75 225.006C278.75 229.006 280.59 232.966 283.75 239.006C289.85 250.646 294.75 269.006 294.75 272.006C294.75 275.726 259.75 278.006 259.75 278.006L254.75 264.006Z" fill="white" stroke="white" stroke-width="5.6693" stroke-miterlimit="10" stroke-linecap="round" stroke-linejoin="round"/>
<path d="M103.75 252.006C104.44 251.196 110.33 257.326 116.95 266.796C123.58 276.266 128.39 284.606 127.7 285.416C127.01 286.226 121.08 279.206 114.45 269.726C107.83 260.266 103.06 252.816 103.75 252.006Z" fill="white" stroke="white" stroke-width="5.6693" stroke-miterlimit="10" stroke-linecap="round" stroke-linejoin="round"/>
<path d="M276.973 276.978C286.388 275.487 293.9 273.517 293.752 272.579C293.603 271.641 285.85 272.089 276.435 273.58C267.02 275.071 259.508 277.04 259.656 277.978C259.805 278.916 267.558 278.468 276.973 276.978Z" fill="white" stroke="white" stroke-width="5.6693" stroke-miterlimit="10" stroke-linecap="round" stroke-linejoin="round"/>
<path d="M262.75 276.006L280.46 323.176C280.46 323.176 285.07 338.306 287.04 340.946C289.01 343.576 290.03 345.556 290.03 345.556C290.03 345.556 291.65 348.186 292.31 352.136C292.97 356.086 292.97 359.376 296.26 358.716C299.55 358.056 297.58 342.926 297.58 342.926C297.58 342.926 305.48 344.896 306.13 348.846C306.78 352.796 308.36 361.196 309.42 363.326C310.74 365.956 311.91 366.796 313.37 366.616C318.63 365.956 315.25 359.616 316 360.696C320.61 367.276 324.59 360.816 323.24 357.406C323.24 357.406 326.53 360.696 327.85 359.376C329.17 358.056 327.85 353.456 327.85 353.456C327.85 353.456 329.82 352.136 330.48 350.826C331.14 349.506 329.16 345.566 324.56 340.956C319.96 336.346 307.45 333.716 305.48 330.426C303.51 327.136 286.77 272.016 286.77 272.016L262.75 276.006Z" fill="white" stroke="white" stroke-width="5.6693" stroke-miterlimit="10" stroke-linecap="round" stroke-linejoin="round"/>
<path d="M327.84 353.457C327.84 353.457 323.26 341.517 313.26 338.517L327.84 353.457Z" fill="white"/>
<path d="M327.84 353.456C326.08 352.256 324.73 351.066 323.47 349.876C322.22 348.676 321.09 347.506 320.02 346.306C318.94 345.116 317.89 343.956 316.83 342.696C315.76 341.426 314.61 340.216 313.26 338.506C315.31 337.946 317.46 338.226 319.34 339.006C321.21 339.806 322.9 341.006 324.22 342.486C325.55 343.956 326.57 345.666 327.24 347.496C327.87 349.346 328.24 351.326 327.84 353.456Z" fill="white"/>
<path d="M323.23 357.396C323.23 357.396 319.25 346.506 311.25 341.506L323.23 357.396Z" fill="white"/>
<path d="M323.23 357.396C321.53 356.256 320.29 355.086 319.14 353.886C318.01 352.676 317.02 351.456 316.12 350.196C315.22 348.926 314.38 347.656 313.6 346.256C312.81 344.846 312.03 343.436 311.26 341.506C313.3 341.436 315.17 342.116 316.76 343.106C318.33 344.116 319.69 345.406 320.73 346.896C321.78 348.376 322.57 350.016 323.05 351.766C323.5 353.526 323.72 355.396 323.23 357.396Z" fill="white"/>
<path d="M315.99 360.686C315.99 360.686 315.48 348.506 306.37 341.506L315.99 360.686Z" fill="white"/>
<path d="M315.99 360.687C314.69 358.947 313.76 357.387 312.9 355.837C312.06 354.287 311.29 352.807 310.58 351.317C309.88 349.817 309.19 348.347 308.5 346.787C307.85 345.167 307.05 343.627 306.37 341.517C308.51 341.757 310.47 342.687 312.01 344.037C313.58 345.367 314.85 347.037 315.7 348.877C316.57 350.707 317.08 352.687 317.19 354.697C317.28 356.687 317.04 358.757 315.99 360.687Z" fill="white"/>
<path d="M107.797 612.38H116.167V559.02H107.797V612.38Z" fill="white" stroke="white" stroke-width="5.6693" stroke-miterlimit="10" stroke-linecap="round" stroke-linejoin="round"/>
<path d="M116.17 606.517H103.61V614.887H116.17V606.517Z" fill="white" stroke="white" stroke-width="5.6693" stroke-miterlimit="10" stroke-linecap="round" stroke-linejoin="round"/>
<path d="M99.0398 648.497H92.8798C90.3598 648.497 88.3098 646.447 88.3098 643.927V580.216C88.3098 577.696 90.3598 575.646 92.8798 575.646H99.0398C101.56 575.646 103.61 577.696 103.61 580.216V643.927C103.61 646.457 101.57 648.497 99.0398 648.497Z" fill="white" stroke="white" stroke-width="5.6693" stroke-miterlimit="10" stroke-linecap="round" stroke-linejoin="round"/>
<path d="M88.3098 638.866H86.6998C85.3798 638.866 84.3198 637.796 84.3198 636.486V587.656C84.3198 586.336 85.3898 585.276 86.6998 585.276H88.3098V638.866Z" fill="white" stroke="white" stroke-width="5.6693" stroke-miterlimit="10" stroke-linecap="round" stroke-linejoin="round"/>
<path d="M301.69 554.006H293.32V607.366H301.69V554.006Z" fill="white" stroke="white" stroke-width="5.6693" stroke-miterlimit="10" stroke-linecap="round" stroke-linejoin="round"/>
<path d="M293.321 609.886L305.881 609.886L305.881 601.516L293.321 601.516L293.321 609.886Z" fill="white" stroke="white" stroke-width="5.6693" stroke-miterlimit="10" stroke-linecap="round" stroke-linejoin="round"/>
<path d="M310.45 643.497H316.61C319.13 643.497 321.18 641.447 321.18 638.927V575.216C321.18 572.696 319.13 570.646 316.61 570.646H310.45C307.93 570.646 305.88 572.696 305.88 575.216V638.927C305.88 641.457 307.93 643.497 310.45 643.497Z" fill="white" stroke="white" stroke-width="5.6693" stroke-miterlimit="10" stroke-linecap="round" stroke-linejoin="round"/>
<path d="M321.18 633.866H322.79C324.11 633.866 325.17 632.796 325.17 631.486V582.656C325.17 581.336 324.1 580.276 322.79 580.276H321.18V633.866Z" fill="white" stroke="white" stroke-width="5.6693" stroke-miterlimit="10" stroke-linecap="round" stroke-linejoin="round"/>
<path d="M162.75 208.006L104.08 251.926L127.93 285.816L154.75 263.006L162.75 208.006Z" fill="white" stroke="white" stroke-width="5.6693" stroke-miterlimit="10" stroke-linecap="round" stroke-linejoin="round"/>
<path d="M126.75 284.006C126.75 284.006 86.2199 306.996 79.8899 307.926C65.7499 310.007 45.1099 212.337 45.1099 212.337L65.3299 203.917L88.8499 272.076L108.75 258.007L126.75 284.006Z" fill="white" stroke="white" stroke-width="5.6693" stroke-miterlimit="10" stroke-linecap="round" stroke-linejoin="round"/>
<path d="M70.7499 220.007C70.7499 220.007 61.0799 188.687 61.5399 186.037C61.9999 183.387 65.3399 172.127 68.5999 168.387C71.8599 164.647 81.4499 156.677 83.0199 155.897C84.5899 155.117 85.8899 153.327 84.3499 151.607C82.8099 149.887 77.7999 145.907 71.2199 150.547C64.6399 155.197 60.7799 158.027 60.7799 158.027C60.7799 158.027 57.5499 151.417 57.0999 149.757C56.6499 148.097 53.8999 132.797 53.1499 128.727C52.3999 124.657 50.1899 115.267 49.9199 114.277C49.6499 113.277 47.5999 110.987 45.4799 111.747C43.3699 112.497 41.3799 114.377 41.7299 116.287C42.0699 118.197 44.7599 138.507 45.1199 139.837C45.4799 141.167 46.0299 145.777 45.9399 146.097C45.8499 146.417 44.7899 147.777 44.0099 146.207C43.2299 144.637 33.1999 113.767 33.1999 113.767C33.1999 113.767 31.7499 109.577 29.8799 109.037C28.0099 108.497 23.5299 111.177 23.5399 112.757C23.5499 114.347 28.4899 131.977 29.6099 135.017C30.7299 138.057 34.4699 149.167 34.7399 150.157C35.0099 151.157 35.0299 152.667 33.2999 151.487C31.5699 150.307 24.1399 130.937 23.0899 128.367C22.0399 125.797 20.7999 122.577 20.1899 121.667C19.5899 120.757 16.8099 119.737 14.9999 120.947C13.1899 122.157 12.5599 123.757 13.0099 125.417C13.4599 127.077 22.7599 151.997 23.5399 153.567C24.3199 155.137 24.8699 157.127 24.9599 157.457C25.0499 157.787 24.5699 158.637 23.6299 157.817C22.6899 157.007 12.9299 137.497 12.1099 136.147C11.2899 134.797 8.75986 133.347 6.60986 134.647C4.45986 135.947 4.85986 138.687 5.54986 139.927C6.23986 141.167 16.1099 161.657 16.9899 163.557C17.8699 165.457 20.1299 177.677 23.6299 181.357C27.1299 185.037 34.1599 190.217 38.5899 192.287C39.9899 192.937 48.9999 226.357 49.7399 229.007C50.4999 231.667 70.7499 220.007 70.7499 220.007Z" fill="white" stroke="white" stroke-width="5.6693" stroke-miterlimit="10" stroke-linecap="round" stroke-linejoin="round"/>
<path d="M60.6797 157.807C60.6797 157.807 56.8997 159.457 56.5397 160.087C56.1797 160.717 46.6697 165.097 44.7997 171.317C42.9297 177.537 42.4797 179.797 42.4797 179.797C42.4797 179.797 40.3097 175.757 42.4497 170.537C44.5897 165.317 53.0997 160.327 54.6997 159.447C56.2997 158.557 59.9597 156.307 59.9597 156.307L60.6797 157.807Z" fill="white" stroke="white" stroke-width="5.6693" stroke-miterlimit="10" stroke-linecap="round" stroke-linejoin="round"/>
<path d="M275.52 449.816H138.51C121.81 449.816 108.28 436.276 108.28 419.586V242.746C108.28 226.046 121.82 212.516 138.51 212.516H275.52C292.22 212.516 305.75 226.056 305.75 242.746V419.576C305.75 436.276 292.22 449.816 275.52 449.816Z" fill="#1A1A1A"/>
<path d="M270.83 454.816H137.99C121.29 454.816 107.76 441.276 107.76 424.586V247.746C107.76 231.046 121.3 217.516 137.99 217.516H270.83C287.53 217.516 301.06 231.056 301.06 247.746V424.576C301.07 441.276 287.53 454.816 270.83 454.816Z" fill="#333333"/>
<path d="M154.75 266.006L162.75 210.006L178.59 206.736C178.59 206.736 180.08 205.006 205.75 205.006C223.52 205.006 228.6 206.736 230.57 206.736L246.75 210.006L254.92 265.296C254.92 265.296 253.6 371.236 250.31 377.156C243.4 389.596 154.24 374.526 154.24 374.526L154.9 265.956" fill="#2E3192"/>
<path d="M252.29 376.536H154.25V430.496H252.29V376.536Z" fill="#36525E"/>
<path d="M292.1 457.366H115.75C108.3 457.366 102.26 451.326 102.26 443.876C102.26 436.426 108.3 430.386 115.75 430.386H292.1C299.55 430.386 305.59 436.426 305.59 443.876C305.59 451.326 299.55 457.366 292.1 457.366Z" fill="#545454"/>
<path d="M110.16 369.926H97.6599V554.966H110.16V369.926Z" fill="#A5A0A3"/>
<path d="M310.85 369.926H298.35V554.966H310.85V369.926Z" fill="#A5A0A3"/>
<path d="M117.76 370.006H86.8399C80.6599 370.006 75.6499 364.996 75.6499 358.816V357.736C75.6499 351.556 80.6599 346.546 86.8399 346.546H117.77C123.95 346.546 128.96 351.556 128.96 357.736V358.816C128.95 365.006 123.94 370.006 117.76 370.006Z" fill="#CCC9CD"/>
<path d="M321.65 370.006H290.72C284.54 370.006 279.53 364.996 279.53 358.816V356.736C279.53 350.556 284.54 345.546 290.72 345.546H321.65C327.83 345.546 332.84 350.556 332.84 356.736V358.816C332.83 365.006 327.82 370.006 321.65 370.006Z" fill="#CCC9CD"/>
<path d="M187.33 569.007H106.68C100.6 569.007 95.6799 564.087 95.6799 558.007V554.957H198.33V558.007C198.33 564.087 193.41 569.007 187.33 569.007Z" fill="#A5A0A3"/>
<path d="M301.17 569.007H220.52C214.44 569.007 209.52 564.087 209.52 558.007V554.957H312.17V558.007C312.17 564.087 307.24 569.007 301.17 569.007Z" fill="#A5A0A3"/>
<path d="M97.66 503.506H86.47V517.986H97.66V503.506Z" fill="#787878"/>
<path d="M322.04 503.506H310.85V517.986H322.04V503.506Z" fill="#787878"/>
<path d="M74.2999 633.796C67.5799 633.796 62.1299 628.346 62.1299 621.626V401.186C62.1299 394.466 67.5799 389.016 74.2999 389.016C81.0199 389.016 86.4699 394.466 86.4699 401.186V621.616C86.4699 628.346 81.0199 633.796 74.2999 633.796Z" fill="#1D1D1B" stroke="black" stroke-miterlimit="10"/>
<path d="M62.1198 606.816H59.2798C54.3098 606.816 50.2798 602.786 50.2798 597.816V424.986C50.2798 420.016 54.3098 415.986 59.2798 415.986H62.1198V606.816Z" fill="#BCB9BB"/>
<path d="M334.21 633.796C327.49 633.796 322.04 628.346 322.04 621.626V401.186C322.04 394.466 327.49 389.016 334.21 389.016C340.93 389.016 346.38 394.466 346.38 401.186V621.616C346.39 628.346 340.94 633.796 334.21 633.796Z" fill="#1D1D1B" stroke="black" stroke-miterlimit="10"/>
<path d="M346.39 603.526H349.23C354.2 603.526 358.23 599.496 358.23 594.526V421.696C358.23 416.726 354.2 412.696 349.23 412.696H346.39V603.526Z" fill="#BCB9BB"/>
<path d="M195.04 548.856H137.79V400.996C137.79 385.186 150.61 372.376 166.41 372.376C182.22 372.376 195.03 385.196 195.03 400.996V548.856H195.04Z" fill="#56869B"/>
<path d="M270.71 548.856H213.46V400.996C213.46 385.186 226.28 372.376 242.08 372.376C257.89 372.376 270.7 385.196 270.7 400.996V548.856H270.71Z" fill="#56869B"/>
<path d="M130.56 547.026C130.56 547.026 146.5 521.986 163.54 522.596C180.58 523.206 196.52 543.966 197.07 547.026C197.62 550.086 197.62 554.356 195.42 556.186C193.22 558.016 135.5 558.626 133.3 556.796C131.11 554.966 128.36 554.966 130.56 547.026Z" fill="#1B1464"/>
<path d="M211.31 547.026C211.31 547.026 226.69 521.986 243.12 522.596C259.56 523.206 274.93 543.966 275.46 547.026C275.99 550.076 275.99 554.356 273.87 556.186C271.75 558.016 216.08 558.626 213.96 556.796C211.84 554.966 209.18 554.966 211.31 547.026Z" fill="#1B1464"/>
<path d="M254.75 266.006L246.75 210.006C246.75 210.006 264.21 211.616 275.75 227.006C278.75 231.006 280.59 234.966 283.75 241.006C289.85 252.646 294.75 271.006 294.75 274.006C294.75 277.726 259.75 280.006 259.75 280.006L254.75 266.006Z" fill="#2E3192"/>
<path d="M103.75 254.006C104.44 253.196 110.33 259.326 116.95 268.796C123.58 278.266 128.39 286.606 127.7 287.416C127.01 288.226 121.08 281.206 114.45 271.726C107.83 262.266 103.06 254.816 103.75 254.006Z" fill="#1B1464"/>
<path d="M276.973 278.978C286.388 277.487 293.9 275.517 293.752 274.579C293.603 273.641 285.85 274.089 276.435 275.58C267.02 277.071 259.508 279.04 259.656 279.978C259.805 280.916 267.558 280.468 276.973 278.978Z" fill="#1B1464"/>
<path d="M262.75 278.006L280.46 325.176C280.46 325.176 285.07 340.306 287.04 342.946C289.01 345.576 290.03 347.556 290.03 347.556C290.03 347.556 291.65 350.186 292.31 354.136C292.97 358.086 292.97 361.376 296.26 360.716C299.55 360.056 297.58 344.926 297.58 344.926C297.58 344.926 305.48 346.896 306.13 350.846C306.78 354.796 308.36 363.196 309.42 365.326C310.74 367.956 311.91 368.796 313.37 368.616C318.63 367.956 315.25 361.616 316 362.696C320.61 369.276 324.59 362.816 323.24 359.406C323.24 359.406 326.53 362.696 327.85 361.376C329.17 360.056 327.85 355.456 327.85 355.456C327.85 355.456 329.82 354.136 330.48 352.826C331.14 351.506 329.16 347.566 324.56 342.956C319.96 338.346 307.45 335.716 305.48 332.426C303.51 329.136 286.77 274.016 286.77 274.016L262.75 278.006Z" fill="#EFCAA6"/>
<path d="M327.84 355.456C326.98 353.876 326.02 352.366 325.02 350.896C324.01 349.436 322.93 348.036 321.74 346.736C320.57 345.416 319.25 344.256 317.86 343.176C316.45 342.116 314.9 341.266 313.26 340.506C315.02 340.896 316.76 341.536 318.3 342.526C319.84 343.506 321.26 344.706 322.48 346.056C324.9 348.786 326.81 351.986 327.84 355.456Z" fill="#E3BB94"/>
<path d="M323.23 359.396C322.44 357.896 321.6 356.446 320.75 355.006C319.88 353.576 318.98 352.176 318.01 350.826C317.06 349.466 315.99 348.196 314.89 346.946C313.77 345.716 312.55 344.586 311.25 343.496C312.76 344.256 314.19 345.226 315.44 346.396C316.69 347.566 317.82 348.856 318.82 350.246C320.78 353.046 322.36 356.116 323.23 359.396Z" fill="#E3BB94"/>
<path d="M315.99 362.686C315.67 360.866 315.2 359.096 314.67 357.356C314.12 355.626 313.47 353.926 312.69 352.306C311.94 350.666 310.99 349.116 309.95 347.646L309.14 346.556L308.25 345.526C307.7 344.786 306.98 344.226 306.36 343.516C307.89 344.536 309.39 345.696 310.56 347.166C311.77 348.596 312.8 350.186 313.59 351.876C315.19 355.256 316.1 358.986 315.99 362.686Z" fill="#E3BB94"/>
<path d="M107.797 614.38H116.167V561.02H107.797V614.38Z" fill="#A5A0A3"/>
<path d="M116.17 608.517H103.61V616.887H116.17V608.517Z" fill="#A5A0A3"/>
<path d="M99.0398 650.497H92.8798C90.3598 650.497 88.3098 648.447 88.3098 645.927V582.216C88.3098 579.696 90.3598 577.646 92.8798 577.646H99.0398C101.56 577.646 103.61 579.696 103.61 582.216V645.927C103.61 648.457 101.57 650.497 99.0398 650.497Z" fill="#1D1D1B" stroke="black" stroke-miterlimit="10"/>
<path d="M88.3098 640.866H86.6998C85.3798 640.866 84.3198 639.796 84.3198 638.486V589.656C84.3198 588.336 85.3898 587.276 86.6998 587.276H88.3098V640.866Z" fill="#BCB9BB"/>
<path d="M301.69 556.006H293.32V609.366H301.69V556.006Z" fill="#A5A0A3"/>
<path d="M293.321 611.886L305.881 611.886L305.881 603.516L293.321 603.516L293.321 611.886Z" fill="#A5A0A3"/>
<path d="M310.45 645.497H316.61C319.13 645.497 321.18 643.447 321.18 640.927V577.216C321.18 574.696 319.13 572.646 316.61 572.646H310.45C307.93 572.646 305.88 574.696 305.88 577.216V640.927C305.88 643.457 307.93 645.497 310.45 645.497Z" fill="#1D1D1B" stroke="black" stroke-miterlimit="10"/>
<path d="M321.18 635.866H322.79C324.11 635.866 325.17 634.796 325.17 633.486V584.656C325.17 583.336 324.1 582.276 322.79 582.276H321.18V635.866Z" fill="#BCB9BB"/>
<path d="M162.75 210.006L104.08 253.926L127.93 287.816L154.75 265.006L162.75 210.006Z" fill="#2E3192"/>
<path d="M126.75 286.006C126.75 286.006 86.2199 308.996 79.8899 309.926C65.7499 312.007 45.1099 214.337 45.1099 214.337L65.3299 205.917L88.8499 274.076L108.75 260.007L126.75 286.006Z" fill="#EFCAA6"/>
<path d="M70.7499 222.007C70.7499 222.007 61.0799 190.687 61.5399 188.037C61.9999 185.387 65.3399 174.127 68.5999 170.387C71.8599 166.647 81.4499 158.677 83.0199 157.897C84.5899 157.117 85.8899 155.327 84.3499 153.607C82.8099 151.887 77.7999 147.907 71.2199 152.547C64.6399 157.187 60.7799 160.027 60.7799 160.027C60.7799 160.027 57.5499 153.417 57.0999 151.757C56.6499 150.097 53.8999 134.797 53.1499 130.727C52.3999 126.657 50.1899 117.267 49.9199 116.277C49.6499 115.277 47.5999 112.987 45.4799 113.747C43.3699 114.497 41.3799 116.377 41.7299 118.287C42.0699 120.197 44.7599 140.507 45.1199 141.837C45.4799 143.167 46.0299 147.777 45.9399 148.097C45.8499 148.417 44.7899 149.777 44.0099 148.207C43.2299 146.637 33.1999 115.767 33.1999 115.767C33.1999 115.767 31.7499 111.577 29.8799 111.037C28.0099 110.497 23.5299 113.177 23.5399 114.757C23.5499 116.347 28.4899 133.977 29.6099 137.017C30.7299 140.057 34.4699 151.167 34.7399 152.157C35.0099 153.157 35.0299 154.667 33.2999 153.487C31.5699 152.307 24.1399 132.937 23.0899 130.367C22.0399 127.797 20.7999 124.577 20.1899 123.667C19.5899 122.757 16.8099 121.737 14.9999 122.947C13.1899 124.157 12.5599 125.757 13.0099 127.417C13.4599 129.077 22.7599 153.997 23.5399 155.567C24.3199 157.137 24.8699 159.127 24.9599 159.457C25.0499 159.787 24.5699 160.637 23.6299 159.817C22.6899 159.007 12.9299 139.497 12.1099 138.147C11.2899 136.797 8.75986 135.347 6.60986 136.647C4.45986 137.947 4.85986 140.687 5.54986 141.927C6.23986 143.167 16.1099 163.657 16.9899 165.557C17.8699 167.457 20.1299 179.677 23.6299 183.357C27.1299 187.037 34.1599 192.217 38.5899 194.287C39.9899 194.937 48.9999 228.357 49.7399 231.007C50.4999 233.667 70.7499 222.007 70.7499 222.007Z" fill="#EFCAA6"/>
<path d="M60.6797 159.807C60.6797 159.807 56.8997 161.457 56.5397 162.087C56.1797 162.717 46.6697 167.097 44.7997 173.317C42.9297 179.537 42.4797 181.797 42.4797 181.797C42.4797 181.797 40.3097 177.757 42.4497 172.537C44.5897 167.317 53.0997 162.327 54.6997 161.447C56.2997 160.557 59.9597 158.307 59.9597 158.307L60.6797 159.807Z" fill="#E3BB94"/>
<path d="M116.07 244.207L155.37 253.937L288.3 255.947" stroke="#A9D0FF" stroke-width="2.8346" stroke-miterlimit="10" stroke-linecap="square" stroke-linejoin="bevel"/>
<path d="M124.25 239.006L157.72 249.216L287.25 250.006C287.25 250.006 277.25 220.006 258.25 213.006C241.33 206.776 228.74 205.076 214.25 204.006C195.66 202.626 182.14 204.626 170.25 207.006C155.25 210.006 124.25 239.006 124.25 239.006Z" fill="#A9D0FF"/>
<path d="M145.03 119.886C145.03 119.886 139.11 114.626 136.48 115.936C133.85 117.256 127.93 124.486 130.56 133.046C133.19 141.596 148.33 153.446 148.33 153.446L145.03 119.886Z" fill="#E3BB94"/>
<path d="M259.53 150.806C259.53 150.806 262.16 154.096 269.4 146.196C276.64 138.296 276.64 128.426 275.98 125.136C275.32 121.846 272.03 114.606 264.79 113.946C257.55 113.306 259.53 150.806 259.53 150.806Z" fill="#E3BB94"/>
<path d="M224 183.707C224 183.707 221.37 204.107 224 205.417C226.63 206.737 230.94 206.617 230.76 208.007C230.55 209.617 224.76 219.007 206.23 219.897C188.74 220.737 177.59 209.737 178.76 208.007C179.92 206.277 183.97 206.937 186.49 205.417C189.78 203.447 187.15 183.707 187.15 183.707H224Z" fill="#E3BB94"/>
<path d="M267.42 100.796C267.42 100.796 263.47 140.276 259.52 150.806C255.57 161.336 245.04 183.706 225.3 189.626C205.56 195.546 187.79 191.596 177.92 188.306C168.05 185.016 149.63 160.016 148.31 153.436C146.99 146.856 141.07 127.116 143.7 102.766C146.33 78.4161 161.47 59.3361 161.47 59.3361L223.98 50.7861L260.17 71.1861L267.42 100.796Z" fill="#EFCAA6"/>
<path d="M162.2 106.536C163.44 105.186 164.93 104.036 166.54 103.056L167.78 102.366L169.07 101.746L170.41 101.226L171.78 100.776C172.24 100.646 172.71 100.506 173.18 100.346L174.61 99.9361C175.09 99.8461 175.58 99.7561 176.07 99.7461C176.56 99.7461 177.05 99.8061 177.54 99.8961C179.46 100.356 181.36 101.286 182.68 103.266L182.53 103.816C180.45 104.876 178.85 105.276 177.27 105.556C176.48 105.696 175.72 105.686 174.93 105.536L173.73 105.336C173.33 105.286 172.92 105.266 172.51 105.256L171.29 105.286L170.06 105.386L168.82 105.506L167.57 105.696C165.9 105.966 164.23 106.426 162.53 107.006L162.2 106.536Z" fill="#844D20"/>
<path d="M242.96 107.016C241.26 106.436 239.6 105.976 237.92 105.706L236.67 105.516L235.43 105.396L234.2 105.296L232.98 105.266C232.57 105.286 232.17 105.306 231.76 105.346L230.56 105.546C229.77 105.696 229.01 105.706 228.22 105.566C226.63 105.276 225.03 104.886 222.96 103.826L222.81 103.276C224.13 101.296 226.02 100.366 227.95 99.9063C228.43 99.8163 228.93 99.7563 229.42 99.7563C229.91 99.7663 230.4 99.8563 230.88 99.9463L232.31 100.356C232.78 100.516 233.24 100.656 233.71 100.786L235.08 101.236L236.42 101.756L237.71 102.376L238.95 103.066C240.56 104.056 242.04 105.196 243.29 106.546L242.96 107.016Z" fill="#844D20"/>
<path d="M175.33 133.036C178.964 133.036 181.91 129.061 181.91 124.156C181.91 119.252 178.964 115.276 175.33 115.276C171.696 115.276 168.75 119.252 168.75 124.156C168.75 129.061 171.696 133.036 175.33 133.036Z" fill="#461A00"/>
<path d="M229.89 133.697C233.524 133.697 236.47 129.721 236.47 124.817C236.47 119.912 233.524 115.937 229.89 115.937C226.256 115.937 223.31 119.912 223.31 124.817C223.31 129.721 226.256 133.697 229.89 133.697Z" fill="#461A00"/>
<path d="M201.87 147.546C200.87 147.976 199.62 147.916 198.5 147.466C197.49 146.836 196.66 145.906 196.23 144.756C195.79 143.596 195.84 142.366 196.11 141.256C196.38 140.146 196.89 139.126 197.46 138.206C198.03 137.286 198.66 136.436 199.23 135.586C199.79 134.746 200.3 133.866 200.77 132.956C201.23 132.046 201.65 131.116 202.01 130.166C202.58 129.286 203.09 128.376 203.65 127.446C203.64 128.526 203.52 129.596 203.33 130.676C202.95 131.676 202.51 132.646 202.03 133.606C201.54 134.556 201 135.486 200.41 136.376C199.82 137.266 199.2 138.096 198.67 138.946C198.14 139.796 197.71 140.676 197.49 141.596C197.27 142.506 197.25 143.456 197.56 144.266C197.86 145.076 198.48 145.806 199.25 146.256C199.91 146.896 200.8 147.376 201.87 147.546Z" fill="#8C6239"/>
<path d="M265.45 123.826C265.45 123.826 248.34 83.0263 246.37 74.4763C244.4 65.9263 237.82 86.3163 195.04 88.9563C152.26 91.5963 146.35 94.2163 146.35 94.2163L143.39 124.156C143.39 124.156 130.56 104.746 133.19 68.5563C135.82 32.3663 148.32 44.2063 148.32 44.2063C148.32 44.2063 141.74 29.0763 152.93 26.4363C164.12 23.7963 188.46 21.8263 194.38 23.8063C200.3 25.7763 211.49 30.3863 211.49 30.3863C211.49 30.3863 211.49 20.5163 223.99 25.1263C236.49 29.7363 258.21 29.0763 265.44 52.1063C272.67 75.1363 271.37 117.246 265.45 123.826Z" fill="#844D20"/>
<path opacity="0.1" d="M187.92 191.586C187.92 191.586 209.52 195.556 222.89 190.316C225.23 189.396 219.39 199.506 204.92 198.846C190.45 198.186 187.92 191.586 187.92 191.586Z" fill="#844D20"/>
<path d="M183.85 162.246C188.13 163.636 190.52 163.846 194.71 164.296C196.61 164.496 200.04 164.886 201.95 164.956C207.2 165.126 211.69 164.966 217.74 164.296C219.29 164.126 222.22 163.566 223.66 162.976C225.1 162.396 225.35 160.556 225.63 159.026C224.62 158.516 223.13 159.126 222 159.256C221.09 159.366 219.94 158.816 219.05 159.026C217.71 159.326 216.47 159.666 215.1 159.686C204.33 159.856 193.62 160.476 183.06 158.366C182.86 159.036 183.42 160.536 183.52 161.666" fill="white"/>
<path d="M182.54 158.046C182.54 158.046 195.7 160.016 204.91 160.016C214.12 160.016 225.31 158.696 225.31 158.696C225.31 158.696 226.63 174.486 204.91 175.146C183.2 175.816 182.54 158.046 182.54 158.046Z" stroke="#A67C52" stroke-miterlimit="10"/>
<path d="M185.91 166.196C188.69 165.446 191.63 165.666 194.5 165.896C199.53 166.296 204.57 166.696 209.6 167.116C213.12 167.406 217.73 168.326 221.03 169.566C220.95 170.756 219.51 171.096 218.4 171.536C217.22 172.006 216.34 173.196 215.11 173.506C213.92 173.806 213.04 174.016 211.82 174.166C209.48 174.456 207.58 175.196 205.24 175.486C204.33 175.596 200.9 174.856 199.98 174.826C197.96 174.766 195.95 174.226 194.06 173.506C193.09 173.136 192.4 172.556 191.43 172.186C190.86 171.966 189.96 171.226 189.46 170.866C188.95 170.506 188.55 170.026 188.14 169.546C187.33 168.586 186.32 167.876 185.51 166.916" fill="#D86755"/>
<g opacity="0.3">
<path opacity="0.3" d="M155.11 264.057C155.04 262.767 155.11 261.507 155.22 260.257C155.33 258.997 155.51 257.757 155.72 256.517C155.95 255.287 156.2 254.057 156.53 252.837C156.85 251.617 157.22 250.407 157.73 249.227C157.8 250.517 157.74 251.777 157.62 253.027C157.51 254.287 157.33 255.527 157.12 256.767C156.89 257.997 156.64 259.227 156.31 260.447C155.98 261.667 155.61 262.877 155.11 264.057Z" fill="#293084"/>
</g>
<g opacity="0.3">
<path opacity="0.3" d="M254.92 265.306C254.46 264.056 254.14 262.776 253.88 261.496C253.6 260.216 253.41 258.926 253.23 257.636C253.08 256.346 252.94 255.046 252.89 253.736C252.83 252.436 252.81 251.116 252.94 249.786C253.4 251.036 253.72 252.316 253.99 253.586C254.27 254.866 254.46 256.156 254.64 257.446C254.79 258.736 254.93 260.036 254.98 261.346C255.03 262.666 255.05 263.976 254.92 265.306Z" fill="#293084"/>
</g>
</svg>
