<svg width="379" height="667" viewBox="0 0 379 667" fill="none" xmlns="http://www.w3.org/2000/svg">
<ellipse cx="203.218" cy="619.886" rx="175.038" ry="46.7096" fill="black" fill-opacity="0.1"/>
<path d="M273.52 429.816H136.51C119.81 429.816 106.28 416.276 106.28 399.586V222.746C106.28 206.046 119.82 192.516 136.51 192.516H273.52C290.22 192.516 303.75 206.056 303.75 222.746V399.576C303.75 416.276 290.22 429.816 273.52 429.816Z" fill="white" stroke="white" stroke-width="5.6693" stroke-miterlimit="10" stroke-linecap="round" stroke-linejoin="round"/>
<path d="M268.83 434.816H135.99C119.29 434.816 105.76 421.276 105.76 404.586V227.746C105.76 211.046 119.3 197.516 135.99 197.516H268.83C285.53 197.516 299.06 211.056 299.06 227.746V404.576C299.07 421.276 285.53 434.816 268.83 434.816Z" fill="white" stroke="white" stroke-width="5.6693" stroke-miterlimit="10" stroke-linecap="round" stroke-linejoin="round"/>
<path d="M143.03 99.8861C143.03 99.8861 137.11 94.6261 134.48 95.9361C131.85 97.2561 125.93 104.486 128.56 113.046C131.19 121.596 146.33 133.446 146.33 133.446L143.03 99.8861Z" fill="white" stroke="white" stroke-width="5.6693" stroke-miterlimit="10" stroke-linecap="round" stroke-linejoin="round"/>
<path d="M257.53 130.806C257.53 130.806 260.16 134.096 267.4 126.196C274.64 118.296 274.64 108.426 273.98 105.136C273.32 101.846 270.03 94.6061 262.79 93.9461C255.55 93.3061 257.53 130.806 257.53 130.806Z" fill="white" stroke="white" stroke-width="5.6693" stroke-miterlimit="10" stroke-linecap="round" stroke-linejoin="round"/>
<path d="M152.75 246.006L160.75 190.006L176.59 186.736C176.59 186.736 178.08 185.006 203.75 185.006C221.52 185.006 226.6 186.736 228.57 186.736L244.75 190.006L252.92 245.296C252.92 245.296 251.6 351.236 248.31 357.156C241.4 369.596 152.24 354.526 152.24 354.526L152.9 245.956" fill="white"/>
<path d="M152.75 246.006L160.75 190.006L176.59 186.736C176.59 186.736 178.08 185.006 203.75 185.006C221.52 185.006 226.6 186.736 228.57 186.736L244.75 190.006L252.92 245.296C252.92 245.296 251.6 351.236 248.31 357.156C241.4 369.596 152.24 354.526 152.24 354.526L152.9 245.956" stroke="white" stroke-width="5.6693" stroke-miterlimit="10" stroke-linecap="round" stroke-linejoin="round"/>
<path d="M250.29 356.536H152.25V410.496H250.29V356.536Z" fill="white" stroke="white" stroke-width="5.6693" stroke-miterlimit="10" stroke-linecap="round" stroke-linejoin="round"/>
<path d="M290.1 437.366H113.75C106.3 437.366 100.26 431.326 100.26 423.876C100.26 416.426 106.3 410.386 113.75 410.386H290.1C297.55 410.386 303.59 416.426 303.59 423.876C303.59 431.326 297.55 437.366 290.1 437.366Z" fill="white" stroke="white" stroke-width="5.6693" stroke-miterlimit="10" stroke-linecap="round" stroke-linejoin="round"/>
<path d="M108.16 349.926H95.6599V534.966H108.16V349.926Z" fill="white" stroke="white" stroke-width="5.6693" stroke-miterlimit="10" stroke-linecap="round" stroke-linejoin="round"/>
<path d="M308.85 349.926H296.35V534.966H308.85V349.926Z" fill="white" stroke="white" stroke-width="5.6693" stroke-miterlimit="10" stroke-linecap="round" stroke-linejoin="round"/>
<path d="M115.76 350.006H84.8398C78.6598 350.006 73.6498 344.996 73.6498 338.816V337.736C73.6498 331.556 78.6598 326.546 84.8398 326.546H115.77C121.95 326.546 126.96 331.556 126.96 337.736V338.816C126.95 345.006 121.94 350.006 115.76 350.006Z" fill="white" stroke="white" stroke-width="5.6693" stroke-miterlimit="10" stroke-linecap="round" stroke-linejoin="round"/>
<path d="M319.65 350.006H288.72C282.54 350.006 277.53 344.996 277.53 338.816V336.736C277.53 330.556 282.54 325.546 288.72 325.546H319.65C325.83 325.546 330.84 330.556 330.84 336.736V338.816C330.83 345.006 325.82 350.006 319.65 350.006Z" fill="white" stroke="white" stroke-width="5.6693" stroke-miterlimit="10" stroke-linecap="round" stroke-linejoin="round"/>
<path d="M185.33 549.007H104.68C98.5999 549.007 93.6799 544.087 93.6799 538.007V534.957H196.33V538.007C196.33 544.087 191.41 549.007 185.33 549.007Z" fill="white" stroke="white" stroke-width="5.6693" stroke-miterlimit="10" stroke-linecap="round" stroke-linejoin="round"/>
<path d="M299.17 549.007H218.52C212.44 549.007 207.52 544.087 207.52 538.007V534.957H310.17V538.007C310.17 544.087 305.24 549.007 299.17 549.007Z" fill="white" stroke="white" stroke-width="5.6693" stroke-miterlimit="10" stroke-linecap="round" stroke-linejoin="round"/>
<path d="M95.6599 483.506H84.4698V497.986H95.6599V483.506Z" fill="white" stroke="white" stroke-width="5.6693" stroke-miterlimit="10" stroke-linecap="round" stroke-linejoin="round"/>
<path d="M320.04 483.506H308.85V497.986H320.04V483.506Z" fill="white" stroke="white" stroke-width="5.6693" stroke-miterlimit="10" stroke-linecap="round" stroke-linejoin="round"/>
<path d="M222 163.707C222 163.707 219.37 184.107 222 185.417C224.63 186.737 228.94 186.617 228.76 188.007C228.55 189.617 222.76 199.007 204.23 199.897C186.74 200.737 175.59 189.737 176.76 188.007C177.92 186.277 181.97 186.937 184.49 185.417C187.78 183.447 185.15 163.707 185.15 163.707H222Z" fill="white" stroke="white" stroke-width="5.6693" stroke-miterlimit="10" stroke-linecap="round" stroke-linejoin="round"/>
<path d="M265.42 80.7961C265.42 80.7961 261.47 120.276 257.52 130.806C253.57 141.336 243.04 163.706 223.3 169.626C203.56 175.546 185.79 171.596 175.92 168.306C166.05 165.016 147.63 140.016 146.31 133.436C144.99 126.856 139.07 107.116 141.7 82.7661C144.33 58.4161 159.47 39.3361 159.47 39.3361L221.98 30.7861L258.17 51.1861L265.42 80.7961Z" fill="white" stroke="white" stroke-width="5.6693" stroke-miterlimit="10" stroke-linecap="round" stroke-linejoin="round"/>
<path d="M160.35 86.7759C166.23 82.9059 173.79 81.6959 180.58 83.5359L160.35 86.7759Z" fill="white"/>
<path d="M160.2 86.5361C161.44 85.1861 162.93 84.0361 164.54 83.0561L165.78 82.3661L167.07 81.7461L168.41 81.2261L169.78 80.7761C170.24 80.6461 170.71 80.5061 171.18 80.3461L172.61 79.9361C173.09 79.8461 173.58 79.7561 174.07 79.7461C174.56 79.7461 175.05 79.8061 175.54 79.8961C177.46 80.3561 179.36 81.2861 180.68 83.2661C180.8 83.4361 180.75 83.6761 180.58 83.7861C180.57 83.7961 180.56 83.8061 180.54 83.8061H180.53C178.45 84.8661 176.85 85.2661 175.27 85.5461C174.48 85.6861 173.72 85.6761 172.93 85.5261L171.73 85.3261C171.33 85.2761 170.92 85.2561 170.51 85.2461L169.29 85.2761L168.06 85.3761L166.82 85.4961L165.57 85.6861C163.9 85.9561 162.23 86.4161 160.53 86.9961C160.38 87.0461 160.21 86.9661 160.16 86.8161C160.1 86.7261 160.13 86.6161 160.2 86.5361Z" fill="white"/>
<path d="M241.12 86.7764C235.24 82.9064 227.68 81.6964 220.89 83.5364L241.12 86.7764Z" fill="white"/>
<path d="M240.96 87.0163C239.26 86.4363 237.6 85.9763 235.92 85.7063L234.67 85.5163L233.43 85.3963L232.2 85.2963L230.98 85.2663C230.57 85.2863 230.17 85.3063 229.76 85.3463L228.56 85.5463C227.77 85.6963 227.01 85.7063 226.22 85.5663C224.63 85.2763 223.03 84.8863 220.96 83.8263H220.95C220.76 83.7363 220.69 83.5063 220.79 83.3163C220.8 83.3063 220.8 83.2863 220.81 83.2763C222.13 81.2963 224.02 80.3663 225.95 79.9063C226.43 79.8163 226.93 79.7563 227.42 79.7563C227.91 79.7663 228.4 79.8563 228.88 79.9463L230.31 80.3563C230.78 80.5163 231.24 80.6563 231.71 80.7863L233.08 81.2363L234.42 81.7563L235.71 82.3763L236.95 83.0663C238.56 84.0563 240.04 85.1963 241.29 86.5463C241.4 86.6663 241.39 86.8463 241.27 86.9563C241.17 87.0263 241.06 87.0463 240.96 87.0163Z" fill="white"/>
<path d="M173.33 113.036C176.964 113.036 179.91 109.061 179.91 104.156C179.91 99.2521 176.964 95.2764 173.33 95.2764C169.696 95.2764 166.75 99.2521 166.75 104.156C166.75 109.061 169.696 113.036 173.33 113.036Z" fill="white" stroke="white" stroke-width="5.6693" stroke-miterlimit="10" stroke-linecap="round" stroke-linejoin="round"/>
<path d="M227.89 113.697C231.524 113.697 234.47 109.721 234.47 104.817C234.47 99.9122 231.524 95.9365 227.89 95.9365C224.256 95.9365 221.31 99.9122 221.31 104.817C221.31 109.721 224.256 113.697 227.89 113.697Z" fill="white" stroke="white" stroke-width="5.6693" stroke-miterlimit="10" stroke-linecap="round" stroke-linejoin="round"/>
<path d="M199.87 127.546C197.6 127.846 195.24 126.206 194.74 123.976C194.4 122.496 194.82 120.936 195.5 119.576C196.18 118.216 197.13 117.026 197.97 115.756C199.64 113.216 200.84 110.376 201.65 107.446" fill="white"/>
<path d="M199.87 127.546C198.97 128.876 197.19 129.446 195.38 129.296C194.03 128.396 192.86 127.156 192.25 125.496C191.62 123.816 191.72 122.156 192.05 120.746C192.39 119.336 193.02 118.106 193.65 117.086C194.29 116.056 194.93 115.196 195.46 114.406C195.98 113.636 196.44 112.826 196.87 111.996C197.29 111.156 197.68 110.296 198.02 109.406C199.17 108.826 200.27 108.146 201.65 107.446C202.46 108.756 202.92 110.066 203.32 111.436C202.91 112.496 202.45 113.546 201.93 114.566C201.41 115.586 200.82 116.596 200.18 117.556C199.55 118.496 198.95 119.316 198.49 120.066C198.03 120.816 197.72 121.476 197.57 122.106C197.42 122.716 197.45 123.246 197.57 123.526C197.68 123.836 197.97 124.246 198.39 124.436C198.34 125.366 198.7 126.486 199.87 127.546Z" fill="white"/>
<path d="M72.2998 613.796C65.5798 613.796 60.1298 608.346 60.1298 601.626V381.186C60.1298 374.466 65.5798 369.016 72.2998 369.016C79.0198 369.016 84.4698 374.466 84.4698 381.186V601.616C84.4698 608.346 79.0198 613.796 72.2998 613.796Z" fill="white" stroke="white" stroke-width="5.6693" stroke-miterlimit="10" stroke-linecap="round" stroke-linejoin="round"/>
<path d="M60.1198 586.816H57.2798C52.3098 586.816 48.2798 582.786 48.2798 577.816V404.986C48.2798 400.016 52.3098 395.986 57.2798 395.986H60.1198V586.816Z" fill="white" stroke="white" stroke-width="5.6693" stroke-miterlimit="10" stroke-linecap="round" stroke-linejoin="round"/>
<path d="M332.21 613.796C325.49 613.796 320.04 608.346 320.04 601.626V381.186C320.04 374.466 325.49 369.016 332.21 369.016C338.93 369.016 344.38 374.466 344.38 381.186V601.616C344.39 608.346 338.94 613.796 332.21 613.796Z" fill="white" stroke="white" stroke-width="5.6693" stroke-miterlimit="10" stroke-linecap="round" stroke-linejoin="round"/>
<path d="M344.39 583.526H347.23C352.2 583.526 356.23 579.496 356.23 574.526V401.696C356.23 396.726 352.2 392.696 347.23 392.696H344.39V583.526Z" fill="white" stroke="white" stroke-width="5.6693" stroke-miterlimit="10" stroke-linecap="round" stroke-linejoin="round"/>
<path d="M263.45 103.826C263.45 103.826 246.34 63.0263 244.37 54.4763C242.4 45.9263 235.82 66.3163 193.04 68.9563C150.26 71.5963 144.35 74.2163 144.35 74.2163L141.39 104.156C141.39 104.156 128.56 84.7463 131.19 48.5563C133.82 12.3663 146.32 24.2063 146.32 24.2063C146.32 24.2063 139.74 9.07632 150.93 6.43632C162.12 3.79632 186.46 1.82632 192.38 3.80632C198.3 5.77632 209.49 10.3863 209.49 10.3863C209.49 10.3863 209.49 0.516319 221.99 5.12632C234.49 9.73632 256.21 9.07632 263.44 32.1063C270.67 55.1363 269.37 97.2463 263.45 103.826Z" fill="white" stroke="white" stroke-width="5.6693" stroke-miterlimit="10" stroke-linecap="round" stroke-linejoin="round"/>
<path opacity="0.1" d="M185.92 171.586C185.92 171.586 207.52 175.556 220.89 170.316C223.23 169.396 217.39 179.506 202.92 178.846C188.45 178.186 185.92 171.586 185.92 171.586Z" fill="white" stroke="white" stroke-width="5.6693" stroke-miterlimit="10" stroke-linecap="round" stroke-linejoin="round"/>
<path d="M181.85 142.246C186.13 143.636 188.52 143.846 192.71 144.296C194.61 144.496 198.04 144.886 199.95 144.956C205.2 145.126 209.69 144.966 215.74 144.296C217.29 144.126 220.22 143.566 221.66 142.976C223.1 142.396 223.35 140.556 223.63 139.026C222.62 138.516 221.13 139.126 220 139.256C219.09 139.366 217.94 138.816 217.05 139.026C215.71 139.326 214.47 139.666 213.1 139.686C202.33 139.856 191.62 140.476 181.06 138.366C180.86 139.036 181.42 140.536 181.52 141.666" fill="white"/>
<path d="M179.59 150.446C184.05 151.876 188.65 152.366 193.29 152.866C197.23 153.296 201.13 153.576 205.1 153.516C209.97 153.446 214.93 153.086 219.73 152.246C222.05 151.836 224.44 151.256 226.47 150.036C229.62 148.136 231.2 144.786 231.84 141.306C232.24 139.116 232.25 136.716 230.98 134.756C229.71 132.796 228.07 131.686 225.9 130.846C223.2 129.806 220.46 130.666 217.75 131.076C218.5 130.976 219.26 130.876 220.01 130.776C219.77 130.796 219.53 130.796 219.29 130.756C220.04 130.856 220.8 130.956 221.55 131.056C220.06 130.816 218.56 130.446 217.05 130.536C215.38 130.636 213.82 131.116 212.18 131.386C212.93 131.286 213.69 131.186 214.44 131.086C212.08 131.386 209.62 131.266 207.24 131.316C204.8 131.366 202.36 131.416 199.93 131.416C195.07 131.416 190.22 131.226 185.4 130.596C186.15 130.696 186.91 130.796 187.66 130.896C186.21 130.696 184.77 130.456 183.33 130.176C181.16 129.756 178.72 129.786 176.78 131.036C175.02 132.166 173.25 133.976 172.87 136.116C172.5 138.216 172.51 139.466 172.89 141.596C173.01 142.266 173.17 142.916 173.29 143.586C173.19 142.836 173.09 142.076 172.99 141.326C173 141.446 173.02 141.556 173.03 141.676C173.31 144.006 173.79 145.966 175.52 147.686C176.99 149.156 179.41 150.276 181.53 150.176C183.73 150.076 186.01 149.356 187.54 147.686C188.96 146.136 190.29 143.856 190.03 141.676C189.84 140.056 189.52 138.506 189.26 136.906C189.36 137.656 189.46 138.416 189.56 139.166C189.53 138.976 189.52 138.786 189.53 138.596C189.43 139.346 189.33 140.106 189.23 140.856C189.24 140.786 189.26 140.706 189.27 140.636C185.78 142.616 182.3 144.596 178.81 146.576C185.53 147.896 192.36 148.396 199.2 148.416C202.29 148.426 205.38 148.356 208.46 148.296C212.15 148.216 215.69 148.076 219.31 147.246C218.56 147.346 217.8 147.446 217.05 147.546C217.44 147.496 217.75 147.516 218.14 147.556C217.39 147.456 216.63 147.356 215.88 147.256C217.65 147.566 219.34 147.866 221.14 147.626C222.27 147.476 223.38 147.216 224.51 147.066C223.76 147.166 223 147.266 222.25 147.366C222.49 147.336 222.74 147.336 222.98 147.356C222.23 147.256 221.47 147.156 220.72 147.056C220.95 147.076 221.17 147.136 221.38 147.246C219.4 143.756 217.42 140.276 215.44 136.786C215.29 137.626 215.14 138.456 214.83 139.256C215.12 138.576 215.4 137.906 215.69 137.226C215.56 137.506 215.43 137.746 215.25 137.996C215.69 137.426 216.14 136.846 216.58 136.276C216.46 136.426 216.33 136.566 216.17 136.686C216.74 136.246 217.32 135.796 217.89 135.356C217.73 135.476 217.56 135.576 217.38 135.656C218.06 135.366 218.73 135.086 219.41 134.796C217.7 135.446 215.86 135.776 214.05 136.046C214.8 135.946 215.56 135.846 216.31 135.746C207.1 136.966 197.92 136.576 188.75 135.366C189.5 135.466 190.26 135.566 191.01 135.666C188.66 135.336 186.38 134.796 184.12 134.066C179.88 132.706 174.65 135.656 173.66 140.006C172.59 144.636 175.05 148.996 179.59 150.446Z" fill="white"/>
<path d="M180.54 138.046C180.54 138.046 193.7 140.016 202.91 140.016C212.12 140.016 223.31 138.696 223.31 138.696C223.31 138.696 224.63 154.486 202.91 155.146C181.2 155.816 180.54 138.046 180.54 138.046Z" fill="white" stroke="white" stroke-width="5.6693" stroke-miterlimit="10" stroke-linecap="round" stroke-linejoin="round"/>
<path d="M183.91 146.196C186.69 145.446 189.63 145.666 192.5 145.896C197.53 146.296 202.57 146.696 207.6 147.116C211.12 147.406 215.73 148.326 219.03 149.566C218.95 150.756 217.51 151.096 216.4 151.536C215.22 152.006 214.34 153.196 213.11 153.506C211.92 153.806 211.04 154.016 209.82 154.166C207.48 154.456 205.58 155.196 203.24 155.486C202.33 155.596 198.9 154.856 197.98 154.826C195.96 154.766 193.95 154.226 192.06 153.506C191.09 153.136 190.4 152.556 189.43 152.186C188.86 151.966 187.96 151.226 187.46 150.866C186.95 150.506 186.55 150.026 186.14 149.546C185.33 148.586 184.32 147.876 183.51 146.916" fill="white"/>
<path d="M186.17 154.396C186.76 154.246 187.35 154.136 187.95 154.046C187.2 154.146 186.44 154.246 185.69 154.346C189.63 153.866 193.69 154.496 197.62 154.806C201.58 155.126 205.57 155.326 209.51 155.826C208.76 155.726 208 155.626 207.25 155.526C210.48 155.966 213.71 156.646 216.78 157.766C214.8 154.276 212.82 150.796 210.84 147.306C210.83 147.496 210.78 147.666 210.69 147.836C210.98 147.156 211.26 146.486 211.55 145.806C211.5 145.876 211.45 145.956 211.41 146.026C211.85 145.456 212.3 144.876 212.74 144.306C212.62 144.446 212.49 144.566 212.34 144.676C212.91 144.236 213.49 143.786 214.06 143.346C213.8 143.506 213.55 143.636 213.27 143.766C213.95 143.476 214.62 143.196 215.3 142.906C213.97 143.436 212.55 143.836 211.35 144.616C210.6 145.106 209.97 145.696 209.15 146.066C209.83 145.776 210.5 145.496 211.18 145.206C210.15 145.536 209.07 145.746 208.01 145.906C208.76 145.806 209.52 145.706 210.27 145.606C208.39 145.856 206.54 146.086 204.7 146.526C203.47 146.816 202.24 147.116 200.99 147.286C201.74 147.186 202.5 147.086 203.25 146.986C202.76 147.026 202.26 146.946 201.78 146.886C202.53 146.986 203.29 147.086 204.04 147.186C201.56 146.836 199.08 146.496 196.59 146.216C197.34 146.316 198.1 146.416 198.85 146.516C197.29 146.286 195.8 145.856 194.32 145.316C195 145.606 195.67 145.886 196.35 146.176C194.71 145.486 193.18 144.586 191.74 143.546C192.31 143.986 192.89 144.436 193.46 144.876C192.74 144.316 192.22 143.596 191.58 142.956C190.9 142.276 190.16 141.656 189.51 140.936C186.54 137.606 180.47 137.686 177.48 140.936C174.22 144.486 174.31 149.406 177.48 152.966C178.54 154.146 179.72 155.336 180.86 156.436C182.26 157.786 183.97 158.966 185.71 159.826C187.77 160.836 189.79 161.866 192.01 162.466C194.12 163.036 196.31 163.146 198.47 163.396C197.72 163.296 196.96 163.196 196.21 163.096C198.43 163.396 200.68 163.986 202.92 164.026C206 164.076 209.04 162.816 212.07 162.396C211.32 162.496 210.56 162.596 209.81 162.696C212.19 162.376 214.48 162.136 216.7 161.196C217.58 160.826 218.3 160.506 219.05 159.946C219.58 159.556 220.07 159.176 220.68 158.906C220 159.196 219.33 159.476 218.65 159.766C220 159.246 221.39 158.796 222.63 158.046C224.8 156.736 226.79 154.396 227.23 151.846C227.61 149.636 227.65 147.276 226.37 145.296C225.11 143.346 223.47 142.186 221.29 141.386C215.27 139.186 208.82 138.726 202.48 138.216C199.23 137.956 195.98 137.696 192.74 137.436C188.99 137.136 185.33 137.096 181.64 138.016C177.32 139.096 174.31 144.176 175.7 148.476C177.15 152.926 181.54 155.556 186.17 154.396Z" fill="white"/>
<path d="M193.04 528.856H135.79V380.996C135.79 365.186 148.61 352.376 164.41 352.376C180.22 352.376 193.03 365.196 193.03 380.996V528.856H193.04Z" fill="white" stroke="white" stroke-width="5.6693" stroke-miterlimit="10" stroke-linecap="round" stroke-linejoin="round"/>
<path d="M268.71 528.856H211.46V380.996C211.46 365.186 224.28 352.376 240.08 352.376C255.89 352.376 268.7 365.196 268.7 380.996V528.856H268.71Z" fill="white" stroke="white" stroke-width="5.6693" stroke-miterlimit="10" stroke-linecap="round" stroke-linejoin="round"/>
<path d="M128.56 527.026C128.56 527.026 144.5 501.986 161.54 502.596C178.58 503.206 194.52 523.966 195.07 527.026C195.62 530.086 195.62 534.356 193.42 536.186C191.22 538.016 133.5 538.626 131.3 536.796C129.11 534.966 126.36 534.966 128.56 527.026Z" fill="white" stroke="white" stroke-width="5.6693" stroke-miterlimit="10" stroke-linecap="round" stroke-linejoin="round"/>
<path d="M209.31 527.026C209.31 527.026 224.69 501.986 241.12 502.596C257.56 503.206 272.93 523.966 273.46 527.026C273.99 530.076 273.99 534.356 271.87 536.186C269.75 538.016 214.08 538.626 211.96 536.796C209.84 534.966 207.18 534.966 209.31 527.026Z" fill="white" stroke="white" stroke-width="5.6693" stroke-miterlimit="10" stroke-linecap="round" stroke-linejoin="round"/>
<path d="M252.75 246.006L244.75 190.006C244.75 190.006 262.21 191.616 273.75 207.006C276.75 211.006 278.59 214.966 281.75 221.006C287.85 232.646 292.75 251.006 292.75 254.006C292.75 257.726 257.75 260.006 257.75 260.006L252.75 246.006Z" fill="white" stroke="white" stroke-width="5.6693" stroke-miterlimit="10" stroke-linecap="round" stroke-linejoin="round"/>
<path d="M101.75 234.006C102.44 233.196 108.33 239.326 114.95 248.796C121.58 258.266 126.39 266.606 125.7 267.416C125.01 268.226 119.08 261.206 112.45 251.726C105.83 242.266 101.06 234.816 101.75 234.006Z" fill="white" stroke="white" stroke-width="5.6693" stroke-miterlimit="10" stroke-linecap="round" stroke-linejoin="round"/>
<path d="M274.973 258.978C284.388 257.487 291.9 255.517 291.752 254.579C291.603 253.641 283.85 254.089 274.435 255.58C265.02 257.071 257.508 259.04 257.656 259.978C257.805 260.916 265.558 260.468 274.973 258.978Z" fill="white" stroke="white" stroke-width="5.6693" stroke-miterlimit="10" stroke-linecap="round" stroke-linejoin="round"/>
<path d="M260.75 258.006L278.46 305.176C278.46 305.176 283.07 320.306 285.04 322.946C287.01 325.576 288.03 327.556 288.03 327.556C288.03 327.556 289.65 330.186 290.31 334.136C290.97 338.086 290.97 341.376 294.26 340.716C297.55 340.056 295.58 324.926 295.58 324.926C295.58 324.926 303.48 326.896 304.13 330.846C304.78 334.796 306.36 343.196 307.42 345.326C308.74 347.956 309.91 348.796 311.37 348.616C316.63 347.956 313.25 341.616 314 342.696C318.61 349.276 322.59 342.816 321.24 339.406C321.24 339.406 324.53 342.696 325.85 341.376C327.17 340.056 325.85 335.456 325.85 335.456C325.85 335.456 327.82 334.136 328.48 332.826C329.14 331.506 327.16 327.566 322.56 322.956C317.96 318.346 305.45 315.716 303.48 312.426C301.51 309.136 284.77 254.016 284.77 254.016L260.75 258.006Z" fill="white" stroke="white" stroke-width="5.6693" stroke-miterlimit="10" stroke-linecap="round" stroke-linejoin="round"/>
<path d="M325.84 335.457C325.84 335.457 321.26 323.517 311.26 320.517L325.84 335.457Z" fill="white"/>
<path d="M325.84 335.456C324.08 334.256 322.73 333.066 321.47 331.876C320.22 330.676 319.09 329.506 318.02 328.306C316.94 327.116 315.89 325.956 314.83 324.696C313.76 323.426 312.61 322.216 311.26 320.506C313.31 319.946 315.46 320.226 317.34 321.006C319.21 321.806 320.9 323.006 322.22 324.486C323.55 325.956 324.57 327.666 325.24 329.496C325.87 331.346 326.24 333.326 325.84 335.456Z" fill="white"/>
<path d="M321.23 339.396C321.23 339.396 317.25 328.506 309.25 323.506L321.23 339.396Z" fill="white"/>
<path d="M321.23 339.396C319.53 338.256 318.29 337.086 317.14 335.886C316.01 334.676 315.02 333.456 314.12 332.196C313.22 330.926 312.38 329.656 311.6 328.256C310.81 326.846 310.03 325.436 309.26 323.506C311.3 323.436 313.17 324.116 314.76 325.106C316.33 326.116 317.69 327.406 318.73 328.896C319.78 330.376 320.57 332.016 321.05 333.766C321.5 335.526 321.72 337.396 321.23 339.396Z" fill="white"/>
<path d="M313.99 342.686C313.99 342.686 313.48 330.506 304.37 323.506L313.99 342.686Z" fill="white"/>
<path d="M313.99 342.687C312.69 340.947 311.76 339.387 310.9 337.837C310.06 336.287 309.29 334.807 308.58 333.317C307.88 331.817 307.19 330.347 306.5 328.787C305.85 327.167 305.05 325.627 304.37 323.517C306.51 323.757 308.47 324.687 310.01 326.037C311.58 327.367 312.85 329.037 313.7 330.877C314.57 332.707 315.08 334.687 315.19 336.697C315.28 338.687 315.04 340.757 313.99 342.687Z" fill="white"/>
<path d="M105.797 594.38H114.167V541.02H105.797V594.38Z" fill="white" stroke="white" stroke-width="5.6693" stroke-miterlimit="10" stroke-linecap="round" stroke-linejoin="round"/>
<path d="M114.17 588.517H101.61V596.887H114.17V588.517Z" fill="white" stroke="white" stroke-width="5.6693" stroke-miterlimit="10" stroke-linecap="round" stroke-linejoin="round"/>
<path d="M97.0398 630.497H90.8798C88.3598 630.497 86.3098 628.447 86.3098 625.927V562.216C86.3098 559.696 88.3598 557.646 90.8798 557.646H97.0398C99.5598 557.646 101.61 559.696 101.61 562.216V625.927C101.61 628.457 99.5698 630.497 97.0398 630.497Z" fill="white" stroke="white" stroke-width="5.6693" stroke-miterlimit="10" stroke-linecap="round" stroke-linejoin="round"/>
<path d="M86.3098 620.866H84.6998C83.3798 620.866 82.3198 619.796 82.3198 618.486V569.656C82.3198 568.336 83.3898 567.276 84.6998 567.276H86.3098V620.866Z" fill="white" stroke="white" stroke-width="5.6693" stroke-miterlimit="10" stroke-linecap="round" stroke-linejoin="round"/>
<path d="M299.69 536.006H291.32V589.366H299.69V536.006Z" fill="white" stroke="white" stroke-width="5.6693" stroke-miterlimit="10" stroke-linecap="round" stroke-linejoin="round"/>
<path d="M291.321 591.886L303.881 591.886L303.881 583.516L291.321 583.516L291.321 591.886Z" fill="white" stroke="white" stroke-width="5.6693" stroke-miterlimit="10" stroke-linecap="round" stroke-linejoin="round"/>
<path d="M308.45 625.497H314.61C317.13 625.497 319.18 623.447 319.18 620.927V557.216C319.18 554.696 317.13 552.646 314.61 552.646H308.45C305.93 552.646 303.88 554.696 303.88 557.216V620.927C303.88 623.457 305.93 625.497 308.45 625.497Z" fill="white" stroke="white" stroke-width="5.6693" stroke-miterlimit="10" stroke-linecap="round" stroke-linejoin="round"/>
<path d="M319.18 615.866H320.79C322.11 615.866 323.17 614.796 323.17 613.486V564.656C323.17 563.336 322.1 562.276 320.79 562.276H319.18V615.866Z" fill="white" stroke="white" stroke-width="5.6693" stroke-miterlimit="10" stroke-linecap="round" stroke-linejoin="round"/>
<path d="M160.75 190.006L102.08 233.926L125.93 267.816L152.75 245.006L160.75 190.006Z" fill="white" stroke="white" stroke-width="5.6693" stroke-miterlimit="10" stroke-linecap="round" stroke-linejoin="round"/>
<path d="M124.75 266.006C124.75 266.006 84.2199 288.996 77.8899 289.926C63.7499 292.007 43.1099 194.337 43.1099 194.337L63.3299 185.917L86.8499 254.076L106.75 240.007L124.75 266.006Z" fill="white" stroke="white" stroke-width="5.6693" stroke-miterlimit="10" stroke-linecap="round" stroke-linejoin="round"/>
<path d="M68.7499 202.007C68.7499 202.007 59.0799 170.687 59.5399 168.037C59.9999 165.387 63.3399 154.127 66.5999 150.387C69.8599 146.647 79.4499 138.677 81.0199 137.897C82.5899 137.117 83.8899 135.327 82.3499 133.607C80.8099 131.887 75.7999 127.907 69.2199 132.547C62.6399 137.197 58.7799 140.027 58.7799 140.027C58.7799 140.027 55.5499 133.417 55.0999 131.757C54.6499 130.097 51.8999 114.797 51.1499 110.727C50.3999 106.657 48.1899 97.2665 47.9199 96.2765C47.6499 95.2765 45.5999 92.9865 43.4799 93.7465C41.3699 94.4965 39.3799 96.3765 39.7299 98.2865C40.0699 100.197 42.7599 120.507 43.1199 121.837C43.4799 123.167 44.0299 127.777 43.9399 128.097C43.8499 128.417 42.7899 129.777 42.0099 128.207C41.2299 126.637 31.1999 95.7665 31.1999 95.7665C31.1999 95.7665 29.7499 91.5765 27.8799 91.0365C26.0099 90.4965 21.5299 93.1765 21.5399 94.7565C21.5499 96.3465 26.4899 113.977 27.6099 117.017C28.7299 120.057 32.4699 131.167 32.7399 132.157C33.0099 133.157 33.0299 134.667 31.2999 133.487C29.5699 132.307 22.1399 112.937 21.0899 110.367C20.0399 107.797 18.7999 104.577 18.1899 103.667C17.5899 102.757 14.8099 101.737 12.9999 102.947C11.1899 104.157 10.5599 105.757 11.0099 107.417C11.4599 109.077 20.7599 133.997 21.5399 135.567C22.3199 137.137 22.8699 139.127 22.9599 139.457C23.0499 139.787 22.5699 140.637 21.6299 139.817C20.6899 139.007 10.9299 119.497 10.1099 118.147C9.28986 116.797 6.75986 115.347 4.60986 116.647C2.45986 117.947 2.85986 120.687 3.54986 121.927C4.23986 123.167 14.1099 143.657 14.9899 145.557C15.8699 147.457 18.1299 159.677 21.6299 163.357C25.1299 167.037 32.1599 172.217 36.5899 174.287C37.9899 174.937 46.9999 208.357 47.7399 211.007C48.4999 213.667 68.7499 202.007 68.7499 202.007Z" fill="white" stroke="white" stroke-width="5.6693" stroke-miterlimit="10" stroke-linecap="round" stroke-linejoin="round"/>
<path d="M58.6799 139.807C58.6799 139.807 54.8999 141.457 54.5399 142.087C54.1799 142.717 44.6699 147.097 42.7999 153.317C40.9299 159.537 40.4799 161.797 40.4799 161.797C40.4799 161.797 38.3099 157.757 40.4499 152.537C42.5899 147.317 51.0999 142.327 52.6999 141.447C54.2999 140.557 57.9599 138.307 57.9599 138.307L58.6799 139.807Z" fill="white" stroke="white" stroke-width="5.6693" stroke-miterlimit="10" stroke-linecap="round" stroke-linejoin="round"/>
<path d="M273.52 431.816H136.51C119.81 431.816 106.28 418.276 106.28 401.586V224.746C106.28 208.046 119.82 194.516 136.51 194.516H273.52C290.22 194.516 303.75 208.056 303.75 224.746V401.576C303.75 418.276 290.22 431.816 273.52 431.816Z" fill="#1A1A1A"/>
<path d="M268.83 436.816H135.99C119.29 436.816 105.76 423.276 105.76 406.586V229.746C105.76 213.046 119.3 199.516 135.99 199.516H268.83C285.53 199.516 299.06 213.056 299.06 229.746V406.576C299.07 423.276 285.53 436.816 268.83 436.816Z" fill="#333333"/>
<path d="M152.75 248.006L160.75 192.006L176.59 188.736C176.59 188.736 178.08 187.006 203.75 187.006C221.52 187.006 226.6 188.736 228.57 188.736L244.75 192.006L252.92 247.296C252.92 247.296 251.6 353.236 248.31 359.156C241.4 371.596 152.24 356.526 152.24 356.526L152.9 247.956" fill="#2E3192"/>
<path d="M250.29 358.536H152.25V412.496H250.29V358.536Z" fill="#36525E"/>
<path d="M290.1 439.366H113.75C106.3 439.366 100.26 433.326 100.26 425.876C100.26 418.426 106.3 412.386 113.75 412.386H290.1C297.55 412.386 303.59 418.426 303.59 425.876C303.59 433.326 297.55 439.366 290.1 439.366Z" fill="#545454"/>
<path d="M108.16 351.926H95.6599V536.966H108.16V351.926Z" fill="#A5A0A3"/>
<path d="M308.85 351.926H296.35V536.966H308.85V351.926Z" fill="#A5A0A3"/>
<path d="M115.76 352.006H84.8398C78.6598 352.006 73.6498 346.996 73.6498 340.816V339.736C73.6498 333.556 78.6598 328.546 84.8398 328.546H115.77C121.95 328.546 126.96 333.556 126.96 339.736V340.816C126.95 347.006 121.94 352.006 115.76 352.006Z" fill="#CCC9CD"/>
<path d="M319.65 352.006H288.72C282.54 352.006 277.53 346.996 277.53 340.816V338.736C277.53 332.556 282.54 327.546 288.72 327.546H319.65C325.83 327.546 330.84 332.556 330.84 338.736V340.816C330.83 347.006 325.82 352.006 319.65 352.006Z" fill="#CCC9CD"/>
<path d="M185.33 551.007H104.68C98.5999 551.007 93.6799 546.087 93.6799 540.007V536.957H196.33V540.007C196.33 546.087 191.41 551.007 185.33 551.007Z" fill="#A5A0A3"/>
<path d="M299.17 551.007H218.52C212.44 551.007 207.52 546.087 207.52 540.007V536.957H310.17V540.007C310.17 546.087 305.24 551.007 299.17 551.007Z" fill="#A5A0A3"/>
<path d="M95.6599 485.506H84.4698V499.986H95.6599V485.506Z" fill="#787878"/>
<path d="M320.04 485.506H308.85V499.986H320.04V485.506Z" fill="#787878"/>
<path d="M72.2998 615.796C65.5798 615.796 60.1298 610.346 60.1298 603.626V383.186C60.1298 376.466 65.5798 371.016 72.2998 371.016C79.0198 371.016 84.4698 376.466 84.4698 383.186V603.616C84.4698 610.346 79.0198 615.796 72.2998 615.796Z" fill="#1D1D1B" stroke="black" stroke-miterlimit="10"/>
<path d="M60.1198 588.816H57.2798C52.3098 588.816 48.2798 584.786 48.2798 579.816V406.986C48.2798 402.016 52.3098 397.986 57.2798 397.986H60.1198V588.816Z" fill="#BCB9BB"/>
<path d="M332.21 615.796C325.49 615.796 320.04 610.346 320.04 603.626V383.186C320.04 376.466 325.49 371.016 332.21 371.016C338.93 371.016 344.38 376.466 344.38 383.186V603.616C344.39 610.346 338.94 615.796 332.21 615.796Z" fill="#1D1D1B" stroke="black" stroke-miterlimit="10"/>
<path d="M344.39 585.526H347.23C352.2 585.526 356.23 581.496 356.23 576.526V403.696C356.23 398.726 352.2 394.696 347.23 394.696H344.39V585.526Z" fill="#BCB9BB"/>
<path d="M193.04 530.856H135.79V382.996C135.79 367.186 148.61 354.376 164.41 354.376C180.22 354.376 193.03 367.196 193.03 382.996V530.856H193.04Z" fill="#56869B"/>
<path d="M268.71 530.856H211.46V382.996C211.46 367.186 224.28 354.376 240.08 354.376C255.89 354.376 268.7 367.196 268.7 382.996V530.856H268.71Z" fill="#56869B"/>
<path d="M128.56 529.026C128.56 529.026 144.5 503.986 161.54 504.596C178.58 505.206 194.52 525.966 195.07 529.026C195.62 532.086 195.62 536.356 193.42 538.186C191.22 540.016 133.5 540.626 131.3 538.796C129.11 536.966 126.36 536.966 128.56 529.026Z" fill="#1B1464"/>
<path d="M209.31 529.026C209.31 529.026 224.69 503.986 241.12 504.596C257.56 505.206 272.93 525.966 273.46 529.026C273.99 532.076 273.99 536.356 271.87 538.186C269.75 540.016 214.08 540.626 211.96 538.796C209.84 536.966 207.18 536.966 209.31 529.026Z" fill="#1B1464"/>
<path d="M252.75 248.006L244.75 192.006C244.75 192.006 262.21 193.616 273.75 209.006C276.75 213.006 278.59 216.966 281.75 223.006C287.85 234.646 292.75 253.006 292.75 256.006C292.75 259.726 257.75 262.006 257.75 262.006L252.75 248.006Z" fill="#2E3192"/>
<path d="M101.75 236.006C102.44 235.196 108.33 241.326 114.95 250.796C121.58 260.266 126.39 268.606 125.7 269.416C125.01 270.226 119.08 263.206 112.45 253.726C105.83 244.266 101.06 236.816 101.75 236.006Z" fill="#1B1464"/>
<path d="M274.973 260.978C284.388 259.487 291.9 257.517 291.752 256.579C291.603 255.641 283.85 256.089 274.435 257.58C265.02 259.071 257.508 261.04 257.656 261.978C257.805 262.916 265.558 262.468 274.973 260.978Z" fill="#1B1464"/>
<path d="M260.75 260.006L278.46 307.176C278.46 307.176 283.07 322.306 285.04 324.946C287.01 327.576 288.03 329.556 288.03 329.556C288.03 329.556 289.65 332.186 290.31 336.136C290.97 340.086 290.97 343.376 294.26 342.716C297.55 342.056 295.58 326.926 295.58 326.926C295.58 326.926 303.48 328.896 304.13 332.846C304.78 336.796 306.36 345.196 307.42 347.326C308.74 349.956 309.91 350.796 311.37 350.616C316.63 349.956 313.25 343.616 314 344.696C318.61 351.276 322.59 344.816 321.24 341.406C321.24 341.406 324.53 344.696 325.85 343.376C327.17 342.056 325.85 337.456 325.85 337.456C325.85 337.456 327.82 336.136 328.48 334.826C329.14 333.506 327.16 329.566 322.56 324.956C317.96 320.346 305.45 317.716 303.48 314.426C301.51 311.136 284.77 256.016 284.77 256.016L260.75 260.006Z" fill="#EFCAA6"/>
<path d="M325.84 337.456C324.98 335.876 324.02 334.366 323.02 332.896C322.01 331.436 320.93 330.036 319.74 328.736C318.57 327.416 317.25 326.256 315.86 325.176C314.45 324.116 312.9 323.266 311.26 322.506C313.02 322.896 314.76 323.536 316.3 324.526C317.84 325.506 319.26 326.706 320.48 328.056C322.9 330.786 324.81 333.986 325.84 337.456Z" fill="#E3BB94"/>
<path d="M321.23 341.396C320.44 339.896 319.6 338.446 318.75 337.006C317.88 335.576 316.98 334.176 316.01 332.826C315.06 331.466 313.99 330.196 312.89 328.946C311.77 327.716 310.55 326.586 309.25 325.496C310.76 326.256 312.19 327.226 313.44 328.396C314.69 329.566 315.82 330.856 316.82 332.246C318.78 335.046 320.36 338.116 321.23 341.396Z" fill="#E3BB94"/>
<path d="M313.99 344.686C313.67 342.866 313.2 341.096 312.67 339.356C312.12 337.626 311.47 335.926 310.69 334.306C309.94 332.666 308.99 331.116 307.95 329.646L307.14 328.556L306.25 327.526C305.7 326.786 304.98 326.226 304.36 325.516C305.89 326.536 307.39 327.696 308.56 329.166C309.77 330.596 310.8 332.186 311.59 333.876C313.19 337.256 314.1 340.986 313.99 344.686Z" fill="#E3BB94"/>
<path d="M105.797 596.38H114.167V543.02H105.797V596.38Z" fill="#A5A0A3"/>
<path d="M114.17 590.517H101.61V598.887H114.17V590.517Z" fill="#A5A0A3"/>
<path d="M97.0398 632.497H90.8798C88.3598 632.497 86.3098 630.447 86.3098 627.927V564.216C86.3098 561.696 88.3598 559.646 90.8798 559.646H97.0398C99.5598 559.646 101.61 561.696 101.61 564.216V627.927C101.61 630.457 99.5698 632.497 97.0398 632.497Z" fill="#1D1D1B" stroke="black" stroke-miterlimit="10"/>
<path d="M86.3098 622.866H84.6998C83.3798 622.866 82.3198 621.796 82.3198 620.486V571.656C82.3198 570.336 83.3898 569.276 84.6998 569.276H86.3098V622.866Z" fill="#BCB9BB"/>
<path d="M299.69 538.006H291.32V591.366H299.69V538.006Z" fill="#A5A0A3"/>
<path d="M291.321 593.886L303.881 593.886L303.881 585.516L291.321 585.516L291.321 593.886Z" fill="#A5A0A3"/>
<path d="M308.45 627.497H314.61C317.13 627.497 319.18 625.447 319.18 622.927V559.216C319.18 556.696 317.13 554.646 314.61 554.646H308.45C305.93 554.646 303.88 556.696 303.88 559.216V622.927C303.88 625.457 305.93 627.497 308.45 627.497Z" fill="#1D1D1B" stroke="black" stroke-miterlimit="10"/>
<path d="M319.18 617.866H320.79C322.11 617.866 323.17 616.796 323.17 615.486V566.656C323.17 565.336 322.1 564.276 320.79 564.276H319.18V617.866Z" fill="#BCB9BB"/>
<path d="M160.75 192.006L102.08 235.926L125.93 269.816L152.75 247.006L160.75 192.006Z" fill="#2E3192"/>
<path d="M124.75 268.006C124.75 268.006 84.2199 290.996 77.8899 291.926C63.7499 294.007 43.1099 196.337 43.1099 196.337L63.3299 187.917L86.8499 256.076L106.75 242.007L124.75 268.006Z" fill="#EFCAA6"/>
<path d="M68.7499 204.007C68.7499 204.007 59.0799 172.687 59.5399 170.037C59.9999 167.387 63.3399 156.127 66.5999 152.387C69.8599 148.647 79.4499 140.677 81.0199 139.897C82.5899 139.117 83.8899 137.327 82.3499 135.607C80.8099 133.887 75.7999 129.907 69.2199 134.547C62.6399 139.187 58.7799 142.027 58.7799 142.027C58.7799 142.027 55.5499 135.417 55.0999 133.757C54.6499 132.097 51.8999 116.797 51.1499 112.727C50.3999 108.657 48.1899 99.2665 47.9199 98.2765C47.6499 97.2765 45.5999 94.9865 43.4799 95.7465C41.3699 96.4965 39.3799 98.3765 39.7299 100.287C40.0699 102.197 42.7599 122.507 43.1199 123.837C43.4799 125.167 44.0299 129.777 43.9399 130.097C43.8499 130.417 42.7899 131.777 42.0099 130.207C41.2299 128.637 31.1999 97.7665 31.1999 97.7665C31.1999 97.7665 29.7499 93.5765 27.8799 93.0365C26.0099 92.4965 21.5299 95.1765 21.5399 96.7565C21.5499 98.3465 26.4899 115.977 27.6099 119.017C28.7299 122.057 32.4699 133.167 32.7399 134.157C33.0099 135.157 33.0299 136.667 31.2999 135.487C29.5699 134.307 22.1399 114.937 21.0899 112.367C20.0399 109.797 18.7999 106.577 18.1899 105.667C17.5899 104.757 14.8099 103.737 12.9999 104.947C11.1899 106.157 10.5599 107.757 11.0099 109.417C11.4599 111.077 20.7599 135.997 21.5399 137.567C22.3199 139.137 22.8699 141.127 22.9599 141.457C23.0499 141.787 22.5699 142.637 21.6299 141.817C20.6899 141.007 10.9299 121.497 10.1099 120.147C9.28986 118.797 6.75986 117.347 4.60986 118.647C2.45986 119.947 2.85986 122.687 3.54986 123.927C4.23986 125.167 14.1099 145.657 14.9899 147.557C15.8699 149.457 18.1299 161.677 21.6299 165.357C25.1299 169.037 32.1599 174.217 36.5899 176.287C37.9899 176.937 46.9999 210.357 47.7399 213.007C48.4999 215.667 68.7499 204.007 68.7499 204.007Z" fill="#EFCAA6"/>
<path d="M58.6799 141.807C58.6799 141.807 54.8999 143.457 54.5399 144.087C54.1799 144.717 44.6699 149.097 42.7999 155.317C40.9299 161.537 40.4799 163.797 40.4799 163.797C40.4799 163.797 38.3099 159.757 40.4499 154.537C42.5899 149.317 51.0999 144.327 52.6999 143.447C54.2999 142.557 57.9599 140.307 57.9599 140.307L58.6799 141.807Z" fill="#E3BB94"/>
<path d="M114.07 226.207L153.37 235.937L286.3 237.947" stroke="#A9D0FF" stroke-width="2.8346" stroke-miterlimit="10" stroke-linecap="square" stroke-linejoin="bevel"/>
<path d="M122.25 221.006L155.72 231.216L285.25 232.006C285.25 232.006 275.25 202.006 256.25 195.006C239.33 188.776 226.74 187.076 212.25 186.006C193.66 184.626 180.14 186.626 168.25 189.006C153.25 192.006 122.25 221.006 122.25 221.006Z" fill="#A9D0FF"/>
<path d="M143.03 101.886C143.03 101.886 137.11 96.6261 134.48 97.9361C131.85 99.2561 125.93 106.486 128.56 115.046C131.19 123.596 146.33 135.446 146.33 135.446L143.03 101.886Z" fill="#E3BB94"/>
<path d="M257.53 132.806C257.53 132.806 260.16 136.096 267.4 128.196C274.64 120.296 274.64 110.426 273.98 107.136C273.32 103.846 270.03 96.6061 262.79 95.9461C255.55 95.3061 257.53 132.806 257.53 132.806Z" fill="#E3BB94"/>
<path d="M222 165.707C222 165.707 219.37 186.107 222 187.417C224.63 188.737 228.94 188.617 228.76 190.007C228.55 191.617 222.76 201.007 204.23 201.897C186.74 202.737 175.59 191.737 176.76 190.007C177.92 188.277 181.97 188.937 184.49 187.417C187.78 185.447 185.15 165.707 185.15 165.707H222Z" fill="#E3BB94"/>
<path d="M265.42 82.7961C265.42 82.7961 261.47 122.276 257.52 132.806C253.57 143.336 243.04 165.706 223.3 171.626C203.56 177.546 185.79 173.596 175.92 170.306C166.05 167.016 147.63 142.016 146.31 135.436C144.99 128.856 139.07 109.116 141.7 84.7661C144.33 60.4161 159.47 41.3361 159.47 41.3361L221.98 32.7861L258.17 53.1861L265.42 82.7961Z" fill="#EFCAA6"/>
<path d="M160.2 88.5361C161.44 87.1861 162.93 86.0361 164.54 85.0561L165.78 84.3661L167.07 83.7461L168.41 83.2261L169.78 82.7761C170.24 82.6461 170.71 82.5061 171.18 82.3461L172.61 81.9361C173.09 81.8461 173.58 81.7561 174.07 81.7461C174.56 81.7461 175.05 81.8061 175.54 81.8961C177.46 82.3561 179.36 83.2861 180.68 85.2661L180.53 85.8161C178.45 86.8761 176.85 87.2761 175.27 87.5561C174.48 87.6961 173.72 87.6861 172.93 87.5361L171.73 87.3361C171.33 87.2861 170.92 87.2661 170.51 87.2561L169.29 87.2861L168.06 87.3861L166.82 87.5061L165.57 87.6961C163.9 87.9661 162.23 88.4261 160.53 89.0061L160.2 88.5361Z" fill="#844D20"/>
<path d="M240.96 89.0163C239.26 88.4363 237.6 87.9763 235.92 87.7063L234.67 87.5163L233.43 87.3963L232.2 87.2963L230.98 87.2663C230.57 87.2863 230.17 87.3063 229.76 87.3463L228.56 87.5463C227.77 87.6963 227.01 87.7063 226.22 87.5663C224.63 87.2763 223.03 86.8863 220.96 85.8263L220.81 85.2763C222.13 83.2963 224.02 82.3663 225.95 81.9063C226.43 81.8163 226.93 81.7563 227.42 81.7563C227.91 81.7663 228.4 81.8563 228.88 81.9463L230.31 82.3563C230.78 82.5163 231.24 82.6563 231.71 82.7863L233.08 83.2363L234.42 83.7563L235.71 84.3763L236.95 85.0663C238.56 86.0563 240.04 87.1963 241.29 88.5463L240.96 89.0163Z" fill="#844D20"/>
<path d="M173.33 115.036C176.964 115.036 179.91 111.061 179.91 106.156C179.91 101.252 176.964 97.2764 173.33 97.2764C169.696 97.2764 166.75 101.252 166.75 106.156C166.75 111.061 169.696 115.036 173.33 115.036Z" fill="#461A00"/>
<path d="M227.89 115.697C231.524 115.697 234.47 111.721 234.47 106.817C234.47 101.912 231.524 97.9365 227.89 97.9365C224.256 97.9365 221.31 101.912 221.31 106.817C221.31 111.721 224.256 115.697 227.89 115.697Z" fill="#461A00"/>
<path d="M199.87 129.546C198.87 129.976 197.62 129.916 196.5 129.466C195.49 128.836 194.66 127.906 194.23 126.756C193.79 125.596 193.84 124.366 194.11 123.256C194.38 122.146 194.89 121.126 195.46 120.206C196.03 119.286 196.66 118.436 197.23 117.586C197.79 116.746 198.3 115.866 198.77 114.956C199.23 114.046 199.65 113.116 200.01 112.166C200.58 111.286 201.09 110.376 201.65 109.446C201.64 110.526 201.52 111.596 201.33 112.676C200.95 113.676 200.51 114.646 200.03 115.606C199.54 116.556 199 117.486 198.41 118.376C197.82 119.266 197.2 120.096 196.67 120.946C196.14 121.796 195.71 122.676 195.49 123.596C195.27 124.506 195.25 125.456 195.56 126.266C195.86 127.076 196.48 127.806 197.25 128.256C197.91 128.896 198.8 129.376 199.87 129.546Z" fill="#8C6239"/>
<path d="M263.45 105.826C263.45 105.826 246.34 65.0263 244.37 56.4763C242.4 47.9263 235.82 68.3163 193.04 70.9563C150.26 73.5963 144.35 76.2163 144.35 76.2163L141.39 106.156C141.39 106.156 128.56 86.7463 131.19 50.5563C133.82 14.3663 146.32 26.2063 146.32 26.2063C146.32 26.2063 139.74 11.0763 150.93 8.43632C162.12 5.79632 186.46 3.82632 192.38 5.80632C198.3 7.77632 209.49 12.3863 209.49 12.3863C209.49 12.3863 209.49 2.51632 221.99 7.12632C234.49 11.7363 256.21 11.0763 263.44 34.1063C270.67 57.1363 269.37 99.2463 263.45 105.826Z" fill="#844D20"/>
<path opacity="0.1" d="M185.92 173.586C185.92 173.586 207.52 177.556 220.89 172.316C223.23 171.396 217.39 181.506 202.92 180.846C188.45 180.186 185.92 173.586 185.92 173.586Z" fill="#844D20"/>
<path d="M181.85 144.246C186.13 145.636 188.52 145.846 192.71 146.296C194.61 146.496 198.04 146.886 199.95 146.956C205.2 147.126 209.69 146.966 215.74 146.296C217.29 146.126 220.22 145.566 221.66 144.976C223.1 144.396 223.35 142.556 223.63 141.026C222.62 140.516 221.13 141.126 220 141.256C219.09 141.366 217.94 140.816 217.05 141.026C215.71 141.326 214.47 141.666 213.1 141.686C202.33 141.856 191.62 142.476 181.06 140.366C180.86 141.036 181.42 142.536 181.52 143.666" fill="white"/>
<path d="M180.54 140.046C180.54 140.046 193.7 142.016 202.91 142.016C212.12 142.016 223.31 140.696 223.31 140.696C223.31 140.696 224.63 156.486 202.91 157.146C181.2 157.816 180.54 140.046 180.54 140.046Z" stroke="#A67C52" stroke-miterlimit="10"/>
<path d="M183.91 148.196C186.69 147.446 189.63 147.666 192.5 147.896C197.53 148.296 202.57 148.696 207.6 149.116C211.12 149.406 215.73 150.326 219.03 151.566C218.95 152.756 217.51 153.096 216.4 153.536C215.22 154.006 214.34 155.196 213.11 155.506C211.92 155.806 211.04 156.016 209.82 156.166C207.48 156.456 205.58 157.196 203.24 157.486C202.33 157.596 198.9 156.856 197.98 156.826C195.96 156.766 193.95 156.226 192.06 155.506C191.09 155.136 190.4 154.556 189.43 154.186C188.86 153.966 187.96 153.226 187.46 152.866C186.95 152.506 186.55 152.026 186.14 151.546C185.33 150.586 184.32 149.876 183.51 148.916" fill="#D86755"/>
<g opacity="0.3">
<path opacity="0.3" d="M153.11 246.057C153.04 244.767 153.11 243.507 153.22 242.257C153.33 240.997 153.51 239.757 153.72 238.517C153.95 237.287 154.2 236.057 154.53 234.837C154.85 233.617 155.22 232.407 155.73 231.227C155.8 232.517 155.74 233.777 155.62 235.027C155.51 236.287 155.33 237.527 155.12 238.767C154.89 239.997 154.64 241.227 154.31 242.447C153.98 243.667 153.61 244.877 153.11 246.057Z" fill="#293084"/>
</g>
<g opacity="0.3">
<path opacity="0.3" d="M252.92 247.306C252.46 246.056 252.14 244.776 251.88 243.496C251.6 242.216 251.41 240.926 251.23 239.636C251.08 238.346 250.94 237.046 250.89 235.736C250.83 234.436 250.81 233.116 250.94 231.786C251.4 233.036 251.72 234.316 251.99 235.586C252.27 236.866 252.46 238.156 252.64 239.446C252.79 240.736 252.93 242.036 252.98 243.346C253.03 244.666 253.05 245.976 252.92 247.306Z" fill="#293084"/>
</g>
</svg>
