<svg width="351" height="673" viewBox="0 0 351 673" fill="none" xmlns="http://www.w3.org/2000/svg">
<path d="M246.08 429.804H109.07C92.3698 429.804 78.8398 416.264 78.8398 399.574V222.734C78.8398 206.034 92.3798 192.504 109.07 192.504H246.08C262.78 192.504 276.31 206.044 276.31 222.734V399.564C276.31 416.264 262.77 429.804 246.08 429.804Z" fill="white" stroke="white" stroke-width="5.6693" stroke-miterlimit="10" stroke-linecap="round" stroke-linejoin="round"/>
<path d="M241.39 434.804H108.54C91.8398 434.804 78.3098 421.264 78.3098 404.574V227.734C78.3098 211.034 91.8498 197.504 108.54 197.504H241.38C258.08 197.504 271.61 211.044 271.61 227.734V404.564C271.62 421.264 258.08 434.804 241.39 434.804Z" fill="white" stroke="white" stroke-width="5.6693" stroke-miterlimit="10" stroke-linecap="round" stroke-linejoin="round"/>
<path d="M115.59 99.8744C115.59 99.8744 109.67 94.6144 107.04 95.9244C104.41 97.2444 98.4899 104.474 101.12 113.034C103.75 121.594 118.89 133.434 118.89 133.434L115.59 99.8744Z" fill="white" stroke="white" stroke-width="5.6693" stroke-miterlimit="10" stroke-linecap="round" stroke-linejoin="round"/>
<path d="M230.08 130.794C230.08 130.794 232.71 134.084 239.95 126.184C247.19 118.284 247.19 108.414 246.53 105.124C245.87 101.834 242.58 94.5944 235.34 93.9344C228.11 93.2944 230.08 130.794 230.08 130.794Z" fill="white" stroke="white" stroke-width="5.6693" stroke-miterlimit="10" stroke-linecap="round" stroke-linejoin="round"/>
<path d="M125.31 245.995L133.31 189.995L149.15 186.725C149.15 186.725 150.64 184.995 176.31 184.995C194.08 184.995 199.16 186.725 201.13 186.725L217.31 189.995L225.48 245.285C225.48 245.285 224.16 351.225 220.87 357.145C213.96 369.585 124.8 354.515 124.8 354.515L125.46 245.945" fill="white"/>
<path d="M125.31 245.995L133.31 189.995L149.15 186.725C149.15 186.725 150.64 184.995 176.31 184.995C194.08 184.995 199.16 186.725 201.13 186.725L217.31 189.995L225.48 245.285C225.48 245.285 224.16 351.225 220.87 357.145C213.96 369.585 124.8 354.515 124.8 354.515L125.46 245.945" stroke="white" stroke-width="5.6693" stroke-miterlimit="10" stroke-linecap="round" stroke-linejoin="round"/>
<path d="M222.84 356.524H124.8V410.484H222.84V356.524Z" fill="white" stroke="white" stroke-width="5.6693" stroke-miterlimit="10" stroke-linecap="round" stroke-linejoin="round"/>
<path d="M262.65 437.355H86.3098C78.8598 437.355 72.8198 431.315 72.8198 423.865C72.8198 416.415 78.8598 410.375 86.3098 410.375H262.66C270.11 410.375 276.15 416.415 276.15 423.865C276.14 431.315 270.1 437.355 262.65 437.355Z" fill="white" stroke="white" stroke-width="5.6693" stroke-miterlimit="10" stroke-linecap="round" stroke-linejoin="round"/>
<path d="M80.7098 349.915H68.2098V534.955H80.7098V349.915Z" fill="white" stroke="white" stroke-width="5.6693" stroke-miterlimit="10" stroke-linecap="round" stroke-linejoin="round"/>
<path d="M281.41 349.915H268.91V534.955H281.41V349.915Z" fill="white" stroke="white" stroke-width="5.6693" stroke-miterlimit="10" stroke-linecap="round" stroke-linejoin="round"/>
<path d="M88.3198 349.995H57.3898C51.2098 349.995 46.1998 344.985 46.1998 338.805V337.725C46.1998 331.545 51.2098 326.535 57.3898 326.535H88.3198C94.4998 326.535 99.5098 331.545 99.5098 337.725V338.805C99.5098 344.995 94.4998 349.995 88.3198 349.995Z" fill="white" stroke="white" stroke-width="5.6693" stroke-miterlimit="10" stroke-linecap="round" stroke-linejoin="round"/>
<path d="M292.2 349.995H261.27C255.09 349.995 250.08 344.985 250.08 338.805V336.725C250.08 330.545 255.09 325.535 261.27 325.535H292.2C298.38 325.535 303.39 330.545 303.39 336.725V338.805C303.39 344.995 298.38 349.995 292.2 349.995Z" fill="white" stroke="white" stroke-width="5.6693" stroke-miterlimit="10" stroke-linecap="round" stroke-linejoin="round"/>
<path d="M157.89 548.995H77.2399C71.1599 548.995 66.2399 544.075 66.2399 537.995V534.945H168.89V537.995C168.89 544.075 163.96 548.995 157.89 548.995Z" fill="white" stroke="white" stroke-width="5.6693" stroke-miterlimit="10" stroke-linecap="round" stroke-linejoin="round"/>
<path d="M271.72 548.995H191.07C184.99 548.995 180.07 544.075 180.07 537.995V534.945H282.72V537.995C282.72 544.075 277.8 548.995 271.72 548.995Z" fill="white" stroke="white" stroke-width="5.6693" stroke-miterlimit="10" stroke-linecap="round" stroke-linejoin="round"/>
<path d="M68.2198 483.495H57.0298V497.975H68.2198V483.495Z" fill="white" stroke="white" stroke-width="5.6693" stroke-miterlimit="10" stroke-linecap="round" stroke-linejoin="round"/>
<path d="M292.6 483.495H281.41V497.975H292.6V483.495Z" fill="white" stroke="white" stroke-width="5.6693" stroke-miterlimit="10" stroke-linecap="round" stroke-linejoin="round"/>
<path d="M194.55 163.694C194.55 163.694 191.92 184.094 194.55 185.404C197.18 186.724 201.49 186.604 201.31 187.994C201.1 189.604 195.31 198.994 176.78 199.884C159.29 200.724 148.14 189.724 149.31 187.994C150.47 186.264 154.52 186.924 157.04 185.404C160.33 183.434 157.7 163.694 157.7 163.694H194.55Z" fill="white" stroke="white" stroke-width="5.6693" stroke-miterlimit="10" stroke-linecap="round" stroke-linejoin="round"/>
<path d="M237.98 80.7844C237.98 80.7844 234.03 120.264 230.08 130.794C226.13 141.324 215.6 163.694 195.86 169.614C176.12 175.534 158.35 171.584 148.48 168.294C138.61 165.004 120.19 140.004 118.87 133.424C117.55 126.844 111.63 107.104 114.26 82.7544C116.89 58.4044 132.03 39.3244 132.03 39.3244L194.54 30.7744L230.73 51.1744L237.98 80.7844Z" fill="white" stroke="white" stroke-width="5.6693" stroke-miterlimit="10" stroke-linecap="round" stroke-linejoin="round"/>
<path d="M132.91 86.7642C138.79 82.8942 146.35 81.6842 153.14 83.5242L132.91 86.7642Z" fill="white"/>
<path d="M132.75 86.5244C133.99 85.1744 135.48 84.0244 137.09 83.0444L138.33 82.3544L139.62 81.7344L140.96 81.2144L142.33 80.7644C142.79 80.6344 143.26 80.4944 143.73 80.3344L145.16 79.9244C145.64 79.8344 146.13 79.7444 146.62 79.7344C147.11 79.7344 147.6 79.7944 148.09 79.8844C150.01 80.3444 151.91 81.2744 153.23 83.2544C153.35 83.4244 153.3 83.6644 153.13 83.7744C153.12 83.7844 153.11 83.7944 153.09 83.7944H153.08C151 84.8544 149.4 85.2544 147.82 85.5344C147.03 85.6744 146.27 85.6644 145.48 85.5144L144.28 85.3144C143.88 85.2644 143.47 85.2444 143.06 85.2344L141.84 85.2644L140.61 85.3644L139.37 85.4844L138.12 85.6744C136.45 85.9444 134.78 86.4044 133.08 86.9844C132.93 87.0344 132.76 86.9544 132.71 86.8044C132.65 86.7144 132.68 86.6044 132.75 86.5244Z" fill="white"/>
<path d="M213.67 86.7647C207.79 82.8947 200.23 81.6847 193.44 83.5247L213.67 86.7647Z" fill="white"/>
<path d="M213.52 87.0046C211.82 86.4246 210.16 85.9646 208.48 85.6946L207.23 85.5046L205.99 85.3846L204.76 85.2846L203.54 85.2546C203.13 85.2746 202.73 85.2946 202.32 85.3346L201.12 85.5346C200.33 85.6846 199.57 85.6946 198.78 85.5546C197.19 85.2646 195.59 84.8746 193.52 83.8146H193.51C193.32 83.7246 193.25 83.4946 193.35 83.3046C193.36 83.2946 193.36 83.2746 193.37 83.2646C194.69 81.2846 196.58 80.3546 198.51 79.8946C198.99 79.8046 199.49 79.7446 199.98 79.7446C200.47 79.7546 200.96 79.8446 201.44 79.9346L202.87 80.3446C203.34 80.5046 203.8 80.6446 204.27 80.7746L205.64 81.2246L206.98 81.7446L208.27 82.3646L209.51 83.0546C211.12 84.0446 212.6 85.1846 213.85 86.5346C213.96 86.6546 213.95 86.8346 213.83 86.9446C213.73 87.0146 213.61 87.0346 213.52 87.0046Z" fill="white"/>
<path d="M145.88 113.025C149.514 113.025 152.46 109.049 152.46 104.145C152.46 99.2404 149.514 95.2646 145.88 95.2646C142.246 95.2646 139.3 99.2404 139.3 104.145C139.3 109.049 142.246 113.025 145.88 113.025Z" fill="white" stroke="white" stroke-width="5.6693" stroke-miterlimit="10" stroke-linecap="round" stroke-linejoin="round"/>
<path d="M200.45 113.685C204.084 113.685 207.03 109.709 207.03 104.805C207.03 99.9005 204.084 95.9248 200.45 95.9248C196.816 95.9248 193.87 99.9005 193.87 104.805C193.87 109.709 196.816 113.685 200.45 113.685Z" fill="white" stroke="white" stroke-width="5.6693" stroke-miterlimit="10" stroke-linecap="round" stroke-linejoin="round"/>
<path d="M172.43 127.535C170.16 127.835 167.8 126.195 167.3 123.965C166.96 122.485 167.38 120.925 168.06 119.565C168.74 118.205 169.69 117.015 170.53 115.745C172.2 113.205 173.4 110.365 174.21 107.435" fill="white"/>
<path d="M172.43 127.535C171.53 128.865 169.75 129.435 167.94 129.285C166.59 128.385 165.42 127.145 164.81 125.485C164.18 123.805 164.28 122.145 164.61 120.735C164.95 119.325 165.58 118.095 166.21 117.075C166.85 116.045 167.49 115.185 168.02 114.395C168.54 113.625 169 112.815 169.43 111.985C169.85 111.145 170.24 110.285 170.58 109.395C171.73 108.815 172.83 108.135 174.21 107.435C175.02 108.745 175.48 110.055 175.88 111.425C175.47 112.485 175.01 113.535 174.49 114.555C173.97 115.575 173.38 116.585 172.74 117.545C172.11 118.485 171.51 119.305 171.05 120.055C170.59 120.805 170.28 121.465 170.13 122.095C169.98 122.705 170.01 123.235 170.13 123.515C170.24 123.825 170.53 124.235 170.95 124.425C170.9 125.355 171.25 126.475 172.43 127.535Z" fill="white"/>
<path d="M44.8498 613.784C38.1298 613.784 32.6798 608.334 32.6798 601.614V381.174C32.6798 374.454 38.1298 369.004 44.8498 369.004C51.5698 369.004 57.0198 374.454 57.0198 381.174V601.604C57.0298 608.334 51.5798 613.784 44.8498 613.784Z" fill="white" stroke="white" stroke-width="5.6693" stroke-miterlimit="10" stroke-linecap="round" stroke-linejoin="round"/>
<path d="M32.6798 586.805H29.8398C24.8698 586.805 20.8398 582.775 20.8398 577.805V404.975C20.8398 400.005 24.8698 395.975 29.8398 395.975H32.6798V586.805Z" fill="white" stroke="white" stroke-width="5.6693" stroke-miterlimit="10" stroke-linecap="round" stroke-linejoin="round"/>
<path d="M304.77 613.784C298.05 613.784 292.6 608.334 292.6 601.614V381.174C292.6 374.454 298.05 369.004 304.77 369.004C311.49 369.004 316.94 374.454 316.94 381.174V601.604C316.94 608.334 311.49 613.784 304.77 613.784Z" fill="white" stroke="white" stroke-width="5.6693" stroke-miterlimit="10" stroke-linecap="round" stroke-linejoin="round"/>
<path d="M316.94 583.515H319.78C324.75 583.515 328.78 579.485 328.78 574.515V401.685C328.78 396.715 324.75 392.685 319.78 392.685H316.94V583.515Z" fill="white" stroke="white" stroke-width="5.6693" stroke-miterlimit="10" stroke-linecap="round" stroke-linejoin="round"/>
<path d="M236.01 103.815C236.01 103.815 218.9 63.0146 216.93 54.4646C214.96 45.9146 208.38 66.3046 165.6 68.9446C122.82 71.5846 116.9 74.2046 116.9 74.2046L113.94 104.145C113.94 104.145 101.11 84.7346 103.74 48.5446C106.37 12.3546 118.87 24.1946 118.87 24.1946C118.87 24.1946 112.3 9.06459 123.48 6.43459C134.66 3.80459 159.01 1.82459 164.93 3.80459C170.85 5.77459 182.04 10.3846 182.04 10.3846C182.04 10.3846 182.04 0.514588 194.54 5.12459C207.04 9.73459 228.76 9.07459 235.99 32.1046C243.24 55.1246 241.93 97.2346 236.01 103.815Z" fill="white" stroke="white" stroke-width="5.6693" stroke-miterlimit="10" stroke-linecap="round" stroke-linejoin="round"/>
<path opacity="0.1" d="M158.47 171.574C158.47 171.574 180.07 175.544 193.44 170.304C195.78 169.384 189.94 179.494 175.47 178.834C160.99 178.174 158.47 171.574 158.47 171.574Z" fill="white" stroke="white" stroke-width="5.6693" stroke-miterlimit="10" stroke-linecap="round" stroke-linejoin="round"/>
<path d="M154.41 142.234C158.69 143.624 161.08 143.834 165.27 144.284C167.17 144.484 170.6 144.874 172.51 144.944C177.76 145.114 182.25 144.954 188.3 144.284C189.85 144.114 192.78 143.554 194.22 142.964C195.66 142.384 195.91 140.544 196.19 139.014C195.18 138.504 193.69 139.114 192.56 139.244C191.65 139.354 190.5 138.804 189.61 139.014C188.27 139.314 187.03 139.654 185.66 139.674C174.89 139.844 164.18 140.464 153.62 138.354C153.42 139.024 153.98 140.524 154.08 141.654" fill="white"/>
<path d="M152.15 150.435C156.61 151.865 161.21 152.355 165.85 152.855C169.79 153.285 173.69 153.565 177.66 153.505C182.53 153.435 187.49 153.075 192.29 152.235C194.61 151.825 197 151.245 199.03 150.025C202.18 148.125 203.76 144.775 204.4 141.295C204.8 139.105 204.81 136.705 203.54 134.745C202.27 132.785 200.63 131.675 198.46 130.835C195.76 129.795 193.02 130.655 190.31 131.065C191.06 130.965 191.82 130.865 192.57 130.765C192.33 130.785 192.09 130.785 191.85 130.745C192.6 130.845 193.36 130.945 194.11 131.045C192.62 130.805 191.12 130.435 189.61 130.525C187.94 130.625 186.38 131.105 184.74 131.375C185.49 131.275 186.25 131.175 187 131.075C184.64 131.375 182.18 131.255 179.8 131.305C177.36 131.355 174.92 131.405 172.49 131.405C167.63 131.405 162.78 131.215 157.96 130.585C158.71 130.685 159.47 130.785 160.22 130.885C158.77 130.685 157.33 130.445 155.89 130.165C153.72 129.745 151.28 129.775 149.34 131.025C147.58 132.155 145.81 133.965 145.43 136.105C145.06 138.205 145.07 139.455 145.45 141.585C145.57 142.255 145.73 142.905 145.85 143.575C145.75 142.825 145.65 142.065 145.55 141.315C145.56 141.435 145.58 141.545 145.59 141.665C145.87 143.995 146.35 145.955 148.08 147.675C149.55 149.145 151.97 150.265 154.09 150.165C156.29 150.065 158.57 149.345 160.1 147.675C161.52 146.125 162.85 143.845 162.59 141.665C162.4 140.045 162.08 138.495 161.82 136.895C161.92 137.645 162.02 138.405 162.12 139.155C162.09 138.965 162.08 138.775 162.09 138.585C161.99 139.335 161.89 140.095 161.79 140.845C161.8 140.775 161.82 140.695 161.83 140.625C158.34 142.605 154.86 144.585 151.37 146.565C158.09 147.885 164.92 148.385 171.76 148.405C174.85 148.415 177.94 148.345 181.02 148.285C184.71 148.205 188.25 148.065 191.87 147.235C191.12 147.335 190.36 147.435 189.61 147.535C190 147.485 190.31 147.505 190.7 147.545C189.95 147.445 189.19 147.345 188.44 147.245C190.21 147.555 191.9 147.855 193.7 147.615C194.83 147.465 195.94 147.205 197.07 147.055C196.32 147.155 195.56 147.255 194.81 147.355C195.05 147.325 195.3 147.325 195.54 147.345C194.79 147.245 194.03 147.145 193.28 147.045C193.51 147.065 193.73 147.125 193.94 147.235C191.96 143.745 189.98 140.265 188 136.775C187.85 137.615 187.7 138.445 187.39 139.245C187.68 138.565 187.96 137.895 188.25 137.215C188.12 137.495 187.99 137.735 187.81 137.985C188.25 137.415 188.7 136.835 189.14 136.265C189.02 136.415 188.89 136.555 188.73 136.675C189.3 136.235 189.88 135.785 190.45 135.345C190.29 135.465 190.12 135.565 189.94 135.645C190.62 135.355 191.29 135.075 191.97 134.785C190.26 135.435 188.42 135.765 186.61 136.035C187.36 135.935 188.12 135.835 188.87 135.735C179.66 136.955 170.48 136.565 161.31 135.355C162.06 135.455 162.82 135.555 163.57 135.655C161.22 135.325 158.94 134.785 156.68 134.055C152.44 132.695 147.21 135.645 146.22 139.995C145.15 144.625 147.61 148.985 152.15 150.435Z" fill="white"/>
<path d="M153.1 138.035C153.1 138.035 166.26 140.005 175.47 140.005C184.68 140.005 195.87 138.685 195.87 138.685C195.87 138.685 197.19 154.475 175.47 155.135C153.75 155.805 153.1 138.035 153.1 138.035Z" fill="white" stroke="white" stroke-width="5.6693" stroke-miterlimit="10" stroke-linecap="round" stroke-linejoin="round"/>
<path d="M156.46 146.184C159.24 145.434 162.18 145.654 165.05 145.884C170.08 146.284 175.12 146.684 180.15 147.104C183.67 147.394 188.28 148.314 191.58 149.554C191.5 150.744 190.06 151.084 188.95 151.524C187.77 151.994 186.89 153.184 185.66 153.494C184.47 153.794 183.59 154.004 182.37 154.154C180.03 154.444 178.13 155.184 175.79 155.474C174.88 155.584 171.45 154.844 170.53 154.814C168.51 154.754 166.5 154.214 164.61 153.494C163.64 153.124 162.95 152.544 161.98 152.174C161.41 151.954 160.51 151.214 160.01 150.854C159.5 150.494 159.1 150.014 158.69 149.534C157.88 148.574 156.87 147.864 156.06 146.904" fill="white"/>
<path d="M158.72 154.384C159.31 154.234 159.9 154.124 160.5 154.034C159.75 154.134 158.99 154.234 158.24 154.334C162.18 153.854 166.24 154.484 170.17 154.794C174.13 155.114 178.12 155.314 182.06 155.814C181.31 155.714 180.55 155.614 179.8 155.514C183.03 155.954 186.26 156.634 189.33 157.754C187.35 154.264 185.37 150.784 183.39 147.294C183.38 147.484 183.33 147.654 183.24 147.824C183.53 147.144 183.81 146.474 184.1 145.794C184.05 145.864 184 145.944 183.96 146.014C184.4 145.444 184.85 144.864 185.29 144.294C185.17 144.434 185.04 144.554 184.89 144.664C185.46 144.224 186.04 143.774 186.61 143.334C186.35 143.494 186.1 143.624 185.82 143.754C186.5 143.464 187.17 143.184 187.85 142.894C186.52 143.424 185.1 143.824 183.9 144.604C183.15 145.094 182.52 145.684 181.7 146.054C182.38 145.764 183.05 145.484 183.73 145.194C182.7 145.524 181.62 145.734 180.56 145.894C181.31 145.794 182.07 145.694 182.82 145.594C180.94 145.844 179.09 146.074 177.25 146.514C176.02 146.804 174.79 147.104 173.54 147.274C174.29 147.174 175.05 147.074 175.8 146.974C175.31 147.014 174.81 146.934 174.33 146.874C175.08 146.974 175.84 147.074 176.59 147.174C174.11 146.824 171.63 146.484 169.14 146.204C169.89 146.304 170.65 146.404 171.4 146.504C169.84 146.274 168.35 145.844 166.87 145.304C167.55 145.594 168.22 145.874 168.9 146.164C167.26 145.474 165.73 144.574 164.29 143.534C164.86 143.974 165.44 144.424 166.01 144.864C165.29 144.304 164.77 143.584 164.13 142.944C163.45 142.264 162.71 141.644 162.06 140.924C159.09 137.594 153.02 137.674 150.03 140.924C146.77 144.474 146.86 149.394 150.03 152.954C151.09 154.134 152.27 155.324 153.41 156.424C154.81 157.774 156.52 158.954 158.26 159.814C160.32 160.824 162.34 161.854 164.56 162.454C166.67 163.024 168.86 163.134 171.02 163.384C170.27 163.284 169.51 163.184 168.76 163.084C170.98 163.384 173.23 163.974 175.47 164.014C178.55 164.064 181.59 162.804 184.62 162.384C183.87 162.484 183.11 162.584 182.36 162.684C184.74 162.364 187.03 162.124 189.25 161.184C190.13 160.814 190.85 160.494 191.6 159.934C192.13 159.544 192.62 159.164 193.23 158.894C192.55 159.184 191.88 159.464 191.2 159.754C192.55 159.234 193.94 158.784 195.18 158.034C197.35 156.724 199.34 154.384 199.78 151.834C200.16 149.624 200.2 147.264 198.92 145.284C197.66 143.334 196.02 142.174 193.84 141.374C187.82 139.174 181.37 138.714 175.03 138.204C171.78 137.944 168.53 137.684 165.29 137.424C161.54 137.124 157.88 137.084 154.19 138.004C149.87 139.084 146.86 144.164 148.25 148.464C149.71 152.914 154.1 155.544 158.72 154.384Z" fill="white"/>
<path d="M165.6 528.845H108.35V380.985C108.35 365.175 121.17 352.365 136.97 352.365C152.78 352.365 165.59 365.185 165.59 380.985V528.845H165.6Z" fill="white" stroke="white" stroke-width="5.6693" stroke-miterlimit="10" stroke-linecap="round" stroke-linejoin="round"/>
<path d="M241.27 528.845H184.02V380.985C184.02 365.175 196.84 352.365 212.64 352.365C228.45 352.365 241.26 365.185 241.26 380.985V528.845H241.27Z" fill="white" stroke="white" stroke-width="5.6693" stroke-miterlimit="10" stroke-linecap="round" stroke-linejoin="round"/>
<path d="M101.12 527.015C101.12 527.015 117.06 501.975 134.1 502.585C151.14 503.195 167.08 523.955 167.63 527.015C168.18 530.065 168.18 534.345 165.98 536.175C163.78 538.005 106.06 538.615 103.86 536.785C101.67 534.955 98.9198 534.955 101.12 527.015Z" fill="white" stroke="white" stroke-width="5.6693" stroke-miterlimit="10" stroke-linecap="round" stroke-linejoin="round"/>
<path d="M181.86 527.015C181.86 527.015 197.24 501.975 213.67 502.585C230.11 503.195 245.48 523.955 246.01 527.015C246.54 530.065 246.54 534.345 244.42 536.175C242.3 538.005 186.63 538.615 184.51 536.785C182.39 534.955 179.74 534.955 181.86 527.015Z" fill="white" stroke="white" stroke-width="5.6693" stroke-miterlimit="10" stroke-linecap="round" stroke-linejoin="round"/>
<path d="M125.31 245.995L133.31 189.995C133.31 189.995 115.85 191.605 104.31 206.995C101.31 210.995 99.4698 214.955 96.3098 220.995C90.2098 232.635 85.3098 250.995 85.3098 253.995C85.3098 257.715 120.31 259.995 120.31 259.995L125.31 245.995Z" fill="white" stroke="white" stroke-width="5.6693" stroke-miterlimit="10" stroke-linecap="round" stroke-linejoin="round"/>
<path d="M225.31 245.995L217.31 189.995C217.31 189.995 234.77 191.605 246.31 206.995C249.31 210.995 251.15 214.955 254.31 220.995C260.41 232.635 265.31 250.995 265.31 253.995C265.31 257.715 230.31 259.995 230.31 259.995L225.31 245.995Z" fill="white" stroke="white" stroke-width="5.6693" stroke-miterlimit="10" stroke-linecap="round" stroke-linejoin="round"/>
<path d="M120.31 259.951C120.458 259.013 112.946 257.044 103.531 255.553C94.1159 254.062 86.363 253.614 86.2144 254.552C86.0658 255.49 93.5779 257.46 102.993 258.95C112.408 260.441 120.161 260.889 120.31 259.951Z" fill="white" stroke="white" stroke-width="5.6693" stroke-miterlimit="10" stroke-linecap="round" stroke-linejoin="round"/>
<path d="M247.523 258.965C256.938 257.474 264.45 255.505 264.301 254.567C264.153 253.628 256.4 254.076 246.985 255.567C237.569 257.058 230.057 259.027 230.206 259.965C230.354 260.904 238.107 260.456 247.523 258.965Z" fill="white" stroke="white" stroke-width="5.6693" stroke-miterlimit="10" stroke-linecap="round" stroke-linejoin="round"/>
<path d="M116.31 258.994C116.31 259.994 97.8198 306.484 97.8198 306.484C97.8198 306.484 93.2098 321.614 91.2398 324.254C89.2698 326.884 88.2498 328.864 88.2498 328.864C88.2498 328.864 86.6298 331.494 85.9698 335.444C85.3098 339.394 85.3098 342.684 82.0198 342.024C78.7298 341.364 80.6998 326.234 80.6998 326.234C80.6998 326.234 72.7998 328.204 72.1498 332.154C71.4898 336.104 69.9198 344.504 68.8598 346.634C67.5398 349.264 66.3698 350.104 64.9098 349.924C59.6498 349.264 63.0298 342.924 62.2798 344.004C57.6698 350.584 53.6898 344.124 55.0398 340.714C55.0398 340.714 51.7498 344.004 50.4298 342.684C49.1098 341.364 50.4298 336.764 50.4298 336.764C50.4298 336.764 48.4598 335.444 47.7998 334.134C47.1398 332.824 49.1198 328.874 53.7198 324.264C58.3298 319.654 70.8298 317.024 72.7998 313.734C74.7698 310.444 92.2898 254.004 92.2898 254.004C92.2898 254.004 101.84 255.094 106.29 256.004C110.76 256.904 116.31 256.994 116.31 258.994Z" fill="white" stroke="white" stroke-width="5.6693" stroke-miterlimit="10" stroke-linecap="round" stroke-linejoin="round"/>
<path d="M233.31 257.994L251.02 305.164C251.02 305.164 255.63 320.294 257.6 322.934C259.57 325.574 260.59 327.544 260.59 327.544C260.59 327.544 262.21 330.174 262.87 334.124C263.53 338.074 263.53 341.364 266.82 340.704C270.11 340.044 268.14 324.914 268.14 324.914C268.14 324.914 276.04 326.884 276.69 330.834C277.34 334.784 278.92 343.184 279.98 345.314C281.3 347.944 282.47 348.784 283.93 348.604C289.19 347.944 285.81 341.604 286.56 342.684C291.17 349.264 295.15 342.804 293.8 339.394C293.8 339.394 297.09 342.684 298.41 341.364C299.73 340.044 298.41 335.444 298.41 335.444C298.41 335.444 300.38 334.124 301.04 332.814C301.7 331.494 299.72 327.554 295.12 322.944C290.52 318.334 278.01 315.704 276.04 312.414C274.07 309.124 257.33 254.004 257.33 254.004L233.31 257.994Z" fill="white" stroke="white" stroke-width="5.6693" stroke-miterlimit="10" stroke-linecap="round" stroke-linejoin="round"/>
<path d="M50.4499 336.755C50.4499 336.755 54.8099 326.495 64.8099 322.495L50.4499 336.755Z" fill="white"/>
<path d="M50.4498 336.754C50.1098 334.684 50.5298 332.764 51.2198 331.014C51.9298 329.264 52.9898 327.674 54.3098 326.324C55.6098 324.954 57.2298 323.854 59.0098 323.134C60.7798 322.384 62.7899 322.104 64.8098 322.504C63.6798 324.294 62.5698 325.514 61.5398 326.804C60.4898 328.034 59.4398 329.164 58.3598 330.284C57.2698 331.394 56.1198 332.474 54.8598 333.554C53.5798 334.634 52.2298 335.694 50.4498 336.754Z" fill="white"/>
<path d="M55.0499 340.705C55.0499 340.705 59.8099 328.495 68.8099 323.495L55.0499 340.705Z" fill="white"/>
<path d="M55.0499 340.705C54.6799 338.515 55.0199 336.495 55.5999 334.585C56.2099 332.685 57.1399 330.905 58.3399 329.305C59.5399 327.705 61.0599 326.305 62.7999 325.215C64.5599 324.155 66.6099 323.425 68.8099 323.505C67.7799 325.475 66.8099 326.965 65.8499 328.465C64.8999 329.955 63.9099 331.345 62.8699 332.725C61.8299 334.115 60.7099 335.455 59.4699 336.795C58.1999 338.125 56.8399 339.435 55.0499 340.705Z" fill="white"/>
<path d="M62.8099 343.495C62.8099 343.495 65.8099 329.495 74.8099 324.495L62.8099 343.495Z" fill="white"/>
<path d="M62.8099 343.494C62.1099 341.344 62.1599 339.224 62.4699 337.194C62.8199 335.164 63.5099 333.194 64.5499 331.384C65.5899 329.574 66.9899 327.924 68.6999 326.614C70.4499 325.354 72.5599 324.434 74.8099 324.494C73.7399 326.494 72.8699 328.054 72.0099 329.614C71.1799 331.194 70.3599 332.694 69.4699 334.214C68.5999 335.744 67.6699 337.274 66.6199 338.814C65.5499 340.364 64.3899 341.904 62.8099 343.494Z" fill="white"/>
<path d="M298.39 335.445C298.39 335.445 293.81 323.505 283.81 320.505L298.39 335.445Z" fill="white"/>
<path d="M298.39 335.445C296.63 334.245 295.28 333.055 294.02 331.865C292.77 330.665 291.64 329.495 290.57 328.295C289.49 327.105 288.44 325.945 287.38 324.685C286.31 323.415 285.16 322.205 283.81 320.495C285.86 319.935 288.01 320.215 289.89 320.995C291.76 321.795 293.45 322.995 294.77 324.475C296.1 325.945 297.12 327.655 297.79 329.485C298.42 331.335 298.79 333.315 298.39 335.445Z" fill="white"/>
<path d="M293.79 339.385C293.79 339.385 289.81 328.495 281.81 323.495L293.79 339.385Z" fill="white"/>
<path d="M293.79 339.385C292.09 338.245 290.85 337.075 289.7 335.875C288.57 334.665 287.58 333.445 286.68 332.185C285.78 330.915 284.94 329.645 284.16 328.245C283.37 326.835 282.59 325.425 281.82 323.495C283.86 323.425 285.73 324.105 287.32 325.095C288.89 326.105 290.25 327.395 291.29 328.885C292.34 330.365 293.13 332.005 293.61 333.755C294.05 335.515 294.27 337.385 293.79 339.385Z" fill="white"/>
<path d="M286.55 342.675C286.55 342.675 286.04 330.495 276.93 323.495L286.55 342.675Z" fill="white"/>
<path d="M286.55 342.675C285.25 340.935 284.32 339.375 283.46 337.825C282.62 336.275 281.85 334.795 281.14 333.305C280.44 331.805 279.75 330.335 279.06 328.775C278.41 327.155 277.61 325.615 276.93 323.505C279.07 323.745 281.03 324.675 282.57 326.025C284.14 327.355 285.41 329.025 286.26 330.865C287.13 332.695 287.64 334.675 287.75 336.685C287.83 338.675 287.59 340.745 286.55 342.675Z" fill="white"/>
<path d="M78.3577 594.369H86.7277V541.009H78.3577V594.369Z" fill="white" stroke="white" stroke-width="5.6693" stroke-miterlimit="10" stroke-linecap="round" stroke-linejoin="round"/>
<path d="M86.7299 588.505H74.1699V596.875H86.7299V588.505Z" fill="white" stroke="white" stroke-width="5.6693" stroke-miterlimit="10" stroke-linecap="round" stroke-linejoin="round"/>
<path d="M69.5999 630.485H63.4399C60.9199 630.485 58.8699 628.435 58.8699 625.915V562.205C58.8699 559.685 60.9199 557.635 63.4399 557.635H69.5999C72.1199 557.635 74.1699 559.685 74.1699 562.205V625.915C74.1699 628.445 72.1199 630.485 69.5999 630.485Z" fill="white" stroke="white" stroke-width="5.6693" stroke-miterlimit="10" stroke-linecap="round" stroke-linejoin="round"/>
<path d="M58.8599 620.855H57.2499C55.9299 620.855 54.8699 619.785 54.8699 618.475V569.645C54.8699 568.325 55.9399 567.265 57.2499 567.265H58.8599V620.855Z" fill="white" stroke="white" stroke-width="5.6693" stroke-miterlimit="10" stroke-linecap="round" stroke-linejoin="round"/>
<path d="M272.25 535.995H263.88V589.355H272.25V535.995Z" fill="white" stroke="white" stroke-width="5.6693" stroke-miterlimit="10" stroke-linecap="round" stroke-linejoin="round"/>
<path d="M263.872 591.874L276.432 591.874L276.432 583.504L263.872 583.504L263.872 591.874Z" fill="white" stroke="white" stroke-width="5.6693" stroke-miterlimit="10" stroke-linecap="round" stroke-linejoin="round"/>
<path d="M281 625.485H287.16C289.68 625.485 291.73 623.435 291.73 620.915V557.205C291.73 554.685 289.68 552.635 287.16 552.635H281C278.48 552.635 276.43 554.685 276.43 557.205V620.915C276.44 623.445 278.48 625.485 281 625.485Z" fill="white" stroke="white" stroke-width="5.6693" stroke-miterlimit="10" stroke-linecap="round" stroke-linejoin="round"/>
<path d="M291.74 615.855H293.35C294.67 615.855 295.73 614.785 295.73 613.475V564.645C295.73 563.325 294.66 562.265 293.35 562.265H291.74V615.855Z" fill="white" stroke="white" stroke-width="5.6693" stroke-miterlimit="10" stroke-linecap="round" stroke-linejoin="round"/>
<path d="M246.08 432.804H109.07C92.3698 432.804 78.8398 419.264 78.8398 402.574V225.734C78.8398 209.034 92.3798 195.504 109.07 195.504H246.08C262.78 195.504 276.31 209.044 276.31 225.734V402.564C276.31 419.264 262.77 432.804 246.08 432.804Z" fill="#1A1A1A"/>
<path d="M241.39 437.804H108.54C91.8398 437.804 78.3098 424.264 78.3098 407.574V230.734C78.3098 214.034 91.8498 200.504 108.54 200.504H241.38C258.08 200.504 271.61 214.044 271.61 230.734V407.564C271.62 424.264 258.08 437.804 241.39 437.804Z" fill="#333333"/>
<path d="M125.31 248.995L133.31 192.995L149.15 189.725C149.15 189.725 150.64 187.995 176.31 187.995C194.08 187.995 199.16 189.725 201.13 189.725L217.31 192.995L225.48 248.285C225.48 248.285 224.16 354.225 220.87 360.145C213.96 372.585 124.8 357.515 124.8 357.515L125.46 248.945" fill="#2E3192"/>
<path d="M222.84 359.524H124.8V413.484H222.84V359.524Z" fill="#36525E"/>
<path d="M262.65 440.355H86.3098C78.8598 440.355 72.8198 434.315 72.8198 426.865C72.8198 419.415 78.8598 413.375 86.3098 413.375H262.66C270.11 413.375 276.15 419.415 276.15 426.865C276.14 434.315 270.1 440.355 262.65 440.355Z" fill="#545454"/>
<path d="M80.7098 352.915H68.2098V537.955H80.7098V352.915Z" fill="#A5A0A3"/>
<path d="M281.41 352.915H268.91V537.955H281.41V352.915Z" fill="#A5A0A3"/>
<path d="M88.3198 352.995H57.3898C51.2098 352.995 46.1998 347.985 46.1998 341.805V340.725C46.1998 334.545 51.2098 329.535 57.3898 329.535H88.3198C94.4998 329.535 99.5098 334.545 99.5098 340.725V341.805C99.5098 347.995 94.4998 352.995 88.3198 352.995Z" fill="#CCC9CD"/>
<path d="M292.2 352.995H261.27C255.09 352.995 250.08 347.985 250.08 341.805V339.725C250.08 333.545 255.09 328.535 261.27 328.535H292.2C298.38 328.535 303.39 333.545 303.39 339.725V341.805C303.39 347.995 298.38 352.995 292.2 352.995Z" fill="#CCC9CD"/>
<path d="M157.89 551.995H77.2399C71.1599 551.995 66.2399 547.075 66.2399 540.995V537.945H168.89V540.995C168.89 547.075 163.96 551.995 157.89 551.995Z" fill="#A5A0A3"/>
<path d="M271.72 551.995H191.07C184.99 551.995 180.07 547.075 180.07 540.995V537.945H282.72V540.995C282.72 547.075 277.8 551.995 271.72 551.995Z" fill="#A5A0A3"/>
<path d="M68.2198 486.495H57.0298V500.975H68.2198V486.495Z" fill="#787878"/>
<path d="M292.6 486.495H281.41V500.975H292.6V486.495Z" fill="#787878"/>
<path d="M44.8498 616.784C38.1298 616.784 32.6798 611.334 32.6798 604.614V384.174C32.6798 377.454 38.1298 372.004 44.8498 372.004C51.5698 372.004 57.0198 377.454 57.0198 384.174V604.604C57.0298 611.334 51.5798 616.784 44.8498 616.784Z" fill="#1D1D1B" stroke="black" stroke-miterlimit="10"/>
<path d="M32.6798 589.805H29.8398C24.8698 589.805 20.8398 585.775 20.8398 580.805V407.975C20.8398 403.005 24.8698 398.975 29.8398 398.975H32.6798V589.805Z" fill="#BCB9BB"/>
<path d="M304.77 616.784C298.05 616.784 292.6 611.334 292.6 604.614V384.174C292.6 377.454 298.05 372.004 304.77 372.004C311.49 372.004 316.94 377.454 316.94 384.174V604.604C316.94 611.334 311.49 616.784 304.77 616.784Z" fill="#1D1D1B" stroke="black" stroke-miterlimit="10"/>
<path d="M316.94 586.515H319.78C324.75 586.515 328.78 582.485 328.78 577.515V404.685C328.78 399.715 324.75 395.685 319.78 395.685H316.94V586.515Z" fill="#BCB9BB"/>
<path d="M165.6 531.845H108.35V383.985C108.35 368.175 121.17 355.365 136.97 355.365C152.78 355.365 165.59 368.185 165.59 383.985V531.845H165.6Z" fill="#56869B"/>
<path d="M241.27 531.845H184.02V383.985C184.02 368.175 196.84 355.365 212.64 355.365C228.45 355.365 241.26 368.185 241.26 383.985V531.845H241.27Z" fill="#56869B"/>
<path d="M101.12 530.015C101.12 530.015 117.06 504.975 134.1 505.585C151.14 506.195 167.08 526.955 167.63 530.015C168.18 533.065 168.18 537.345 165.98 539.175C163.78 541.005 106.06 541.615 103.86 539.785C101.67 537.955 98.9198 537.955 101.12 530.015Z" fill="#1B1464"/>
<path d="M181.86 530.015C181.86 530.015 197.24 504.975 213.67 505.585C230.11 506.195 245.48 526.955 246.01 530.015C246.54 533.065 246.54 537.345 244.42 539.175C242.3 541.005 186.63 541.615 184.51 539.785C182.39 537.955 179.74 537.955 181.86 530.015Z" fill="#1B1464"/>
<path d="M125.31 248.995L133.31 192.995C133.31 192.995 115.85 194.605 104.31 209.995C101.31 213.995 99.4698 217.955 96.3098 223.995C90.2098 235.635 85.3098 253.995 85.3098 256.995C85.3098 260.715 120.31 262.995 120.31 262.995L125.31 248.995Z" fill="#2E3192"/>
<path d="M225.31 248.995L217.31 192.995C217.31 192.995 234.77 194.605 246.31 209.995C249.31 213.995 251.15 217.955 254.31 223.995C260.41 235.635 265.31 253.995 265.31 256.995C265.31 260.715 230.31 262.995 230.31 262.995L225.31 248.995Z" fill="#2E3192"/>
<path d="M120.31 262.951C120.458 262.012 112.946 260.043 103.531 258.552C94.1159 257.061 86.363 256.613 86.2144 257.552C86.0658 258.49 93.5779 260.459 102.993 261.95C112.408 263.441 120.161 263.889 120.31 262.951Z" fill="#1B1464"/>
<path d="M247.522 261.965C256.938 260.474 264.45 258.505 264.301 257.567C264.153 256.628 256.4 257.076 246.984 258.567C237.569 260.058 230.057 262.027 230.206 262.965C230.354 263.904 238.107 263.456 247.522 261.965Z" fill="#1B1464"/>
<path d="M116.31 261.994C116.31 262.994 97.8198 309.484 97.8198 309.484C97.8198 309.484 93.2098 324.614 91.2398 327.254C89.2698 329.884 88.2498 331.864 88.2498 331.864C88.2498 331.864 86.6298 334.494 85.9698 338.444C85.3098 342.394 85.3098 345.684 82.0198 345.024C78.7298 344.364 80.6998 329.234 80.6998 329.234C80.6998 329.234 72.7998 331.204 72.1498 335.154C71.4898 339.104 69.9198 347.504 68.8598 349.634C67.5398 352.264 66.3698 353.104 64.9098 352.924C59.6498 352.264 63.0298 345.924 62.2798 347.004C57.6698 353.584 53.6898 347.124 55.0398 343.714C55.0398 343.714 51.7498 347.004 50.4298 345.684C49.1098 344.364 50.4298 339.764 50.4298 339.764C50.4298 339.764 48.4598 338.444 47.7998 337.134C47.1398 335.824 49.1198 331.874 53.7198 327.264C58.3298 322.654 70.8298 320.024 72.7998 316.734C74.7698 313.444 92.2898 257.004 92.2898 257.004C92.2898 257.004 101.84 258.094 106.29 259.004C110.74 259.914 116.31 259.994 116.31 261.994Z" fill="#EFCAA6"/>
<path d="M233.31 260.994L251.02 308.164C251.02 308.164 255.63 323.294 257.6 325.934C259.57 328.574 260.59 330.544 260.59 330.544C260.59 330.544 262.21 333.174 262.87 337.124C263.53 341.074 263.53 344.364 266.82 343.704C270.11 343.044 268.14 327.914 268.14 327.914C268.14 327.914 276.04 329.884 276.69 333.834C277.34 337.784 278.92 346.184 279.98 348.314C281.3 350.944 282.47 351.784 283.93 351.604C289.19 350.944 285.81 344.604 286.56 345.684C291.17 352.264 295.15 345.804 293.8 342.394C293.8 342.394 297.09 345.684 298.41 344.364C299.73 343.044 298.41 338.444 298.41 338.444C298.41 338.444 300.38 337.124 301.04 335.814C301.7 334.494 299.72 330.554 295.12 325.944C290.52 321.334 278.01 318.704 276.04 315.414C274.07 312.124 257.33 257.004 257.33 257.004L233.31 260.994Z" fill="#EFCAA6"/>
<path d="M50.4498 339.754C51.5598 336.454 53.5398 333.464 55.9798 330.954C57.1998 329.694 58.5698 328.574 60.0598 327.644C61.5198 326.664 63.1698 326.014 64.8198 325.504C63.3198 326.384 61.8398 327.234 60.4998 328.294C59.1498 329.324 57.8598 330.434 56.6898 331.664C55.4998 332.874 54.3998 334.164 53.3598 335.514C52.3298 336.874 51.3398 338.274 50.4498 339.754Z" fill="#E3BB94"/>
<path d="M55.0499 343.705C56.1299 340.105 57.9599 336.745 60.1999 333.705C61.3499 332.205 62.6299 330.795 64.0499 329.545C65.4799 328.295 67.0899 327.275 68.7999 326.495C67.2799 327.605 65.8799 328.805 64.5799 330.115C63.3099 331.445 62.0899 332.835 60.9899 334.305C59.8799 335.775 58.8499 337.305 57.8599 338.875C56.8999 340.455 55.9399 342.055 55.0499 343.705Z" fill="#E3BB94"/>
<path d="M62.8098 346.494C63.3398 342.664 64.6798 338.954 66.5698 335.544C67.5598 333.864 68.7098 332.264 70.0598 330.844C71.4398 329.454 73.0498 328.284 74.8098 327.484C73.2398 328.624 71.8798 329.944 70.6398 331.364C69.4498 332.834 68.3898 334.394 67.4398 336.034C66.4898 337.674 65.6698 339.394 64.8998 341.134C64.1598 342.904 63.4398 344.674 62.8098 346.494Z" fill="#E3BB94"/>
<path d="M298.39 338.445C297.53 336.865 296.57 335.355 295.57 333.885C294.56 332.425 293.48 331.025 292.29 329.725C291.12 328.405 289.8 327.245 288.41 326.165C287 325.105 285.45 324.255 283.81 323.495C285.57 323.885 287.31 324.525 288.85 325.515C290.39 326.495 291.81 327.695 293.03 329.045C295.46 331.775 297.36 334.975 298.39 338.445Z" fill="#E3BB94"/>
<path d="M293.79 342.384C293 340.884 292.16 339.434 291.31 337.994C290.44 336.564 289.54 335.164 288.57 333.814C287.62 332.454 286.55 331.184 285.45 329.934C284.33 328.704 283.11 327.574 281.81 326.484C283.32 327.244 284.75 328.214 286 329.384C287.25 330.554 288.38 331.844 289.38 333.234C291.34 336.034 292.92 339.104 293.79 342.384Z" fill="#E3BB94"/>
<path d="M286.55 345.674C286.23 343.854 285.76 342.084 285.23 340.344C284.68 338.614 284.03 336.914 283.25 335.294C282.5 333.654 281.55 332.104 280.51 330.634L279.7 329.544L278.81 328.514C278.26 327.774 277.54 327.214 276.92 326.504C278.45 327.524 279.95 328.684 281.12 330.154C282.33 331.584 283.36 333.174 284.15 334.864C285.74 338.244 286.65 341.974 286.55 345.674Z" fill="#E3BB94"/>
<path d="M78.3577 597.369H86.7277V544.009H78.3577V597.369Z" fill="#A5A0A3"/>
<path d="M86.7299 591.505H74.1699V599.875H86.7299V591.505Z" fill="#A5A0A3"/>
<path d="M69.5999 633.485H63.4399C60.9199 633.485 58.8699 631.435 58.8699 628.915V565.205C58.8699 562.685 60.9199 560.635 63.4399 560.635H69.5999C72.1199 560.635 74.1699 562.685 74.1699 565.205V628.915C74.1699 631.445 72.1199 633.485 69.5999 633.485Z" fill="#1D1D1B" stroke="black" stroke-miterlimit="10"/>
<path d="M58.8599 623.855H57.2499C55.9299 623.855 54.8699 622.785 54.8699 621.475V572.645C54.8699 571.325 55.9399 570.265 57.2499 570.265H58.8599V623.855Z" fill="#BCB9BB"/>
<path d="M272.25 538.995H263.88V592.355H272.25V538.995Z" fill="#A5A0A3"/>
<path d="M263.872 594.874L276.432 594.874L276.432 586.504L263.872 586.504L263.872 594.874Z" fill="#A5A0A3"/>
<path d="M281 628.485H287.16C289.68 628.485 291.73 626.435 291.73 623.915V560.205C291.73 557.685 289.68 555.635 287.16 555.635H281C278.48 555.635 276.43 557.685 276.43 560.205V623.915C276.44 626.445 278.48 628.485 281 628.485Z" fill="#1D1D1B" stroke="black" stroke-miterlimit="10"/>
<path d="M291.74 618.855H293.35C294.67 618.855 295.73 617.785 295.73 616.475V567.645C295.73 566.325 294.66 565.265 293.35 565.265H291.74V618.855Z" fill="#BCB9BB"/>
<path d="M93.3098 232.995L259.81 233.495C259.81 233.495 248.31 203.995 229.31 196.995C212.39 190.765 199.8 189.065 185.31 187.995C166.72 186.615 148.11 189.195 136.31 191.995C98.3098 200.995 93.3098 232.995 93.3098 232.995Z" fill="#A9D0FF"/>
<path d="M93.3098 238.195H259.81" stroke="#A9D0FF" stroke-width="2.8346" stroke-miterlimit="10" stroke-linecap="square" stroke-linejoin="bevel"/>
<g opacity="0.3">
<path opacity="0.3" d="M126.79 250.435C126.62 248.545 126.59 246.665 126.61 244.785C126.62 242.905 126.71 241.035 126.82 239.155C126.95 237.285 127.11 235.415 127.34 233.545C127.57 231.675 127.84 229.815 128.26 227.965C128.43 229.855 128.46 231.735 128.45 233.615C128.44 235.495 128.35 237.365 128.24 239.245C128.1 241.115 127.95 242.985 127.72 244.855C127.48 246.725 127.21 248.585 126.79 250.435Z" fill="#293084"/>
</g>
<g opacity="0.3">
<path opacity="0.3" d="M226.29 250.395C225.69 248.915 225.25 247.395 224.89 245.855C224.52 244.315 224.27 242.755 224.06 241.195C223.88 239.625 223.75 238.055 223.73 236.475C223.7 234.895 223.76 233.315 223.99 231.735C224.35 233.295 224.6 234.845 224.83 236.385C225.07 237.935 225.26 239.485 225.46 241.025C225.64 242.575 225.83 244.125 225.97 245.685C226.13 247.235 226.26 248.795 226.29 250.395Z" fill="#293084"/>
</g>
<path d="M115.59 102.874C115.59 102.874 109.67 97.6144 107.04 98.9244C104.41 100.244 98.4899 107.474 101.12 116.034C103.75 124.594 118.89 136.434 118.89 136.434L115.59 102.874Z" fill="#E3BB94"/>
<path d="M230.08 133.794C230.08 133.794 232.71 137.084 239.95 129.184C247.19 121.284 247.19 111.414 246.53 108.124C245.87 104.834 242.58 97.5944 235.34 96.9344C228.11 96.2944 230.08 133.794 230.08 133.794Z" fill="#E3BB94"/>
<path d="M194.55 166.694C194.55 166.694 191.92 187.094 194.55 188.404C197.18 189.724 201.49 189.604 201.31 190.994C201.1 192.604 195.31 201.994 176.78 202.884C159.29 203.724 148.14 192.724 149.31 190.994C150.47 189.264 154.52 189.924 157.04 188.404C160.33 186.434 157.7 166.694 157.7 166.694H194.55Z" fill="#E3BB94"/>
<path d="M237.98 83.7844C237.98 83.7844 234.03 123.264 230.08 133.794C226.13 144.324 215.6 166.694 195.86 172.614C176.12 178.534 158.35 174.584 148.48 171.294C138.61 168.004 120.19 143.004 118.87 136.424C117.55 129.844 111.63 110.104 114.26 85.7544C116.89 61.4044 132.03 42.3244 132.03 42.3244L194.54 33.7744L230.73 54.1744L237.98 83.7844Z" fill="#EFCAA6"/>
<path d="M132.75 89.5244C133.99 88.1744 135.48 87.0244 137.09 86.0444L138.33 85.3544L139.62 84.7344L140.96 84.2144L142.33 83.7644C142.79 83.6344 143.26 83.4944 143.73 83.3344L145.16 82.9244C145.64 82.8344 146.13 82.7444 146.62 82.7344C147.11 82.7344 147.6 82.7944 148.09 82.8844C150.01 83.3444 151.91 84.2744 153.23 86.2544L153.08 86.8044C151 87.8644 149.4 88.2644 147.82 88.5444C147.03 88.6844 146.27 88.6744 145.48 88.5244L144.28 88.3244C143.88 88.2744 143.47 88.2544 143.06 88.2444L141.84 88.2744L140.61 88.3744L139.37 88.4944L138.12 88.6844C136.45 88.9544 134.78 89.4144 133.08 89.9944L132.75 89.5244Z" fill="#844D20"/>
<path d="M213.52 90.0046C211.82 89.4246 210.16 88.9646 208.48 88.6946L207.23 88.5046L205.99 88.3846L204.76 88.2846L203.54 88.2546C203.13 88.2746 202.73 88.2946 202.32 88.3346L201.12 88.5346C200.33 88.6846 199.57 88.6946 198.78 88.5546C197.19 88.2646 195.59 87.8746 193.52 86.8146L193.37 86.2646C194.69 84.2846 196.58 83.3546 198.51 82.8946C198.99 82.8046 199.49 82.7446 199.98 82.7446C200.47 82.7546 200.96 82.8446 201.44 82.9346L202.87 83.3446C203.34 83.5046 203.8 83.6446 204.27 83.7746L205.64 84.2246L206.98 84.7446L208.27 85.3646L209.51 86.0546C211.12 87.0446 212.6 88.1846 213.85 89.5346L213.52 90.0046Z" fill="#844D20"/>
<path d="M145.88 116.025C149.514 116.025 152.46 112.049 152.46 107.145C152.46 102.24 149.514 98.2646 145.88 98.2646C142.246 98.2646 139.3 102.24 139.3 107.145C139.3 112.049 142.246 116.025 145.88 116.025Z" fill="#461A00"/>
<path d="M200.45 116.685C204.084 116.685 207.03 112.709 207.03 107.805C207.03 102.901 204.084 98.9248 200.45 98.9248C196.816 98.9248 193.87 102.901 193.87 107.805C193.87 112.709 196.816 116.685 200.45 116.685Z" fill="#461A00"/>
<path d="M172.43 130.535C171.43 130.965 170.18 130.905 169.06 130.455C168.05 129.825 167.22 128.895 166.79 127.745C166.35 126.585 166.4 125.355 166.67 124.245C166.94 123.135 167.45 122.115 168.02 121.195C168.59 120.275 169.22 119.425 169.79 118.575C170.35 117.735 170.86 116.855 171.33 115.945C171.79 115.035 172.21 114.105 172.57 113.155C173.14 112.275 173.65 111.365 174.21 110.435C174.2 111.515 174.08 112.585 173.89 113.665C173.51 114.665 173.07 115.635 172.59 116.595C172.1 117.545 171.56 118.475 170.97 119.365C170.38 120.255 169.76 121.085 169.23 121.935C168.7 122.785 168.27 123.665 168.05 124.585C167.83 125.495 167.81 126.445 168.12 127.255C168.42 128.065 169.04 128.795 169.81 129.245C170.47 129.885 171.36 130.365 172.43 130.535Z" fill="#8C6239"/>
<path d="M236.01 106.815C236.01 106.815 218.9 66.0146 216.93 57.4646C214.96 48.9146 208.38 69.3046 165.6 71.9446C122.82 74.5846 116.9 77.2046 116.9 77.2046L113.94 107.145C113.94 107.145 101.11 87.7346 103.74 51.5446C106.37 15.3546 118.87 27.1946 118.87 27.1946C118.87 27.1946 112.3 12.0646 123.48 9.43459C134.66 6.80459 159.01 4.82459 164.93 6.80459C170.85 8.77459 182.04 13.3846 182.04 13.3846C182.04 13.3846 182.04 3.51459 194.54 8.12459C207.04 12.7346 228.76 12.0746 235.99 35.1046C243.24 58.1246 241.93 100.235 236.01 106.815Z" fill="#844D20"/>
<path opacity="0.1" d="M158.47 174.574C158.47 174.574 180.07 178.544 193.44 173.304C195.78 172.384 189.94 182.494 175.47 181.834C160.99 181.174 158.47 174.574 158.47 174.574Z" fill="#844D20"/>
<path d="M154.41 145.234C158.69 146.624 161.08 146.834 165.27 147.284C167.17 147.484 170.6 147.874 172.51 147.944C177.76 148.114 182.25 147.954 188.3 147.284C189.85 147.114 192.78 146.554 194.22 145.964C195.66 145.384 195.91 143.544 196.19 142.014C195.18 141.504 193.69 142.114 192.56 142.244C191.65 142.354 190.5 141.804 189.61 142.014C188.27 142.314 187.03 142.654 185.66 142.674C174.89 142.844 164.18 143.464 153.62 141.354C153.42 142.024 153.98 143.524 154.08 144.654" fill="white"/>
<path d="M153.1 141.035C153.1 141.035 166.26 143.005 175.47 143.005C184.68 143.005 195.87 141.685 195.87 141.685C195.87 141.685 197.19 157.475 175.47 158.135C153.75 158.805 153.1 141.035 153.1 141.035Z" stroke="#A67C52" stroke-miterlimit="10"/>
<path d="M156.46 149.185C159.24 148.435 162.18 148.655 165.05 148.885C170.08 149.285 175.12 149.685 180.15 150.105C183.67 150.395 188.28 151.315 191.58 152.555C191.5 153.745 190.06 154.085 188.95 154.525C187.77 154.995 186.89 156.185 185.66 156.495C184.47 156.795 183.59 157.005 182.37 157.155C180.03 157.445 178.13 158.185 175.79 158.475C174.88 158.585 171.45 157.845 170.53 157.815C168.51 157.755 166.5 157.215 164.61 156.495C163.64 156.125 162.95 155.545 161.98 155.175C161.41 154.955 160.51 154.215 160.01 153.855C159.5 153.495 159.1 153.015 158.69 152.535C157.88 151.575 156.87 150.865 156.06 149.905" fill="#D86755"/>
<ellipse cx="175.038" cy="625.874" rx="175.038" ry="46.7096" fill="black" fill-opacity="0.1"/>
</svg>
