<svg width="351" height="720" viewBox="0 0 351 720" fill="none" xmlns="http://www.w3.org/2000/svg">
<ellipse cx="175.038" cy="672.71" rx="175.038" ry="46.7096" fill="black" fill-opacity="0.1"/>
<path d="M246.35 481.598H109.34C92.6401 481.598 79.1101 468.058 79.1101 451.368V274.528C79.1101 257.828 92.6501 244.298 109.34 244.298H246.35C263.05 244.298 276.58 257.838 276.58 274.528V451.368C276.58 468.058 263.05 481.598 246.35 481.598Z" fill="white" stroke="white" stroke-width="5.6693" stroke-miterlimit="10" stroke-linecap="round" stroke-linejoin="round"/>
<path d="M241.66 486.598H108.82C92.1201 486.598 78.5901 473.058 78.5901 456.368V279.528C78.5901 262.828 92.1301 249.298 108.82 249.298H241.66C258.36 249.298 271.89 262.838 271.89 279.528V456.368C271.89 473.058 258.36 486.598 241.66 486.598Z" fill="white" stroke="white" stroke-width="5.6693" stroke-miterlimit="10" stroke-linecap="round" stroke-linejoin="round"/>
<path d="M115.86 151.668C115.86 151.668 109.94 146.408 107.31 147.718C104.68 149.038 98.7601 156.268 101.39 164.828C104.02 173.388 119.16 185.228 119.16 185.228L115.86 151.668Z" fill="white" stroke="white" stroke-width="5.6693" stroke-miterlimit="10" stroke-linecap="round" stroke-linejoin="round"/>
<path d="M230.36 182.598C230.36 182.598 232.99 185.888 240.23 177.988C247.47 170.088 247.47 160.218 246.81 156.928C246.15 153.638 242.86 146.398 235.62 145.738C228.38 145.088 230.36 182.598 230.36 182.598Z" fill="white" stroke="white" stroke-width="5.6693" stroke-miterlimit="10" stroke-linecap="round" stroke-linejoin="round"/>
<path d="M125.58 297.798L133.58 241.798L149.42 238.528C149.42 238.528 150.91 236.798 176.58 236.798C194.35 236.798 199.43 238.528 201.4 238.528L217.58 241.798L225.75 297.088C225.75 297.088 224.43 403.028 221.14 408.948C214.23 421.388 125.07 406.318 125.07 406.318L125.73 297.748" fill="white"/>
<path d="M125.58 297.798L133.58 241.798L149.42 238.528C149.42 238.528 150.91 236.798 176.58 236.798C194.35 236.798 199.43 238.528 201.4 238.528L217.58 241.798L225.75 297.088C225.75 297.088 224.43 403.028 221.14 408.948C214.23 421.388 125.07 406.318 125.07 406.318L125.73 297.748" stroke="white" stroke-width="5.6693" stroke-miterlimit="10" stroke-linecap="round" stroke-linejoin="round"/>
<path d="M223.11 408.318H125.07V462.278H223.11V408.318Z" fill="white" stroke="white" stroke-width="5.6693" stroke-miterlimit="10" stroke-linecap="round" stroke-linejoin="round"/>
<path d="M262.93 489.148H86.5801C79.1301 489.148 73.0901 483.108 73.0901 475.658C73.0901 468.208 79.1301 462.168 86.5801 462.168H262.93C270.38 462.168 276.42 468.208 276.42 475.658C276.42 483.108 270.38 489.148 262.93 489.148Z" fill="white" stroke="white" stroke-width="5.6693" stroke-miterlimit="10" stroke-linecap="round" stroke-linejoin="round"/>
<path d="M80.9901 401.718H68.4901V586.758H80.9901V401.718Z" fill="white" stroke="white" stroke-width="5.6693" stroke-miterlimit="10" stroke-linecap="round" stroke-linejoin="round"/>
<path d="M281.68 401.718H269.18V586.758H281.68V401.718Z" fill="white" stroke="white" stroke-width="5.6693" stroke-miterlimit="10" stroke-linecap="round" stroke-linejoin="round"/>
<path d="M88.5901 401.798H57.6701C51.4901 401.798 46.4801 396.788 46.4801 390.608V389.528C46.4801 383.348 51.4901 378.338 57.6701 378.338H88.6001C94.7801 378.338 99.7901 383.348 99.7901 389.528V390.608C99.7801 396.788 94.7701 401.798 88.5901 401.798Z" fill="white" stroke="white" stroke-width="5.6693" stroke-miterlimit="10" stroke-linecap="round" stroke-linejoin="round"/>
<path d="M292.47 401.798H261.54C255.36 401.798 250.35 396.788 250.35 390.608V388.528C250.35 382.348 255.36 377.338 261.54 377.338H292.47C298.65 377.338 303.66 382.348 303.66 388.528V390.608C303.66 396.788 298.65 401.798 292.47 401.798Z" fill="white" stroke="white" stroke-width="5.6693" stroke-miterlimit="10" stroke-linecap="round" stroke-linejoin="round"/>
<path d="M158.16 600.798H77.5101C71.4301 600.798 66.5101 595.878 66.5101 589.798V586.748H169.16V589.798C169.16 595.868 164.24 600.798 158.16 600.798Z" fill="white" stroke="white" stroke-width="5.6693" stroke-miterlimit="10" stroke-linecap="round" stroke-linejoin="round"/>
<path d="M272 600.798H191.35C185.27 600.798 180.35 595.878 180.35 589.798V586.748H283V589.798C283 595.868 278.07 600.798 272 600.798Z" fill="white" stroke="white" stroke-width="5.6693" stroke-miterlimit="10" stroke-linecap="round" stroke-linejoin="round"/>
<path d="M68.4901 535.288H57.3001V549.768H68.4901V535.288Z" fill="white" stroke="white" stroke-width="5.6693" stroke-miterlimit="10" stroke-linecap="round" stroke-linejoin="round"/>
<path d="M292.87 535.288H281.68V549.768H292.87V535.288Z" fill="white" stroke="white" stroke-width="5.6693" stroke-miterlimit="10" stroke-linecap="round" stroke-linejoin="round"/>
<path d="M194.82 215.498C194.82 215.498 192.19 235.898 194.82 237.208C197.45 238.528 201.76 238.408 201.58 239.798C201.37 241.408 195.58 250.798 177.05 251.688C159.56 252.528 148.41 241.528 149.58 239.798C150.74 238.068 154.79 238.728 157.31 237.208C160.6 235.238 157.97 215.498 157.97 215.498H194.82Z" fill="white" stroke="white" stroke-width="5.6693" stroke-miterlimit="10" stroke-linecap="round" stroke-linejoin="round"/>
<path d="M238.25 132.588C238.25 132.588 234.3 172.068 230.35 182.598C226.4 193.128 215.87 215.498 196.13 221.418C176.39 227.338 158.62 223.388 148.75 220.098C138.88 216.808 120.46 191.808 119.14 185.228C117.82 178.648 111.9 158.908 114.53 134.558C117.16 110.208 132.3 91.1281 132.3 91.1281L194.81 82.5781L231 102.978L238.25 132.588Z" fill="white" stroke="white" stroke-width="5.6693" stroke-miterlimit="10" stroke-linecap="round" stroke-linejoin="round"/>
<path d="M133.18 138.558C139.06 134.688 146.62 133.478 153.41 135.318L133.18 138.558Z" fill="white"/>
<path d="M133.03 138.328C134.27 136.978 135.76 135.828 137.37 134.848L138.61 134.158L139.9 133.538L141.24 133.018L142.61 132.568C143.07 132.438 143.54 132.298 144.01 132.138L145.44 131.728C145.92 131.638 146.41 131.548 146.9 131.538C147.39 131.538 147.88 131.598 148.37 131.688C150.29 132.148 152.19 133.078 153.51 135.058C153.63 135.228 153.58 135.468 153.41 135.578C153.4 135.588 153.39 135.598 153.37 135.598H153.36C151.28 136.658 149.68 137.058 148.1 137.338C147.31 137.478 146.55 137.468 145.76 137.318L144.56 137.118C144.16 137.068 143.75 137.048 143.34 137.038L142.12 137.068L140.89 137.168L139.65 137.288L138.4 137.478C136.73 137.748 135.06 138.208 133.36 138.788C133.21 138.838 133.04 138.758 132.99 138.608C132.93 138.518 132.96 138.398 133.03 138.328Z" fill="white"/>
<path d="M213.95 138.558C208.07 134.688 200.51 133.478 193.72 135.318L213.95 138.558Z" fill="white"/>
<path d="M213.79 138.798C212.09 138.218 210.43 137.758 208.75 137.488L207.5 137.298L206.26 137.178L205.03 137.078L203.81 137.048C203.4 137.068 203 137.088 202.59 137.128L201.39 137.328C200.6 137.478 199.84 137.488 199.05 137.348C197.46 137.058 195.86 136.668 193.79 135.608H193.78C193.59 135.518 193.52 135.288 193.62 135.098C193.63 135.088 193.63 135.068 193.64 135.058C194.96 133.078 196.85 132.148 198.78 131.688C199.26 131.598 199.76 131.538 200.25 131.538C200.74 131.548 201.23 131.638 201.71 131.728L203.14 132.138C203.61 132.298 204.07 132.438 204.54 132.568L205.91 133.018L207.25 133.538L208.54 134.158L209.78 134.848C211.39 135.838 212.87 136.978 214.12 138.328C214.23 138.448 214.22 138.628 214.1 138.738C214 138.808 213.89 138.828 213.79 138.798Z" fill="white"/>
<path d="M152.74 155.948C152.74 160.858 149.79 152.828 146.16 152.828C142.53 152.828 139.58 160.848 139.58 155.948C139.58 151.048 142.53 147.068 146.16 147.068C149.79 147.068 152.74 151.038 152.74 155.948Z" fill="white" stroke="white" stroke-width="5.6693" stroke-miterlimit="10" stroke-linecap="round" stroke-linejoin="round"/>
<path d="M207.3 156.608C207.3 161.518 204.35 153.488 200.72 153.488C197.09 153.488 194.14 161.508 194.14 156.608C194.14 151.708 197.09 147.728 200.72 147.728C204.35 147.728 207.3 151.698 207.3 156.608Z" fill="white" stroke="white" stroke-width="5.6693" stroke-miterlimit="10" stroke-linecap="round" stroke-linejoin="round"/>
<path d="M172.7 179.328C170.43 179.628 168.07 177.988 167.57 175.758C167.23 174.278 167.65 172.718 168.33 171.358C169.02 170.008 169.96 168.808 170.8 167.538C172.47 164.998 173.67 162.158 174.48 159.228" fill="white"/>
<path d="M172.7 179.328C171.8 180.658 170.02 181.228 168.21 181.078C166.86 180.178 165.69 178.938 165.08 177.278C164.45 175.598 164.55 173.938 164.88 172.528C165.22 171.118 165.85 169.888 166.48 168.868C167.12 167.838 167.76 166.978 168.29 166.188C168.81 165.418 169.27 164.608 169.7 163.778C170.12 162.938 170.51 162.078 170.85 161.188C172 160.608 173.1 159.928 174.48 159.228C175.29 160.538 175.75 161.848 176.15 163.218C175.74 164.278 175.28 165.328 174.76 166.348C174.24 167.368 173.65 168.378 173.01 169.338C172.38 170.278 171.78 171.098 171.32 171.848C170.86 172.598 170.55 173.258 170.4 173.888C170.25 174.498 170.28 175.028 170.4 175.308C170.51 175.618 170.8 176.028 171.22 176.218C171.17 177.158 171.53 178.278 172.7 179.328Z" fill="white"/>
<path d="M45.1301 665.578C38.4101 665.578 32.9601 660.128 32.9601 653.408V432.968C32.9601 426.248 38.4101 420.798 45.1301 420.798C51.8501 420.798 57.3001 426.248 57.3001 432.968V653.398C57.3001 660.128 51.8501 665.578 45.1301 665.578Z" fill="white" stroke="white" stroke-width="5.6693" stroke-miterlimit="10" stroke-linecap="round" stroke-linejoin="round"/>
<path d="M32.9501 638.598H30.1101C25.1401 638.598 21.1101 634.568 21.1101 629.598V456.778C21.1101 451.808 25.1401 447.778 30.1101 447.778H32.9501V638.598Z" fill="white" stroke="white" stroke-width="5.6693" stroke-miterlimit="10" stroke-linecap="round" stroke-linejoin="round"/>
<path d="M305.04 665.578C298.32 665.578 292.87 660.128 292.87 653.408V432.968C292.87 426.248 298.32 420.798 305.04 420.798C311.76 420.798 317.21 426.248 317.21 432.968V653.398C317.22 660.128 311.77 665.578 305.04 665.578Z" fill="white" stroke="white" stroke-width="5.6693" stroke-miterlimit="10" stroke-linecap="round" stroke-linejoin="round"/>
<path d="M317.22 635.308H320.06C325.03 635.308 329.06 631.278 329.06 626.308V453.488C329.06 448.518 325.03 444.488 320.06 444.488H317.22V635.308Z" fill="white" stroke="white" stroke-width="5.6693" stroke-miterlimit="10" stroke-linecap="round" stroke-linejoin="round"/>
<path d="M236.28 155.618C236.28 155.618 219.17 114.818 217.2 106.268C215.23 97.7183 208.65 118.108 165.87 120.748C123.09 123.388 117.18 126.008 117.18 126.008L114.22 155.948C114.22 155.948 101.39 136.538 104.02 100.348C106.65 64.1583 119.15 75.9983 119.15 75.9983C119.15 75.9983 112.57 60.8683 123.76 58.2283C134.95 55.5883 159.29 53.6183 165.21 55.5983C171.13 57.5683 182.32 62.1783 182.32 62.1783C182.32 62.1783 182.32 52.3083 194.82 56.9183C207.32 61.5283 229.04 60.8683 236.27 83.8983C243.5 106.928 242.2 149.038 236.28 155.618Z" fill="white" stroke="white" stroke-width="5.6693" stroke-miterlimit="10" stroke-linecap="round" stroke-linejoin="round"/>
<path opacity="0.1" d="M158.75 223.368C158.75 223.368 180.35 227.338 193.72 222.098C196.06 221.178 190.22 231.288 175.75 230.628C161.27 229.968 158.75 223.368 158.75 223.368Z" fill="white" stroke="white" stroke-width="5.6693" stroke-miterlimit="10" stroke-linecap="round" stroke-linejoin="round"/>
<path d="M154.68 195.038C158.96 196.428 161.35 196.638 165.54 197.088C167.44 197.288 170.87 197.678 172.78 197.748C178.03 197.918 182.52 197.758 188.57 197.088C190.12 196.918 193.05 196.358 194.49 195.768C195.93 195.188 196.18 193.348 196.46 191.818C195.45 191.308 194.7 190.658 193.57 190.798C192.66 190.908 190.77 191.618 189.88 191.818C188.54 192.118 187.3 192.458 185.93 192.478C175.16 192.648 164.45 193.268 153.89 191.158C153.69 191.828 154.25 193.328 154.35 194.458" fill="white"/>
<path d="M152.42 203.238C156.88 204.668 161.48 205.158 166.12 205.658C170.06 206.088 173.96 206.368 177.93 206.308C182.8 206.238 187.76 205.878 192.56 205.038C194.88 204.628 197.27 204.048 199.3 202.828C202.45 200.928 204.03 197.578 204.67 194.098C205.03 192.158 205.02 190.418 204.24 188.558C203.55 186.918 202.37 185.358 200.76 184.488C198.67 183.368 196.77 182.498 194.37 182.328C192.99 182.228 191.59 182.468 190.26 182.838C188.51 183.328 186.82 183.878 185.01 184.168C185.76 184.068 186.52 183.968 187.27 183.868C184.91 184.168 182.45 184.048 180.07 184.098C177.63 184.148 175.19 184.198 172.76 184.198C167.9 184.198 163.05 184.008 158.23 183.378C158.98 183.478 159.74 183.578 160.49 183.678C159.04 183.478 157.6 183.238 156.16 182.958C153.99 182.538 151.55 182.568 149.61 183.818C147.85 184.948 146.08 186.758 145.7 188.898C145.33 190.998 145.34 192.248 145.72 194.378C145.84 195.048 146 195.698 146.12 196.368C146.02 195.618 145.92 194.858 145.82 194.108C145.83 194.228 145.85 194.338 145.86 194.458C146.14 196.788 146.62 198.748 148.35 200.468C149.82 201.938 152.24 203.058 154.36 202.958C156.56 202.858 158.84 202.138 160.37 200.468C161.79 198.918 163.12 196.638 162.86 194.458C162.67 192.838 162.35 191.288 162.09 189.688C162.19 190.438 162.29 191.198 162.39 191.948C162.36 191.758 162.35 191.568 162.36 191.378C162.26 192.128 162.16 192.888 162.06 193.638C162.07 193.568 162.09 193.488 162.1 193.418C158.61 195.398 155.13 197.378 151.64 199.358C159.41 200.878 167.29 201.278 175.2 201.188C178.78 201.148 182.37 201.128 185.95 200.988C188.1 200.908 190.29 200.518 192.38 199.968C193.54 199.658 194.66 199.188 195.85 198.998C195.1 199.098 194.34 199.198 193.59 199.298C193.85 199.268 194.11 199.278 194.37 199.328C193.62 199.228 192.86 199.128 192.11 199.028C192.35 199.078 192.59 199.158 192.81 199.268C192.13 198.978 191.46 198.698 190.78 198.408C191.25 198.648 191.71 198.918 192.18 199.168C190.88 195.968 189.57 192.768 188.27 189.568C188.12 190.408 187.97 191.238 187.66 192.038C187.95 191.358 188.23 190.688 188.52 190.008C188.39 190.288 188.26 190.528 188.08 190.778C188.52 190.208 188.97 189.628 189.41 189.058C189.29 189.208 189.16 189.348 189 189.468C189.57 189.028 190.15 188.578 190.72 188.138C190.56 188.258 190.39 188.358 190.21 188.438C190.89 188.148 191.56 187.868 192.24 187.578C190.53 188.228 188.69 188.558 186.88 188.828C187.63 188.728 188.39 188.628 189.14 188.528C179.93 189.748 170.75 189.358 161.58 188.148C162.33 188.248 163.09 188.348 163.84 188.448C161.49 188.118 159.21 187.578 156.95 186.848C152.71 185.488 147.48 188.438 146.49 192.788C145.42 197.428 147.88 201.778 152.42 203.238Z" fill="white"/>
<path d="M156.74 200.978C159.52 200.228 162.46 200.448 165.33 200.678C170.36 201.078 175.4 201.478 180.43 201.898C183.95 202.188 188.56 203.108 191.86 204.348C191.78 205.538 190.58 205.798 189.58 206.798C188.69 207.688 187.58 207.798 186.58 208.798C185.71 209.668 183.8 210.648 182.58 210.798C180.24 211.088 177.92 211.508 175.58 211.798C174.67 211.908 171.5 211.828 170.58 211.798C168.56 211.738 166.47 210.518 164.58 209.798C163.61 209.428 162.55 208.168 161.58 207.798C161.01 207.578 160.08 206.148 159.58 205.798C159.07 205.438 159.37 204.828 158.96 204.348C158.15 203.388 157.14 202.678 156.33 201.718" fill="white"/>
<path d="M159 209.178C159.59 209.028 160.18 208.918 160.78 208.828C160.03 208.928 159.27 209.028 158.52 209.128C162.46 208.648 166.52 209.278 170.45 209.588C174.41 209.908 178.4 210.108 182.34 210.608C181.59 210.508 180.83 210.408 180.08 210.308C183.31 210.748 186.54 211.428 189.61 212.548C187.63 209.058 185.65 205.578 183.67 202.088C183.66 202.288 183.61 202.478 183.52 202.658C183.81 201.978 184.09 201.308 184.38 200.628C184.33 200.708 184.29 200.788 184.24 200.858C184.68 200.288 185.13 199.708 185.57 199.138C185.37 199.368 185.18 199.538 184.94 199.728C185.51 199.288 186.09 198.838 186.66 198.398C185.49 199.238 184.35 200.108 183.27 201.058C183.84 200.618 184.42 200.168 184.99 199.728C184.41 200.148 183.75 200.418 183.15 200.798C182.05 201.488 181.11 202.378 180.11 203.188C180.68 202.748 181.26 202.298 181.83 201.858C181.23 202.298 180.59 202.658 179.91 202.968C180.59 202.678 181.26 202.398 181.94 202.108C181.41 202.328 180.89 202.498 180.32 202.598C181.07 202.498 181.83 202.398 182.58 202.298C179.8 202.648 177.03 203.088 174.25 203.478C175 203.378 175.76 203.278 176.51 203.178C174.42 203.458 172.27 203.408 170.17 203.278C170.92 203.378 171.68 203.478 172.43 203.578C171.29 203.428 170.24 203.048 169.18 202.598C169.86 202.888 170.53 203.168 171.21 203.458C169.76 202.828 168.31 202.188 166.83 201.608C167.51 201.898 168.18 202.178 168.86 202.468C168.42 202.268 168.05 202.008 167.66 201.708C168.23 202.148 168.81 202.598 169.38 203.038C168.47 202.308 167.56 201.548 166.6 200.888C166.25 200.648 165.85 200.498 165.51 200.248C166.08 200.688 166.66 201.138 167.23 201.578C166.57 200.958 165.96 200.228 165.35 199.558C166.08 200.808 166.81 202.058 167.54 203.308C166.79 201.188 166.15 199.568 164.53 197.888C163.81 197.138 163.01 196.488 162.32 195.718C159.35 192.388 153.28 192.468 150.29 195.718C147.03 199.268 147.12 204.188 150.29 207.748C151.12 208.678 152.09 209.448 152.92 210.378C152.48 209.808 152.03 209.228 151.59 208.658C151.65 208.758 151.7 208.858 151.76 208.958C151.47 208.278 151.19 207.608 150.9 206.928C151.33 208.728 152.1 210.358 153.43 211.708C153.77 212.058 154.1 212.398 154.42 212.768C155.58 214.108 157.09 214.868 158.46 215.918C157.89 215.478 157.31 215.028 156.74 214.588C157.7 215.348 158.64 216.188 159.67 216.848C160.71 217.508 161.92 217.858 163.06 218.328C162.38 218.038 161.71 217.758 161.03 217.468C163.13 218.368 165.22 219.488 167.48 219.938C169.3 220.298 171.07 220.348 172.9 220.378C176.6 220.418 180.23 219.658 183.88 219.148C183.13 219.248 182.37 219.348 181.62 219.448C184.35 219.078 186.14 218.788 188.63 217.598C190.22 216.838 191.6 215.708 192.9 214.538C192.33 214.978 191.75 215.428 191.18 215.868C191.77 215.438 192.43 215.148 193.05 214.768C194.17 214.088 195.11 213.178 196.12 212.358C195.55 212.798 194.97 213.248 194.4 213.688C196.88 211.868 199.5 209.938 200.03 206.638C200.39 204.408 200.46 202.088 199.17 200.088C197.91 198.138 196.27 196.978 194.09 196.178C188.07 193.978 181.62 193.518 175.28 193.008C172.03 192.748 168.78 192.488 165.54 192.228C161.79 191.928 158.13 191.888 154.44 192.808C150.12 193.888 147.11 198.968 148.5 203.268C149.98 207.708 154.37 210.338 159 209.178Z" fill="white"/>
<path d="M165.87 580.648H108.62V432.778C108.62 416.968 121.44 404.158 137.24 404.158C153.05 404.158 165.86 416.978 165.86 432.778V580.648H165.87Z" fill="white" stroke="white" stroke-width="5.6693" stroke-miterlimit="10" stroke-linecap="round" stroke-linejoin="round"/>
<path d="M241.54 580.648H184.29V432.778C184.29 416.968 197.11 404.158 212.91 404.158C228.72 404.158 241.53 416.978 241.53 432.778V580.648H241.54Z" fill="white" stroke="white" stroke-width="5.6693" stroke-miterlimit="10" stroke-linecap="round" stroke-linejoin="round"/>
<path d="M101.39 578.808C101.39 578.808 117.33 553.768 134.37 554.378C151.41 554.988 167.35 575.748 167.9 578.808C168.45 581.868 168.45 586.138 166.25 587.968C164.05 589.798 106.33 590.408 104.13 588.578C101.94 586.748 99.1901 586.748 101.39 578.808Z" fill="white" stroke="white" stroke-width="5.6693" stroke-miterlimit="10" stroke-linecap="round" stroke-linejoin="round"/>
<path d="M182.13 578.808C182.13 578.808 197.51 553.768 213.94 554.378C230.37 554.988 245.75 575.748 246.28 578.808C246.81 581.858 246.81 586.138 244.69 587.968C242.57 589.798 186.9 590.408 184.78 588.578C182.66 586.748 180.01 586.748 182.13 578.808Z" fill="white" stroke="white" stroke-width="5.6693" stroke-miterlimit="10" stroke-linecap="round" stroke-linejoin="round"/>
<path d="M78.626 646.16H86.996V592.8H78.626V646.16Z" fill="white" stroke="white" stroke-width="5.6693" stroke-miterlimit="10" stroke-linecap="round" stroke-linejoin="round"/>
<path d="M87.0001 640.298H74.4401V648.668H87.0001V640.298Z" fill="white" stroke="white" stroke-width="5.6693" stroke-miterlimit="10" stroke-linecap="round" stroke-linejoin="round"/>
<path d="M69.8701 682.288H63.7101C61.1901 682.288 59.1401 680.238 59.1401 677.718V614.008C59.1401 611.488 61.1901 609.438 63.7101 609.438H69.8701C72.3901 609.438 74.4401 611.488 74.4401 614.008V677.718C74.4401 680.238 72.3901 682.288 69.8701 682.288Z" fill="white" stroke="white" stroke-width="5.6693" stroke-miterlimit="10" stroke-linecap="round" stroke-linejoin="round"/>
<path d="M59.1401 672.658H57.5301C56.2101 672.658 55.1501 671.588 55.1501 670.278V621.448C55.1501 620.128 56.2201 619.068 57.5301 619.068H59.1401V672.658Z" fill="white" stroke="white" stroke-width="5.6693" stroke-miterlimit="10" stroke-linecap="round" stroke-linejoin="round"/>
<path d="M272.52 587.798H264.15V641.158H272.52V587.798Z" fill="white" stroke="white" stroke-width="5.6693" stroke-miterlimit="10" stroke-linecap="round" stroke-linejoin="round"/>
<path d="M264.15 643.675L276.71 643.675L276.71 635.305L264.15 635.305L264.15 643.675Z" fill="white" stroke="white" stroke-width="5.6693" stroke-miterlimit="10" stroke-linecap="round" stroke-linejoin="round"/>
<path d="M281.28 677.288H287.44C289.96 677.288 292.01 675.238 292.01 672.718V609.008C292.01 606.488 289.96 604.438 287.44 604.438H281.28C278.76 604.438 276.71 606.488 276.71 609.008V672.718C276.71 675.238 278.76 677.288 281.28 677.288Z" fill="white" stroke="white" stroke-width="5.6693" stroke-miterlimit="10" stroke-linecap="round" stroke-linejoin="round"/>
<path d="M292.01 667.658H293.62C294.94 667.658 296 666.588 296 665.278V616.448C296 615.128 294.93 614.068 293.62 614.068H292.01V667.658Z" fill="white" stroke="white" stroke-width="5.6693" stroke-miterlimit="10" stroke-linecap="round" stroke-linejoin="round"/>
<path d="M120.77 208.898C121.48 209.698 114.59 214.668 104.28 219.918C93.9701 225.168 84.2901 228.598 83.5801 227.798C82.8701 226.998 91.2801 221.038 101.58 215.798C111.88 210.558 120.06 208.098 120.77 208.898Z" fill="white" stroke="white" stroke-width="5.6693" stroke-miterlimit="10" stroke-linecap="round" stroke-linejoin="round"/>
<path d="M122.58 217.798C122.58 217.798 58.5801 75.7981 63.1701 62.9381C64.7401 58.5581 72.3601 38.7581 71.1401 35.6781C69.9201 32.5881 61.0301 26.0481 60.5801 23.9781C60.1301 21.9081 55.0701 6.69807 52.8101 5.30807C50.5501 3.91807 46.9701 1.87807 44.1401 3.75807C41.3101 5.63807 38.5701 9.83807 38.5701 9.83807C38.5701 9.83807 33.4201 8.96807 30.7901 10.0781C28.1601 11.1881 26.3001 15.8881 26.3001 15.8881C26.3001 15.8881 20.5001 14.7281 16.6601 17.1981C12.8201 19.6681 13.6901 23.3181 13.6901 23.3181C13.6901 23.3181 9.60013 22.3681 6.73013 24.4981C3.86013 26.6281 3.56013 33.4581 4.43013 37.1081C5.30013 40.7581 8.48013 52.0681 10.6101 54.9381C12.7401 57.8081 23.5301 66.4181 30.7101 70.4081C38.5901 74.7881 89.5901 233.788 89.5901 233.788L122.58 217.798Z" fill="white" stroke="white" stroke-width="5.6693" stroke-miterlimit="10" stroke-linecap="round" stroke-linejoin="round"/>
<path d="M40.1601 69.6083C40.1601 69.6083 36.8701 57.8483 39.6501 53.3283C42.4301 48.8083 47.4901 43.7383 47.4901 43.7383C47.4901 43.7383 43.3901 44.6683 38.9301 41.1683C34.4701 37.6683 33.6001 34.0183 33.7301 32.5383C33.8601 31.0583 40.4701 30.4483 44.9301 28.8983C49.3901 27.3483 57.2801 24.0183 58.3001 24.2583C59.3201 24.4983 60.6001 23.9583 60.6001 23.9583C60.6001 23.9583 54.5801 7.17826 53.3601 5.84826C52.1401 4.50826 50.8901 4.21826 50.8901 4.21826C50.8901 4.21826 52.5801 6.33826 54.1201 10.7983C55.6601 15.2583 58.4301 22.7983 58.4301 22.7983L44.0401 27.1983L38.5701 9.84826L35.7201 9.55826L41.5201 28.1183C41.5201 28.1183 36.9701 27.9183 34.4501 29.4783C31.9301 31.0383 31.3801 32.8783 31.3801 32.8783L24.8401 15.7083L22.2501 15.6483C22.2501 15.6483 23.5301 18.0883 26.0601 26.6583C28.5901 35.2283 33.5201 41.7683 33.7201 44.6183C33.9201 47.4683 30.9401 49.1383 28.2001 49.7983C25.4601 50.4583 21.7401 46.9983 21.7401 46.9983L13.0401 23.2383L11.0701 23.1483C11.0701 23.1483 19.9301 45.4983 20.0201 47.8883C20.1101 50.2783 18.8501 51.0583 16.5601 51.6083C14.2801 52.1483 10.2101 49.6383 9.28013 45.5683C8.36013 41.4983 4.00013 32.4683 4.00013 32.4683C4.00013 32.4683 7.12013 48.0783 8.20013 49.7483C9.28013 51.4183 10.2801 53.5883 13.8001 54.1983C17.3201 54.8083 25.3801 54.9683 28.4201 54.1683C31.4601 53.3683 36.9401 52.0583 36.9401 52.0583C36.9401 52.0583 35.9301 56.6583 36.9401 60.5083C37.9401 64.3483 40.1601 69.6083 40.1601 69.6083Z" fill="white" stroke="white" stroke-width="5.6693" stroke-miterlimit="10" stroke-linecap="round" stroke-linejoin="round"/>
<path d="M125.58 297.798C119.25 297.798 83.6901 227.508 83.6901 227.508L120.64 208.768L133.64 241.488C133.64 241.488 126.58 297.798 125.58 297.798Z" fill="white" stroke="white" stroke-width="5.6693" stroke-miterlimit="10" stroke-linecap="round" stroke-linejoin="round"/>
<path d="M229.87 208.898C229.16 209.698 236.05 214.668 246.36 219.918C256.67 225.168 266.35 228.598 267.06 227.798C267.77 226.998 259.36 221.038 249.06 215.798C238.75 210.548 230.57 208.098 229.87 208.898Z" fill="white" stroke="white" stroke-width="5.6693" stroke-miterlimit="10" stroke-linecap="round" stroke-linejoin="round"/>
<path d="M228.05 217.798C228.05 217.798 292.05 75.7978 287.46 62.9378C285.89 58.5578 278.27 38.7578 279.49 35.6778C280.71 32.5878 289.6 26.0478 290.05 23.9778C290.5 21.9078 295.57 6.70783 297.83 5.31783C300.09 3.92783 303.67 1.88783 306.5 3.76783C309.33 5.64783 312.07 9.84783 312.07 9.84783C312.07 9.84783 317.22 8.97783 319.85 10.0878C322.48 11.1978 324.34 15.8978 324.34 15.8978C324.34 15.8978 330.14 14.7378 333.98 17.2078C337.82 19.6778 336.95 23.3278 336.95 23.3278C336.95 23.3278 341.04 22.3778 343.91 24.5078C346.78 26.6378 347.08 33.4678 346.21 37.1178C345.34 40.7678 342.16 52.0778 340.03 54.9478C337.9 57.8178 327.11 66.4278 319.93 70.4178C312.05 74.7978 261.05 233.798 261.05 233.798L228.05 217.798Z" fill="white" stroke="white" stroke-width="5.6693" stroke-miterlimit="10" stroke-linecap="round" stroke-linejoin="round"/>
<path d="M310.48 69.608C310.48 69.608 313.77 57.848 310.99 53.328C308.21 48.808 303.15 43.738 303.15 43.738C303.15 43.738 307.26 44.678 311.72 41.178C316.18 37.678 317.05 34.028 316.92 32.548C316.79 31.068 310.18 30.458 305.72 28.908C301.26 27.358 293.37 24.028 292.35 24.268C291.33 24.508 290.05 23.968 290.05 23.968C290.05 23.968 296.06 7.17801 297.28 5.83801C298.5 4.49801 299.75 4.20801 299.75 4.20801C299.75 4.20801 298.06 6.32801 296.52 10.788C294.97 15.248 292.21 22.788 292.21 22.788L306.6 27.188L312.07 9.84801L314.92 9.55801L309.12 28.118C309.12 28.118 313.67 27.918 316.19 29.478C318.71 31.038 319.26 32.878 319.26 32.878L325.8 15.708L328.39 15.648C328.39 15.648 327.11 18.088 324.58 26.658C322.05 35.228 317.12 41.768 316.92 44.618C316.72 47.468 319.7 49.138 322.44 49.798C325.18 50.448 328.9 46.998 328.9 46.998L337.6 23.238L339.57 23.148C339.57 23.148 330.71 45.498 330.62 47.888C330.53 50.278 331.79 51.058 334.08 51.608C336.36 52.148 340.43 49.638 341.36 45.568C342.29 41.498 346.64 32.468 346.64 32.468C346.64 32.468 343.52 48.078 342.44 49.748C341.36 51.418 340.36 53.588 336.84 54.198C333.32 54.808 325.26 54.968 322.22 54.168C319.18 53.368 313.7 52.058 313.7 52.058C313.7 52.058 314.71 56.658 313.7 60.508C312.69 64.358 310.48 69.608 310.48 69.608Z" fill="white" stroke="white" stroke-width="5.6693" stroke-miterlimit="10" stroke-linecap="round" stroke-linejoin="round"/>
<path d="M225.05 297.798C231.38 297.798 266.94 227.508 266.94 227.508L229.99 208.768L216.99 241.488C216.99 241.488 224.05 297.798 225.05 297.798Z" fill="white" stroke="white" stroke-width="5.6693" stroke-miterlimit="10" stroke-linecap="round" stroke-linejoin="round"/>
<path d="M153.37 189.838C153.37 189.838 166.53 192.368 175.74 192.368C184.95 192.368 196.14 190.678 196.14 190.678C196.14 190.678 197.46 210.928 175.74 211.778C154.02 212.628 153.37 189.838 153.37 189.838Z" fill="white" stroke="white" stroke-width="5.6693" stroke-miterlimit="10" stroke-linecap="round" stroke-linejoin="round"/>
<path d="M246.35 483.598H109.34C92.6401 483.598 79.1101 470.058 79.1101 453.368V276.528C79.1101 259.828 92.6501 246.298 109.34 246.298H246.35C263.05 246.298 276.58 259.838 276.58 276.528V453.368C276.58 470.058 263.05 483.598 246.35 483.598Z" fill="#1A1A1A"/>
<path d="M241.66 488.598H108.82C92.1201 488.598 78.5901 475.058 78.5901 458.368V281.528C78.5901 264.828 92.1301 251.298 108.82 251.298H241.66C258.36 251.298 271.89 264.838 271.89 281.528V458.368C271.89 475.058 258.36 488.598 241.66 488.598Z" fill="#333333"/>
<path d="M125.58 299.798L133.58 243.798L149.42 240.528C149.42 240.528 150.91 238.798 176.58 238.798C194.35 238.798 199.43 240.528 201.4 240.528L217.58 243.798L225.75 299.088C225.75 299.088 224.43 405.028 221.14 410.948C214.23 423.388 125.07 408.318 125.07 408.318L125.73 299.748" fill="#2E3192"/>
<path d="M223.11 410.318H125.07V464.278H223.11V410.318Z" fill="#36525E"/>
<path d="M262.93 491.148H86.5801C79.1301 491.148 73.0901 485.108 73.0901 477.658C73.0901 470.208 79.1301 464.168 86.5801 464.168H262.93C270.38 464.168 276.42 470.208 276.42 477.658C276.42 485.108 270.38 491.148 262.93 491.148Z" fill="#545454"/>
<path d="M80.9901 403.718H68.4901V588.758H80.9901V403.718Z" fill="#A5A0A3"/>
<path d="M281.68 403.718H269.18V588.758H281.68V403.718Z" fill="#A5A0A3"/>
<path d="M88.5901 403.798H57.6701C51.4901 403.798 46.4801 398.788 46.4801 392.608V391.528C46.4801 385.348 51.4901 380.338 57.6701 380.338H88.6001C94.7801 380.338 99.7901 385.348 99.7901 391.528V392.608C99.7801 398.788 94.7701 403.798 88.5901 403.798Z" fill="#CCC9CD"/>
<path d="M292.47 403.798H261.54C255.36 403.798 250.35 398.788 250.35 392.608V390.528C250.35 384.348 255.36 379.338 261.54 379.338H292.47C298.65 379.338 303.66 384.348 303.66 390.528V392.608C303.66 398.788 298.65 403.798 292.47 403.798Z" fill="#CCC9CD"/>
<path d="M158.16 602.798H77.5101C71.4301 602.798 66.5101 597.878 66.5101 591.798V588.748H169.16V591.798C169.16 597.868 164.24 602.798 158.16 602.798Z" fill="#A5A0A3"/>
<path d="M272 602.798H191.35C185.27 602.798 180.35 597.878 180.35 591.798V588.748H283V591.798C283 597.868 278.07 602.798 272 602.798Z" fill="#A5A0A3"/>
<path d="M68.4901 537.288H57.3001V551.768H68.4901V537.288Z" fill="#787878"/>
<path d="M292.87 537.288H281.68V551.768H292.87V537.288Z" fill="#787878"/>
<path d="M45.1301 667.578C38.4101 667.578 32.9601 662.128 32.9601 655.408V434.968C32.9601 428.248 38.4101 422.798 45.1301 422.798C51.8501 422.798 57.3001 428.248 57.3001 434.968V655.398C57.3001 662.128 51.8501 667.578 45.1301 667.578Z" fill="#1D1D1B" stroke="black" stroke-miterlimit="10"/>
<path d="M32.9501 640.598H30.1101C25.1401 640.598 21.1101 636.568 21.1101 631.598V458.778C21.1101 453.808 25.1401 449.778 30.1101 449.778H32.9501V640.598Z" fill="#BCB9BB"/>
<path d="M305.04 667.578C298.32 667.578 292.87 662.128 292.87 655.408V434.968C292.87 428.248 298.32 422.798 305.04 422.798C311.76 422.798 317.21 428.248 317.21 434.968V655.398C317.22 662.128 311.77 667.578 305.04 667.578Z" fill="#1D1D1B" stroke="black" stroke-miterlimit="10"/>
<path d="M317.22 637.308H320.06C325.03 637.308 329.06 633.278 329.06 628.308V455.488C329.06 450.518 325.03 446.488 320.06 446.488H317.22V637.308Z" fill="#BCB9BB"/>
<path d="M165.87 582.648H108.62V434.778C108.62 418.968 121.44 406.158 137.24 406.158C153.05 406.158 165.86 418.978 165.86 434.778V582.648H165.87Z" fill="#56869B"/>
<path d="M241.54 582.648H184.29V434.778C184.29 418.968 197.11 406.158 212.91 406.158C228.72 406.158 241.53 418.978 241.53 434.778V582.648H241.54Z" fill="#56869B"/>
<path d="M101.39 580.808C101.39 580.808 117.33 555.768 134.37 556.378C151.41 556.988 167.35 577.748 167.9 580.808C168.45 583.868 168.45 588.138 166.25 589.968C164.05 591.798 106.33 592.408 104.13 590.578C101.94 588.748 99.1901 588.748 101.39 580.808Z" fill="#1B1464"/>
<path d="M182.13 580.808C182.13 580.808 197.51 555.768 213.94 556.378C230.37 556.988 245.75 577.748 246.28 580.808C246.81 583.858 246.81 588.138 244.69 589.968C242.57 591.798 186.9 592.408 184.78 590.578C182.66 588.748 180.01 588.748 182.13 580.808Z" fill="#1B1464"/>
<path d="M78.626 648.16H86.996V594.8H78.626V648.16Z" fill="#A5A0A3"/>
<path d="M87.0001 642.298H74.4401V650.668H87.0001V642.298Z" fill="#A5A0A3"/>
<path d="M69.8701 684.288H63.7101C61.1901 684.288 59.1401 682.238 59.1401 679.718V616.008C59.1401 613.488 61.1901 611.438 63.7101 611.438H69.8701C72.3901 611.438 74.4401 613.488 74.4401 616.008V679.718C74.4401 682.238 72.3901 684.288 69.8701 684.288Z" fill="#1D1D1B" stroke="black" stroke-miterlimit="10"/>
<path d="M59.1401 674.658H57.5301C56.2101 674.658 55.1501 673.588 55.1501 672.278V623.448C55.1501 622.128 56.2201 621.068 57.5301 621.068H59.1401V674.658Z" fill="#BCB9BB"/>
<path d="M272.52 589.798H264.15V643.158H272.52V589.798Z" fill="#A5A0A3"/>
<path d="M264.15 645.675L276.71 645.675L276.71 637.305L264.15 637.305L264.15 645.675Z" fill="#A5A0A3"/>
<path d="M281.28 679.288H287.44C289.96 679.288 292.01 677.238 292.01 674.718V611.008C292.01 608.488 289.96 606.438 287.44 606.438H281.28C278.76 606.438 276.71 608.488 276.71 611.008V674.718C276.71 677.238 278.76 679.288 281.28 679.288Z" fill="#1D1D1B" stroke="black" stroke-miterlimit="10"/>
<path d="M292.01 669.658H293.62C294.94 669.658 296 668.588 296 667.278V618.448C296 617.128 294.93 616.068 293.62 616.068H292.01V669.658Z" fill="#BCB9BB"/>
<path d="M120.77 210.898C121.48 211.698 114.59 216.668 104.28 221.918C93.9701 227.168 84.2901 230.598 83.5801 229.798C82.8701 228.998 91.2801 223.038 101.58 217.798C111.88 212.558 120.06 210.098 120.77 210.898Z" fill="#1B1464"/>
<path d="M122.58 219.798C122.58 219.798 58.5801 77.7981 63.1701 64.9381C64.7401 60.5581 72.3601 40.7581 71.1401 37.6781C69.9201 34.5881 61.0301 28.0481 60.5801 25.9781C60.1301 23.9081 55.0701 8.69807 52.8101 7.30807C50.5501 5.91807 46.9701 3.87807 44.1401 5.75807C41.3101 7.63807 38.5701 11.8381 38.5701 11.8381C38.5701 11.8381 33.4201 10.9681 30.7901 12.0781C28.1601 13.1881 26.3001 17.8881 26.3001 17.8881C26.3001 17.8881 20.5001 16.7281 16.6601 19.1981C12.8201 21.6681 13.6901 25.3181 13.6901 25.3181C13.6901 25.3181 9.60013 24.3681 6.73013 26.4981C3.86013 28.6281 3.56013 35.4581 4.43013 39.1081C5.30013 42.7581 8.48013 54.0681 10.6101 56.9381C12.7401 59.8081 23.5301 68.4181 30.7101 72.4081C38.5901 76.7881 89.5901 235.788 89.5901 235.788L122.58 219.798Z" fill="#EFCAA6"/>
<path d="M40.1601 71.6083C40.1601 71.6083 36.8701 59.8483 39.6501 55.3283C42.4301 50.8083 47.4901 45.7383 47.4901 45.7383C47.4901 45.7383 43.3901 46.6683 38.9301 43.1683C34.4701 39.6683 33.6001 36.0183 33.7301 34.5383C33.8601 33.0583 40.4701 32.4483 44.9301 30.8983C49.3901 29.3483 57.2801 26.0183 58.3001 26.2583C59.3201 26.4983 60.6001 25.9583 60.6001 25.9583C60.6001 25.9583 54.5801 9.17826 53.3601 7.84826C52.1401 6.50826 50.8901 6.21826 50.8901 6.21826C50.8901 6.21826 52.5801 8.33826 54.1201 12.7983C55.6601 17.2583 58.4301 24.7983 58.4301 24.7983L44.0401 29.1983L38.5701 11.8583L35.7201 11.5683L41.5201 30.1283C41.5201 30.1283 36.9701 29.9283 34.4501 31.4883C31.9301 33.0583 31.3801 34.8883 31.3801 34.8883L24.8401 17.7183L22.2501 17.6583C22.2501 17.6583 23.5301 20.0983 26.0601 28.6683C28.5901 37.2383 33.5201 43.7783 33.7201 46.6283C33.9201 49.4783 30.9401 51.1483 28.2001 51.8083C25.4601 52.4683 21.7401 49.0083 21.7401 49.0083L13.0401 25.2483L11.0701 25.1583C11.0701 25.1583 19.9301 47.5083 20.0201 49.8983C20.1101 52.2883 18.8501 53.0683 16.5601 53.6183C14.2801 54.1583 10.2101 51.6483 9.28013 47.5783C8.36013 43.5083 4.00013 34.4783 4.00013 34.4783C4.00013 34.4783 7.12013 50.0883 8.20013 51.7583C9.28013 53.4283 10.2801 55.5983 13.8001 56.2083C17.3201 56.8183 25.3801 56.9783 28.4201 56.1783C31.4601 55.3783 36.9401 54.0683 36.9401 54.0683C36.9401 54.0683 35.9301 58.6683 36.9401 62.5183C37.9401 66.3483 40.1601 71.6083 40.1601 71.6083Z" fill="#E3BB94"/>
<path d="M125.58 299.798C119.25 299.798 83.6901 229.508 83.6901 229.508L120.64 210.768L133.64 243.488C133.64 243.488 126.58 299.798 125.58 299.798Z" fill="#2E3192"/>
<path d="M229.87 210.898C229.16 211.698 236.05 216.668 246.36 221.918C256.67 227.168 266.35 230.598 267.06 229.798C267.77 228.998 259.36 223.038 249.06 217.798C238.75 212.548 230.57 210.098 229.87 210.898Z" fill="#1B1464"/>
<path d="M228.05 219.798C228.05 219.798 292.05 77.7978 287.46 64.9378C285.89 60.5578 278.27 40.7578 279.49 37.6778C280.71 34.5878 289.6 28.0478 290.05 25.9778C290.5 23.9078 295.57 8.70783 297.83 7.31783C300.09 5.92783 303.67 3.88783 306.5 5.76783C309.33 7.64783 312.07 11.8478 312.07 11.8478C312.07 11.8478 317.22 10.9778 319.85 12.0878C322.48 13.1978 324.34 17.8978 324.34 17.8978C324.34 17.8978 330.14 16.7378 333.98 19.2078C337.82 21.6778 336.95 25.3278 336.95 25.3278C336.95 25.3278 341.04 24.3778 343.91 26.5078C346.78 28.6378 347.08 35.4678 346.21 39.1178C345.34 42.7678 342.16 54.0778 340.03 56.9478C337.9 59.8178 327.11 68.4278 319.93 72.4178C312.05 76.7978 261.05 235.798 261.05 235.798L228.05 219.798Z" fill="#EFCAA6"/>
<path d="M310.48 71.608C310.48 71.608 313.77 59.848 310.99 55.328C308.21 50.808 303.15 45.738 303.15 45.738C303.15 45.738 307.26 46.678 311.72 43.178C316.18 39.678 317.05 36.028 316.92 34.548C316.79 33.068 310.18 32.458 305.72 30.908C301.26 29.358 293.37 26.028 292.35 26.268C291.33 26.508 290.05 25.968 290.05 25.968C290.05 25.968 296.06 9.17801 297.28 7.83801C298.5 6.49801 299.75 6.20801 299.75 6.20801C299.75 6.20801 298.06 8.32801 296.52 12.788C294.97 17.248 292.21 24.788 292.21 24.788L306.6 29.188L312.07 11.848L314.92 11.558L309.12 30.118C309.12 30.118 313.67 29.918 316.19 31.478C318.71 33.048 319.26 34.878 319.26 34.878L325.8 17.708L328.39 17.648C328.39 17.648 327.11 20.088 324.58 28.658C322.05 37.228 317.12 43.768 316.92 46.618C316.72 49.468 319.7 51.138 322.44 51.798C325.18 52.448 328.9 48.998 328.9 48.998L337.6 25.238L339.57 25.148C339.57 25.148 330.71 47.498 330.62 49.888C330.53 52.278 331.79 53.058 334.08 53.608C336.36 54.148 340.43 51.638 341.36 47.568C342.29 43.498 346.64 34.468 346.64 34.468C346.64 34.468 343.52 50.078 342.44 51.748C341.36 53.418 340.36 55.588 336.84 56.198C333.32 56.808 325.26 56.968 322.22 56.168C319.18 55.368 313.7 54.058 313.7 54.058C313.7 54.058 314.71 58.658 313.7 62.508C312.69 66.358 310.48 71.608 310.48 71.608Z" fill="#E3BB94"/>
<path d="M225.05 299.798C231.38 299.798 266.94 229.508 266.94 229.508L229.99 210.768L216.99 243.488C216.99 243.488 224.05 299.798 225.05 299.798Z" fill="#2E3192"/>
<path d="M92.0801 283.798L258.58 284.298C258.58 284.298 247.08 254.798 228.08 247.798C211.16 241.568 198.57 239.868 184.08 238.798C165.49 237.418 146.88 239.998 135.08 242.798C97.0801 251.798 92.0801 283.798 92.0801 283.798Z" fill="#A9D0FF"/>
<path d="M92.0801 288.988H258.58" stroke="#A9D0FF" stroke-width="2.8346" stroke-miterlimit="10" stroke-linecap="square" stroke-linejoin="bevel"/>
<path d="M125.57 301.228C125.11 299.318 124.92 297.428 124.83 295.538C124.74 293.648 124.77 291.778 124.89 289.898C125.01 288.028 125.23 286.158 125.56 284.298C125.9 282.438 126.33 280.588 127.04 278.758C127.51 280.668 127.69 282.558 127.79 284.448C127.88 286.338 127.85 288.208 127.73 290.088C127.61 291.958 127.39 293.828 127.06 295.688C126.7 297.548 126.28 299.398 125.57 301.228Z" fill="#293084"/>
<path d="M115.86 153.668C115.86 153.668 109.94 148.408 107.31 149.718C104.68 151.038 98.7601 158.268 101.39 166.828C104.02 175.388 119.16 187.228 119.16 187.228L115.86 153.668Z" fill="#E3BB94"/>
<path d="M230.36 184.598C230.36 184.598 232.99 187.888 240.23 179.988C247.47 172.088 247.47 162.218 246.81 158.928C246.15 155.638 242.86 148.398 235.62 147.738C228.38 147.088 230.36 184.598 230.36 184.598Z" fill="#E3BB94"/>
<path d="M194.82 217.499C194.82 217.499 192.19 237.899 194.82 239.209C197.45 240.529 201.76 240.409 201.58 241.799C201.37 243.409 195.58 252.799 177.05 253.689C159.56 254.529 148.41 243.529 149.58 241.799C150.74 240.069 154.79 240.729 157.31 239.209C160.6 237.239 157.97 217.499 157.97 217.499H194.82Z" fill="#E3BB94"/>
<path d="M238.25 134.588C238.25 134.588 234.3 174.068 230.35 184.598C226.4 195.128 215.87 217.498 196.13 223.418C176.39 229.338 158.62 225.388 148.75 222.098C138.88 218.808 120.46 193.808 119.14 187.228C117.82 180.648 111.9 160.908 114.53 136.558C117.16 112.208 132.3 93.1281 132.3 93.1281L194.81 84.5781L231 104.978L238.25 134.588Z" fill="#EFCAA6"/>
<path d="M133.03 140.328C134.27 138.978 135.76 137.828 137.37 136.848L138.61 136.158L139.9 135.538L141.24 135.018L142.61 134.568C143.07 134.438 143.54 134.298 144.01 134.138L145.44 133.728C145.92 133.638 146.41 133.548 146.9 133.538C147.39 133.538 147.88 133.598 148.37 133.688C150.29 134.148 152.19 135.078 153.51 137.058L153.36 137.608C151.28 138.668 149.68 139.068 148.1 139.348C147.31 139.488 146.55 139.478 145.76 139.328L144.56 139.128C144.16 139.078 143.75 139.058 143.34 139.048L142.12 139.078L140.89 139.178L139.65 139.298L138.4 139.488C136.73 139.758 135.06 140.218 133.36 140.798L133.03 140.328Z" fill="#844D20"/>
<path d="M213.79 140.798C212.09 140.218 210.43 139.758 208.75 139.488L207.5 139.298L206.26 139.178L205.03 139.078L203.81 139.048C203.4 139.068 203 139.088 202.59 139.128L201.39 139.328C200.6 139.478 199.84 139.488 199.05 139.348C197.46 139.058 195.86 138.668 193.79 137.608L193.64 137.058C194.96 135.078 196.85 134.148 198.78 133.688C199.26 133.598 199.76 133.538 200.25 133.538C200.74 133.548 201.23 133.638 201.71 133.728L203.14 134.138C203.61 134.298 204.07 134.438 204.54 134.568L205.91 135.018L207.25 135.538L208.54 136.158L209.78 136.848C211.39 137.838 212.87 138.978 214.12 140.328L213.79 140.798Z" fill="#844D20"/>
<path d="M152.74 157.948C152.74 162.858 149.79 154.828 146.16 154.828C142.53 154.828 139.58 162.848 139.58 157.948C139.58 153.048 142.53 149.068 146.16 149.068C149.79 149.068 152.74 153.038 152.74 157.948Z" fill="#461A00"/>
<path d="M207.3 158.609C207.3 163.519 204.35 155.489 200.72 155.489C197.09 155.489 194.14 163.509 194.14 158.609C194.14 153.709 197.09 149.729 200.72 149.729C204.35 149.729 207.3 153.699 207.3 158.609Z" fill="#461A00"/>
<path d="M172.7 181.329C171.7 181.759 170.45 181.699 169.33 181.249C168.32 180.619 167.49 179.689 167.06 178.539C166.62 177.379 166.67 176.149 166.94 175.039C167.21 173.929 167.72 172.909 168.29 171.989C168.86 171.069 169.49 170.219 170.06 169.369C170.62 168.529 171.13 167.649 171.6 166.739C172.06 165.829 172.48 164.899 172.84 163.949C173.41 163.069 173.92 162.159 174.48 161.229C174.47 162.309 174.35 163.379 174.16 164.459C173.78 165.459 173.34 166.429 172.86 167.389C172.37 168.339 171.83 169.269 171.24 170.159C170.65 171.049 170.03 171.879 169.5 172.729C168.97 173.579 168.54 174.459 168.32 175.379C168.1 176.289 168.08 177.239 168.39 178.049C168.69 178.859 169.31 179.589 170.08 180.039C170.74 180.679 171.63 181.169 172.7 181.329Z" fill="#8C6239"/>
<path d="M236.28 157.618C236.28 157.618 219.17 116.818 217.2 108.268C215.23 99.7183 208.65 120.108 165.87 122.748C123.09 125.388 117.18 128.008 117.18 128.008L114.22 157.948C114.22 157.948 101.39 138.538 104.02 102.348C106.65 66.1583 119.15 77.9983 119.15 77.9983C119.15 77.9983 112.57 62.8683 123.76 60.2283C134.95 57.5883 159.29 55.6183 165.21 57.5983C171.13 59.5683 182.32 64.1783 182.32 64.1783C182.32 64.1783 182.32 54.3083 194.82 58.9183C207.32 63.5283 229.04 62.8683 236.27 85.8983C243.5 108.928 242.2 151.038 236.28 157.618Z" fill="#844D20"/>
<path opacity="0.1" d="M158.75 225.368C158.75 225.368 180.35 229.338 193.72 224.098C196.06 223.178 190.22 233.288 175.75 232.628C161.27 231.968 158.75 225.368 158.75 225.368Z" fill="#844D20"/>
<path d="M154.68 197.038C158.96 198.428 161.35 198.638 165.54 199.088C167.44 199.288 170.87 199.678 172.78 199.748C178.03 199.918 182.52 199.758 188.57 199.088C190.12 198.918 193.05 198.358 194.49 197.768C195.93 197.188 196.18 195.348 196.46 193.818C195.45 193.308 194.7 192.658 193.57 192.798C192.66 192.908 190.77 193.618 189.88 193.818C188.54 194.118 187.3 194.458 185.93 194.478C175.16 194.648 164.45 195.268 153.89 193.158C153.69 193.828 154.25 195.328 154.35 196.458" fill="white"/>
<path d="M156.74 202.978C159.52 202.228 162.46 202.448 165.33 202.678C170.36 203.078 175.4 203.478 180.43 203.898C183.95 204.188 188.56 205.108 191.86 206.348C191.78 207.538 190.58 207.798 189.58 208.798C188.69 209.688 187.58 209.798 186.58 210.798C185.71 211.668 183.8 212.648 182.58 212.798C180.24 213.088 177.92 213.508 175.58 213.798C174.67 213.908 171.5 213.828 170.58 213.798C168.56 213.738 166.47 212.518 164.58 211.798C163.61 211.428 162.55 210.168 161.58 209.798C161.01 209.578 160.08 208.148 159.58 207.798C159.07 207.438 159.37 206.828 158.96 206.348C158.15 205.388 157.14 204.678 156.33 203.718" fill="#D86755"/>
<path d="M153.37 191.838C153.37 191.838 166.53 194.368 175.74 194.368C184.95 194.368 196.14 192.678 196.14 192.678C196.14 192.678 197.46 212.928 175.74 213.778C154.02 214.628 153.37 191.838 153.37 191.838Z" stroke="#A67C52" stroke-miterlimit="10"/>
<path d="M135.08 243.798L130.98 236.798L115.08 286.798C115.08 286.798 123.98 301.718 125.58 299.798C128.08 296.798 135.08 243.798 135.08 243.798Z" fill="#A9D0FF"/>
<path d="M217.08 240.798L221.18 233.798L237.08 283.798C237.08 283.798 228.18 298.718 226.58 296.798C224.08 293.798 217.08 240.798 217.08 240.798Z" fill="#A9D0FF"/>
<path d="M128.54 231.518L112.4 281.198" stroke="#A9D0FF" stroke-width="2.8346" stroke-miterlimit="10" stroke-linecap="round" stroke-linejoin="round"/>
<path d="M223.4 227.518L240.08 279.798" stroke="#A9D0FF" stroke-width="2.8346" stroke-miterlimit="10" stroke-linecap="round" stroke-linejoin="round"/>
<g opacity="0.3">
<path opacity="0.3" d="M125.58 299.798C125.63 297.588 125.82 295.398 126.06 293.208C126.29 291.028 126.6 288.848 126.93 286.688C127.28 284.528 127.66 282.358 128.11 280.208C128.56 278.058 129.05 275.918 129.68 273.798C129.63 276.008 129.44 278.198 129.2 280.388C128.97 282.568 128.66 284.748 128.32 286.908C127.96 289.068 127.59 291.238 127.14 293.388C126.71 295.538 126.22 297.678 125.58 299.798Z" fill="#293084"/>
</g>
<g opacity="0.3">
<path opacity="0.3" d="M225.75 299.088C225.08 297.028 224.55 294.948 224.07 292.858C223.58 290.768 223.17 288.668 222.78 286.558C222.41 284.448 222.06 282.328 221.8 280.198C221.52 278.068 221.3 275.928 221.21 273.768C221.88 275.828 222.41 277.908 222.89 279.998C223.38 282.088 223.79 284.188 224.18 286.298C224.54 288.408 224.89 290.528 225.16 292.658C225.43 294.788 225.66 296.928 225.75 299.088Z" fill="#293084"/>
</g>
</svg>
