<svg width="351" height="716" viewBox="0 0 351 716" fill="none" xmlns="http://www.w3.org/2000/svg">
<ellipse cx="175.038" cy="668.71" rx="175.038" ry="46.7096" fill="black" fill-opacity="0.1"/>
<g clip-path="url(#clip0)">
<path d="M245.19 481.43H108.18C91.48 481.43 77.95 467.89 77.95 451.2V274.36C77.95 257.66 91.49 244.13 108.18 244.13H245.19C261.89 244.13 275.42 257.67 275.42 274.36V451.2C275.42 467.89 261.89 481.43 245.19 481.43Z" fill="white" stroke="white" stroke-width="5.6693" stroke-miterlimit="10" stroke-linecap="round" stroke-linejoin="round"/>
<path d="M240.5 486.43H107.66C90.96 486.43 77.43 472.89 77.43 456.2V279.36C77.43 262.66 90.97 249.13 107.66 249.13H240.5C257.2 249.13 270.73 262.67 270.73 279.36V456.2C270.73 472.89 257.2 486.43 240.5 486.43Z" fill="white" stroke="white" stroke-width="5.6693" stroke-miterlimit="10" stroke-linecap="round" stroke-linejoin="round"/>
<path d="M114.7 151.5C114.7 151.5 108.78 146.24 106.15 147.55C103.52 148.87 97.6 156.1 100.23 164.66C102.86 173.22 118 185.06 118 185.06L114.7 151.5Z" fill="white" stroke="white" stroke-width="5.6693" stroke-miterlimit="10" stroke-linecap="round" stroke-linejoin="round"/>
<path d="M229.2 182.43C229.2 182.43 231.83 185.72 239.07 177.82C246.31 169.92 246.31 160.05 245.65 156.76C244.99 153.47 241.7 146.23 234.46 145.57C227.22 144.92 229.2 182.43 229.2 182.43Z" fill="white" stroke="white" stroke-width="5.6693" stroke-miterlimit="10" stroke-linecap="round" stroke-linejoin="round"/>
<path d="M124.42 297.63L132.42 241.63L148.26 238.36C148.26 238.36 149.75 236.63 175.42 236.63C193.19 236.63 198.27 238.36 200.24 238.36L216.42 241.63L224.59 296.92C224.59 296.92 223.27 402.86 219.98 408.78C213.07 421.22 123.91 406.15 123.91 406.15L124.57 297.58" fill="white"/>
<path d="M124.42 297.63L132.42 241.63L148.26 238.36C148.26 238.36 149.75 236.63 175.42 236.63C193.19 236.63 198.27 238.36 200.24 238.36L216.42 241.63L224.59 296.92C224.59 296.92 223.27 402.86 219.98 408.78C213.07 421.22 123.91 406.15 123.91 406.15L124.57 297.58" stroke="white" stroke-width="5.6693" stroke-miterlimit="10" stroke-linecap="round" stroke-linejoin="round"/>
<path d="M221.95 408.15H123.91V462.11H221.95V408.15Z" fill="white" stroke="white" stroke-width="5.6693" stroke-miterlimit="10" stroke-linecap="round" stroke-linejoin="round"/>
<path d="M261.77 488.98H85.42C77.97 488.98 71.93 482.94 71.93 475.49C71.93 468.04 77.97 462 85.42 462H261.77C269.22 462 275.26 468.04 275.26 475.49C275.26 482.94 269.22 488.98 261.77 488.98Z" fill="white" stroke="white" stroke-width="5.6693" stroke-miterlimit="10" stroke-linecap="round" stroke-linejoin="round"/>
<path d="M79.83 401.55H67.33V586.59H79.83V401.55Z" fill="white" stroke="white" stroke-width="5.6693" stroke-miterlimit="10" stroke-linecap="round" stroke-linejoin="round"/>
<path d="M280.52 401.55H268.02V586.59H280.52V401.55Z" fill="white" stroke="white" stroke-width="5.6693" stroke-miterlimit="10" stroke-linecap="round" stroke-linejoin="round"/>
<path d="M87.43 401.63H56.51C50.33 401.63 45.32 396.62 45.32 390.44V389.36C45.32 383.18 50.33 378.17 56.51 378.17H87.44C93.62 378.17 98.63 383.18 98.63 389.36V390.44C98.62 396.62 93.61 401.63 87.43 401.63Z" fill="white" stroke="white" stroke-width="5.6693" stroke-miterlimit="10" stroke-linecap="round" stroke-linejoin="round"/>
<path d="M291.31 401.63H260.38C254.2 401.63 249.19 396.62 249.19 390.44V388.36C249.19 382.18 254.2 377.17 260.38 377.17H291.31C297.49 377.17 302.5 382.18 302.5 388.36V390.44C302.5 396.62 297.49 401.63 291.31 401.63Z" fill="white" stroke="white" stroke-width="5.6693" stroke-miterlimit="10" stroke-linecap="round" stroke-linejoin="round"/>
<path d="M157 600.63H76.35C70.27 600.63 65.35 595.71 65.35 589.63V586.58H168V589.63C168 595.7 163.08 600.63 157 600.63Z" fill="white" stroke="white" stroke-width="5.6693" stroke-miterlimit="10" stroke-linecap="round" stroke-linejoin="round"/>
<path d="M270.84 600.63H190.19C184.11 600.63 179.19 595.71 179.19 589.63V586.58H281.84V589.63C281.84 595.7 276.91 600.63 270.84 600.63Z" fill="white" stroke="white" stroke-width="5.6693" stroke-miterlimit="10" stroke-linecap="round" stroke-linejoin="round"/>
<path d="M67.33 535.12H56.14V549.6H67.33V535.12Z" fill="white" stroke="white" stroke-width="5.6693" stroke-miterlimit="10" stroke-linecap="round" stroke-linejoin="round"/>
<path d="M291.71 535.12H280.52V549.6H291.71V535.12Z" fill="white" stroke="white" stroke-width="5.6693" stroke-miterlimit="10" stroke-linecap="round" stroke-linejoin="round"/>
<path d="M193.66 215.33C193.66 215.33 191.03 235.73 193.66 237.04C196.29 238.36 200.6 238.24 200.42 239.63C200.21 241.24 194.42 250.63 175.89 251.52C158.4 252.36 147.25 241.36 148.42 239.63C149.58 237.9 153.63 238.56 156.15 237.04C159.44 235.07 156.81 215.33 156.81 215.33H193.66Z" fill="white" stroke="white" stroke-width="5.6693" stroke-miterlimit="10" stroke-linecap="round" stroke-linejoin="round"/>
<path d="M237.09 132.42C237.09 132.42 233.14 171.9 229.19 182.43C225.24 192.96 214.71 215.33 194.97 221.25C175.23 227.17 157.46 223.22 147.59 219.93C137.72 216.64 119.3 191.64 117.98 185.06C116.66 178.48 110.74 158.74 113.37 134.39C116 110.04 131.14 90.9602 131.14 90.9602L193.65 82.4102L229.84 102.81L237.09 132.42Z" fill="white" stroke="white" stroke-width="5.6693" stroke-miterlimit="10" stroke-linecap="round" stroke-linejoin="round"/>
<path d="M132.02 138.39C137.9 134.52 145.46 133.31 152.25 135.15L132.02 138.39Z" fill="white"/>
<path d="M131.87 138.16C133.11 136.81 134.6 135.66 136.21 134.68L137.45 133.99L138.74 133.37L140.08 132.85L141.45 132.4C141.91 132.27 142.38 132.13 142.85 131.97L144.28 131.56C144.76 131.47 145.25 131.38 145.74 131.37C146.23 131.37 146.72 131.43 147.21 131.52C149.13 131.98 151.03 132.91 152.35 134.89C152.47 135.06 152.42 135.3 152.25 135.41C152.24 135.42 152.23 135.43 152.21 135.43H152.2C150.12 136.49 148.52 136.89 146.94 137.17C146.15 137.31 145.39 137.3 144.6 137.15L143.4 136.95C143 136.9 142.59 136.88 142.18 136.87L140.96 136.9L139.73 137L138.49 137.12L137.24 137.31C135.57 137.58 133.9 138.04 132.2 138.62C132.05 138.67 131.88 138.59 131.83 138.44C131.77 138.35 131.8 138.23 131.87 138.16Z" fill="white"/>
<path d="M212.79 138.39C206.91 134.52 199.35 133.31 192.56 135.15L212.79 138.39Z" fill="white"/>
<path d="M212.63 138.63C210.93 138.05 209.27 137.59 207.59 137.32L206.34 137.13L205.1 137.01L203.87 136.91L202.65 136.88C202.24 136.9 201.84 136.92 201.43 136.96L200.23 137.16C199.44 137.31 198.68 137.32 197.89 137.18C196.3 136.89 194.7 136.5 192.63 135.44H192.62C192.43 135.35 192.36 135.12 192.46 134.93C192.47 134.92 192.47 134.9 192.48 134.89C193.8 132.91 195.69 131.98 197.62 131.52C198.1 131.43 198.6 131.37 199.09 131.37C199.58 131.38 200.07 131.47 200.55 131.56L201.98 131.97C202.45 132.13 202.91 132.27 203.38 132.4L204.75 132.85L206.09 133.37L207.38 133.99L208.62 134.68C210.23 135.67 211.71 136.81 212.96 138.16C213.07 138.28 213.06 138.46 212.94 138.57C212.84 138.64 212.73 138.66 212.63 138.63Z" fill="white"/>
<path d="M151.58 155.78C151.58 160.69 148.63 152.66 145 152.66C141.37 152.66 138.42 160.68 138.42 155.78C138.42 150.88 141.37 146.9 145 146.9C148.63 146.9 151.58 150.87 151.58 155.78Z" fill="white" stroke="white" stroke-width="5.6693" stroke-miterlimit="10" stroke-linecap="round" stroke-linejoin="round"/>
<path d="M206.14 156.44C206.14 161.35 203.19 153.32 199.56 153.32C195.93 153.32 192.98 161.34 192.98 156.44C192.98 151.54 195.93 147.56 199.56 147.56C203.19 147.56 206.14 151.53 206.14 156.44Z" fill="white" stroke="white" stroke-width="5.6693" stroke-miterlimit="10" stroke-linecap="round" stroke-linejoin="round"/>
<path d="M171.54 179.16C169.27 179.46 166.91 177.82 166.41 175.59C166.07 174.11 166.49 172.55 167.17 171.19C167.86 169.84 168.8 168.64 169.64 167.37C171.31 164.83 172.51 161.99 173.32 159.06" fill="white"/>
<path d="M171.54 179.16C170.64 180.49 168.86 181.06 167.05 180.91C165.7 180.01 164.53 178.77 163.92 177.11C163.29 175.43 163.39 173.77 163.72 172.36C164.06 170.95 164.69 169.72 165.32 168.7C165.96 167.67 166.6 166.81 167.13 166.02C167.65 165.25 168.11 164.44 168.54 163.61C168.96 162.77 169.35 161.91 169.69 161.02C170.84 160.44 171.94 159.76 173.32 159.06C174.13 160.37 174.59 161.68 174.99 163.05C174.58 164.11 174.12 165.16 173.6 166.18C173.08 167.2 172.49 168.21 171.85 169.17C171.22 170.11 170.62 170.93 170.16 171.68C169.7 172.43 169.39 173.09 169.24 173.72C169.09 174.33 169.12 174.86 169.24 175.14C169.35 175.45 169.64 175.86 170.06 176.05C170.01 176.99 170.37 178.11 171.54 179.16Z" fill="white"/>
<path d="M43.97 665.41C37.25 665.41 31.8 659.96 31.8 653.24V432.8C31.8 426.08 37.25 420.63 43.97 420.63C50.69 420.63 56.14 426.08 56.14 432.8V653.23C56.14 659.96 50.69 665.41 43.97 665.41Z" fill="white" stroke="white" stroke-width="5.6693" stroke-miterlimit="10" stroke-linecap="round" stroke-linejoin="round"/>
<path d="M31.79 638.43H28.95C23.98 638.43 19.95 634.4 19.95 629.43V456.61C19.95 451.64 23.98 447.61 28.95 447.61H31.79V638.43Z" fill="white" stroke="white" stroke-width="5.6693" stroke-miterlimit="10" stroke-linecap="round" stroke-linejoin="round"/>
<path d="M303.88 665.41C297.16 665.41 291.71 659.96 291.71 653.24V432.8C291.71 426.08 297.16 420.63 303.88 420.63C310.6 420.63 316.05 426.08 316.05 432.8V653.23C316.06 659.96 310.61 665.41 303.88 665.41Z" fill="white" stroke="white" stroke-width="5.6693" stroke-miterlimit="10" stroke-linecap="round" stroke-linejoin="round"/>
<path d="M316.06 635.14H318.9C323.87 635.14 327.9 631.11 327.9 626.14V453.32C327.9 448.35 323.87 444.32 318.9 444.32H316.06V635.14Z" fill="white" stroke="white" stroke-width="5.6693" stroke-miterlimit="10" stroke-linecap="round" stroke-linejoin="round"/>
<path d="M235.12 155.45C235.12 155.45 218.01 114.65 216.04 106.1C214.07 97.5503 207.49 117.94 164.71 120.58C121.93 123.22 116.02 125.84 116.02 125.84L113.06 155.78C113.06 155.78 100.23 136.37 102.86 100.18C105.49 63.9903 117.99 75.8303 117.99 75.8303C117.99 75.8303 111.41 60.7003 122.6 58.0603C133.79 55.4203 158.13 53.4503 164.05 55.4303C169.97 57.4003 181.16 62.0103 181.16 62.0103C181.16 62.0103 181.16 52.1403 193.66 56.7503C206.16 61.3603 227.88 60.7003 235.11 83.7303C242.34 106.76 241.04 148.87 235.12 155.45Z" fill="white" stroke="white" stroke-width="5.6693" stroke-miterlimit="10" stroke-linecap="round" stroke-linejoin="round"/>
<path opacity="0.1" d="M157.59 223.2C157.59 223.2 179.19 227.17 192.56 221.93C194.9 221.01 189.06 231.12 174.59 230.46C160.11 229.8 157.59 223.2 157.59 223.2Z" fill="white" stroke="white" stroke-width="5.6693" stroke-miterlimit="10" stroke-linecap="round" stroke-linejoin="round"/>
<path d="M153.52 194.87C157.8 196.26 160.19 196.47 164.38 196.92C166.28 197.12 169.71 197.51 171.62 197.58C176.87 197.75 181.36 197.59 187.41 196.92C188.96 196.75 191.89 196.19 193.33 195.6C194.77 195.02 195.02 193.18 195.3 191.65C194.29 191.14 193.54 190.49 192.41 190.63C191.5 190.74 189.61 191.45 188.72 191.65C187.38 191.95 186.14 192.29 184.77 192.31C174 192.48 163.29 193.1 152.73 190.99C152.53 191.66 153.09 193.16 153.19 194.29" fill="white"/>
<path d="M151.26 203.07C155.72 204.5 160.32 204.99 164.96 205.49C168.9 205.92 172.8 206.2 176.77 206.14C181.64 206.07 186.6 205.71 191.4 204.87C193.72 204.46 196.11 203.88 198.14 202.66C201.29 200.76 202.87 197.41 203.51 193.93C203.87 191.99 203.86 190.25 203.08 188.39C202.39 186.75 201.21 185.19 199.6 184.32C197.51 183.2 195.61 182.33 193.21 182.16C191.83 182.06 190.43 182.3 189.1 182.67C187.35 183.16 185.66 183.71 183.85 184C184.6 183.9 185.36 183.8 186.11 183.7C183.75 184 181.29 183.88 178.91 183.93C176.47 183.98 174.03 184.03 171.6 184.03C166.74 184.03 161.89 183.84 157.07 183.21C157.82 183.31 158.58 183.41 159.33 183.51C157.88 183.31 156.44 183.07 155 182.79C152.83 182.37 150.39 182.4 148.45 183.65C146.69 184.78 144.92 186.59 144.54 188.73C144.17 190.83 144.18 192.08 144.56 194.21C144.68 194.88 144.84 195.53 144.96 196.2C144.86 195.45 144.76 194.69 144.66 193.94C144.67 194.06 144.69 194.17 144.7 194.29C144.98 196.62 145.46 198.58 147.19 200.3C148.66 201.77 151.08 202.89 153.2 202.79C155.4 202.69 157.68 201.97 159.21 200.3C160.63 198.75 161.96 196.47 161.7 194.29C161.51 192.67 161.19 191.12 160.93 189.52C161.03 190.27 161.13 191.03 161.23 191.78C161.2 191.59 161.19 191.4 161.2 191.21C161.1 191.96 161 192.72 160.9 193.47C160.91 193.4 160.93 193.32 160.94 193.25C157.45 195.23 153.97 197.21 150.48 199.19C158.25 200.71 166.13 201.11 174.04 201.02C177.62 200.98 181.21 200.96 184.79 200.82C186.94 200.74 189.13 200.35 191.22 199.8C192.38 199.49 193.5 199.02 194.69 198.83C193.94 198.93 193.18 199.03 192.43 199.13C192.69 199.1 192.95 199.11 193.21 199.16C192.46 199.06 191.7 198.96 190.95 198.86C191.19 198.91 191.43 198.99 191.65 199.1C190.97 198.81 190.3 198.53 189.62 198.24C190.09 198.48 190.55 198.75 191.02 199C189.72 195.8 188.41 192.6 187.11 189.4C186.96 190.24 186.81 191.07 186.5 191.87C186.79 191.19 187.07 190.52 187.36 189.84C187.23 190.12 187.1 190.36 186.92 190.61C187.36 190.04 187.81 189.46 188.25 188.89C188.13 189.04 188 189.18 187.84 189.3C188.41 188.86 188.99 188.41 189.56 187.97C189.4 188.09 189.23 188.19 189.05 188.27C189.73 187.98 190.4 187.7 191.08 187.41C189.37 188.06 187.53 188.39 185.72 188.66C186.47 188.56 187.23 188.46 187.98 188.36C178.77 189.58 169.59 189.19 160.42 187.98C161.17 188.08 161.93 188.18 162.68 188.28C160.33 187.95 158.05 187.41 155.79 186.68C151.55 185.32 146.32 188.27 145.33 192.62C144.26 197.26 146.72 201.61 151.26 203.07Z" fill="white"/>
<path d="M155.58 200.81C158.36 200.06 161.3 200.28 164.17 200.51C169.2 200.91 174.24 201.31 179.27 201.73C182.79 202.02 187.4 202.94 190.7 204.18C190.62 205.37 189.42 205.63 188.42 206.63C187.53 207.52 186.42 207.63 185.42 208.63C184.55 209.5 182.64 210.48 181.42 210.63C179.08 210.92 176.76 211.34 174.42 211.63C173.51 211.74 170.34 211.66 169.42 211.63C167.4 211.57 165.31 210.35 163.42 209.63C162.45 209.26 161.39 208 160.42 207.63C159.85 207.41 158.92 205.98 158.42 205.63C157.91 205.27 158.21 204.66 157.8 204.18C156.99 203.22 155.98 202.51 155.17 201.55" fill="white"/>
<path d="M157.84 209.01C158.43 208.86 159.02 208.75 159.62 208.66C158.87 208.76 158.11 208.86 157.36 208.96C161.3 208.48 165.36 209.11 169.29 209.42C173.25 209.74 177.24 209.94 181.18 210.44C180.43 210.34 179.67 210.24 178.92 210.14C182.15 210.58 185.38 211.26 188.45 212.38C186.47 208.89 184.49 205.41 182.51 201.92C182.5 202.12 182.45 202.31 182.36 202.49C182.65 201.81 182.93 201.14 183.22 200.46C183.17 200.54 183.13 200.62 183.08 200.69C183.52 200.12 183.97 199.54 184.41 198.97C184.21 199.2 184.02 199.37 183.78 199.56C184.35 199.12 184.93 198.67 185.5 198.23C184.33 199.07 183.19 199.94 182.11 200.89C182.68 200.45 183.26 200 183.83 199.56C183.25 199.98 182.59 200.25 181.99 200.63C180.89 201.32 179.95 202.21 178.95 203.02C179.52 202.58 180.1 202.13 180.67 201.69C180.07 202.13 179.43 202.49 178.75 202.8C179.43 202.51 180.1 202.23 180.78 201.94C180.25 202.16 179.73 202.33 179.16 202.43C179.91 202.33 180.67 202.23 181.42 202.13C178.64 202.48 175.87 202.92 173.09 203.31C173.84 203.21 174.6 203.11 175.35 203.01C173.26 203.29 171.11 203.24 169.01 203.11C169.76 203.21 170.52 203.31 171.27 203.41C170.13 203.26 169.08 202.88 168.02 202.43C168.7 202.72 169.37 203 170.05 203.29C168.6 202.66 167.15 202.02 165.67 201.44C166.35 201.73 167.02 202.01 167.7 202.3C167.26 202.1 166.89 201.84 166.5 201.54C167.07 201.98 167.65 202.43 168.22 202.87C167.31 202.14 166.4 201.38 165.44 200.72C165.09 200.48 164.69 200.33 164.35 200.08C164.92 200.52 165.5 200.97 166.07 201.41C165.41 200.79 164.8 200.06 164.19 199.39C164.92 200.64 165.65 201.89 166.38 203.14C165.63 201.02 164.99 199.4 163.37 197.72C162.65 196.97 161.85 196.32 161.16 195.55C158.19 192.22 152.12 192.3 149.13 195.55C145.87 199.1 145.96 204.02 149.13 207.58C149.96 208.51 150.93 209.28 151.76 210.21C151.32 209.64 150.87 209.06 150.43 208.49C150.49 208.59 150.54 208.69 150.6 208.79C150.31 208.11 150.03 207.44 149.74 206.76C150.17 208.56 150.94 210.19 152.27 211.54C152.61 211.89 152.94 212.23 153.26 212.6C154.42 213.94 155.93 214.7 157.3 215.75C156.73 215.31 156.15 214.86 155.58 214.42C156.54 215.18 157.48 216.02 158.51 216.68C159.55 217.34 160.76 217.69 161.9 218.16C161.22 217.87 160.55 217.59 159.87 217.3C161.97 218.2 164.06 219.32 166.32 219.77C168.14 220.13 169.91 220.18 171.74 220.21C175.44 220.25 179.07 219.49 182.72 218.98C181.97 219.08 181.21 219.18 180.46 219.28C183.19 218.91 184.98 218.62 187.47 217.43C189.06 216.67 190.44 215.54 191.74 214.37C191.17 214.81 190.59 215.26 190.02 215.7C190.61 215.27 191.27 214.98 191.89 214.6C193.01 213.92 193.95 213.01 194.96 212.19C194.39 212.63 193.81 213.08 193.24 213.52C195.72 211.7 198.34 209.77 198.87 206.47C199.23 204.24 199.3 201.92 198.01 199.92C196.75 197.97 195.11 196.81 192.93 196.01C186.91 193.81 180.46 193.35 174.12 192.84C170.87 192.58 167.62 192.32 164.38 192.06C160.63 191.76 156.97 191.72 153.28 192.64C148.96 193.72 145.95 198.8 147.34 203.1C148.82 207.54 153.21 210.17 157.84 209.01Z" fill="white"/>
<path d="M164.71 580.48H107.46V432.61C107.46 416.8 120.28 403.99 136.08 403.99C151.89 403.99 164.7 416.81 164.7 432.61V580.48H164.71Z" fill="white" stroke="white" stroke-width="5.6693" stroke-miterlimit="10" stroke-linecap="round" stroke-linejoin="round"/>
<path d="M240.38 580.48H183.13V432.61C183.13 416.8 195.95 403.99 211.75 403.99C227.56 403.99 240.37 416.81 240.37 432.61V580.48H240.38Z" fill="white" stroke="white" stroke-width="5.6693" stroke-miterlimit="10" stroke-linecap="round" stroke-linejoin="round"/>
<path d="M100.23 578.64C100.23 578.64 116.17 553.6 133.21 554.21C150.25 554.82 166.19 575.58 166.74 578.64C167.29 581.7 167.29 585.97 165.09 587.8C162.89 589.63 105.17 590.24 102.97 588.41C100.78 586.58 98.03 586.58 100.23 578.64Z" fill="white" stroke="white" stroke-width="5.6693" stroke-miterlimit="10" stroke-linecap="round" stroke-linejoin="round"/>
<path d="M180.97 578.64C180.97 578.64 196.35 553.6 212.78 554.21C229.21 554.82 244.59 575.58 245.12 578.64C245.65 581.69 245.65 585.97 243.53 587.8C241.41 589.63 185.74 590.24 183.62 588.41C181.5 586.58 178.85 586.58 180.97 578.64Z" fill="white" stroke="white" stroke-width="5.6693" stroke-miterlimit="10" stroke-linecap="round" stroke-linejoin="round"/>
<path d="M77.4659 645.992H85.8359V592.632H77.4659V645.992Z" fill="white" stroke="white" stroke-width="5.6693" stroke-miterlimit="10" stroke-linecap="round" stroke-linejoin="round"/>
<path d="M85.84 640.13H73.28V648.5H85.84V640.13Z" fill="white" stroke="white" stroke-width="5.6693" stroke-miterlimit="10" stroke-linecap="round" stroke-linejoin="round"/>
<path d="M68.71 682.12H62.55C60.03 682.12 57.98 680.07 57.98 677.55V613.84C57.98 611.32 60.03 609.27 62.55 609.27H68.71C71.23 609.27 73.28 611.32 73.28 613.84V677.55C73.28 680.07 71.23 682.12 68.71 682.12Z" fill="white" stroke="white" stroke-width="5.6693" stroke-miterlimit="10" stroke-linecap="round" stroke-linejoin="round"/>
<path d="M57.98 672.49H56.37C55.05 672.49 53.99 671.42 53.99 670.11V621.28C53.99 619.96 55.06 618.9 56.37 618.9H57.98V672.49Z" fill="white" stroke="white" stroke-width="5.6693" stroke-miterlimit="10" stroke-linecap="round" stroke-linejoin="round"/>
<path d="M271.36 587.63H262.99V640.99H271.36V587.63Z" fill="white" stroke="white" stroke-width="5.6693" stroke-miterlimit="10" stroke-linecap="round" stroke-linejoin="round"/>
<path d="M262.99 643.507L275.55 643.507L275.55 635.137L262.99 635.137L262.99 643.507Z" fill="white" stroke="white" stroke-width="5.6693" stroke-miterlimit="10" stroke-linecap="round" stroke-linejoin="round"/>
<path d="M280.12 677.12H286.28C288.8 677.12 290.85 675.07 290.85 672.55V608.84C290.85 606.32 288.8 604.27 286.28 604.27H280.12C277.6 604.27 275.55 606.32 275.55 608.84V672.55C275.55 675.07 277.6 677.12 280.12 677.12Z" fill="white" stroke="white" stroke-width="5.6693" stroke-miterlimit="10" stroke-linecap="round" stroke-linejoin="round"/>
<path d="M290.85 667.49H292.46C293.78 667.49 294.84 666.42 294.84 665.11V616.28C294.84 614.96 293.77 613.9 292.46 613.9H290.85V667.49Z" fill="white" stroke="white" stroke-width="5.6693" stroke-miterlimit="10" stroke-linecap="round" stroke-linejoin="round"/>
<path d="M119.61 208.73C120.32 209.53 113.43 214.5 103.12 219.75C92.81 225 83.13 228.43 82.42 227.63C81.71 226.83 90.12 220.87 100.42 215.63C110.72 210.39 118.9 207.93 119.61 208.73Z" fill="white" stroke="white" stroke-width="5.6693" stroke-miterlimit="10" stroke-linecap="round" stroke-linejoin="round"/>
<path d="M121.42 217.63C121.42 217.63 57.42 75.6301 62.01 62.7701C63.58 58.3901 71.2 38.5901 69.98 35.5101C68.76 32.4201 59.87 25.8801 59.42 23.8101C58.97 21.7401 53.91 6.5301 51.65 5.1401C49.39 3.7501 45.81 1.7101 42.98 3.5901C40.15 5.4701 37.41 9.6701 37.41 9.6701C37.41 9.6701 32.26 8.8001 29.63 9.9101C27 11.0201 25.14 15.7201 25.14 15.7201C25.14 15.7201 19.34 14.5601 15.5 17.0301C11.66 19.5001 12.53 23.1501 12.53 23.1501C12.53 23.1501 8.44 22.2001 5.57 24.3301C2.7 26.4601 2.4 33.2901 3.27 36.9401C4.14 40.5901 7.32 51.9001 9.45 54.7701C11.58 57.6401 22.37 66.2501 29.55 70.2401C37.43 74.6201 88.43 233.62 88.43 233.62L121.42 217.63Z" fill="white" stroke="white" stroke-width="5.6693" stroke-miterlimit="10" stroke-linecap="round" stroke-linejoin="round"/>
<path d="M39 69.4403C39 69.4403 35.71 57.6803 38.49 53.1603C41.27 48.6403 46.33 43.5703 46.33 43.5703C46.33 43.5703 42.23 44.5003 37.77 41.0003C33.31 37.5003 32.44 33.8503 32.57 32.3703C32.7 30.8903 39.31 30.2803 43.77 28.7303C48.23 27.1803 56.12 23.8503 57.14 24.0903C58.16 24.3303 59.44 23.7903 59.44 23.7903C59.44 23.7903 53.42 7.01029 52.2 5.68029C50.98 4.34029 49.73 4.05029 49.73 4.05029C49.73 4.05029 51.42 6.17029 52.96 10.6303C54.5 15.0903 57.27 22.6303 57.27 22.6303L42.88 27.0303L37.41 9.68029L34.56 9.39029L40.36 27.9503C40.36 27.9503 35.81 27.7503 33.29 29.3103C30.77 30.8703 30.22 32.7103 30.22 32.7103L23.68 15.5403L21.09 15.4803C21.09 15.4803 22.37 17.9203 24.9 26.4903C27.43 35.0603 32.36 41.6003 32.56 44.4503C32.76 47.3003 29.78 48.9703 27.04 49.6303C24.3 50.2903 20.58 46.8303 20.58 46.8303L11.88 23.0703L9.91 22.9803C9.91 22.9803 18.77 45.3303 18.86 47.7203C18.95 50.1103 17.69 50.8903 15.4 51.4403C13.12 51.9803 9.05 49.4703 8.12 45.4003C7.2 41.3303 2.84 32.3003 2.84 32.3003C2.84 32.3003 5.96 47.9103 7.04 49.5803C8.12 51.2503 9.12 53.4203 12.64 54.0303C16.16 54.6403 24.22 54.8003 27.26 54.0003C30.3 53.2003 35.78 51.8903 35.78 51.8903C35.78 51.8903 34.77 56.4903 35.78 60.3403C36.78 64.1803 39 69.4403 39 69.4403Z" fill="white" stroke="white" stroke-width="5.6693" stroke-miterlimit="10" stroke-linecap="round" stroke-linejoin="round"/>
<path d="M124.42 297.63C118.09 297.63 82.53 227.34 82.53 227.34L119.48 208.6L132.48 241.32C132.48 241.32 125.42 297.63 124.42 297.63Z" fill="white" stroke="white" stroke-width="5.6693" stroke-miterlimit="10" stroke-linecap="round" stroke-linejoin="round"/>
<path d="M228.71 208.73C228 209.53 234.89 214.5 245.2 219.75C255.51 225 265.19 228.43 265.9 227.63C266.61 226.83 258.2 220.87 247.9 215.63C237.59 210.38 229.41 207.93 228.71 208.73Z" fill="white" stroke="white" stroke-width="5.6693" stroke-miterlimit="10" stroke-linecap="round" stroke-linejoin="round"/>
<path d="M226.89 217.63C226.89 217.63 290.89 75.6299 286.3 62.7699C284.73 58.3899 277.11 38.5899 278.33 35.5099C279.55 32.4199 288.44 25.8799 288.89 23.8099C289.34 21.7399 294.41 6.53986 296.67 5.14986C298.93 3.75986 302.51 1.71986 305.34 3.59986C308.17 5.47986 310.91 9.67986 310.91 9.67986C310.91 9.67986 316.06 8.80986 318.69 9.91986C321.32 11.0299 323.18 15.7299 323.18 15.7299C323.18 15.7299 328.98 14.5699 332.82 17.0399C336.66 19.5099 335.79 23.1599 335.79 23.1599C335.79 23.1599 339.88 22.2099 342.75 24.3399C345.62 26.4699 345.92 33.2999 345.05 36.9499C344.18 40.5999 341 51.9099 338.87 54.7799C336.74 57.6499 325.95 66.2599 318.77 70.2499C310.89 74.6299 259.89 233.63 259.89 233.63L226.89 217.63Z" fill="white" stroke="white" stroke-width="5.6693" stroke-miterlimit="10" stroke-linecap="round" stroke-linejoin="round"/>
<path d="M309.32 69.44C309.32 69.44 312.61 57.68 309.83 53.16C307.05 48.64 301.99 43.57 301.99 43.57C301.99 43.57 306.1 44.51 310.56 41.01C315.02 37.51 315.89 33.86 315.76 32.38C315.63 30.9 309.02 30.29 304.56 28.74C300.1 27.19 292.21 23.86 291.19 24.1C290.17 24.34 288.89 23.8 288.89 23.8C288.89 23.8 294.9 7.01004 296.12 5.67004C297.34 4.33004 298.59 4.04004 298.59 4.04004C298.59 4.04004 296.9 6.16004 295.36 10.62C293.81 15.08 291.05 22.62 291.05 22.62L305.44 27.02L310.91 9.68004L313.76 9.39004L307.96 27.95C307.96 27.95 312.51 27.75 315.03 29.31C317.55 30.87 318.1 32.71 318.1 32.71L324.64 15.54L327.23 15.48C327.23 15.48 325.95 17.92 323.42 26.49C320.89 35.06 315.96 41.6 315.76 44.45C315.56 47.3 318.54 48.97 321.28 49.63C324.02 50.28 327.74 46.83 327.74 46.83L336.44 23.07L338.41 22.98C338.41 22.98 329.55 45.33 329.46 47.72C329.37 50.11 330.63 50.89 332.92 51.44C335.2 51.98 339.27 49.47 340.2 45.4C341.13 41.33 345.48 32.3 345.48 32.3C345.48 32.3 342.36 47.91 341.28 49.58C340.2 51.25 339.2 53.42 335.68 54.03C332.16 54.64 324.1 54.8 321.06 54C318.02 53.2 312.54 51.89 312.54 51.89C312.54 51.89 313.55 56.49 312.54 60.34C311.53 64.19 309.32 69.44 309.32 69.44Z" fill="white" stroke="white" stroke-width="5.6693" stroke-miterlimit="10" stroke-linecap="round" stroke-linejoin="round"/>
<path d="M223.89 297.63C230.22 297.63 265.78 227.34 265.78 227.34L228.83 208.6L215.83 241.32C215.83 241.32 222.89 297.63 223.89 297.63Z" fill="white" stroke="white" stroke-width="5.6693" stroke-miterlimit="10" stroke-linecap="round" stroke-linejoin="round"/>
<path d="M152.21 189.67C152.21 189.67 165.37 192.2 174.58 192.2C183.79 192.2 194.98 190.51 194.98 190.51C194.98 190.51 196.3 210.76 174.58 211.61C152.86 212.46 152.21 189.67 152.21 189.67Z" fill="white" stroke="white" stroke-width="5.6693" stroke-miterlimit="10" stroke-linecap="round" stroke-linejoin="round"/>
<path d="M245.19 483.43H108.18C91.48 483.43 77.95 469.89 77.95 453.2V276.36C77.95 259.66 91.49 246.13 108.18 246.13H245.19C261.89 246.13 275.42 259.67 275.42 276.36V453.2C275.42 469.89 261.89 483.43 245.19 483.43Z" fill="#1A1A1A"/>
<path d="M240.5 488.43H107.66C90.96 488.43 77.43 474.89 77.43 458.2V281.36C77.43 264.66 90.97 251.13 107.66 251.13H240.5C257.2 251.13 270.73 264.67 270.73 281.36V458.2C270.73 474.89 257.2 488.43 240.5 488.43Z" fill="#333333"/>
<path d="M124.42 299.63L132.42 243.63L148.26 240.36C148.26 240.36 149.75 238.63 175.42 238.63C193.19 238.63 198.27 240.36 200.24 240.36L216.42 243.63L224.59 298.92C224.59 298.92 223.27 404.86 219.98 410.78C213.07 423.22 123.91 408.15 123.91 408.15L124.57 299.58" fill="#2E3192"/>
<path d="M124.92 294.63L132.43 243.68L148.27 240.41C148.27 240.41 149.76 238.68 175.43 238.68C193.2 238.68 198.28 240.41 200.25 240.41L216.43 243.68L224.92 294.63" fill="#A9D0FF"/>
<path d="M221.95 410.15H123.91V464.11H221.95V410.15Z" fill="#36525E"/>
<path d="M261.77 490.98H85.42C77.97 490.98 71.93 484.94 71.93 477.49C71.93 470.04 77.97 464 85.42 464H261.77C269.22 464 275.26 470.04 275.26 477.49C275.26 484.94 269.22 490.98 261.77 490.98Z" fill="#545454"/>
<path d="M79.83 403.55H67.33V588.59H79.83V403.55Z" fill="#A5A0A3"/>
<path d="M280.52 403.55H268.02V588.59H280.52V403.55Z" fill="#A5A0A3"/>
<path d="M87.43 403.63H56.51C50.33 403.63 45.32 398.62 45.32 392.44V391.36C45.32 385.18 50.33 380.17 56.51 380.17H87.44C93.62 380.17 98.63 385.18 98.63 391.36V392.44C98.62 398.62 93.61 403.63 87.43 403.63Z" fill="#CCC9CD"/>
<path d="M291.31 403.63H260.38C254.2 403.63 249.19 398.62 249.19 392.44V390.36C249.19 384.18 254.2 379.17 260.38 379.17H291.31C297.49 379.17 302.5 384.18 302.5 390.36V392.44C302.5 398.62 297.49 403.63 291.31 403.63Z" fill="#CCC9CD"/>
<path d="M157 602.63H76.35C70.27 602.63 65.35 597.71 65.35 591.63V588.58H168V591.63C168 597.7 163.08 602.63 157 602.63Z" fill="#A5A0A3"/>
<path d="M270.84 602.63H190.19C184.11 602.63 179.19 597.71 179.19 591.63V588.58H281.84V591.63C281.84 597.7 276.91 602.63 270.84 602.63Z" fill="#A5A0A3"/>
<path d="M67.33 537.12H56.14V551.6H67.33V537.12Z" fill="#787878"/>
<path d="M291.71 537.12H280.52V551.6H291.71V537.12Z" fill="#787878"/>
<path d="M43.97 667.41C37.25 667.41 31.8 661.96 31.8 655.24V434.8C31.8 428.08 37.25 422.63 43.97 422.63C50.69 422.63 56.14 428.08 56.14 434.8V655.23C56.14 661.96 50.69 667.41 43.97 667.41Z" fill="#1D1D1B" stroke="black" stroke-miterlimit="10"/>
<path d="M31.79 640.43H28.95C23.98 640.43 19.95 636.4 19.95 631.43V458.61C19.95 453.64 23.98 449.61 28.95 449.61H31.79V640.43Z" fill="#BCB9BB"/>
<path d="M303.88 667.41C297.16 667.41 291.71 661.96 291.71 655.24V434.8C291.71 428.08 297.16 422.63 303.88 422.63C310.6 422.63 316.05 428.08 316.05 434.8V655.23C316.06 661.96 310.61 667.41 303.88 667.41Z" fill="#1D1D1B" stroke="black" stroke-miterlimit="10"/>
<path d="M316.06 637.14H318.9C323.87 637.14 327.9 633.11 327.9 628.14V455.32C327.9 450.35 323.87 446.32 318.9 446.32H316.06V637.14Z" fill="#BCB9BB"/>
<path d="M164.71 582.48H107.46V434.61C107.46 418.8 120.28 405.99 136.08 405.99C151.89 405.99 164.7 418.81 164.7 434.61V582.48H164.71Z" fill="#56869B"/>
<path d="M240.38 582.48H183.13V434.61C183.13 418.8 195.95 405.99 211.75 405.99C227.56 405.99 240.37 418.81 240.37 434.61V582.48H240.38Z" fill="#56869B"/>
<path d="M100.23 580.64C100.23 580.64 116.17 555.6 133.21 556.21C150.25 556.82 166.19 577.58 166.74 580.64C167.29 583.7 167.29 587.97 165.09 589.8C162.89 591.63 105.17 592.24 102.97 590.41C100.78 588.58 98.03 588.58 100.23 580.64Z" fill="#1B1464"/>
<path d="M180.97 580.64C180.97 580.64 196.35 555.6 212.78 556.21C229.21 556.82 244.59 577.58 245.12 580.64C245.65 583.69 245.65 587.97 243.53 589.8C241.41 591.63 185.74 592.24 183.62 590.41C181.5 588.58 178.85 588.58 180.97 580.64Z" fill="#1B1464"/>
<path d="M77.4659 647.992H85.8359V594.632H77.4659V647.992Z" fill="#A5A0A3"/>
<path d="M85.84 642.13H73.28V650.5H85.84V642.13Z" fill="#A5A0A3"/>
<path d="M68.71 684.12H62.55C60.03 684.12 57.98 682.07 57.98 679.55V615.84C57.98 613.32 60.03 611.27 62.55 611.27H68.71C71.23 611.27 73.28 613.32 73.28 615.84V679.55C73.28 682.07 71.23 684.12 68.71 684.12Z" fill="#1D1D1B" stroke="black" stroke-miterlimit="10"/>
<path d="M57.98 674.49H56.37C55.05 674.49 53.99 673.42 53.99 672.11V623.28C53.99 621.96 55.06 620.9 56.37 620.9H57.98V674.49Z" fill="#BCB9BB"/>
<path d="M271.36 589.63H262.99V642.99H271.36V589.63Z" fill="#A5A0A3"/>
<path d="M262.99 645.507L275.55 645.507L275.55 637.137L262.99 637.137L262.99 645.507Z" fill="#A5A0A3"/>
<path d="M280.12 679.12H286.28C288.8 679.12 290.85 677.07 290.85 674.55V610.84C290.85 608.32 288.8 606.27 286.28 606.27H280.12C277.6 606.27 275.55 608.32 275.55 610.84V674.55C275.55 677.07 277.6 679.12 280.12 679.12Z" fill="#1D1D1B" stroke="black" stroke-miterlimit="10"/>
<path d="M290.85 669.49H292.46C293.78 669.49 294.84 668.42 294.84 667.11V618.28C294.84 616.96 293.77 615.9 292.46 615.9H290.85V669.49Z" fill="#BCB9BB"/>
<path d="M119.61 210.73C120.32 211.53 113.43 216.5 103.12 221.75C92.81 227 83.13 230.43 82.42 229.63C81.71 228.83 90.12 222.87 100.42 217.63C110.72 212.39 118.9 209.93 119.61 210.73Z" fill="#1B1464"/>
<path d="M121.42 219.63C121.42 219.63 57.42 77.6301 62.01 64.7701C63.58 60.3901 71.2 40.5901 69.98 37.5101C68.76 34.4201 59.87 27.8801 59.42 25.8101C58.97 23.7401 53.91 8.5301 51.65 7.1401C49.39 5.7501 45.81 3.7101 42.98 5.5901C40.15 7.4701 37.41 11.6701 37.41 11.6701C37.41 11.6701 32.26 10.8001 29.63 11.9101C27 13.0201 25.14 17.7201 25.14 17.7201C25.14 17.7201 19.34 16.5601 15.5 19.0301C11.66 21.5001 12.53 25.1501 12.53 25.1501C12.53 25.1501 8.44 24.2001 5.57 26.3301C2.7 28.4601 2.4 35.2901 3.27 38.9401C4.14 42.5901 7.32 53.9001 9.45 56.7701C11.58 59.6401 22.37 68.2501 29.55 72.2401C37.43 76.6201 88.43 235.62 88.43 235.62L121.42 219.63Z" fill="#EFCAA6"/>
<path d="M39 71.4403C39 71.4403 35.71 59.6803 38.49 55.1603C41.27 50.6403 46.33 45.5703 46.33 45.5703C46.33 45.5703 42.23 46.5003 37.77 43.0003C33.31 39.5003 32.44 35.8503 32.57 34.3703C32.7 32.8903 39.31 32.2803 43.77 30.7303C48.23 29.1803 56.12 25.8503 57.14 26.0903C58.16 26.3303 59.44 25.7903 59.44 25.7903C59.44 25.7903 53.42 9.01029 52.2 7.68029C50.98 6.34029 49.73 6.05029 49.73 6.05029C49.73 6.05029 51.42 8.17029 52.96 12.6303C54.5 17.0903 57.27 24.6303 57.27 24.6303L42.88 29.0303L37.41 11.6903L34.56 11.4003L40.36 29.9603C40.36 29.9603 35.81 29.7603 33.29 31.3203C30.77 32.8903 30.22 34.7203 30.22 34.7203L23.68 17.5503L21.09 17.4903C21.09 17.4903 22.37 19.9303 24.9 28.5003C27.43 37.0703 32.36 43.6103 32.56 46.4603C32.76 49.3103 29.78 50.9803 27.04 51.6403C24.3 52.3003 20.58 48.8403 20.58 48.8403L11.88 25.0803L9.91 24.9903C9.91 24.9903 18.77 47.3403 18.86 49.7303C18.95 52.1203 17.69 52.9003 15.4 53.4503C13.12 53.9903 9.05 51.4803 8.12 47.4103C7.2 43.3403 2.84 34.3103 2.84 34.3103C2.84 34.3103 5.96 49.9203 7.04 51.5903C8.12 53.2603 9.12 55.4303 12.64 56.0403C16.16 56.6503 24.22 56.8103 27.26 56.0103C30.3 55.2103 35.78 53.9003 35.78 53.9003C35.78 53.9003 34.77 58.5003 35.78 62.3503C36.78 66.1803 39 71.4403 39 71.4403Z" fill="#E3BB94"/>
<path d="M124.42 299.63C118.09 299.63 82.53 229.34 82.53 229.34L119.48 210.6L132.48 243.32C132.48 243.32 125.42 299.63 124.42 299.63Z" fill="#2E3192"/>
<path d="M228.71 210.73C228 211.53 234.89 216.5 245.2 221.75C255.51 227 265.19 230.43 265.9 229.63C266.61 228.83 258.2 222.87 247.9 217.63C237.59 212.38 229.41 209.93 228.71 210.73Z" fill="#1B1464"/>
<path d="M226.89 219.63C226.89 219.63 290.89 77.6299 286.3 64.7699C284.73 60.3899 277.11 40.5899 278.33 37.5099C279.55 34.4199 288.44 27.8799 288.89 25.8099C289.34 23.7399 294.41 8.53986 296.67 7.14986C298.93 5.75986 302.51 3.71986 305.34 5.59986C308.17 7.47986 310.91 11.6799 310.91 11.6799C310.91 11.6799 316.06 10.8099 318.69 11.9199C321.32 13.0299 323.18 17.7299 323.18 17.7299C323.18 17.7299 328.98 16.5699 332.82 19.0399C336.66 21.5099 335.79 25.1599 335.79 25.1599C335.79 25.1599 339.88 24.2099 342.75 26.3399C345.62 28.4699 345.92 35.2999 345.05 38.9499C344.18 42.5999 341 53.9099 338.87 56.7799C336.74 59.6499 325.95 68.2599 318.77 72.2499C310.89 76.6299 259.89 235.63 259.89 235.63L226.89 219.63Z" fill="#EFCAA6"/>
<path d="M309.32 71.44C309.32 71.44 312.61 59.68 309.83 55.16C307.05 50.64 301.99 45.57 301.99 45.57C301.99 45.57 306.1 46.51 310.56 43.01C315.02 39.51 315.89 35.86 315.76 34.38C315.63 32.9 309.02 32.29 304.56 30.74C300.1 29.19 292.21 25.86 291.19 26.1C290.17 26.34 288.89 25.8 288.89 25.8C288.89 25.8 294.9 9.01004 296.12 7.67004C297.34 6.33004 298.59 6.04004 298.59 6.04004C298.59 6.04004 296.9 8.16004 295.36 12.62C293.81 17.08 291.05 24.62 291.05 24.62L305.44 29.02L310.91 11.68L313.76 11.39L307.96 29.95C307.96 29.95 312.51 29.75 315.03 31.31C317.55 32.88 318.1 34.71 318.1 34.71L324.64 17.54L327.23 17.48C327.23 17.48 325.95 19.92 323.42 28.49C320.89 37.06 315.96 43.6 315.76 46.45C315.56 49.3 318.54 50.97 321.28 51.63C324.02 52.28 327.74 48.83 327.74 48.83L336.44 25.07L338.41 24.98C338.41 24.98 329.55 47.33 329.46 49.72C329.37 52.11 330.63 52.89 332.92 53.44C335.2 53.98 339.27 51.47 340.2 47.4C341.13 43.33 345.48 34.3 345.48 34.3C345.48 34.3 342.36 49.91 341.28 51.58C340.2 53.25 339.2 55.42 335.68 56.03C332.16 56.64 324.1 56.8 321.06 56C318.02 55.2 312.54 53.89 312.54 53.89C312.54 53.89 313.55 58.49 312.54 62.34C311.53 66.19 309.32 71.44 309.32 71.44Z" fill="#E3BB94"/>
<path d="M223.89 299.63C230.22 299.63 265.78 229.34 265.78 229.34L228.83 210.6L215.83 243.32C215.83 243.32 222.89 299.63 223.89 299.63Z" fill="#2E3192"/>
<path d="M114.7 153.5C114.7 153.5 108.78 148.24 106.15 149.55C103.52 150.87 97.6 158.1 100.23 166.66C102.86 175.22 118 187.06 118 187.06L114.7 153.5Z" fill="#E3BB94"/>
<path d="M229.2 184.43C229.2 184.43 231.83 187.72 239.07 179.82C246.31 171.92 246.31 162.05 245.65 158.76C244.99 155.47 241.7 148.23 234.46 147.57C227.22 146.92 229.2 184.43 229.2 184.43Z" fill="#E3BB94"/>
<path d="M193.66 217.331C193.66 217.331 191.03 237.731 193.66 239.041C196.29 240.361 200.6 240.241 200.42 241.631C200.21 243.241 194.42 252.631 175.89 253.521C158.4 254.361 147.25 243.361 148.42 241.631C149.58 239.901 153.63 240.561 156.15 239.041C159.44 237.071 156.81 217.331 156.81 217.331H193.66Z" fill="#E3BB94"/>
<path d="M237.09 134.42C237.09 134.42 233.14 173.9 229.19 184.43C225.24 194.96 214.71 217.33 194.97 223.25C175.23 229.17 157.46 225.22 147.59 221.93C137.72 218.64 119.3 193.64 117.98 187.06C116.66 180.48 110.74 160.74 113.37 136.39C116 112.04 131.14 92.9602 131.14 92.9602L193.65 84.4102L229.84 104.81L237.09 134.42Z" fill="#EFCAA6"/>
<path d="M131.87 140.16C133.11 138.81 134.6 137.66 136.21 136.68L137.45 135.99L138.74 135.37L140.08 134.85L141.45 134.4C141.91 134.27 142.38 134.13 142.85 133.97L144.28 133.56C144.76 133.47 145.25 133.38 145.74 133.37C146.23 133.37 146.72 133.43 147.21 133.52C149.13 133.98 151.03 134.91 152.35 136.89L152.2 137.44C150.12 138.5 148.52 138.9 146.94 139.18C146.15 139.32 145.39 139.31 144.6 139.16L143.4 138.96C143 138.91 142.59 138.89 142.18 138.88L140.96 138.91L139.73 139.01L138.49 139.13L137.24 139.32C135.57 139.59 133.9 140.05 132.2 140.63L131.87 140.16Z" fill="#844D20"/>
<path d="M212.63 140.63C210.93 140.05 209.27 139.59 207.59 139.32L206.34 139.13L205.1 139.01L203.87 138.91L202.65 138.88C202.24 138.9 201.84 138.92 201.43 138.96L200.23 139.16C199.44 139.31 198.68 139.32 197.89 139.18C196.3 138.89 194.7 138.5 192.63 137.44L192.48 136.89C193.8 134.91 195.69 133.98 197.62 133.52C198.1 133.43 198.6 133.37 199.09 133.37C199.58 133.38 200.07 133.47 200.55 133.56L201.98 133.97C202.45 134.13 202.91 134.27 203.38 134.4L204.75 134.85L206.09 135.37L207.38 135.99L208.62 136.68C210.23 137.67 211.71 138.81 212.96 140.16L212.63 140.63Z" fill="#844D20"/>
<path d="M151.58 157.78C151.58 162.69 148.63 154.66 145 154.66C141.37 154.66 138.42 162.68 138.42 157.78C138.42 152.88 141.37 148.9 145 148.9C148.63 148.9 151.58 152.87 151.58 157.78Z" fill="#461A00"/>
<path d="M206.14 158.441C206.14 163.351 203.19 155.321 199.56 155.321C195.93 155.321 192.98 163.341 192.98 158.441C192.98 153.541 195.93 149.561 199.56 149.561C203.19 149.561 206.14 153.531 206.14 158.441Z" fill="#461A00"/>
<path d="M171.54 181.161C170.54 181.591 169.29 181.531 168.17 181.081C167.16 180.451 166.33 179.521 165.9 178.371C165.46 177.211 165.51 175.981 165.78 174.871C166.05 173.761 166.56 172.741 167.13 171.821C167.7 170.901 168.33 170.051 168.9 169.201C169.46 168.361 169.97 167.481 170.44 166.571C170.9 165.661 171.32 164.731 171.68 163.781C172.25 162.901 172.76 161.991 173.32 161.061C173.31 162.141 173.19 163.211 173 164.291C172.62 165.291 172.18 166.261 171.7 167.221C171.21 168.171 170.67 169.101 170.08 169.991C169.49 170.881 168.87 171.711 168.34 172.561C167.81 173.411 167.38 174.291 167.16 175.211C166.94 176.121 166.92 177.071 167.23 177.881C167.53 178.691 168.15 179.421 168.92 179.871C169.58 180.511 170.47 181.001 171.54 181.161Z" fill="#8C6239"/>
<path d="M235.12 157.45C235.12 157.45 218.01 116.65 216.04 108.1C214.07 99.5503 207.49 119.94 164.71 122.58C121.93 125.22 116.02 127.84 116.02 127.84L113.06 157.78C113.06 157.78 100.23 138.37 102.86 102.18C105.49 65.9903 117.99 77.8303 117.99 77.8303C117.99 77.8303 111.41 62.7003 122.6 60.0603C133.79 57.4203 158.13 55.4503 164.05 57.4303C169.97 59.4003 181.16 64.0103 181.16 64.0103C181.16 64.0103 181.16 54.1403 193.66 58.7503C206.16 63.3603 227.88 62.7003 235.11 85.7303C242.34 108.76 241.04 150.87 235.12 157.45Z" fill="#844D20"/>
<path opacity="0.1" d="M157.59 225.2C157.59 225.2 179.19 229.17 192.56 223.93C194.9 223.01 189.06 233.12 174.59 232.46C160.11 231.8 157.59 225.2 157.59 225.2Z" fill="#844D20"/>
<path d="M153.52 196.87C157.8 198.26 160.19 198.47 164.38 198.92C166.28 199.12 169.71 199.51 171.62 199.58C176.87 199.75 181.36 199.59 187.41 198.92C188.96 198.75 191.89 198.19 193.33 197.6C194.77 197.02 195.02 195.18 195.3 193.65C194.29 193.14 193.54 192.49 192.41 192.63C191.5 192.74 189.61 193.45 188.72 193.65C187.38 193.95 186.14 194.29 184.77 194.31C174 194.48 163.29 195.1 152.73 192.99C152.53 193.66 153.09 195.16 153.19 196.29" fill="white"/>
<path d="M155.58 202.81C158.36 202.06 161.3 202.28 164.17 202.51C169.2 202.91 174.24 203.31 179.27 203.73C182.79 204.02 187.4 204.94 190.7 206.18C190.62 207.37 189.42 207.63 188.42 208.63C187.53 209.52 186.42 209.63 185.42 210.63C184.55 211.5 182.64 212.48 181.42 212.63C179.08 212.92 176.76 213.34 174.42 213.63C173.51 213.74 170.34 213.66 169.42 213.63C167.4 213.57 165.31 212.35 163.42 211.63C162.45 211.26 161.39 210 160.42 209.63C159.85 209.41 158.92 207.98 158.42 207.63C157.91 207.27 158.21 206.66 157.8 206.18C156.99 205.22 155.98 204.51 155.17 203.55" fill="#D86755"/>
<path d="M152.21 191.67C152.21 191.67 165.37 194.2 174.58 194.2C183.79 194.2 194.98 192.51 194.98 192.51C194.98 192.51 196.3 212.76 174.58 213.61C152.86 214.46 152.21 191.67 152.21 191.67Z" stroke="#A67C52" stroke-miterlimit="10"/>
<path d="M133.92 243.63L129.82 236.63L113.92 286.63C113.92 286.63 122.82 301.55 124.42 299.63C126.92 296.63 133.92 243.63 133.92 243.63Z" fill="#A9D0FF"/>
<path d="M215.92 243.63L220.02 233.63L235.92 283.63C235.92 283.63 226.69 300.4 224.92 298.63C218.92 292.63 215.92 243.63 215.92 243.63Z" fill="#A9D0FF"/>
<path d="M127.38 231.35L111.24 281.03" stroke="#A9D0FF" stroke-width="2.8346" stroke-miterlimit="10" stroke-linecap="round" stroke-linejoin="round"/>
<path d="M222.24 227.35L238.92 279.63" stroke="#A9D0FF" stroke-width="2.8346" stroke-miterlimit="10" stroke-linecap="round" stroke-linejoin="round"/>
<g opacity="0.3">
<path opacity="0.3" d="M124.42 299.63C124.47 297.42 124.66 295.23 124.9 293.04C125.13 290.86 125.44 288.68 125.77 286.52C126.12 284.36 126.5 282.19 126.95 280.04C127.4 277.89 127.89 275.75 128.52 273.63C128.47 275.84 128.28 278.03 128.04 280.22C127.81 282.4 127.5 284.58 127.16 286.74C126.8 288.9 126.43 291.07 125.98 293.22C125.55 295.37 125.06 297.51 124.42 299.63Z" fill="#293084"/>
</g>
<g opacity="0.3">
<path opacity="0.3" d="M224.59 298.92C223.92 296.86 223.39 294.78 222.91 292.69C222.42 290.6 222.01 288.5 221.62 286.39C221.25 284.28 220.9 282.16 220.64 280.03C220.36 277.9 220.14 275.76 220.05 273.6C220.72 275.66 221.25 277.74 221.73 279.83C222.22 281.92 222.63 284.02 223.02 286.13C223.38 288.24 223.73 290.36 224 292.49C224.27 294.62 224.5 296.76 224.59 298.92Z" fill="#293084"/>
</g>
<path d="M124.42 297.63H223.92" stroke="#A9D0FF" stroke-width="2.8346" stroke-miterlimit="10" stroke-linecap="square" stroke-linejoin="round"/>
</g>
<defs>
<clipPath id="clip0">
<rect width="348.32" height="684.95" fill="white"/>
</clipPath>
</defs>
</svg>
