<svg width="351" height="664" viewBox="0 0 351 664" fill="none" xmlns="http://www.w3.org/2000/svg">
<ellipse cx="175.038" cy="616.874" rx="175.038" ry="46.7096" fill="black" fill-opacity="0.1"/>
<path d="M250.08 429.804H113.07C96.3698 429.804 82.8398 416.264 82.8398 399.574V222.734C82.8398 206.034 96.3798 192.504 113.07 192.504H250.08C266.78 192.504 280.31 206.044 280.31 222.734V399.564C280.31 416.264 266.77 429.804 250.08 429.804Z" fill="white" stroke="white" stroke-width="5.6693" stroke-miterlimit="10" stroke-linecap="round" stroke-linejoin="round"/>
<path d="M245.39 434.804H112.54C95.8398 434.804 82.3098 421.264 82.3098 404.574V227.734C82.3098 211.034 95.8498 197.504 112.54 197.504H245.38C262.08 197.504 275.61 211.044 275.61 227.734V404.564C275.62 421.264 262.08 434.804 245.39 434.804Z" fill="white" stroke="white" stroke-width="5.6693" stroke-miterlimit="10" stroke-linecap="round" stroke-linejoin="round"/>
<path d="M119.59 99.8744C119.59 99.8744 113.67 94.6144 111.04 95.9244C108.41 97.2444 102.49 104.474 105.12 113.034C107.75 121.584 122.89 133.434 122.89 133.434L119.59 99.8744Z" fill="white" stroke="white" stroke-width="5.6693" stroke-miterlimit="10" stroke-linecap="round" stroke-linejoin="round"/>
<path d="M234.08 130.794C234.08 130.794 236.71 134.084 243.95 126.184C251.19 118.284 251.19 108.414 250.53 105.124C249.87 101.834 246.58 94.5944 239.34 93.9344C232.11 93.2944 234.08 130.794 234.08 130.794Z" fill="white" stroke="white" stroke-width="5.6693" stroke-miterlimit="10" stroke-linecap="round" stroke-linejoin="round"/>
<path d="M129.31 245.995L137.31 189.995L153.15 186.725C153.15 186.725 154.64 184.995 180.31 184.995C198.08 184.995 203.16 186.725 205.13 186.725L221.31 189.995L229.48 245.285C229.48 245.285 228.16 351.225 224.87 357.145C217.96 369.585 128.8 354.515 128.8 354.515L129.46 245.945" fill="white"/>
<path d="M129.31 245.995L137.31 189.995L153.15 186.725C153.15 186.725 154.64 184.995 180.31 184.995C198.08 184.995 203.16 186.725 205.13 186.725L221.31 189.995L229.48 245.285C229.48 245.285 228.16 351.225 224.87 357.145C217.96 369.585 128.8 354.515 128.8 354.515L129.46 245.945" stroke="white" stroke-width="5.6693" stroke-miterlimit="10" stroke-linecap="round" stroke-linejoin="round"/>
<path d="M226.84 356.524H128.8V410.484H226.84V356.524Z" fill="white" stroke="white" stroke-width="5.6693" stroke-miterlimit="10" stroke-linecap="round" stroke-linejoin="round"/>
<path d="M266.65 437.355H90.3098C82.8598 437.355 76.8198 431.315 76.8198 423.865C76.8198 416.415 82.8598 410.375 90.3098 410.375H266.66C274.11 410.375 280.15 416.415 280.15 423.865C280.14 431.315 274.1 437.355 266.65 437.355Z" fill="white" stroke="white" stroke-width="5.6693" stroke-miterlimit="10" stroke-linecap="round" stroke-linejoin="round"/>
<path d="M84.7098 349.915H72.2098V534.955H84.7098V349.915Z" fill="white" stroke="white" stroke-width="5.6693" stroke-miterlimit="10" stroke-linecap="round" stroke-linejoin="round"/>
<path d="M285.41 349.915H272.91V534.955H285.41V349.915Z" fill="white" stroke="white" stroke-width="5.6693" stroke-miterlimit="10" stroke-linecap="round" stroke-linejoin="round"/>
<path d="M92.3198 349.995H61.3898C55.2098 349.995 50.1998 344.985 50.1998 338.805V337.725C50.1998 331.545 55.2098 326.535 61.3898 326.535H92.3198C98.4998 326.535 103.51 331.545 103.51 337.725V338.805C103.51 344.995 98.4998 349.995 92.3198 349.995Z" fill="white" stroke="white" stroke-width="5.6693" stroke-miterlimit="10" stroke-linecap="round" stroke-linejoin="round"/>
<path d="M296.2 349.995H265.27C259.09 349.995 254.08 344.985 254.08 338.805V336.725C254.08 330.545 259.09 325.535 265.27 325.535H296.2C302.38 325.535 307.39 330.545 307.39 336.725V338.805C307.39 344.995 302.38 349.995 296.2 349.995Z" fill="white" stroke="white" stroke-width="5.6693" stroke-miterlimit="10" stroke-linecap="round" stroke-linejoin="round"/>
<path d="M161.89 548.995H81.2399C75.1599 548.995 70.2399 544.075 70.2399 537.995V534.945H172.89V537.995C172.89 544.075 167.96 548.995 161.89 548.995Z" fill="white" stroke="white" stroke-width="5.6693" stroke-miterlimit="10" stroke-linecap="round" stroke-linejoin="round"/>
<path d="M275.72 548.995H195.07C188.99 548.995 184.07 544.075 184.07 537.995V534.945H286.72V537.995C286.72 544.075 281.8 548.995 275.72 548.995Z" fill="white" stroke="white" stroke-width="5.6693" stroke-miterlimit="10" stroke-linecap="round" stroke-linejoin="round"/>
<path d="M72.2198 483.495H61.0298V497.975H72.2198V483.495Z" fill="white" stroke="white" stroke-width="5.6693" stroke-miterlimit="10" stroke-linecap="round" stroke-linejoin="round"/>
<path d="M296.6 483.495H285.41V497.975H296.6V483.495Z" fill="white" stroke="white" stroke-width="5.6693" stroke-miterlimit="10" stroke-linecap="round" stroke-linejoin="round"/>
<path d="M198.55 163.694C198.55 163.694 195.92 184.094 198.55 185.404C201.18 186.724 205.49 186.604 205.31 187.994C205.1 189.604 199.31 198.994 180.78 199.884C163.29 200.724 152.14 189.724 153.31 187.994C154.47 186.264 158.52 186.924 161.04 185.404C164.33 183.434 161.7 163.694 161.7 163.694H198.55Z" fill="white" stroke="white" stroke-width="5.6693" stroke-miterlimit="10" stroke-linecap="round" stroke-linejoin="round"/>
<path d="M241.98 80.7844C241.98 80.7844 238.03 120.264 234.08 130.794C230.13 141.324 219.6 163.694 199.86 169.614C180.12 175.534 162.35 171.584 152.48 168.294C142.61 165.004 124.19 140.004 122.87 133.424C121.55 126.844 115.63 107.104 118.26 82.7544C120.89 58.4044 136.03 39.3244 136.03 39.3244L198.54 30.7744L234.73 51.1744L241.98 80.7844Z" fill="white" stroke="white" stroke-width="5.6693" stroke-miterlimit="10" stroke-linecap="round" stroke-linejoin="round"/>
<path d="M136.84 86.3645C142.87 82.7345 150.46 81.8145 157.18 83.9245L136.84 86.3645Z" fill="white"/>
<path d="M136.69 86.1245C137.98 84.8245 139.51 83.7345 141.16 82.8145L142.43 82.1745L143.74 81.6045L145.1 81.1445L146.49 80.7445C146.96 80.6345 147.43 80.5145 147.9 80.3645L149.34 80.0045C149.83 79.9345 150.32 79.8645 150.81 79.8745C151.3 79.8945 151.79 79.9745 152.27 80.0845C154.17 80.6145 156.03 81.6245 157.27 83.6545C157.38 83.8345 157.32 84.0645 157.14 84.1745C157.13 84.1845 157.12 84.1845 157.1 84.1945H157.09C154.97 85.1745 153.36 85.5045 151.76 85.7345C150.97 85.8445 150.21 85.8045 149.42 85.6245L148.23 85.3845C147.83 85.3245 147.42 85.2845 147.02 85.2545L145.8 85.2445L144.57 85.2945L143.32 85.3645L142.07 85.5045C140.39 85.7045 138.7 86.1045 136.99 86.6145C136.84 86.6645 136.67 86.5745 136.63 86.4245C136.58 86.3045 136.62 86.1945 136.69 86.1245Z" fill="white"/>
<path d="M217.67 86.7647C211.79 82.8947 204.23 81.6847 197.44 83.5247L217.67 86.7647Z" fill="white"/>
<path d="M217.52 87.0046C215.82 86.4246 214.16 85.9646 212.48 85.6946L211.23 85.5046L209.99 85.3846L208.76 85.2846L207.54 85.2546C207.13 85.2746 206.73 85.2946 206.32 85.3346L205.12 85.5346C204.33 85.6846 203.57 85.6946 202.78 85.5546C201.19 85.2646 199.59 84.8746 197.52 83.8146H197.51C197.32 83.7246 197.25 83.4946 197.35 83.3046C197.36 83.2946 197.36 83.2746 197.37 83.2646C198.69 81.2846 200.58 80.3546 202.51 79.8946C202.99 79.8046 203.49 79.7446 203.98 79.7446C204.47 79.7546 204.96 79.8446 205.44 79.9346L206.87 80.3446C207.34 80.5046 207.8 80.6446 208.27 80.7746L209.64 81.2246L210.98 81.7446L212.27 82.3646L213.51 83.0546C215.12 84.0446 216.6 85.1846 217.85 86.5346C217.96 86.6546 217.95 86.8346 217.83 86.9446C217.73 87.0146 217.61 87.0346 217.52 87.0046Z" fill="white"/>
<path d="M149.88 113.025C153.514 113.025 156.46 109.049 156.46 104.145C156.46 99.2404 153.514 95.2646 149.88 95.2646C146.246 95.2646 143.3 99.2404 143.3 104.145C143.3 109.049 146.246 113.025 149.88 113.025Z" fill="white" stroke="white" stroke-width="5.6693" stroke-miterlimit="10" stroke-linecap="round" stroke-linejoin="round"/>
<path d="M204.45 113.685C208.084 113.685 211.03 109.709 211.03 104.805C211.03 99.9005 208.084 95.9248 204.45 95.9248C200.816 95.9248 197.87 99.9005 197.87 104.805C197.87 109.709 200.816 113.685 204.45 113.685Z" fill="white" stroke="white" stroke-width="5.6693" stroke-miterlimit="10" stroke-linecap="round" stroke-linejoin="round"/>
<path d="M176.43 127.535C174.16 127.835 171.8 126.195 171.3 123.965C170.96 122.485 171.38 120.925 172.06 119.565C172.74 118.205 173.69 117.015 174.53 115.745C176.2 113.205 177.4 110.365 178.21 107.435" fill="white"/>
<path d="M176.43 127.535C175.53 128.865 173.75 129.435 171.94 129.285C170.59 128.385 169.42 127.145 168.81 125.485C168.18 123.805 168.28 122.145 168.61 120.735C168.95 119.325 169.58 118.095 170.21 117.075C170.85 116.045 171.49 115.185 172.02 114.395C172.54 113.625 173 112.815 173.43 111.985C173.85 111.145 174.24 110.285 174.58 109.395C175.73 108.815 176.83 108.135 178.21 107.435C179.02 108.745 179.48 110.055 179.88 111.425C179.47 112.485 179.01 113.535 178.49 114.555C177.97 115.575 177.38 116.585 176.74 117.545C176.11 118.485 175.51 119.305 175.05 120.055C174.59 120.805 174.28 121.465 174.13 122.095C173.98 122.705 174.01 123.235 174.13 123.515C174.24 123.825 174.53 124.235 174.95 124.425C174.9 125.355 175.25 126.475 176.43 127.535Z" fill="white"/>
<path d="M48.8498 613.784C42.1298 613.784 36.6798 608.334 36.6798 601.614V381.174C36.6798 374.454 42.1298 369.004 48.8498 369.004C55.5698 369.004 61.0198 374.454 61.0198 381.174V601.604C61.0298 608.334 55.5798 613.784 48.8498 613.784Z" fill="white" stroke="white" stroke-width="5.6693" stroke-miterlimit="10" stroke-linecap="round" stroke-linejoin="round"/>
<path d="M36.6798 586.805H33.8398C28.8698 586.805 24.8398 582.775 24.8398 577.805V404.975C24.8398 400.005 28.8698 395.975 33.8398 395.975H36.6798V586.805Z" fill="white" stroke="white" stroke-width="5.6693" stroke-miterlimit="10" stroke-linecap="round" stroke-linejoin="round"/>
<path d="M308.77 613.784C302.05 613.784 296.6 608.334 296.6 601.614V381.174C296.6 374.454 302.05 369.004 308.77 369.004C315.49 369.004 320.94 374.454 320.94 381.174V601.604C320.94 608.334 315.49 613.784 308.77 613.784Z" fill="white" stroke="white" stroke-width="5.6693" stroke-miterlimit="10" stroke-linecap="round" stroke-linejoin="round"/>
<path d="M320.94 583.515H323.78C328.75 583.515 332.78 579.485 332.78 574.515V401.685C332.78 396.715 328.75 392.685 323.78 392.685H320.94V583.515Z" fill="white" stroke="white" stroke-width="5.6693" stroke-miterlimit="10" stroke-linecap="round" stroke-linejoin="round"/>
<path d="M240.01 103.815C240.01 103.815 222.9 63.0146 220.93 54.4646C218.96 45.9146 212.38 66.3046 169.6 68.9446C126.82 71.5846 120.9 74.2046 120.9 74.2046L117.94 104.145C117.94 104.145 105.11 84.7346 107.74 48.5446C110.37 12.3546 122.87 24.1946 122.87 24.1946C122.87 24.1946 116.3 9.06459 127.48 6.43459C138.66 3.80459 163.01 1.82459 168.93 3.80459C174.85 5.77459 186.04 10.3846 186.04 10.3846C186.04 10.3846 186.04 0.514588 198.54 5.12459C211.04 9.73459 232.76 9.07459 239.99 32.1046C247.24 55.1246 245.93 97.2346 240.01 103.815Z" fill="white" stroke="white" stroke-width="5.6693" stroke-miterlimit="10" stroke-linecap="round" stroke-linejoin="round"/>
<path opacity="0.1" d="M162.47 171.574C162.47 171.574 184.07 175.544 197.44 170.304C199.78 169.384 193.94 179.494 179.47 178.834C164.99 178.174 162.47 171.574 162.47 171.574Z" fill="white" stroke="white" stroke-width="5.6693" stroke-miterlimit="10" stroke-linecap="round" stroke-linejoin="round"/>
<path d="M169.6 528.845H112.35V380.985C112.35 365.175 125.17 352.365 140.97 352.365C156.78 352.365 169.59 365.185 169.59 380.985V528.845H169.6Z" fill="white" stroke="white" stroke-width="5.6693" stroke-miterlimit="10" stroke-linecap="round" stroke-linejoin="round"/>
<path d="M245.27 528.845H188.02V380.985C188.02 365.175 200.84 352.365 216.64 352.365C232.45 352.365 245.26 365.185 245.26 380.985V528.845H245.27Z" fill="white" stroke="white" stroke-width="5.6693" stroke-miterlimit="10" stroke-linecap="round" stroke-linejoin="round"/>
<path d="M105.12 527.015C105.12 527.015 121.06 501.975 138.1 502.585C155.14 503.195 171.08 523.955 171.63 527.015C172.18 530.065 172.18 534.345 169.98 536.175C167.78 538.005 110.06 538.615 107.86 536.785C105.67 534.955 102.92 534.955 105.12 527.015Z" fill="white" stroke="white" stroke-width="5.6693" stroke-miterlimit="10" stroke-linecap="round" stroke-linejoin="round"/>
<path d="M185.86 527.015C185.86 527.015 201.24 501.975 217.67 502.585C234.11 503.195 249.48 523.955 250.01 527.015C250.54 530.065 250.54 534.345 248.42 536.175C246.3 538.005 190.63 538.615 188.51 536.785C186.39 534.955 183.74 534.955 185.86 527.015Z" fill="white" stroke="white" stroke-width="5.6693" stroke-miterlimit="10" stroke-linecap="round" stroke-linejoin="round"/>
<path d="M129.31 245.995L137.31 189.995C137.31 189.995 119.85 191.605 108.31 206.995C105.31 210.995 103.47 214.955 100.31 220.995C94.2098 232.635 89.3098 250.995 89.3098 253.995C89.3098 257.715 124.31 259.995 124.31 259.995L129.31 245.995Z" fill="white" stroke="white" stroke-width="5.6693" stroke-miterlimit="10" stroke-linecap="round" stroke-linejoin="round"/>
<path d="M229.31 245.995L221.31 189.995C221.31 189.995 238.77 191.605 250.31 206.995C253.31 210.995 255.15 214.955 258.31 220.995C264.41 232.635 269.31 250.995 269.31 253.995C269.31 257.715 234.31 259.995 234.31 259.995L229.31 245.995Z" fill="white" stroke="white" stroke-width="5.6693" stroke-miterlimit="10" stroke-linecap="round" stroke-linejoin="round"/>
<path d="M124.31 259.951C124.458 259.013 116.946 257.044 107.531 255.553C98.116 254.062 90.363 253.614 90.2144 254.552C90.0659 255.49 97.5779 257.46 106.993 258.95C116.408 260.441 124.161 260.889 124.31 259.951Z" fill="white" stroke="white" stroke-width="5.6693" stroke-miterlimit="10" stroke-linecap="round" stroke-linejoin="round"/>
<path d="M251.522 258.965C260.938 257.474 268.45 255.505 268.301 254.567C268.153 253.628 260.4 254.076 250.984 255.567C241.569 257.058 234.057 259.027 234.206 259.965C234.354 260.904 242.107 260.456 251.522 258.965Z" fill="white" stroke="white" stroke-width="5.6693" stroke-miterlimit="10" stroke-linecap="round" stroke-linejoin="round"/>
<path d="M120.31 258.994C120.31 259.994 101.82 306.484 101.82 306.484C101.82 306.484 97.2098 321.614 95.2398 324.254C93.2698 326.884 92.2498 328.864 92.2498 328.864C92.2498 328.864 90.6298 331.494 89.9698 335.444C89.3098 339.394 89.3098 342.684 86.0198 342.024C82.7298 341.364 84.6998 326.234 84.6998 326.234C84.6998 326.234 76.7998 328.204 76.1498 332.154C75.4898 336.104 73.9198 344.504 72.8598 346.634C71.5398 349.264 70.3698 350.104 68.9098 349.924C63.6498 349.264 67.0298 342.924 66.2798 344.004C61.6698 350.584 57.6898 344.124 59.0398 340.714C59.0398 340.714 55.7498 344.004 54.4298 342.684C53.1098 341.364 54.4298 336.764 54.4298 336.764C54.4298 336.764 52.4598 335.444 51.7998 334.134C51.1398 332.814 53.1198 328.874 57.7198 324.264C62.3298 319.654 74.8298 317.024 76.7998 313.734C78.7698 310.444 96.2898 254.004 96.2898 254.004C96.2898 254.004 105.84 255.094 110.29 256.004C114.76 256.904 120.31 256.994 120.31 258.994Z" fill="white" stroke="white" stroke-width="5.6693" stroke-miterlimit="10" stroke-linecap="round" stroke-linejoin="round"/>
<path d="M237.31 257.994L255.02 305.164C255.02 305.164 259.63 320.294 261.6 322.934C263.57 325.574 264.59 327.544 264.59 327.544C264.59 327.544 266.21 330.174 266.87 334.124C267.53 338.074 267.53 341.364 270.82 340.704C274.11 340.044 272.14 324.914 272.14 324.914C272.14 324.914 280.04 326.884 280.69 330.834C281.34 334.784 282.92 343.184 283.98 345.314C285.3 347.944 286.47 348.784 287.93 348.604C293.19 347.944 289.81 341.604 290.56 342.684C295.17 349.264 299.15 342.804 297.8 339.394C297.8 339.394 301.09 342.684 302.41 341.364C303.73 340.044 302.41 335.444 302.41 335.444C302.41 335.444 304.38 334.124 305.04 332.814C305.7 331.494 303.72 327.554 299.12 322.944C294.52 318.334 282.01 315.704 280.04 312.414C278.07 309.124 261.33 254.004 261.33 254.004L237.31 257.994Z" fill="white" stroke="white" stroke-width="5.6693" stroke-miterlimit="10" stroke-linecap="round" stroke-linejoin="round"/>
<path d="M54.4498 336.755C54.4498 336.755 58.8098 326.495 68.8098 322.495L54.4498 336.755Z" fill="white"/>
<path d="M54.4498 336.754C54.1098 334.684 54.5298 332.764 55.2198 331.014C55.9298 329.264 56.9898 327.674 58.3098 326.324C59.6098 324.954 61.2298 323.854 63.0098 323.134C64.7798 322.384 66.7899 322.104 68.8098 322.504C67.6798 324.294 66.5698 325.514 65.5398 326.804C64.4898 328.034 63.4398 329.164 62.3598 330.284C61.2698 331.394 60.1198 332.474 58.8598 333.554C57.5798 334.634 56.2298 335.694 54.4498 336.754Z" fill="white"/>
<path d="M59.0498 340.705C59.0498 340.705 63.8098 328.495 72.8098 323.495L59.0498 340.705Z" fill="white"/>
<path d="M59.0499 340.705C58.6799 338.515 59.0199 336.495 59.5999 334.585C60.2099 332.685 61.1399 330.905 62.3399 329.305C63.5399 327.705 65.0599 326.305 66.7999 325.215C68.5599 324.155 70.6099 323.425 72.8099 323.505C71.7799 325.475 70.8099 326.965 69.8499 328.465C68.8999 329.955 67.9099 331.345 66.8699 332.725C65.8299 334.115 64.7099 335.455 63.4699 336.795C62.1999 338.125 60.8399 339.435 59.0499 340.705Z" fill="white"/>
<path d="M66.8098 343.495C66.8098 343.495 69.8098 329.495 78.8098 324.495L66.8098 343.495Z" fill="white"/>
<path d="M66.8098 343.494C66.1098 341.344 66.1598 339.224 66.4698 337.194C66.8198 335.164 67.5098 333.194 68.5498 331.384C69.5898 329.574 70.9898 327.924 72.6998 326.614C74.4498 325.354 76.5598 324.434 78.8098 324.494C77.7398 326.494 76.8698 328.054 76.0098 329.614C75.1798 331.194 74.3598 332.694 73.4698 334.214C72.5998 335.744 71.6698 337.274 70.6198 338.814C69.5498 340.364 68.3898 341.904 66.8098 343.494Z" fill="white"/>
<path d="M302.39 335.445C302.39 335.445 297.81 323.505 287.81 320.505L302.39 335.445Z" fill="white"/>
<path d="M302.39 335.445C300.63 334.245 299.28 333.055 298.02 331.865C296.77 330.665 295.64 329.495 294.57 328.295C293.49 327.105 292.44 325.945 291.38 324.685C290.31 323.415 289.16 322.205 287.81 320.495C289.86 319.935 292.01 320.215 293.89 320.995C295.76 321.795 297.45 322.995 298.77 324.475C300.1 325.945 301.12 327.655 301.79 329.485C302.42 331.335 302.79 333.315 302.39 335.445Z" fill="white"/>
<path d="M297.79 339.385C297.79 339.385 293.81 328.495 285.81 323.495L297.79 339.385Z" fill="white"/>
<path d="M297.79 339.385C296.09 338.245 294.85 337.075 293.7 335.875C292.57 334.665 291.58 333.445 290.68 332.185C289.78 330.915 288.94 329.645 288.16 328.245C287.37 326.835 286.59 325.425 285.82 323.495C287.86 323.425 289.73 324.105 291.32 325.095C292.89 326.105 294.25 327.395 295.29 328.885C296.34 330.365 297.13 332.005 297.61 333.755C298.05 335.515 298.27 337.385 297.79 339.385Z" fill="white"/>
<path d="M290.55 342.675C290.55 342.675 290.04 330.495 280.93 323.495L290.55 342.675Z" fill="white"/>
<path d="M290.55 342.675C289.25 340.935 288.32 339.375 287.46 337.825C286.62 336.275 285.85 334.795 285.14 333.305C284.44 331.805 283.75 330.335 283.06 328.775C282.41 327.155 281.61 325.615 280.93 323.505C283.07 323.745 285.03 324.675 286.57 326.025C288.14 327.355 289.41 329.025 290.26 330.865C291.13 332.695 291.64 334.675 291.75 336.685C291.83 338.675 291.59 340.745 290.55 342.675Z" fill="white"/>
<path d="M82.3577 594.369H90.7277V541.009H82.3577V594.369Z" fill="white" stroke="white" stroke-width="5.6693" stroke-miterlimit="10" stroke-linecap="round" stroke-linejoin="round"/>
<path d="M90.7299 588.505H78.1699V596.875H90.7299V588.505Z" fill="white" stroke="white" stroke-width="5.6693" stroke-miterlimit="10" stroke-linecap="round" stroke-linejoin="round"/>
<path d="M73.5999 630.485H67.4399C64.9199 630.485 62.8699 628.435 62.8699 625.915V562.205C62.8699 559.685 64.9199 557.635 67.4399 557.635H73.5999C76.1199 557.635 78.1699 559.685 78.1699 562.205V625.915C78.1699 628.445 76.1199 630.485 73.5999 630.485Z" fill="white" stroke="white" stroke-width="5.6693" stroke-miterlimit="10" stroke-linecap="round" stroke-linejoin="round"/>
<path d="M62.8599 620.855H61.2499C59.9299 620.855 58.8699 619.785 58.8699 618.475V569.645C58.8699 568.325 59.9399 567.265 61.2499 567.265H62.8599V620.855Z" fill="white" stroke="white" stroke-width="5.6693" stroke-miterlimit="10" stroke-linecap="round" stroke-linejoin="round"/>
<path d="M276.25 535.995H267.88V589.355H276.25V535.995Z" fill="white" stroke="white" stroke-width="5.6693" stroke-miterlimit="10" stroke-linecap="round" stroke-linejoin="round"/>
<path d="M267.872 591.874L280.432 591.874L280.432 583.504L267.872 583.504L267.872 591.874Z" fill="white" stroke="white" stroke-width="5.6693" stroke-miterlimit="10" stroke-linecap="round" stroke-linejoin="round"/>
<path d="M285 625.485H291.16C293.68 625.485 295.73 623.435 295.73 620.915V557.205C295.73 554.685 293.68 552.635 291.16 552.635H285C282.48 552.635 280.43 554.685 280.43 557.205V620.915C280.44 623.445 282.48 625.485 285 625.485Z" fill="white" stroke="white" stroke-width="5.6693" stroke-miterlimit="10" stroke-linecap="round" stroke-linejoin="round"/>
<path d="M295.74 615.855H297.35C298.67 615.855 299.73 614.785 299.73 613.475V564.645C299.73 563.325 298.66 562.265 297.35 562.265H295.74V615.855Z" fill="white" stroke="white" stroke-width="5.6693" stroke-miterlimit="10" stroke-linecap="round" stroke-linejoin="round"/>
<path d="M199.31 142.495H157.31C157.03 142.495 156.81 142.275 156.81 141.995V140.995C156.81 140.715 157.03 140.495 157.31 140.495H199.31C199.59 140.495 199.81 140.715 199.81 140.995V141.995C199.81 142.275 199.59 142.495 199.31 142.495Z" fill="white" stroke="white" stroke-width="5.6693" stroke-miterlimit="10" stroke-linecap="round" stroke-linejoin="round"/>
<path d="M167.81 154.495C167.81 154.495 182.81 149.495 189.81 154.495H167.81Z" fill="white"/>
<path d="M167.81 154.495C169.26 152.805 171.03 151.745 172.87 150.925C174.72 150.135 176.69 149.655 178.72 149.525C180.75 149.395 182.86 149.585 184.9 150.345C186.89 151.095 188.92 152.415 189.81 154.495C187.58 154.415 185.92 154.605 184.2 154.745C182.51 154.875 180.82 155.075 179.09 155.185C177.36 155.295 175.58 155.335 173.73 155.285C171.86 155.215 169.95 155.055 167.81 154.495Z" fill="white"/>
<path d="M250.08 430.804H113.07C96.3698 430.804 82.8398 417.264 82.8398 400.574V223.734C82.8398 207.034 96.3798 193.504 113.07 193.504H250.08C266.78 193.504 280.31 207.044 280.31 223.734V400.564C280.31 417.264 266.77 430.804 250.08 430.804Z" fill="#1A1A1A"/>
<path d="M245.39 435.804H112.54C95.8398 435.804 82.3098 422.264 82.3098 405.574V228.734C82.3098 212.034 95.8498 198.504 112.54 198.504H245.38C262.08 198.504 275.61 212.044 275.61 228.734V405.564C275.62 422.264 262.08 435.804 245.39 435.804Z" fill="#333333"/>
<path d="M129.31 246.995L137.31 190.995L153.15 187.725C153.15 187.725 154.64 185.995 180.31 185.995C198.08 185.995 203.16 187.725 205.13 187.725L221.31 190.995L229.48 246.285C229.48 246.285 228.16 352.225 224.87 358.145C217.96 370.585 128.8 355.515 128.8 355.515L129.46 246.945" fill="#2E3192"/>
<path d="M226.84 357.524H128.8V411.484H226.84V357.524Z" fill="#36525E"/>
<path d="M266.65 438.355H90.3098C82.8598 438.355 76.8198 432.315 76.8198 424.865C76.8198 417.415 82.8598 411.375 90.3098 411.375H266.66C274.11 411.375 280.15 417.415 280.15 424.865C280.14 432.315 274.1 438.355 266.65 438.355Z" fill="#545454"/>
<path d="M84.7098 350.915H72.2098V535.955H84.7098V350.915Z" fill="#A5A0A3"/>
<path d="M285.41 350.915H272.91V535.955H285.41V350.915Z" fill="#A5A0A3"/>
<path d="M92.3198 350.995H61.3898C55.2098 350.995 50.1998 345.985 50.1998 339.805V338.725C50.1998 332.545 55.2098 327.535 61.3898 327.535H92.3198C98.4998 327.535 103.51 332.545 103.51 338.725V339.805C103.51 345.995 98.4998 350.995 92.3198 350.995Z" fill="#CCC9CD"/>
<path d="M296.2 350.995H265.27C259.09 350.995 254.08 345.985 254.08 339.805V337.725C254.08 331.545 259.09 326.535 265.27 326.535H296.2C302.38 326.535 307.39 331.545 307.39 337.725V339.805C307.39 345.995 302.38 350.995 296.2 350.995Z" fill="#CCC9CD"/>
<path d="M161.89 549.995H81.2399C75.1599 549.995 70.2399 545.075 70.2399 538.995V535.945H172.89V538.995C172.89 545.075 167.96 549.995 161.89 549.995Z" fill="#A5A0A3"/>
<path d="M275.72 549.995H195.07C188.99 549.995 184.07 545.075 184.07 538.995V535.945H286.72V538.995C286.72 545.075 281.8 549.995 275.72 549.995Z" fill="#A5A0A3"/>
<path d="M72.2198 484.495H61.0298V498.975H72.2198V484.495Z" fill="#787878"/>
<path d="M296.6 484.495H285.41V498.975H296.6V484.495Z" fill="#787878"/>
<path d="M48.8498 614.784C42.1298 614.784 36.6798 609.334 36.6798 602.614V382.174C36.6798 375.454 42.1298 370.004 48.8498 370.004C55.5698 370.004 61.0198 375.454 61.0198 382.174V602.604C61.0298 609.334 55.5798 614.784 48.8498 614.784Z" fill="#1D1D1B" stroke="black" stroke-miterlimit="10"/>
<path d="M36.6798 587.805H33.8398C28.8698 587.805 24.8398 583.775 24.8398 578.805V405.975C24.8398 401.005 28.8698 396.975 33.8398 396.975H36.6798V587.805Z" fill="#BCB9BB"/>
<path d="M308.77 614.784C302.05 614.784 296.6 609.334 296.6 602.614V382.174C296.6 375.454 302.05 370.004 308.77 370.004C315.49 370.004 320.94 375.454 320.94 382.174V602.604C320.94 609.334 315.49 614.784 308.77 614.784Z" fill="#1D1D1B" stroke="black" stroke-miterlimit="10"/>
<path d="M320.94 584.515H323.78C328.75 584.515 332.78 580.485 332.78 575.515V402.685C332.78 397.715 328.75 393.685 323.78 393.685H320.94V584.515Z" fill="#BCB9BB"/>
<path d="M169.6 529.845H112.35V381.985C112.35 366.175 125.17 353.365 140.97 353.365C156.78 353.365 169.59 366.185 169.59 381.985V529.845H169.6Z" fill="#56869B"/>
<path d="M245.27 529.845H188.02V381.985C188.02 366.175 200.84 353.365 216.64 353.365C232.45 353.365 245.26 366.185 245.26 381.985V529.845H245.27Z" fill="#56869B"/>
<path d="M105.12 528.015C105.12 528.015 121.06 502.975 138.1 503.585C155.14 504.195 171.08 524.955 171.63 528.015C172.18 531.065 172.18 535.345 169.98 537.175C167.78 539.005 110.06 539.615 107.86 537.785C105.67 535.955 102.92 535.955 105.12 528.015Z" fill="#1B1464"/>
<path d="M185.86 528.015C185.86 528.015 201.24 502.975 217.67 503.585C234.11 504.195 249.48 524.955 250.01 528.015C250.54 531.065 250.54 535.345 248.42 537.175C246.3 539.005 190.63 539.615 188.51 537.785C186.39 535.955 183.74 535.955 185.86 528.015Z" fill="#1B1464"/>
<path d="M129.31 246.995L137.31 190.995C137.31 190.995 119.85 192.605 108.31 207.995C105.31 211.995 103.47 215.955 100.31 221.995C94.2098 233.635 89.3098 251.995 89.3098 254.995C89.3098 258.715 124.31 260.995 124.31 260.995L129.31 246.995Z" fill="#2E3192"/>
<path d="M229.31 246.995L221.31 190.995C221.31 190.995 238.77 192.605 250.31 207.995C253.31 211.995 255.15 215.955 258.31 221.995C264.41 233.635 269.31 251.995 269.31 254.995C269.31 258.715 234.31 260.995 234.31 260.995L229.31 246.995Z" fill="#2E3192"/>
<path d="M124.31 260.951C124.458 260.013 116.946 258.044 107.531 256.553C98.116 255.062 90.363 254.614 90.2144 255.552C90.0659 256.49 97.5779 258.46 106.993 259.95C116.408 261.441 124.161 261.889 124.31 260.951Z" fill="#1B1464"/>
<path d="M251.522 259.965C260.938 258.474 268.45 256.505 268.301 255.567C268.153 254.628 260.4 255.076 250.984 256.567C241.569 258.058 234.057 260.027 234.206 260.965C234.354 261.904 242.107 261.456 251.522 259.965Z" fill="#1B1464"/>
<path d="M120.31 259.994C120.31 260.994 101.82 307.484 101.82 307.484C101.82 307.484 97.2098 322.614 95.2398 325.254C93.2698 327.884 92.2498 329.864 92.2498 329.864C92.2498 329.864 90.6298 332.494 89.9698 336.444C89.3098 340.394 89.3098 343.684 86.0198 343.024C82.7298 342.364 84.6998 327.234 84.6998 327.234C84.6998 327.234 76.7998 329.204 76.1498 333.154C75.4898 337.104 73.9198 345.504 72.8598 347.634C71.5398 350.264 70.3698 351.104 68.9098 350.924C63.6498 350.264 67.0298 343.924 66.2798 345.004C61.6698 351.584 57.6898 345.124 59.0398 341.714C59.0398 341.714 55.7498 345.004 54.4298 343.684C53.1098 342.364 54.4298 337.764 54.4298 337.764C54.4298 337.764 52.4598 336.444 51.7998 335.134C51.1398 333.814 53.1198 329.874 57.7198 325.264C62.3298 320.654 74.8298 318.024 76.7998 314.734C78.7698 311.444 96.2898 255.004 96.2898 255.004C96.2898 255.004 105.84 256.094 110.29 257.004C114.76 257.904 120.31 257.994 120.31 259.994Z" fill="#EFCAA6"/>
<path d="M237.31 258.994L255.02 306.164C255.02 306.164 259.63 321.294 261.6 323.934C263.57 326.574 264.59 328.544 264.59 328.544C264.59 328.544 266.21 331.174 266.87 335.124C267.53 339.074 267.53 342.364 270.82 341.704C274.11 341.044 272.14 325.914 272.14 325.914C272.14 325.914 280.04 327.884 280.69 331.834C281.34 335.784 282.92 344.184 283.98 346.314C285.3 348.944 286.47 349.784 287.93 349.604C293.19 348.944 289.81 342.604 290.56 343.684C295.17 350.264 299.15 343.804 297.8 340.394C297.8 340.394 301.09 343.684 302.41 342.364C303.73 341.044 302.41 336.444 302.41 336.444C302.41 336.444 304.38 335.124 305.04 333.814C305.7 332.494 303.72 328.554 299.12 323.944C294.52 319.334 282.01 316.704 280.04 313.414C278.07 310.124 261.33 255.004 261.33 255.004L237.31 258.994Z" fill="#EFCAA6"/>
<path d="M54.4498 337.754C55.5598 334.454 57.5398 331.464 59.9798 328.954C61.1998 327.694 62.5698 326.574 64.0598 325.644C65.5198 324.664 67.1698 324.014 68.8198 323.504C67.3198 324.384 65.8398 325.234 64.4998 326.294C63.1498 327.324 61.8598 328.434 60.6898 329.664C59.4998 330.874 58.3998 332.164 57.3598 333.514C56.3298 334.874 55.3398 336.274 54.4498 337.754Z" fill="#E3BB94"/>
<path d="M59.0498 341.705C60.1298 338.105 61.9598 334.745 64.1998 331.705C65.3498 330.205 66.6298 328.795 68.0498 327.545C69.4798 326.295 71.0898 325.275 72.7998 324.495C71.2798 325.605 69.8798 326.805 68.5798 328.115C67.3098 329.445 66.0898 330.835 64.9898 332.305C63.8798 333.775 62.8498 335.305 61.8598 336.875C60.8998 338.455 59.9398 340.055 59.0498 341.705Z" fill="#E3BB94"/>
<path d="M66.8098 344.494C67.3398 340.664 68.6798 336.954 70.5698 333.544C71.5598 331.864 72.7098 330.264 74.0598 328.844C75.4398 327.454 77.0498 326.284 78.8098 325.484C77.2398 326.624 75.8798 327.944 74.6398 329.364C73.4498 330.834 72.3898 332.394 71.4398 334.034C70.4898 335.674 69.6698 337.394 68.8998 339.134C68.1598 340.904 67.4398 342.674 66.8098 344.494Z" fill="#E3BB94"/>
<path d="M302.39 336.445C301.53 334.865 300.57 333.355 299.57 331.885C298.56 330.425 297.48 329.025 296.29 327.725C295.12 326.405 293.8 325.245 292.41 324.165C291 323.105 289.45 322.255 287.81 321.495C289.57 321.885 291.31 322.525 292.85 323.515C294.39 324.495 295.81 325.695 297.03 327.045C299.46 329.775 301.36 332.975 302.39 336.445Z" fill="#E3BB94"/>
<path d="M297.79 340.384C297 338.884 296.16 337.434 295.31 335.994C294.44 334.564 293.54 333.164 292.57 331.814C291.62 330.454 290.55 329.184 289.45 327.934C288.33 326.704 287.11 325.574 285.81 324.484C287.32 325.244 288.75 326.214 290 327.384C291.25 328.554 292.38 329.844 293.38 331.234C295.34 334.034 296.92 337.104 297.79 340.384Z" fill="#E3BB94"/>
<path d="M290.55 343.674C290.23 341.854 289.76 340.084 289.23 338.344C288.68 336.614 288.03 334.914 287.25 333.294C286.5 331.654 285.55 330.104 284.51 328.634L283.7 327.544L282.81 326.514C282.26 325.774 281.54 325.214 280.92 324.504C282.45 325.524 283.95 326.684 285.12 328.154C286.33 329.584 287.36 331.174 288.15 332.864C289.74 336.244 290.65 339.974 290.55 343.674Z" fill="#E3BB94"/>
<path d="M82.3577 595.369H90.7277V542.009H82.3577V595.369Z" fill="#A5A0A3"/>
<path d="M90.7299 589.505H78.1699V597.875H90.7299V589.505Z" fill="#A5A0A3"/>
<path d="M73.5999 631.485H67.4399C64.9199 631.485 62.8699 629.435 62.8699 626.915V563.205C62.8699 560.685 64.9199 558.635 67.4399 558.635H73.5999C76.1199 558.635 78.1699 560.685 78.1699 563.205V626.915C78.1699 629.445 76.1199 631.485 73.5999 631.485Z" fill="#1D1D1B" stroke="black" stroke-miterlimit="10"/>
<path d="M62.8599 621.855H61.2499C59.9299 621.855 58.8699 620.785 58.8699 619.475V570.645C58.8699 569.325 59.9399 568.265 61.2499 568.265H62.8599V621.855Z" fill="#BCB9BB"/>
<path d="M276.25 536.995H267.88V590.355H276.25V536.995Z" fill="#A5A0A3"/>
<path d="M267.872 592.874L280.432 592.874L280.432 584.504L267.872 584.504L267.872 592.874Z" fill="#A5A0A3"/>
<path d="M285 626.485H291.16C293.68 626.485 295.73 624.435 295.73 621.915V558.205C295.73 555.685 293.68 553.635 291.16 553.635H285C282.48 553.635 280.43 555.685 280.43 558.205V621.915C280.44 624.445 282.48 626.485 285 626.485Z" fill="#1D1D1B" stroke="black" stroke-miterlimit="10"/>
<path d="M295.74 616.855H297.35C298.67 616.855 299.73 615.785 299.73 614.475V565.645C299.73 564.325 298.66 563.265 297.35 563.265H295.74V616.855Z" fill="#BCB9BB"/>
<path d="M96.3098 229.995L262.81 230.495C262.81 230.495 251.31 200.995 232.31 193.995C215.39 187.765 202.8 186.065 188.31 184.995C169.72 183.615 151.11 186.195 139.31 188.995C101.31 197.995 96.3098 229.995 96.3098 229.995Z" fill="#A9D0FF"/>
<path d="M96.3098 235.195H262.81" stroke="#A9D0FF" stroke-width="2.8346" stroke-miterlimit="10" stroke-linecap="square" stroke-linejoin="bevel"/>
<g opacity="0.3">
<path opacity="0.3" d="M129.79 247.435C129.62 245.545 129.59 243.665 129.61 241.785C129.62 239.905 129.71 238.035 129.82 236.155C129.95 234.285 130.11 232.415 130.34 230.545C130.57 228.675 130.84 226.815 131.26 224.965C131.43 226.855 131.46 228.735 131.45 230.615C131.44 232.495 131.35 234.365 131.24 236.245C131.1 238.115 130.95 239.985 130.72 241.855C130.48 243.725 130.21 245.585 129.79 247.435Z" fill="#293084"/>
</g>
<g opacity="0.3">
<path opacity="0.3" d="M229.29 247.395C228.69 245.915 228.25 244.395 227.89 242.855C227.52 241.315 227.27 239.755 227.06 238.195C226.88 236.625 226.75 235.055 226.73 233.475C226.7 231.895 226.76 230.315 226.99 228.735C227.35 230.295 227.6 231.845 227.83 233.385C228.07 234.935 228.26 236.485 228.46 238.025C228.64 239.575 228.83 241.125 228.97 242.685C229.13 244.235 229.26 245.795 229.29 247.395Z" fill="#293084"/>
</g>
<path d="M119.59 100.874C119.59 100.874 113.67 95.6144 111.04 96.9244C108.41 98.2444 102.49 105.474 105.12 114.034C107.75 122.584 122.89 134.434 122.89 134.434L119.59 100.874Z" fill="#E3BB94"/>
<path d="M234.08 131.794C234.08 131.794 236.71 135.084 243.95 127.184C251.19 119.284 251.19 109.414 250.53 106.124C249.87 102.834 246.58 95.5944 239.34 94.9344C232.11 94.2944 234.08 131.794 234.08 131.794Z" fill="#E3BB94"/>
<path d="M198.55 164.694C198.55 164.694 195.92 185.094 198.55 186.404C201.18 187.724 205.49 187.604 205.31 188.994C205.1 190.604 199.31 199.994 180.78 200.884C163.29 201.724 152.14 190.724 153.31 188.994C154.47 187.264 158.52 187.924 161.04 186.404C164.33 184.434 161.7 164.694 161.7 164.694H198.55Z" fill="#E3BB94"/>
<path d="M241.98 81.7844C241.98 81.7844 238.03 121.264 234.08 131.794C230.13 142.324 219.6 164.694 199.86 170.614C180.12 176.534 162.35 172.584 152.48 169.294C142.61 166.004 124.19 141.004 122.87 134.424C121.55 127.844 115.63 108.104 118.26 83.7544C120.89 59.4044 136.03 40.3244 136.03 40.3244L198.54 31.7744L234.73 52.1744L241.98 81.7844Z" fill="#EFCAA6"/>
<path d="M136.69 87.1245C137.98 85.8245 139.51 84.7345 141.16 83.8145L142.43 83.1745L143.74 82.6045L145.1 82.1445L146.49 81.7445C146.96 81.6345 147.43 81.5145 147.9 81.3645L149.34 81.0045C149.83 80.9345 150.32 80.8645 150.81 80.8745C151.3 80.8945 151.79 80.9745 152.27 81.0845C154.17 81.6145 156.03 82.6245 157.27 84.6545L157.1 85.1945C154.98 86.1745 153.37 86.5045 151.77 86.7345C150.98 86.8445 150.22 86.8045 149.43 86.6245L148.24 86.3845C147.84 86.3245 147.43 86.2845 147.03 86.2545L145.81 86.2445L144.58 86.2945L143.33 86.3645L142.08 86.5045C140.4 86.7045 138.71 87.1045 137 87.6145L136.69 87.1245Z" fill="#844D20"/>
<path d="M217.52 88.0046C215.82 87.4246 214.16 86.9646 212.48 86.6946L211.23 86.5046L209.99 86.3846L208.76 86.2846L207.54 86.2546C207.13 86.2746 206.73 86.2946 206.32 86.3346L205.12 86.5346C204.33 86.6846 203.57 86.6946 202.78 86.5546C201.19 86.2646 199.59 85.8746 197.52 84.8146L197.37 84.2646C198.69 82.2846 200.58 81.3546 202.51 80.8946C202.99 80.8046 203.49 80.7446 203.98 80.7446C204.47 80.7546 204.96 80.8446 205.44 80.9346L206.87 81.3446C207.34 81.5046 207.8 81.6446 208.27 81.7746L209.64 82.2246L210.98 82.7446L212.27 83.3646L213.51 84.0546C215.12 85.0446 216.6 86.1846 217.85 87.5346L217.52 88.0046Z" fill="#844D20"/>
<path d="M149.88 114.025C153.514 114.025 156.46 110.049 156.46 105.145C156.46 100.24 153.514 96.2646 149.88 96.2646C146.246 96.2646 143.3 100.24 143.3 105.145C143.3 110.049 146.246 114.025 149.88 114.025Z" fill="#461A00"/>
<path d="M204.45 114.685C208.084 114.685 211.03 110.709 211.03 105.805C211.03 100.901 208.084 96.9248 204.45 96.9248C200.816 96.9248 197.87 100.901 197.87 105.805C197.87 110.709 200.816 114.685 204.45 114.685Z" fill="#461A00"/>
<path d="M176.43 128.535C175.43 128.965 174.18 128.905 173.06 128.455C172.05 127.825 171.22 126.895 170.79 125.745C170.35 124.585 170.4 123.355 170.67 122.245C170.94 121.135 171.45 120.115 172.02 119.195C172.59 118.275 173.22 117.425 173.79 116.575C174.35 115.735 174.86 114.855 175.33 113.945C175.79 113.035 176.21 112.105 176.57 111.155C177.14 110.275 177.65 109.365 178.21 108.435C178.2 109.515 178.08 110.585 177.89 111.665C177.51 112.665 177.07 113.635 176.59 114.595C176.1 115.545 175.56 116.475 174.97 117.365C174.38 118.255 173.76 119.085 173.23 119.935C172.7 120.785 172.27 121.665 172.05 122.585C171.83 123.495 171.81 124.445 172.12 125.255C172.42 126.065 173.04 126.795 173.81 127.245C174.47 127.885 175.36 128.365 176.43 128.535Z" fill="#8C6239"/>
<path d="M240.01 104.815C240.01 104.815 222.9 64.0146 220.93 55.4646C218.96 46.9146 212.38 67.3046 169.6 69.9446C126.82 72.5846 120.9 75.2046 120.9 75.2046L117.94 105.145C117.94 105.145 105.11 85.7346 107.74 49.5446C110.37 13.3546 122.87 25.1946 122.87 25.1946C122.87 25.1946 116.3 10.0646 127.48 7.43459C138.66 4.80459 163.01 2.82459 168.93 4.80459C174.85 6.77459 186.04 11.3846 186.04 11.3846C186.04 11.3846 186.04 1.51459 198.54 6.12459C211.04 10.7346 232.76 10.0746 239.99 33.1046C247.24 56.1246 245.93 98.2346 240.01 104.815Z" fill="#844D20"/>
<path opacity="0.1" d="M162.47 172.574C162.47 172.574 184.07 176.544 197.44 171.304C199.78 170.384 193.94 180.494 179.47 179.834C164.99 179.174 162.47 172.574 162.47 172.574Z" fill="#844D20"/>
<path d="M199.31 143.495H157.31C157.03 143.495 156.81 143.275 156.81 142.995V141.995C156.81 141.715 157.03 141.495 157.31 141.495H199.31C199.59 141.495 199.81 141.715 199.81 141.995V142.995C199.81 143.275 199.59 143.495 199.31 143.495Z" stroke="#A67C52" stroke-miterlimit="10"/>
<path d="M167.81 155.494C169.55 154.734 171.37 154.164 173.22 153.724C175.07 153.274 176.96 152.984 178.87 152.854C180.78 152.744 182.72 152.764 184.61 153.164C186.49 153.534 188.36 154.254 189.81 155.494C188.14 154.574 186.31 154.164 184.49 153.934C182.66 153.704 180.79 153.724 178.94 153.854C177.08 153.964 175.23 154.194 173.38 154.484C171.52 154.794 169.67 155.114 167.81 155.494Z" fill="#E3BB94"/>
</svg>
