<svg width="453" height="670" viewBox="0 0 453 670" fill="none" xmlns="http://www.w3.org/2000/svg">
<ellipse cx="277.033" cy="622.884" rx="175.038" ry="46.7096" fill="black" fill-opacity="0.1"/>
<path d="M72.465 251.274L77.535 232.014C77.535 232.014 57.155 225.094 53.865 222.364C50.585 219.634 40.085 209.364 38.745 206.874C37.405 204.384 34.465 187.874 32.615 186.024C30.775 184.174 25.435 184.934 25.995 189.494C26.555 194.054 27.005 210.044 27.005 210.044C27.005 210.044 17.545 209.234 13.495 209.154C9.44497 209.074 5.37497 212.684 5.01497 214.464C4.65497 216.244 5.70497 220.154 6.77497 220.374C7.84497 220.594 4.42497 222.844 3.99497 224.974C3.56497 227.104 3.90497 230.874 5.68497 231.234C7.46497 231.594 3.96497 234.214 3.68497 235.634C3.39497 237.054 3.53497 240.044 5.23497 240.754C6.93497 241.464 5.72497 241.964 5.29497 244.094C4.86497 246.224 4.71497 248.784 6.77497 249.574C8.83497 250.364 14.295 254.064 24.325 253.134C34.355 252.204 37.985 250.724 41.265 249.174C44.545 247.614 48.545 243.994 48.545 243.994L72.465 251.274Z" fill="white" stroke="white" stroke-width="5.6693" stroke-miterlimit="10" stroke-linecap="round" stroke-linejoin="round"/>
<g opacity="0.5">
<g opacity="0.5">
<path opacity="0.5" d="M9.405 220.854C12.345 221.554 15.405 221.554 18.425 221.564C19.125 221.564 19.835 221.564 20.505 221.384C22.135 220.944 23.335 219.474 23.915 217.884C24.145 217.264 24.295 216.574 24.095 215.944C23.935 215.434 23.565 215.024 23.285 214.574C22.515 213.304 22.375 211.554 21.115 210.744C22.165 211.414 23.035 212.354 23.625 213.444C24.525 215.104 24.765 217.044 24.715 218.924C24.665 220.804 24.345 222.674 24.195 224.554C23.575 232.494 26.065 240.684 23.895 248.344C23.635 249.264 23.255 250.234 22.425 250.724C21.635 251.194 20.635 251.094 19.725 250.944C16.095 250.344 12.555 249.214 9.255 247.614" fill="white"/>
<g opacity="0.5">
<path opacity="0.5" d="M7.145 229.054C10.055 229.704 13.055 229.994 16.035 230.044C19.385 230.104 22.575 229.994 25.625 228.384C28.775 226.724 31.045 223.464 32.115 220.134C32.765 218.104 32.895 215.734 32.295 213.664C31.815 212.004 30.825 210.854 30.175 209.324C30.465 210.004 30.745 210.674 31.035 211.354C30.535 210.074 30.095 208.754 29.435 207.554C28.395 205.654 27.105 204.654 25.415 203.384C22.555 208.284 19.695 213.174 16.835 218.074C17.045 218.204 17.245 218.354 17.445 218.504C16.875 218.064 16.295 217.614 15.725 217.174C16.205 217.574 16.635 218.014 17.025 218.504C16.585 217.934 16.135 217.354 15.695 216.784C16.085 217.334 16.405 217.884 16.675 218.504C16.385 217.824 16.105 217.154 15.815 216.474C16.125 217.294 16.325 218.124 16.445 218.994C16.345 218.244 16.245 217.484 16.145 216.734C16.395 219.204 15.975 221.624 15.755 224.074C15.545 226.374 15.595 228.684 15.745 230.994C16.035 235.734 16.665 240.474 16.065 245.214C16.165 244.464 16.265 243.704 16.365 242.954C16.165 244.354 15.905 245.784 15.365 247.104C15.655 246.424 15.935 245.754 16.225 245.074C16.125 245.294 16.015 245.504 15.875 245.704C16.315 245.134 16.765 244.554 17.205 243.984C17.075 244.174 16.915 244.354 16.735 244.504C17.305 244.064 17.885 243.614 18.455 243.174C18.265 243.334 18.045 243.464 17.815 243.544C18.495 243.254 19.165 242.974 19.845 242.684C19.595 242.774 19.345 242.824 19.085 242.844C19.835 242.744 20.595 242.644 21.345 242.544C20.935 242.554 20.555 242.534 20.145 242.494C20.895 242.594 21.655 242.694 22.405 242.794C19.235 242.314 16.155 241.404 13.205 240.164C13.885 240.454 14.555 240.734 15.235 241.024C14.675 240.784 14.115 240.524 13.565 240.264C11.465 239.264 9.325 238.774 7.015 239.404C5.045 239.944 2.905 241.474 1.935 243.314C-0.0650009 247.104 0.694999 252.904 4.985 254.944C9.815 257.254 14.805 258.934 20.145 259.494C24.285 259.934 28.575 257.744 30.645 254.124C32.225 251.364 32.685 248.304 33.065 245.204C33.565 241.154 33.195 237.114 32.895 233.074C32.735 231.004 32.605 228.924 32.625 226.834C32.655 224.724 32.955 222.654 33.135 220.554C33.385 217.794 33.245 214.774 32.295 212.154C30.935 208.414 28.725 205.614 25.425 203.384C23.675 202.194 20.855 201.984 18.875 202.524C16.905 203.064 14.765 204.594 13.795 206.434C12.755 208.404 12.225 210.794 12.935 212.984C13.655 215.224 14.975 216.664 16.845 218.064C16.935 218.134 17.025 218.194 17.115 218.264C16.545 217.824 15.965 217.374 15.395 216.934C15.565 217.084 15.705 217.244 15.835 217.424C15.395 216.854 14.945 216.274 14.505 215.704C14.695 215.994 14.845 216.274 14.985 216.594C14.695 215.914 14.415 215.244 14.125 214.564C14.625 215.784 15.065 217.044 15.635 218.224C15.965 218.914 16.465 219.504 16.765 220.214C16.475 219.534 16.195 218.864 15.905 218.184C15.935 218.314 15.955 218.444 15.985 218.564C15.885 217.814 15.785 217.054 15.685 216.304C15.715 216.564 15.695 216.834 15.645 217.094C15.745 216.344 15.845 215.584 15.945 214.834C15.855 215.224 15.735 215.574 15.595 215.944C15.885 215.264 16.165 214.594 16.455 213.914C16.195 214.484 15.895 214.984 15.515 215.484C15.955 214.914 16.405 214.334 16.845 213.764C16.605 214.044 16.355 214.284 16.085 214.534C16.655 214.094 17.235 213.644 17.805 213.204C17.415 213.504 17.025 213.724 16.575 213.914C17.255 213.624 17.925 213.344 18.605 213.054C18.365 213.144 18.115 213.214 17.855 213.254C18.605 213.154 19.365 213.054 20.115 212.954C17.425 213.304 14.455 213.074 11.765 212.764C12.515 212.864 13.275 212.964 14.025 213.064C13.235 212.954 12.455 212.824 11.685 212.644C7.355 211.674 2.275 213.954 1.225 218.584C0.224999 222.914 2.505 228.014 7.145 229.054Z" fill="white"/>
</g>
</g>
<g opacity="0.5">
<path opacity="0.5" d="M8.53497 240.185C12.495 241.425 16.445 242.655 20.405 243.895C21.425 244.215 22.525 244.585 23.145 245.455C23.805 246.375 23.765 247.595 23.705 248.725" fill="white"/>
<g opacity="0.5">
<path opacity="0.5" d="M6.275 248.385C8.495 249.075 10.715 249.774 12.935 250.464C15.035 251.114 17.205 251.675 19.245 252.475C18.565 252.185 17.895 251.905 17.215 251.615C17.575 251.765 17.905 251.934 18.225 252.154C17.655 251.714 17.075 251.264 16.505 250.824C16.745 251.014 16.955 251.214 17.145 251.454C16.705 250.884 16.255 250.304 15.815 249.734C15.945 249.944 16.055 250.135 16.145 250.365C15.855 249.685 15.575 249.015 15.285 248.335C15.385 248.645 15.455 248.944 15.505 249.264C15.405 248.514 15.305 247.755 15.205 247.005C15.255 247.575 15.245 248.144 15.215 248.714C15.105 250.824 16.245 253.265 17.705 254.725C19.175 256.195 21.595 257.315 23.715 257.215C25.915 257.115 28.195 256.395 29.725 254.725C31.295 253.015 32.095 251.054 32.215 248.714C32.395 245.174 31.395 241.795 28.945 239.174C27.755 237.894 26.345 237.155 24.785 236.505C23.705 236.045 22.635 235.685 21.515 235.335C17.945 234.215 14.375 233.104 10.805 231.984C8.745 231.344 6.095 231.764 4.255 232.844C2.495 233.874 0.804996 235.894 0.344996 237.924C-0.155004 240.104 -0.0450038 242.545 1.205 244.475C2.415 246.385 4.095 247.705 6.275 248.385Z" fill="white"/>
</g>
</g>
<g opacity="0.5">
<path opacity="0.5" d="M13.975 241.274C16.315 241.704 18.735 241.664 21.055 241.154C22.335 240.874 23.715 240.344 24.275 239.154C24.735 238.194 24.525 237.054 24.305 236.004C24.165 235.344 24.005 234.634 23.515 234.174C23.115 233.784 22.545 233.624 22.005 233.494C18.355 232.574 14.595 232.054 10.835 231.974C10.015 231.954 9.16501 231.944 8.44501 231.554C11.295 231.404 14.155 231.494 16.995 231.824C18.065 231.944 19.165 232.104 20.215 231.824C20.865 231.654 21.455 231.314 22.045 230.984C22.665 230.634 23.325 230.254 23.675 229.624C24.085 228.904 23.995 228.014 23.885 227.194C23.815 226.684 23.745 226.174 23.675 225.664C23.615 225.264 23.555 224.854 23.385 224.484C23.155 224.004 22.765 223.634 22.365 223.294C21.215 222.314 19.785 221.404 18.295 221.634" fill="white"/>
<g opacity="0.5">
<path opacity="0.5" d="M11.715 249.474C13.935 249.864 16.205 250.184 18.455 250.034C20.525 249.894 22.715 249.674 24.675 248.944C28.345 247.574 31.155 245.224 32.465 241.424C33.345 238.874 33.035 236.194 32.465 233.614C31.805 230.644 29.855 227.784 27.095 226.404C25.135 225.424 23.075 224.964 20.945 224.584C18.715 224.174 16.465 223.874 14.205 223.674C12.675 223.534 11.115 223.574 9.585 223.404C10.335 223.504 11.095 223.604 11.845 223.704C11.535 223.654 11.265 223.584 10.965 223.484C11.645 223.774 12.315 224.054 12.995 224.344C12.905 224.304 12.815 224.254 12.725 224.214C11.295 229.494 9.865 234.774 8.435 240.064C11.415 239.924 14.375 240.044 17.345 240.374C21.655 240.844 26.355 239.154 29.405 236.014C31.495 233.864 32.705 230.664 32.425 227.664C32.195 225.244 32.015 222.354 30.715 220.194C29.425 218.064 27.665 216.504 25.595 215.154C23.555 213.824 20.725 212.884 18.275 213.134C15.965 213.364 13.955 213.924 12.265 215.624C10.795 217.094 9.675 219.514 9.775 221.634C9.875 223.834 10.595 226.114 12.265 227.644C13.835 229.084 16.075 230.354 18.275 230.134C18.605 230.104 18.895 230.104 19.225 230.134C18.475 230.034 17.715 229.934 16.965 229.834C17.285 229.894 17.575 229.974 17.885 230.084C17.205 229.794 16.535 229.514 15.855 229.224C16.465 229.484 17.015 229.824 17.555 230.224C16.985 229.784 16.405 229.334 15.835 228.894C16.255 229.234 16.665 229.574 17.025 229.974C16.585 229.404 16.135 228.824 15.695 228.254C15.835 228.414 15.945 228.594 16.035 228.784C15.745 228.104 15.465 227.434 15.175 226.754C15.465 227.494 15.515 228.294 15.625 229.084C15.525 228.334 15.425 227.574 15.325 226.824C15.415 227.474 15.495 228.114 15.435 228.764C15.535 228.014 15.635 227.254 15.735 226.504C15.715 226.704 15.665 226.904 15.595 227.094C15.885 226.414 16.165 225.744 16.455 225.064C16.385 225.254 16.285 225.434 16.155 225.594C16.595 225.024 17.045 224.444 17.485 223.874C17.355 224.034 17.215 224.174 17.065 224.304C17.635 223.864 18.215 223.414 18.785 222.974C18.105 223.494 17.335 223.904 16.555 224.264C17.235 223.974 17.905 223.694 18.585 223.404C18.145 223.574 17.715 223.684 17.255 223.754C18.005 223.654 18.765 223.554 19.515 223.454C17.725 223.574 15.885 223.184 14.095 223.084C12.215 222.974 10.335 222.974 8.455 223.064C4.845 223.234 1.105 225.574 0.255 229.304C-0.085 230.804 -0.085 232.334 0.255 233.824C0.675 235.684 2.415 238.074 4.165 238.904C6.155 239.854 7.445 240.204 9.615 240.414C10.335 240.484 11.065 240.484 11.785 240.514C13.355 240.584 14.915 240.724 16.475 240.934C15.725 240.834 14.965 240.734 14.215 240.634C16.315 240.934 18.565 241.234 20.565 241.954C19.885 241.664 19.215 241.384 18.535 241.094C18.705 241.164 18.875 241.244 19.025 241.354C18.455 240.914 17.875 240.464 17.305 240.024C17.465 240.134 17.595 240.264 17.715 240.414C17.275 239.844 16.825 239.264 16.385 238.694C16.495 238.844 16.595 239.014 16.665 239.194C16.375 238.514 16.095 237.844 15.805 237.164C16.055 237.834 16.185 238.544 16.295 239.244C16.195 238.494 16.095 237.734 15.995 236.984C16.045 237.414 16.065 237.834 16.035 238.264C16.135 237.514 16.235 236.754 16.335 236.004C16.285 236.334 16.205 236.604 16.085 236.914C16.375 236.234 16.655 235.564 16.945 234.884C16.865 235.054 16.765 235.204 16.655 235.354C17.095 234.784 17.545 234.204 17.985 233.634C17.795 233.854 17.625 234.024 17.395 234.204C17.965 233.764 18.545 233.314 19.115 232.874C18.805 233.094 18.485 233.264 18.135 233.414C18.815 233.124 19.485 232.844 20.165 232.554C19.245 232.914 18.295 233.094 17.325 233.234C18.075 233.134 18.835 233.034 19.585 232.934C17.955 233.134 16.345 233.124 14.725 232.914C15.475 233.014 16.235 233.114 16.985 233.214C16.735 233.184 16.495 233.134 16.245 233.094C13.935 232.694 11.785 232.734 9.695 233.954C7.935 234.984 6.245 237.004 5.785 239.034C5.285 241.214 5.395 243.654 6.645 245.584C7.765 247.324 9.575 249.104 11.715 249.474Z" fill="white"/>
</g>
</g>
<g opacity="0.5">
<path opacity="0.5" d="M24.245 218.824C23.815 220.424 23.555 222.064 23.465 223.714C23.075 223.394 22.965 222.814 22.585 222.484C22.335 222.274 21.985 222.164 21.835 221.874C21.805 221.814 21.785 221.754 21.795 221.694C21.815 221.514 22.025 221.434 22.195 221.374C22.935 221.134 23.605 220.654 24.065 220.034C23.265 220.444 22.585 221.104 22.165 221.894C21.865 221.704 21.465 221.674 21.145 221.814C21.755 221.684 22.375 221.664 22.995 221.744C23.055 221.754 23.115 221.764 23.165 221.804C23.215 221.844 23.225 221.914 23.245 221.974C23.305 222.224 23.365 222.464 23.425 222.714" fill="white"/>
<g opacity="0.5">
<path opacity="0.5" d="M16.045 216.564C15.825 217.374 15.655 218.204 15.525 219.034C15.285 220.574 15.055 222.144 14.965 223.714C19.805 221.714 24.645 219.704 29.485 217.704C29.415 217.644 29.355 217.574 29.295 217.504C29.735 218.074 30.185 218.654 30.625 219.224C30.415 218.944 30.285 218.614 30.075 218.334C28.775 216.564 28.605 216.304 26.775 215.054C26.625 214.954 26.475 214.874 26.335 214.764C26.905 215.204 27.485 215.654 28.055 216.094C28.005 216.054 27.965 216.014 27.915 215.964C28.355 216.534 28.805 217.114 29.245 217.684C29.205 217.634 29.175 217.584 29.155 217.524C29.445 218.204 29.725 218.874 30.015 219.554C30.015 219.534 30.005 219.514 30.005 219.494C30.105 220.244 30.205 221.004 30.305 221.754C30.305 221.734 30.305 221.714 30.305 221.694C30.205 222.444 30.105 223.204 30.005 223.954C30.005 223.934 30.015 223.914 30.015 223.894C29.725 224.574 29.445 225.244 29.155 225.924C29.165 225.904 29.175 225.894 29.185 225.874C28.745 226.444 28.295 227.024 27.855 227.594C27.875 227.564 27.905 227.534 27.935 227.514C27.365 227.954 26.785 228.404 26.215 228.844C26.265 228.804 26.315 228.784 26.375 228.754C25.695 229.044 25.025 229.324 24.345 229.614C25.205 229.294 26.055 228.944 26.895 228.554C27.105 228.454 27.315 228.334 27.505 228.204C28.155 227.744 28.795 227.234 29.415 226.734C29.505 226.664 29.595 226.584 29.675 226.504C29.755 226.434 29.825 226.354 29.895 226.284C30.445 225.664 30.925 224.974 31.425 224.324C31.715 223.644 31.995 222.974 32.285 222.294C32.635 221.164 32.695 220.034 32.435 218.904C32.435 218.134 32.235 217.424 31.855 216.754C31.515 215.704 30.925 214.784 30.095 214.014C29.525 213.574 28.945 213.124 28.375 212.684C27.695 212.394 27.025 212.114 26.345 211.824C25.215 211.474 24.085 211.414 22.955 211.674C21.825 211.724 20.765 212.064 19.795 212.684C19.585 212.794 19.395 212.914 19.205 213.044C18.535 213.524 17.875 214.034 17.245 214.564C17.155 214.634 17.075 214.714 16.985 214.794C16.575 215.194 16.235 215.694 15.885 216.144C15.525 216.614 15.135 217.064 14.845 217.584C18.725 216.564 22.605 215.554 26.485 214.534C26.445 214.504 26.395 214.484 26.355 214.464C25.675 214.174 25.005 213.894 24.325 213.604C24.305 213.594 24.275 213.584 24.255 213.574C23.455 213.304 22.535 213.264 21.735 213.214C21.275 213.184 20.755 213.314 20.335 213.364C19.965 213.414 19.335 213.424 18.915 213.604C17.805 213.864 16.845 214.374 16.025 215.124C15.095 215.724 14.365 216.514 13.835 217.514C13.215 218.494 12.875 219.544 12.825 220.674C12.575 221.804 12.625 222.934 12.975 224.064C13.265 224.744 13.545 225.414 13.835 226.094C14.595 227.374 15.605 228.384 16.885 229.144C17.565 229.434 18.235 229.714 18.915 230.004C20.425 230.414 21.925 230.414 23.435 230.004C23.555 229.984 23.675 229.954 23.805 229.944C23.055 230.044 22.295 230.144 21.545 230.244C22.035 230.174 22.535 230.174 23.025 230.234C22.275 230.134 21.515 230.034 20.765 229.934C20.805 229.934 20.845 229.944 20.885 229.964C20.205 229.674 19.535 229.394 18.855 229.104C18.875 229.114 18.885 229.124 18.905 229.134C18.335 228.694 17.755 228.244 17.185 227.804C17.195 227.824 17.215 227.834 17.225 227.854C16.785 227.284 16.335 226.704 15.895 226.134C15.905 226.154 15.915 226.174 15.915 226.194C15.625 225.514 15.345 224.844 15.055 224.164C15.125 224.424 15.185 224.694 15.255 224.964C15.515 226.074 16.025 227.034 16.775 227.854C17.375 228.784 18.165 229.514 19.165 230.044C20.145 230.664 21.195 231.004 22.325 231.054C23.455 231.304 24.585 231.254 25.715 230.904C26.395 230.614 27.065 230.334 27.745 230.044C29.025 229.284 30.035 228.274 30.795 226.994C31.085 226.314 31.365 225.644 31.655 224.964C32.065 223.454 32.065 221.954 31.655 220.444C31.615 220.294 31.575 220.134 31.545 219.984C31.525 219.904 31.505 219.834 31.485 219.754C31.475 219.714 31.465 219.684 31.455 219.644C31.165 218.964 30.885 218.294 30.595 217.614C30.245 216.944 29.775 216.324 29.225 215.814C28.995 215.524 28.705 215.294 28.345 215.124C28.065 214.864 27.765 214.624 27.435 214.424C26.755 214.134 26.085 213.854 25.405 213.564C25.375 213.554 25.345 213.544 25.315 213.544C24.925 213.484 24.545 213.434 24.155 213.384C23.745 213.324 23.345 213.274 22.935 213.224C22.645 213.194 22.345 213.184 22.055 213.194C21.005 213.244 19.955 213.404 18.925 213.614C20.435 219.084 21.935 224.544 23.445 230.014C23.545 229.974 23.635 229.944 23.735 229.934C22.985 230.034 22.225 230.134 21.475 230.234C21.575 230.224 21.675 230.224 21.775 230.234C21.025 230.134 20.265 230.034 19.515 229.934C19.615 229.954 19.715 229.984 19.805 230.024C19.125 229.734 18.455 229.454 17.775 229.164C17.825 229.184 17.865 229.214 17.905 229.234C18.885 229.854 19.935 230.194 21.065 230.244C22.195 230.494 23.325 230.444 24.455 230.094C25.135 229.804 25.805 229.524 26.485 229.234C27.765 228.474 28.775 227.464 29.535 226.184C29.645 225.984 29.775 225.784 29.915 225.604C29.475 226.174 29.025 226.754 28.585 227.324C28.825 227.014 29.095 226.744 29.395 226.504C28.825 226.944 28.245 227.394 27.675 227.834C27.905 227.664 28.135 227.514 28.385 227.374C24.505 223.494 20.625 219.614 16.745 215.734C16.725 215.754 16.715 215.774 16.695 215.794C17.135 215.224 17.585 214.644 18.025 214.074C17.825 214.324 17.605 214.534 17.365 214.734C17.935 214.294 18.515 213.844 19.085 213.404C18.815 213.614 18.525 213.784 18.215 213.914C18.895 213.624 19.565 213.344 20.245 213.054C19.375 213.414 18.455 213.674 17.645 214.154C17.075 214.594 16.495 215.044 15.925 215.484C15.915 215.494 15.895 215.514 15.885 215.524C15.645 215.814 15.405 216.124 15.185 216.424C14.905 216.684 14.675 216.974 14.505 217.314C14.095 217.954 13.785 218.684 13.625 219.424C13.525 220.174 13.425 220.934 13.325 221.684C13.335 222.084 13.385 222.484 13.475 222.874C13.685 224.424 13.585 224.334 14.495 226.094C14.515 226.134 14.535 226.174 14.555 226.204C14.785 226.514 15.015 226.814 15.255 227.114C15.465 227.424 15.695 227.714 15.945 227.994C15.985 228.034 16.025 228.064 16.065 228.104C16.755 228.724 17.545 229.214 18.285 229.764C17.715 229.324 17.135 228.874 16.565 228.434C16.635 228.494 16.695 228.554 16.755 228.624C16.315 228.054 15.865 227.474 15.425 226.904C15.565 227.094 15.675 227.294 15.785 227.504C16.235 228.314 16.795 229.104 17.495 229.714C18.065 230.154 18.645 230.604 19.215 231.044C19.895 231.334 20.565 231.614 21.245 231.904C21.995 232.004 22.755 232.104 23.505 232.204C24.675 232.244 25.765 232.004 26.785 231.474C27.505 231.274 28.135 230.904 28.665 230.384C29.305 230.004 29.815 229.494 30.195 228.854C30.725 228.324 31.085 227.694 31.285 226.974C31.815 225.964 32.065 224.864 32.015 223.694C32.055 223.044 32.115 222.384 32.195 221.734C32.095 222.484 31.995 223.244 31.895 223.994C32.035 223.004 32.225 222.024 32.485 221.064C32.835 219.934 32.895 218.804 32.635 217.674C32.585 216.544 32.245 215.484 31.625 214.514C31.095 213.524 30.365 212.724 29.435 212.124C28.615 211.374 27.645 210.864 26.545 210.604C25.795 210.504 25.035 210.404 24.285 210.304C22.745 210.304 21.315 210.694 19.995 211.464C19.425 211.904 18.845 212.354 18.275 212.794C17.185 213.874 16.455 215.124 16.045 216.564Z" fill="white"/>
</g>
</g>
<g opacity="0.5">
<path opacity="0.5" d="M23.765 230.604C23.635 231.164 23.105 231.514 22.615 231.804C22.115 232.104 21.605 232.414 21.025 232.544C20.625 232.634 20.225 232.634 19.815 232.634C21.085 232.664 22.345 232.834 23.575 233.144C23.725 233.184 23.945 233.184 23.975 233.034C23.995 232.964 23.955 232.894 23.905 232.834C23.795 232.714 23.645 232.654 23.505 232.574C23.365 232.494 23.225 232.384 23.195 232.234C23.155 232.084 23.285 231.884 23.445 231.914C23.635 232.624 23.765 233.344 23.815 234.074C23.625 233.724 23.445 233.364 23.255 233.014C23.165 232.844 23.055 232.654 22.865 232.604" fill="white"/>
<g opacity="0.5">
<path opacity="0.5" d="M15.565 228.344C15.545 228.404 15.535 228.454 15.515 228.514C15.805 227.834 16.085 227.164 16.375 226.484C16.325 226.594 16.265 226.694 16.195 226.794C16.635 226.224 17.085 225.644 17.525 225.074C17.405 225.214 17.275 225.344 17.125 225.454C17.695 225.014 18.275 224.564 18.845 224.124C18.375 224.474 17.835 224.784 17.295 225.024C17.975 224.734 18.645 224.454 19.325 224.164C19.045 224.274 18.765 224.354 18.475 224.394C19.225 224.294 19.985 224.194 20.735 224.094C20.435 224.134 20.125 224.134 19.825 224.134C18.655 224.094 17.565 224.334 16.545 224.864C15.495 225.204 14.575 225.794 13.805 226.624C12.975 227.394 12.385 228.304 12.045 229.364C11.515 230.374 11.265 231.474 11.315 232.644C11.415 233.394 11.515 234.154 11.615 234.904C12.015 236.344 12.745 237.594 13.805 238.654C14.375 239.094 14.955 239.544 15.525 239.984C16.855 240.754 18.285 241.144 19.815 241.144C20.435 241.154 21.055 241.204 21.665 241.284C20.915 241.184 20.155 241.084 19.405 240.984C20.875 241.184 22.295 241.674 23.795 241.674C25.265 241.674 26.885 241.264 28.155 240.504C29.385 239.754 30.585 238.704 31.275 237.414C31.505 237.114 31.665 236.764 31.725 236.364C31.885 236.014 32.035 235.664 32.165 235.304C32.605 233.914 32.535 232.064 32.155 230.674C31.525 228.424 30.045 226.624 28.085 225.414C27.935 225.324 27.775 225.254 27.635 225.144C28.205 225.584 28.785 226.034 29.355 226.474C29.325 226.444 29.295 226.424 29.275 226.394C29.715 226.964 30.165 227.544 30.605 228.114C30.585 228.084 30.555 228.054 30.545 228.014C30.835 228.694 31.115 229.364 31.405 230.044C31.395 230.024 31.395 230.004 31.385 229.984C31.485 230.734 31.585 231.494 31.685 232.244C31.675 232.204 31.675 232.174 31.685 232.134C31.585 232.884 31.485 233.644 31.385 234.394C31.385 234.374 31.395 234.364 31.395 234.344C31.105 235.024 30.825 235.694 30.535 236.374C30.545 236.344 30.565 236.314 30.585 236.284C30.145 236.854 29.695 237.434 29.255 238.004C29.265 237.994 29.285 237.984 29.295 237.974C28.725 238.414 28.145 238.864 27.575 239.304C27.585 239.294 27.605 239.284 27.615 239.284C26.935 239.574 26.265 239.854 25.585 240.144C25.605 240.144 25.615 240.134 25.635 240.134C24.885 240.234 24.125 240.334 23.375 240.434C23.395 240.434 23.405 240.434 23.425 240.434C20.695 238.354 17.955 236.274 15.225 234.194C15.365 234.704 15.465 235.214 15.535 235.734C15.435 234.984 15.335 234.224 15.235 233.474C15.265 233.684 15.285 233.894 15.305 234.094C20.585 232.664 25.865 231.234 31.155 229.804C30.985 229.474 30.805 229.144 30.635 228.814C30.255 228.084 29.545 227.204 29.115 226.774C27.825 225.484 26.825 225.024 25.135 224.424C24.005 224.074 22.875 224.014 21.745 224.274C20.615 224.324 19.555 224.664 18.585 225.284C17.595 225.814 16.795 226.544 16.195 227.474C15.445 228.294 14.935 229.264 14.675 230.364C14.575 231.114 14.475 231.874 14.375 232.624C14.375 234.164 14.765 235.594 15.535 236.914C15.975 237.484 16.425 238.064 16.865 238.634C17.925 239.684 19.175 240.414 20.615 240.824C20.635 240.834 20.655 240.834 20.665 240.844C19.985 240.554 19.315 240.274 18.635 239.984C18.665 240.004 18.705 240.024 18.725 240.044C18.155 239.604 17.575 239.154 17.005 238.714C17.035 238.734 17.065 238.764 17.085 238.794C16.645 238.224 16.195 237.644 15.755 237.074C15.895 237.254 15.995 237.474 16.095 237.674C16.215 237.914 16.345 238.144 16.465 238.384C16.905 238.954 17.355 239.534 17.795 240.104C18.565 240.934 19.475 241.524 20.535 241.864C21.195 242.244 21.915 242.444 22.685 242.444C23.815 242.694 24.945 242.644 26.075 242.294C26.755 242.004 27.425 241.724 28.105 241.434C28.675 240.994 29.255 240.544 29.825 240.104C30.655 239.334 31.245 238.424 31.585 237.364C32.115 236.354 32.365 235.254 32.315 234.084C32.225 232.974 32.065 231.874 31.885 230.774C31.825 230.404 31.735 230.034 31.645 229.664C31.355 228.984 31.075 228.314 30.785 227.634C30.255 226.644 29.525 225.844 28.595 225.244C28.065 224.714 27.435 224.354 26.715 224.154C25.705 223.624 24.605 223.374 23.435 223.424C21.975 223.364 20.295 223.874 19.045 224.594C17.765 225.344 16.665 226.424 15.915 227.704C14.715 229.754 14.365 232.214 14.995 234.504C15.205 235.274 15.525 236.014 15.935 236.694C16.855 238.234 17.625 238.814 19.075 239.824C19.215 239.924 19.375 239.994 19.525 240.094C18.955 239.654 18.375 239.204 17.805 238.764C17.855 238.804 17.895 238.844 17.945 238.894C17.505 238.324 17.055 237.744 16.615 237.174C16.625 237.194 16.635 237.204 16.645 237.224C16.355 236.544 16.075 235.874 15.785 235.194C15.785 235.214 15.795 235.224 15.795 235.244C15.695 234.494 15.595 233.734 15.495 232.984C15.495 233.004 15.495 233.024 15.495 233.034C15.595 232.284 15.695 231.524 15.795 230.774C15.785 230.784 15.785 230.804 15.775 230.814C16.065 230.134 16.345 229.464 16.635 228.784C16.625 228.794 16.615 228.804 16.605 228.814C17.625 227.794 18.635 226.784 19.655 225.764C19.635 225.784 19.605 225.794 19.585 225.804C20.265 225.514 20.935 225.234 21.615 224.944C21.605 224.944 21.585 224.954 21.575 224.954C22.325 224.854 23.085 224.754 23.835 224.654C23.785 224.664 23.735 224.664 23.685 224.654C24.435 224.754 25.195 224.854 25.945 224.954C25.635 224.904 25.325 224.814 25.015 224.744C24.685 224.674 24.355 224.624 24.015 224.574C22.625 224.374 21.225 224.154 19.825 224.114C19.825 229.784 19.825 235.454 19.825 241.124C20.055 241.124 20.285 241.124 20.505 241.104C21.345 241.044 22.195 240.894 23.025 240.774C23.135 240.754 23.245 240.734 23.355 240.714C23.465 240.684 23.565 240.654 23.665 240.614C24.425 240.334 25.195 239.994 25.935 239.664C26.145 239.564 26.355 239.464 26.555 239.344C26.735 239.244 26.915 239.134 27.085 239.024C27.165 238.974 27.245 238.924 27.315 238.864C27.955 238.404 28.595 237.904 29.215 237.404C29.285 237.344 29.355 237.284 29.415 237.214C29.445 237.184 29.465 237.154 29.495 237.124C29.735 236.824 29.965 236.524 30.195 236.214C30.425 235.924 30.655 235.624 30.875 235.334C30.925 235.264 30.975 235.184 31.015 235.104C31.025 235.084 31.035 235.064 31.035 235.054C31.325 234.374 31.605 233.704 31.895 233.024C31.915 232.964 31.935 232.914 31.945 232.854C32.295 231.724 32.355 230.594 32.095 229.464C32.045 228.334 31.705 227.274 31.085 226.304C30.555 225.314 29.825 224.514 28.895 223.914C28.075 223.164 27.105 222.654 26.005 222.394C25.255 222.294 24.495 222.194 23.745 222.094C22.205 222.094 20.775 222.484 19.455 223.254C18.885 223.694 18.305 224.144 17.735 224.584C16.705 225.654 15.975 226.904 15.565 228.344Z" fill="white"/>
</g>
</g>
<g opacity="0.5">
<path opacity="0.5" d="M15.905 241.944C17.345 242.254 18.815 242.564 20.295 242.454C21.765 242.344 23.275 241.764 24.165 240.594C23.015 241.854 20.785 241.264 19.435 242.314C20.715 242.354 21.995 242.554 23.225 242.904C21.955 243.014 20.665 242.884 19.395 242.754C20.705 243.154 21.995 243.584 23.285 244.054C23.535 244.144 23.805 244.244 23.965 244.454C24.315 244.904 24.045 245.544 23.775 246.034C23.645 245.334 22.655 244.984 22.635 244.264C22.635 244.084 22.695 243.904 22.755 243.744C23.035 242.994 23.365 242.254 23.735 241.534C24.175 242.574 24.235 243.774 23.905 244.854C23.585 244.204 23.425 243.474 23.445 242.744C23.395 243.564 23.345 244.384 23.295 245.204" fill="white"/>
<g opacity="0.5">
<path opacity="0.5" d="M13.645 250.144C15.195 250.474 16.745 250.704 18.325 250.894C19.935 251.084 21.375 250.854 22.995 250.614C24.365 250.414 25.685 249.804 26.905 249.194C27.815 248.744 28.595 248.024 29.375 247.404C29.675 247.164 29.935 246.914 30.175 246.614C31.005 245.844 31.595 244.934 31.935 243.874C32.465 242.864 32.715 241.764 32.665 240.594C32.705 239.424 32.465 238.334 31.935 237.314C31.595 236.264 31.005 235.344 30.175 234.574C29.605 234.134 29.025 233.684 28.455 233.244C27.125 232.474 25.695 232.084 24.165 232.084C23.415 232.184 22.655 232.284 21.905 232.384C20.465 232.784 19.215 233.514 18.155 234.574C18.055 234.674 17.955 234.774 17.835 234.854C18.405 234.414 18.985 233.964 19.555 233.524C19.385 233.644 19.205 233.744 19.005 233.824C19.685 233.534 20.355 233.254 21.035 232.964C20.385 233.224 19.685 233.294 18.995 233.414C18.665 233.474 18.345 233.544 18.025 233.644C17.205 233.924 16.375 234.284 15.595 234.664C15.435 234.744 15.285 234.844 15.135 234.944C14.565 235.384 13.985 235.834 13.415 236.274C12.585 237.044 11.995 237.954 11.655 239.014C11.275 239.674 11.075 240.394 11.075 241.164C10.825 242.294 10.875 243.424 11.225 244.554C11.515 245.234 11.795 245.904 12.085 246.584C12.525 247.154 12.975 247.734 13.415 248.304C14.185 249.134 15.095 249.724 16.155 250.064C17.165 250.594 18.265 250.844 19.435 250.794C19.945 250.814 20.455 250.854 20.965 250.914C20.215 250.814 19.455 250.714 18.705 250.614C19.465 250.714 20.225 250.874 20.965 251.074C21.715 245.504 22.475 239.934 23.225 234.374C21.945 234.474 20.675 234.354 19.395 234.224C18.225 234.184 17.135 234.424 16.115 234.954C15.065 235.294 14.145 235.884 13.375 236.714C12.935 237.284 12.485 237.864 12.045 238.434C11.425 239.414 11.085 240.464 11.035 241.594C10.835 242.344 10.835 243.104 11.035 243.854C11.085 244.984 11.425 246.044 12.045 247.014C12.485 247.584 12.935 248.164 13.375 248.734C14.435 249.784 15.685 250.514 17.125 250.924C18.505 251.344 19.895 251.764 21.225 252.304C20.545 252.014 19.875 251.734 19.195 251.444C19.305 251.494 19.395 251.544 19.495 251.614C18.925 251.174 18.345 250.724 17.775 250.284C17.835 250.324 17.895 250.384 17.935 250.444C17.495 249.874 17.045 249.294 16.605 248.724C16.655 248.784 16.695 248.854 16.715 248.924C16.425 248.244 16.145 247.574 15.855 246.894C15.885 246.964 15.895 247.034 15.905 247.114C15.805 246.364 15.705 245.604 15.605 244.854C15.615 244.934 15.605 245.004 15.605 245.084C15.705 244.334 15.805 243.574 15.905 242.824C15.875 243.034 15.805 243.224 15.725 243.414C16.015 242.734 16.295 242.064 16.585 241.384C16.535 241.494 16.475 241.604 16.415 241.724C21.595 242.404 26.775 243.074 31.955 243.754C31.755 242.944 31.425 242.134 30.985 241.424C30.955 241.374 30.915 241.324 30.885 241.274C30.515 240.724 29.905 239.934 29.465 239.444C29.275 239.224 29.055 239.034 28.865 238.814C29.305 239.384 29.755 239.964 30.195 240.534C30.125 240.434 30.065 240.334 30.015 240.224C30.305 240.904 30.585 241.574 30.875 242.254C30.855 242.194 30.835 242.144 30.825 242.084C30.925 242.834 31.025 243.594 31.125 244.344C31.115 244.264 31.115 244.194 31.125 244.114C31.025 244.864 30.925 245.624 30.825 246.374C30.905 245.994 31.065 245.634 31.215 245.284C30.925 245.964 30.645 246.634 30.355 247.314C30.575 246.804 30.805 246.304 31.055 245.814C25.875 245.134 20.695 244.464 15.515 243.784C15.675 244.184 15.785 244.584 15.845 245.004C15.745 244.254 15.645 243.494 15.545 242.744C15.605 243.214 15.605 243.684 15.535 244.154C15.635 243.404 15.735 242.644 15.835 241.894C15.795 242.124 15.745 242.354 15.685 242.584C20.865 241.904 26.045 241.234 31.225 240.554C31.185 240.464 31.145 240.374 31.105 240.284C31.395 240.964 31.675 241.634 31.965 242.314C31.825 241.954 31.725 241.584 31.665 241.194C31.765 241.944 31.865 242.704 31.965 243.454C31.935 243.214 31.925 242.974 31.925 242.724C31.965 241.554 31.725 240.464 31.195 239.444C30.855 238.394 30.265 237.474 29.435 236.704C28.665 235.874 27.755 235.284 26.695 234.944C25.685 234.414 24.585 234.164 23.415 234.214C22.665 234.314 21.905 234.414 21.155 234.514C19.715 234.914 18.465 235.644 17.405 236.704C16.965 237.274 16.515 237.854 16.075 238.424C15.305 239.754 14.915 241.184 14.915 242.714C14.865 243.534 14.815 244.354 14.765 245.174C14.725 246.344 14.965 247.434 15.495 248.454C15.835 249.504 16.425 250.424 17.255 251.194C18.025 252.024 18.935 252.614 19.995 252.954C21.005 253.484 22.105 253.734 23.275 253.684C24.025 253.584 24.785 253.484 25.535 253.384C26.975 252.984 28.225 252.254 29.285 251.194C29.725 250.624 30.175 250.044 30.615 249.474C31.385 248.144 31.775 246.714 31.775 245.184C31.825 244.364 31.875 243.544 31.925 242.724C26.255 242.724 20.585 242.724 14.915 242.724C14.915 242.914 14.915 243.114 14.935 243.304C15.015 244.214 15.125 245.164 15.315 246.064C15.355 246.254 15.405 246.444 15.475 246.624C15.775 247.474 16.145 248.314 16.525 249.124C16.965 249.694 17.415 250.274 17.855 250.844C18.425 251.284 19.005 251.734 19.575 252.174C20.255 252.464 20.925 252.744 21.605 253.034C22.735 253.384 23.865 253.444 24.995 253.184C25.765 253.184 26.475 252.984 27.145 252.604C27.865 252.404 28.495 252.034 29.025 251.514C29.665 251.134 30.175 250.624 30.555 249.984C31.305 249.164 31.815 248.194 32.075 247.094C32.355 246.124 32.425 245.054 32.545 244.074C32.585 243.764 32.595 243.464 32.585 243.154C32.515 241.874 32.395 240.464 31.905 239.244C31.615 238.564 31.335 237.894 31.045 237.214C30.605 236.644 30.155 236.064 29.715 235.494C29.145 235.054 28.565 234.604 27.995 234.164C27.015 233.544 25.965 233.204 24.835 233.154C24.085 232.954 23.325 232.954 22.575 233.154C21.805 233.154 21.095 233.354 20.425 233.734C19.705 233.934 19.075 234.304 18.545 234.824C17.615 235.424 16.885 236.214 16.355 237.214C16.115 237.684 15.885 238.164 15.675 238.644C14.875 240.524 14.095 241.994 14.095 244.094C14.095 244.574 14.165 244.834 14.245 245.454C14.315 245.984 14.325 246.324 14.445 246.754C14.735 247.434 15.015 248.104 15.305 248.784C15.325 248.824 15.335 248.864 15.365 248.904C15.405 248.974 15.445 249.034 15.495 249.094C15.955 249.754 16.515 250.524 17.115 251.134C17.245 251.264 17.365 251.384 17.485 251.524C17.045 250.954 16.595 250.374 16.155 249.804C16.235 249.904 16.295 250.004 16.345 250.114C16.055 249.434 15.775 248.764 15.485 248.084C15.505 248.144 15.525 248.204 15.535 248.264C15.825 248.944 16.105 249.614 16.395 250.294C16.835 250.864 17.285 251.444 17.725 252.014C18.295 252.454 18.875 252.904 19.445 253.344C20.425 253.964 21.475 254.304 22.605 254.354C23.355 254.554 24.115 254.554 24.865 254.354C25.635 254.354 26.345 254.154 27.015 253.774C27.735 253.574 28.365 253.204 28.895 252.684C29.825 252.084 30.555 251.294 31.085 250.294C31.545 249.434 31.985 248.524 32.245 247.574C32.265 247.494 32.285 247.414 32.295 247.334C32.395 246.584 32.495 245.824 32.595 245.074C32.625 244.204 32.505 243.304 32.275 242.474C31.855 240.914 31.005 239.464 29.865 238.324C28.505 236.964 27.385 236.524 25.615 235.854C24.305 235.354 22.965 234.924 21.615 234.514C20.865 240.084 20.105 245.654 19.355 251.214C20.625 251.344 21.905 251.464 23.185 251.364C24.355 251.404 25.445 251.164 26.465 250.634C27.515 250.294 28.435 249.704 29.205 248.874C29.645 248.304 30.095 247.724 30.535 247.154C31.155 246.174 31.495 245.124 31.545 243.994C31.745 243.244 31.745 242.484 31.545 241.734C31.495 240.604 31.155 239.544 30.535 238.574C29.335 236.704 27.635 235.274 25.455 234.664C24.815 234.484 24.165 234.344 23.505 234.244C22.145 234.044 20.785 233.824 19.405 233.774C20.835 239.054 22.265 244.334 23.695 249.624C23.905 249.474 24.115 249.354 24.345 249.254C23.665 249.544 22.995 249.824 22.315 250.114C23.045 249.834 23.835 249.764 24.595 249.614C25.635 249.404 26.605 248.924 27.555 248.494C27.735 248.414 27.895 248.324 28.055 248.224C28.625 247.844 29.385 247.244 29.905 246.804C29.985 246.734 30.065 246.664 30.135 246.584C26.125 242.574 22.115 238.564 18.105 234.554C17.865 234.854 17.605 235.114 17.305 235.344C17.875 234.904 18.455 234.454 19.025 234.014C18.685 234.264 18.325 234.464 17.935 234.634C18.615 234.344 19.285 234.064 19.965 233.774C19.445 233.984 18.915 234.114 18.365 234.194C19.115 234.094 19.875 233.994 20.625 233.894C19.815 233.994 19.005 233.954 18.195 233.854C18.945 233.954 19.705 234.054 20.455 234.154C19.665 234.044 18.895 233.884 18.115 233.724C16.985 233.374 15.855 233.314 14.725 233.574C13.595 233.624 12.535 233.964 11.565 234.584C10.575 235.114 9.77498 235.844 9.17498 236.774C8.42498 237.594 7.91498 238.564 7.65498 239.664C7.55498 240.414 7.45498 241.174 7.35498 241.924C7.35498 243.464 7.74498 244.894 8.51498 246.214C8.95498 246.784 9.40498 247.364 9.84498 247.934C10.955 249.014 12.205 249.744 13.645 250.144Z" fill="white"/>
</g>
</g>
</g>
<path d="M350.305 429.815H213.295C196.595 429.815 183.065 416.275 183.065 399.585V222.745C183.065 206.045 196.605 192.515 213.295 192.515H350.305C367.005 192.515 380.535 206.055 380.535 222.745V399.575C380.535 416.275 367.005 429.815 350.305 429.815Z" fill="white" stroke="white" stroke-width="5.6693" stroke-miterlimit="10" stroke-linecap="round" stroke-linejoin="round"/>
<path d="M345.615 434.815H212.775C196.075 434.815 182.545 421.275 182.545 404.585V227.745C182.545 211.045 196.085 197.515 212.775 197.515H345.615C362.315 197.515 375.845 211.055 375.845 227.745V404.575C375.845 421.275 362.315 434.815 345.615 434.815Z" fill="white" stroke="white" stroke-width="5.6693" stroke-miterlimit="10" stroke-linecap="round" stroke-linejoin="round"/>
<path d="M219.815 99.8847C219.815 99.8847 213.895 94.6247 211.265 95.9347C208.635 97.2547 202.715 104.485 205.345 113.045C207.975 121.595 223.115 133.445 223.115 133.445L219.815 99.8847Z" fill="white" stroke="white" stroke-width="5.6693" stroke-miterlimit="10" stroke-linecap="round" stroke-linejoin="round"/>
<path d="M334.315 130.805C334.315 130.805 336.945 134.095 344.185 126.195C351.425 118.295 351.425 108.425 350.765 105.135C350.105 101.845 346.815 94.6046 339.575 93.9446C332.335 93.3046 334.315 130.805 334.315 130.805Z" fill="white" stroke="white" stroke-width="5.6693" stroke-miterlimit="10" stroke-linecap="round" stroke-linejoin="round"/>
<path d="M229.535 246.004L237.535 190.004L253.375 186.734C253.375 186.734 254.865 185.004 280.535 185.004C298.305 185.004 303.385 186.734 305.355 186.734L321.535 190.004L329.705 245.294C329.705 245.294 328.385 351.234 325.095 357.154C318.185 369.594 229.025 354.524 229.025 354.524L229.685 245.954" fill="white"/>
<path d="M229.535 246.004L237.535 190.004L253.375 186.734C253.375 186.734 254.865 185.004 280.535 185.004C298.305 185.004 303.385 186.734 305.355 186.734L321.535 190.004L329.705 245.294C329.705 245.294 328.385 351.234 325.095 357.154C318.185 369.594 229.025 354.524 229.025 354.524L229.685 245.954" stroke="white" stroke-width="5.6693" stroke-miterlimit="10" stroke-linecap="round" stroke-linejoin="round"/>
<path d="M327.065 356.535H229.025V410.495H327.065V356.535Z" fill="white" stroke="white" stroke-width="5.6693" stroke-miterlimit="10" stroke-linecap="round" stroke-linejoin="round"/>
<path d="M366.885 437.365H190.535C183.085 437.365 177.045 431.325 177.045 423.875C177.045 416.425 183.085 410.385 190.535 410.385H366.885C374.335 410.385 380.375 416.425 380.375 423.875C380.375 431.325 374.335 437.365 366.885 437.365Z" fill="white" stroke="white" stroke-width="5.6693" stroke-miterlimit="10" stroke-linecap="round" stroke-linejoin="round"/>
<path d="M184.935 349.925H172.435V534.965H184.935V349.925Z" fill="white" stroke="white" stroke-width="5.6693" stroke-miterlimit="10" stroke-linecap="round" stroke-linejoin="round"/>
<path d="M385.635 349.925H373.135V534.965H385.635V349.925Z" fill="white" stroke="white" stroke-width="5.6693" stroke-miterlimit="10" stroke-linecap="round" stroke-linejoin="round"/>
<path d="M192.545 350.004H161.615C155.435 350.004 150.425 344.994 150.425 338.814V337.734C150.425 331.554 155.435 326.544 161.615 326.544H192.545C198.725 326.544 203.735 331.554 203.735 337.734V338.814C203.735 345.004 198.725 350.004 192.545 350.004Z" fill="white" stroke="white" stroke-width="5.6693" stroke-miterlimit="10" stroke-linecap="round" stroke-linejoin="round"/>
<path d="M396.425 350.004H365.495C359.315 350.004 354.305 344.994 354.305 338.814V336.734C354.305 330.554 359.315 325.544 365.495 325.544H396.425C402.605 325.544 407.615 330.554 407.615 336.734V338.814C407.615 345.004 402.605 350.004 396.425 350.004Z" fill="white" stroke="white" stroke-width="5.6693" stroke-miterlimit="10" stroke-linecap="round" stroke-linejoin="round"/>
<path d="M262.115 549.005H181.465C175.385 549.005 170.465 544.085 170.465 538.005V534.955H273.115V538.005C273.115 544.085 268.195 549.005 262.115 549.005Z" fill="white" stroke="white" stroke-width="5.6693" stroke-miterlimit="10" stroke-linecap="round" stroke-linejoin="round"/>
<path d="M375.955 549.005H295.305C289.225 549.005 284.305 544.085 284.305 538.005V534.955H386.955V538.005C386.955 544.085 382.025 549.005 375.955 549.005Z" fill="white" stroke="white" stroke-width="5.6693" stroke-miterlimit="10" stroke-linecap="round" stroke-linejoin="round"/>
<path d="M172.445 483.504H161.255V497.984H172.445V483.504Z" fill="white" stroke="white" stroke-width="5.6693" stroke-miterlimit="10" stroke-linecap="round" stroke-linejoin="round"/>
<path d="M396.825 483.504H385.635V497.984H396.825V483.504Z" fill="white" stroke="white" stroke-width="5.6693" stroke-miterlimit="10" stroke-linecap="round" stroke-linejoin="round"/>
<path d="M298.775 163.705C298.775 163.705 296.145 184.105 298.775 185.415C301.405 186.735 305.715 186.615 305.535 188.005C305.325 189.615 299.535 199.005 281.005 199.895C263.515 200.735 252.365 189.735 253.535 188.005C254.695 186.275 258.745 186.935 261.265 185.415C264.555 183.445 261.925 163.705 261.925 163.705H298.775Z" fill="white" stroke="white" stroke-width="5.6693" stroke-miterlimit="10" stroke-linecap="round" stroke-linejoin="round"/>
<path d="M342.205 80.7947C342.205 80.7947 338.255 120.275 334.305 130.805C330.355 141.335 319.825 163.705 300.085 169.625C280.345 175.545 262.575 171.595 252.705 168.305C242.835 165.015 224.415 140.015 223.095 133.435C221.775 126.855 215.855 107.115 218.485 82.7647C221.115 58.4147 236.255 39.3347 236.255 39.3347L298.765 30.7847L334.955 51.1847L342.205 80.7947Z" fill="white" stroke="white" stroke-width="5.6693" stroke-miterlimit="10" stroke-linecap="round" stroke-linejoin="round"/>
<path d="M237.135 86.7745C243.015 82.9045 250.575 81.6945 257.365 83.5345L237.135 86.7745Z" fill="white"/>
<path d="M236.985 86.5346C238.225 85.1846 239.715 84.0346 241.325 83.0546L242.565 82.3646L243.855 81.7446L245.195 81.2246L246.565 80.7746C247.025 80.6446 247.495 80.5046 247.965 80.3446L249.395 79.9346C249.875 79.8446 250.365 79.7546 250.855 79.7446C251.345 79.7446 251.835 79.8046 252.325 79.8946C254.245 80.3546 256.145 81.2846 257.465 83.2646C257.585 83.4346 257.535 83.6746 257.365 83.7846C257.355 83.7946 257.345 83.8046 257.325 83.8046H257.315C255.235 84.8646 253.635 85.2646 252.055 85.5446C251.265 85.6846 250.505 85.6746 249.715 85.5246L248.515 85.3246C248.115 85.2746 247.705 85.2546 247.295 85.2446L246.075 85.2746L244.845 85.3746L243.605 85.4946L242.355 85.6846C240.685 85.9546 239.015 86.4146 237.315 86.9946C237.165 87.0446 236.995 86.9646 236.945 86.8146C236.885 86.7246 236.915 86.6146 236.985 86.5346Z" fill="white"/>
<path d="M317.905 86.7745C312.025 82.9045 304.465 81.6945 297.675 83.5345L317.905 86.7745Z" fill="white"/>
<path d="M317.745 87.0144C316.045 86.4344 314.385 85.9744 312.705 85.7044L311.455 85.5144L310.215 85.3944L308.985 85.2944L307.765 85.2644C307.355 85.2844 306.955 85.3044 306.545 85.3444L305.345 85.5444C304.555 85.6944 303.795 85.7044 303.005 85.5644C301.415 85.2744 299.815 84.8844 297.745 83.8244H297.735C297.545 83.7344 297.475 83.5044 297.575 83.3144C297.585 83.3044 297.585 83.2844 297.595 83.2744C298.915 81.2944 300.805 80.3644 302.735 79.9044C303.215 79.8144 303.715 79.7544 304.205 79.7544C304.695 79.7644 305.185 79.8544 305.665 79.9444L307.095 80.3544C307.565 80.5144 308.025 80.6544 308.495 80.7844L309.865 81.2344L311.205 81.7544L312.495 82.3744L313.735 83.0644C315.345 84.0544 316.825 85.1944 318.075 86.5444C318.185 86.6644 318.175 86.8444 318.055 86.9544C317.955 87.0244 317.845 87.0444 317.745 87.0144Z" fill="white"/>
<path d="M250.115 113.034C253.749 113.034 256.695 109.059 256.695 104.154C256.695 99.2501 253.749 95.2744 250.115 95.2744C246.481 95.2744 243.535 99.2501 243.535 104.154C243.535 109.059 246.481 113.034 250.115 113.034Z" fill="white" stroke="white" stroke-width="5.6693" stroke-miterlimit="10" stroke-linecap="round" stroke-linejoin="round"/>
<path d="M304.675 113.695C308.309 113.695 311.255 109.719 311.255 104.815C311.255 99.9103 308.309 95.9346 304.675 95.9346C301.041 95.9346 298.095 99.9103 298.095 104.815C298.095 109.719 301.041 113.695 304.675 113.695Z" fill="white" stroke="white" stroke-width="5.6693" stroke-miterlimit="10" stroke-linecap="round" stroke-linejoin="round"/>
<path d="M276.655 127.545C274.385 127.845 272.025 126.205 271.525 123.975C271.185 122.495 271.605 120.935 272.285 119.575C272.975 118.225 273.915 117.025 274.755 115.755C276.425 113.215 277.625 110.375 278.435 107.445" fill="white"/>
<path d="M276.655 127.545C275.755 128.875 273.975 129.445 272.165 129.295C270.815 128.395 269.645 127.155 269.035 125.495C268.405 123.815 268.505 122.155 268.835 120.745C269.175 119.335 269.805 118.105 270.435 117.085C271.075 116.055 271.715 115.195 272.245 114.405C272.765 113.635 273.225 112.825 273.655 111.995C274.075 111.155 274.465 110.295 274.805 109.405C275.955 108.825 277.055 108.145 278.435 107.445C279.245 108.755 279.705 110.065 280.105 111.435C279.695 112.495 279.235 113.545 278.715 114.565C278.195 115.585 277.605 116.595 276.965 117.555C276.335 118.495 275.735 119.315 275.275 120.065C274.815 120.815 274.505 121.475 274.355 122.105C274.205 122.715 274.235 123.245 274.355 123.525C274.465 123.835 274.755 124.245 275.175 124.435C275.125 125.365 275.485 126.485 276.655 127.545Z" fill="white"/>
<path d="M149.085 613.795C142.365 613.795 136.915 608.345 136.915 601.625V381.185C136.915 374.465 142.365 369.015 149.085 369.015C155.805 369.015 161.255 374.465 161.255 381.185V601.615C161.255 608.345 155.805 613.795 149.085 613.795Z" fill="white" stroke="white" stroke-width="5.6693" stroke-miterlimit="10" stroke-linecap="round" stroke-linejoin="round"/>
<path d="M136.905 586.815H134.065C129.095 586.815 125.065 582.785 125.065 577.815V404.985C125.065 400.015 129.095 395.985 134.065 395.985H136.905V586.815Z" fill="white" stroke="white" stroke-width="5.6693" stroke-miterlimit="10" stroke-linecap="round" stroke-linejoin="round"/>
<path d="M408.995 613.795C402.275 613.795 396.825 608.345 396.825 601.625V381.185C396.825 374.465 402.275 369.015 408.995 369.015C415.715 369.015 421.165 374.465 421.165 381.185V601.615C421.165 608.345 415.715 613.795 408.995 613.795Z" fill="white" stroke="white" stroke-width="5.6693" stroke-miterlimit="10" stroke-linecap="round" stroke-linejoin="round"/>
<path d="M421.165 583.525H424.005C428.975 583.525 433.005 579.495 433.005 574.525V401.695C433.005 396.725 428.975 392.695 424.005 392.695H421.165V583.525Z" fill="white" stroke="white" stroke-width="5.6693" stroke-miterlimit="10" stroke-linecap="round" stroke-linejoin="round"/>
<path d="M340.235 103.825C340.235 103.825 323.125 63.0246 321.155 54.4746C319.185 45.9246 312.605 66.3146 269.825 68.9546C227.045 71.5946 221.135 74.2146 221.135 74.2146L218.175 104.155C218.175 104.155 205.345 84.7446 207.975 48.5546C210.605 12.3646 223.105 24.2046 223.105 24.2046C223.105 24.2046 216.525 9.07459 227.715 6.43459C238.905 3.80459 263.245 1.82459 269.165 3.80459C275.085 5.77459 286.275 10.3846 286.275 10.3846C286.275 10.3846 286.275 0.514587 298.775 5.12459C311.275 9.73459 332.995 9.07459 340.225 32.1046C347.455 55.1346 346.155 97.2446 340.235 103.825Z" fill="white" stroke="white" stroke-width="5.6693" stroke-miterlimit="10" stroke-linecap="round" stroke-linejoin="round"/>
<path opacity="0.1" d="M262.705 171.585C262.705 171.585 284.305 175.555 297.675 170.315C300.015 169.395 294.175 179.505 279.705 178.845C265.235 178.185 262.705 171.585 262.705 171.585Z" fill="white" stroke="white" stroke-width="5.6693" stroke-miterlimit="10" stroke-linecap="round" stroke-linejoin="round"/>
<path d="M258.635 142.244C262.915 143.634 265.305 143.844 269.495 144.294C271.395 144.494 274.825 144.884 276.735 144.954C281.985 145.124 286.475 144.964 292.525 144.294C294.075 144.124 297.005 143.564 298.445 142.974C299.885 142.394 300.135 140.554 300.415 139.024C299.405 138.514 297.915 139.124 296.785 139.254C295.875 139.364 294.725 138.814 293.835 139.024C292.495 139.324 291.255 139.664 289.885 139.684C279.115 139.854 268.405 140.474 257.845 138.364C257.645 139.034 258.205 140.534 258.305 141.664" fill="white"/>
<path d="M256.375 150.444C260.835 151.874 265.435 152.364 270.075 152.864C274.015 153.294 277.915 153.574 281.885 153.514C286.755 153.444 291.715 153.084 296.515 152.244C298.835 151.834 301.225 151.254 303.255 150.034C306.405 148.134 307.985 144.784 308.625 141.304C309.025 139.114 309.035 136.714 307.765 134.754C306.495 132.794 304.855 131.684 302.685 130.844C299.985 129.804 297.245 130.664 294.535 131.074C295.285 130.974 296.045 130.874 296.795 130.774C296.555 130.794 296.315 130.794 296.075 130.754C296.825 130.854 297.585 130.954 298.335 131.054C296.845 130.814 295.345 130.444 293.835 130.534C292.165 130.634 290.605 131.114 288.965 131.384C289.715 131.284 290.475 131.184 291.225 131.084C288.865 131.384 286.405 131.264 284.025 131.314C281.585 131.364 279.145 131.414 276.715 131.414C271.855 131.414 267.005 131.224 262.185 130.594C262.935 130.694 263.695 130.794 264.445 130.894C262.995 130.694 261.555 130.454 260.115 130.174C257.945 129.754 255.505 129.784 253.565 131.034C251.805 132.164 250.035 133.974 249.655 136.114C249.285 138.214 249.295 139.464 249.675 141.594C249.795 142.264 249.955 142.914 250.075 143.584C249.975 142.834 249.875 142.074 249.775 141.324C249.785 141.444 249.805 141.554 249.815 141.674C250.095 144.004 250.575 145.964 252.305 147.684C253.775 149.154 256.195 150.274 258.315 150.174C260.515 150.074 262.795 149.354 264.325 147.684C265.745 146.134 267.075 143.854 266.815 141.674C266.625 140.054 266.305 138.504 266.045 136.904C266.145 137.654 266.245 138.414 266.345 139.164C266.315 138.974 266.305 138.784 266.315 138.594C266.215 139.344 266.115 140.104 266.015 140.854C266.025 140.784 266.045 140.704 266.055 140.634C262.565 142.614 259.085 144.594 255.595 146.574C262.315 147.894 269.145 148.394 275.985 148.414C279.075 148.424 282.165 148.354 285.245 148.294C288.935 148.214 292.475 148.074 296.095 147.244C295.345 147.344 294.585 147.444 293.835 147.544C294.225 147.494 294.535 147.514 294.925 147.554C294.175 147.454 293.415 147.354 292.665 147.254C294.435 147.564 296.125 147.864 297.925 147.624C299.055 147.474 300.165 147.214 301.295 147.064C300.545 147.164 299.785 147.264 299.035 147.364C299.275 147.334 299.525 147.334 299.765 147.354C299.015 147.254 298.255 147.154 297.505 147.054C297.735 147.074 297.955 147.134 298.165 147.244C296.185 143.754 294.205 140.274 292.225 136.784C292.075 137.624 291.925 138.454 291.615 139.254C291.905 138.574 292.185 137.904 292.475 137.224C292.345 137.504 292.215 137.744 292.035 137.994C292.475 137.424 292.925 136.844 293.365 136.274C293.245 136.424 293.115 136.564 292.955 136.684C293.525 136.244 294.105 135.794 294.675 135.354C294.515 135.474 294.345 135.574 294.165 135.654C294.845 135.364 295.515 135.084 296.195 134.794C294.485 135.444 292.645 135.774 290.835 136.044C291.585 135.944 292.345 135.844 293.095 135.744C283.885 136.964 274.705 136.574 265.535 135.364C266.285 135.464 267.045 135.564 267.795 135.664C265.445 135.334 263.165 134.794 260.905 134.064C256.665 132.704 251.435 135.654 250.445 140.004C249.375 144.634 251.835 148.994 256.375 150.444Z" fill="white"/>
<path d="M257.325 138.044C257.325 138.044 270.485 140.014 279.695 140.014C288.905 140.014 300.095 138.694 300.095 138.694C300.095 138.694 301.415 154.484 279.695 155.144C257.985 155.814 257.325 138.044 257.325 138.044Z" fill="white" stroke="white" stroke-width="5.6693" stroke-miterlimit="10" stroke-linecap="round" stroke-linejoin="round"/>
<path d="M260.685 146.194C263.465 145.444 266.405 145.664 269.275 145.894C274.305 146.294 279.345 146.694 284.375 147.114C287.895 147.404 292.505 148.324 295.805 149.564C295.725 150.754 294.285 151.094 293.175 151.534C291.995 152.004 291.115 153.194 289.885 153.504C288.695 153.804 287.815 154.014 286.595 154.164C284.255 154.454 282.355 155.194 280.015 155.484C279.105 155.594 275.675 154.854 274.755 154.824C272.735 154.764 270.725 154.224 268.835 153.504C267.865 153.134 267.175 152.554 266.205 152.184C265.635 151.964 264.735 151.224 264.235 150.864C263.725 150.504 263.325 150.024 262.915 149.544C262.105 148.584 261.095 147.874 260.285 146.914" fill="white"/>
<path d="M262.955 154.395C263.545 154.245 264.135 154.135 264.735 154.045C263.985 154.145 263.225 154.245 262.475 154.345C266.415 153.865 270.475 154.495 274.405 154.805C278.365 155.125 282.355 155.325 286.295 155.825C285.545 155.725 284.785 155.625 284.035 155.525C287.265 155.965 290.495 156.645 293.565 157.765C291.585 154.275 289.605 150.795 287.625 147.305C287.615 147.495 287.565 147.665 287.475 147.835C287.765 147.155 288.045 146.485 288.335 145.805C288.285 145.875 288.235 145.955 288.195 146.025C288.635 145.455 289.085 144.875 289.525 144.305C289.405 144.445 289.275 144.565 289.125 144.675C289.695 144.235 290.275 143.785 290.845 143.345C290.585 143.505 290.335 143.635 290.055 143.765C290.735 143.475 291.405 143.195 292.085 142.905C290.755 143.435 289.335 143.835 288.135 144.615C287.385 145.105 286.755 145.695 285.935 146.065C286.615 145.775 287.285 145.495 287.965 145.205C286.935 145.535 285.855 145.745 284.795 145.905C285.545 145.805 286.305 145.705 287.055 145.605C285.175 145.855 283.325 146.085 281.485 146.525C280.255 146.815 279.025 147.115 277.775 147.285C278.525 147.185 279.285 147.085 280.035 146.985C279.545 147.025 279.045 146.945 278.565 146.885C279.315 146.985 280.075 147.085 280.825 147.185C278.345 146.835 275.865 146.495 273.375 146.215C274.125 146.315 274.885 146.415 275.635 146.515C274.075 146.285 272.585 145.855 271.105 145.315C271.785 145.605 272.455 145.885 273.135 146.175C271.495 145.485 269.965 144.585 268.525 143.545C269.095 143.985 269.675 144.435 270.245 144.875C269.525 144.315 269.005 143.595 268.365 142.955C267.685 142.275 266.945 141.655 266.295 140.935C263.325 137.605 257.255 137.685 254.265 140.935C251.005 144.485 251.095 149.405 254.265 152.965C255.325 154.145 256.505 155.335 257.645 156.435C259.045 157.785 260.755 158.965 262.495 159.825C264.555 160.835 266.575 161.865 268.795 162.465C270.905 163.035 273.095 163.145 275.255 163.395C274.505 163.295 273.745 163.195 272.995 163.095C275.215 163.395 277.465 163.985 279.705 164.025C282.785 164.075 285.825 162.815 288.855 162.395C288.105 162.495 287.345 162.595 286.595 162.695C288.975 162.375 291.265 162.135 293.485 161.195C294.365 160.825 295.085 160.505 295.835 159.945C296.365 159.555 296.855 159.175 297.465 158.905C296.785 159.195 296.115 159.475 295.435 159.765C296.785 159.245 298.175 158.795 299.415 158.045C301.585 156.735 303.575 154.395 304.015 151.845C304.395 149.635 304.435 147.275 303.155 145.295C301.895 143.345 300.255 142.185 298.075 141.385C292.055 139.185 285.605 138.725 279.265 138.215C276.015 137.955 272.765 137.695 269.525 137.435C265.775 137.135 262.115 137.095 258.425 138.015C254.105 139.095 251.095 144.175 252.485 148.475C253.935 152.925 258.325 155.555 262.955 154.395Z" fill="white"/>
<path d="M269.825 528.854H212.575V380.995C212.575 365.185 225.395 352.375 241.195 352.375C257.005 352.375 269.815 365.195 269.815 380.995V528.854H269.825Z" fill="white" stroke="white" stroke-width="5.6693" stroke-miterlimit="10" stroke-linecap="round" stroke-linejoin="round"/>
<path d="M345.495 528.854H288.245V380.995C288.245 365.185 301.065 352.375 316.865 352.375C332.675 352.375 345.485 365.195 345.485 380.995V528.854H345.495Z" fill="white" stroke="white" stroke-width="5.6693" stroke-miterlimit="10" stroke-linecap="round" stroke-linejoin="round"/>
<path d="M205.345 527.024C205.345 527.024 221.285 501.984 238.325 502.594C255.365 503.204 271.305 523.964 271.855 527.024C272.405 530.074 272.405 534.354 270.205 536.184C268.005 538.014 210.285 538.624 208.085 536.794C205.895 534.964 203.145 534.964 205.345 527.024Z" fill="white" stroke="white" stroke-width="5.6693" stroke-miterlimit="10" stroke-linecap="round" stroke-linejoin="round"/>
<path d="M286.085 527.024C286.085 527.024 301.465 501.984 317.895 502.594C334.335 503.204 349.705 523.964 350.235 527.024C350.765 530.084 350.765 534.354 348.645 536.184C346.525 538.014 290.855 538.624 288.735 536.794C286.615 534.964 283.965 534.964 286.085 527.024Z" fill="white" stroke="white" stroke-width="5.6693" stroke-miterlimit="10" stroke-linecap="round" stroke-linejoin="round"/>
<path d="M329.535 246.004L321.535 190.004C321.535 190.004 338.995 191.614 350.535 207.004C353.535 211.004 355.375 214.964 358.535 221.004C364.635 232.644 369.535 251.004 369.535 254.004C369.535 257.724 334.535 260.004 334.535 260.004L329.535 246.004Z" fill="white" stroke="white" stroke-width="5.6693" stroke-miterlimit="10" stroke-linecap="round" stroke-linejoin="round"/>
<path d="M178.535 234.005C179.225 233.195 185.115 239.325 191.735 248.795C198.365 258.265 203.175 266.605 202.485 267.415C201.795 268.225 195.865 261.205 189.235 251.725C182.615 242.265 177.845 234.815 178.535 234.005Z" fill="white" stroke="white" stroke-width="5.6693" stroke-miterlimit="10" stroke-linecap="round" stroke-linejoin="round"/>
<path d="M351.759 258.978C361.174 257.487 368.686 255.518 368.538 254.58C368.389 253.641 360.636 254.089 351.221 255.58C341.806 257.071 334.294 259.04 334.442 259.979C334.591 260.917 342.344 260.469 351.759 258.978Z" fill="white" stroke="white" stroke-width="5.6693" stroke-miterlimit="10" stroke-linecap="round" stroke-linejoin="round"/>
<path d="M337.535 258.005L355.245 305.175C355.245 305.175 359.855 320.305 361.825 322.945C363.795 325.575 364.815 327.555 364.815 327.555C364.815 327.555 366.435 330.185 367.095 334.135C367.755 338.085 367.755 341.375 371.045 340.715C374.335 340.055 372.365 324.925 372.365 324.925C372.365 324.925 380.265 326.895 380.915 330.845C381.575 334.795 383.145 343.195 384.205 345.325C385.525 347.955 386.695 348.795 388.155 348.615C393.415 347.955 390.035 341.615 390.785 342.695C395.395 349.275 399.375 342.815 398.025 339.405C398.025 339.405 401.315 342.695 402.635 341.375C403.955 340.055 402.635 335.455 402.635 335.455C402.635 335.455 404.605 334.135 405.265 332.825C405.925 331.505 403.945 327.565 399.345 322.955C394.745 318.345 382.235 315.715 380.265 312.425C378.295 309.135 361.555 254.015 361.555 254.015L337.535 258.005Z" fill="white" stroke="white" stroke-width="5.6693" stroke-miterlimit="10" stroke-linecap="round" stroke-linejoin="round"/>
<path d="M402.625 335.455C402.625 335.455 398.045 323.515 388.045 320.515L402.625 335.455Z" fill="white"/>
<path d="M402.625 335.455C400.865 334.255 399.515 333.065 398.255 331.875C397.005 330.675 395.875 329.505 394.805 328.305C393.725 327.115 392.675 325.955 391.615 324.695C390.545 323.425 389.395 322.215 388.045 320.505C390.095 319.945 392.245 320.225 394.125 321.005C395.995 321.805 397.685 323.005 399.005 324.485C400.335 325.955 401.355 327.665 402.025 329.495C402.655 331.345 403.025 333.325 402.625 335.455Z" fill="white"/>
<path d="M398.015 339.394C398.015 339.394 394.035 328.504 386.035 323.504L398.015 339.394Z" fill="white"/>
<path d="M398.015 339.394C396.315 338.254 395.075 337.084 393.925 335.884C392.795 334.674 391.805 333.454 390.905 332.194C390.005 330.924 389.165 329.654 388.385 328.254C387.595 326.844 386.815 325.434 386.045 323.504C388.085 323.434 389.955 324.114 391.545 325.104C393.115 326.114 394.475 327.404 395.515 328.894C396.565 330.374 397.355 332.014 397.835 333.764C398.285 335.524 398.495 337.394 398.015 339.394Z" fill="white"/>
<path d="M390.775 342.684C390.775 342.684 390.265 330.504 381.155 323.504L390.775 342.684Z" fill="white"/>
<path d="M390.775 342.685C389.475 340.945 388.545 339.385 387.685 337.835C386.845 336.285 386.075 334.805 385.365 333.315C384.665 331.815 383.975 330.345 383.285 328.785C382.635 327.165 381.835 325.625 381.155 323.515C383.295 323.755 385.255 324.685 386.795 326.035C388.365 327.365 389.635 329.035 390.485 330.875C391.355 332.705 391.865 334.685 391.975 336.695C392.065 338.685 391.825 340.755 390.775 342.685Z" fill="white"/>
<path d="M182.579 594.378H190.949V541.018H182.579V594.378Z" fill="white" stroke="white" stroke-width="5.6693" stroke-miterlimit="10" stroke-linecap="round" stroke-linejoin="round"/>
<path d="M190.955 588.515H178.395V596.885H190.955V588.515Z" fill="white" stroke="white" stroke-width="5.6693" stroke-miterlimit="10" stroke-linecap="round" stroke-linejoin="round"/>
<path d="M173.825 630.495H167.665C165.145 630.495 163.095 628.445 163.095 625.925V562.215C163.095 559.695 165.145 557.645 167.665 557.645H173.825C176.345 557.645 178.395 559.695 178.395 562.215V625.925C178.395 628.455 176.345 630.495 173.825 630.495Z" fill="white" stroke="white" stroke-width="5.6693" stroke-miterlimit="10" stroke-linecap="round" stroke-linejoin="round"/>
<path d="M163.095 620.864H161.485C160.165 620.864 159.105 619.794 159.105 618.484V569.654C159.105 568.334 160.175 567.274 161.485 567.274H163.095V620.864Z" fill="white" stroke="white" stroke-width="5.6693" stroke-miterlimit="10" stroke-linecap="round" stroke-linejoin="round"/>
<path d="M376.475 536.004H368.105V589.364H376.475V536.004Z" fill="white" stroke="white" stroke-width="5.6693" stroke-miterlimit="10" stroke-linecap="round" stroke-linejoin="round"/>
<path d="M368.104 591.884L380.664 591.884L380.664 583.514L368.104 583.514L368.104 591.884Z" fill="white" stroke="white" stroke-width="5.6693" stroke-miterlimit="10" stroke-linecap="round" stroke-linejoin="round"/>
<path d="M385.235 625.495H391.395C393.915 625.495 395.965 623.445 395.965 620.925V557.215C395.965 554.695 393.915 552.645 391.395 552.645H385.235C382.715 552.645 380.665 554.695 380.665 557.215V620.925C380.665 623.455 382.705 625.495 385.235 625.495Z" fill="white" stroke="white" stroke-width="5.6693" stroke-miterlimit="10" stroke-linecap="round" stroke-linejoin="round"/>
<path d="M395.965 615.864H397.575C398.895 615.864 399.955 614.794 399.955 613.484V564.654C399.955 563.334 398.885 562.274 397.575 562.274H395.965V615.864Z" fill="white" stroke="white" stroke-width="5.6693" stroke-miterlimit="10" stroke-linecap="round" stroke-linejoin="round"/>
<path d="M237.535 190.004L178.865 233.924L202.715 267.814L229.535 245.004L237.535 190.004Z" fill="white" stroke="white" stroke-width="5.6693" stroke-miterlimit="10" stroke-linecap="round" stroke-linejoin="round"/>
<path d="M201.535 266.004C201.535 266.004 161.005 288.994 154.675 289.924C140.535 292.004 46.535 243.004 46.535 243.004L50.535 222.004L158.535 256.004L183.535 240.004L201.535 266.004Z" fill="white" stroke="white" stroke-width="5.6693" stroke-miterlimit="10" stroke-linecap="round" stroke-linejoin="round"/>
<path d="M72.465 254.274L77.535 235.014C77.535 235.014 57.155 228.094 53.865 225.364C50.585 222.634 40.085 212.364 38.745 209.874C37.405 207.384 34.465 190.874 32.615 189.024C30.775 187.174 25.435 187.934 25.995 192.494C26.555 197.054 27.005 213.044 27.005 213.044C27.005 213.044 17.545 212.234 13.495 212.154C9.44497 212.074 5.37497 215.684 5.01497 217.464C4.65497 219.244 5.70497 223.154 6.77497 223.374C7.84497 223.594 4.42497 225.844 3.99497 227.974C3.56497 230.104 3.90497 233.874 5.68497 234.234C7.46497 234.594 3.96497 237.214 3.68497 238.634C3.39497 240.054 3.53497 243.044 5.23497 243.754C6.93497 244.464 5.72497 244.964 5.29497 247.094C4.86497 249.224 4.71497 251.784 6.77497 252.574C8.83497 253.364 14.295 257.064 24.325 256.134C34.355 255.214 37.985 253.724 41.265 252.174C44.545 250.614 48.545 246.994 48.545 246.994L72.465 254.274Z" fill="#EFCAA6"/>
<g opacity="0.5">
<g opacity="0.5">
<g opacity="0.5">
<path opacity="0.5" d="M9.29495 224.265C11.9049 224.855 14.5649 224.965 17.2349 224.985C19.4449 224.995 21.4649 225.005 23.0249 223.225C24.0949 222.005 25.1249 219.955 24.3049 218.355C23.7849 217.345 23.2349 216.425 22.7949 215.365C22.4549 214.555 22.0449 213.905 21.3349 213.375C21.1949 213.615 21.0449 213.865 20.9049 214.105C25.1649 216.995 24.3049 222.195 23.8649 226.605C23.4349 230.925 23.9149 235.225 24.2149 239.545C24.3649 241.675 24.4549 243.815 24.3349 245.955C24.2149 248.025 24.0649 250.625 23.0149 252.475C21.7949 254.635 18.1249 253.245 16.2549 252.755C13.9149 252.135 11.6549 251.285 9.47495 250.245C8.98495 250.015 8.55495 250.745 9.04495 250.975C12.5149 252.635 16.2949 253.955 20.1249 254.425C21.5349 254.595 22.8549 254.335 23.6549 253.055C24.5149 251.665 24.7649 249.805 24.9749 248.215C25.5149 244.185 25.1049 240.115 24.8049 236.085C24.6449 234.015 24.5149 231.935 24.5349 229.845C24.5649 227.735 24.8649 225.665 25.0449 223.565C25.3949 219.665 24.7949 215.715 21.3349 213.375C20.8749 213.065 20.4749 213.785 20.9049 214.105C22.1149 215.015 22.3549 216.865 23.1349 218.115C23.8249 219.215 23.8349 220.155 23.2649 221.335C22.8449 222.195 22.2349 222.975 21.4349 223.495C19.8849 224.495 17.5649 224.145 15.8049 224.115C13.6949 224.075 11.5949 223.905 9.52495 223.445C8.98495 223.325 8.76495 224.145 9.29495 224.265Z" fill="#E3BB94"/>
</g>
</g>
<g opacity="0.5">
<g opacity="0.5">
<path opacity="0.5" d="M8.42493 243.595C11.5149 244.555 14.6049 245.525 17.6949 246.485C19.0749 246.915 20.6649 247.215 21.9249 247.935C23.3449 248.755 23.3749 250.245 23.2949 251.715C23.2649 252.265 24.1149 252.265 24.1449 251.715C24.2149 250.375 24.2049 248.925 23.2349 247.885C22.2549 246.835 20.6749 246.525 19.3649 246.115C15.7949 244.995 12.2249 243.885 8.65493 242.765C8.12493 242.615 7.90493 243.435 8.42493 243.595Z" fill="#E3BB94"/>
</g>
</g>
<g opacity="0.5">
<g opacity="0.5">
<path opacity="0.5" d="M13.865 244.685C16.645 245.165 19.875 245.235 22.535 244.145C23.445 243.775 24.275 243.185 24.685 242.265C25.215 241.085 24.925 239.665 24.625 238.465C24.365 237.415 23.845 236.665 22.795 236.275C21.365 235.755 19.755 235.515 18.255 235.255C16.735 234.995 15.195 234.805 13.655 234.675C12.105 234.555 10.095 234.845 8.66496 234.165C8.59496 234.425 8.52496 234.695 8.45496 234.955C11.435 234.815 14.395 234.935 17.365 235.265C19.595 235.505 22.135 235.075 23.715 233.275C24.365 232.535 24.455 231.595 24.365 230.645C24.265 229.575 24.235 228.235 23.755 227.255C22.865 225.465 20.255 223.995 18.285 224.195C17.745 224.245 17.745 225.105 18.285 225.045C20.125 224.865 22.805 226.405 23.195 228.315C23.395 229.305 23.605 230.415 23.545 231.435C23.475 232.735 22.415 233.305 21.395 233.845C19.365 234.935 17.245 234.365 15.075 234.195C12.875 234.025 10.665 234.005 8.46496 234.115C8.07496 234.135 7.84496 234.715 8.25496 234.905C9.15496 235.335 10.065 235.365 11.045 235.395C12.365 235.435 13.675 235.515 14.995 235.655C16.335 235.795 17.665 235.995 18.975 236.245C20.175 236.475 21.555 236.635 22.665 237.135C23.845 237.665 24.045 239.285 24.125 240.445C24.235 241.945 23.405 242.925 22.055 243.425C19.585 244.345 16.665 244.305 14.105 243.855C13.555 243.775 13.325 244.595 13.865 244.685Z" fill="#E3BB94"/>
</g>
</g>
<g opacity="0.5">
<g opacity="0.5">
<path opacity="0.5" d="M23.8349 221.715C23.4049 223.345 23.1349 225.025 23.0449 226.715C23.2849 226.615 23.5249 226.515 23.7749 226.415C23.4549 226.135 23.3349 225.705 23.0749 225.375C22.9349 225.195 22.7649 225.065 22.5749 224.945C22.4949 224.895 22.4049 224.845 22.3249 224.785C22.3049 224.765 22.2849 224.735 22.2549 224.725C22.2449 224.715 22.2349 224.705 22.2349 224.695C22.1949 224.615 22.1749 224.665 22.1849 224.855L22.3549 224.785C22.4749 224.745 22.5949 224.695 22.7149 224.645C22.9349 224.555 23.1349 224.445 23.3349 224.315C23.7749 224.025 24.1349 223.675 24.4549 223.255C24.7349 222.895 24.2149 222.495 23.8749 222.675C23.0049 223.125 22.2949 223.835 21.8149 224.685C22.0049 224.635 22.2049 224.585 22.3949 224.535C21.9849 224.295 21.4849 224.235 21.0449 224.415C20.5449 224.615 20.7249 225.345 21.2749 225.235C21.6949 225.145 22.1149 225.115 22.5449 225.135C22.6349 225.135 22.7349 225.145 22.8249 225.155C22.8649 225.155 22.9149 225.165 22.9549 225.175C22.8449 225.055 22.8149 225.065 22.8649 225.185C22.8649 225.265 22.9149 225.385 22.9349 225.465C22.9649 225.585 22.9949 225.715 23.0249 225.835C23.1549 226.365 23.9749 226.145 23.8449 225.605C23.7749 225.315 23.7349 224.975 23.6049 224.705C23.4649 224.415 23.2149 224.355 22.9149 224.315C22.2949 224.245 21.6649 224.285 21.0449 224.415C21.1249 224.685 21.1949 224.965 21.2749 225.235C21.5149 225.135 21.7449 225.135 21.9749 225.265C22.1649 225.385 22.4449 225.315 22.5549 225.115C22.9649 224.375 23.5649 223.795 24.3049 223.405C24.1149 223.215 23.9149 223.015 23.7249 222.825C23.4049 223.245 22.9749 223.575 22.5049 223.805C22.0649 224.025 21.3649 224.115 21.3949 224.755C21.4149 225.325 21.9849 225.495 22.3349 225.805C22.5049 225.955 22.6049 226.185 22.7149 226.375C22.8449 226.605 22.9849 226.835 23.1949 227.015C23.4749 227.265 23.9049 227.095 23.9249 226.715C24.0149 225.095 24.2649 223.505 24.6849 221.945C24.8049 221.415 23.9849 221.185 23.8349 221.715Z" fill="#E3BB94"/>
</g>
</g>
<g opacity="0.5">
<g opacity="0.5">
<path opacity="0.5" d="M23.355 233.494C23.205 234.084 22.475 234.404 21.995 234.684C21.675 234.864 21.345 235.024 20.995 235.114C20.615 235.214 20.215 235.204 19.825 235.204C19.275 235.204 19.275 236.044 19.825 236.054C20.965 236.084 22.085 236.214 23.195 236.474C23.435 236.534 23.685 236.614 23.945 236.554C24.215 236.494 24.415 236.264 24.415 235.994C24.415 235.694 24.205 235.474 23.975 235.334C23.885 235.274 23.785 235.214 23.685 235.174C23.755 235.204 23.615 235.124 23.615 235.124C23.615 235.144 23.615 235.164 23.625 235.174C23.615 235.264 23.565 235.314 23.455 235.334C23.315 235.234 23.185 235.124 23.045 235.024C23.225 235.694 23.345 236.374 23.405 237.074C23.665 237.004 23.935 236.934 24.195 236.864C24.025 236.534 23.845 236.204 23.675 235.874C23.515 235.564 23.335 235.314 22.995 235.194C22.775 235.114 22.525 235.284 22.475 235.494C22.415 235.724 22.555 235.944 22.775 236.014C22.805 236.024 22.845 236.124 22.865 236.154C22.935 236.274 22.995 236.394 23.055 236.514C23.195 236.774 23.325 237.034 23.465 237.294C23.655 237.654 24.295 237.504 24.255 237.084C24.195 236.314 24.065 235.554 23.865 234.814C23.815 234.624 23.645 234.514 23.455 234.504C22.975 234.484 22.675 234.984 22.815 235.414C22.885 235.614 23.035 235.774 23.205 235.884C23.285 235.944 23.375 235.984 23.455 236.024C23.485 236.044 23.525 236.064 23.555 236.084C23.565 236.094 23.585 236.104 23.595 236.114C23.675 236.194 23.665 236.124 23.585 235.894C23.635 235.844 23.685 235.794 23.735 235.744C23.675 235.784 23.695 235.784 23.785 235.744C23.735 235.744 23.715 235.744 23.745 235.744C23.715 235.734 23.595 235.704 23.545 235.694C23.385 235.654 23.235 235.624 23.075 235.584C22.715 235.504 22.365 235.444 22.005 235.394C21.285 235.294 20.565 235.224 19.835 235.214C19.835 235.494 19.835 235.784 19.835 236.064C20.305 236.064 20.775 236.054 21.225 235.944C21.675 235.834 22.095 235.614 22.495 235.384C23.175 234.994 23.975 234.544 24.185 233.724C24.315 233.184 23.495 232.964 23.355 233.494Z" fill="#E3BB94"/>
</g>
</g>
<g opacity="0.5">
<g opacity="0.5">
<path opacity="0.5" d="M15.795 245.355C18.675 245.965 22.375 246.545 24.465 243.895C24.795 243.475 24.255 242.885 23.865 243.295C23.275 243.915 22.405 244.025 21.595 244.155C20.765 244.285 19.915 244.435 19.225 244.955C18.895 245.195 18.995 245.735 19.435 245.745C20.685 245.785 21.915 245.985 23.115 246.315C23.155 246.035 23.195 245.755 23.225 245.475C21.945 245.575 20.675 245.455 19.395 245.325C18.905 245.275 18.845 246.025 19.285 246.165C20.295 246.475 21.295 246.795 22.285 247.145C22.675 247.285 23.215 247.375 23.545 247.645C23.915 247.935 23.585 248.515 23.415 248.835C23.675 248.865 23.935 248.905 24.195 248.935C24.115 248.615 23.935 248.355 23.715 248.115C23.525 247.905 23.205 247.695 23.105 247.415C22.985 247.075 23.305 246.535 23.435 246.225C23.645 245.735 23.875 245.245 24.115 244.775C23.855 244.745 23.595 244.705 23.335 244.675C23.735 245.675 23.805 246.735 23.505 247.775C23.765 247.745 24.025 247.705 24.285 247.675C24.005 247.075 23.875 246.435 23.885 245.775C23.895 245.225 23.065 245.235 23.035 245.775C22.985 246.595 22.935 247.415 22.885 248.235C22.855 248.785 23.705 248.775 23.735 248.235C23.785 247.415 23.835 246.595 23.885 245.775C23.605 245.775 23.315 245.775 23.035 245.775C23.025 246.595 23.205 247.365 23.555 248.105C23.715 248.445 24.235 248.335 24.335 248.005C24.665 246.835 24.615 245.585 24.165 244.455C24.045 244.145 23.575 243.995 23.385 244.355C23.125 244.865 22.885 245.385 22.655 245.905C22.465 246.365 22.185 246.875 22.225 247.385C22.255 247.745 22.465 248.045 22.695 248.305C22.935 248.575 23.275 248.805 23.365 249.165C23.455 249.515 23.975 249.585 24.145 249.265C24.405 248.785 24.655 248.215 24.525 247.665C24.395 247.145 23.985 246.875 23.515 246.695C22.205 246.185 20.855 245.765 19.515 245.355C19.475 245.635 19.435 245.915 19.405 246.195C20.675 246.325 21.955 246.445 23.235 246.345C23.695 246.305 23.835 245.645 23.345 245.505C22.075 245.155 20.765 244.955 19.435 244.905C19.505 245.165 19.575 245.435 19.645 245.695C21.075 244.635 23.165 245.265 24.465 243.905C24.265 243.705 24.065 243.505 23.865 243.305C21.975 245.705 18.615 245.105 16.015 244.545C15.485 244.425 15.255 245.245 15.795 245.355Z" fill="#E3BB94"/>
</g>
</g>
</g>
<path d="M350.305 432.815H213.295C196.595 432.815 183.065 419.275 183.065 402.585V225.745C183.065 209.045 196.605 195.515 213.295 195.515H350.305C367.005 195.515 380.535 209.055 380.535 225.745V402.575C380.535 419.275 367.005 432.815 350.305 432.815Z" fill="#1A1A1A"/>
<path d="M345.615 437.815H212.775C196.075 437.815 182.545 424.275 182.545 407.585V230.745C182.545 214.045 196.085 200.515 212.775 200.515H345.615C362.315 200.515 375.845 214.055 375.845 230.745V407.575C375.845 424.275 362.315 437.815 345.615 437.815Z" fill="#333333"/>
<path d="M229.535 249.004L237.535 193.004L253.375 189.734C253.375 189.734 254.865 188.004 280.535 188.004C298.305 188.004 303.385 189.734 305.355 189.734L321.535 193.004L329.705 248.294C329.705 248.294 328.385 354.234 325.095 360.154C318.185 372.594 229.025 357.524 229.025 357.524L229.685 248.954" fill="#2E3192"/>
<path d="M327.065 359.535H229.025V413.495H327.065V359.535Z" fill="#36525E"/>
<path d="M366.885 440.365H190.535C183.085 440.365 177.045 434.325 177.045 426.875C177.045 419.425 183.085 413.385 190.535 413.385H366.885C374.335 413.385 380.375 419.425 380.375 426.875C380.375 434.325 374.335 440.365 366.885 440.365Z" fill="#545454"/>
<path d="M184.935 352.925H172.435V537.965H184.935V352.925Z" fill="#A5A0A3"/>
<path d="M385.635 352.925H373.135V537.965H385.635V352.925Z" fill="#A5A0A3"/>
<path d="M192.545 353.004H161.615C155.435 353.004 150.425 347.994 150.425 341.814V340.734C150.425 334.554 155.435 329.544 161.615 329.544H192.545C198.725 329.544 203.735 334.554 203.735 340.734V341.814C203.735 348.004 198.725 353.004 192.545 353.004Z" fill="#CCC9CD"/>
<path d="M396.425 353.004H365.495C359.315 353.004 354.305 347.994 354.305 341.814V339.734C354.305 333.554 359.315 328.544 365.495 328.544H396.425C402.605 328.544 407.615 333.554 407.615 339.734V341.814C407.615 348.004 402.605 353.004 396.425 353.004Z" fill="#CCC9CD"/>
<path d="M262.115 552.005H181.465C175.385 552.005 170.465 547.085 170.465 541.005V537.955H273.115V541.005C273.115 547.085 268.195 552.005 262.115 552.005Z" fill="#A5A0A3"/>
<path d="M375.955 552.005H295.305C289.225 552.005 284.305 547.085 284.305 541.005V537.955H386.955V541.005C386.955 547.085 382.025 552.005 375.955 552.005Z" fill="#A5A0A3"/>
<path d="M172.445 486.504H161.255V500.984H172.445V486.504Z" fill="#787878"/>
<path d="M396.825 486.504H385.635V500.984H396.825V486.504Z" fill="#787878"/>
<path d="M149.085 616.795C142.365 616.795 136.915 611.345 136.915 604.625V384.185C136.915 377.465 142.365 372.015 149.085 372.015C155.805 372.015 161.255 377.465 161.255 384.185V604.615C161.255 611.345 155.805 616.795 149.085 616.795Z" fill="#1D1D1B" stroke="black" stroke-miterlimit="10"/>
<path d="M136.905 589.815H134.065C129.095 589.815 125.065 585.785 125.065 580.815V407.985C125.065 403.015 129.095 398.985 134.065 398.985H136.905V589.815Z" fill="#BCB9BB"/>
<path d="M408.995 616.795C402.275 616.795 396.825 611.345 396.825 604.625V384.185C396.825 377.465 402.275 372.015 408.995 372.015C415.715 372.015 421.165 377.465 421.165 384.185V604.615C421.165 611.345 415.715 616.795 408.995 616.795Z" fill="#1D1D1B" stroke="black" stroke-miterlimit="10"/>
<path d="M421.165 586.525H424.005C428.975 586.525 433.005 582.495 433.005 577.525V404.695C433.005 399.725 428.975 395.695 424.005 395.695H421.165V586.525Z" fill="#BCB9BB"/>
<path d="M269.825 531.854H212.575V383.995C212.575 368.185 225.395 355.375 241.195 355.375C257.005 355.375 269.815 368.195 269.815 383.995V531.854H269.825Z" fill="#56869B"/>
<path d="M345.495 531.854H288.245V383.995C288.245 368.185 301.065 355.375 316.865 355.375C332.675 355.375 345.485 368.195 345.485 383.995V531.854H345.495Z" fill="#56869B"/>
<path d="M205.345 530.024C205.345 530.024 221.285 504.984 238.325 505.594C255.365 506.204 271.305 526.964 271.855 530.024C272.405 533.074 272.405 537.354 270.205 539.184C268.005 541.014 210.285 541.624 208.085 539.794C205.895 537.964 203.145 537.964 205.345 530.024Z" fill="#1B1464"/>
<path d="M286.085 530.024C286.085 530.024 301.465 504.984 317.895 505.594C334.335 506.204 349.705 526.964 350.235 530.024C350.765 533.084 350.765 537.354 348.645 539.184C346.525 541.014 290.855 541.624 288.735 539.794C286.615 537.964 283.965 537.964 286.085 530.024Z" fill="#1B1464"/>
<path d="M329.535 249.004L321.535 193.004C321.535 193.004 338.995 194.614 350.535 210.004C353.535 214.004 355.375 217.964 358.535 224.004C364.635 235.644 369.535 254.004 369.535 257.004C369.535 260.724 334.535 263.004 334.535 263.004L329.535 249.004Z" fill="#2E3192"/>
<path d="M178.535 237.005C179.225 236.195 185.115 242.325 191.735 251.795C198.365 261.265 203.175 269.605 202.485 270.415C201.795 271.225 195.865 264.205 189.235 254.725C182.615 245.265 177.845 237.815 178.535 237.005Z" fill="#1B1464"/>
<path d="M351.759 261.978C361.174 260.487 368.686 258.518 368.538 257.58C368.389 256.641 360.636 257.089 351.221 258.58C341.806 260.071 334.294 262.04 334.442 262.979C334.591 263.917 342.344 263.469 351.759 261.978Z" fill="#1B1464"/>
<path d="M337.535 261.005L355.245 308.175C355.245 308.175 359.855 323.305 361.825 325.945C363.795 328.575 364.815 330.555 364.815 330.555C364.815 330.555 366.435 333.185 367.095 337.135C367.755 341.085 367.755 344.375 371.045 343.715C374.335 343.055 372.365 327.925 372.365 327.925C372.365 327.925 380.265 329.895 380.915 333.845C381.575 337.795 383.145 346.195 384.205 348.325C385.525 350.955 386.695 351.795 388.155 351.615C393.415 350.955 390.035 344.615 390.785 345.695C395.395 352.275 399.375 345.815 398.025 342.405C398.025 342.405 401.315 345.695 402.635 344.375C403.955 343.055 402.635 338.455 402.635 338.455C402.635 338.455 404.605 337.135 405.265 335.825C405.925 334.505 403.945 330.565 399.345 325.955C394.745 321.345 382.235 318.715 380.265 315.425C378.295 312.135 361.555 257.015 361.555 257.015L337.535 261.005Z" fill="#EFCAA6"/>
<path d="M402.625 338.454C401.765 336.874 400.805 335.364 399.805 333.894C398.795 332.434 397.715 331.034 396.525 329.734C395.355 328.414 394.035 327.254 392.645 326.174C391.235 325.114 389.685 324.264 388.045 323.504C389.805 323.894 391.545 324.534 393.085 325.524C394.625 326.504 396.045 327.704 397.265 329.054C399.685 331.784 401.585 334.984 402.625 338.454Z" fill="#E3BB94"/>
<path d="M398.015 342.395C397.225 340.895 396.385 339.445 395.535 338.005C394.665 336.575 393.765 335.175 392.795 333.825C391.845 332.465 390.775 331.195 389.675 329.945C388.555 328.715 387.335 327.585 386.035 326.495C387.545 327.255 388.975 328.225 390.225 329.395C391.475 330.565 392.605 331.855 393.605 333.245C395.565 336.045 397.145 339.115 398.015 342.395Z" fill="#E3BB94"/>
<path d="M390.775 345.685C390.455 343.865 389.985 342.095 389.455 340.355C388.905 338.625 388.255 336.925 387.475 335.305C386.725 333.665 385.775 332.115 384.735 330.645L383.925 329.555L383.035 328.525C382.485 327.785 381.765 327.225 381.145 326.515C382.675 327.535 384.175 328.695 385.345 330.165C386.555 331.595 387.585 333.185 388.375 334.875C389.975 338.255 390.885 341.985 390.775 345.685Z" fill="#E3BB94"/>
<path d="M182.579 597.378H190.949V544.018H182.579V597.378Z" fill="#A5A0A3"/>
<path d="M190.955 591.515H178.395V599.885H190.955V591.515Z" fill="#A5A0A3"/>
<path d="M173.825 633.495H167.665C165.145 633.495 163.095 631.445 163.095 628.925V565.215C163.095 562.695 165.145 560.645 167.665 560.645H173.825C176.345 560.645 178.395 562.695 178.395 565.215V628.925C178.395 631.455 176.345 633.495 173.825 633.495Z" fill="#1D1D1B" stroke="black" stroke-miterlimit="10"/>
<path d="M163.095 623.864H161.485C160.165 623.864 159.105 622.794 159.105 621.484V572.654C159.105 571.334 160.175 570.274 161.485 570.274H163.095V623.864Z" fill="#BCB9BB"/>
<path d="M376.475 539.004H368.105V592.364H376.475V539.004Z" fill="#A5A0A3"/>
<path d="M368.104 594.884L380.664 594.884L380.664 586.514L368.104 586.514L368.104 594.884Z" fill="#A5A0A3"/>
<path d="M385.235 628.495H391.395C393.915 628.495 395.965 626.445 395.965 623.925V560.215C395.965 557.695 393.915 555.645 391.395 555.645H385.235C382.715 555.645 380.665 557.695 380.665 560.215V623.925C380.665 626.455 382.705 628.495 385.235 628.495Z" fill="#1D1D1B" stroke="black" stroke-miterlimit="10"/>
<path d="M395.965 618.864H397.575C398.895 618.864 399.955 617.794 399.955 616.484V567.654C399.955 566.334 398.885 565.274 397.575 565.274H395.965V618.864Z" fill="#BCB9BB"/>
<path d="M237.535 193.004L178.865 236.924L202.715 270.814L229.535 248.004L237.535 193.004Z" fill="#2E3192"/>
<path d="M201.535 269.004C201.535 269.004 161.005 291.994 154.675 292.924C140.535 295.004 46.535 246.004 46.535 246.004L50.535 225.004L158.535 259.004L183.535 243.004L201.535 269.004Z" fill="#EFCAA6"/>
<path d="M191.355 226.205L230.645 235.935L363.585 237.945" stroke="#A9D0FF" stroke-width="2.8346" stroke-miterlimit="10" stroke-linecap="square" stroke-linejoin="bevel"/>
<path d="M199.535 221.005L233.005 231.215L362.535 232.005C362.535 232.005 352.535 202.005 333.535 195.005C316.615 188.775 304.025 187.075 289.535 186.005C270.945 184.625 257.425 186.625 245.535 189.005C230.535 192.005 199.535 221.005 199.535 221.005Z" fill="#A9D0FF"/>
<path d="M219.815 102.885C219.815 102.885 213.895 97.6247 211.265 98.9347C208.635 100.255 202.715 107.485 205.345 116.045C207.975 124.595 223.115 136.445 223.115 136.445L219.815 102.885Z" fill="#E3BB94"/>
<path d="M334.315 133.805C334.315 133.805 336.945 137.095 344.185 129.195C351.425 121.295 351.425 111.425 350.765 108.135C350.105 104.845 346.815 97.6046 339.575 96.9446C332.335 96.3046 334.315 133.805 334.315 133.805Z" fill="#E3BB94"/>
<path d="M298.775 166.705C298.775 166.705 296.145 187.105 298.775 188.415C301.405 189.735 305.715 189.615 305.535 191.005C305.325 192.615 299.535 202.005 281.005 202.895C263.515 203.735 252.365 192.735 253.535 191.005C254.695 189.275 258.745 189.935 261.265 188.415C264.555 186.445 261.925 166.705 261.925 166.705H298.775Z" fill="#E3BB94"/>
<path d="M342.205 83.7947C342.205 83.7947 338.255 123.275 334.305 133.805C330.355 144.335 319.825 166.705 300.085 172.625C280.345 178.545 262.575 174.595 252.705 171.305C242.835 168.015 224.415 143.015 223.095 136.435C221.775 129.855 215.855 110.115 218.485 85.7647C221.115 61.4147 236.255 42.3347 236.255 42.3347L298.765 33.7847L334.955 54.1847L342.205 83.7947Z" fill="#EFCAA6"/>
<path d="M236.985 89.5346C238.225 88.1846 239.715 87.0346 241.325 86.0546L242.565 85.3646L243.855 84.7446L245.195 84.2246L246.565 83.7746C247.025 83.6446 247.495 83.5046 247.965 83.3446L249.395 82.9346C249.875 82.8446 250.365 82.7546 250.855 82.7446C251.345 82.7446 251.835 82.8046 252.325 82.8946C254.245 83.3546 256.145 84.2846 257.465 86.2646L257.315 86.8146C255.235 87.8746 253.635 88.2746 252.055 88.5546C251.265 88.6946 250.505 88.6846 249.715 88.5346L248.515 88.3346C248.115 88.2846 247.705 88.2646 247.295 88.2546L246.075 88.2846L244.845 88.3846L243.605 88.5046L242.355 88.6946C240.685 88.9646 239.015 89.4246 237.315 90.0046L236.985 89.5346Z" fill="#844D20"/>
<path d="M317.745 90.0144C316.045 89.4344 314.385 88.9744 312.705 88.7044L311.455 88.5144L310.215 88.3944L308.985 88.2944L307.765 88.2644C307.355 88.2844 306.955 88.3044 306.545 88.3444L305.345 88.5444C304.555 88.6944 303.795 88.7044 303.005 88.5644C301.415 88.2744 299.815 87.8844 297.745 86.8244L297.595 86.2744C298.915 84.2944 300.805 83.3644 302.735 82.9044C303.215 82.8144 303.715 82.7544 304.205 82.7544C304.695 82.7644 305.185 82.8544 305.665 82.9444L307.095 83.3544C307.565 83.5144 308.025 83.6544 308.495 83.7844L309.865 84.2344L311.205 84.7544L312.495 85.3744L313.735 86.0644C315.345 87.0544 316.825 88.1944 318.075 89.5444L317.745 90.0144Z" fill="#844D20"/>
<path d="M250.115 116.034C253.749 116.034 256.695 112.059 256.695 107.154C256.695 102.25 253.749 98.2744 250.115 98.2744C246.481 98.2744 243.535 102.25 243.535 107.154C243.535 112.059 246.481 116.034 250.115 116.034Z" fill="#461A00"/>
<path d="M304.675 116.695C308.309 116.695 311.255 112.719 311.255 107.815C311.255 102.91 308.309 98.9346 304.675 98.9346C301.041 98.9346 298.095 102.91 298.095 107.815C298.095 112.719 301.041 116.695 304.675 116.695Z" fill="#461A00"/>
<path d="M276.655 130.545C275.655 130.975 274.405 130.915 273.285 130.465C272.275 129.835 271.445 128.905 271.015 127.755C270.575 126.595 270.625 125.365 270.895 124.255C271.165 123.145 271.675 122.125 272.245 121.205C272.815 120.285 273.445 119.435 274.015 118.585C274.575 117.745 275.085 116.865 275.555 115.955C276.015 115.045 276.435 114.115 276.795 113.165C277.365 112.285 277.875 111.375 278.435 110.445C278.425 111.525 278.305 112.595 278.115 113.675C277.735 114.675 277.295 115.645 276.815 116.605C276.325 117.555 275.785 118.485 275.195 119.375C274.605 120.265 273.985 121.095 273.455 121.945C272.925 122.795 272.495 123.675 272.275 124.595C272.055 125.505 272.035 126.455 272.345 127.265C272.645 128.075 273.265 128.805 274.035 129.255C274.695 129.895 275.585 130.375 276.655 130.545Z" fill="#8C6239"/>
<path d="M340.235 106.825C340.235 106.825 323.125 66.0246 321.155 57.4746C319.185 48.9246 312.605 69.3146 269.825 71.9546C227.045 74.5946 221.135 77.2146 221.135 77.2146L218.175 107.155C218.175 107.155 205.345 87.7446 207.975 51.5546C210.605 15.3646 223.105 27.2046 223.105 27.2046C223.105 27.2046 216.525 12.0746 227.715 9.43459C238.905 6.80459 263.245 4.82459 269.165 6.80459C275.085 8.77459 286.275 13.3846 286.275 13.3846C286.275 13.3846 286.275 3.51459 298.775 8.12459C311.275 12.7346 332.995 12.0746 340.225 35.1046C347.455 58.1346 346.155 100.245 340.235 106.825Z" fill="#844D20"/>
<path opacity="0.1" d="M262.705 174.585C262.705 174.585 284.305 178.555 297.675 173.315C300.015 172.395 294.175 182.505 279.705 181.845C265.235 181.185 262.705 174.585 262.705 174.585Z" fill="#844D20"/>
<path d="M258.635 145.245C262.915 146.635 265.305 146.845 269.495 147.295C271.395 147.495 274.825 147.885 276.735 147.955C281.985 148.125 286.475 147.965 292.525 147.295C294.075 147.125 297.005 146.565 298.445 145.975C299.885 145.395 300.135 143.555 300.415 142.025C299.405 141.515 297.915 142.125 296.785 142.255C295.875 142.365 294.725 141.815 293.835 142.025C292.495 142.325 291.255 142.665 289.885 142.685C279.115 142.855 268.405 143.475 257.845 141.365C257.645 142.035 258.205 143.535 258.305 144.665" fill="white"/>
<path d="M257.325 141.044C257.325 141.044 270.485 143.014 279.695 143.014C288.905 143.014 300.095 141.694 300.095 141.694C300.095 141.694 301.415 157.484 279.695 158.144C257.985 158.814 257.325 141.044 257.325 141.044Z" stroke="#A67C52" stroke-miterlimit="10"/>
<path d="M260.685 149.194C263.465 148.444 266.405 148.664 269.275 148.894C274.305 149.294 279.345 149.694 284.375 150.114C287.895 150.404 292.505 151.324 295.805 152.564C295.725 153.754 294.285 154.094 293.175 154.534C291.995 155.004 291.115 156.194 289.885 156.504C288.695 156.804 287.815 157.014 286.595 157.164C284.255 157.454 282.355 158.194 280.015 158.484C279.105 158.594 275.675 157.854 274.755 157.824C272.735 157.764 270.725 157.224 268.835 156.504C267.865 156.134 267.175 155.554 266.205 155.184C265.635 154.964 264.735 154.224 264.235 153.864C263.725 153.504 263.325 153.024 262.915 152.544C262.105 151.584 261.095 150.874 260.285 149.914" fill="#D86755"/>
<g opacity="0.3">
<path opacity="0.3" d="M230.385 246.055C230.715 244.515 231.165 243.025 231.665 241.555C232.155 240.085 232.725 238.645 233.305 237.205C233.915 235.785 234.535 234.365 235.235 232.975C235.925 231.585 236.665 230.215 237.535 228.905C237.215 230.445 236.755 231.935 236.255 233.405C235.765 234.875 235.195 236.315 234.615 237.755C234.005 239.175 233.385 240.595 232.685 241.985C231.995 243.375 231.255 244.745 230.385 246.055Z" fill="#293084"/>
</g>
<g opacity="0.3">
<path opacity="0.3" d="M329.535 249.004C329.035 247.494 328.685 245.974 328.375 244.444C328.055 242.914 327.825 241.374 327.605 239.834C327.415 238.284 327.235 236.744 327.145 235.184C327.045 233.624 326.995 232.064 327.075 230.484C327.575 231.984 327.935 233.514 328.235 235.044C328.555 236.574 328.785 238.114 329.005 239.654C329.195 241.204 329.375 242.744 329.465 244.304C329.575 245.864 329.625 247.424 329.535 249.004Z" fill="#293084"/>
</g>
</svg>
