<svg width="317" height="259" viewBox="0 0 317 259" fill="none" xmlns="http://www.w3.org/2000/svg">
<g clip-path="url(#clip0)">
<path fill-rule="evenodd" clip-rule="evenodd" d="M230.6 255.04C224.27 259.37 218.69 258.61 211.27 256.59C203.85 254.57 196.85 251.1 189.29 249.68C184.22 248.72 179.02 248.71 173.9 248.06C165.96 247.06 158.3 244.55 150.83 241.72C101.93 223.18 59.8898 190.81 18.6498 158.89C10.5098 152.59 1.74978 145.29 0.229775 135.18C-1.55022 123.33 7.32977 112.59 16.5998 104.89C42.2398 83.5899 74.8298 72.1199 107.56 65.0799C116.97 63.0599 126.6 61.3599 136.19 62.1999C145.46 63.0199 154.34 66.1799 163.04 69.4399C204.41 84.9399 244.69 103.28 283.5 124.29C297.97 132.13 313.76 142.43 316.26 158.55C317.43 166.13 315.36 173.82 312.89 181.09C309.82 190.12 305.99 199.12 299.6 206.26C294.77 211.65 288.67 215.76 282.64 219.81C266.92 230.36 251.2 240.9 235.48 251.45" fill="#BEE26D"/>
<path fill-rule="evenodd" clip-rule="evenodd" d="M125.83 87.74L130.33 85.22V93.15L125.83 95.49V87.74Z" fill="#DBD8CD"/>
<path fill-rule="evenodd" clip-rule="evenodd" d="M130.329 85.2199L125.829 87.7399L120.979 84.8599L125.479 82.1599L130.329 85.2199Z" fill="#F5F1E1"/>
<path fill-rule="evenodd" clip-rule="evenodd" d="M120.609 84.8599L125.479 87.7399V95.4899L120.609 92.6099V84.8599Z" fill="#8A8881"/>
<path fill-rule="evenodd" clip-rule="evenodd" d="M125.06 0.26C124.89 0.43 124.81 0.67 124.81 0.95V82.65C124.81 82.94 124.9 83.17 125.06 83.35C125.24 83.53 125.47 83.61 125.76 83.61H125.85C126.14 83.61 126.37 83.52 126.55 83.35C126.72 83.18 126.81 82.95 126.81 82.65V0.95C126.81 0.67 126.72 0.43 126.55 0.26C126.37 0.09 126.14 0 125.85 0H125.76C125.48 0 125.24 0.09 125.06 0.26Z" fill="#383838"/>
<path fill-rule="evenodd" clip-rule="evenodd" d="M112.439 5.69989C111.869 6.29989 111.259 5.95989 110.609 4.69989V13.7099C111.489 14.5699 112.339 14.7499 113.159 14.2199C113.979 13.6899 114.669 13.1599 115.239 12.6399C115.799 12.1099 116.249 11.7899 116.579 11.6599C117.129 11.4399 117.669 11.3599 118.189 11.4099C119.179 11.6599 120.069 12.0499 120.869 12.6099C121.359 12.9599 121.869 13.2599 122.389 13.5099C122.659 13.6499 122.949 13.7499 123.249 13.7999C123.579 13.7999 123.879 13.7699 124.159 13.7199V5.51989C123.939 5.34989 123.709 5.18989 123.459 5.02989C122.999 4.76989 122.399 4.47989 121.669 4.11989C120.929 3.76989 120.069 3.51989 119.079 3.36989C118.089 3.22989 116.969 3.41989 115.739 3.94989C114.519 4.47989 113.799 4.74989 113.599 4.77989C113.389 4.79989 113.019 5.10989 112.439 5.69989Z" fill="url(#paint0_linear)"/>
<path fill-rule="evenodd" clip-rule="evenodd" d="M142.049 90.27V98.19L137.549 100.53V92.79L142.049 90.27Z" fill="#DBD8CD"/>
<path fill-rule="evenodd" clip-rule="evenodd" d="M137.549 92.79L132.679 89.91L137.189 87.21L142.049 90.27L137.549 92.79Z" fill="#F5F1E1"/>
<path fill-rule="evenodd" clip-rule="evenodd" d="M137.189 100.53L132.499 97.6499V89.9099L137.189 92.7899V100.53Z" fill="#8A8881"/>
<path fill-rule="evenodd" clip-rule="evenodd" d="M136.409 5.30004C136.239 5.48004 136.149 5.71004 136.149 6.00004V87.69C136.149 87.98 136.239 88.22 136.409 88.39C136.589 88.57 136.819 88.65 137.109 88.65H137.199C137.489 88.65 137.729 88.56 137.889 88.39C138.069 88.22 138.149 87.98 138.149 87.69V6.00004C138.149 5.71004 138.059 5.48004 137.889 5.30004C137.719 5.12004 137.489 5.04004 137.199 5.04004H137.109C136.829 5.04004 136.589 5.13004 136.409 5.30004Z" fill="#383838"/>
<path fill-rule="evenodd" clip-rule="evenodd" d="M124.509 10.9301C123.939 11.5201 123.329 11.1901 122.679 9.92011V18.9301C123.559 19.7901 124.409 19.9701 125.229 19.4401C126.049 18.9101 126.739 18.3801 127.309 17.8601C127.869 17.3401 128.319 17.0101 128.649 16.8701C129.199 16.6501 129.739 16.5701 130.259 16.6201C131.249 16.8701 132.139 17.2601 132.939 17.8201C133.429 18.1701 133.939 18.4701 134.459 18.7201C134.729 18.8601 135.019 18.9601 135.319 19.0101C135.639 19.0101 135.949 18.9801 136.229 18.9301V10.7501C136.009 10.5801 135.779 10.4201 135.529 10.2601C135.069 10.0001 134.469 9.71011 133.739 9.35011C132.999 9.00011 132.139 8.75011 131.139 8.60011C130.149 8.46011 129.029 8.65011 127.799 9.18011C126.579 9.71011 125.869 9.98011 125.659 10.0101C125.459 10.0301 125.079 10.3301 124.509 10.9301Z" fill="url(#paint1_linear)"/>
<path fill-rule="evenodd" clip-rule="evenodd" d="M148.889 107.2L144.199 104.32V96.5701L148.889 99.4501V107.2Z" fill="#8A8881"/>
<path fill-rule="evenodd" clip-rule="evenodd" d="M153.759 96.9301L149.249 99.4501L144.389 96.5701L148.889 93.8701L153.759 96.9301Z" fill="#F5F1E1"/>
<path fill-rule="evenodd" clip-rule="evenodd" d="M149.249 99.4502L153.759 96.9302V104.86L149.249 107.2V99.4502Z" fill="#DBD8CD"/>
<path fill-rule="evenodd" clip-rule="evenodd" d="M148.299 11.79C148.119 11.96 148.039 12.19 148.039 12.48V94.18C148.039 94.47 148.129 94.7 148.299 94.88C148.469 95.05 148.699 95.13 148.989 95.13H149.079C149.359 95.13 149.599 95.04 149.779 94.88C149.949 94.7 150.039 94.47 150.039 94.18V12.48C150.039 12.19 149.949 11.96 149.779 11.79C149.599 11.61 149.369 11.53 149.079 11.53H148.999C148.709 11.53 148.479 11.61 148.299 11.79Z" fill="#383838"/>
<path fill-rule="evenodd" clip-rule="evenodd" d="M136.219 18.5001C135.649 19.1001 135.039 18.7601 134.389 17.4901V26.5001C135.269 27.3601 136.119 27.5401 136.939 27.0101C137.759 26.4901 138.449 25.9601 139.019 25.4301C139.579 24.9101 140.019 24.5801 140.359 24.4401C140.909 24.2201 141.439 24.1401 141.959 24.1901C142.949 24.4401 143.839 24.8401 144.639 25.3901C145.129 25.7401 145.639 26.0401 146.159 26.3001C146.429 26.4301 146.719 26.5301 147.019 26.5801C147.349 26.5801 147.649 26.5501 147.929 26.5001V18.3201C147.709 18.1501 147.479 17.9801 147.229 17.8301C146.759 17.5801 146.169 17.2801 145.439 16.9201C144.699 16.5701 143.839 16.3201 142.839 16.1801C141.849 16.0301 140.739 16.2301 139.509 16.7501C138.279 17.2801 137.569 17.5501 137.359 17.5801C137.179 17.5901 136.789 17.9001 136.219 18.5001Z" fill="url(#paint2_linear)"/>
<path fill-rule="evenodd" clip-rule="evenodd" d="M69.4795 158.72L190.129 227.89L279.209 176.84L158.569 107.67L69.4795 158.72Z" fill="#993300"/>
<path fill-rule="evenodd" clip-rule="evenodd" d="M277.82 73.0401C277.64 73.2101 277.56 73.4401 277.56 73.7201V155.42C277.56 155.71 277.65 155.94 277.82 156.12C278 156.29 278.23 156.38 278.52 156.38H278.61C278.9 156.38 279.13 156.29 279.3 156.12C279.48 155.94 279.56 155.71 279.56 155.42V73.7201C279.56 73.4401 279.47 73.2001 279.3 73.0401C279.13 72.8601 278.9 72.78 278.61 72.78H278.52C278.22 72.77 277.99 72.8601 277.82 73.0401Z" fill="#383838"/>
<path fill-rule="evenodd" clip-rule="evenodd" d="M259.63 62.3999C259.46 62.5799 259.37 62.8099 259.37 63.0999V144.79C259.37 145.09 259.46 145.32 259.63 145.49C259.81 145.66 260.04 145.75 260.33 145.75H260.42C260.7 145.75 260.94 145.66 261.12 145.49C261.29 145.32 261.37 145.09 261.37 144.79V63.0999C261.37 62.8099 261.28 62.5799 261.12 62.3999C260.94 62.2299 260.71 62.1499 260.42 62.1499H260.33C260.03 62.1499 259.8 62.2299 259.63 62.3999Z" fill="#383838"/>
<path fill-rule="evenodd" clip-rule="evenodd" d="M237.46 53.3999C237.29 53.5799 237.2 53.8099 237.2 54.0999V135.79C237.2 136.09 237.29 136.32 237.46 136.49C237.63 136.66 237.87 136.75 238.16 136.75H238.25C238.53 136.75 238.76 136.66 238.94 136.49C239.12 136.32 239.2 136.09 239.2 135.79V54.0899C239.2 53.7999 239.11 53.5699 238.94 53.3899C238.76 53.2199 238.53 53.1399 238.25 53.1399H238.16C237.88 53.1399 237.64 53.2199 237.46 53.3999Z" fill="#383838"/>
<path fill-rule="evenodd" clip-rule="evenodd" d="M218.38 42.95C218.2 43.13 218.12 43.36 218.12 43.65V125.35C218.12 125.64 218.21 125.87 218.38 126.04C218.56 126.22 218.79 126.3 219.07 126.3H219.17C219.46 126.3 219.69 126.22 219.86 126.04C220.03 125.87 220.12 125.64 220.12 125.35V43.65C220.12 43.37 220.03 43.13 219.86 42.95C219.69 42.78 219.46 42.7 219.17 42.7H219.07C218.78 42.69 218.55 42.78 218.38 42.95Z" fill="#383838"/>
<path fill-rule="evenodd" clip-rule="evenodd" d="M198.92 32.3201C198.75 32.5001 198.66 32.7301 198.66 33.0201V114.71C198.66 115 198.75 115.24 198.92 115.41C199.1 115.59 199.33 115.67 199.62 115.67H199.71C200 115.67 200.23 115.58 200.41 115.41C200.58 115.24 200.67 115 200.67 114.71V33.0201C200.67 32.7301 200.58 32.5001 200.41 32.3201C200.23 32.1401 200 32.0601 199.71 32.0601H199.62C199.33 32.0601 199.1 32.1501 198.92 32.3201Z" fill="#383838"/>
<path fill-rule="evenodd" clip-rule="evenodd" d="M289.01 103.04L277.86 121.42L278.86 121.97L290.01 103.59L289.01 103.04ZM279.19 97.4701L268.05 115.74L269.17 116.41L280.31 98.0301L279.19 97.4701ZM189.78 106.83L188.78 106.16L177.64 124.53L178.75 125.09L189.78 106.83ZM259.35 110.73L270.5 92.4601L269.5 91.7901L258.35 110.17L259.35 110.73ZM259.68 86.2201L248.65 104.59L249.65 105.15L260.79 86.7701L259.68 86.2201ZM239.95 99.5801L251.09 81.2101L249.98 80.5401L238.83 98.9101L239.95 99.5801ZM230.15 93.9001L241.29 75.5201L240.29 74.9701L229.14 93.3401L230.15 93.9001ZM192.69 47.4601L191.57 46.9001L180.42 65.1701L181.54 65.8401L192.69 47.4601ZM220.44 88.3301L231.58 69.9601L230.58 69.4001L219.32 87.6801L220.44 88.3301ZM220.78 63.7101L209.63 82.1001L210.75 82.6601L221.9 64.3801L220.78 63.7101ZM211.08 58.1501L199.93 76.4201L200.93 77.0901L212.08 58.7101L211.08 58.1501ZM201.27 52.4701L190.12 70.8501L191.24 71.4001L202.39 53.1301L201.27 52.4701ZM159.24 113.95L170.39 95.5701L169.27 95.0201L158.13 113.29L159.24 113.95ZM168.94 119.53L180.08 101.25L179.08 100.58L167.94 118.96L168.94 119.53ZM188.45 130.77L199.59 112.4L198.48 111.85L187.33 130.22L188.45 130.77ZM208.29 117.41L197.15 135.79L198.15 136.35L209.29 118.08L208.29 117.41ZM207.84 142.03L218.99 123.65L217.99 123.1L206.84 141.37L207.84 142.03ZM217.66 147.6L228.8 129.33L227.68 128.66L216.54 147.04L217.66 147.6ZM258.01 146.15L256.89 145.48L245.75 163.86L246.87 164.41L258.01 146.15ZM227.35 153.28L238.5 134.9L237.5 134.35L226.35 152.62L227.35 153.28ZM237.17 158.85L248.31 140.58L247.2 139.91L236.05 158.29L237.17 158.85ZM256.57 170.1L267.71 151.73L266.71 151.17L255.56 169.44L256.57 170.1ZM275.63 166.31L277.52 165.2L260.8 171.55L259.91 171.99L258.91 172.67L275.63 166.31ZM265.93 171.88L249.21 178.23L247.21 179.34L263.93 172.99L265.93 171.88ZM235.6 186.03L252.33 179.68L254.33 178.57L237.61 184.92L235.6 186.03ZM224.01 192.83L240.74 186.48L242.63 185.26L225.91 191.61L224.01 192.83ZM212.31 199.51L229.03 193.16L231.03 192.04L214.31 198.39L212.31 199.51ZM195.69 215.21L202.6 212.65V211.2L195.69 215.21ZM267.71 146.04L278.85 127.66L277.85 127.11L266.71 145.48L267.71 146.04ZM217.99 117.3L218.99 117.97L230.14 99.5901L229.13 99.0401L217.99 117.3ZM248.65 110.28L237.5 128.55L238.5 129.23L249.65 110.85L248.65 110.28ZM258.01 140.46L269.16 122.09L268.04 121.42L256.89 139.79L258.01 140.46ZM248.31 134.79L259.35 116.52L258.35 115.85L247.21 134.22L248.31 134.79ZM238.84 104.6L227.69 122.98L228.81 123.53L239.96 105.26L238.84 104.6ZM219.44 93.3501L208.29 111.73L209.29 112.4L220.44 94.0201L219.44 93.3501ZM209.63 87.7801L198.49 106.16L199.6 106.71L210.75 88.3301L209.63 87.7801ZM189.78 101.15L200.92 82.7701L199.92 82.1001L188.78 100.48L189.78 101.15ZM190.12 76.5301L179.08 94.9101L180.08 95.4601L191.23 77.1901L190.12 76.5301ZM180.42 70.9601L169.28 89.2301L170.4 89.9001L181.54 71.5201L180.42 70.9601ZM88.6695 32.0901L86.9995 33.0901L112.19 69.4001L113.87 68.4001L88.6695 32.0901ZM47.2995 55.9201L72.4995 92.2401L74.2895 91.2301L49.0895 55.0301L47.2995 55.9201ZM76.9595 38.8801L102.15 75.0801L103.94 74.1901L78.7495 37.8701L76.9595 38.8801ZM93.8995 79.8701L68.7095 43.6701L67.1395 44.5601L92.3395 80.7601L93.8995 79.8701ZM57.3395 50.2401L82.5395 86.4401L84.0995 85.5501L58.9095 49.3501L57.3395 50.2401ZM64.2495 97.0201L39.0495 60.7101L37.3795 61.7001L62.5795 98.0201L64.2495 97.0201ZM54.2195 102.82L29.0295 66.5001L27.3595 67.5001L52.5495 103.7L54.2195 102.82ZM17.7695 73.0701L42.9595 109.27L43.2995 109.16L17.9895 72.8501L17.7695 73.0701ZM156.33 205.63L148.42 201.07L158.12 205.2L155.99 203.97L146.3 199.85L138.38 195.29L148.08 199.41L145.96 198.19L136.26 194.06L128.34 189.5L138.04 193.63L136.04 192.4L126.34 188.39L118.42 183.83L128.12 187.84L126 186.72L116.3 182.6L108.4 178L118.1 182.13L116.1 180.91L106.4 176.78L98.4795 172.22L108.18 176.34L106.06 175.12L96.3595 171L88.4495 166.43L98.1395 170.56L96.0295 169.34L86.4295 165.32L78.5095 160.76L88.1095 164.77L86.0895 163.65L76.3995 159.53L68.4795 154.97L78.1795 159.09L76.0495 157.87L66.3595 153.75L58.4395 149.18L50.4095 153.86L167.8 221.59L175.94 217.03L168.36 212.57L178.05 216.7L175.94 215.48L166.24 211.47L156.33 205.63ZM52.2095 111.62L77.5195 147.94L79.1895 146.94L53.9995 110.73L52.2095 111.62ZM89.1195 141.13L63.9195 104.93L62.2495 105.93L87.4495 142.13L89.1195 141.13ZM99.1495 135.34L73.9595 99.1401L72.2895 100.14L97.4795 136.34L99.1495 135.34ZM82.1995 94.3501L107.39 130.67L109.18 129.67L83.8795 93.3501L82.1995 94.3501ZM92.2295 88.5601L117.43 124.88L119.1 123.88L93.8995 87.6801L92.2295 88.5601ZM129.14 118.08L103.94 81.8801L102.15 82.8801L127.35 119.08L129.14 118.08ZM139.06 112.4L113.87 76.0801L112.19 77.0801L137.39 113.28L139.06 112.4ZM272.51 164.75L271.06 165.65L270.51 165.98L287.23 159.63L289.23 158.41L272.51 164.75Z" fill="#F3EDE0"/>
<path fill-rule="evenodd" clip-rule="evenodd" d="M242.629 185.25L240.739 186.47L231.039 192.04L229.039 193.16L219.339 198.73V240.17L298.709 194.39V152.95V108.73L287.569 127V132.68L276.429 151.06V156.74L271.069 165.65L272.519 164.75L281.989 159.3L298.709 152.95L289.239 158.41L287.239 159.63L277.539 165.2L275.649 166.31L265.949 171.89L263.949 173L254.359 178.58L252.359 179.69L242.629 185.25ZM185.659 221.01L175.969 217L167.829 221.56V231.25L185.659 221.01ZM113.869 76.0801L122.229 71.3001V63.6101L113.869 68.3901L112.189 69.3901L103.939 74.1801L102.149 75.0701L93.8995 79.8601L92.3395 80.7501L84.0895 85.5401L82.5295 86.4301L74.2795 91.2101L72.4895 92.2201L64.2395 97.0001L62.5695 98.0001L54.1995 102.79L52.5295 103.68L43.2795 109.14L42.9395 109.25V117.05L52.1895 111.59L53.9795 110.7L62.2295 105.91L63.8995 104.91L72.2595 100.12L73.9295 99.1201L82.1795 94.3301L83.8495 93.3301L92.2095 88.5501L93.8795 87.6601L102.129 82.8601L103.919 81.8601L112.169 77.0701L113.869 76.0801Z" fill="#E0D9CC"/>
<path fill-rule="evenodd" clip-rule="evenodd" d="M180.42 65.16L170.06 59.26V64.94L180.42 70.96L181.54 71.51L190.13 76.52L191.25 77.19L199.94 82.09L200.94 82.76L209.64 87.77L210.76 88.32L219.46 93.33L220.46 94L229.15 99.01L230.16 99.56L238.85 104.57L239.97 105.24L248.67 110.25L249.67 110.81L258.36 115.82L259.36 116.49L268.06 121.39L269.18 122.06L277.87 127.07L278.87 127.62L287.57 132.63V126.95L278.87 121.94L277.87 121.39L269.18 116.38L268.06 115.71L259.36 110.7L258.36 110.15L249.67 105.14L248.67 104.58L239.97 99.57L238.85 98.9L230.16 93.89L229.15 93.34L220.46 88.33L219.34 87.67L210.76 82.66L209.64 82.1L200.94 77.09L199.94 76.42L191.25 71.41L190.13 70.86L181.54 65.85L180.42 65.16ZM170.39 89.9L169.27 89.23L158.9 83.32V89L169.27 95.02L170.39 95.57L179.08 100.58L180.08 101.25L188.78 106.16L189.78 106.83L198.48 111.84L199.59 112.39L208.29 117.4L209.29 118.07L217.99 123.08L218.99 123.63L227.68 128.64L228.8 129.31L237.5 134.32L238.5 134.87L247.2 139.88L248.31 140.55L256.9 145.45L258.02 146.12L266.72 151.13L267.72 151.69L276.42 156.7V151.02L267.72 146.01L266.72 145.45L258.02 140.44L256.9 139.77L248.31 134.77L247.2 134.21L238.5 129.21L237.5 128.53L228.8 123.52L227.68 122.97L218.99 117.96L217.99 117.29L209.29 112.39L208.29 111.72L199.59 106.71L198.48 106.16L189.78 101.15L188.78 100.48L180.08 95.47L179.08 94.92L170.39 89.9ZM219.33 240.16V198.72L202.61 205.07V211.19V212.64V214.53L185.99 220.88L219.33 240.16ZM68.1595 153.28L42.9595 117.08V109.28L17.7695 73.08V124.22L68.1595 153.28ZM167.82 231.25V221.56L50.4295 153.83V163.52L167.82 231.25Z" fill="#A59882"/>
<path fill-rule="evenodd" clip-rule="evenodd" d="M87.4495 142.14L62.2495 105.94L53.9995 110.73L79.1995 146.93L87.4495 142.14ZM107.4 130.67L82.1995 94.35L73.9495 99.14L99.1395 135.34L107.4 130.67ZM127.35 119.08L102.15 82.88L93.8995 87.68L119.1 123.88L127.35 119.08ZM113.87 76.08L139.06 112.4L147.41 107.61L122.22 71.3L113.87 76.08Z" fill="#D8ECF3"/>
<path fill-rule="evenodd" clip-rule="evenodd" d="M42.9595 117.08L68.1595 153.28L77.5295 147.93L52.2195 111.61L42.9595 117.08ZM63.9195 104.93L89.1195 141.13L97.4795 136.35L72.2895 100.15L63.9195 104.93ZM117.429 124.88L92.2295 88.5601L83.8695 93.3401L109.179 129.66L117.429 124.88ZM103.939 81.8801L129.139 118.08L137.389 113.29L112.189 77.0901L103.939 81.8801Z" fill="#1AC6FF"/>
<path fill-rule="evenodd" clip-rule="evenodd" d="M93.8998 79.8699L102.15 75.0799L76.9598 38.8799L68.7098 43.6699L93.8998 79.8699ZM88.6698 32.0899L113.87 68.3999L122.23 63.6199L97.0398 27.4199L88.6698 32.0899ZM49.0898 55.0299L74.2898 91.2299L82.5398 86.4499L57.3398 50.2499L49.0898 55.0299ZM29.0298 66.4999L54.2198 102.82L62.5898 98.0299L37.3898 61.7099L29.0298 66.4999Z" fill="#ADD5E3"/>
<path fill-rule="evenodd" clip-rule="evenodd" d="M237.61 184.92L254.33 178.57L263.92 172.99L247.2 179.34L237.61 184.92ZM214.31 198.39L231.03 192.04L240.73 186.47L224 192.82L214.31 198.39ZM47.2997 55.9201L39.0497 60.7101L64.2497 97.0201L72.4997 92.2401L47.2997 55.9201ZM112.19 69.4001L86.9997 33.0901L78.7497 37.8701L103.94 74.1901L112.19 69.4001ZM58.9097 49.3501L84.0997 85.5501L92.3497 80.7601L67.1497 44.5601L58.9097 49.3501ZM52.5497 103.71L27.3597 67.5001L17.9897 72.8501L43.2997 109.17L52.5497 103.71ZM270.5 165.98L260.8 171.55L277.52 165.2L287.22 159.63L270.5 165.98Z" fill="#0096CB"/>
<path fill-rule="evenodd" clip-rule="evenodd" d="M275.629 166.31L258.909 172.67L249.209 178.24L265.929 171.89L275.629 166.31ZM242.629 185.25L252.329 179.67L235.599 186.02L225.909 191.6L242.629 185.25ZM219.329 198.73L229.029 193.16L212.309 199.51L202.609 205.08L219.329 198.73ZM289.229 158.41L298.699 152.95L281.979 159.3L272.509 164.75L289.229 158.41Z" fill="#ACD5E4"/>
<path fill-rule="evenodd" clip-rule="evenodd" d="M202.61 212.65L195.69 215.21L185.99 220.89L202.61 214.54V212.65Z" fill="#00C5FF"/>
<path fill-rule="evenodd" clip-rule="evenodd" d="M158.13 113.29L169.27 95.02L158.9 89L147.76 107.38L158.13 113.29ZM180.08 101.25L168.94 119.53L177.64 124.53L188.78 106.16L180.08 101.25ZM197.15 135.79L208.29 117.41L199.59 112.4L188.45 130.77L197.15 135.79ZM216.54 147.04L227.68 128.66L218.99 123.65L207.84 142.03L216.54 147.04ZM227.35 153.28L236.05 158.29L247.2 139.91L238.5 134.9L227.35 153.28ZM258.01 146.15L246.87 164.42L255.56 169.43L266.71 151.16L258.01 146.15Z" fill="#FFD41C"/>
<path fill-rule="evenodd" clip-rule="evenodd" d="M169.269 89.2299L180.409 70.9599L170.049 64.9399L158.899 83.3199L169.269 89.2299ZM258.009 140.46L266.709 145.47L277.849 127.1L269.159 122.09L258.009 140.46ZM249.649 110.84L238.499 129.22L247.199 134.22L258.339 115.85L249.649 110.84ZM227.679 122.98L238.829 104.6L230.139 99.5899L218.989 117.97L227.679 122.98ZM208.289 111.73L219.439 93.3499L210.739 88.3399L199.589 106.72L208.289 111.73ZM191.239 77.1999L180.089 95.4699L188.789 100.48L199.929 82.0999L191.239 77.1999Z" fill="#CFA800"/>
<path fill-rule="evenodd" clip-rule="evenodd" d="M277.85 121.42L289 103.04L280.3 98.0301L269.16 116.41L277.85 121.42ZM258.35 110.17L269.5 91.7901L260.8 86.7801L249.66 105.16L258.35 110.17ZM238.84 98.9101L249.99 80.5401L241.29 75.5301L230.15 93.9001L238.84 98.9101ZM219.33 87.6701L230.59 69.3901L221.9 64.3801L210.75 82.6601L219.33 87.6701ZM202.39 53.1301L191.24 71.4001L199.93 76.4101L211.08 58.1401L202.39 53.1301ZM170.05 59.2601L180.41 65.1601L191.56 46.8901L181.19 40.8701L170.05 59.2601ZM175.97 217L185.66 221.01L178.08 216.67L168.39 212.54L175.97 217ZM158.13 205.19L148.43 201.06L156.34 205.62L166.04 209.75L158.13 205.19ZM138.06 193.61L128.36 189.48L136.28 194.04L145.98 198.17L138.06 193.61ZM118.1 182.13L108.4 178L116.32 182.57L126.02 186.69L118.1 182.13ZM98.1397 170.54L88.4497 166.41L96.3597 170.98L106.06 175.1L98.1397 170.54ZM78.1898 159.07L68.4897 154.95L76.4098 159.51L86.0997 163.63L78.1898 159.07Z" fill="#FFD500"/>
<path fill-rule="evenodd" clip-rule="evenodd" d="M290.01 103.59L278.859 121.97L287.559 126.98L298.7 108.71L290.01 103.59ZM259.35 110.73L268.049 115.74L279.189 97.47L270.499 92.46L259.35 110.73ZM189.779 106.83L178.74 125.1L187.329 130.22L198.479 111.85L189.779 106.83ZM251.1 81.21L239.96 99.58L248.66 104.59L259.689 86.22L251.1 81.21ZM220.439 88.33L229.13 93.34L240.279 74.97L231.579 69.96L220.439 88.33ZM192.689 47.46L181.539 65.84L190.13 70.85L201.279 52.47L192.689 47.46ZM212.079 58.7L200.929 77.08L209.63 82.09L220.779 63.71L212.079 58.7ZM167.929 118.97L179.07 100.59L170.38 95.58L159.229 113.96L167.929 118.97ZM209.289 118.08L198.149 136.35L206.839 141.36L217.99 123.09L209.289 118.08ZM228.799 129.33L217.66 147.6L226.35 152.61L237.499 134.34L228.799 129.33ZM248.309 140.58L237.169 158.85L245.749 163.86L256.89 145.48L248.309 140.58ZM271.049 165.65L276.41 156.74L267.709 151.73L256.57 170.1L259.91 171.99L260.799 171.55L270.499 165.98L271.049 165.65Z" fill="#FF6F4D"/>
<path fill-rule="evenodd" clip-rule="evenodd" d="M278.859 127.66L267.719 146.04L276.419 151.05L287.559 132.67L278.859 127.66ZM256.889 139.8L268.039 121.43L259.339 116.53L248.299 134.8L256.889 139.8ZM248.649 110.28L239.949 105.27L228.799 123.54L237.499 128.55L248.649 110.28ZM217.989 117.3L229.129 99.03L220.439 94.02L209.289 112.4L217.989 117.3ZM198.479 106.16L209.619 87.78L200.919 82.77L189.779 101.15L198.479 106.16ZM179.079 94.91L190.119 76.53L181.529 71.52L170.389 89.9L179.079 94.91ZM58.4595 149.15L66.3795 153.72L76.0695 157.84L68.1595 153.27L58.4595 149.15ZM128.129 187.81L118.429 183.8L126.349 188.36L136.049 192.37L128.129 187.81ZM108.179 176.33L98.4795 172.21L106.399 176.77L116.099 180.9L108.179 176.33ZM88.1195 164.75L78.5195 160.74L86.4395 165.3L96.0395 169.32L88.1195 164.75Z" fill="#C73A13"/>
<path fill-rule="evenodd" clip-rule="evenodd" d="M166.03 209.76L156.33 205.63L166.26 211.43L175.96 215.44L166.03 209.76ZM148.09 199.39L138.39 195.27L146.31 199.83L156 203.95L148.09 199.39Z" fill="#C93900"/>
<path fill-rule="evenodd" clip-rule="evenodd" d="M18.8296 137.1L23.3396 134.76V142.51L18.8296 144.85V137.1Z" fill="#DBD8CD"/>
<path fill-rule="evenodd" clip-rule="evenodd" d="M23.3396 134.76L18.8296 137.1L13.7896 134.22L18.4696 131.52L23.3396 134.58V134.76Z" fill="#F5F1E1"/>
<path fill-rule="evenodd" clip-rule="evenodd" d="M18.4694 144.85L13.6094 141.96V134.22L18.4694 137.1V144.85Z" fill="#8A8881"/>
<path fill-rule="evenodd" clip-rule="evenodd" d="M17.5193 49.25C17.3493 49.43 17.2593 49.66 17.2593 49.95V131.65C17.2593 131.93 17.3493 132.17 17.5193 132.33C17.6993 132.51 17.9293 132.59 18.2193 132.59H18.3193C18.5993 132.59 18.8393 132.5 18.9993 132.33C19.1793 132.16 19.2593 131.93 19.2593 131.65V49.95C19.2593 49.66 19.1693 49.43 18.9993 49.25C18.8293 49.08 18.5993 48.99 18.3193 48.99H18.2193C17.9393 48.99 17.6993 49.08 17.5193 49.25Z" fill="#383838"/>
<path fill-rule="evenodd" clip-rule="evenodd" d="M5.61955 55.7801C5.04955 56.3801 4.43955 56.0401 3.78955 54.7801V63.7801C4.66955 64.6401 5.51955 64.8201 6.33955 64.3001C7.15955 63.7701 7.84955 63.2401 8.41955 62.7201C8.97955 62.1901 9.41955 61.8601 9.75955 61.7301C10.3096 61.5001 10.8396 61.4201 11.3596 61.4801C12.3496 61.7301 13.2396 62.1301 14.0396 62.6801C14.5296 63.0401 15.0396 63.3401 15.5596 63.5901C15.8296 63.7201 16.1196 63.8201 16.4196 63.8701C16.7496 63.8701 17.0496 63.8501 17.3296 63.7901V55.6001C17.1096 55.4301 16.8795 55.2701 16.6295 55.1101C16.1595 54.8601 15.5696 54.5601 14.8396 54.2101C14.0996 53.8601 13.2396 53.6101 12.2396 53.4701C11.2496 53.3301 10.1396 53.5201 8.90955 54.0401C7.67955 54.5701 6.96955 54.8401 6.75955 54.8701C6.57955 54.8801 6.18955 55.1801 5.61955 55.7801Z" fill="url(#paint3_linear)"/>
<path fill-rule="evenodd" clip-rule="evenodd" d="M35.0395 139.62L30.5395 142.14L25.4995 139.26L30.1895 136.38L35.0395 139.62Z" fill="#F5F1E1"/>
<path fill-rule="evenodd" clip-rule="evenodd" d="M30.5396 142.14L35.0396 139.62V147.55L30.5396 149.89V142.14Z" fill="#DBD8CD"/>
<path fill-rule="evenodd" clip-rule="evenodd" d="M25.3096 139.26L30.1896 142.14V149.89L25.3096 147.01V139.26Z" fill="#8A8881"/>
<path fill-rule="evenodd" clip-rule="evenodd" d="M29.2395 54.6499C29.0595 54.8299 28.9795 55.0599 28.9795 55.3499V137.04C28.9795 137.33 29.0695 137.56 29.2395 137.73C29.4195 137.91 29.6495 137.99 29.9295 137.99H30.0295C30.3195 137.99 30.5495 137.91 30.7195 137.73C30.8895 137.56 30.9795 137.33 30.9795 137.04V55.3599C30.9795 55.0699 30.8895 54.8299 30.7195 54.6599C30.5495 54.4899 30.3195 54.4099 30.0295 54.4099H29.9295C29.6395 54.3999 29.4095 54.4899 29.2395 54.6499Z" fill="#383838"/>
<path fill-rule="evenodd" clip-rule="evenodd" d="M17.3295 60.6499C16.7695 61.2499 16.1495 60.9099 15.4995 59.6399V68.6499C16.3795 69.5099 17.2295 69.6899 18.0495 69.1699C18.8795 68.6399 19.5595 68.1099 20.1295 67.5899C20.6895 67.0599 21.1395 66.7399 21.4695 66.5999C22.0195 66.3899 22.5495 66.2999 23.0795 66.3499C24.0695 66.5999 24.9495 66.9999 25.7495 67.5499C26.2395 67.8999 26.7495 68.2099 27.2695 68.4599C27.5395 68.5899 27.8295 68.6899 28.1395 68.7499C28.4595 68.7499 28.7595 68.7099 29.0395 68.6599V60.4799C28.8295 60.3099 28.5895 60.1499 28.3395 59.9899C27.8695 59.7399 27.2795 59.4399 26.5495 59.0799C25.8195 58.7299 24.9595 58.4799 23.9495 58.3399C22.9595 58.1899 21.8495 58.3799 20.6195 58.9099C19.3995 59.4399 18.6795 59.7099 18.4795 59.7399C18.2895 59.7399 17.8995 60.0499 17.3295 60.6499Z" fill="url(#paint4_linear)"/>
<path fill-rule="evenodd" clip-rule="evenodd" d="M37.0298 153.68V145.93L41.8898 148.81V156.56L37.0298 153.68Z" fill="#8A8881"/>
<path fill-rule="evenodd" clip-rule="evenodd" d="M46.7596 146.46L42.2596 148.81L37.3896 145.93L41.8896 143.23L46.7596 146.29V146.46Z" fill="#F5F1E1"/>
<path fill-rule="evenodd" clip-rule="evenodd" d="M42.2598 148.81L46.7598 146.46V154.21L42.2598 156.56V148.81Z" fill="#DBD8CD"/>
<path fill-rule="evenodd" clip-rule="evenodd" d="M41.2995 61.3201C41.1295 61.4901 41.0396 61.7201 41.0396 62.0101V143.71C41.0396 144 41.1295 144.23 41.2995 144.41C41.4795 144.58 41.7095 144.66 41.9995 144.66H42.0896C42.3795 144.66 42.6096 144.57 42.7896 144.41C42.9596 144.23 43.0495 144 43.0495 143.71V62.0101C43.0495 61.7201 42.9596 61.4901 42.7896 61.3201C42.6096 61.1401 42.3795 61.0601 42.0896 61.0601H41.9995C41.7095 61.0701 41.4795 61.1501 41.2995 61.3201Z" fill="#383838"/>
<path fill-rule="evenodd" clip-rule="evenodd" d="M29.2196 67.8501C28.6596 68.4501 28.0396 68.1101 27.3896 66.8501V75.8601C28.2696 76.7201 29.1196 76.8901 29.9396 76.3701C30.7696 75.8401 31.4496 75.3101 32.0196 74.7901C32.5796 74.2601 33.0296 73.9401 33.3596 73.8001C33.9096 73.5801 34.4397 73.4901 34.9697 73.5601C35.9496 73.8001 36.8396 74.2001 37.6396 74.7501C38.1296 75.1101 38.6396 75.4101 39.1596 75.6601C39.4296 75.8001 39.7196 75.8901 40.0296 75.9501C40.3596 75.9501 40.6596 75.9201 40.9296 75.8701V67.6801C40.7196 67.5101 40.4796 67.3501 40.2296 67.1901C39.7696 66.9401 39.1696 66.6401 38.4396 66.2801C37.7096 65.9301 36.8496 65.6801 35.8496 65.5401C34.8596 65.4001 33.7496 65.5901 32.5196 66.1201C31.2996 66.6401 30.5796 66.9101 30.3796 66.9401C30.1796 66.9501 29.7896 67.2501 29.2196 67.8501Z" fill="url(#paint5_linear)"/>
<path fill-rule="evenodd" clip-rule="evenodd" d="M248.919 140.94C249.089 141.12 249.179 141.35 249.179 141.64V223.33C249.179 223.62 249.089 223.85 248.919 224.03C248.739 224.2 248.509 224.28 248.219 224.28H248.119C247.839 224.28 247.599 224.2 247.429 224.03C247.249 223.85 247.169 223.62 247.169 223.33V141.64C247.169 141.35 247.259 141.11 247.429 140.94C247.599 140.77 247.829 140.68 248.119 140.68H248.219C248.499 140.68 248.739 140.77 248.919 140.94Z" fill="#383838"/>
<path fill-rule="evenodd" clip-rule="evenodd" d="M267.469 129.59C267.649 129.77 267.729 130 267.729 130.29V211.99C267.729 212.27 267.639 212.51 267.469 212.68C267.289 212.86 267.059 212.94 266.769 212.94H266.679C266.389 212.94 266.159 212.85 265.989 212.68C265.819 212.51 265.729 212.27 265.729 211.99V130.29C265.729 130 265.819 129.77 265.989 129.59C266.159 129.41 266.389 129.33 266.679 129.33H266.769C267.059 129.33 267.289 129.42 267.469 129.59Z" fill="#383838"/>
<path fill-rule="evenodd" clip-rule="evenodd" d="M287.82 118.78C287.99 118.96 288.08 119.19 288.08 119.48V201.18C288.08 201.47 287.99 201.7 287.82 201.88C287.65 202.06 287.41 202.14 287.12 202.14H287.03C286.75 202.14 286.51 202.06 286.34 201.88C286.17 201.7 286.08 201.47 286.08 201.18V119.48C286.08 119.2 286.17 118.96 286.34 118.78C286.51 118.61 286.75 118.52 287.03 118.52H287.12C287.41 118.53 287.65 118.62 287.82 118.78Z" fill="#383838"/>
<path fill-rule="evenodd" clip-rule="evenodd" d="M164.339 145.82L131.089 126.85L106.089 141.06L139.389 160.02L164.339 145.82Z" fill="#6D2201"/>
<path fill-rule="evenodd" clip-rule="evenodd" d="M110.759 136.7V138.56L139.489 155.24V153.38L110.759 136.7Z" fill="#4D4D4D"/>
<path fill-rule="evenodd" clip-rule="evenodd" d="M167.639 139.92L132.799 119.88L106.609 134.89L141.499 154.93L167.639 139.92Z" fill="white"/>
<path fill-rule="evenodd" clip-rule="evenodd" d="M133.079 121.11L108.669 135.11L141.179 153.78L165.549 139.79L133.079 121.11Z" fill="#2E3192"/>
<path d="M121.879 127.44L153.509 146.7" stroke="white" stroke-width="0.2835" stroke-miterlimit="10" stroke-linecap="round" stroke-linejoin="round"/>
<path fill-rule="evenodd" clip-rule="evenodd" d="M139.489 155.24L140.409 154.31L139.509 153.78L139.489 155.24Z" fill="#444343"/>
<g opacity="0.85">
<path opacity="0.85" d="M124.439 140.47L149.109 126.23V130.24L124.439 144.49V140.47Z" fill="white"/>
<path opacity="0.85" d="M148.959 126.47V130.16L124.569 144.24V140.55L148.959 126.47ZM149.249 125.98L124.299 140.38V144.73L149.249 130.32V125.98Z" fill="#999999"/>
</g>
<path fill-rule="evenodd" clip-rule="evenodd" d="M227.81 182.36L194.56 163.39L169.56 177.6L202.86 196.57L227.81 182.36Z" fill="#6D2201"/>
<path fill-rule="evenodd" clip-rule="evenodd" d="M174.229 173.25V175.1L202.96 191.78V189.93L174.229 173.25Z" fill="#4D4D4D"/>
<path fill-rule="evenodd" clip-rule="evenodd" d="M231.11 176.46L196.28 156.43L170.08 171.44L204.97 191.47L231.11 176.46Z" fill="white"/>
<path fill-rule="evenodd" clip-rule="evenodd" d="M196.56 157.66L172.14 171.65L204.66 190.33L229.02 176.34L196.56 157.66Z" fill="#2E3192"/>
<path d="M185.35 163.98L216.99 183.25" stroke="white" stroke-width="0.2835" stroke-miterlimit="10" stroke-linecap="round" stroke-linejoin="round"/>
<path fill-rule="evenodd" clip-rule="evenodd" d="M202.959 191.78L203.879 190.85L202.979 190.33L202.959 191.78Z" fill="#444343"/>
<g opacity="0.85">
<path opacity="0.85" d="M187.91 177.01L212.58 162.77V166.79L187.91 181.03V177.01Z" fill="white"/>
<path opacity="0.85" d="M212.44 163.02V166.71L188.05 180.79V177.1L212.44 163.02ZM212.72 162.53L187.77 176.93V181.28L212.72 166.87V162.53Z" fill="#999999"/>
</g>
<path fill-rule="evenodd" clip-rule="evenodd" d="M129.99 189.15L124.77 169.7L203.58 125.68L205.55 143.69L129.99 189.15Z" fill="#07476B"/>
<path fill-rule="evenodd" clip-rule="evenodd" d="M226.75 153.01C226.93 153.19 227.01 153.42 227.01 153.71V235.4C227.01 235.69 226.92 235.92 226.75 236.1C226.58 236.28 226.35 236.36 226.07 236.36H225.98C225.69 236.36 225.45 236.28 225.28 236.1C225.1 235.92 225.02 235.69 225.02 235.4V153.71C225.02 153.42 225.11 153.18 225.28 153.01C225.45 152.84 225.69 152.75 225.98 152.75H226.07C226.35 152.75 226.58 152.84 226.75 153.01Z" fill="#383838"/>
</g>
<defs>
<linearGradient id="paint0_linear" x1="122.227" y1="8.92156" x2="77.8462" y2="8.92156" gradientUnits="userSpaceOnUse">
<stop stop-color="#770000"/>
<stop offset="0.1843" stop-color="#FF0000"/>
<stop offset="0.2627" stop-color="#FFA1A1"/>
<stop offset="0.3725" stop-color="#FF0000"/>
<stop offset="0.4471" stop-color="#9D0000"/>
<stop offset="0.5216" stop-color="#FF0000"/>
<stop offset="0.6039" stop-color="#FF8585"/>
<stop offset="0.698" stop-color="#FF0000"/>
<stop offset="0.9529" stop-color="#B20000"/>
</linearGradient>
<linearGradient id="paint1_linear" x1="134.293" y1="14.1466" x2="89.9061" y2="14.1466" gradientUnits="userSpaceOnUse">
<stop stop-color="#770000"/>
<stop offset="0.1843" stop-color="#FF0000"/>
<stop offset="0.2627" stop-color="#FFA1A1"/>
<stop offset="0.3725" stop-color="#FF0000"/>
<stop offset="0.4471" stop-color="#9D0000"/>
<stop offset="0.5216" stop-color="#FF0000"/>
<stop offset="0.6039" stop-color="#FF8585"/>
<stop offset="0.698" stop-color="#FF0000"/>
<stop offset="0.9529" stop-color="#B20000"/>
</linearGradient>
<linearGradient id="paint2_linear" x1="146" y1="21.7127" x2="101.613" y2="21.7127" gradientUnits="userSpaceOnUse">
<stop stop-color="#770000"/>
<stop offset="0.1843" stop-color="#FF0000"/>
<stop offset="0.2627" stop-color="#FFA1A1"/>
<stop offset="0.3725" stop-color="#FF0000"/>
<stop offset="0.4471" stop-color="#9D0000"/>
<stop offset="0.5216" stop-color="#FF0000"/>
<stop offset="0.6039" stop-color="#FF8585"/>
<stop offset="0.698" stop-color="#FF0000"/>
<stop offset="0.9529" stop-color="#B20000"/>
</linearGradient>
<linearGradient id="paint3_linear" x1="15.4062" y1="58.9992" x2="-28.9909" y2="58.9992" gradientUnits="userSpaceOnUse">
<stop stop-color="#770000"/>
<stop offset="0.1843" stop-color="#FF0000"/>
<stop offset="0.2627" stop-color="#FFA1A1"/>
<stop offset="0.3725" stop-color="#FF0000"/>
<stop offset="0.4471" stop-color="#9D0000"/>
<stop offset="0.5216" stop-color="#FF0000"/>
<stop offset="0.6039" stop-color="#FF8585"/>
<stop offset="0.698" stop-color="#FF0000"/>
<stop offset="0.9529" stop-color="#B20000"/>
</linearGradient>
<linearGradient id="paint4_linear" x1="27.113" y1="63.8619" x2="-17.284" y2="63.8619" gradientUnits="userSpaceOnUse">
<stop stop-color="#770000"/>
<stop offset="0.1843" stop-color="#FF0000"/>
<stop offset="0.2627" stop-color="#FFA1A1"/>
<stop offset="0.3725" stop-color="#FF0000"/>
<stop offset="0.4471" stop-color="#9D0000"/>
<stop offset="0.5216" stop-color="#FF0000"/>
<stop offset="0.6039" stop-color="#FF8585"/>
<stop offset="0.698" stop-color="#FF0000"/>
<stop offset="0.9529" stop-color="#B20000"/>
</linearGradient>
<linearGradient id="paint5_linear" x1="39.0048" y1="71.0694" x2="-5.37625" y2="71.0694" gradientUnits="userSpaceOnUse">
<stop stop-color="#770000"/>
<stop offset="0.1843" stop-color="#FF0000"/>
<stop offset="0.2627" stop-color="#FFA1A1"/>
<stop offset="0.3725" stop-color="#FF0000"/>
<stop offset="0.4471" stop-color="#9D0000"/>
<stop offset="0.5216" stop-color="#FF0000"/>
<stop offset="0.6039" stop-color="#FF8585"/>
<stop offset="0.698" stop-color="#FF0000"/>
<stop offset="0.9529" stop-color="#B20000"/>
</linearGradient>
<clipPath id="clip0">
<rect width="316.6" height="258.2" fill="white"/>
</clipPath>
</defs>
</svg>
