<svg width="317" height="259" viewBox="0 0 317 259" fill="none" xmlns="http://www.w3.org/2000/svg">
<g opacity="0.2">
<path opacity="0.2" fill-rule="evenodd" clip-rule="evenodd" d="M230.598 255.04C224.268 259.37 218.688 258.61 211.268 256.59C203.848 254.57 196.848 251.1 189.288 249.68C184.218 248.72 179.018 248.71 173.898 248.06C165.958 247.06 158.298 244.55 150.828 241.72C101.928 223.18 59.8883 190.81 18.6483 158.89C10.5083 152.59 1.74831 145.29 0.22831 135.18C-1.55169 123.33 7.32831 112.59 16.5983 104.89C42.2383 83.5899 74.8283 72.1199 107.558 65.0799C116.968 63.0599 126.598 61.3599 136.188 62.1999C145.458 63.0199 154.338 66.1799 163.038 69.4399C204.408 84.9399 244.688 103.28 283.498 124.29C297.968 132.13 313.758 142.43 316.258 158.55C317.428 166.13 315.358 173.82 312.888 181.09C309.818 190.12 305.988 199.12 299.598 206.26C294.768 211.65 288.668 215.76 282.638 219.81C266.918 230.36 251.198 240.9 235.478 251.45" fill="#DCE56B"/>
</g>
<path fill-rule="evenodd" clip-rule="evenodd" d="M125.828 87.74L130.328 85.22V93.15L125.828 95.49V87.74Z" fill="#DBD8CD"/>
<path fill-rule="evenodd" clip-rule="evenodd" d="M130.329 85.2199L125.829 87.7399L120.979 84.8599L125.479 82.1599L130.329 85.2199Z" fill="#F5F1E1"/>
<path fill-rule="evenodd" clip-rule="evenodd" d="M120.608 84.8599L125.478 87.7399V95.4899L120.608 92.6099V84.8599Z" fill="#8A8881"/>
<path fill-rule="evenodd" clip-rule="evenodd" d="M125.058 0.26C124.888 0.43 124.808 0.67 124.808 0.95V82.65C124.808 82.94 124.898 83.17 125.058 83.35C125.238 83.53 125.468 83.61 125.758 83.61H125.848C126.138 83.61 126.368 83.52 126.548 83.35C126.718 83.18 126.808 82.95 126.808 82.65V0.95C126.808 0.67 126.718 0.43 126.548 0.26C126.368 0.09 126.138 0 125.848 0H125.758C125.478 0 125.238 0.09 125.058 0.26Z" fill="#383838"/>
<path fill-rule="evenodd" clip-rule="evenodd" d="M112.438 5.69989C111.868 6.29989 111.258 5.95989 110.608 4.69989V13.7099C111.488 14.5699 112.338 14.7499 113.158 14.2199C113.978 13.6899 114.668 13.1599 115.238 12.6399C115.798 12.1099 116.248 11.7899 116.578 11.6599C117.128 11.4399 117.668 11.3599 118.188 11.4099C119.178 11.6599 120.068 12.0499 120.868 12.6099C121.358 12.9599 121.868 13.2599 122.388 13.5099C122.658 13.6499 122.948 13.7499 123.248 13.7999C123.578 13.7999 123.878 13.7699 124.158 13.7199V5.51989C123.938 5.34989 123.708 5.18989 123.458 5.02989C122.998 4.76989 122.398 4.47989 121.668 4.11989C120.928 3.76989 120.068 3.51989 119.078 3.36989C118.088 3.22989 116.968 3.41989 115.738 3.94989C114.518 4.47989 113.798 4.74989 113.598 4.77989C113.388 4.79989 113.018 5.10989 112.438 5.69989Z" fill="url(#paint0_linear)"/>
<path fill-rule="evenodd" clip-rule="evenodd" d="M142.049 90.27V98.19L137.549 100.53V92.79L142.049 90.27Z" fill="#DBD8CD"/>
<path fill-rule="evenodd" clip-rule="evenodd" d="M137.548 92.79L132.678 89.91L137.188 87.21L142.048 90.27L137.548 92.79Z" fill="#F5F1E1"/>
<path fill-rule="evenodd" clip-rule="evenodd" d="M137.189 100.53L132.499 97.6499V89.9099L137.189 92.7899V100.53Z" fill="#8A8881"/>
<path fill-rule="evenodd" clip-rule="evenodd" d="M136.408 5.30004C136.238 5.48004 136.148 5.71004 136.148 6.00004V87.69C136.148 87.98 136.238 88.22 136.408 88.39C136.588 88.57 136.818 88.65 137.108 88.65H137.198C137.488 88.65 137.728 88.56 137.888 88.39C138.068 88.22 138.148 87.98 138.148 87.69V6.00004C138.148 5.71004 138.058 5.48004 137.888 5.30004C137.718 5.12004 137.488 5.04004 137.198 5.04004H137.108C136.828 5.04004 136.588 5.13004 136.408 5.30004Z" fill="#383838"/>
<path fill-rule="evenodd" clip-rule="evenodd" d="M124.508 10.9301C123.938 11.5201 123.328 11.1901 122.678 9.92011V18.9301C123.558 19.7901 124.408 19.9701 125.228 19.4401C126.048 18.9101 126.738 18.3801 127.308 17.8601C127.868 17.3401 128.318 17.0101 128.648 16.8701C129.198 16.6501 129.738 16.5701 130.258 16.6201C131.248 16.8701 132.138 17.2601 132.938 17.8201C133.428 18.1701 133.938 18.4701 134.458 18.7201C134.728 18.8601 135.018 18.9601 135.318 19.0101C135.638 19.0101 135.948 18.9801 136.228 18.9301V10.7501C136.008 10.5801 135.778 10.4201 135.528 10.2601C135.068 10.0001 134.468 9.71011 133.738 9.35011C132.998 9.00011 132.138 8.75011 131.138 8.60011C130.148 8.46011 129.028 8.65011 127.798 9.18011C126.578 9.71011 125.868 9.98011 125.658 10.0101C125.458 10.0301 125.078 10.3301 124.508 10.9301Z" fill="url(#paint1_linear)"/>
<path fill-rule="evenodd" clip-rule="evenodd" d="M148.888 107.2L144.198 104.32V96.5701L148.888 99.4501V107.2Z" fill="#8A8881"/>
<path fill-rule="evenodd" clip-rule="evenodd" d="M153.758 96.9301L149.248 99.4501L144.388 96.5701L148.888 93.8701L153.758 96.9301Z" fill="#F5F1E1"/>
<path fill-rule="evenodd" clip-rule="evenodd" d="M149.249 99.4502L153.759 96.9302V104.86L149.249 107.2V99.4502Z" fill="#DBD8CD"/>
<path fill-rule="evenodd" clip-rule="evenodd" d="M148.299 11.79C148.119 11.96 148.039 12.19 148.039 12.48V94.18C148.039 94.47 148.129 94.7 148.299 94.88C148.469 95.05 148.699 95.13 148.989 95.13H149.079C149.359 95.13 149.599 95.04 149.779 94.88C149.949 94.7 150.039 94.47 150.039 94.18V12.48C150.039 12.19 149.949 11.96 149.779 11.79C149.599 11.61 149.369 11.53 149.079 11.53H148.999C148.709 11.53 148.479 11.61 148.299 11.79Z" fill="#383838"/>
<path fill-rule="evenodd" clip-rule="evenodd" d="M136.218 18.5001C135.648 19.1001 135.038 18.7601 134.388 17.4901V26.5001C135.268 27.3601 136.118 27.5401 136.938 27.0101C137.758 26.4901 138.448 25.9601 139.018 25.4301C139.578 24.9101 140.018 24.5801 140.358 24.4401C140.908 24.2201 141.438 24.1401 141.958 24.1901C142.948 24.4401 143.838 24.8401 144.638 25.3901C145.128 25.7401 145.638 26.0401 146.158 26.3001C146.428 26.4301 146.718 26.5301 147.018 26.5801C147.348 26.5801 147.648 26.5501 147.928 26.5001V18.3201C147.708 18.1501 147.478 17.9801 147.228 17.8301C146.758 17.5801 146.168 17.2801 145.438 16.9201C144.698 16.5701 143.838 16.3201 142.838 16.1801C141.848 16.0301 140.738 16.2301 139.508 16.7501C138.278 17.2801 137.568 17.5501 137.358 17.5801C137.178 17.5901 136.788 17.9001 136.218 18.5001Z" fill="url(#paint2_linear)"/>
<path fill-rule="evenodd" clip-rule="evenodd" d="M69.4783 158.72L190.128 227.89L279.208 176.84L158.568 107.67L69.4783 158.72Z" fill="#993300"/>
<path fill-rule="evenodd" clip-rule="evenodd" d="M277.818 73.0401C277.638 73.2101 277.558 73.4401 277.558 73.7201V155.42C277.558 155.71 277.648 155.94 277.818 156.12C277.998 156.29 278.228 156.38 278.518 156.38H278.608C278.898 156.38 279.128 156.29 279.298 156.12C279.478 155.94 279.558 155.71 279.558 155.42V73.7201C279.558 73.4401 279.468 73.2001 279.298 73.0401C279.128 72.8601 278.898 72.78 278.608 72.78H278.518C278.218 72.77 277.988 72.8601 277.818 73.0401Z" fill="#383838"/>
<path fill-rule="evenodd" clip-rule="evenodd" d="M259.628 62.3999C259.458 62.5799 259.368 62.8099 259.368 63.0999V144.79C259.368 145.09 259.458 145.32 259.628 145.49C259.808 145.66 260.038 145.75 260.328 145.75H260.418C260.698 145.75 260.938 145.66 261.118 145.49C261.288 145.32 261.368 145.09 261.368 144.79V63.0999C261.368 62.8099 261.278 62.5799 261.118 62.3999C260.938 62.2299 260.708 62.1499 260.418 62.1499H260.328C260.028 62.1499 259.798 62.2299 259.628 62.3999Z" fill="#383838"/>
<path fill-rule="evenodd" clip-rule="evenodd" d="M237.458 53.3999C237.288 53.5799 237.198 53.8099 237.198 54.0999V135.79C237.198 136.09 237.288 136.32 237.458 136.49C237.628 136.66 237.868 136.75 238.158 136.75H238.248C238.528 136.75 238.758 136.66 238.938 136.49C239.118 136.32 239.198 136.09 239.198 135.79V54.0899C239.198 53.7999 239.108 53.5699 238.938 53.3899C238.758 53.2199 238.528 53.1399 238.248 53.1399H238.158C237.878 53.1399 237.638 53.2199 237.458 53.3999Z" fill="#383838"/>
<path fill-rule="evenodd" clip-rule="evenodd" d="M218.378 42.95C218.198 43.13 218.118 43.36 218.118 43.65V125.35C218.118 125.64 218.208 125.87 218.378 126.04C218.558 126.22 218.788 126.3 219.068 126.3H219.168C219.458 126.3 219.688 126.22 219.858 126.04C220.028 125.87 220.118 125.64 220.118 125.35V43.65C220.118 43.37 220.028 43.13 219.858 42.95C219.688 42.78 219.458 42.7 219.168 42.7H219.068C218.778 42.69 218.548 42.78 218.378 42.95Z" fill="#383838"/>
<path fill-rule="evenodd" clip-rule="evenodd" d="M198.918 32.3201C198.748 32.5001 198.658 32.7301 198.658 33.0201V114.71C198.658 115 198.748 115.24 198.918 115.41C199.098 115.59 199.328 115.67 199.618 115.67H199.708C199.998 115.67 200.228 115.58 200.408 115.41C200.578 115.24 200.668 115 200.668 114.71V33.0201C200.668 32.7301 200.578 32.5001 200.408 32.3201C200.228 32.1401 199.998 32.0601 199.708 32.0601H199.618C199.328 32.0601 199.098 32.1501 198.918 32.3201Z" fill="#383838"/>
<path fill-rule="evenodd" clip-rule="evenodd" d="M289.008 103.04L277.858 121.42L278.858 121.97L290.008 103.59L289.008 103.04ZM279.188 97.4701L268.048 115.74L269.168 116.41L280.308 98.0301L279.188 97.4701ZM189.778 106.83L188.778 106.16L177.638 124.53L178.748 125.09L189.778 106.83ZM259.348 110.73L270.498 92.4601L269.498 91.7901L258.348 110.17L259.348 110.73ZM259.678 86.2201L248.648 104.59L249.648 105.15L260.788 86.7701L259.678 86.2201ZM239.948 99.5801L251.088 81.2101L249.978 80.5401L238.828 98.9101L239.948 99.5801ZM230.148 93.9001L241.288 75.5201L240.288 74.9701L229.138 93.3401L230.148 93.9001ZM192.688 47.4601L191.568 46.9001L180.418 65.1701L181.538 65.8401L192.688 47.4601ZM220.438 88.3301L231.578 69.9601L230.578 69.4001L219.318 87.6801L220.438 88.3301ZM220.778 63.7101L209.628 82.1001L210.748 82.6601L221.898 64.3801L220.778 63.7101ZM211.078 58.1501L199.928 76.4201L200.928 77.0901L212.078 58.7101L211.078 58.1501ZM201.268 52.4701L190.118 70.8501L191.238 71.4001L202.388 53.1301L201.268 52.4701ZM159.238 113.95L170.388 95.5701L169.268 95.0201L158.128 113.29L159.238 113.95ZM168.938 119.53L180.078 101.25L179.078 100.58L167.938 118.96L168.938 119.53ZM188.448 130.77L199.588 112.4L198.478 111.85L187.328 130.22L188.448 130.77ZM208.288 117.41L197.148 135.79L198.148 136.35L209.288 118.08L208.288 117.41ZM207.838 142.03L218.988 123.65L217.988 123.1L206.838 141.37L207.838 142.03ZM217.658 147.6L228.798 129.33L227.678 128.66L216.538 147.04L217.658 147.6ZM258.008 146.15L256.888 145.48L245.748 163.86L246.868 164.41L258.008 146.15ZM227.348 153.28L238.498 134.9L237.498 134.35L226.348 152.62L227.348 153.28ZM237.168 158.85L248.308 140.58L247.198 139.91L236.048 158.29L237.168 158.85ZM256.568 170.1L267.708 151.73L266.708 151.17L255.558 169.44L256.568 170.1ZM275.628 166.31L277.518 165.2L260.798 171.55L259.908 171.99L258.908 172.67L275.628 166.31ZM265.928 171.88L249.208 178.23L247.208 179.34L263.928 172.99L265.928 171.88ZM235.598 186.03L252.328 179.68L254.328 178.57L237.608 184.92L235.598 186.03ZM224.008 192.83L240.738 186.48L242.628 185.26L225.908 191.61L224.008 192.83ZM212.308 199.51L229.028 193.16L231.028 192.04L214.308 198.39L212.308 199.51ZM195.688 215.21L202.598 212.65V211.2L195.688 215.21ZM267.708 146.04L278.848 127.66L277.848 127.11L266.708 145.48L267.708 146.04ZM217.988 117.3L218.988 117.97L230.138 99.5901L229.128 99.0401L217.988 117.3ZM248.648 110.28L237.498 128.55L238.498 129.23L249.648 110.85L248.648 110.28ZM258.008 140.46L269.158 122.09L268.038 121.42L256.888 139.79L258.008 140.46ZM248.308 134.79L259.348 116.52L258.348 115.85L247.208 134.22L248.308 134.79ZM238.838 104.6L227.688 122.98L228.808 123.53L239.958 105.26L238.838 104.6ZM219.438 93.3501L208.288 111.73L209.288 112.4L220.438 94.0201L219.438 93.3501ZM209.628 87.7801L198.488 106.16L199.598 106.71L210.748 88.3301L209.628 87.7801ZM189.778 101.15L200.918 82.7701L199.918 82.1001L188.778 100.48L189.778 101.15ZM190.118 76.5301L179.078 94.9101L180.078 95.4601L191.228 77.1901L190.118 76.5301ZM180.418 70.9601L169.278 89.2301L170.398 89.9001L181.538 71.5201L180.418 70.9601ZM88.6683 32.0901L86.9983 33.0901L112.188 69.4001L113.868 68.4001L88.6683 32.0901ZM47.2983 55.9201L72.4983 92.2401L74.2883 91.2301L49.0883 55.0301L47.2983 55.9201ZM76.9583 38.8801L102.148 75.0801L103.938 74.1901L78.7483 37.8701L76.9583 38.8801ZM93.8983 79.8701L68.7083 43.6701L67.1383 44.5601L92.3383 80.7601L93.8983 79.8701ZM57.3383 50.2401L82.5383 86.4401L84.0983 85.5501L58.9083 49.3501L57.3383 50.2401ZM64.2483 97.0201L39.0483 60.7101L37.3783 61.7001L62.5783 98.0201L64.2483 97.0201ZM54.2183 102.82L29.0283 66.5001L27.3583 67.5001L52.5483 103.7L54.2183 102.82ZM17.7683 73.0701L42.9583 109.27L43.2983 109.16L17.9883 72.8501L17.7683 73.0701ZM156.328 205.63L148.418 201.07L158.118 205.2L155.988 203.97L146.298 199.85L138.378 195.29L148.078 199.41L145.958 198.19L136.258 194.06L128.338 189.5L138.038 193.63L136.038 192.4L126.338 188.39L118.418 183.83L128.118 187.84L125.998 186.72L116.298 182.6L108.398 178L118.098 182.13L116.098 180.91L106.398 176.78L98.4783 172.22L108.178 176.34L106.058 175.12L96.3583 171L88.4483 166.43L98.1383 170.56L96.0283 169.34L86.4283 165.32L78.5083 160.76L88.1083 164.77L86.0883 163.65L76.3983 159.53L68.4783 154.97L78.1783 159.09L76.0483 157.87L66.3583 153.75L58.4383 149.18L50.4083 153.86L167.798 221.59L175.938 217.03L168.358 212.57L178.048 216.7L175.938 215.48L166.238 211.47L156.328 205.63ZM52.2083 111.62L77.5183 147.94L79.1883 146.94L53.9983 110.73L52.2083 111.62ZM89.1183 141.13L63.9183 104.93L62.2483 105.93L87.4483 142.13L89.1183 141.13ZM99.1483 135.34L73.9583 99.1401L72.2883 100.14L97.4783 136.34L99.1483 135.34ZM82.1983 94.3501L107.388 130.67L109.178 129.67L83.8783 93.3501L82.1983 94.3501ZM92.2283 88.5601L117.428 124.88L119.098 123.88L93.8983 87.6801L92.2283 88.5601ZM129.138 118.08L103.938 81.8801L102.148 82.8801L127.348 119.08L129.138 118.08ZM139.058 112.4L113.868 76.0801L112.188 77.0801L137.388 113.28L139.058 112.4ZM272.508 164.75L271.058 165.65L270.508 165.98L287.228 159.63L289.228 158.41L272.508 164.75Z" fill="#F3EDE0"/>
<path fill-rule="evenodd" clip-rule="evenodd" d="M242.628 185.25L240.738 186.47L231.038 192.04L229.038 193.16L219.338 198.73V240.17L298.708 194.39V152.95V108.73L287.568 127V132.68L276.428 151.06V156.74L271.068 165.65L272.518 164.75L281.988 159.3L298.708 152.95L289.238 158.41L287.238 159.63L277.538 165.2L275.648 166.31L265.948 171.89L263.948 173L254.358 178.58L252.358 179.69L242.628 185.25ZM185.658 221.01L175.968 217L167.828 221.56V231.25L185.658 221.01ZM113.868 76.0801L122.228 71.3001V63.6101L113.868 68.3901L112.188 69.3901L103.938 74.1801L102.148 75.0701L93.8982 79.8601L92.3382 80.7501L84.0882 85.5401L82.5282 86.4301L74.2782 91.2101L72.4882 92.2201L64.2382 97.0001L62.5682 98.0001L54.1982 102.79L52.5282 103.68L43.2782 109.14L42.9382 109.25V117.05L52.1882 111.59L53.9782 110.7L62.2282 105.91L63.8982 104.91L72.2582 100.12L73.9282 99.1201L82.1782 94.3301L83.8482 93.3301L92.2082 88.5501L93.8782 87.6601L102.128 82.8601L103.918 81.8601L112.168 77.0701L113.868 76.0801Z" fill="#E0D9CC"/>
<path fill-rule="evenodd" clip-rule="evenodd" d="M180.418 65.16L170.058 59.26V64.94L180.418 70.96L181.538 71.51L190.128 76.52L191.248 77.19L199.938 82.09L200.938 82.76L209.638 87.77L210.758 88.32L219.458 93.33L220.458 94L229.148 99.01L230.158 99.56L238.848 104.57L239.968 105.24L248.668 110.25L249.668 110.81L258.358 115.82L259.358 116.49L268.058 121.39L269.178 122.06L277.868 127.07L278.868 127.62L287.568 132.63V126.95L278.868 121.94L277.868 121.39L269.178 116.38L268.058 115.71L259.358 110.7L258.358 110.15L249.668 105.14L248.668 104.58L239.968 99.57L238.848 98.9L230.158 93.89L229.148 93.34L220.458 88.33L219.338 87.67L210.758 82.66L209.638 82.1L200.938 77.09L199.938 76.42L191.248 71.41L190.128 70.86L181.538 65.85L180.418 65.16ZM170.388 89.9L169.268 89.23L158.898 83.32V89L169.268 95.02L170.388 95.57L179.078 100.58L180.078 101.25L188.778 106.16L189.778 106.83L198.478 111.84L199.588 112.39L208.288 117.4L209.288 118.07L217.988 123.08L218.988 123.63L227.678 128.64L228.798 129.31L237.498 134.32L238.498 134.87L247.198 139.88L248.308 140.55L256.898 145.45L258.018 146.12L266.718 151.13L267.718 151.69L276.418 156.7V151.02L267.718 146.01L266.718 145.45L258.018 140.44L256.898 139.77L248.308 134.77L247.198 134.21L238.498 129.21L237.498 128.53L228.798 123.52L227.678 122.97L218.988 117.96L217.988 117.29L209.288 112.39L208.288 111.72L199.588 106.71L198.478 106.16L189.778 101.15L188.778 100.48L180.078 95.47L179.078 94.92L170.388 89.9ZM219.328 240.16V198.72L202.608 205.07V211.19V212.64V214.53L185.988 220.88L219.328 240.16ZM68.1583 153.28L42.9583 117.08V109.28L17.7683 73.08V124.22L68.1583 153.28ZM167.818 231.25V221.56L50.4283 153.83V163.52L167.818 231.25Z" fill="#A59882"/>
<path fill-rule="evenodd" clip-rule="evenodd" d="M87.4483 142.14L62.2483 105.94L53.9983 110.73L79.1983 146.93L87.4483 142.14ZM107.398 130.67L82.1983 94.35L73.9483 99.14L99.1383 135.34L107.398 130.67ZM127.348 119.08L102.148 82.88L93.8983 87.68L119.098 123.88L127.348 119.08ZM113.868 76.08L139.058 112.4L147.408 107.61L122.218 71.3L113.868 76.08Z" fill="#D8ECF3"/>
<path fill-rule="evenodd" clip-rule="evenodd" d="M42.9583 117.08L68.1583 153.28L77.5283 147.93L52.2183 111.61L42.9583 117.08ZM63.9183 104.93L89.1183 141.13L97.4783 136.35L72.2883 100.15L63.9183 104.93ZM117.428 124.88L92.2283 88.5601L83.8683 93.3401L109.178 129.66L117.428 124.88ZM103.938 81.8801L129.138 118.08L137.388 113.29L112.188 77.0901L103.938 81.8801Z" fill="#1AC6FF"/>
<path fill-rule="evenodd" clip-rule="evenodd" d="M93.8983 79.8699L102.148 75.0799L76.9583 38.8799L68.7083 43.6699L93.8983 79.8699ZM88.6683 32.0899L113.868 68.3999L122.228 63.6199L97.0383 27.4199L88.6683 32.0899ZM49.0883 55.0299L74.2883 91.2299L82.5383 86.4499L57.3383 50.2499L49.0883 55.0299ZM29.0283 66.4999L54.2183 102.82L62.5883 98.0299L37.3883 61.7099L29.0283 66.4999Z" fill="#ADD5E3"/>
<path fill-rule="evenodd" clip-rule="evenodd" d="M237.608 184.92L254.328 178.57L263.918 172.99L247.198 179.34L237.608 184.92ZM214.308 198.39L231.028 192.04L240.728 186.47L223.998 192.82L214.308 198.39ZM47.2983 55.9201L39.0483 60.7101L64.2483 97.0201L72.4983 92.2401L47.2983 55.9201ZM112.188 69.4001L86.9983 33.0901L78.7483 37.8701L103.938 74.1901L112.188 69.4001ZM58.9083 49.3501L84.0983 85.5501L92.3483 80.7601L67.1483 44.5601L58.9083 49.3501ZM52.5483 103.71L27.3583 67.5001L17.9883 72.8501L43.2983 109.17L52.5483 103.71ZM270.498 165.98L260.798 171.55L277.518 165.2L287.218 159.63L270.498 165.98Z" fill="#0096CB"/>
<path fill-rule="evenodd" clip-rule="evenodd" d="M275.628 166.31L258.908 172.67L249.208 178.24L265.928 171.89L275.628 166.31ZM242.628 185.25L252.328 179.67L235.598 186.02L225.908 191.6L242.628 185.25ZM219.328 198.73L229.028 193.16L212.308 199.51L202.608 205.08L219.328 198.73ZM289.228 158.41L298.698 152.95L281.978 159.3L272.508 164.75L289.228 158.41Z" fill="#ACD5E4"/>
<path fill-rule="evenodd" clip-rule="evenodd" d="M202.608 212.65L195.688 215.21L185.988 220.89L202.608 214.54V212.65Z" fill="#00C5FF"/>
<path fill-rule="evenodd" clip-rule="evenodd" d="M158.128 113.29L169.268 95.02L158.898 89L147.758 107.38L158.128 113.29ZM180.078 101.25L168.938 119.53L177.638 124.53L188.778 106.16L180.078 101.25ZM197.148 135.79L208.288 117.41L199.588 112.4L188.448 130.77L197.148 135.79ZM216.538 147.04L227.678 128.66L218.988 123.65L207.838 142.03L216.538 147.04ZM227.348 153.28L236.048 158.29L247.198 139.91L238.498 134.9L227.348 153.28ZM258.008 146.15L246.868 164.42L255.558 169.43L266.708 151.16L258.008 146.15Z" fill="#FFD41C"/>
<path fill-rule="evenodd" clip-rule="evenodd" d="M169.268 89.2299L180.408 70.9599L170.048 64.9399L158.898 83.3199L169.268 89.2299ZM258.008 140.46L266.708 145.47L277.848 127.1L269.158 122.09L258.008 140.46ZM249.648 110.84L238.498 129.22L247.198 134.22L258.338 115.85L249.648 110.84ZM227.678 122.98L238.828 104.6L230.138 99.5899L218.988 117.97L227.678 122.98ZM208.288 111.73L219.438 93.3499L210.738 88.3399L199.588 106.72L208.288 111.73ZM191.238 77.1999L180.088 95.4699L188.788 100.48L199.928 82.0999L191.238 77.1999Z" fill="#CFA800"/>
<path fill-rule="evenodd" clip-rule="evenodd" d="M277.848 121.42L288.998 103.04L280.298 98.0301L269.158 116.41L277.848 121.42ZM258.348 110.17L269.498 91.7901L260.798 86.7801L249.658 105.16L258.348 110.17ZM238.838 98.9101L249.988 80.5401L241.288 75.5301L230.148 93.9001L238.838 98.9101ZM219.328 87.6701L230.588 69.3901L221.898 64.3801L210.748 82.6601L219.328 87.6701ZM202.388 53.1301L191.238 71.4001L199.928 76.4101L211.078 58.1401L202.388 53.1301ZM170.048 59.2601L180.408 65.1601L191.558 46.8901L181.188 40.8701L170.048 59.2601ZM175.968 217L185.658 221.01L178.078 216.67L168.388 212.54L175.968 217ZM158.128 205.19L148.428 201.06L156.338 205.62L166.038 209.75L158.128 205.19ZM138.058 193.61L128.358 189.48L136.278 194.04L145.978 198.17L138.058 193.61ZM118.098 182.13L108.398 178L116.318 182.57L126.018 186.69L118.098 182.13ZM98.1383 170.54L88.4483 166.41L96.3583 170.98L106.058 175.1L98.1383 170.54ZM78.1883 159.07L68.4883 154.95L76.4083 159.51L86.0983 163.63L78.1883 159.07Z" fill="#FFD500"/>
<path fill-rule="evenodd" clip-rule="evenodd" d="M290.008 103.59L278.858 121.97L287.558 126.98L298.698 108.71L290.008 103.59ZM259.348 110.73L268.048 115.74L279.188 97.47L270.498 92.46L259.348 110.73ZM189.778 106.83L178.738 125.1L187.328 130.22L198.478 111.85L189.778 106.83ZM251.098 81.21L239.958 99.58L248.658 104.59L259.688 86.22L251.098 81.21ZM220.438 88.33L229.128 93.34L240.278 74.97L231.578 69.96L220.438 88.33ZM192.688 47.46L181.538 65.84L190.128 70.85L201.278 52.47L192.688 47.46ZM212.078 58.7L200.928 77.08L209.628 82.09L220.778 63.71L212.078 58.7ZM167.928 118.97L179.068 100.59L170.378 95.58L159.228 113.96L167.928 118.97ZM209.288 118.08L198.148 136.35L206.838 141.36L217.988 123.09L209.288 118.08ZM228.798 129.33L217.658 147.6L226.348 152.61L237.498 134.34L228.798 129.33ZM248.308 140.58L237.168 158.85L245.748 163.86L256.888 145.48L248.308 140.58ZM271.048 165.65L276.408 156.74L267.708 151.73L256.568 170.1L259.908 171.99L260.798 171.55L270.498 165.98L271.048 165.65Z" fill="#FF6F4D"/>
<path fill-rule="evenodd" clip-rule="evenodd" d="M278.858 127.66L267.718 146.04L276.418 151.05L287.558 132.67L278.858 127.66ZM256.888 139.8L268.038 121.43L259.338 116.53L248.298 134.8L256.888 139.8ZM248.648 110.28L239.948 105.27L228.798 123.54L237.498 128.55L248.648 110.28ZM217.988 117.3L229.128 99.03L220.438 94.02L209.288 112.4L217.988 117.3ZM198.478 106.16L209.618 87.78L200.918 82.77L189.778 101.15L198.478 106.16ZM179.078 94.91L190.118 76.53L181.528 71.52L170.388 89.9L179.078 94.91ZM58.4583 149.15L66.3783 153.72L76.0683 157.84L68.1583 153.27L58.4583 149.15ZM128.128 187.81L118.428 183.8L126.348 188.36L136.048 192.37L128.128 187.81ZM108.178 176.33L98.4783 172.21L106.398 176.77L116.098 180.9L108.178 176.33ZM88.1183 164.75L78.5182 160.74L86.4383 165.3L96.0383 169.32L88.1183 164.75Z" fill="#C73A13"/>
<path fill-rule="evenodd" clip-rule="evenodd" d="M166.028 209.76L156.328 205.63L166.258 211.43L175.958 215.44L166.028 209.76ZM148.088 199.39L138.388 195.27L146.308 199.83L155.998 203.95L148.088 199.39Z" fill="#C93900"/>
<path fill-rule="evenodd" clip-rule="evenodd" d="M18.8284 137.1L23.3384 134.76V142.51L18.8284 144.85V137.1Z" fill="#DBD8CD"/>
<path fill-rule="evenodd" clip-rule="evenodd" d="M23.3383 134.76L18.8283 137.1L13.7883 134.22L18.4683 131.52L23.3383 134.58V134.76Z" fill="#F5F1E1"/>
<path fill-rule="evenodd" clip-rule="evenodd" d="M18.4684 144.85L13.6084 141.96V134.22L18.4684 137.1V144.85Z" fill="#8A8881"/>
<path fill-rule="evenodd" clip-rule="evenodd" d="M17.5183 49.25C17.3483 49.43 17.2583 49.66 17.2583 49.95V131.65C17.2583 131.93 17.3483 132.17 17.5183 132.33C17.6983 132.51 17.9283 132.59 18.2183 132.59H18.3183C18.5983 132.59 18.8383 132.5 18.9983 132.33C19.1783 132.16 19.2583 131.93 19.2583 131.65V49.95C19.2583 49.66 19.1683 49.43 18.9983 49.25C18.8283 49.08 18.5983 48.99 18.3183 48.99H18.2183C17.9383 48.99 17.6983 49.08 17.5183 49.25Z" fill="#383838"/>
<path fill-rule="evenodd" clip-rule="evenodd" d="M5.61833 55.7801C5.04833 56.3801 4.43833 56.0401 3.78833 54.7801V63.7801C4.66833 64.6401 5.51833 64.8201 6.33833 64.3001C7.15833 63.7701 7.84833 63.2401 8.41833 62.7201C8.97833 62.1901 9.41833 61.8601 9.75833 61.7301C10.3083 61.5001 10.8383 61.4201 11.3583 61.4801C12.3483 61.7301 13.2383 62.1301 14.0383 62.6801C14.5283 63.0401 15.0383 63.3401 15.5583 63.5901C15.8283 63.7201 16.1183 63.8201 16.4183 63.8701C16.7483 63.8701 17.0483 63.8501 17.3283 63.7901V55.6001C17.1083 55.4301 16.8783 55.2701 16.6283 55.1101C16.1583 54.8601 15.5683 54.5601 14.8383 54.2101C14.0983 53.8601 13.2383 53.6101 12.2383 53.4701C11.2483 53.3301 10.1383 53.5201 8.90833 54.0401C7.67833 54.5701 6.96833 54.8401 6.75833 54.8701C6.57833 54.8801 6.18833 55.1801 5.61833 55.7801Z" fill="url(#paint3_linear)"/>
<path fill-rule="evenodd" clip-rule="evenodd" d="M35.0383 139.62L30.5383 142.14L25.4983 139.26L30.1883 136.38L35.0383 139.62Z" fill="#F5F1E1"/>
<path fill-rule="evenodd" clip-rule="evenodd" d="M30.5383 142.14L35.0383 139.62V147.55L30.5383 149.89V142.14Z" fill="#DBD8CD"/>
<path fill-rule="evenodd" clip-rule="evenodd" d="M25.3083 139.26L30.1884 142.14V149.89L25.3083 147.01V139.26Z" fill="#8A8881"/>
<path fill-rule="evenodd" clip-rule="evenodd" d="M29.2383 54.6499C29.0583 54.8299 28.9783 55.0599 28.9783 55.3499V137.04C28.9783 137.33 29.0683 137.56 29.2383 137.73C29.4183 137.91 29.6483 137.99 29.9283 137.99H30.0283C30.3183 137.99 30.5483 137.91 30.7183 137.73C30.8883 137.56 30.9783 137.33 30.9783 137.04V55.3599C30.9783 55.0699 30.8883 54.8299 30.7183 54.6599C30.5483 54.4899 30.3183 54.4099 30.0283 54.4099H29.9283C29.6383 54.3999 29.4083 54.4899 29.2383 54.6499Z" fill="#383838"/>
<path fill-rule="evenodd" clip-rule="evenodd" d="M17.3283 60.6499C16.7683 61.2499 16.1483 60.9099 15.4983 59.6399V68.6499C16.3783 69.5099 17.2283 69.6899 18.0483 69.1699C18.8783 68.6399 19.5583 68.1099 20.1283 67.5899C20.6883 67.0599 21.1383 66.7399 21.4683 66.5999C22.0183 66.3899 22.5483 66.2999 23.0783 66.3499C24.0683 66.5999 24.9483 66.9999 25.7483 67.5499C26.2383 67.8999 26.7483 68.2099 27.2683 68.4599C27.5383 68.5899 27.8283 68.6899 28.1383 68.7499C28.4583 68.7499 28.7583 68.7099 29.0383 68.6599V60.4799C28.8283 60.3099 28.5883 60.1499 28.3383 59.9899C27.8683 59.7399 27.2783 59.4399 26.5483 59.0799C25.8183 58.7299 24.9583 58.4799 23.9483 58.3399C22.9583 58.1899 21.8483 58.3799 20.6183 58.9099C19.3983 59.4399 18.6783 59.7099 18.4783 59.7399C18.2883 59.7399 17.8983 60.0499 17.3283 60.6499Z" fill="url(#paint4_linear)"/>
<path fill-rule="evenodd" clip-rule="evenodd" d="M37.0283 153.68V145.93L41.8883 148.81V156.56L37.0283 153.68Z" fill="#8A8881"/>
<path fill-rule="evenodd" clip-rule="evenodd" d="M46.7584 146.46L42.2584 148.81L37.3884 145.93L41.8884 143.23L46.7584 146.29V146.46Z" fill="#F5F1E1"/>
<path fill-rule="evenodd" clip-rule="evenodd" d="M42.2583 148.81L46.7583 146.46V154.21L42.2583 156.56V148.81Z" fill="#DBD8CD"/>
<path fill-rule="evenodd" clip-rule="evenodd" d="M41.2983 61.3201C41.1283 61.4901 41.0383 61.7201 41.0383 62.0101V143.71C41.0383 144 41.1283 144.23 41.2983 144.41C41.4783 144.58 41.7083 144.66 41.9983 144.66H42.0883C42.3783 144.66 42.6083 144.57 42.7883 144.41C42.9583 144.23 43.0483 144 43.0483 143.71V62.0101C43.0483 61.7201 42.9583 61.4901 42.7883 61.3201C42.6083 61.1401 42.3783 61.0601 42.0883 61.0601H41.9983C41.7083 61.0701 41.4783 61.1501 41.2983 61.3201Z" fill="#383838"/>
<path fill-rule="evenodd" clip-rule="evenodd" d="M29.2184 67.8501C28.6584 68.4501 28.0384 68.1101 27.3884 66.8501V75.8601C28.2684 76.7201 29.1184 76.8901 29.9384 76.3701C30.7684 75.8401 31.4484 75.3101 32.0184 74.7901C32.5784 74.2601 33.0284 73.9401 33.3584 73.8001C33.9084 73.5801 34.4384 73.4901 34.9684 73.5601C35.9484 73.8001 36.8384 74.2001 37.6384 74.7501C38.1284 75.1101 38.6384 75.4101 39.1584 75.6601C39.4284 75.8001 39.7184 75.8901 40.0284 75.9501C40.3584 75.9501 40.6584 75.9201 40.9284 75.8701V67.6801C40.7184 67.5101 40.4784 67.3501 40.2284 67.1901C39.7684 66.9401 39.1684 66.6401 38.4384 66.2801C37.7084 65.9301 36.8484 65.6801 35.8484 65.5401C34.8584 65.4001 33.7484 65.5901 32.5184 66.1201C31.2984 66.6401 30.5784 66.9101 30.3784 66.9401C30.1784 66.9501 29.7884 67.2501 29.2184 67.8501Z" fill="url(#paint5_linear)"/>
<path fill-rule="evenodd" clip-rule="evenodd" d="M248.918 140.94C249.088 141.12 249.178 141.35 249.178 141.64V223.33C249.178 223.62 249.088 223.85 248.918 224.03C248.738 224.2 248.508 224.28 248.218 224.28H248.118C247.838 224.28 247.598 224.2 247.428 224.03C247.248 223.85 247.168 223.62 247.168 223.33V141.64C247.168 141.35 247.258 141.11 247.428 140.94C247.598 140.77 247.828 140.68 248.118 140.68H248.218C248.498 140.68 248.738 140.77 248.918 140.94Z" fill="#383838"/>
<path fill-rule="evenodd" clip-rule="evenodd" d="M267.468 129.59C267.648 129.77 267.728 130 267.728 130.29V211.99C267.728 212.27 267.638 212.51 267.468 212.68C267.288 212.86 267.058 212.94 266.768 212.94H266.678C266.388 212.94 266.158 212.85 265.988 212.68C265.818 212.51 265.728 212.27 265.728 211.99V130.29C265.728 130 265.818 129.77 265.988 129.59C266.158 129.41 266.388 129.33 266.678 129.33H266.768C267.058 129.33 267.288 129.42 267.468 129.59Z" fill="#383838"/>
<path fill-rule="evenodd" clip-rule="evenodd" d="M287.818 118.78C287.988 118.96 288.078 119.19 288.078 119.48V201.18C288.078 201.47 287.988 201.7 287.818 201.88C287.648 202.06 287.408 202.14 287.118 202.14H287.028C286.748 202.14 286.508 202.06 286.338 201.88C286.168 201.7 286.078 201.47 286.078 201.18V119.48C286.078 119.2 286.168 118.96 286.338 118.78C286.508 118.61 286.748 118.52 287.028 118.52H287.118C287.408 118.53 287.648 118.62 287.818 118.78Z" fill="#383838"/>
<path fill-rule="evenodd" clip-rule="evenodd" d="M164.338 145.82L131.088 126.85L106.088 141.06L139.388 160.02L164.338 145.82Z" fill="#6D2201"/>
<path fill-rule="evenodd" clip-rule="evenodd" d="M110.758 136.7V138.56L139.488 155.24V153.38L110.758 136.7Z" fill="#4D4D4D"/>
<path fill-rule="evenodd" clip-rule="evenodd" d="M167.638 139.92L132.798 119.88L106.608 134.89L141.498 154.93L167.638 139.92Z" fill="white"/>
<path fill-rule="evenodd" clip-rule="evenodd" d="M133.078 121.11L108.668 135.11L141.178 153.78L165.548 139.79L133.078 121.11Z" fill="#2E3192"/>
<path d="M121.878 127.44L153.508 146.7" stroke="white" stroke-width="0.2835" stroke-miterlimit="10" stroke-linecap="round" stroke-linejoin="round"/>
<path fill-rule="evenodd" clip-rule="evenodd" d="M139.488 155.24L140.408 154.31L139.508 153.78L139.488 155.24Z" fill="#444343"/>
<g opacity="0.85">
<path opacity="0.85" d="M124.438 140.47L149.108 126.23V130.24L124.438 144.49V140.47Z" fill="white"/>
<path opacity="0.85" d="M148.968 126.47V130.16L124.578 144.24V140.55L148.968 126.47ZM149.248 125.98L124.298 140.38V144.73L149.248 130.32V125.98Z" fill="#999999"/>
</g>
<path fill-rule="evenodd" clip-rule="evenodd" d="M227.808 182.36L194.558 163.39L169.558 177.6L202.858 196.57L227.808 182.36Z" fill="#6D2201"/>
<path fill-rule="evenodd" clip-rule="evenodd" d="M174.228 173.25V175.1L202.958 191.78V189.93L174.228 173.25Z" fill="#4D4D4D"/>
<path fill-rule="evenodd" clip-rule="evenodd" d="M231.108 176.46L196.278 156.43L170.078 171.44L204.968 191.47L231.108 176.46Z" fill="white"/>
<path fill-rule="evenodd" clip-rule="evenodd" d="M196.558 157.66L172.138 171.65L204.658 190.33L229.018 176.34L196.558 157.66Z" fill="#2E3192"/>
<path d="M185.348 163.98L216.988 183.25" stroke="white" stroke-width="0.2835" stroke-miterlimit="10" stroke-linecap="round" stroke-linejoin="round"/>
<path fill-rule="evenodd" clip-rule="evenodd" d="M202.958 191.78L203.878 190.85L202.978 190.33L202.958 191.78Z" fill="#444343"/>
<g opacity="0.85">
<path opacity="0.85" d="M187.908 177.01L212.578 162.77V166.79L187.908 181.03V177.01Z" fill="white"/>
<path opacity="0.85" d="M212.438 163.02V166.71L188.048 180.79V177.1L212.438 163.02ZM212.718 162.53L187.768 176.93V181.28L212.718 166.87V162.53Z" fill="#999999"/>
</g>
<path fill-rule="evenodd" clip-rule="evenodd" d="M129.988 189.15L124.768 169.7L203.578 125.68L205.548 143.69L129.988 189.15Z" fill="#07476B"/>
<path fill-rule="evenodd" clip-rule="evenodd" d="M226.748 153.01C226.928 153.19 227.008 153.42 227.008 153.71V235.4C227.008 235.69 226.918 235.92 226.748 236.1C226.578 236.28 226.348 236.36 226.068 236.36H225.978C225.688 236.36 225.448 236.28 225.278 236.1C225.098 235.92 225.018 235.69 225.018 235.4V153.71C225.018 153.42 225.108 153.18 225.278 153.01C225.448 152.84 225.688 152.75 225.978 152.75H226.068C226.348 152.75 226.578 152.84 226.748 153.01Z" fill="#383838"/>
<defs>
<linearGradient id="paint0_linear" x1="122.227" y1="8.92182" x2="77.8454" y2="8.92182" gradientUnits="userSpaceOnUse">
<stop stop-color="#770000"/>
<stop offset="0.1843" stop-color="#FF0000"/>
<stop offset="0.2627" stop-color="#FFA1A1"/>
<stop offset="0.3725" stop-color="#FF0000"/>
<stop offset="0.4471" stop-color="#9D0000"/>
<stop offset="0.5216" stop-color="#FF0000"/>
<stop offset="0.6039" stop-color="#FF8585"/>
<stop offset="0.698" stop-color="#FF0000"/>
<stop offset="0.9529" stop-color="#B20000"/>
</linearGradient>
<linearGradient id="paint1_linear" x1="134.292" y1="14.1465" x2="89.9053" y2="14.1465" gradientUnits="userSpaceOnUse">
<stop stop-color="#770000"/>
<stop offset="0.1843" stop-color="#FF0000"/>
<stop offset="0.2627" stop-color="#FFA1A1"/>
<stop offset="0.3725" stop-color="#FF0000"/>
<stop offset="0.4471" stop-color="#9D0000"/>
<stop offset="0.5216" stop-color="#FF0000"/>
<stop offset="0.6039" stop-color="#FF8585"/>
<stop offset="0.698" stop-color="#FF0000"/>
<stop offset="0.9529" stop-color="#B20000"/>
</linearGradient>
<linearGradient id="paint2_linear" x1="145.999" y1="21.7126" x2="101.612" y2="21.7126" gradientUnits="userSpaceOnUse">
<stop stop-color="#770000"/>
<stop offset="0.1843" stop-color="#FF0000"/>
<stop offset="0.2627" stop-color="#FFA1A1"/>
<stop offset="0.3725" stop-color="#FF0000"/>
<stop offset="0.4471" stop-color="#9D0000"/>
<stop offset="0.5216" stop-color="#FF0000"/>
<stop offset="0.6039" stop-color="#FF8585"/>
<stop offset="0.698" stop-color="#FF0000"/>
<stop offset="0.9529" stop-color="#B20000"/>
</linearGradient>
<linearGradient id="paint3_linear" x1="15.405" y1="58.9995" x2="-28.9924" y2="58.9995" gradientUnits="userSpaceOnUse">
<stop stop-color="#770000"/>
<stop offset="0.1843" stop-color="#FF0000"/>
<stop offset="0.2627" stop-color="#FFA1A1"/>
<stop offset="0.3725" stop-color="#FF0000"/>
<stop offset="0.4471" stop-color="#9D0000"/>
<stop offset="0.5216" stop-color="#FF0000"/>
<stop offset="0.6039" stop-color="#FF8585"/>
<stop offset="0.698" stop-color="#FF0000"/>
<stop offset="0.9529" stop-color="#B20000"/>
</linearGradient>
<linearGradient id="paint4_linear" x1="27.1119" y1="63.8622" x2="-17.2856" y2="63.8622" gradientUnits="userSpaceOnUse">
<stop stop-color="#770000"/>
<stop offset="0.1843" stop-color="#FF0000"/>
<stop offset="0.2627" stop-color="#FFA1A1"/>
<stop offset="0.3725" stop-color="#FF0000"/>
<stop offset="0.4471" stop-color="#9D0000"/>
<stop offset="0.5216" stop-color="#FF0000"/>
<stop offset="0.6039" stop-color="#FF8585"/>
<stop offset="0.698" stop-color="#FF0000"/>
<stop offset="0.9529" stop-color="#B20000"/>
</linearGradient>
<linearGradient id="paint5_linear" x1="39.0033" y1="71.0696" x2="-5.3775" y2="71.0696" gradientUnits="userSpaceOnUse">
<stop stop-color="#770000"/>
<stop offset="0.1843" stop-color="#FF0000"/>
<stop offset="0.2627" stop-color="#FFA1A1"/>
<stop offset="0.3725" stop-color="#FF0000"/>
<stop offset="0.4471" stop-color="#9D0000"/>
<stop offset="0.5216" stop-color="#FF0000"/>
<stop offset="0.6039" stop-color="#FF8585"/>
<stop offset="0.698" stop-color="#FF0000"/>
<stop offset="0.9529" stop-color="#B20000"/>
</linearGradient>
</defs>
</svg>
