<svg width="100%" height="100%" viewBox="0 0 46 40" fill="none" xmlns="http://www.w3.org/2000/svg">
<path d="M7.14286 0C5.24845 0 3.43164 0.752549 2.09209 2.09209C0.752549 3.43164 0 5.24845 0 7.14286V32.8571C0 34.7515 0.752549 36.5684 2.09209 37.9079C3.43164 39.2475 5.24845 40 7.14286 40H38.5714C40.4658 40 42.2826 39.2475 43.6222 37.9079C44.9617 36.5684 45.7143 34.7515 45.7143 32.8571V7.14286C45.7143 5.24845 44.9617 3.43164 43.6222 2.09209C42.2826 0.752549 40.4658 0 38.5714 0H7.14286Z" fill="#7D0396"/>
<path d="M19.5217 10.8832C19.3054 10.748 19.0569 10.6732 18.802 10.6665C18.5471 10.6598 18.295 10.7215 18.072 10.8451C17.8489 10.9687 17.6631 11.1498 17.5336 11.3695C17.4042 11.5892 17.3359 11.8396 17.3359 12.0946V26.8089C17.3359 27.0671 17.4058 27.3204 17.5383 27.5421C17.6708 27.7637 17.8609 27.9453 18.0883 28.0675C18.3157 28.1897 18.572 28.248 18.83 28.2362C19.0879 28.2243 19.3378 28.1428 19.5531 28.0003L30.9816 20.4317C31.1806 20.2999 31.3434 20.1202 31.4551 19.9092C31.5667 19.6982 31.6237 19.4626 31.6209 19.224C31.6181 18.9853 31.5554 18.7511 31.4388 18.5428C31.3221 18.3345 31.1551 18.1588 30.9531 18.0317L19.5245 10.8832H19.5217Z" fill="white"/>
</svg>
