<svg width="272" height="152" viewBox="0 0 272 152" fill="none" xmlns="http://www.w3.org/2000/svg">
<g opacity="0.2">
<path opacity="0.2" fill-rule="evenodd" clip-rule="evenodd" d="M105.548 146.26C125.488 145.49 142.488 151.18 161.888 151.79C192.288 152.76 228.138 140.39 255.668 119.44C259.578 116.47 263.418 113.22 265.798 109.5C267.868 106.27 268.678 102.91 269.328 99.65C270.518 93.76 271.308 87.92 271.718 82.18C271.978 78.52 272.018 74.71 269.758 72.19C267.728 69.92 264.118 69 260.568 68.27C239.468 63.91 216.108 63.37 194.528 59.78C166.028 55.04 139.758 44.96 107.688 48.79C91.6484 50.7 75.1184 56.03 58.8684 61.67C43.3184 67.06 25.8784 74.16 17.0984 86.59C11.7584 94.15 10.8184 102.16 10.2784 109.69C9.98844 113.7 9.78844 117.8 11.4584 121.06C13.5284 125.11 18.2384 127.39 22.9184 129.38C50.1184 140.94 81.9884 147.14 116.248 147.55" fill="#DCE56B"/>
</g>
<path fill-rule="evenodd" clip-rule="evenodd" d="M115.559 80.46C106.939 83.08 99.6486 86.97 93.6786 92.14C87.6986 97.31 84.8086 102.23 84.9686 106.92C85.1086 111.61 88.2786 114.69 94.4686 116.16L141.579 127.36C147.769 128.83 155.159 128.27 163.769 125.66C172.349 123.05 179.619 119.17 185.599 114C191.569 108.83 194.489 103.9 194.369 99.2C194.199 94.51 191.019 91.44 184.819 89.96L137.719 78.75C131.509 77.28 124.129 77.85 115.559 80.46ZM185.719 89.66C192.039 91.16 195.289 94.3 195.459 99.08C195.599 103.87 192.629 108.9 186.539 114.17C180.449 119.44 173.019 123.41 164.249 126.07C155.479 128.73 147.929 129.31 141.619 127.81L93.5686 116.38C87.2586 114.88 84.0286 111.74 83.8786 106.95C83.7186 102.16 86.6886 97.13 92.7786 91.86C98.8686 86.6 106.299 82.63 115.089 79.96C123.839 77.3 131.369 76.73 137.679 78.23L185.719 89.66ZM114.399 78.84C105.199 81.68 97.3686 85.89 90.9086 91.48C84.4586 97.06 81.2786 102.37 81.3686 107.42C81.4486 112.46 84.7686 115.77 91.3286 117.33L141.259 129.21C147.819 130.77 155.709 130.13 164.899 127.29C174.089 124.45 181.909 120.24 188.359 114.66C194.819 109.07 198.009 103.76 197.939 98.71C197.859 93.67 194.539 90.36 187.969 88.8L138.039 76.92C131.469 75.36 123.589 76 114.399 78.84ZM188.739 88.49C195.389 90.07 198.739 93.43 198.809 98.56C198.849 103.71 195.579 109.13 188.999 114.82C182.419 120.51 174.449 124.81 165.109 127.71C155.749 130.61 147.749 131.28 141.109 129.69L90.5086 117.65C83.8586 116.06 80.5086 112.7 80.4686 107.56C80.4186 102.42 83.6886 97 90.2686 91.32C96.8486 85.63 104.819 81.33 114.169 78.41C123.509 75.51 131.509 74.86 138.159 76.44L188.739 88.49ZM179.339 92.1C184.919 93.43 187.889 96.12 188.239 100.18C188.549 104.24 186.159 108.49 181.039 112.91C175.929 117.33 169.609 120.63 162.069 122.81C154.499 125 147.919 125.43 142.339 124.1L99.8186 113.98C94.2186 112.65 91.2686 109.95 90.9486 105.89C90.6086 101.83 92.9786 97.59 98.0886 93.17C103.199 88.75 109.549 85.44 117.119 83.25C124.649 81.07 131.219 80.64 136.819 81.97L179.339 92.1ZM116.419 82.06C108.419 84.43 101.679 87.99 96.1986 92.73C90.7186 97.47 88.1086 102 88.3686 106.32C88.5986 110.65 91.6386 113.51 97.4786 114.9L141.849 125.46C147.679 126.85 154.599 126.36 162.599 123.98C170.569 121.62 177.289 118.07 182.769 113.33C188.249 108.59 190.869 104.05 190.639 99.72C190.369 95.4 187.319 92.55 181.479 91.16L137.109 80.6C131.289 79.22 124.379 79.7 116.419 82.06ZM182.439 90.88C188.379 92.29 191.489 95.21 191.759 99.62C191.999 104.04 189.339 108.66 183.749 113.49C178.159 118.33 171.289 121.95 163.149 124.37C154.979 126.78 147.929 127.28 141.989 125.87L96.7186 115.1C90.7686 113.68 87.6686 110.77 87.4286 106.35C87.1686 101.94 89.8286 97.32 95.4186 92.48C100.999 87.65 107.869 84.03 116.029 81.61C124.169 79.2 131.209 78.7 137.159 80.12L182.439 90.88ZM95.5586 105.18C96.0086 108.77 98.7886 111.18 103.899 112.39L142.829 121.65C147.939 122.87 153.889 122.54 160.669 120.67C167.429 118.8 173.039 115.94 177.499 112.08C181.959 108.22 183.979 104.49 183.539 100.89C183.069 97.31 180.279 94.9 175.159 93.69L136.229 84.43C131.119 83.21 125.179 83.54 118.419 85.4C111.629 87.28 106.009 90.15 101.539 94.01C97.0786 97.87 95.0786 101.59 95.5586 105.18ZM118.109 84.94C125.039 83.01 131.109 82.67 136.329 83.91L176.039 93.36C181.249 94.6 184.079 97.06 184.529 100.74C184.949 104.44 182.859 108.28 178.249 112.26C173.659 116.23 167.889 119.19 160.959 121.13C154.009 123.06 147.939 123.41 142.719 122.18L103.009 112.73C97.7886 111.49 94.9686 109.02 94.5286 105.33C94.0886 101.64 96.1686 97.8 100.759 93.83C105.379 89.84 111.159 86.88 118.109 84.94ZM91.9186 105.78C92.2686 109.74 95.1786 112.37 100.659 113.67L142.349 123.59C147.829 124.89 154.269 124.49 161.649 122.37C169.029 120.26 175.199 117.05 180.159 112.76C185.129 108.46 187.439 104.33 187.079 100.37C186.709 96.42 183.789 93.79 178.309 92.49L136.619 82.57C131.139 81.27 124.709 81.67 117.349 83.78C109.949 85.9 103.779 89.1 98.8086 93.4C93.8386 97.7 91.5386 101.82 91.9186 105.78Z" fill="white"/>
<path fill-rule="evenodd" clip-rule="evenodd" d="M184.799 89.96C190.999 91.43 194.179 94.51 194.349 99.2C194.479 103.9 191.549 108.83 185.579 114C179.599 119.17 172.329 123.05 163.749 125.66C155.139 128.27 147.749 128.84 141.559 127.36L94.4485 116.16C88.2585 114.69 85.0885 111.61 84.9485 106.92C84.7785 102.23 87.6785 97.31 93.6585 92.14C99.6285 86.97 106.929 83.08 115.539 80.46C124.119 77.85 131.499 77.29 137.689 78.76L184.799 89.96ZM115.089 79.96C106.309 82.63 98.8685 86.6 92.7785 91.86C86.6885 97.13 83.7185 102.16 83.8785 106.95C84.0285 111.73 87.2585 114.88 93.5685 116.38L141.619 127.81C147.929 129.32 155.479 128.74 164.249 126.07C173.009 123.41 180.439 119.44 186.539 114.17C192.629 108.91 195.599 103.88 195.459 99.08C195.289 94.3 192.039 91.16 185.719 89.66L137.679 78.23C131.369 76.73 123.839 77.3 115.089 79.96ZM187.949 88.8C194.519 90.36 197.839 93.67 197.919 98.71C197.989 103.76 194.799 109.07 188.339 114.66C181.889 120.24 174.069 124.45 164.879 127.29C155.689 130.13 147.809 130.77 141.239 129.21L91.3085 117.33C84.7485 115.77 81.4285 112.47 81.3485 107.42C81.2585 102.37 84.4485 97.06 90.8885 91.48C97.3485 85.89 105.189 81.68 114.379 78.84C123.569 76 131.449 75.36 137.999 76.92L187.949 88.8ZM117.109 83.26C109.539 85.45 103.189 88.76 98.0785 93.18C92.9685 97.6 90.5885 101.84 90.9385 105.9C91.2585 109.96 94.2085 112.66 99.8085 113.99L142.329 124.11C147.919 125.44 154.489 125.01 162.059 122.82C169.599 120.63 175.929 117.33 181.029 112.92C186.149 108.49 188.539 104.25 188.229 100.19C187.879 96.13 184.909 93.44 179.329 92.11L136.799 82C131.219 80.65 124.649 81.08 117.109 83.26ZM181.489 91.17C187.329 92.56 190.379 95.41 190.649 99.73C190.879 104.06 188.259 108.6 182.779 113.34C177.299 118.08 170.579 121.63 162.609 123.99C154.609 126.36 147.689 126.86 141.859 125.47L97.4785 114.9C91.6385 113.51 88.5985 110.65 88.3685 106.32C88.1085 102 90.7185 97.47 96.1985 92.73C101.679 87.99 108.419 84.43 116.419 82.06C124.389 79.7 131.289 79.21 137.129 80.6L181.489 91.17ZM116.049 81.61C107.889 84.03 101.019 87.65 95.4385 92.48C89.8485 97.32 87.1785 101.94 87.4485 106.35C87.6885 110.77 90.7885 113.68 96.7385 115.1L141.999 125.86C147.939 127.27 154.989 126.77 163.159 124.36C171.299 121.95 178.159 118.32 183.759 113.48C189.339 108.65 192.009 104.03 191.769 99.61C191.499 95.2 188.389 92.28 182.449 90.87L137.179 80.1C131.229 78.7 124.179 79.19 116.049 81.61ZM118.419 85.39C125.179 83.52 131.119 83.2 136.229 84.42L175.159 93.68C180.279 94.89 183.069 97.3 183.539 100.88C183.979 104.48 181.959 108.21 177.499 112.07C173.039 115.93 167.429 118.79 160.669 120.66C153.899 122.53 147.939 122.86 142.829 121.64L103.899 112.38C98.7885 111.16 96.0085 108.76 95.5585 105.17C95.0885 101.59 97.0785 97.86 101.549 94C106.009 90.15 111.639 87.28 118.419 85.39ZM94.5385 105.32C94.9685 109.01 97.7885 111.47 103.019 112.72L142.729 122.17C147.949 123.41 154.019 123.06 160.969 121.12C167.899 119.18 173.669 116.23 178.259 112.25C182.869 108.27 184.959 104.43 184.539 100.73C184.089 97.05 181.259 94.59 176.049 93.35L136.339 83.9C131.119 82.66 125.049 83 118.119 84.93C111.169 86.87 105.389 89.83 100.789 93.82C96.1885 97.8 94.1085 101.63 94.5385 105.32ZM117.349 83.78C124.709 81.67 131.139 81.26 136.619 82.57L178.309 92.49C183.789 93.79 186.709 96.42 187.079 100.37C187.439 104.33 185.129 108.46 180.159 112.76C175.189 117.05 169.019 120.26 161.649 122.37C154.269 124.49 147.839 124.89 142.349 123.59L100.659 113.67C95.1785 112.37 92.2585 109.73 91.9185 105.78C91.5485 101.83 93.8385 97.7 98.8085 93.4C103.779 89.1 109.949 85.9 117.349 83.78Z" fill="#E25829"/>
<path fill-rule="evenodd" clip-rule="evenodd" d="M131.109 83.21L177.839 94.32L146.679 121.33L100.049 110.19L131.109 83.21Z" fill="#CCFFCC"/>
<path fill-rule="evenodd" clip-rule="evenodd" d="M131.779 84.97L173.839 94.97L145.779 119.28L103.819 109.26L131.779 84.97Z" fill="#00CC00"/>
<path fill-rule="evenodd" clip-rule="evenodd" d="M235.069 21.85C234.919 22 234.829 22.17 234.819 22.36L231.159 76.45C231.149 76.64 231.209 76.78 231.349 76.86C231.489 76.94 231.679 76.96 231.919 76.9L231.989 76.88C232.229 76.83 232.439 76.72 232.589 76.57C232.739 76.42 232.819 76.25 232.839 76.06L236.499 21.97C236.509 21.78 236.449 21.64 236.319 21.56C236.179 21.48 235.989 21.46 235.749 21.52L235.679 21.54C235.419 21.6 235.219 21.71 235.069 21.85Z" fill="#383838"/>
<path fill-rule="evenodd" clip-rule="evenodd" d="M220.309 18.3701C220.159 18.5201 220.069 18.6901 220.059 18.8801L216.399 72.9701C216.389 73.1601 216.449 73.3001 216.589 73.3801C216.729 73.4601 216.919 73.4801 217.159 73.4201L217.229 73.4001C217.469 73.3501 217.669 73.2401 217.819 73.0901C217.969 72.9401 218.049 72.7701 218.059 72.5801L221.719 18.4901C221.729 18.3001 221.669 18.1601 221.539 18.0801C221.399 18.0001 221.209 17.9901 220.969 18.0401L220.899 18.0601C220.659 18.1301 220.459 18.2301 220.309 18.3701Z" fill="#383838"/>
<path fill-rule="evenodd" clip-rule="evenodd" d="M202.379 16.4902C202.229 16.6402 202.149 16.8102 202.129 17.0002L198.469 71.0902C198.459 71.2802 198.519 71.4202 198.649 71.5102C198.789 71.5902 198.979 71.6002 199.219 71.5502L199.289 71.5302C199.529 71.4802 199.729 71.3802 199.879 71.2302C200.039 71.0802 200.119 70.9102 200.129 70.7202L203.789 16.6302C203.799 16.4302 203.739 16.3002 203.599 16.2202C203.459 16.1402 203.269 16.1302 203.029 16.1802L202.959 16.2002C202.739 16.2502 202.529 16.3402 202.379 16.4902Z" fill="#383838"/>
<path fill-rule="evenodd" clip-rule="evenodd" d="M186.919 13.1801C186.769 13.3301 186.689 13.5001 186.669 13.6901L183.009 67.7801C182.999 67.9701 183.059 68.1101 183.189 68.2001C183.329 68.2801 183.519 68.2901 183.759 68.2401L183.839 68.2201C184.079 68.1701 184.279 68.0701 184.429 67.9201C184.579 67.7701 184.669 67.6001 184.679 67.4101L188.339 13.3201C188.349 13.1301 188.289 12.9901 188.149 12.9101C188.009 12.8201 187.819 12.8101 187.579 12.8701L187.499 12.8901C187.269 12.9201 187.069 13.0201 186.919 13.1801Z" fill="#383838"/>
<path fill-rule="evenodd" clip-rule="evenodd" d="M170.759 9.90011C170.609 10.0501 170.519 10.2201 170.509 10.4101L166.849 64.5001C166.839 64.6901 166.899 64.8301 167.039 64.9101C167.179 64.9901 167.369 65.0001 167.609 64.9501L167.679 64.9301C167.919 64.8801 168.119 64.7801 168.279 64.6301C168.429 64.4801 168.509 64.3101 168.519 64.1201L172.179 10.0301C172.189 9.83011 172.139 9.70011 171.999 9.61011C171.859 9.53011 171.669 9.52011 171.429 9.57011L171.359 9.59011C171.109 9.65011 170.909 9.75011 170.759 9.90011Z" fill="#383838"/>
<path fill-rule="evenodd" clip-rule="evenodd" d="M243.379 39.9902L233.249 54.1802L232.429 54.0402L242.559 39.7402L243.379 39.9902Z" fill="#F3EDE0"/>
<path fill-rule="evenodd" clip-rule="evenodd" d="M235.449 38.1601L225.329 52.3401L224.509 52.0901L234.629 37.9001L235.449 38.1601Z" fill="#F3EDE0"/>
<path fill-rule="evenodd" clip-rule="evenodd" d="M149.489 75.2601L148.519 75.1501L158.649 60.8501L159.469 61.1001L149.489 75.2601Z" fill="#F3EDE0"/>
<path fill-rule="evenodd" clip-rule="evenodd" d="M216.579 50.2501L226.699 36.0701L227.509 36.3201L217.389 50.5001L216.579 50.2501Z" fill="#F3EDE0"/>
<path fill-rule="evenodd" clip-rule="evenodd" d="M208.789 48.3902L218.779 34.2302L219.739 34.3402L209.599 48.6402L208.789 48.3902Z" fill="#F3EDE0"/>
<path fill-rule="evenodd" clip-rule="evenodd" d="M200.859 46.55L210.989 32.25L211.809 32.5L201.679 46.8L200.859 46.55Z" fill="#F3EDE0"/>
<path fill-rule="evenodd" clip-rule="evenodd" d="M192.929 44.7102L203.059 30.4202L203.879 30.5602L193.759 44.8502L192.929 44.7102Z" fill="#F3EDE0"/>
<path fill-rule="evenodd" clip-rule="evenodd" d="M185.009 42.7701L195.269 28.55L196.099 28.6901L185.959 42.9901L185.009 42.7701Z" fill="#F3EDE0"/>
<path fill-rule="evenodd" clip-rule="evenodd" d="M188.169 26.8501L178.029 41.1501L177.219 40.9001L187.349 26.6001L188.169 26.8501Z" fill="#F3EDE0"/>
<path fill-rule="evenodd" clip-rule="evenodd" d="M180.239 25.02L170.109 39.32L169.289 39.06L179.419 24.77L180.239 25.02Z" fill="#F3EDE0"/>
<path fill-rule="evenodd" clip-rule="evenodd" d="M172.449 23.1502L162.319 37.3402L161.359 37.2202L171.499 22.9302L172.449 23.1502Z" fill="#F3EDE0"/>
<path fill-rule="evenodd" clip-rule="evenodd" d="M153.579 35.2501L163.699 21.0601L164.669 21.1701L154.539 35.4701L153.579 35.2501Z" fill="#F3EDE0"/>
<path fill-rule="evenodd" clip-rule="evenodd" d="M132.809 71.3301L142.939 57.1501L143.759 57.2901L133.629 71.5801L132.809 71.3301Z" fill="#F3EDE0"/>
<path fill-rule="evenodd" clip-rule="evenodd" d="M140.729 73.2802L150.869 58.9802L151.679 59.2302L141.559 73.4202L140.729 73.2802Z" fill="#F3EDE0"/>
<path fill-rule="evenodd" clip-rule="evenodd" d="M156.449 76.9802L166.579 62.6802L167.399 62.9402L157.269 77.1302L156.449 76.9802Z" fill="#F3EDE0"/>
<path fill-rule="evenodd" clip-rule="evenodd" d="M164.379 78.82L174.509 64.52L175.329 64.78L165.199 78.96L164.379 78.82Z" fill="#F3EDE0"/>
<path fill-rule="evenodd" clip-rule="evenodd" d="M172.159 80.68L182.289 66.5L183.109 66.64L172.979 80.94L172.159 80.68Z" fill="#F3EDE0"/>
<path fill-rule="evenodd" clip-rule="evenodd" d="M180.089 82.6401L190.219 68.3301L191.039 68.5901L180.909 82.7801L180.089 82.6401Z" fill="#F3EDE0"/>
<path fill-rule="evenodd" clip-rule="evenodd" d="M198.969 70.43L188.829 84.72L188.019 84.47L198.139 70.29L198.969 70.43Z" fill="#F3EDE0"/>
<path fill-rule="evenodd" clip-rule="evenodd" d="M195.799 86.3401L205.929 72.1501L206.889 72.3701L196.769 86.5601L195.799 86.3401Z" fill="#F3EDE0"/>
<path fill-rule="evenodd" clip-rule="evenodd" d="M203.729 88.1702L213.859 73.9902L214.689 74.1302L204.549 88.4302L203.729 88.1702Z" fill="#F3EDE0"/>
<path fill-rule="evenodd" clip-rule="evenodd" d="M211.659 90.0101L221.789 75.8201L222.609 75.9701L212.479 90.2701L211.659 90.0101Z" fill="#F3EDE0"/>
<path fill-rule="evenodd" clip-rule="evenodd" d="M232.989 57.9801L222.859 72.2801L222.039 72.1301L232.169 57.8401L232.989 57.9801Z" fill="#F3EDE0"/>
<path fill-rule="evenodd" clip-rule="evenodd" d="M225.069 56.1501L214.929 70.4401L214.119 70.1901L224.249 55.8901L225.069 56.1501Z" fill="#F3EDE0"/>
<path fill-rule="evenodd" clip-rule="evenodd" d="M217.139 54.3101L207.159 68.46L206.189 68.35L216.319 54.05L217.139 54.3101Z" fill="#F3EDE0"/>
<path fill-rule="evenodd" clip-rule="evenodd" d="M209.349 52.3302L199.229 66.6302L198.409 66.3702L208.529 52.1902L209.349 52.3302Z" fill="#F3EDE0"/>
<path fill-rule="evenodd" clip-rule="evenodd" d="M201.429 50.4902L191.299 64.7902L190.479 64.5302L200.609 50.2402L201.429 50.4902Z" fill="#F3EDE0"/>
<path fill-rule="evenodd" clip-rule="evenodd" d="M182.549 62.7001L192.679 48.4001L193.499 48.6601L183.359 62.9501L182.549 62.7001Z" fill="#F3EDE0"/>
<path fill-rule="evenodd" clip-rule="evenodd" d="M185.709 46.79L175.579 61.08L174.759 60.83L184.889 46.53L185.709 46.79Z" fill="#F3EDE0"/>
<path fill-rule="evenodd" clip-rule="evenodd" d="M166.829 58.9902L176.969 44.7002L177.779 44.8402L167.659 59.1402L166.829 58.9902Z" fill="#F3EDE0"/>
<path fill-rule="evenodd" clip-rule="evenodd" d="M158.909 57.05L169.039 42.75L169.859 43.01L159.729 57.3L158.909 57.05Z" fill="#F3EDE0"/>
<path fill-rule="evenodd" clip-rule="evenodd" d="M151.119 55.1802L161.109 40.9102L162.069 41.1402L151.949 55.3202L151.119 55.1802Z" fill="#F3EDE0"/>
<path fill-rule="evenodd" clip-rule="evenodd" d="M154.279 39.2701L144.019 53.4901L143.199 53.23L153.329 39.05L154.279 39.2701Z" fill="#F3EDE0"/>
<path fill-rule="evenodd" clip-rule="evenodd" d="M193.759 44.85L200.859 46.55L201.679 46.8L208.789 48.39L209.599 48.64L216.579 50.25L217.389 50.5L224.509 52.09L225.329 52.34L232.429 54.04L233.249 54.18L240.219 55.9L239.959 59.7L232.989 57.98L232.169 57.84L225.069 56.15L224.249 55.89L217.139 54.31L216.319 54.05L209.349 52.33L208.529 52.19L201.429 50.49L200.609 50.24L193.499 48.66L192.679 48.4L185.709 46.79L184.889 46.53L177.779 44.84L176.969 44.7L169.859 43.01L169.039 42.75L162.069 41.14L161.109 40.91L154.279 39.27L153.329 39.05L144.989 37.08L145.239 33.28L153.579 35.25L154.539 35.47L161.359 37.22L162.319 37.34L169.289 39.06L170.109 39.32L177.219 40.9L178.029 41.15L185.009 42.77L185.959 42.99L192.929 44.71L193.759 44.85Z" fill="#A59882"/>
<path fill-rule="evenodd" clip-rule="evenodd" d="M144.018 53.4901L151.118 55.18L151.948 55.32L158.908 57.05L159.728 57.3L166.828 58.9901L167.658 59.14L174.758 60.8301L175.578 61.0801L182.548 62.7001L183.358 62.9501L190.478 64.53L191.298 64.7901L198.408 66.3701L199.228 66.63L206.188 68.35L207.158 68.46L214.118 70.1901L214.928 70.4401L222.038 72.13L222.858 72.28L229.828 74L229.578 77.6901L222.608 75.9701L221.788 75.82L214.688 74.13L213.858 73.99L206.888 72.3701L205.928 72.1501L198.968 70.43L198.138 70.2901L191.038 68.59L190.218 68.3301L183.108 66.64L182.288 66.5L175.328 64.78L174.508 64.5201L167.398 62.94L166.578 62.68L159.468 61.1L158.648 60.85L151.678 59.23L150.868 58.98L143.758 57.2901L142.938 57.1501L134.458 55.1L134.718 51.3L143.198 53.23L144.018 53.4901Z" fill="#A59882"/>
<path fill-rule="evenodd" clip-rule="evenodd" d="M124.329 69.4001L134.459 55.1001L142.929 57.1501L132.799 71.3401L124.329 69.4001ZM158.649 60.8501L148.519 75.1501L141.559 73.4201L151.689 59.2301L158.649 60.8501ZM174.509 64.5201L164.379 78.8201L157.269 77.1301L167.399 62.9401L174.509 64.5201ZM172.979 80.9401L183.109 66.6401L190.219 68.3301L180.089 82.6301L172.979 80.9401ZM205.929 72.1501L195.799 86.3401L188.829 84.7301L198.959 70.4301L205.929 72.1501ZM221.789 75.8201L211.659 90.0101L204.549 88.4301L214.679 74.1301L221.789 75.8201Z" fill="#FFD41C"/>
<path fill-rule="evenodd" clip-rule="evenodd" d="M144.989 37.0801L153.329 39.0401L143.199 53.2301L134.719 51.3001L144.989 37.0801ZM232.169 57.8401L222.038 72.1401L214.928 70.4501L225.059 56.1501L232.169 57.8401ZM199.229 66.6301L209.359 52.3301L216.329 54.0601L206.199 68.3601L199.229 66.6301ZM183.359 62.9501L193.489 48.6501L200.599 50.2301L190.469 64.5301L183.359 62.9501ZM167.659 59.1401L177.788 44.8401L184.898 46.5301L174.769 60.8301L167.659 59.1401ZM151.949 55.3201L162.069 41.1301L169.049 42.7401L158.919 57.0401L151.949 55.3201Z" fill="#CFA800"/>
<path fill-rule="evenodd" clip-rule="evenodd" d="M225.329 52.3402L235.449 38.1602L242.559 39.7402L232.429 54.0402L225.329 52.3402Z" fill="#FFD500"/>
<path fill-rule="evenodd" clip-rule="evenodd" d="M209.599 48.6401L219.739 34.3401L226.699 36.0701L216.579 50.2501L209.599 48.6401Z" fill="#FFD500"/>
<path fill-rule="evenodd" clip-rule="evenodd" d="M193.759 44.8501L203.879 30.5601L210.989 32.2501L200.859 46.5501L193.759 44.8501Z" fill="#FFD500"/>
<path fill-rule="evenodd" clip-rule="evenodd" d="M178.029 41.1501L188.169 26.8501L195.269 28.5501L185.009 42.7701L178.029 41.1501Z" fill="#FFD500"/>
<path fill-rule="evenodd" clip-rule="evenodd" d="M162.319 37.3401L172.449 23.1501L179.419 24.7701L169.289 39.0601L162.319 37.3401Z" fill="#FFD500"/>
<path fill-rule="evenodd" clip-rule="evenodd" d="M155.379 18.9902L163.699 21.0602L153.579 35.2502L145.239 33.2802L155.379 18.9902Z" fill="#FFD500"/>
<path fill-rule="evenodd" clip-rule="evenodd" d="M227.509 36.3202L234.619 37.9002L224.499 52.0902L217.389 50.5102L227.509 36.3202ZM166.579 62.6802L156.449 76.9802L149.489 75.2502L159.469 61.1002L166.579 62.6802ZM201.679 46.8002L211.809 32.5002L218.779 34.2302L208.789 48.3902L201.679 46.8002ZM203.059 30.4202L192.929 44.7102L185.959 42.9902L196.089 28.6902L203.059 30.4202ZM170.109 39.3202L180.239 25.0302L187.359 26.6102L177.229 40.9102L170.109 39.3202ZM154.539 35.4702L164.669 21.1702L171.489 22.9302L161.359 37.2302L154.539 35.4702ZM133.629 71.5802L143.759 57.2802L150.869 58.9802L140.739 73.2802L133.629 71.5802ZM182.289 66.5002L172.159 80.6902L165.199 78.9702L175.329 64.7802L182.289 66.5002ZM180.909 82.7802L191.039 68.5902L198.149 70.2902L188.019 84.4702L180.909 82.7802ZM213.859 73.9902L203.729 88.1802L196.759 86.5702L206.889 72.3802L213.859 73.9902ZM229.579 77.6902L224.809 84.6002L224.229 84.9502L215.949 90.4602L215.219 90.9602L212.489 90.2602L222.619 75.9602L229.579 77.6902ZM250.339 41.7202L240.219 55.9002L233.249 54.1802L243.379 39.9902L250.339 41.7202Z" fill="#FF6F4D"/>
<path fill-rule="evenodd" clip-rule="evenodd" d="M239.959 59.7002L229.829 74.0002L222.859 72.2802L232.989 57.9802L239.959 59.7002Z" fill="#C73A13"/>
<path fill-rule="evenodd" clip-rule="evenodd" d="M207.159 68.4601L217.139 54.3101L224.249 55.8901L214.119 70.1901L207.159 68.4601Z" fill="#C73A13"/>
<path fill-rule="evenodd" clip-rule="evenodd" d="M208.529 52.1902L198.409 66.3702L191.299 64.7902L201.429 50.4902L208.529 52.1902Z" fill="#C73A13"/>
<path fill-rule="evenodd" clip-rule="evenodd" d="M192.679 48.4L182.549 62.7L175.579 61.08L185.709 46.79L192.679 48.4Z" fill="#C73A13"/>
<path fill-rule="evenodd" clip-rule="evenodd" d="M176.969 44.7L166.829 58.99L159.729 57.3L169.859 43.01L176.969 44.7Z" fill="#C73A13"/>
<path fill-rule="evenodd" clip-rule="evenodd" d="M144.019 53.49L154.279 39.27L161.109 40.91L151.119 55.18L144.019 53.49Z" fill="#C73A13"/>
<path fill-rule="evenodd" clip-rule="evenodd" d="M99.4785 56.7L99.6285 61.7099L103.639 62.32L103.489 57.41L99.4785 56.7Z" fill="#8A8881"/>
<path fill-rule="evenodd" clip-rule="evenodd" d="M107.669 54.56V54.45L103.379 53.71L99.7585 56.61L103.909 57.29L107.669 54.56Z" fill="#F5F1E1"/>
<path fill-rule="evenodd" clip-rule="evenodd" d="M107.668 54.5601L103.908 57.2901L104.068 62.2001L107.828 59.6801L107.668 54.5601Z" fill="#DBD8CD"/>
<path fill-rule="evenodd" clip-rule="evenodd" d="M101.358 1.41005C101.218 1.56005 101.148 1.73005 101.148 1.92005L102.798 54.6501C102.808 54.84 102.888 54.96 103.028 55.03C103.178 55.1 103.368 55.1 103.608 55.03L103.688 55.01C103.928 54.94 104.118 54.83 104.258 54.67C104.398 54.52 104.468 54.35 104.458 54.16L102.808 1.43005C102.798 1.24005 102.728 1.12005 102.578 1.04005C102.428 0.970049 102.238 0.970049 101.998 1.04005L101.918 1.06005C101.688 1.14005 101.498 1.25005 101.358 1.41005Z" fill="#383838"/>
<path fill-rule="evenodd" clip-rule="evenodd" d="M91.0685 7.83001C90.5985 8.35001 90.0785 8.28001 89.5085 7.62001L89.6885 13.43C90.4385 13.77 91.1585 13.68 91.8385 13.15C92.5085 12.61 93.0885 12.1 93.5485 11.63C94.0185 11.15 94.3785 10.83 94.6485 10.67C95.0985 10.4 95.5485 10.22 95.9785 10.13C96.8085 10.05 97.5585 10.09 98.2385 10.26C98.6585 10.37 99.0885 10.44 99.5285 10.48C99.7585 10.5 99.9985 10.49 100.259 10.45C100.539 10.37 100.779 10.28 101.019 10.18L100.859 4.90001C100.669 4.85001 100.479 4.80001 100.259 4.75001C99.8585 4.70001 99.3585 4.65001 98.7385 4.60001C98.1185 4.55001 97.3985 4.59001 96.5585 4.74001C95.7185 4.89001 94.7985 5.28001 93.7785 5.91001C92.7685 6.54001 92.1785 6.89001 91.9985 6.96001C91.8385 7.02001 91.5285 7.31001 91.0685 7.83001Z" fill="url(#paint0_linear)"/>
<path fill-rule="evenodd" clip-rule="evenodd" d="M117.518 55.0299L117.508 54.9299L113.358 54.1399L109.598 57.0799L113.748 57.6499L117.518 55.0299Z" fill="#F5F1E1"/>
<path fill-rule="evenodd" clip-rule="evenodd" d="M113.469 57.7399L109.469 57.1199L109.619 62.0299L113.629 62.7499L113.469 57.7399Z" fill="#8A8881"/>
<path fill-rule="evenodd" clip-rule="evenodd" d="M113.749 57.6498L113.909 62.6698L117.669 60.0498L117.519 55.0298L113.749 57.6498Z" fill="#DBD8CD"/>
<path fill-rule="evenodd" clip-rule="evenodd" d="M111.199 1.87995C111.059 2.02995 110.989 2.19995 110.989 2.38995L112.639 55.1099C112.649 55.2999 112.729 55.4299 112.869 55.4999C113.019 55.5699 113.209 55.5699 113.449 55.4999L113.529 55.4799C113.769 55.4099 113.959 55.2999 114.099 55.1499C114.239 54.9999 114.309 54.8199 114.299 54.6399L112.649 1.91995C112.639 1.72995 112.569 1.60995 112.419 1.52995C112.269 1.44995 112.079 1.45995 111.839 1.52995L111.759 1.54995C111.539 1.60995 111.349 1.71995 111.199 1.87995Z" fill="#383838"/>
<path fill-rule="evenodd" clip-rule="evenodd" d="M101.049 8.36983C100.589 8.88983 100.069 8.81983 99.4985 8.15983L99.6785 13.9698C100.429 14.3198 101.149 14.2298 101.829 13.6898C102.499 13.1498 103.069 12.6498 103.539 12.1698C103.999 11.6998 104.359 11.3798 104.639 11.2098C105.099 10.9298 105.539 10.7498 105.979 10.6598C106.809 10.5798 107.559 10.6198 108.239 10.7898C108.659 10.8998 109.089 10.9698 109.529 10.9998C109.759 11.0298 109.999 11.0198 110.249 10.9798C110.529 10.8998 110.779 10.8098 111.009 10.7098L110.849 5.42983C110.669 5.36983 110.459 5.32983 110.249 5.27983C109.859 5.22983 109.359 5.17983 108.739 5.12983C108.119 5.07983 107.389 5.12983 106.549 5.27983C105.719 5.41983 104.789 5.81983 103.779 6.44983C102.759 7.07983 102.179 7.42983 101.999 7.48983C101.829 7.55983 101.519 7.84983 101.049 8.36983Z" fill="url(#paint1_linear)"/>
<path fill-rule="evenodd" clip-rule="evenodd" d="M123.348 59.2998L119.338 58.5798L119.488 63.5898L123.498 64.3098L123.348 59.2998Z" fill="#8A8881"/>
<path fill-rule="evenodd" clip-rule="evenodd" d="M123.768 59.1699L127.388 56.49L123.228 55.7L119.618 58.5L123.768 59.1699Z" fill="#F5F1E1"/>
<path fill-rule="evenodd" clip-rule="evenodd" d="M123.768 59.17L123.928 64.19L127.548 61.61L127.388 56.49L123.768 59.17Z" fill="#DBD8CD"/>
<path fill-rule="evenodd" clip-rule="evenodd" d="M121.218 3.28995C121.078 3.43995 121.008 3.60995 121.018 3.79995L122.668 56.5299C122.678 56.7199 122.748 56.8399 122.898 56.9199C123.048 56.9899 123.248 56.9899 123.488 56.9199L123.558 56.9C123.798 56.83 123.988 56.72 124.128 56.56C124.278 56.4 124.338 56.2299 124.338 56.0499L122.688 3.31995C122.678 3.12995 122.608 2.99995 122.448 2.93995C122.298 2.86995 122.108 2.86995 121.868 2.93995L121.798 2.95995C121.548 3.01995 121.358 3.13995 121.218 3.28995Z" fill="#383838"/>
<path fill-rule="evenodd" clip-rule="evenodd" d="M111.198 9.63985C110.738 10.1599 110.218 10.0899 109.648 9.42985L109.828 15.2399C110.588 15.5799 111.298 15.4899 111.978 14.9599C112.648 14.4199 113.218 13.9199 113.678 13.4399C114.138 12.9699 114.498 12.6499 114.778 12.4799C115.238 12.2099 115.678 12.0299 116.118 11.9299C116.948 11.8499 117.698 11.8899 118.378 12.0599C118.798 12.1699 119.228 12.2499 119.668 12.2799C119.898 12.2999 120.138 12.2899 120.388 12.2499C120.668 12.1699 120.918 12.0799 121.148 11.9799L120.998 6.69985C120.818 6.64985 120.608 6.59985 120.398 6.54985C120.008 6.49985 119.508 6.44985 118.888 6.39985C118.268 6.34985 117.538 6.39985 116.698 6.54985C115.868 6.69985 114.938 7.08985 113.928 7.71985C112.908 8.34985 112.328 8.69985 112.158 8.76985C111.988 8.81985 111.668 9.11985 111.198 9.63985Z" fill="url(#paint2_linear)"/>
<path fill-rule="evenodd" clip-rule="evenodd" d="M12.9786 73.8401L34.8886 91.3001L34.6086 91.3801L12.8386 74.1001L12.9786 73.8401Z" fill="#F3EDE0"/>
<path fill-rule="evenodd" clip-rule="evenodd" d="M64.3285 108.03L42.4185 90.68L43.8185 89.72L65.5785 107.01L64.3285 108.03Z" fill="#F3EDE0"/>
<path fill-rule="evenodd" clip-rule="evenodd" d="M72.3984 101.97L50.6384 84.58L52.0184 83.52L73.7884 100.91L72.3984 101.97Z" fill="#F3EDE0"/>
<path fill-rule="evenodd" clip-rule="evenodd" d="M80.7585 95.7199L58.9885 78.4399L60.2385 77.4199L82.1485 94.7699L80.7585 95.7199Z" fill="#F3EDE0"/>
<path fill-rule="evenodd" clip-rule="evenodd" d="M68.4486 71.3201L90.3586 88.6701L88.8286 89.7801L67.0586 72.3801L68.4486 71.3201Z" fill="#F3EDE0"/>
<path fill-rule="evenodd" clip-rule="evenodd" d="M69.9185 31.6501L71.3085 30.5901L93.0785 47.9801L91.6885 49.0401L69.9185 31.6501Z" fill="#F3EDE0"/>
<path fill-rule="evenodd" clip-rule="evenodd" d="M75.2585 61.1199L53.4885 43.8399L54.7485 42.9299L76.6485 60.1699L75.2585 61.1199Z" fill="#F3EDE0"/>
<path fill-rule="evenodd" clip-rule="evenodd" d="M98.5684 82.5799L97.1884 83.6399L75.4084 66.1399L76.8084 65.1899L98.5684 82.5799Z" fill="#F3EDE0"/>
<path fill-rule="evenodd" clip-rule="evenodd" d="M105.399 77.4301L83.4885 60.1901L85.0185 59.0901L106.789 76.3701L105.399 77.4301Z" fill="#F3EDE0"/>
<path fill-rule="evenodd" clip-rule="evenodd" d="M113.609 71.33L91.8486 54.05L93.2286 52.99L114.999 70.38L113.609 71.33Z" fill="#F3EDE0"/>
<path fill-rule="evenodd" clip-rule="evenodd" d="M38.5985 54.9299L60.3685 72.2199L58.9685 73.2799L37.1985 55.8799L38.5985 54.9299Z" fill="#F3EDE0"/>
<path fill-rule="evenodd" clip-rule="evenodd" d="M63.0986 36.6799L84.8686 54.0699L83.3386 55.1699L61.5586 37.7799L63.0986 36.6799Z" fill="#F3EDE0"/>
<path fill-rule="evenodd" clip-rule="evenodd" d="M52.1485 78.42L50.7585 79.48L28.9885 62.09L30.3885 61.03L52.1485 78.42Z" fill="#F3EDE0"/>
<path fill-rule="evenodd" clip-rule="evenodd" d="M67.1785 67.1801L45.4185 49.9001L46.6685 48.8801L68.5785 66.2301L67.1785 67.1801Z" fill="#F3EDE0"/>
<path fill-rule="evenodd" clip-rule="evenodd" d="M42.5384 85.4699L20.6384 68.2299L22.0284 67.1699L43.9384 84.5199L42.5384 85.4699Z" fill="#F3EDE0"/>
<path fill-rule="evenodd" clip-rule="evenodd" d="M75.4086 66.1399L68.4486 71.3199L67.0586 72.3799L60.2386 77.4199L58.9886 78.4399L52.0186 83.5199L50.6386 84.5799L43.8186 89.7199L42.4186 90.6799L34.7686 96.3899L34.6086 91.3799L34.8886 91.2999L42.5386 85.4699L43.9386 84.5199L50.7586 79.4799L52.1486 78.4199L58.9686 73.2799L60.3686 72.2199L67.1786 67.1799L68.5786 66.2299L75.2586 61.1199L76.6486 60.1699L83.3386 55.1699L84.8686 54.0699L91.6886 49.0399L93.0786 47.9799L99.8986 42.9299L100.059 47.8399L93.2286 52.9899L91.8486 54.0499L85.0186 59.0899L83.4886 60.1899L76.8086 65.1899L75.4086 66.1399Z" fill="#E0D9CC"/>
<path fill-rule="evenodd" clip-rule="evenodd" d="M34.7686 96.3901L56.5286 113.79L13.8686 107.12L12.8386 74.1001L34.6086 91.3801L34.7686 96.3901Z" fill="#A59882"/>
<path fill-rule="evenodd" clip-rule="evenodd" d="M65.5786 107.01L43.8186 89.7201L50.6386 84.5701L72.3986 101.97L65.5786 107.01ZM82.1486 94.7701L60.2386 77.4201L67.0586 72.3801L88.8286 89.7701L82.1486 94.7701ZM98.5686 82.5801L76.8086 65.1901L83.4886 60.1901L105.389 77.4401L98.5686 82.5801ZM100.059 47.8401L121.819 65.2301L114.999 70.3801L93.2286 52.9901L100.059 47.8401Z" fill="#D8ECF3"/>
<path fill-rule="evenodd" clip-rule="evenodd" d="M42.4186 90.68L64.3286 108.03L56.5286 113.79L34.7686 96.39L42.4186 90.68ZM58.9886 78.4401L80.7586 95.7201L73.7986 100.91L52.0186 83.52L58.9886 78.4401ZM90.3586 88.67L68.4486 71.32L75.4086 66.13L97.1786 83.63L90.3586 88.67ZM91.8486 54.05L113.609 71.34L106.789 76.38L85.0186 59.09L91.8486 54.05Z" fill="#1AC6FF"/>
<path fill-rule="evenodd" clip-rule="evenodd" d="M93.0786 47.98L71.3086 30.59L78.1286 25.55L99.8986 42.93L93.0786 47.98ZM76.6486 60.17L54.7486 42.93L61.5586 37.78L83.3286 55.17L76.6486 60.17ZM45.4186 49.9001L67.1786 67.18L60.3586 72.2201L38.5986 54.93L45.4186 49.9001ZM28.9886 62.09L50.7586 79.4801L43.9286 84.52L22.0286 67.17L28.9886 62.09Z" fill="#ADD5E3"/>
<path fill-rule="evenodd" clip-rule="evenodd" d="M46.6685 48.8801L53.4885 43.8401L75.2585 61.1201L68.5785 66.2301L46.6685 48.8801Z" fill="#0096CB"/>
<path fill-rule="evenodd" clip-rule="evenodd" d="M37.1984 55.8801L58.9684 73.2801L52.1484 78.4201L30.3884 61.0301L37.1984 55.8801Z" fill="#0096CB"/>
<path fill-rule="evenodd" clip-rule="evenodd" d="M84.8686 54.0701L63.0986 36.6801L69.9186 31.6501L91.6886 49.0401L84.8686 54.0701Z" fill="#0096CB"/>
<path fill-rule="evenodd" clip-rule="evenodd" d="M20.6385 68.23L42.5385 85.47L34.8885 91.3L12.9785 73.84L20.6385 68.23Z" fill="#0096CB"/>
<path fill-rule="evenodd" clip-rule="evenodd" d="M15.3985 114.82L19.0185 112.13L14.8585 111.24L11.2485 114.14L15.3985 114.82Z" fill="#F5F1E1"/>
<path fill-rule="evenodd" clip-rule="evenodd" d="M15.1285 119.96L14.9685 114.94L10.9585 114.23L11.1185 119.24L15.1285 119.96Z" fill="#8A8881"/>
<path fill-rule="evenodd" clip-rule="evenodd" d="M15.3984 114.82L15.5584 119.83L19.1784 117.26L19.0184 112.13L15.3984 114.82Z" fill="#DBD8CD"/>
<path fill-rule="evenodd" clip-rule="evenodd" d="M12.8484 59.05C12.7084 59.2 12.6384 59.37 12.6484 59.56L14.2984 112.29C14.3084 112.48 14.3784 112.6 14.5284 112.68C14.6784 112.75 14.8784 112.75 15.1184 112.68L15.1884 112.66C15.4284 112.59 15.6184 112.48 15.7584 112.32C15.9084 112.16 15.9684 112 15.9684 111.81L14.3184 59.08C14.3084 58.89 14.2384 58.76 14.0784 58.7C13.9284 58.63 13.7384 58.63 13.4984 58.7L13.4284 58.72C13.1884 58.78 12.9884 58.9 12.8484 59.05Z" fill="#383838"/>
<path fill-rule="evenodd" clip-rule="evenodd" d="M2.54854 65.4699C2.08854 65.9999 1.56854 65.9199 0.998535 65.2599L1.17854 71.0699C1.93854 71.4199 2.64854 71.3199 3.32854 70.7899C3.99854 70.2599 4.56854 69.7499 5.02854 69.2699C5.48854 68.7999 5.84854 68.4799 6.12854 68.3199C6.58854 68.0399 7.02853 67.8599 7.46853 67.7699C8.29853 67.6899 9.04853 67.7299 9.72853 67.8899C10.1485 68.0099 10.5785 68.0799 11.0185 68.1099C11.2485 68.1399 11.4885 68.1199 11.7385 68.0899C12.0185 68.0099 12.2685 67.9199 12.4985 67.8199L12.3385 62.5399C12.1585 62.4799 11.9485 62.4399 11.7385 62.3899C11.3485 62.3399 10.8485 62.2899 10.2285 62.2299C9.60853 62.1799 8.87854 62.2299 8.03854 62.3799C7.20854 62.5199 6.27853 62.9099 5.26854 63.5499C4.24854 64.1899 3.66854 64.5299 3.49854 64.5999C3.32854 64.6599 3.00854 64.9499 2.54854 65.4699Z" fill="url(#paint3_linear)"/>
<path fill-rule="evenodd" clip-rule="evenodd" d="M24.9583 115.38L20.8083 114.7L20.9583 119.71L25.1084 120.28L24.9583 115.38Z" fill="#8A8881"/>
<path fill-rule="evenodd" clip-rule="evenodd" d="M28.9984 112.56V112.46L24.8384 111.67L21.0884 114.62L25.2384 115.3L28.9984 112.56Z" fill="#F5F1E1"/>
<path fill-rule="evenodd" clip-rule="evenodd" d="M25.2383 115.3L25.3983 120.2L29.1583 117.69L28.9983 112.56L25.2383 115.3Z" fill="#DBD8CD"/>
<path fill-rule="evenodd" clip-rule="evenodd" d="M22.8284 59.3699C22.6884 59.5199 22.6184 59.6899 22.6184 59.8799L24.2684 112.6C24.2784 112.79 24.3584 112.92 24.4984 112.99C24.6484 113.06 24.8384 113.06 25.0884 112.99L25.1584 112.97C25.3984 112.9 25.5884 112.79 25.7284 112.64C25.8684 112.49 25.9384 112.31 25.9384 112.12L24.2984 59.3999C24.2884 59.2099 24.2084 59.0899 24.0584 59.0199C23.9084 58.9399 23.7184 58.9499 23.4784 59.0199L23.4084 59.0399C23.1584 59.0999 22.9684 59.2099 22.8284 59.3699Z" fill="#383838"/>
<path fill-rule="evenodd" clip-rule="evenodd" d="M12.6784 66.08C12.2184 66.6 11.6984 66.53 11.1284 65.87L11.3084 71.68C12.0584 72.02 12.7784 71.93 13.4584 71.4C14.1284 70.86 14.6984 70.36 15.1584 69.88C15.6184 69.4 15.9784 69.08 16.2584 68.92C16.7184 68.65 17.1584 68.47 17.5984 68.37C18.4284 68.29 19.1884 68.33 19.8584 68.5C20.2784 68.61 20.7084 68.69 21.1484 68.72C21.3784 68.74 21.6184 68.73 21.8784 68.69C22.1584 68.61 22.3984 68.52 22.6284 68.43L22.4684 63.14C22.2884 63.08 22.0884 63.03 21.8784 62.99C21.4784 62.94 20.9784 62.89 20.3584 62.84C19.7384 62.79 19.0084 62.83 18.1784 62.98C17.3384 63.13 16.4184 63.52 15.3984 64.15C14.3784 64.78 13.7984 65.13 13.6284 65.2C13.4584 65.27 13.1484 65.56 12.6784 66.08Z" fill="url(#paint4_linear)"/>
<path fill-rule="evenodd" clip-rule="evenodd" d="M30.8186 116.11L30.9786 121.12L34.9886 121.84L34.8286 116.83L30.8186 116.11Z" fill="#8A8881"/>
<path fill-rule="evenodd" clip-rule="evenodd" d="M38.8785 114.13V114.02L34.7185 113.24L30.9585 116.07L35.2485 116.71L38.8785 114.13Z" fill="#F5F1E1"/>
<path fill-rule="evenodd" clip-rule="evenodd" d="M35.2485 116.71L35.4085 121.72L39.0385 119.14L38.8785 114.13L35.2485 116.71Z" fill="#DBD8CD"/>
<path fill-rule="evenodd" clip-rule="evenodd" d="M33.1287 60.81C32.9887 60.96 32.9187 61.13 32.9187 61.32L34.5687 114.05C34.5787 114.24 34.6587 114.36 34.8087 114.43C34.9587 114.5 35.1487 114.5 35.3887 114.43L35.4587 114.41C35.6987 114.34 35.8987 114.23 36.0387 114.08C36.1787 113.93 36.2487 113.76 36.2387 113.57L34.5987 60.84C34.5887 60.65 34.5187 60.53 34.3687 60.45C34.2187 60.38 34.0187 60.38 33.7787 60.45L33.7087 60.47C33.4687 60.54 33.2787 60.66 33.1287 60.81Z" fill="#383838"/>
<path fill-rule="evenodd" clip-rule="evenodd" d="M22.5485 67.31C22.0885 67.83 21.5685 67.76 20.9985 67.1L21.1785 72.91C21.9385 73.26 22.6485 73.16 23.3285 72.63C23.9985 72.1 24.5685 71.59 25.0285 71.11C25.4885 70.64 25.8485 70.32 26.1285 70.16C26.5885 69.88 27.0285 69.7 27.4685 69.61C28.2985 69.53 29.0485 69.57 29.7285 69.73C30.1485 69.85 30.5785 69.92 31.0185 69.95C31.2485 69.98 31.4885 69.96 31.7485 69.93C32.0285 69.85 32.2685 69.76 32.4985 69.66L32.3385 64.38C32.1585 64.33 31.9585 64.27 31.7485 64.23C31.3485 64.18 30.8485 64.13 30.2285 64.08C29.6085 64.03 28.8785 64.08 28.0485 64.23C27.2085 64.37 26.2885 64.76 25.2685 65.4C24.2485 66.04 23.6685 66.38 23.4985 66.45C23.3285 66.5 23.0085 66.79 22.5485 67.31Z" fill="url(#paint5_linear)"/>
<path fill-rule="evenodd" clip-rule="evenodd" d="M230.669 83.27L229.099 84.45L215.089 92.21L215.939 91.66L216.649 91.14L230.669 83.27Z" fill="#F3EDE0"/>
<path fill-rule="evenodd" clip-rule="evenodd" d="M206.868 98.01L220.878 90.24L219.188 91.35L205.168 99.22L206.868 98.01Z" fill="#F3EDE0"/>
<path fill-rule="evenodd" clip-rule="evenodd" d="M209.549 98.2901L195.539 106.16L197.229 104.94L211.249 97.0701L209.549 98.2901Z" fill="#F3EDE0"/>
<path fill-rule="evenodd" clip-rule="evenodd" d="M199.769 105.26L185.749 113.14L187.319 111.95L201.329 104.09L199.769 105.26Z" fill="#F3EDE0"/>
<path fill-rule="evenodd" clip-rule="evenodd" d="M179.398 117.77L193.408 109.9L191.708 111.12L177.688 118.88L179.398 117.77Z" fill="#F3EDE0"/>
<path fill-rule="evenodd" clip-rule="evenodd" d="M163.639 132.81L169.439 128.75L169.429 129.64L163.639 132.81Z" fill="#F3EDE0"/>
<path fill-rule="evenodd" clip-rule="evenodd" d="M238.739 77.51L224.719 85.38L225.288 85.01L226.428 84.17L240.439 76.29L238.739 77.51Z" fill="#F3EDE0"/>
<path fill-rule="evenodd" clip-rule="evenodd" d="M250.099 69.5599L249.889 96.55L183.279 143.91L183.489 116.91L191.709 111.12L193.409 109.9L201.489 104.14L203.049 102.96L211.269 97.1699L212.969 95.9499L220.909 90.23L222.599 89.12L230.819 83.33L232.389 82.15L240.459 76.3899L242.159 75.1699L250.099 69.5599L236.089 77.32L228.149 83.04L227.009 83.8899L231.439 76.9L231.469 73.26L240.879 58.7999L240.909 55.0499L250.329 40.7L250.099 69.5599Z" fill="#E0D9CC"/>
<path fill-rule="evenodd" clip-rule="evenodd" d="M155.549 138.68L169.419 130.96L169.429 129.64L169.439 128.75L169.469 124.68L183.489 116.91L183.279 143.91L155.549 138.68Z" fill="#A59882"/>
<path fill-rule="evenodd" clip-rule="evenodd" d="M197.229 104.94L205.169 99.2199L219.189 91.3499L211.249 97.0699L197.229 104.94Z" fill="#0096CB"/>
<path fill-rule="evenodd" clip-rule="evenodd" d="M187.469 112.02L201.489 104.14L193.409 109.9L179.399 117.77L187.469 112.02Z" fill="#0096CB"/>
<path fill-rule="evenodd" clip-rule="evenodd" d="M238.739 77.51L230.669 83.27L216.649 91.14L224.719 85.38L238.739 77.51Z" fill="#0096CB"/>
<path fill-rule="evenodd" clip-rule="evenodd" d="M222.599 89.1201L208.589 96.8801L216.809 91.0801L230.819 83.3201L222.599 89.1201ZM197.258 105.04L211.269 97.1701L203.049 102.97L189.038 110.84L197.258 105.04ZM169.469 124.68L177.689 118.88L191.709 111.12L183.489 116.91L169.469 124.68ZM228.148 83.0401L236.089 77.3201L250.109 69.5601L242.169 75.1701L228.148 83.0401Z" fill="#ACD5E4"/>
<path fill-rule="evenodd" clip-rule="evenodd" d="M155.549 138.68L169.419 130.96L169.429 129.64L163.639 132.81L155.549 138.68Z" fill="#00C5FF"/>
<path fill-rule="evenodd" clip-rule="evenodd" d="M190.029 85.5199C190.169 85.5999 190.239 85.7299 190.239 85.9199L189.819 139.22C189.819 139.41 189.749 139.58 189.599 139.73C189.449 139.88 189.259 139.99 189.019 140.05L188.939 140.07C188.699 140.13 188.509 140.13 188.359 140.05C188.219 139.97 188.139 139.84 188.139 139.66L188.559 86.3599C188.559 86.1699 188.639 85.9999 188.779 85.8499C188.919 85.6999 189.119 85.5899 189.359 85.5299L189.439 85.5099C189.699 85.4399 189.889 85.4499 190.029 85.5199Z" fill="#383838"/>
<path fill-rule="evenodd" clip-rule="evenodd" d="M209.019 72.4899C209.159 72.5599 209.239 72.6899 209.239 72.8799L208.819 126.18C208.819 126.37 208.739 126.54 208.589 126.69C208.449 126.84 208.249 126.95 208.009 127.01L207.939 127.03C207.699 127.09 207.509 127.09 207.359 127.01C207.219 126.93 207.149 126.8 207.149 126.61L207.569 73.3099C207.569 73.1199 207.639 72.9499 207.789 72.7999C207.939 72.6499 208.129 72.5399 208.369 72.4699L208.439 72.4499C208.679 72.4099 208.879 72.4199 209.019 72.4899Z" fill="#383838"/>
<path fill-rule="evenodd" clip-rule="evenodd" d="M224.479 61.05C224.619 61.13 224.689 61.26 224.689 61.45L224.269 114.75C224.269 114.94 224.199 115.11 224.049 115.26C223.899 115.41 223.699 115.52 223.459 115.59L223.389 115.61C223.149 115.67 222.959 115.67 222.809 115.59C222.659 115.52 222.589 115.38 222.589 115.2L223.009 61.9C223.009 61.71 223.079 61.54 223.239 61.39C223.379 61.24 223.579 61.13 223.819 61.07L223.889 61.05C224.129 60.97 224.329 60.98 224.479 61.05Z" fill="#383838"/>
<path fill-rule="evenodd" clip-rule="evenodd" d="M241.619 49.6099C241.759 49.6799 241.829 49.8199 241.829 50.0099L241.409 103.3C241.409 103.49 241.339 103.66 241.189 103.81C241.049 103.96 240.839 104.07 240.599 104.13L240.529 104.15C240.289 104.21 240.099 104.21 239.949 104.14C239.799 104.07 239.729 103.93 239.729 103.74L240.149 50.4499C240.149 50.2599 240.219 50.0899 240.369 49.9399C240.519 49.7799 240.709 49.6799 240.949 49.6099L241.019 49.5899C241.269 49.5299 241.469 49.5299 241.619 49.6099Z" fill="#383838"/>
<path fill-rule="evenodd" clip-rule="evenodd" d="M55.6184 113.5L69.8884 115.99L71.6684 116.36L63.6684 115.53L70.0984 117.05L77.9484 117.91L79.5884 118.31L71.8784 117.41L78.1584 118.96L86.0184 119.82L87.7984 120.19L79.7984 119.36L86.2284 120.88L94.2184 121.71L95.8584 122.11L88.0084 121.25L94.4284 122.76L102.288 123.63L103.908 124.13L95.9284 123.19L110.338 125.65L111.988 125.94L104.128 125.08L110.548 126.6L118.408 127.46L120.048 127.86L112.188 126.99L118.478 128.54L126.468 129.48L128.098 129.88L120.258 128.91L134.528 131.4L136.308 131.77L128.308 130.94L134.728 132.45L142.798 134.37L150.658 135.23L152.438 135.6L144.568 134.74L150.588 136.24L143.618 140.79L48.6384 118.17L55.6184 113.5Z" fill="#F3EDE0"/>
<path fill-rule="evenodd" clip-rule="evenodd" d="M143.178 147.17L143.618 140.79L150.588 136.24L158.578 137.07L143.178 147.17Z" fill="#E0D9CC"/>
<path fill-rule="evenodd" clip-rule="evenodd" d="M143.178 147.17L48.2085 124.54L48.6385 118.17L143.618 140.79L143.178 147.17Z" fill="#A59882"/>
<path fill-rule="evenodd" clip-rule="evenodd" d="M158.579 137.07L150.589 136.24L144.569 134.74L152.439 135.6L158.579 137.07Z" fill="#FFD500"/>
<path fill-rule="evenodd" clip-rule="evenodd" d="M128.309 130.94L136.309 131.77L142.729 133.29L134.729 132.45L128.309 130.94Z" fill="#FFD500"/>
<path fill-rule="evenodd" clip-rule="evenodd" d="M126.468 129.48L118.478 128.54L112.188 126.99L120.048 127.86L126.468 129.48Z" fill="#FFD500"/>
<path fill-rule="evenodd" clip-rule="evenodd" d="M86.2286 120.88L79.7986 119.36L87.7986 120.19L94.2186 121.71L86.2286 120.88Z" fill="#FFD500"/>
<path fill-rule="evenodd" clip-rule="evenodd" d="M110.338 125.65L95.9285 123.19L103.908 124.13L110.338 125.65Z" fill="#FFD500"/>
<path fill-rule="evenodd" clip-rule="evenodd" d="M77.9485 117.91L70.0985 117.05L63.6685 115.53L71.6685 116.36L77.9485 117.91Z" fill="#FFD500"/>
<path fill-rule="evenodd" clip-rule="evenodd" d="M60.9884 113.7L67.4184 115.22L53.1384 112.73L60.9884 113.7Z" fill="#C73A13"/>
<path fill-rule="evenodd" clip-rule="evenodd" d="M118.408 127.46L110.548 126.6L104.128 125.08L111.988 125.94L118.408 127.46Z" fill="#C73A13"/>
<path fill-rule="evenodd" clip-rule="evenodd" d="M102.289 123.63L94.4285 122.76L88.0085 121.25L95.8585 122.11L102.289 123.63Z" fill="#C73A13"/>
<path fill-rule="evenodd" clip-rule="evenodd" d="M86.0184 119.82L78.1584 118.96L71.8784 117.41L79.5884 118.31L86.0184 119.82Z" fill="#C73A13"/>
<path fill-rule="evenodd" clip-rule="evenodd" d="M150.659 135.23L142.799 134.37L134.729 132.45L142.729 133.29L150.659 135.23Z" fill="#C93900"/>
<path fill-rule="evenodd" clip-rule="evenodd" d="M134.529 131.4L120.259 128.91L128.099 129.88L134.529 131.4Z" fill="#C93900"/>
<defs>
<linearGradient id="paint0_linear" x1="99.4034" y1="7.07841" x2="61.8966" y2="7.99143" gradientUnits="userSpaceOnUse">
<stop stop-color="#770000"/>
<stop offset="0.1843" stop-color="#FF0000"/>
<stop offset="0.2627" stop-color="#FFA1A1"/>
<stop offset="0.3725" stop-color="#FF0000"/>
<stop offset="0.4471" stop-color="#9D0000"/>
<stop offset="0.5216" stop-color="#FF0000"/>
<stop offset="0.6039" stop-color="#FF8585"/>
<stop offset="0.698" stop-color="#FF0000"/>
<stop offset="0.9529" stop-color="#B20000"/>
</linearGradient>
<linearGradient id="paint1_linear" x1="109.387" y1="7.61946" x2="71.9077" y2="8.53181" gradientUnits="userSpaceOnUse">
<stop stop-color="#770000"/>
<stop offset="0.1843" stop-color="#FF0000"/>
<stop offset="0.2627" stop-color="#FFA1A1"/>
<stop offset="0.3725" stop-color="#FF0000"/>
<stop offset="0.4471" stop-color="#9D0000"/>
<stop offset="0.5216" stop-color="#FF0000"/>
<stop offset="0.6039" stop-color="#FF8585"/>
<stop offset="0.698" stop-color="#FF0000"/>
<stop offset="0.9529" stop-color="#B20000"/>
</linearGradient>
<linearGradient id="paint2_linear" x1="119.54" y1="8.88219" x2="82.0562" y2="9.79465" gradientUnits="userSpaceOnUse">
<stop stop-color="#770000"/>
<stop offset="0.1843" stop-color="#FF0000"/>
<stop offset="0.2627" stop-color="#FFA1A1"/>
<stop offset="0.3725" stop-color="#FF0000"/>
<stop offset="0.4471" stop-color="#9D0000"/>
<stop offset="0.5216" stop-color="#FF0000"/>
<stop offset="0.6039" stop-color="#FF8585"/>
<stop offset="0.698" stop-color="#FF0000"/>
<stop offset="0.9529" stop-color="#B20000"/>
</linearGradient>
<linearGradient id="paint3_linear" x1="10.8863" y1="64.7288" x2="-26.5978" y2="65.6413" gradientUnits="userSpaceOnUse">
<stop stop-color="#770000"/>
<stop offset="0.1843" stop-color="#FF0000"/>
<stop offset="0.2627" stop-color="#FFA1A1"/>
<stop offset="0.3725" stop-color="#FF0000"/>
<stop offset="0.4471" stop-color="#9D0000"/>
<stop offset="0.5216" stop-color="#FF0000"/>
<stop offset="0.6039" stop-color="#FF8585"/>
<stop offset="0.698" stop-color="#FF0000"/>
<stop offset="0.9529" stop-color="#B20000"/>
</linearGradient>
<linearGradient id="paint4_linear" x1="21.0178" y1="65.3385" x2="-16.4617" y2="66.2509" gradientUnits="userSpaceOnUse">
<stop stop-color="#770000"/>
<stop offset="0.1843" stop-color="#FF0000"/>
<stop offset="0.2627" stop-color="#FFA1A1"/>
<stop offset="0.3725" stop-color="#FF0000"/>
<stop offset="0.4471" stop-color="#9D0000"/>
<stop offset="0.5216" stop-color="#FF0000"/>
<stop offset="0.6039" stop-color="#FF8585"/>
<stop offset="0.698" stop-color="#FF0000"/>
<stop offset="0.9529" stop-color="#B20000"/>
</linearGradient>
<linearGradient id="paint5_linear" x1="30.8849" y1="66.5725" x2="-6.59898" y2="67.4849" gradientUnits="userSpaceOnUse">
<stop stop-color="#770000"/>
<stop offset="0.1843" stop-color="#FF0000"/>
<stop offset="0.2627" stop-color="#FFA1A1"/>
<stop offset="0.3725" stop-color="#FF0000"/>
<stop offset="0.4471" stop-color="#9D0000"/>
<stop offset="0.5216" stop-color="#FF0000"/>
<stop offset="0.6039" stop-color="#FF8585"/>
<stop offset="0.698" stop-color="#FF0000"/>
<stop offset="0.9529" stop-color="#B20000"/>
</linearGradient>
</defs>
</svg>
