<svg width="271" height="151" viewBox="0 0 271 151" fill="none" xmlns="http://www.w3.org/2000/svg">
<g clip-path="url(#clip0)">
<path fill-rule="evenodd" clip-rule="evenodd" d="M104.55 145.26C124.49 144.49 141.49 150.18 160.89 150.79C191.29 151.76 227.14 139.39 254.67 118.44C258.58 115.47 262.42 112.22 264.8 108.5C266.87 105.27 267.68 101.91 268.33 98.65C269.52 92.76 270.31 86.92 270.72 81.18C270.98 77.52 271.02 73.71 268.76 71.19C266.73 68.92 263.12 68 259.57 67.27C238.47 62.91 215.11 62.37 193.53 58.78C165.03 54.04 138.76 43.96 106.69 47.79C90.6502 49.7 74.1201 55.03 57.8702 60.67C42.3202 66.06 24.8802 73.16 16.1002 85.59C10.7602 93.15 9.82015 101.16 9.28015 108.69C8.99015 112.7 8.79015 116.8 10.4602 120.06C12.5302 124.11 17.2402 126.39 21.9202 128.38C49.1202 139.94 80.9902 146.14 115.25 146.55" fill="#BEE26D" fill-opacity="0.3"/>
<path fill-rule="evenodd" clip-rule="evenodd" d="M114.56 79.46C105.94 82.08 98.6498 85.97 92.6798 91.14C86.6998 96.31 83.8098 101.23 83.9698 105.92C84.1098 110.61 87.2798 113.69 93.4698 115.16L140.58 126.36C146.77 127.83 154.16 127.27 162.77 124.66C171.35 122.05 178.62 118.17 184.6 113C190.57 107.83 193.49 102.9 193.37 98.2C193.2 93.51 190.02 90.44 183.82 88.96L136.72 77.75C130.51 76.28 123.13 76.85 114.56 79.46ZM184.72 88.66C191.04 90.16 194.29 93.3 194.46 98.08C194.6 102.87 191.63 107.9 185.54 113.17C179.45 118.44 172.02 122.41 163.25 125.07C154.48 127.73 146.93 128.31 140.62 126.81L92.5698 115.38C86.2598 113.88 83.0298 110.74 82.8798 105.95C82.7198 101.16 85.6898 96.13 91.7798 90.86C97.8698 85.6 105.3 81.63 114.09 78.96C122.84 76.3 130.37 75.73 136.68 77.23L184.72 88.66ZM113.4 77.84C104.2 80.68 96.3698 84.89 89.9098 90.48C83.4598 96.06 80.2798 101.37 80.3698 106.42C80.4498 111.46 83.7698 114.77 90.3298 116.33L140.26 128.21C146.82 129.77 154.71 129.13 163.9 126.29C173.09 123.45 180.91 119.24 187.36 113.66C193.82 108.07 197.01 102.76 196.94 97.71C196.86 92.67 193.54 89.36 186.97 87.8L137.04 75.92C130.47 74.36 122.59 75 113.4 77.84ZM187.74 87.49C194.39 89.07 197.74 92.43 197.81 97.56C197.85 102.71 194.58 108.13 188 113.82C181.42 119.51 173.45 123.81 164.11 126.71C154.75 129.61 146.75 130.28 140.11 128.69L89.5098 116.65C82.8598 115.06 79.5098 111.7 79.4698 106.56C79.4198 101.42 82.6898 96 89.2698 90.32C95.8498 84.63 103.82 80.33 113.17 77.41C122.51 74.51 130.51 73.86 137.16 75.44L187.74 87.49ZM178.34 91.1C183.92 92.43 186.89 95.12 187.24 99.18C187.55 103.24 185.16 107.49 180.04 111.91C174.93 116.33 168.61 119.63 161.07 121.81C153.5 124 146.92 124.43 141.34 123.1L98.8198 112.98C93.2198 111.65 90.2698 108.95 89.9498 104.89C89.6098 100.83 91.9798 96.59 97.0898 92.17C102.2 87.75 108.55 84.44 116.12 82.25C123.65 80.07 130.22 79.64 135.82 80.97L178.34 91.1ZM115.42 81.06C107.42 83.43 100.68 86.99 95.1998 91.73C89.7198 96.47 87.1098 101 87.3698 105.32C87.5998 109.65 90.6398 112.51 96.4798 113.9L140.85 124.46C146.68 125.85 153.6 125.36 161.6 122.98C169.57 120.62 176.29 117.07 181.77 112.33C187.25 107.59 189.87 103.05 189.64 98.72C189.37 94.4 186.32 91.55 180.48 90.16L136.11 79.6C130.29 78.22 123.38 78.7 115.42 81.06ZM181.44 89.88C187.38 91.29 190.49 94.21 190.76 98.62C191 103.04 188.34 107.66 182.75 112.49C177.16 117.33 170.29 120.95 162.15 123.37C153.98 125.78 146.93 126.28 140.99 124.87L95.7198 114.1C89.7698 112.68 86.6698 109.77 86.4298 105.35C86.1698 100.94 88.8298 96.32 94.4198 91.48C99.9998 86.65 106.87 83.03 115.03 80.61C123.17 78.2 130.21 77.7 136.16 79.12L181.44 89.88ZM94.5598 104.18C95.0098 107.77 97.7898 110.18 102.9 111.39L141.83 120.65C146.94 121.87 152.89 121.54 159.67 119.67C166.43 117.8 172.04 114.94 176.5 111.08C180.96 107.22 182.98 103.49 182.54 99.89C182.07 96.31 179.28 93.9 174.16 92.69L135.23 83.43C130.12 82.21 124.18 82.54 117.42 84.4C110.63 86.28 105.01 89.15 100.54 93.01C96.0798 96.87 94.0798 100.59 94.5598 104.18ZM117.11 83.94C124.04 82.01 130.11 81.67 135.33 82.91L175.04 92.36C180.25 93.6 183.08 96.06 183.53 99.74C183.95 103.44 181.86 107.28 177.25 111.26C172.66 115.23 166.89 118.19 159.96 120.13C153.01 122.06 146.94 122.41 141.72 121.18L102.01 111.73C96.7898 110.49 93.9698 108.02 93.5298 104.33C93.0898 100.64 95.1698 96.8 99.7598 92.83C104.38 88.84 110.16 85.88 117.11 83.94ZM90.9198 104.78C91.2698 108.74 94.1798 111.37 99.6598 112.67L141.35 122.59C146.83 123.89 153.27 123.49 160.65 121.37C168.03 119.26 174.2 116.05 179.16 111.76C184.13 107.46 186.44 103.33 186.08 99.37C185.71 95.42 182.79 92.79 177.31 91.49L135.62 81.57C130.14 80.27 123.71 80.67 116.35 82.78C108.95 84.9 102.78 88.1 97.8098 92.4C92.8398 96.7 90.5398 100.82 90.9198 104.78Z" fill="white"/>
<path fill-rule="evenodd" clip-rule="evenodd" d="M183.8 88.96C190 90.43 193.18 93.51 193.35 98.2C193.48 102.9 190.55 107.83 184.58 113C178.6 118.17 171.33 122.05 162.75 124.66C154.14 127.27 146.75 127.84 140.56 126.36L93.45 115.16C87.26 113.69 84.09 110.61 83.95 105.92C83.78 101.23 86.68 96.31 92.66 91.14C98.63 85.97 105.93 82.08 114.54 79.46C123.12 76.85 130.5 76.29 136.69 77.76L183.8 88.96ZM114.09 78.96C105.31 81.63 97.87 85.6 91.78 90.86C85.69 96.13 82.72 101.16 82.88 105.95C83.03 110.73 86.26 113.88 92.57 115.38L140.62 126.81C146.93 128.32 154.48 127.74 163.25 125.07C172.01 122.41 179.44 118.44 185.54 113.17C191.63 107.91 194.6 102.88 194.46 98.08C194.29 93.3 191.04 90.16 184.72 88.66L136.68 77.23C130.37 75.73 122.84 76.3 114.09 78.96ZM186.95 87.8C193.52 89.36 196.84 92.67 196.92 97.71C196.99 102.76 193.8 108.07 187.34 113.66C180.89 119.24 173.07 123.45 163.88 126.29C154.69 129.13 146.81 129.77 140.24 128.21L90.31 116.33C83.75 114.77 80.43 111.47 80.35 106.42C80.26 101.37 83.45 96.06 89.89 90.48C96.35 84.89 104.19 80.68 113.38 77.84C122.57 75 130.45 74.36 137 75.92L186.95 87.8ZM116.11 82.26C108.54 84.45 102.19 87.76 97.08 92.18C91.97 96.6 89.59 100.84 89.94 104.9C90.26 108.96 93.21 111.66 98.81 112.99L141.33 123.11C146.92 124.44 153.49 124.01 161.06 121.82C168.6 119.63 174.93 116.33 180.03 111.92C185.15 107.49 187.54 103.25 187.23 99.19C186.88 95.13 183.91 92.44 178.33 91.11L135.8 81C130.22 79.65 123.65 80.08 116.11 82.26ZM180.49 90.17C186.33 91.56 189.38 94.41 189.65 98.73C189.88 103.06 187.26 107.6 181.78 112.34C176.3 117.08 169.58 120.63 161.61 122.99C153.61 125.36 146.69 125.86 140.86 124.47L96.48 113.9C90.64 112.51 87.6 109.65 87.37 105.32C87.11 101 89.72 96.47 95.2 91.73C100.68 86.99 107.42 83.43 115.42 81.06C123.39 78.7 130.29 78.21 136.13 79.6L180.49 90.17ZM115.05 80.61C106.89 83.03 100.02 86.65 94.44 91.48C88.85 96.32 86.18 100.94 86.45 105.35C86.69 109.77 89.79 112.68 95.74 114.1L141 124.86C146.94 126.27 153.99 125.77 162.16 123.36C170.3 120.95 177.16 117.32 182.76 112.48C188.34 107.65 191.01 103.03 190.77 98.61C190.5 94.2 187.39 91.28 181.45 89.87L136.18 79.1C130.23 77.7 123.18 78.19 115.05 80.61ZM117.42 84.39C124.18 82.52 130.12 82.2 135.23 83.42L174.16 92.68C179.28 93.89 182.07 96.3 182.54 99.88C182.98 103.48 180.96 107.21 176.5 111.07C172.04 114.93 166.43 117.79 159.67 119.66C152.9 121.53 146.94 121.86 141.83 120.64L102.9 111.38C97.79 110.16 95.01 107.76 94.56 104.17C94.09 100.59 96.08 96.86 100.55 93C105.01 89.15 110.64 86.28 117.42 84.39ZM93.54 104.32C93.97 108.01 96.79 110.47 102.02 111.72L141.73 121.17C146.95 122.41 153.02 122.06 159.97 120.12C166.9 118.18 172.67 115.23 177.26 111.25C181.87 107.27 183.96 103.43 183.54 99.73C183.09 96.05 180.26 93.59 175.05 92.35L135.34 82.9C130.12 81.66 124.05 82 117.12 83.93C110.17 85.87 104.39 88.83 99.79 92.82C95.19 96.8 93.11 100.63 93.54 104.32ZM116.35 82.78C123.71 80.67 130.14 80.26 135.62 81.57L177.31 91.49C182.79 92.79 185.71 95.42 186.08 99.37C186.44 103.33 184.13 107.46 179.16 111.76C174.19 116.05 168.02 119.26 160.65 121.37C153.27 123.49 146.84 123.89 141.35 122.59L99.66 112.67C94.18 111.37 91.26 108.73 90.92 104.78C90.55 100.83 92.84 96.7 97.81 92.4C102.78 88.1 108.95 84.9 116.35 82.78Z" fill="#E25829"/>
<path fill-rule="evenodd" clip-rule="evenodd" d="M130.11 82.21L176.84 93.32L145.68 120.33L99.0498 109.19L130.11 82.21Z" fill="#CCFFCC"/>
<path fill-rule="evenodd" clip-rule="evenodd" d="M130.78 83.97L172.84 93.97L144.78 118.28L102.82 108.26L130.78 83.97Z" fill="#00CC00"/>
<path fill-rule="evenodd" clip-rule="evenodd" d="M234.07 20.85C233.92 21 233.83 21.17 233.82 21.36L230.16 75.45C230.15 75.64 230.21 75.78 230.35 75.86C230.49 75.94 230.68 75.96 230.92 75.9L230.99 75.88C231.23 75.83 231.44 75.72 231.59 75.57C231.74 75.42 231.82 75.25 231.84 75.06L235.5 20.97C235.51 20.78 235.45 20.64 235.32 20.56C235.18 20.48 234.99 20.46 234.75 20.52L234.68 20.54C234.42 20.6 234.22 20.71 234.07 20.85Z" fill="#383838"/>
<path fill-rule="evenodd" clip-rule="evenodd" d="M219.31 17.3701C219.16 17.5201 219.07 17.6901 219.06 17.8801L215.4 71.9701C215.39 72.1601 215.45 72.3001 215.59 72.3801C215.73 72.4601 215.92 72.4801 216.16 72.4201L216.23 72.4001C216.47 72.3501 216.67 72.2401 216.82 72.0901C216.97 71.9401 217.05 71.7701 217.06 71.5801L220.72 17.4901C220.73 17.3001 220.67 17.1601 220.54 17.0801C220.4 17.0001 220.21 16.9901 219.97 17.0401L219.9 17.0601C219.66 17.1301 219.46 17.2301 219.31 17.3701Z" fill="#383838"/>
<path fill-rule="evenodd" clip-rule="evenodd" d="M201.38 15.4902C201.23 15.6402 201.15 15.8102 201.13 16.0002L197.47 70.0902C197.46 70.2802 197.52 70.4202 197.65 70.5102C197.79 70.5902 197.98 70.6002 198.22 70.5502L198.29 70.5302C198.53 70.4802 198.73 70.3802 198.88 70.2302C199.04 70.0802 199.12 69.9102 199.13 69.7202L202.79 15.6302C202.8 15.4302 202.74 15.3002 202.6 15.2202C202.46 15.1402 202.27 15.1302 202.03 15.1802L201.96 15.2002C201.74 15.2502 201.53 15.3402 201.38 15.4902Z" fill="#383838"/>
<path fill-rule="evenodd" clip-rule="evenodd" d="M185.92 12.1801C185.77 12.3301 185.69 12.5001 185.67 12.6901L182.01 66.7801C182 66.9701 182.06 67.1101 182.19 67.2001C182.33 67.2801 182.52 67.2901 182.76 67.2401L182.84 67.2201C183.08 67.1701 183.28 67.0701 183.43 66.9201C183.58 66.7701 183.67 66.6001 183.68 66.4101L187.34 12.3201C187.35 12.1301 187.29 11.9901 187.15 11.9101C187.01 11.8201 186.82 11.8101 186.58 11.8701L186.5 11.8901C186.27 11.9201 186.07 12.0201 185.92 12.1801Z" fill="#383838"/>
<path fill-rule="evenodd" clip-rule="evenodd" d="M169.76 8.90011C169.61 9.05011 169.52 9.22011 169.51 9.41011L165.85 63.5001C165.84 63.6901 165.9 63.8301 166.04 63.9101C166.18 63.9901 166.37 64.0001 166.61 63.9501L166.68 63.9301C166.92 63.8801 167.12 63.7801 167.28 63.6301C167.43 63.4801 167.51 63.3101 167.52 63.1201L171.18 9.03011C171.19 8.83011 171.14 8.70011 171 8.61011C170.86 8.53011 170.67 8.52011 170.43 8.57011L170.36 8.59011C170.11 8.65011 169.91 8.75011 169.76 8.90011Z" fill="#383838"/>
<path fill-rule="evenodd" clip-rule="evenodd" d="M242.38 38.9902L232.25 53.1802L231.43 53.0402L241.56 38.7402L242.38 38.9902Z" fill="#F3EDE0"/>
<path fill-rule="evenodd" clip-rule="evenodd" d="M234.45 37.1601L224.33 51.3401L223.51 51.0901L233.63 36.9001L234.45 37.1601Z" fill="#F3EDE0"/>
<path fill-rule="evenodd" clip-rule="evenodd" d="M148.49 74.2601L147.52 74.1501L157.65 59.8501L158.47 60.1001L148.49 74.2601Z" fill="#F3EDE0"/>
<path fill-rule="evenodd" clip-rule="evenodd" d="M215.58 49.2501L225.7 35.0701L226.51 35.3201L216.39 49.5001L215.58 49.2501Z" fill="#F3EDE0"/>
<path fill-rule="evenodd" clip-rule="evenodd" d="M207.79 47.3902L217.78 33.2302L218.74 33.3402L208.6 47.6402L207.79 47.3902Z" fill="#F3EDE0"/>
<path fill-rule="evenodd" clip-rule="evenodd" d="M199.86 45.55L209.99 31.25L210.81 31.5L200.68 45.8L199.86 45.55Z" fill="#F3EDE0"/>
<path fill-rule="evenodd" clip-rule="evenodd" d="M191.93 43.7102L202.06 29.4202L202.88 29.5602L192.76 43.8502L191.93 43.7102Z" fill="#F3EDE0"/>
<path fill-rule="evenodd" clip-rule="evenodd" d="M184.01 41.7701L194.27 27.55L195.1 27.6901L184.96 41.9901L184.01 41.7701Z" fill="#F3EDE0"/>
<path fill-rule="evenodd" clip-rule="evenodd" d="M187.17 25.8501L177.03 40.1501L176.22 39.9001L186.35 25.6001L187.17 25.8501Z" fill="#F3EDE0"/>
<path fill-rule="evenodd" clip-rule="evenodd" d="M179.24 24.02L169.11 38.32L168.29 38.06L178.42 23.77L179.24 24.02Z" fill="#F3EDE0"/>
<path fill-rule="evenodd" clip-rule="evenodd" d="M171.45 22.1502L161.32 36.3402L160.36 36.2202L170.5 21.9302L171.45 22.1502Z" fill="#F3EDE0"/>
<path fill-rule="evenodd" clip-rule="evenodd" d="M152.58 34.2501L162.7 20.0601L163.67 20.1701L153.54 34.4701L152.58 34.2501Z" fill="#F3EDE0"/>
<path fill-rule="evenodd" clip-rule="evenodd" d="M131.81 70.3301L141.94 56.1501L142.76 56.2901L132.63 70.5801L131.81 70.3301Z" fill="#F3EDE0"/>
<path fill-rule="evenodd" clip-rule="evenodd" d="M139.73 72.2802L149.87 57.9802L150.68 58.2302L140.56 72.4202L139.73 72.2802Z" fill="#F3EDE0"/>
<path fill-rule="evenodd" clip-rule="evenodd" d="M155.45 75.9802L165.58 61.6802L166.4 61.9402L156.27 76.1302L155.45 75.9802Z" fill="#F3EDE0"/>
<path fill-rule="evenodd" clip-rule="evenodd" d="M163.38 77.82L173.51 63.52L174.33 63.78L164.2 77.96L163.38 77.82Z" fill="#F3EDE0"/>
<path fill-rule="evenodd" clip-rule="evenodd" d="M171.16 79.68L181.29 65.5L182.11 65.64L171.98 79.94L171.16 79.68Z" fill="#F3EDE0"/>
<path fill-rule="evenodd" clip-rule="evenodd" d="M179.09 81.6401L189.22 67.3301L190.04 67.5901L179.91 81.7801L179.09 81.6401Z" fill="#F3EDE0"/>
<path fill-rule="evenodd" clip-rule="evenodd" d="M197.97 69.43L187.83 83.72L187.02 83.47L197.14 69.29L197.97 69.43Z" fill="#F3EDE0"/>
<path fill-rule="evenodd" clip-rule="evenodd" d="M194.8 85.3401L204.93 71.1501L205.89 71.3701L195.77 85.5601L194.8 85.3401Z" fill="#F3EDE0"/>
<path fill-rule="evenodd" clip-rule="evenodd" d="M202.73 87.1702L212.86 72.9902L213.69 73.1302L203.55 87.4302L202.73 87.1702Z" fill="#F3EDE0"/>
<path fill-rule="evenodd" clip-rule="evenodd" d="M210.66 89.0101L220.79 74.8201L221.61 74.9701L211.48 89.2701L210.66 89.0101Z" fill="#F3EDE0"/>
<path fill-rule="evenodd" clip-rule="evenodd" d="M231.99 56.9801L221.86 71.2801L221.04 71.1301L231.17 56.8401L231.99 56.9801Z" fill="#F3EDE0"/>
<path fill-rule="evenodd" clip-rule="evenodd" d="M224.07 55.1501L213.93 69.4401L213.12 69.1901L223.25 54.8901L224.07 55.1501Z" fill="#F3EDE0"/>
<path fill-rule="evenodd" clip-rule="evenodd" d="M216.14 53.3101L206.16 67.46L205.19 67.35L215.32 53.05L216.14 53.3101Z" fill="#F3EDE0"/>
<path fill-rule="evenodd" clip-rule="evenodd" d="M208.35 51.3302L198.23 65.6302L197.41 65.3702L207.53 51.1902L208.35 51.3302Z" fill="#F3EDE0"/>
<path fill-rule="evenodd" clip-rule="evenodd" d="M200.43 49.4902L190.3 63.7902L189.48 63.5302L199.61 49.2402L200.43 49.4902Z" fill="#F3EDE0"/>
<path fill-rule="evenodd" clip-rule="evenodd" d="M181.55 61.7001L191.68 47.4001L192.5 47.6601L182.36 61.9501L181.55 61.7001Z" fill="#F3EDE0"/>
<path fill-rule="evenodd" clip-rule="evenodd" d="M184.71 45.79L174.58 60.08L173.76 59.83L183.89 45.53L184.71 45.79Z" fill="#F3EDE0"/>
<path fill-rule="evenodd" clip-rule="evenodd" d="M165.83 57.9902L175.97 43.7002L176.78 43.8402L166.66 58.1402L165.83 57.9902Z" fill="#F3EDE0"/>
<path fill-rule="evenodd" clip-rule="evenodd" d="M157.91 56.05L168.04 41.75L168.86 42.01L158.73 56.3L157.91 56.05Z" fill="#F3EDE0"/>
<path fill-rule="evenodd" clip-rule="evenodd" d="M150.12 54.1802L160.11 39.9102L161.07 40.1402L150.95 54.3202L150.12 54.1802Z" fill="#F3EDE0"/>
<path fill-rule="evenodd" clip-rule="evenodd" d="M153.28 38.2701L143.02 52.4901L142.2 52.23L152.33 38.05L153.28 38.2701Z" fill="#F3EDE0"/>
<path fill-rule="evenodd" clip-rule="evenodd" d="M192.76 43.85L199.86 45.55L200.68 45.8L207.79 47.39L208.6 47.64L215.58 49.25L216.39 49.5L223.51 51.09L224.33 51.34L231.43 53.04L232.25 53.18L239.22 54.9L238.96 58.7L231.99 56.98L231.17 56.84L224.07 55.15L223.25 54.89L216.14 53.31L215.32 53.05L208.35 51.33L207.53 51.19L200.43 49.49L199.61 49.24L192.5 47.66L191.68 47.4L184.71 45.79L183.89 45.53L176.78 43.84L175.97 43.7L168.86 42.01L168.04 41.75L161.07 40.14L160.11 39.91L153.28 38.27L152.33 38.05L143.99 36.08L144.24 32.28L152.58 34.25L153.54 34.47L160.36 36.22L161.32 36.34L168.29 38.06L169.11 38.32L176.22 39.9L177.03 40.15L184.01 41.77L184.96 41.99L191.93 43.71L192.76 43.85Z" fill="#A59882"/>
<path fill-rule="evenodd" clip-rule="evenodd" d="M143.02 52.4901L150.12 54.18L150.95 54.32L157.91 56.05L158.73 56.3L165.83 57.9901L166.66 58.14L173.76 59.8301L174.58 60.0801L181.55 61.7001L182.36 61.9501L189.48 63.53L190.3 63.7901L197.41 65.3701L198.23 65.63L205.19 67.35L206.16 67.46L213.12 69.1901L213.93 69.4401L221.04 71.13L221.86 71.28L228.83 73L228.58 76.6901L221.61 74.9701L220.79 74.82L213.69 73.13L212.86 72.99L205.89 71.3701L204.93 71.1501L197.97 69.43L197.14 69.2901L190.04 67.59L189.22 67.3301L182.11 65.64L181.29 65.5L174.33 63.78L173.51 63.5201L166.4 61.94L165.58 61.68L158.47 60.1L157.65 59.85L150.68 58.23L149.87 57.98L142.76 56.2901L141.94 56.1501L133.46 54.1L133.72 50.3L142.2 52.23L143.02 52.4901Z" fill="#A59882"/>
<path fill-rule="evenodd" clip-rule="evenodd" d="M123.33 68.4001L133.46 54.1001L141.93 56.1501L131.8 70.3401L123.33 68.4001ZM157.65 59.8501L147.52 74.1501L140.56 72.4201L150.69 58.2301L157.65 59.8501ZM173.51 63.5201L163.38 77.8201L156.27 76.1301L166.4 61.9401L173.51 63.5201ZM171.98 79.9401L182.11 65.6401L189.22 67.3301L179.09 81.6301L171.98 79.9401ZM204.93 71.1501L194.8 85.3401L187.83 83.7301L197.96 69.4301L204.93 71.1501ZM220.79 74.8201L210.66 89.0101L203.55 87.4301L213.68 73.1301L220.79 74.8201Z" fill="#FFD41C"/>
<path fill-rule="evenodd" clip-rule="evenodd" d="M143.99 36.0801L152.33 38.0401L142.2 52.2301L133.72 50.3001L143.99 36.0801ZM231.17 56.8401L221.04 71.1401L213.93 69.4501L224.06 55.1501L231.17 56.8401ZM198.23 65.6301L208.36 51.3301L215.33 53.0601L205.2 67.3601L198.23 65.6301ZM182.36 61.9501L192.49 47.6501L199.6 49.2301L189.47 63.5301L182.36 61.9501ZM166.66 58.1401L176.79 43.8401L183.9 45.5301L173.77 59.8301L166.66 58.1401ZM150.95 54.3201L161.07 40.1301L168.05 41.7401L157.92 56.0401L150.95 54.3201Z" fill="#CFA800"/>
<path fill-rule="evenodd" clip-rule="evenodd" d="M224.33 51.3402L234.45 37.1602L241.56 38.7402L231.43 53.0402L224.33 51.3402Z" fill="#FFD500"/>
<path fill-rule="evenodd" clip-rule="evenodd" d="M208.6 47.6401L218.74 33.3401L225.7 35.0701L215.58 49.2501L208.6 47.6401Z" fill="#FFD500"/>
<path fill-rule="evenodd" clip-rule="evenodd" d="M192.76 43.8501L202.88 29.5601L209.99 31.2501L199.86 45.5501L192.76 43.8501Z" fill="#FFD500"/>
<path fill-rule="evenodd" clip-rule="evenodd" d="M177.03 40.1501L187.17 25.8501L194.27 27.5501L184.01 41.7701L177.03 40.1501Z" fill="#FFD500"/>
<path fill-rule="evenodd" clip-rule="evenodd" d="M161.32 36.3401L171.45 22.1501L178.42 23.7701L168.29 38.0601L161.32 36.3401Z" fill="#FFD500"/>
<path fill-rule="evenodd" clip-rule="evenodd" d="M154.38 17.9902L162.7 20.0602L152.58 34.2502L144.24 32.2802L154.38 17.9902Z" fill="#FFD500"/>
<path fill-rule="evenodd" clip-rule="evenodd" d="M226.51 35.3202L233.62 36.9002L223.5 51.0902L216.39 49.5102L226.51 35.3202ZM165.58 61.6802L155.45 75.9802L148.49 74.2502L158.47 60.1002L165.58 61.6802ZM200.68 45.8002L210.81 31.5002L217.78 33.2302L207.79 47.3902L200.68 45.8002ZM202.06 29.4202L191.93 43.7102L184.96 41.9902L195.09 27.6902L202.06 29.4202ZM169.11 38.3202L179.24 24.0302L186.36 25.6102L176.23 39.9102L169.11 38.3202ZM153.54 34.4702L163.67 20.1702L170.49 21.9302L160.36 36.2302L153.54 34.4702ZM132.63 70.5802L142.76 56.2802L149.87 57.9802L139.74 72.2802L132.63 70.5802ZM181.29 65.5002L171.16 79.6902L164.2 77.9702L174.33 63.7802L181.29 65.5002ZM179.91 81.7802L190.04 67.5902L197.15 69.2902L187.02 83.4702L179.91 81.7802ZM212.86 72.9902L202.73 87.1802L195.76 85.5702L205.89 71.3802L212.86 72.9902ZM228.58 76.6902L223.81 83.6002L223.23 83.9502L214.95 89.4602L214.22 89.9602L211.49 89.2602L221.62 74.9602L228.58 76.6902ZM249.34 40.7202L239.22 54.9002L232.25 53.1802L242.38 38.9902L249.34 40.7202Z" fill="#FF6F4D"/>
<path fill-rule="evenodd" clip-rule="evenodd" d="M238.96 58.7002L228.83 73.0002L221.86 71.2802L231.99 56.9802L238.96 58.7002Z" fill="#C73A13"/>
<path fill-rule="evenodd" clip-rule="evenodd" d="M206.16 67.4601L216.14 53.3101L223.25 54.8901L213.12 69.1901L206.16 67.4601Z" fill="#C73A13"/>
<path fill-rule="evenodd" clip-rule="evenodd" d="M207.53 51.1902L197.41 65.3702L190.3 63.7902L200.43 49.4902L207.53 51.1902Z" fill="#C73A13"/>
<path fill-rule="evenodd" clip-rule="evenodd" d="M191.68 47.4L181.55 61.7L174.58 60.08L184.71 45.79L191.68 47.4Z" fill="#C73A13"/>
<path fill-rule="evenodd" clip-rule="evenodd" d="M175.97 43.7L165.83 57.99L158.73 56.3L168.86 42.01L175.97 43.7Z" fill="#C73A13"/>
<path fill-rule="evenodd" clip-rule="evenodd" d="M143.02 52.49L153.28 38.27L160.11 39.91L150.12 54.18L143.02 52.49Z" fill="#C73A13"/>
<path fill-rule="evenodd" clip-rule="evenodd" d="M98.48 55.7L98.63 60.7099L102.64 61.32L102.49 56.41L98.48 55.7Z" fill="#8A8881"/>
<path fill-rule="evenodd" clip-rule="evenodd" d="M106.67 53.56V53.45L102.38 52.71L98.7598 55.61L102.91 56.29L106.67 53.56Z" fill="#F5F1E1"/>
<path fill-rule="evenodd" clip-rule="evenodd" d="M106.67 53.5601L102.91 56.2901L103.07 61.2001L106.83 58.6801L106.67 53.5601Z" fill="#DBD8CD"/>
<path fill-rule="evenodd" clip-rule="evenodd" d="M100.36 0.410049C100.22 0.560049 100.15 0.730049 100.15 0.920049L101.8 53.6501C101.81 53.84 101.89 53.96 102.03 54.03C102.18 54.1 102.37 54.1 102.61 54.03L102.69 54.01C102.93 53.94 103.12 53.83 103.26 53.67C103.4 53.52 103.47 53.35 103.46 53.16L101.81 0.430049C101.8 0.240049 101.73 0.120049 101.58 0.0400488C101.43 -0.0299512 101.24 -0.0299512 101 0.0400488L100.92 0.0600488C100.69 0.140049 100.5 0.250049 100.36 0.410049Z" fill="#383838"/>
<path fill-rule="evenodd" clip-rule="evenodd" d="M90.0698 6.83001C89.5998 7.35001 89.0798 7.28001 88.5098 6.62001L88.6898 12.43C89.4398 12.77 90.1598 12.68 90.8398 12.15C91.5098 11.61 92.0898 11.1 92.5498 10.63C93.0198 10.15 93.3798 9.83001 93.6498 9.67001C94.0998 9.40001 94.5498 9.22001 94.9798 9.13001C95.8098 9.05001 96.5598 9.09001 97.2398 9.26001C97.6598 9.37001 98.0898 9.44001 98.5298 9.48001C98.7598 9.50001 98.9998 9.49001 99.2598 9.45001C99.5398 9.37001 99.7798 9.28001 100.02 9.18001L99.8598 3.90001C99.6698 3.85001 99.4798 3.80001 99.2598 3.75001C98.8598 3.70001 98.3598 3.65001 97.7398 3.60001C97.1198 3.55001 96.3998 3.59001 95.5598 3.74001C94.7198 3.89001 93.7998 4.28001 92.7798 4.91001C91.7698 5.54001 91.1798 5.89001 90.9998 5.96001C90.8398 6.02001 90.5298 6.31001 90.0698 6.83001Z" fill="url(#paint0_linear)"/>
<path fill-rule="evenodd" clip-rule="evenodd" d="M116.52 54.0299L116.51 53.9299L112.36 53.1399L108.6 56.0799L112.75 56.6499L116.52 54.0299Z" fill="#F5F1E1"/>
<path fill-rule="evenodd" clip-rule="evenodd" d="M112.47 56.7399L108.47 56.1199L108.62 61.0299L112.63 61.7499L112.47 56.7399Z" fill="#8A8881"/>
<path fill-rule="evenodd" clip-rule="evenodd" d="M112.75 56.6498L112.91 61.6698L116.67 59.0498L116.52 54.0298L112.75 56.6498Z" fill="#DBD8CD"/>
<path fill-rule="evenodd" clip-rule="evenodd" d="M110.2 0.879945C110.06 1.02995 109.99 1.19995 109.99 1.38995L111.64 54.1099C111.65 54.2999 111.73 54.4299 111.87 54.4999C112.02 54.5699 112.21 54.5699 112.45 54.4999L112.53 54.4799C112.77 54.4099 112.96 54.2999 113.1 54.1499C113.24 53.9999 113.31 53.8199 113.3 53.6399L111.65 0.919945C111.64 0.729945 111.57 0.609945 111.42 0.529945C111.27 0.449945 111.08 0.459945 110.84 0.529945L110.76 0.549945C110.54 0.609945 110.35 0.719945 110.2 0.879945Z" fill="#383838"/>
<path fill-rule="evenodd" clip-rule="evenodd" d="M100.05 7.36983C99.59 7.88983 99.07 7.81983 98.5 7.15983L98.68 12.9698C99.43 13.3198 100.15 13.2298 100.83 12.6898C101.5 12.1498 102.07 11.6498 102.54 11.1698C103 10.6998 103.36 10.3798 103.64 10.2098C104.1 9.92983 104.54 9.74983 104.98 9.65983C105.81 9.57983 106.56 9.61983 107.24 9.78983C107.66 9.89983 108.09 9.96983 108.53 9.99983C108.76 10.0298 109 10.0198 109.25 9.97983C109.53 9.89983 109.78 9.80983 110.01 9.70983L109.85 4.42983C109.67 4.36983 109.46 4.32983 109.25 4.27983C108.86 4.22983 108.36 4.17983 107.74 4.12983C107.12 4.07983 106.39 4.12983 105.55 4.27983C104.72 4.41983 103.79 4.81983 102.78 5.44983C101.76 6.07983 101.18 6.42983 101 6.48983C100.83 6.55983 100.52 6.84983 100.05 7.36983Z" fill="url(#paint1_linear)"/>
<path fill-rule="evenodd" clip-rule="evenodd" d="M122.35 58.2998L118.34 57.5798L118.49 62.5898L122.5 63.3098L122.35 58.2998Z" fill="#8A8881"/>
<path fill-rule="evenodd" clip-rule="evenodd" d="M122.77 58.1699L126.39 55.49L122.23 54.7L118.62 57.5L122.77 58.1699Z" fill="#F5F1E1"/>
<path fill-rule="evenodd" clip-rule="evenodd" d="M122.77 58.17L122.93 63.19L126.55 60.61L126.39 55.49L122.77 58.17Z" fill="#DBD8CD"/>
<path fill-rule="evenodd" clip-rule="evenodd" d="M120.22 2.28995C120.08 2.43995 120.01 2.60995 120.02 2.79995L121.67 55.5299C121.68 55.7199 121.75 55.8399 121.9 55.9199C122.05 55.9899 122.25 55.9899 122.49 55.9199L122.56 55.9C122.8 55.83 122.99 55.72 123.13 55.56C123.28 55.4 123.34 55.2299 123.34 55.0499L121.69 2.31995C121.68 2.12995 121.61 1.99995 121.45 1.93995C121.3 1.86995 121.11 1.86995 120.87 1.93995L120.8 1.95995C120.55 2.01995 120.36 2.13995 120.22 2.28995Z" fill="#383838"/>
<path fill-rule="evenodd" clip-rule="evenodd" d="M110.2 8.63985C109.74 9.15985 109.22 9.08985 108.65 8.42985L108.83 14.2399C109.59 14.5799 110.3 14.4899 110.98 13.9599C111.65 13.4199 112.22 12.9199 112.68 12.4399C113.14 11.9699 113.5 11.6499 113.78 11.4799C114.24 11.2099 114.68 11.0299 115.12 10.9299C115.95 10.8499 116.7 10.8899 117.38 11.0599C117.8 11.1699 118.23 11.2499 118.67 11.2799C118.9 11.2999 119.14 11.2899 119.39 11.2499C119.67 11.1699 119.92 11.0799 120.15 10.9799L120 5.69985C119.82 5.64985 119.61 5.59985 119.4 5.54985C119.01 5.49985 118.51 5.44985 117.89 5.39985C117.27 5.34985 116.54 5.39985 115.7 5.54985C114.87 5.69985 113.94 6.08985 112.93 6.71985C111.91 7.34985 111.33 7.69985 111.16 7.76985C110.99 7.81985 110.67 8.11985 110.2 8.63985Z" fill="url(#paint2_linear)"/>
<path fill-rule="evenodd" clip-rule="evenodd" d="M11.9798 72.8401L33.8898 90.3001L33.6098 90.3801L11.8398 73.1001L11.9798 72.8401Z" fill="#F3EDE0"/>
<path fill-rule="evenodd" clip-rule="evenodd" d="M63.3299 107.03L41.4199 89.68L42.8199 88.72L64.5799 106.01L63.3299 107.03Z" fill="#F3EDE0"/>
<path fill-rule="evenodd" clip-rule="evenodd" d="M71.4001 100.97L49.6401 83.58L51.0201 82.52L72.7901 99.91L71.4001 100.97Z" fill="#F3EDE0"/>
<path fill-rule="evenodd" clip-rule="evenodd" d="M79.7602 94.7199L57.9902 77.4399L59.2402 76.4199L81.1502 93.7699L79.7602 94.7199Z" fill="#F3EDE0"/>
<path fill-rule="evenodd" clip-rule="evenodd" d="M67.4501 70.3201L89.3601 87.6701L87.8301 88.7801L66.0601 71.3801L67.4501 70.3201Z" fill="#F3EDE0"/>
<path fill-rule="evenodd" clip-rule="evenodd" d="M68.9199 30.6501L70.3099 29.5901L92.0799 46.9801L90.6899 48.0401L68.9199 30.6501Z" fill="#F3EDE0"/>
<path fill-rule="evenodd" clip-rule="evenodd" d="M74.2602 60.1199L52.4902 42.8399L53.7502 41.9299L75.6502 59.1699L74.2602 60.1199Z" fill="#F3EDE0"/>
<path fill-rule="evenodd" clip-rule="evenodd" d="M97.5702 81.5799L96.1902 82.6399L74.4102 65.1399L75.8102 64.1899L97.5702 81.5799Z" fill="#F3EDE0"/>
<path fill-rule="evenodd" clip-rule="evenodd" d="M104.4 76.4301L82.4902 59.1901L84.0202 58.0901L105.79 75.3701L104.4 76.4301Z" fill="#F3EDE0"/>
<path fill-rule="evenodd" clip-rule="evenodd" d="M112.61 70.33L90.8501 53.05L92.2301 51.99L114 69.38L112.61 70.33Z" fill="#F3EDE0"/>
<path fill-rule="evenodd" clip-rule="evenodd" d="M37.6002 53.9299L59.3702 71.2199L57.9702 72.2799L36.2002 54.8799L37.6002 53.9299Z" fill="#F3EDE0"/>
<path fill-rule="evenodd" clip-rule="evenodd" d="M62.1001 35.6799L83.8701 53.0699L82.3401 54.1699L60.5601 36.7799L62.1001 35.6799Z" fill="#F3EDE0"/>
<path fill-rule="evenodd" clip-rule="evenodd" d="M51.1502 77.42L49.7602 78.48L27.9902 61.09L29.3902 60.03L51.1502 77.42Z" fill="#F3EDE0"/>
<path fill-rule="evenodd" clip-rule="evenodd" d="M66.1799 66.1801L44.4199 48.9001L45.6699 47.8801L67.5799 65.2301L66.1799 66.1801Z" fill="#F3EDE0"/>
<path fill-rule="evenodd" clip-rule="evenodd" d="M41.5401 84.4699L19.6401 67.2299L21.0301 66.1699L42.9401 83.5199L41.5401 84.4699Z" fill="#F3EDE0"/>
<path fill-rule="evenodd" clip-rule="evenodd" d="M74.4099 65.1399L67.4499 70.3199L66.0599 71.3799L59.2399 76.4199L57.9899 77.4399L51.0199 82.5199L49.6399 83.5799L42.8199 88.7199L41.4199 89.6799L33.7699 95.3899L33.6099 90.3799L33.8899 90.2999L41.5399 84.4699L42.9399 83.5199L49.7599 78.4799L51.1499 77.4199L57.9699 72.2799L59.3699 71.2199L66.1799 66.1799L67.5799 65.2299L74.2599 60.1199L75.6499 59.1699L82.3399 54.1699L83.8699 53.0699L90.6899 48.0399L92.0799 46.9799L98.8999 41.9299L99.0599 46.8399L92.2299 51.9899L90.8499 53.0499L84.0199 58.0899L82.4899 59.1899L75.8099 64.1899L74.4099 65.1399Z" fill="#E0D9CC"/>
<path fill-rule="evenodd" clip-rule="evenodd" d="M33.7698 95.3901L55.5298 112.79L12.8698 106.12L11.8398 73.1001L33.6098 90.3801L33.7698 95.3901Z" fill="#A59882"/>
<path fill-rule="evenodd" clip-rule="evenodd" d="M64.5798 106.01L42.8198 88.7201L49.6398 83.5701L71.3998 100.97L64.5798 106.01ZM81.1498 93.7701L59.2398 76.4201L66.0598 71.3801L87.8298 88.7701L81.1498 93.7701ZM97.5698 81.5801L75.8098 64.1901L82.4898 59.1901L104.39 76.4401L97.5698 81.5801ZM99.0598 46.8401L120.82 64.2301L114 69.3801L92.2298 51.9901L99.0598 46.8401Z" fill="#D8ECF3"/>
<path fill-rule="evenodd" clip-rule="evenodd" d="M41.42 89.68L63.33 107.03L55.53 112.79L33.77 95.39L41.42 89.68ZM57.99 77.4401L79.76 94.7201L72.8 99.9101L51.02 82.52L57.99 77.4401ZM89.36 87.67L67.45 70.32L74.41 65.13L96.18 82.63L89.36 87.67ZM90.85 53.05L112.61 70.34L105.79 75.38L84.02 58.09L90.85 53.05Z" fill="#1AC6FF"/>
<path fill-rule="evenodd" clip-rule="evenodd" d="M92.0798 46.98L70.3098 29.59L77.1298 24.55L98.8998 41.93L92.0798 46.98ZM75.6498 59.17L53.7498 41.93L60.5598 36.78L82.3298 54.17L75.6498 59.17ZM44.4198 48.9001L66.1798 66.18L59.3598 71.2201L37.5998 53.93L44.4198 48.9001ZM27.9898 61.09L49.7598 78.4801L42.9298 83.52L21.0298 66.17L27.9898 61.09Z" fill="#ADD5E3"/>
<path fill-rule="evenodd" clip-rule="evenodd" d="M45.6699 47.8801L52.4899 42.8401L74.2599 60.1201L67.5799 65.2301L45.6699 47.8801Z" fill="#0096CB"/>
<path fill-rule="evenodd" clip-rule="evenodd" d="M36.2001 54.8801L57.9701 72.2801L51.1501 77.4201L29.3901 60.0301L36.2001 54.8801Z" fill="#0096CB"/>
<path fill-rule="evenodd" clip-rule="evenodd" d="M83.8701 53.0701L62.1001 35.6801L68.9201 30.6501L90.6901 48.0401L83.8701 53.0701Z" fill="#0096CB"/>
<path fill-rule="evenodd" clip-rule="evenodd" d="M19.64 67.23L41.54 84.47L33.89 90.3L11.98 72.84L19.64 67.23Z" fill="#0096CB"/>
<path fill-rule="evenodd" clip-rule="evenodd" d="M14.4 113.82L18.02 111.13L13.86 110.24L10.25 113.14L14.4 113.82Z" fill="#F5F1E1"/>
<path fill-rule="evenodd" clip-rule="evenodd" d="M14.13 118.96L13.97 113.94L9.95996 113.23L10.12 118.24L14.13 118.96Z" fill="#8A8881"/>
<path fill-rule="evenodd" clip-rule="evenodd" d="M14.3999 113.82L14.5599 118.83L18.1799 116.26L18.0199 111.13L14.3999 113.82Z" fill="#DBD8CD"/>
<path fill-rule="evenodd" clip-rule="evenodd" d="M11.8499 58.05C11.7099 58.2 11.6399 58.37 11.6499 58.56L13.2999 111.29C13.3099 111.48 13.3799 111.6 13.5299 111.68C13.6799 111.75 13.8799 111.75 14.1199 111.68L14.1899 111.66C14.4299 111.59 14.6199 111.48 14.7599 111.32C14.9099 111.16 14.9699 111 14.9699 110.81L13.3199 58.08C13.3099 57.89 13.2399 57.76 13.0799 57.7C12.9299 57.63 12.7399 57.63 12.4999 57.7L12.4299 57.72C12.1899 57.78 11.9899 57.9 11.8499 58.05Z" fill="#383838"/>
<path fill-rule="evenodd" clip-rule="evenodd" d="M1.55 64.4699C1.09 64.9999 0.57 64.9199 0 64.2599L0.18 70.0699C0.94 70.4199 1.65 70.3199 2.33 69.7899C3 69.2599 3.57 68.7499 4.03 68.2699C4.49 67.7999 4.85 67.4799 5.13 67.3199C5.59 67.0399 6.03 66.8599 6.47 66.7699C7.3 66.6899 8.05 66.7299 8.73 66.8899C9.15 67.0099 9.58 67.0799 10.02 67.1099C10.25 67.1399 10.49 67.1199 10.74 67.0899C11.02 67.0099 11.27 66.9199 11.5 66.8199L11.34 61.5399C11.16 61.4799 10.95 61.4399 10.74 61.3899C10.35 61.3399 9.85 61.2899 9.23 61.2299C8.61 61.1799 7.88 61.2299 7.04 61.3799C6.21 61.5199 5.28 61.9099 4.27 62.5499C3.25 63.1899 2.67 63.5299 2.5 63.5999C2.33 63.6599 2.01 63.9499 1.55 64.4699Z" fill="url(#paint3_linear)"/>
<path fill-rule="evenodd" clip-rule="evenodd" d="M23.9601 114.38L19.8101 113.7L19.9601 118.71L24.1101 119.28L23.9601 114.38Z" fill="#8A8881"/>
<path fill-rule="evenodd" clip-rule="evenodd" d="M27.9998 111.56V111.46L23.8398 110.67L20.0898 113.62L24.2398 114.3L27.9998 111.56Z" fill="#F5F1E1"/>
<path fill-rule="evenodd" clip-rule="evenodd" d="M24.2402 114.3L24.4002 119.2L28.1602 116.69L28.0002 111.56L24.2402 114.3Z" fill="#DBD8CD"/>
<path fill-rule="evenodd" clip-rule="evenodd" d="M21.8301 58.3699C21.6901 58.5199 21.6201 58.6899 21.6201 58.8799L23.2701 111.6C23.2801 111.79 23.3601 111.92 23.5001 111.99C23.6501 112.06 23.8401 112.06 24.0901 111.99L24.1601 111.97C24.4001 111.9 24.5901 111.79 24.7301 111.64C24.8701 111.49 24.9401 111.31 24.9401 111.12L23.3001 58.3999C23.2901 58.2099 23.2101 58.0899 23.0601 58.0199C22.9101 57.9399 22.7201 57.9499 22.4801 58.0199L22.4101 58.0399C22.1601 58.0999 21.9701 58.2099 21.8301 58.3699Z" fill="#383838"/>
<path fill-rule="evenodd" clip-rule="evenodd" d="M11.6799 65.08C11.2199 65.6 10.6999 65.53 10.1299 64.87L10.3099 70.68C11.0599 71.02 11.7799 70.93 12.4599 70.4C13.1299 69.86 13.6999 69.36 14.1599 68.88C14.6199 68.4 14.9799 68.08 15.2599 67.92C15.7199 67.65 16.1599 67.47 16.5999 67.37C17.4299 67.29 18.1899 67.33 18.8599 67.5C19.2799 67.61 19.7099 67.69 20.1499 67.72C20.3799 67.74 20.6199 67.73 20.8799 67.69C21.1599 67.61 21.3999 67.52 21.6299 67.43L21.4699 62.14C21.2899 62.08 21.0899 62.03 20.8799 61.99C20.4799 61.94 19.9799 61.89 19.3599 61.84C18.7399 61.79 18.0099 61.83 17.1799 61.98C16.3399 62.13 15.4199 62.52 14.3999 63.15C13.3799 63.78 12.7999 64.13 12.6299 64.2C12.4599 64.27 12.1499 64.56 11.6799 65.08Z" fill="url(#paint4_linear)"/>
<path fill-rule="evenodd" clip-rule="evenodd" d="M29.8198 115.11L29.9798 120.12L33.9898 120.84L33.8298 115.83L29.8198 115.11Z" fill="#8A8881"/>
<path fill-rule="evenodd" clip-rule="evenodd" d="M37.88 113.13V113.02L33.72 112.24L29.96 115.07L34.25 115.71L37.88 113.13Z" fill="#F5F1E1"/>
<path fill-rule="evenodd" clip-rule="evenodd" d="M34.25 115.71L34.41 120.72L38.04 118.14L37.88 113.13L34.25 115.71Z" fill="#DBD8CD"/>
<path fill-rule="evenodd" clip-rule="evenodd" d="M32.1299 59.81C31.9899 59.96 31.9199 60.13 31.9199 60.32L33.5699 113.05C33.5799 113.24 33.6599 113.36 33.8099 113.43C33.9599 113.5 34.1499 113.5 34.3899 113.43L34.4599 113.41C34.6999 113.34 34.8999 113.23 35.0399 113.08C35.1799 112.93 35.2499 112.76 35.2399 112.57L33.5999 59.84C33.5899 59.65 33.5199 59.53 33.3699 59.45C33.2199 59.38 33.0199 59.38 32.7799 59.45L32.7099 59.47C32.4699 59.54 32.2799 59.66 32.1299 59.81Z" fill="#383838"/>
<path fill-rule="evenodd" clip-rule="evenodd" d="M21.55 66.31C21.09 66.83 20.57 66.76 20 66.1L20.18 71.91C20.94 72.26 21.65 72.16 22.33 71.63C23 71.1 23.57 70.59 24.03 70.11C24.49 69.64 24.85 69.32 25.13 69.16C25.59 68.88 26.03 68.7 26.47 68.61C27.3 68.53 28.05 68.57 28.73 68.73C29.15 68.85 29.58 68.92 30.02 68.95C30.25 68.98 30.49 68.96 30.75 68.93C31.03 68.85 31.27 68.76 31.5 68.66L31.34 63.38C31.16 63.33 30.96 63.27 30.75 63.23C30.35 63.18 29.85 63.13 29.23 63.08C28.61 63.03 27.88 63.08 27.05 63.23C26.21 63.37 25.29 63.76 24.27 64.4C23.25 65.04 22.67 65.38 22.5 65.45C22.33 65.5 22.01 65.79 21.55 66.31Z" fill="url(#paint5_linear)"/>
<path fill-rule="evenodd" clip-rule="evenodd" d="M229.67 82.27L228.1 83.45L214.09 91.21L214.94 90.66L215.65 90.14L229.67 82.27Z" fill="#F3EDE0"/>
<path fill-rule="evenodd" clip-rule="evenodd" d="M205.87 97.01L219.88 89.24L218.19 90.35L204.17 98.22L205.87 97.01Z" fill="#F3EDE0"/>
<path fill-rule="evenodd" clip-rule="evenodd" d="M208.55 97.2901L194.54 105.16L196.23 103.94L210.25 96.0701L208.55 97.2901Z" fill="#F3EDE0"/>
<path fill-rule="evenodd" clip-rule="evenodd" d="M198.77 104.26L184.75 112.14L186.32 110.95L200.33 103.09L198.77 104.26Z" fill="#F3EDE0"/>
<path fill-rule="evenodd" clip-rule="evenodd" d="M178.4 116.77L192.41 108.9L190.71 110.12L176.69 117.88L178.4 116.77Z" fill="#F3EDE0"/>
<path fill-rule="evenodd" clip-rule="evenodd" d="M162.64 131.81L168.44 127.75L168.43 128.64L162.64 131.81Z" fill="#F3EDE0"/>
<path fill-rule="evenodd" clip-rule="evenodd" d="M237.74 76.51L223.72 84.38L224.29 84.01L225.43 83.17L239.44 75.29L237.74 76.51Z" fill="#F3EDE0"/>
<path fill-rule="evenodd" clip-rule="evenodd" d="M249.1 68.5599L248.89 95.55L182.28 142.91L182.49 115.91L190.71 110.12L192.41 108.9L200.49 103.14L202.05 101.96L210.27 96.1699L211.97 94.9499L219.91 89.23L221.6 88.12L229.82 82.33L231.39 81.15L239.46 75.3899L241.16 74.1699L249.1 68.5599L235.09 76.32L227.15 82.04L226.01 82.8899L230.44 75.9L230.47 72.26L239.88 57.7999L239.91 54.0499L249.33 39.7L249.1 68.5599Z" fill="#E0D9CC"/>
<path fill-rule="evenodd" clip-rule="evenodd" d="M154.55 137.68L168.42 129.96L168.43 128.64L168.44 127.75L168.47 123.68L182.49 115.91L182.28 142.91L154.55 137.68Z" fill="#A59882"/>
<path fill-rule="evenodd" clip-rule="evenodd" d="M196.23 103.94L204.17 98.2199L218.19 90.3499L210.25 96.0699L196.23 103.94Z" fill="#0096CB"/>
<path fill-rule="evenodd" clip-rule="evenodd" d="M186.47 111.02L200.49 103.14L192.41 108.9L178.4 116.77L186.47 111.02Z" fill="#0096CB"/>
<path fill-rule="evenodd" clip-rule="evenodd" d="M237.74 76.51L229.67 82.27L215.65 90.14L223.72 84.38L237.74 76.51Z" fill="#0096CB"/>
<path fill-rule="evenodd" clip-rule="evenodd" d="M221.6 88.1201L207.59 95.8801L215.81 90.0801L229.82 82.3201L221.6 88.1201ZM196.26 104.04L210.27 96.1701L202.05 101.97L188.04 109.84L196.26 104.04ZM168.47 123.68L176.69 117.88L190.71 110.12L182.49 115.91L168.47 123.68ZM227.15 82.0401L235.09 76.3201L249.11 68.5601L241.17 74.1701L227.15 82.0401Z" fill="#ACD5E4"/>
<path fill-rule="evenodd" clip-rule="evenodd" d="M154.55 137.68L168.42 129.96L168.43 128.64L162.64 131.81L154.55 137.68Z" fill="#00C5FF"/>
<path fill-rule="evenodd" clip-rule="evenodd" d="M189.03 84.5199C189.17 84.5999 189.24 84.7299 189.24 84.9199L188.82 138.22C188.82 138.41 188.75 138.58 188.6 138.73C188.45 138.88 188.26 138.99 188.02 139.05L187.94 139.07C187.7 139.13 187.51 139.13 187.36 139.05C187.22 138.97 187.14 138.84 187.14 138.66L187.56 85.3599C187.56 85.1699 187.64 84.9999 187.78 84.8499C187.92 84.6999 188.12 84.5899 188.36 84.5299L188.44 84.5099C188.7 84.4399 188.89 84.4499 189.03 84.5199Z" fill="#383838"/>
<path fill-rule="evenodd" clip-rule="evenodd" d="M208.02 71.4899C208.16 71.5599 208.24 71.6899 208.24 71.8799L207.82 125.18C207.82 125.37 207.74 125.54 207.59 125.69C207.45 125.84 207.25 125.95 207.01 126.01L206.94 126.03C206.7 126.09 206.51 126.09 206.36 126.01C206.22 125.93 206.15 125.8 206.15 125.61L206.57 72.3099C206.57 72.1199 206.64 71.9499 206.79 71.7999C206.94 71.6499 207.13 71.5399 207.37 71.4699L207.44 71.4499C207.68 71.4099 207.88 71.4199 208.02 71.4899Z" fill="#383838"/>
<path fill-rule="evenodd" clip-rule="evenodd" d="M223.48 60.05C223.62 60.13 223.69 60.26 223.69 60.45L223.27 113.75C223.27 113.94 223.2 114.11 223.05 114.26C222.9 114.41 222.7 114.52 222.46 114.59L222.39 114.61C222.15 114.67 221.96 114.67 221.81 114.59C221.66 114.52 221.59 114.38 221.59 114.2L222.01 60.9C222.01 60.71 222.08 60.54 222.24 60.39C222.38 60.24 222.58 60.13 222.82 60.07L222.89 60.05C223.13 59.97 223.33 59.98 223.48 60.05Z" fill="#383838"/>
<path fill-rule="evenodd" clip-rule="evenodd" d="M240.62 48.6099C240.76 48.6799 240.83 48.8199 240.83 49.0099L240.41 102.3C240.41 102.49 240.34 102.66 240.19 102.81C240.05 102.96 239.84 103.07 239.6 103.13L239.53 103.15C239.29 103.21 239.1 103.21 238.95 103.14C238.8 103.07 238.73 102.93 238.73 102.74L239.15 49.4499C239.15 49.2599 239.22 49.0899 239.37 48.9399C239.52 48.7799 239.71 48.6799 239.95 48.6099L240.02 48.5899C240.27 48.5299 240.47 48.5299 240.62 48.6099Z" fill="#383838"/>
<path fill-rule="evenodd" clip-rule="evenodd" d="M54.6201 112.5L68.8901 114.99L70.6701 115.36L62.6701 114.53L69.1001 116.05L76.9501 116.91L78.5901 117.31L70.8801 116.41L77.1601 117.96L85.0201 118.82L86.8001 119.19L78.8001 118.36L85.2301 119.88L93.2201 120.71L94.8601 121.11L87.0101 120.25L93.4301 121.76L101.29 122.63L102.91 123.13L94.9301 122.19L109.34 124.65L110.99 124.94L103.13 124.08L109.55 125.6L117.41 126.46L119.05 126.86L111.19 125.99L117.48 127.54L125.47 128.48L127.1 128.88L119.26 127.91L133.53 130.4L135.31 130.77L127.31 129.94L133.73 131.45L141.8 133.37L149.66 134.23L151.44 134.6L143.57 133.74L149.59 135.24L142.62 139.79L47.6401 117.17L54.6201 112.5Z" fill="#F3EDE0"/>
<path fill-rule="evenodd" clip-rule="evenodd" d="M142.18 146.17L142.62 139.79L149.59 135.24L157.58 136.07L142.18 146.17Z" fill="#E0D9CC"/>
<path fill-rule="evenodd" clip-rule="evenodd" d="M142.18 146.17L47.21 123.54L47.64 117.17L142.62 139.79L142.18 146.17Z" fill="#A59882"/>
<path fill-rule="evenodd" clip-rule="evenodd" d="M157.58 136.07L149.59 135.24L143.57 133.74L151.44 134.6L157.58 136.07Z" fill="#FFD500"/>
<path fill-rule="evenodd" clip-rule="evenodd" d="M127.31 129.94L135.31 130.77L141.73 132.29L133.73 131.45L127.31 129.94Z" fill="#FFD500"/>
<path fill-rule="evenodd" clip-rule="evenodd" d="M125.47 128.48L117.48 127.54L111.19 125.99L119.05 126.86L125.47 128.48Z" fill="#FFD500"/>
<path fill-rule="evenodd" clip-rule="evenodd" d="M85.2298 119.88L78.7998 118.36L86.7998 119.19L93.2198 120.71L85.2298 119.88Z" fill="#FFD500"/>
<path fill-rule="evenodd" clip-rule="evenodd" d="M109.34 124.65L94.9302 122.19L102.91 123.13L109.34 124.65Z" fill="#FFD500"/>
<path fill-rule="evenodd" clip-rule="evenodd" d="M76.9499 116.91L69.0999 116.05L62.6699 114.53L70.6699 115.36L76.9499 116.91Z" fill="#FFD500"/>
<path fill-rule="evenodd" clip-rule="evenodd" d="M59.9901 112.7L66.4201 114.22L52.1401 111.73L59.9901 112.7Z" fill="#C73A13"/>
<path fill-rule="evenodd" clip-rule="evenodd" d="M117.41 126.46L109.55 125.6L103.13 124.08L110.99 124.94L117.41 126.46Z" fill="#C73A13"/>
<path fill-rule="evenodd" clip-rule="evenodd" d="M101.29 122.63L93.4298 121.76L87.0098 120.25L94.8598 121.11L101.29 122.63Z" fill="#C73A13"/>
<path fill-rule="evenodd" clip-rule="evenodd" d="M85.0199 118.82L77.1599 117.96L70.8799 116.41L78.5899 117.31L85.0199 118.82Z" fill="#C73A13"/>
<path fill-rule="evenodd" clip-rule="evenodd" d="M149.66 134.23L141.8 133.37L133.73 131.45L141.73 132.29L149.66 134.23Z" fill="#C93900"/>
<path fill-rule="evenodd" clip-rule="evenodd" d="M133.53 130.4L119.26 127.91L127.1 128.88L133.53 130.4Z" fill="#C93900"/>
</g>

<defs>
<linearGradient id="paint0_linear" x1="98.249" y1="6.81658" x2="60.7421" y2="7.72959" gradientUnits="userSpaceOnUse">
<stop stop-color="#770000"/>
<stop offset="0.1843" stop-color="#FF0000"/>
<stop offset="0.2627" stop-color="#FFA1A1"/>
<stop offset="0.3725" stop-color="#FF0000"/>
<stop offset="0.4471" stop-color="#9D0000"/>
<stop offset="0.5216" stop-color="#FF0000"/>
<stop offset="0.6039" stop-color="#FF8585"/>
<stop offset="0.698" stop-color="#FF0000"/>
<stop offset="0.9529" stop-color="#B20000"/>
</linearGradient>
<linearGradient id="paint1_linear" x1="108.233" y1="7.35772" x2="70.7537" y2="8.27007" gradientUnits="userSpaceOnUse">
<stop stop-color="#770000"/>
<stop offset="0.1843" stop-color="#FF0000"/>
<stop offset="0.2627" stop-color="#FFA1A1"/>
<stop offset="0.3725" stop-color="#FF0000"/>
<stop offset="0.4471" stop-color="#9D0000"/>
<stop offset="0.5216" stop-color="#FF0000"/>
<stop offset="0.6039" stop-color="#FF8585"/>
<stop offset="0.698" stop-color="#FF0000"/>
<stop offset="0.9529" stop-color="#B20000"/>
</linearGradient>
<linearGradient id="paint2_linear" x1="118.386" y1="8.62034" x2="80.9019" y2="9.5328" gradientUnits="userSpaceOnUse">
<stop stop-color="#770000"/>
<stop offset="0.1843" stop-color="#FF0000"/>
<stop offset="0.2627" stop-color="#FFA1A1"/>
<stop offset="0.3725" stop-color="#FF0000"/>
<stop offset="0.4471" stop-color="#9D0000"/>
<stop offset="0.5216" stop-color="#FF0000"/>
<stop offset="0.6039" stop-color="#FF8585"/>
<stop offset="0.698" stop-color="#FF0000"/>
<stop offset="0.9529" stop-color="#B20000"/>
</linearGradient>
<linearGradient id="paint3_linear" x1="9.73233" y1="64.4671" x2="-27.7517" y2="65.3796" gradientUnits="userSpaceOnUse">
<stop stop-color="#770000"/>
<stop offset="0.1843" stop-color="#FF0000"/>
<stop offset="0.2627" stop-color="#FFA1A1"/>
<stop offset="0.3725" stop-color="#FF0000"/>
<stop offset="0.4471" stop-color="#9D0000"/>
<stop offset="0.5216" stop-color="#FF0000"/>
<stop offset="0.6039" stop-color="#FF8585"/>
<stop offset="0.698" stop-color="#FF0000"/>
<stop offset="0.9529" stop-color="#B20000"/>
</linearGradient>
<linearGradient id="paint4_linear" x1="19.8638" y1="65.0767" x2="-17.6158" y2="65.9891" gradientUnits="userSpaceOnUse">
<stop stop-color="#770000"/>
<stop offset="0.1843" stop-color="#FF0000"/>
<stop offset="0.2627" stop-color="#FFA1A1"/>
<stop offset="0.3725" stop-color="#FF0000"/>
<stop offset="0.4471" stop-color="#9D0000"/>
<stop offset="0.5216" stop-color="#FF0000"/>
<stop offset="0.6039" stop-color="#FF8585"/>
<stop offset="0.698" stop-color="#FF0000"/>
<stop offset="0.9529" stop-color="#B20000"/>
</linearGradient>
<linearGradient id="paint5_linear" x1="29.7309" y1="66.3107" x2="-7.75295" y2="67.2232" gradientUnits="userSpaceOnUse">
<stop stop-color="#770000"/>
<stop offset="0.1843" stop-color="#FF0000"/>
<stop offset="0.2627" stop-color="#FFA1A1"/>
<stop offset="0.3725" stop-color="#FF0000"/>
<stop offset="0.4471" stop-color="#9D0000"/>
<stop offset="0.5216" stop-color="#FF0000"/>
<stop offset="0.6039" stop-color="#FF8585"/>
<stop offset="0.698" stop-color="#FF0000"/>
<stop offset="0.9529" stop-color="#B20000"/>
</linearGradient>
<clipPath id="clip0">
<path d="M0 0H270.83V150.85H0V0Z" fill="white"/>
</clipPath>
</defs>
</svg>
