<svg width="238" height="482" viewBox="0 0 238 482" fill="none" xmlns="http://www.w3.org/2000/svg">
<ellipse cx="139.744" cy="456.003" rx="97.4196" ry="25.9968" fill="black" fill-opacity="0.1"/>
<path d="M138.442 273.636C125.972 273.636 94.0188 273.636 94.0188 308.707V446.653H117.968L139.97 337.933L161.971 446.653H182.873V307.148C182.866 272.077 150.912 273.636 138.442 273.636Z" fill="white" stroke="white" stroke-width="2.8346" stroke-miterlimit="10"/>
<path d="M207.579 62.4617C209.987 71.0347 212.395 79.6076 214.804 88.1805C216.448 94.0491 218.1 99.941 218.864 105.989C219.979 114.858 219.137 123.844 218.038 132.713C216.729 143.25 204.734 150.56 205.81 161.128C207.034 173.107 201.375 197.914 193.005 196.488C184.635 195.062 194.462 253.17 185.991 252.602C178.501 252.103 169.235 256.023 161.831 257.278C134.826 261.868 120.735 252.765 94.0267 258.836C76.8809 262.733 55.0277 224.646 46.486 222.207C30.1195 217.53 50.8581 157.2 50.3827 155.961C47.7251 149.009 45.5117 146.141 47.5459 138.979C49.6501 131.583 51.7466 124.187 53.8508 116.791C55.6823 110.345 57.5216 103.885 60.2494 97.7666C62.9693 91.6642 63.9202 72.3829 66.7492 66.3351C73.288 52.3379 78.65 49.6569 89.1635 38.325C96.0842 30.8588 105.631 26.4398 115.116 22.7223C121.265 20.3141 127.547 18.1163 134.078 17.1031C149.049 14.7962 164.605 19.0204 177.433 27.0867C190.262 35.153 200.518 46.8356 208.553 59.6794" fill="white"/>
<path d="M204.384 63.3423C206.878 72.2192 209.372 81.0883 211.858 89.9652C213.081 94.3296 214.281 98.7018 215.092 103.167C215.879 107.501 216.129 111.896 216.058 116.292C215.988 120.843 215.575 125.379 215.061 129.899C214.85 131.739 214.741 133.064 214.149 134.895C214.055 135.191 213.946 135.487 213.837 135.784C213.767 135.978 213.689 136.173 213.603 136.368C213.658 136.236 213.845 135.862 213.564 136.446C213.237 137.116 212.918 137.779 212.559 138.433C209.488 143.982 204.906 148.744 203.121 154.956C202.279 157.871 202.568 160.622 202.646 163.583C202.716 166.233 202.537 168.898 202.233 171.533C202.194 171.876 202.147 172.219 202.108 172.561C202.194 171.922 202.069 172.811 202.038 173.013C201.929 173.762 201.804 174.502 201.664 175.25C201.399 176.684 201.095 178.118 200.752 179.537C200.417 180.916 200.035 182.288 199.598 183.636C199.396 184.26 199.185 184.883 198.959 185.507C198.85 185.811 198.733 186.107 198.624 186.403C198.546 186.598 198.196 187.447 198.336 187.12C198.484 186.769 198.157 187.525 198.086 187.673C197.962 187.938 197.837 188.203 197.705 188.468C197.44 189.006 197.159 189.536 196.855 190.05C196.59 190.502 196.302 190.931 196.013 191.36C195.951 191.445 195.881 191.531 195.826 191.617C195.608 191.983 196.255 191.126 195.967 191.437C195.787 191.632 195.631 191.843 195.452 192.038C195.164 192.349 194.798 192.614 194.525 192.926C194.478 192.973 195.14 192.536 194.579 192.864C194.392 192.973 194.197 193.074 194.018 193.191C193.597 193.472 194.79 192.996 194.166 193.129C194.003 193.16 193.808 193.207 193.652 193.269C193.192 193.448 194.494 193.292 193.862 193.23C193.667 193.207 192.997 193.292 193.621 193.253C194.408 193.199 193.044 193.16 192.888 193.152C192.81 193.144 192.732 193.144 192.662 193.144C192.241 193.152 191.789 193.214 191.384 193.331C190.558 193.581 189.856 194.025 189.241 194.617C188.251 195.56 187.674 196.932 187.285 198.202C186.342 201.257 186.232 204.648 186.123 207.827C185.983 212.044 186.069 216.268 186.162 220.484C186.349 228.722 186.918 237.092 186.069 245.307C186.038 245.618 185.882 246.109 185.936 246.413C185.874 246.109 186.061 245.564 185.96 246.203C185.928 246.39 185.897 246.585 185.866 246.772C185.757 247.395 185.632 248.011 185.461 248.619C185.391 248.876 185.297 249.118 185.219 249.375C184.978 250.131 185.648 248.619 185.219 249.367C185.126 249.539 184.985 249.726 184.908 249.905C184.713 250.349 185.484 249.211 185.211 249.523C185.149 249.601 185.079 249.671 185.009 249.741C184.611 250.1 185.905 249.188 185.235 249.546C184.915 249.718 186.209 249.196 185.757 249.328C185.578 249.375 185.196 249.429 185.913 249.328C186.809 249.203 185.336 249.242 185.118 249.242C184.19 249.219 183.255 249.266 182.328 249.352C178.283 249.718 174.347 250.708 170.443 251.768C166.71 252.781 163 253.794 159.165 254.371C155.323 254.947 151.426 255.228 147.545 255.298C140.547 255.423 133.595 254.706 126.635 254.074C119.597 253.443 112.544 253.061 105.491 253.7C101.267 254.082 97.1363 254.846 92.9902 255.68C92.8655 255.703 92.733 255.719 92.6083 255.75C92.1952 255.851 92.6784 255.859 92.92 255.719C92.7953 255.789 92.4914 255.766 92.3433 255.773C91.8289 255.812 91.3145 255.812 90.8002 255.781C90.6053 255.773 90.4105 255.742 90.2156 255.734C89.7324 255.711 90.9872 255.883 90.1221 255.719C89.6623 255.625 89.1947 255.532 88.7426 255.407C88.275 255.282 87.8074 255.134 87.3554 254.971C87.0904 254.877 86.8254 254.76 86.5605 254.667C87.2619 254.908 86.6773 254.714 86.35 254.565C85.3446 254.098 84.3782 253.568 83.4352 252.991C82.4299 252.375 81.4557 251.705 80.5048 251.004C80.4035 250.926 79.6943 250.388 80.0294 250.653C80.3646 250.91 79.6398 250.341 79.5618 250.279C79.0553 249.874 78.5487 249.453 78.0499 249.024C73.9972 245.556 70.3264 241.644 66.7726 237.677C63.4603 233.99 60.2727 230.187 56.9059 226.548C54.599 224.054 52.0349 221.123 48.9253 219.635C48.4732 219.416 48.0134 219.229 47.538 219.066C47.4133 219.019 47.2808 218.988 47.1484 218.949C46.5093 218.754 47.125 218.824 47.351 219.058C47.1951 218.886 46.7898 218.785 46.5872 218.66C46.4625 218.582 46.3534 218.497 46.2287 218.427C45.7143 218.123 46.8288 218.996 46.4158 218.567C46.2131 218.356 45.9949 218.169 45.7923 217.959C45.7299 217.889 45.5897 217.655 45.5039 217.624C45.8079 217.741 45.9715 218.302 45.6364 217.772C45.4649 217.507 45.3013 217.25 45.1454 216.969C45.0363 216.767 44.5843 215.753 44.8259 216.354C45.0519 216.93 44.67 215.925 44.5998 215.714C44.4751 215.348 44.366 214.974 44.2647 214.592C44.0621 213.805 43.9218 213.01 43.7815 212.215C43.649 211.444 43.8517 212.878 43.7893 212.301C43.766 212.09 43.7425 211.88 43.7192 211.67C43.6724 211.202 43.6335 210.734 43.6023 210.267C43.5399 209.308 43.5166 208.35 43.5166 207.399C43.5166 205.271 43.6413 203.143 43.8361 201.024C43.9374 199.948 44.0543 198.88 44.1868 197.813C44.2258 197.501 44.2647 197.189 44.3037 196.877C44.2335 197.439 44.2569 197.205 44.3115 196.815C44.405 196.184 44.4907 195.552 44.592 194.921C45.3091 190.284 46.2521 185.694 47.3042 181.119C48.9487 173.995 50.936 166.973 52.8766 159.928C53.0948 159.133 53.3287 158.346 53.5001 157.543C53.8976 155.673 53.352 154.449 52.6272 152.672C51.9648 151.051 51.2556 149.446 50.7256 147.778C50.1489 145.962 50.0398 145.471 50.0865 143.702C50.1333 141.894 50.6554 140.242 51.2166 138.27C51.8479 136.033 52.4869 133.804 53.1182 131.567C55.5966 122.862 57.8178 114.024 60.7949 105.467C61.8704 102.38 63.4135 99.4266 64.2786 96.2858C64.9722 93.7918 65.3931 91.2199 65.8062 88.6636C66.7258 82.9276 67.3259 77.1136 68.643 71.4476C68.8924 70.3643 69.173 69.281 69.5549 68.2367C69.6016 68.112 69.6562 67.8003 69.7575 67.7145C69.6796 67.7769 69.4068 68.4082 69.6328 68.0341C69.7731 67.8003 69.8744 67.5119 69.9913 67.2781C70.42 66.3818 70.8564 65.5011 71.3162 64.6205C72.1034 63.1241 72.9373 61.6511 73.8413 60.2249C74.2388 59.6014 74.6441 58.9857 75.0649 58.3856C75.2364 58.1362 75.4156 57.8868 75.5949 57.6374C75.7118 57.4738 75.8287 57.3179 75.9456 57.1542C75.9924 57.0919 76.4678 56.4606 76.2184 56.7801C76.0001 57.0685 76.2963 56.6788 76.3197 56.6554C76.4366 56.5074 76.5613 56.3515 76.6782 56.2034C76.8886 55.9384 77.0991 55.6813 77.3173 55.4241C77.7771 54.8785 78.2447 54.3408 78.7201 53.8108C79.6554 52.7743 80.6218 51.7689 81.6038 50.7713C83.8405 48.5034 86.124 46.2978 88.3452 44.0221C90.9794 41.3177 93.5513 38.3951 96.4973 36.135C99.4354 33.8826 102.857 31.9031 106.231 30.2119C113.402 26.6268 121.141 23.5951 129.012 21.5688C136.642 19.6048 144.724 19.3009 152.416 20.7349C168.05 23.6575 181.556 32.3629 192.304 43.8194C197.401 49.2516 201.718 55.0578 205.685 61.3861C206.636 62.8981 208.639 63.4982 210.221 62.5786C211.733 61.6979 212.364 59.5702 211.413 58.0427C202.825 44.365 191.805 31.8797 177.862 23.4938C163.218 14.6871 145.581 10.8838 128.786 14.804C120.455 16.7446 112.24 20.0335 104.532 23.6964C100.963 25.3876 97.4871 27.3049 94.2683 29.604C90.8781 32.02 88.0023 34.8101 85.142 37.8106C80.8166 42.3464 76.0469 46.5238 72.0878 51.4026C70.0225 53.9511 68.1598 56.6477 66.5466 59.5079C65.0346 62.1967 63.5226 64.9946 62.6809 67.9717C61.1066 73.5285 60.5611 79.3893 59.6882 85.0864C59.2674 87.8297 58.8387 90.5887 58.1918 93.293C57.9502 94.3062 57.6619 95.296 57.319 96.278C56.9838 97.2288 57.732 95.3583 57.2021 96.5507C56.9605 97.0885 56.7345 97.634 56.5084 98.1796C56.0408 99.3019 55.5888 100.432 55.1601 101.57C51.9492 110.166 49.7436 119.152 47.2419 127.967C45.9404 132.534 44.2102 137.179 43.6023 141.902C43.1425 145.471 43.9452 148.83 45.2701 152.127C45.6053 152.968 45.9559 153.795 46.2988 154.636C46.4859 155.096 46.673 155.564 46.86 156.031C47.2341 156.99 47.0782 157.138 47.0782 156.039C47.0782 156.483 47.3354 154.847 47.1172 155.696C46.9224 156.476 46.7275 157.255 46.5171 158.026C45.6988 161.019 44.8415 164.004 44.0309 166.997C41.6539 175.78 39.4795 184.649 38.1156 193.659C37.4142 198.28 36.8531 202.949 36.8764 207.625C36.892 211.241 37.1648 215.091 38.552 218.473C39.9003 221.77 42.1995 224.513 45.7533 225.488C46.3223 225.643 45.5273 225.456 45.4026 225.324C45.4805 225.41 45.7065 225.464 45.8156 225.519C46.0884 225.675 46.3612 225.831 46.6262 226.002C46.8055 226.119 47.6316 226.774 47.1562 226.36C46.673 225.94 47.1951 226.392 47.3042 226.485C47.4679 226.625 47.6394 226.766 47.803 226.906C49.2838 228.184 50.6399 229.595 51.9726 231.029C59.0803 238.674 65.471 247.037 73.4439 253.833C77.2939 257.122 81.557 260.216 86.4669 261.697C88.5244 262.32 90.7534 262.624 92.8966 262.39C94.7749 262.188 96.6064 261.689 98.4613 261.346C100.425 260.98 102.163 260.715 104.065 260.512C118.491 258.969 132.722 262.164 147.132 261.977C151.372 261.923 155.588 261.556 159.789 260.972C163.732 260.426 167.551 259.468 171.386 258.423C173.365 257.885 175.345 257.348 177.34 256.896C178.252 256.685 179.171 256.498 180.099 256.335C181.135 256.155 181.58 256.085 182.679 255.999C184.767 255.836 186.942 256.335 188.812 255.166C191.298 253.607 192.007 250.279 192.389 247.582C192.95 243.647 193.036 239.672 193.036 235.697C193.036 226.851 192.483 218.006 192.686 209.16C192.724 207.336 192.802 205.513 192.974 203.697C193.005 203.33 193.052 202.964 193.091 202.59C193.169 201.896 193.028 202.972 193.06 202.801C193.091 202.613 193.114 202.419 193.145 202.232C193.247 201.6 193.371 200.969 193.543 200.346C193.613 200.096 193.691 199.855 193.777 199.605C194.049 198.748 193.395 200.26 193.761 199.629C193.862 199.465 193.979 199.286 194.057 199.114C194.213 198.787 193.379 199.808 193.971 199.278C193.956 199.286 193.114 199.823 193.73 199.504C193.706 199.519 192.732 199.878 193.2 199.745C193.613 199.629 192.124 199.847 192.662 199.816C192.724 199.816 192.795 199.823 192.857 199.823C191.142 199.73 192.904 199.855 193.301 199.886C193.925 199.932 194.548 199.847 195.164 199.738C200.066 198.888 202.825 193.425 204.547 189.325C206.854 183.823 208.07 177.923 208.803 172.024C209.138 169.327 209.333 166.599 209.278 163.887C209.255 162.617 209.075 161.346 209.052 160.076C209.044 159.718 209.052 159.359 209.075 159.001C209.083 158.853 209.099 158.697 209.114 158.549C209.146 158.019 209.021 159.047 209.114 158.533C209.247 157.793 209.411 157.06 209.644 156.343C209.753 156.008 209.87 155.673 209.995 155.345C210.026 155.268 210.268 154.683 210.112 155.042C209.972 155.369 210.174 154.909 210.19 154.878C210.556 154.137 210.915 153.397 211.328 152.68C212.091 151.34 212.941 150.046 213.798 148.775C215.606 146.102 217.516 143.476 218.95 140.577C219.698 139.057 220.376 137.467 220.805 135.823C221.35 133.765 221.498 131.606 221.74 129.502C222.262 124.904 222.66 120.282 222.699 115.653C222.776 106.168 220.735 97.1197 218.194 88.0402C215.723 79.2412 213.253 70.4423 210.782 61.6433C210.299 59.921 208.436 58.8532 206.706 59.3286C204.976 59.7417 203.9 61.6122 204.384 63.3423Z" fill="white"/>
<path d="M118.179 152.056C109.606 155.174 95.7881 165.843 91.9771 169.919C84.3394 178.095 78.4085 187.681 72.5321 197.197C72.1814 197.773 71.8073 198.413 71.932 199.075C72.0255 199.582 72.384 199.987 72.7347 200.369C81.0193 209.44 89.6857 218.785 101.049 223.446L118.179 152.056Z" fill="white"/>
<path d="M117.298 148.861C111.399 151.035 106.021 154.582 100.955 158.245C96.4816 161.479 92.0159 164.877 88.3218 169.007C82.6013 175.414 77.7771 182.56 73.21 189.816C72.1111 191.562 71.0278 193.316 69.9445 195.069C69.2509 196.184 68.5962 197.392 68.5884 198.748C68.5806 200.33 69.3756 201.577 70.3809 202.715C72.9606 205.637 75.6572 208.474 78.4161 211.233C84.7757 217.585 91.8055 223.181 100.16 226.649C101.781 227.319 103.862 225.908 104.236 224.334C104.805 221.965 105.374 219.603 105.943 217.234C107.307 211.553 108.671 205.863 110.035 200.182C111.687 193.308 113.339 186.426 114.984 179.552C116.41 173.606 117.836 167.667 119.262 161.72C119.956 158.837 120.712 155.969 121.335 153.07C121.343 153.023 121.359 152.984 121.366 152.937C121.772 151.254 120.837 149.266 119.052 148.861C117.345 148.471 115.404 149.375 114.976 151.176C114.407 153.545 113.838 155.906 113.269 158.276C111.905 163.957 110.541 169.646 109.177 175.328C107.525 182.202 105.873 189.084 104.228 195.958C102.802 201.904 101.376 207.843 99.9498 213.789C99.2639 216.657 98.4067 219.541 97.8767 222.44C97.8689 222.487 97.8533 222.526 97.8455 222.573C99.2016 221.801 100.565 221.03 101.922 220.258C102.405 220.461 101.898 220.25 101.82 220.211C101.625 220.125 101.431 220.04 101.236 219.946C100.846 219.767 100.456 219.588 100.074 219.393C99.2093 218.972 98.3599 218.52 97.526 218.045C95.9517 217.148 94.4241 216.159 92.9433 215.106C92.5926 214.857 92.2497 214.608 91.9068 214.35C91.7353 214.226 91.5639 214.093 91.3924 213.961C91.3301 213.914 90.9014 213.579 91.2989 213.891C90.5819 213.329 89.8727 212.753 89.1712 212.16C87.7684 210.976 86.4045 209.737 85.0796 208.474C82.4454 205.965 79.9436 203.323 77.4731 200.649C76.8886 200.01 76.304 199.379 75.7195 198.74C75.5792 198.592 75.0259 197.797 74.8544 197.789C75.213 197.797 75.0337 199.106 75.135 199.293C75.0103 199.504 75.0103 199.504 75.1195 199.301C75.1974 199.153 75.2831 199.005 75.3766 198.857C76.4054 197.134 77.4809 195.443 78.5486 193.752C80.6139 190.455 82.7182 187.182 84.9471 183.987C87.3164 180.589 89.2881 177.962 91.9535 174.876C93.5746 172.998 95.258 171.229 97.1285 169.6C98.0793 168.774 99.0457 167.971 100.028 167.184C100.285 166.981 100.534 166.778 100.791 166.576C100.924 166.475 101.056 166.373 101.181 166.272C101.267 166.21 101.695 165.874 101.345 166.147C100.994 166.42 101.431 166.085 101.516 166.015C101.657 165.913 101.789 165.804 101.929 165.703C102.241 165.461 102.561 165.228 102.88 164.994C105.655 162.928 108.507 160.964 111.461 159.164C112.856 158.315 114.274 157.496 115.732 156.748C116.363 156.421 117.002 156.109 117.649 155.813C117.789 155.751 117.922 155.688 118.062 155.626C118.771 155.299 117.368 155.899 118.078 155.618C118.397 155.486 118.724 155.361 119.052 155.244C120.673 154.644 121.951 152.968 121.366 151.168C120.86 149.586 119.044 148.222 117.298 148.861Z" fill="white"/>
<path d="M163.382 152.056C166.499 153.615 181.431 164.285 185.235 168.361C192.872 176.536 198.803 186.122 204.68 195.638C205.038 196.215 205.405 196.854 205.28 197.516C205.186 198.023 204.828 198.428 204.477 198.81C196.193 207.882 187.526 217.226 176.163 221.887L163.382 152.056Z" fill="white"/>
<path d="M161.714 154.917C163.125 155.634 164.442 156.561 165.751 157.442C167.863 158.868 169.936 160.341 171.994 161.845C173.092 162.648 174.191 163.466 175.282 164.292C175.532 164.487 175.789 164.674 176.038 164.869C176.077 164.9 176.693 165.368 176.264 165.04C175.89 164.752 176.296 165.064 176.389 165.134C176.919 165.547 177.457 165.968 177.979 166.389C179.585 167.675 181.206 168.976 182.64 170.441C183.879 171.704 185.032 173.052 186.162 174.408C186.762 175.125 187.362 175.858 187.947 176.598C188.095 176.785 188.235 176.965 188.383 177.152C189.093 178.048 188.22 176.933 188.617 177.456C188.937 177.877 189.256 178.297 189.576 178.726C192.007 181.984 194.275 185.358 196.473 188.78C197.588 190.518 198.687 192.263 199.778 194.017C200.276 194.82 200.775 195.622 201.266 196.425C201.508 196.823 201.765 197.212 201.999 197.618C202.49 198.475 202.085 197.758 202.069 197.758C201.874 197.173 201.944 196.698 202.279 196.339C202.42 196.176 202.373 196.223 202.147 196.488C199.614 199.246 197.097 202.005 194.455 204.663C192.966 206.159 191.439 207.625 189.872 209.035C189.147 209.682 188.415 210.321 187.674 210.937C187.261 211.28 186.848 211.623 186.427 211.958C186.256 212.09 186.092 212.223 185.921 212.355C186.381 211.989 185.578 212.612 185.57 212.62C183.949 213.844 182.266 214.982 180.528 216.018C179.608 216.564 178.673 217.078 177.722 217.561C177.246 217.803 176.763 218.037 176.28 218.263C176.085 218.356 175.89 218.442 175.696 218.528C175.586 218.575 174.745 218.933 175.298 218.699C176.654 219.471 178.018 220.242 179.374 221.014C178.945 218.691 178.525 216.369 178.096 214.039C177.083 208.49 176.062 202.941 175.049 197.399C173.817 190.689 172.594 183.979 171.362 177.276C170.295 171.447 169.227 165.617 168.159 159.788C167.645 156.974 167.263 154.091 166.608 151.308C166.6 151.269 166.593 151.222 166.585 151.184C166.273 149.477 164.107 148.354 162.509 148.869C160.677 149.461 159.859 151.113 160.194 152.945C160.623 155.267 161.044 157.59 161.472 159.92C162.485 165.469 163.506 171.018 164.52 176.559C165.751 183.27 166.975 189.98 168.206 196.682C169.274 202.512 170.341 208.342 171.409 214.171C171.923 216.985 172.305 219.868 172.96 222.651C172.968 222.69 172.976 222.736 172.983 222.775C173.28 224.389 175.508 225.737 177.059 225.09C184.643 221.941 191.158 217.047 197.058 211.381C199.918 208.638 202.63 205.746 205.303 202.824C207.088 200.883 209.223 198.904 208.467 195.973C208.179 194.851 207.509 193.877 206.901 192.903C206.309 191.952 205.724 191.001 205.132 190.05C200.565 182.716 195.803 175.476 190.176 168.898C188.454 166.895 186.684 165.025 184.666 163.326C182.429 161.44 180.107 159.655 177.769 157.902C175.275 156.031 172.742 154.2 170.17 152.43C168.518 151.3 166.858 150.085 165.065 149.181C163.522 148.401 161.402 148.721 160.529 150.373C159.726 151.893 160.062 154.083 161.714 154.917Z" fill="white"/>
<path d="M96.3569 295.458C96.3569 295.458 119.395 300.875 139.44 300.898C159.485 300.914 180.528 293.899 180.528 293.899L178.969 219.081C178.969 210.196 171.768 152.056 162.875 152.056H118.179C107.268 163.747 99.4744 212.535 99.4744 221.419L96.3569 295.458Z" fill="white" stroke="white" stroke-width="2.8346" stroke-miterlimit="10"/>
<path d="M154.224 136.469C154.224 136.469 152.174 152.368 154.224 153.389C156.274 154.418 159.352 154.924 159.352 154.924C159.352 154.924 154.816 163.973 140.375 164.666C126.744 165.321 118.833 159.024 118.833 154.41C118.833 154.41 123.019 154.566 124.99 153.381C127.555 151.846 125.505 136.461 125.505 136.461H154.224V136.469Z" fill="white" stroke="white" stroke-width="2.8346" stroke-miterlimit="10"/>
<path d="M157.739 449.225C157.739 449.225 166.148 433.81 175.142 434.192C184.136 434.566 192.545 447.347 192.834 449.225C193.122 451.104 193.122 453.738 191.961 454.86C190.799 455.99 160.342 456.364 159.181 455.234C158.02 454.104 156.578 454.112 157.739 449.225Z" fill="white" stroke="white" stroke-width="2.8346" stroke-miterlimit="10"/>
<path d="M88.3763 449.225C88.3763 449.225 96.7855 433.81 105.779 434.192C114.773 434.566 123.182 447.347 123.471 449.225C123.759 451.104 123.759 453.738 122.598 454.86C121.437 455.99 90.9793 456.364 89.8181 455.234C88.6569 454.104 87.2151 454.112 88.3763 449.225Z" fill="white" stroke="white" stroke-width="2.8346" stroke-miterlimit="10"/>
<path d="M46.1742 175.367C46.1742 175.367 38.8326 156.46 39.0041 154.8C39.1678 153.14 40.7421 146.048 42.5892 143.593C44.4362 141.138 50.0086 135.807 50.9438 135.253C51.8791 134.7 52.6039 133.547 51.5751 132.549C50.5464 131.552 47.2808 129.315 43.423 132.471C39.5652 135.628 37.3051 137.545 37.3051 137.545C37.3051 137.545 35.0216 133.609 34.6709 132.604C34.3202 131.598 31.9509 122.277 31.3118 119.791C30.665 117.313 28.8958 111.616 28.6854 111.008C28.475 110.4 27.1111 109.083 25.833 109.636C24.5626 110.197 23.4169 111.436 23.7131 112.605C24.0093 113.774 26.5578 126.19 26.8383 126.992C27.1189 127.795 27.6567 130.624 27.6177 130.819C27.5787 131.022 26.9786 131.902 26.4331 130.967C25.8797 130.032 18.3433 111.413 18.3433 111.413C18.3433 111.413 17.2678 108.888 16.091 108.638C14.9142 108.389 12.2643 110.236 12.3423 111.218C12.4202 112.2 16.2391 122.862 17.0652 124.693C17.8913 126.525 20.6814 133.212 20.8996 133.819C21.1179 134.427 21.188 135.355 20.0735 134.7C18.9512 134.045 13.5269 122.417 12.7631 120.882C11.9994 119.347 11.0953 117.406 10.6823 116.876C10.2692 116.346 8.50785 115.832 7.44792 116.658C6.388 117.484 6.06068 118.497 6.41139 119.503C6.7621 120.508 13.5893 135.487 14.1426 136.422C14.6959 137.358 15.1168 138.566 15.1869 138.761C15.2571 138.955 14.9999 139.501 14.3842 139.041C13.7685 138.581 6.88678 126.969 6.32565 126.166C5.75672 125.371 4.13565 124.584 2.8653 125.48C1.60274 126.377 1.96124 128.052 2.44444 128.785C2.92764 129.517 9.91068 141.73 10.5342 142.868C11.1577 144.006 13.0905 151.448 15.413 153.568C17.7354 155.688 22.3025 158.572 25.1237 159.663C26.0122 160.006 34.2189 187.081 34.7956 188.686C35.3645 190.292 46.1742 175.367 46.1742 175.367Z" fill="white" stroke="white" stroke-width="2.8346" stroke-miterlimit="10"/>
<path d="M37.235 137.412C37.235 137.412 34.9749 138.597 34.7801 139.002C34.5852 139.408 28.9115 142.525 28.0231 146.445C27.1346 150.365 26.9631 151.784 26.9631 151.784C26.9631 151.784 25.4434 149.383 26.5423 146.063C27.6412 142.743 32.6758 139.298 33.6188 138.683C34.5697 138.067 36.7285 136.516 36.7285 136.516L37.235 137.412Z" fill="white" stroke="white" stroke-width="2.8346" stroke-miterlimit="10"/>
<path d="M83.8873 77.2382C83.8873 92.4902 81.9155 102.037 90.9015 117.765C100.254 134.131 116.979 140.366 137.663 140.366C157.552 140.366 175.22 132.12 185.827 119.027C194.821 107.914 195.172 93.3163 195.172 77.3083C195.172 42.4321 174.714 14.157 137.943 14.157C101.173 14.1648 83.8873 42.3619 83.8873 77.2382Z" fill="white" stroke="white" stroke-width="2.8346" stroke-miterlimit="10"/>
<g opacity="0.25">
<path opacity="0.25" d="M91.5874 105.856C91.5874 108.576 96.2246 110.782 101.945 110.782C107.666 110.782 112.303 108.576 112.303 105.856C112.303 103.128 107.666 100.923 101.945 100.923C96.2246 100.923 91.5874 103.128 91.5874 105.856Z" fill="white" stroke="white" stroke-width="2.8346" stroke-miterlimit="10"/>
<path opacity="0.25" d="M163.592 105.856C163.592 108.576 168.229 110.782 173.95 110.782C179.67 110.782 184.307 108.576 184.307 105.856C184.307 103.128 179.67 100.923 173.95 100.923C168.229 100.923 163.592 103.128 163.592 105.856Z" fill="white" stroke="white" stroke-width="2.8346" stroke-miterlimit="10"/>
</g>
<path d="M91.634 73.6764C91.634 73.6764 97.9468 68.4001 108.749 70.2472L91.634 73.6764Z" fill="white"/>
<path d="M91.5639 73.5907C92.6628 72.523 93.9721 71.7125 95.336 70.9954C96.7077 70.3018 98.1651 69.7563 99.677 69.3822C101.181 69.0393 102.732 68.5561 104.299 68.7587C105.857 68.8912 107.393 69.312 108.772 70.1304C108.827 70.1615 108.85 70.2395 108.811 70.294C108.795 70.3174 108.772 70.3408 108.741 70.3486H108.733C107.946 70.5668 107.198 70.6447 106.457 70.7305C105.717 70.8552 105 70.8708 104.283 70.9643C103.924 70.9954 103.574 71.0188 103.215 71.0188C102.857 71.0422 102.506 71.05 102.148 71.0422C101.789 71.0188 101.431 71.0266 101.072 71.05C100.714 71.0656 100.347 71.0734 99.9965 71.1201C98.5703 71.2916 97.1441 71.5956 95.749 72.0164C94.3462 72.4295 92.9745 72.9984 91.7042 73.7544L91.6964 73.7622C91.6418 73.7933 91.5795 73.7778 91.5483 73.7232C91.5171 73.6842 91.5249 73.6297 91.5639 73.5907Z" fill="white"/>
<path d="M184.268 73.6764C184.268 73.6764 177.948 68.4001 167.146 70.2472L184.268 73.6764Z" fill="white"/>
<path d="M184.198 73.7622C182.928 73.0062 181.556 72.4373 180.153 72.0242C178.758 71.6034 177.332 71.2994 175.906 71.128C175.547 71.0812 175.189 71.0734 174.83 71.0578C174.472 71.0344 174.113 71.0344 173.755 71.05C173.396 71.0578 173.038 71.05 172.687 71.0266C172.329 71.0266 171.978 71.0033 171.619 70.9721C170.902 70.8786 170.185 70.863 169.445 70.7383C168.712 70.6448 167.964 70.5746 167.169 70.3564H167.161C167.099 70.3408 167.06 70.2707 167.084 70.2083C167.091 70.1771 167.115 70.1538 167.138 70.1382C168.518 69.3199 170.061 68.899 171.612 68.7665C173.178 68.5639 174.729 69.0471 176.233 69.39C177.745 69.7641 179.203 70.3096 180.574 71.0033C181.938 71.7203 183.247 72.5308 184.346 73.5907C184.393 73.6297 184.393 73.6998 184.346 73.7466C184.307 73.7856 184.253 73.7934 184.214 73.7622H184.198Z" fill="white"/>
<path d="M195.335 99.8395C195.335 99.8395 195.865 91.4926 195.865 83.2859C195.865 63.2721 169.663 68.447 168.019 52.3377C168.019 52.3377 167.863 58.253 159.633 61.9549C157.778 62.7889 157.996 68.0339 160.786 70.0057C160.786 70.0057 150.6 65.5712 151.746 52.9144C151.746 52.9144 144.763 63.9267 133.174 62.9447C133.174 62.9447 134.631 59.5078 135.021 55.7902C135.637 49.9996 133.291 45.4326 139.331 41.489C139.331 41.489 131.833 40.1875 127.087 46.5003C119.73 56.2812 115.046 57.8789 97.0428 64.1683C83.747 68.8133 79.858 87.6348 82.3285 97.4936C82.3285 97.4936 65.2762 86.6138 65.2762 70.6682C65.2762 61.4639 65.0969 38.9951 84.5886 20.0333C108.421 -3.14476 168.923 -5.11653 177.176 20.7737C177.176 20.7737 209.356 26.5643 209.356 68.6106C209.364 78.8592 202.552 95.2179 195.335 99.8395Z" fill="white" stroke="white" stroke-width="2.8346" stroke-miterlimit="10"/>
<path d="M87.7842 88.1492C87.7842 95.896 97.5573 102.178 109.606 102.178C121.655 102.178 131.428 95.896 131.428 88.1492C131.428 80.4023 128.311 75.6794 109.606 75.6794C87.7842 75.6794 87.7842 80.4023 87.7842 88.1492Z" fill="white" stroke="white" stroke-width="2.8346" stroke-miterlimit="10"/>
<path d="M144.677 88.1492C144.677 95.896 154.45 102.178 166.499 102.178C178.548 102.178 188.321 95.896 188.321 88.1492C188.321 80.4023 185.204 75.6794 166.499 75.6794C144.677 75.6794 144.677 80.4023 144.677 88.1492Z" fill="white" stroke="white" stroke-width="2.8346" stroke-miterlimit="10"/>
<path d="M127.765 85.9669C134.998 85.8422 142.222 85.7253 149.455 85.6006L127.765 85.9669Z" fill="white"/>
<path d="M127.765 89.2791C134.998 89.1544 142.222 89.0375 149.455 88.9128C151.185 88.8817 152.853 87.4087 152.767 85.6006C152.689 83.8314 151.31 82.2571 149.455 82.2883C142.222 82.413 134.998 82.5299 127.765 82.6546C126.035 82.6858 124.367 84.1588 124.453 85.9669C124.531 87.736 125.91 89.3103 127.765 89.2791Z" fill="white"/>
<path d="M173.911 84.5485C181.034 83.2937 188.158 82.039 195.273 80.792L173.911 84.5485Z" fill="white"/>
<path d="M174.792 87.744C181.915 86.4892 189.038 85.2344 196.154 83.9875C197.868 83.6835 198.983 81.5013 198.468 79.9114C197.876 78.0722 196.224 77.2772 194.392 77.5968C187.269 78.8515 180.146 80.1063 173.03 81.3533C171.316 81.6572 170.201 83.8394 170.716 85.4293C171.316 87.2686 172.96 88.0635 174.792 87.744Z" fill="white"/>
<path d="M103.309 84.5485C96.1856 83.2937 89.0623 82.039 81.9468 80.792L103.309 84.5485Z" fill="white"/>
<path d="M104.19 81.3531C97.0662 80.0983 89.9429 78.8435 82.8274 77.5966C81.1284 77.3004 79.1722 78.0564 78.7513 79.9113C78.385 81.5245 79.2424 83.6678 81.0661 83.9873C88.1894 85.2421 95.3127 86.4968 102.428 87.7438C104.127 88.04 106.083 87.284 106.504 85.4291C106.878 83.8158 106.021 81.6726 104.19 81.3531Z" fill="white"/>
<path d="M136.735 89.7625C136.829 92.2096 136.252 94.6724 135.075 96.8156C134.756 97.3923 134.397 97.9457 134.117 98.5458C133.579 99.6759 133.337 100.938 133.408 102.185C133.454 102.941 133.634 103.729 134.156 104.266C134.772 104.898 135.722 105.053 136.595 105.053C138.949 105.046 141.287 104.087 142.978 102.443" fill="white"/>
<path d="M136.735 89.7625C137.234 90.7912 137.484 91.9213 137.593 93.0903C137.351 94.1892 137.032 95.2803 136.564 96.3013C136.081 97.3768 135.559 98.1873 135.091 99.0758C134.717 99.8785 134.514 100.767 134.499 101.655C134.467 102.575 134.678 103.362 135.06 103.596C135.457 103.923 136.385 104.009 137.304 103.916C138.216 103.83 139.112 103.588 139.954 103.199C140.928 103.113 141.926 102.848 142.986 102.443C142.549 103.487 141.793 104.414 140.882 105.202C139.822 105.693 138.684 105.996 137.515 106.113C136.93 106.168 136.354 106.183 135.707 106.106C135.075 106.028 134.366 105.833 133.727 105.357C133.072 104.874 132.675 104.134 132.504 103.487C132.316 102.824 132.285 102.209 132.293 101.616C132.316 100.416 132.581 99.2316 133.088 98.1405C133.587 97.1819 134.187 96.2233 134.553 95.3894C134.943 94.5165 135.247 93.5969 135.41 92.6539C135.901 91.781 136.307 90.8224 136.735 89.7625Z" fill="white"/>
<path d="M122.153 117.173C125.489 118.256 127.352 118.42 130.617 118.77C132.098 118.926 134.771 119.23 136.26 119.285C140.351 119.417 143.851 119.292 148.566 118.77C149.774 118.638 152.057 118.201 153.18 117.742C154.302 117.289 154.497 115.855 154.715 114.663C153.928 114.266 152.767 114.741 151.886 114.842C151.177 114.928 150.28 114.499 149.587 114.663C148.542 114.897 147.576 115.162 146.508 115.177C138.115 115.31 129.768 115.793 121.538 114.149C121.382 114.671 121.818 115.84 121.896 116.721" fill="white"/>
<path d="M121.273 120.368C124.476 121.397 127.742 121.771 131.069 122.137C134.14 122.472 137.18 122.69 140.274 122.644C143.773 122.589 147.342 122.379 150.795 121.771C152.291 121.506 153.959 121.202 155.261 120.383C156.96 119.308 157.575 117.43 157.918 115.559C158.269 113.658 157.404 112.177 155.604 111.483C154.684 111.125 153.71 111.203 152.759 111.343C152.455 111.39 152.167 111.444 151.863 111.499C151.613 111.553 150.959 111.881 151.621 111.553C151.722 111.569 151.824 111.584 151.917 111.6C151.715 111.561 151.52 111.522 151.317 111.491C150.888 111.421 150.436 111.335 150 111.335C149.213 111.327 148.449 111.553 147.685 111.717C147.615 111.733 146.649 111.904 147.21 111.834C146.851 111.881 146.493 111.881 146.127 111.888C145.363 111.904 144.599 111.92 143.843 111.935C142.386 111.966 140.928 111.998 139.463 112.021C136.556 112.068 133.649 112.075 130.75 111.927C127.687 111.779 125.248 111.522 122.419 110.969C120.798 110.649 118.67 111.413 118.343 113.284C118.179 114.203 118.194 114.866 118.358 115.793C118.397 116.027 118.444 116.253 118.498 116.479C118.537 116.658 118.678 117.531 118.584 116.736C118.787 118.451 119.964 120.134 121.896 120.048C123.517 119.978 125.427 118.575 125.209 116.736C125.131 116.105 125.053 115.481 124.92 114.866C124.881 114.679 124.85 114.484 124.796 114.297C124.757 114.094 124.757 114.117 124.796 114.351C124.85 114.585 124.827 114.811 124.733 115.045C123.377 115.816 122.013 116.588 120.657 117.36C126.612 118.529 132.659 118.739 138.707 118.661C141.567 118.622 144.537 118.762 147.381 118.443C148.153 118.357 149.034 118.271 149.782 118.038C150.67 117.757 149.439 118.092 150.14 117.975C149.805 117.936 149.758 117.936 150 117.975C150.148 118.006 150.296 118.03 150.444 118.053C151.465 118.217 152.307 118.17 153.32 117.967C153.569 117.921 153.811 117.858 154.06 117.812C154.31 117.765 154.263 117.773 153.92 117.843C153.507 117.749 153.476 117.765 153.834 117.882C153.063 116.526 152.291 115.162 151.52 113.806C151.411 114.382 151.302 114.944 151.13 115.505C151.317 115.092 151.333 115.037 151.161 115.357C151.294 115.123 151.481 114.936 151.715 114.803C152.447 114.382 151.894 114.718 151.644 114.795C151.013 114.99 150.374 115.131 149.727 115.263C149.361 115.341 148.987 115.396 148.613 115.466C147.81 115.622 149.213 115.419 148.55 115.481C145.355 115.754 142.199 116.05 138.988 116.042C136.283 116.035 133.618 115.809 130.937 115.512C130.228 115.435 129.526 115.364 128.817 115.286C128.474 115.247 128.131 115.209 127.788 115.162C128.591 115.263 127.57 115.123 127.414 115.099C125.918 114.85 124.46 114.468 123.019 114.001C121.366 113.471 119.325 114.616 118.943 116.315C118.545 118.1 119.504 119.799 121.273 120.368Z" fill="white"/>
<path d="M123.759 120.251C125.926 119.666 128.217 119.838 130.454 120.017C134.374 120.329 138.302 120.64 142.222 120.968C144.966 121.194 148.558 121.911 151.13 122.877C151.068 123.805 149.946 124.07 149.081 124.412C148.161 124.779 147.475 125.706 146.516 125.948C145.589 126.182 144.903 126.345 143.952 126.462C142.129 126.688 140.648 127.265 138.824 127.491C138.115 127.577 135.442 127 134.725 126.977C133.15 126.93 131.584 126.509 130.111 125.948C129.355 125.659 128.817 125.207 128.061 124.919C127.617 124.748 126.916 124.171 126.526 123.89C126.128 123.61 125.817 123.236 125.497 122.862C124.866 122.113 124.079 121.56 123.448 120.812" fill="white"/>
<path d="M124.64 123.446C124.928 123.376 125.209 123.306 125.505 123.251C126.113 123.142 124.765 123.283 125.848 123.212C126.378 123.173 126.908 123.158 127.438 123.166C128.576 123.173 129.706 123.275 130.836 123.36C133.306 123.555 135.769 123.75 138.24 123.953C139.44 124.054 140.648 124.148 141.848 124.249C142.316 124.288 142.783 124.342 143.251 124.381C143.625 124.413 142.822 124.311 143.454 124.405C143.719 124.444 143.984 124.483 144.249 124.53C146.29 124.872 148.317 125.356 150.257 126.065C149.486 124.709 148.714 123.345 147.943 121.989C147.818 122.558 147.982 122.308 148.426 121.264C148.784 120.999 148.854 120.929 148.636 121.054C148.434 121.186 149.236 120.835 148.543 121.093C147.802 121.365 147.117 121.654 146.485 122.114C146.259 122.277 146.049 122.456 145.815 122.612C145.706 122.69 145.589 122.768 145.472 122.831C145.262 122.947 145.316 122.924 145.651 122.753C145.02 122.831 144.389 123.057 143.758 123.166C144.552 123.025 142.752 123.306 142.549 123.337C142.207 123.392 141.864 123.462 141.521 123.54C140.796 123.696 140.079 123.89 139.354 124.046C139.035 124.116 138.645 124.226 138.318 124.241C139.268 124.202 138.575 124.194 138.45 124.171C138.286 124.148 138.06 124.179 137.897 124.116C138.427 124.187 138.505 124.202 138.131 124.14C138.014 124.124 137.905 124.101 137.788 124.085C136.774 123.922 135.761 123.735 134.74 123.649C134.756 123.649 133.696 123.563 134.171 123.625C133.813 123.579 133.454 123.493 133.096 123.407C132.737 123.322 132.387 123.22 132.036 123.103C131.802 123.025 131.576 122.947 131.342 122.869C131.529 122.971 131.522 122.971 131.335 122.869C130.734 122.581 130.119 122.262 129.534 121.95C129.285 121.817 129.059 121.654 128.833 121.482C128.685 121.373 128.139 120.82 128.646 121.358C127.718 120.376 126.697 119.464 125.801 118.458C124.64 117.165 122.278 117.188 121.117 118.458C119.847 119.846 119.886 121.763 121.117 123.142C123.229 125.511 125.536 127.491 128.451 128.793C130.384 129.65 132.613 130.273 134.74 130.273C135.481 130.273 133.938 130.133 134.608 130.242C134.818 130.273 135.021 130.305 135.231 130.344C135.902 130.453 136.58 130.562 137.258 130.647C138.824 130.858 140.258 130.632 141.794 130.273C142.573 130.094 143.352 129.907 144.139 129.751C144.552 129.689 144.607 129.673 144.319 129.712C144.724 129.665 145.121 129.611 145.527 129.541C145.893 129.478 146.251 129.408 146.61 129.323C147.514 129.112 148.402 128.839 149.174 128.309C149.408 128.154 149.618 127.974 149.844 127.811C150.008 127.694 151.006 127.164 150.211 127.499C152.019 126.743 153.983 125.948 154.357 123.727C154.676 121.849 153.866 120.321 152.042 119.651C147.615 118.03 142.924 117.679 138.263 117.297C135.73 117.094 133.197 116.892 130.672 116.689C128.053 116.479 125.474 116.377 122.902 117.024C121.219 117.445 120.042 119.425 120.587 121.1C121.125 122.869 122.832 123.898 124.64 123.446Z" fill="white"/>
<path d="M121.133 113.899C121.133 113.899 131.389 115.435 138.567 115.435C145.745 115.435 154.466 114.406 154.466 114.406C154.466 114.406 155.495 126.712 138.567 127.226C121.647 127.748 121.133 113.899 121.133 113.899Z" fill="white" stroke="white" stroke-width="2.8346" stroke-miterlimit="10"/>
<path d="M197.244 301.919L194.142 302.229L210.609 467.418L213.712 467.109L197.244 301.919Z" fill="white" stroke="white" stroke-width="2.8346" stroke-miterlimit="10"/>
<path d="M201.858 379.769L204.96 379.465L199.552 301.677L191.025 302.527L201.858 379.769Z" fill="white" stroke="white" stroke-width="2.8346" stroke-miterlimit="10"/>
<path d="M99.1728 221.667C99.8645 220.843 94.2778 215.016 86.6945 208.652C79.1113 202.289 72.4031 197.798 71.7114 198.623C71.0197 199.447 76.6064 205.274 84.1897 211.637C91.773 218.001 98.4811 222.491 99.1728 221.667Z" fill="white" stroke="white" stroke-width="2.8346" stroke-miterlimit="10"/>
<path d="M178.969 219.081C179.662 219.907 185.11 216.416 192.693 210.056C200.276 203.689 205.864 197.867 205.171 197.041C204.477 196.215 197.767 200.704 190.184 207.071C182.601 213.439 178.283 218.255 178.969 219.081Z" fill="white" stroke="white" stroke-width="2.8346" stroke-miterlimit="10"/>
<path d="M96.3571 217.522C96.3571 217.522 64.2631 246.756 59.2752 247.013C54.2951 247.271 34.7878 188.686 34.7878 188.686L40.2433 160.629L65.3776 215.434L78.4318 201.935C78.4318 201.935 81.6038 204.663 87.7841 209.729C93.9644 214.795 96.3571 217.522 96.3571 217.522Z" fill="white" stroke="white" stroke-width="2.8346" stroke-miterlimit="10"/>
<path d="M196.894 201.935C196.894 201.935 190.659 249.476 198.453 281.866C201.321 293.783 186.762 290.003 186.762 290.003C186.762 290.003 183.286 273.091 181.307 255.711C179.265 237.755 178.727 219.323 178.969 219.081C179.733 218.317 180.527 215.184 186.762 209.729C191.337 205.731 196.894 201.935 196.894 201.935Z" fill="white" stroke="white" stroke-width="2.8346" stroke-miterlimit="10"/>
<path d="M193.254 302.114C192.639 302.238 192.132 301.67 191.774 301.155C189.825 298.412 187.861 295.63 186.661 292.481C186.435 291.881 186.232 291.257 186.225 290.61C186.201 288.693 187.869 287.197 189.521 286.23C191.548 285.046 193.784 284.22 196.091 283.807C197.447 283.565 198.889 283.472 200.167 283.978C202.334 284.843 203.534 287.306 203.519 289.636C203.503 291.967 202.498 294.172 201.336 296.191C200.713 297.274 200.035 298.334 199.209 299.269C198.04 300.586 196.59 301.654 194.977 302.371" fill="white"/>
<path d="M193.254 298.802C193.613 298.786 194.159 299.074 194.462 299.254C194.509 299.277 194.79 299.721 194.54 299.355C194.314 299.028 194.088 298.716 193.862 298.389C193.348 297.656 192.834 296.908 192.343 296.16C191.431 294.757 190.558 293.299 189.911 291.756C190.106 292.224 189.74 291.289 189.701 291.156C189.63 290.953 189.584 290.743 189.529 290.54C189.412 290.135 189.568 290.579 189.545 290.626C189.545 290.533 189.552 290.447 189.552 290.353C189.537 290.47 189.529 290.587 189.514 290.712C189.568 290.634 189.81 290.073 189.443 290.759C189.506 290.642 189.568 290.525 189.638 290.408C189.81 290.127 189.989 290.003 189.685 290.314C189.911 290.081 190.16 289.862 190.386 289.629C190.722 289.286 189.973 289.878 190.386 289.629C190.503 289.558 190.62 289.465 190.737 289.395C191.454 288.927 192.218 288.545 192.997 288.179C193.06 288.148 193.582 287.937 193.13 288.117C193.286 288.054 193.441 287.992 193.597 287.937C193.964 287.805 194.338 287.68 194.712 287.563C195.561 287.306 196.426 287.096 197.307 286.963C196.699 287.057 197.681 286.948 197.86 286.94C198.079 286.932 198.959 287.049 198.398 286.924C198.609 286.971 198.803 287.026 199.006 287.08C198.889 287.049 198.476 286.776 198.975 287.072C199.084 287.135 199.193 287.213 199.302 287.267C199.606 287.415 198.952 286.862 199.326 287.298C199.427 287.415 199.567 287.563 199.676 287.665C199.637 287.633 199.372 287.189 199.544 287.501C199.684 287.758 199.84 288.031 199.996 288.28C199.676 287.758 199.902 288 199.957 288.21C200.004 288.382 200.066 288.545 200.113 288.709C200.144 288.834 200.16 288.974 200.199 289.091C200.315 289.457 200.199 288.491 200.206 289.114C200.214 289.449 200.23 289.777 200.206 290.112C200.199 290.205 200.105 290.844 200.175 290.455C200.245 290.088 200.136 290.603 200.128 290.634C200.027 291.047 199.926 291.452 199.785 291.85C199.739 291.998 199.669 292.146 199.622 292.302C199.528 292.629 199.778 292.013 199.528 292.543C199.139 293.362 198.718 294.157 198.258 294.928C198.048 295.287 197.821 295.637 197.595 295.988C197.479 296.16 197.354 296.323 197.237 296.503C196.949 296.955 197.705 295.98 197.089 296.697C196.816 297.009 196.543 297.321 196.239 297.609C196.091 297.749 195.32 298.428 195.733 298.1C195.008 298.677 194.166 299.129 193.325 299.511C191.742 300.236 191.236 302.644 192.132 304.047C193.184 305.676 194.977 306.011 196.668 305.239C200.752 303.369 203.596 299.628 205.381 295.598C207.252 291.382 207.587 286.363 204.189 282.786C200.518 278.912 194.579 280.323 190.262 282.186C186.022 284.009 181.704 287.602 183.263 292.762C184.019 295.256 185.383 297.617 186.809 299.784C188.313 302.067 190.09 305.598 193.262 305.434C194.992 305.348 196.66 303.977 196.574 302.122C196.497 300.399 195.109 298.708 193.254 298.802Z" fill="white"/>
<path d="M207.875 294.359C206.714 292.832 205.95 291.031 204.875 289.442C202.856 286.464 199.645 284.267 196.091 283.737C192.538 283.207 188.703 284.438 186.318 287.127C184.845 288.779 184.611 291.819 183.848 293.899C182.944 296.378 183.068 300.134 183.848 301.693C184.627 303.252 187.37 304.288 188.968 302.184C188.095 303.712 188.797 305.216 190.511 305.621C192.226 306.018 194.065 305.114 195.078 303.08C196.006 304.265 196.232 305.87 197.697 306.237C198.819 306.517 200.183 305.917 200.643 304.951C200.838 304.545 201.399 304.506 201.679 304.865C202.576 306.018 203.215 307.562 204.485 307.172C204.953 307.032 205.966 305.512 206.254 305.114C208.779 301.584 208.912 297.991 207.719 293.814" fill="white"/>
<path d="M207.875 294.359C206.714 292.832 205.95 291.031 204.875 289.442C202.856 286.464 199.645 284.267 196.091 283.737C192.538 283.207 188.703 284.438 186.318 287.127C184.845 288.779 184.611 291.819 183.848 293.899C182.944 296.378 183.068 300.134 183.848 301.693C184.627 303.252 187.37 304.288 188.968 302.184C188.095 303.712 188.797 305.216 190.511 305.621C192.226 306.018 194.065 305.114 195.078 303.08C196.006 304.265 196.232 305.87 197.697 306.237C198.819 306.517 200.183 305.917 200.643 304.951C200.838 304.545 201.399 304.506 201.679 304.865C202.576 306.018 203.215 307.562 204.485 307.172C204.953 307.032 205.966 305.512 206.254 305.114C208.779 301.584 208.912 297.991 207.719 293.814" stroke="white" stroke-width="2.8346" stroke-miterlimit="10"/>
<path d="M180.699 249.717C181.79 249.094 182.881 248.463 184.035 247.979C186.139 247.091 188.415 246.709 190.667 246.366" fill="white"/>
<path d="M180.699 249.718C181.237 248.884 181.891 248.229 182.64 247.668C183.388 247.115 184.261 246.678 185.149 246.398C186.045 246.117 186.965 245.969 187.885 245.953C188.804 245.946 189.724 246.039 190.667 246.359C189.864 246.943 189.038 247.317 188.22 247.652C187.409 247.98 186.607 248.252 185.812 248.502C185.017 248.751 184.237 248.977 183.411 249.211C182.569 249.437 181.689 249.671 180.699 249.718Z" fill="white"/>
<path d="M65.2605 216.065C63.9979 220.616 63.1874 225.293 62.8445 229.992L65.2605 216.065Z" fill="white"/>
<path d="M65.2606 216.065C65.3853 217.327 65.3307 218.512 65.245 219.689C65.1436 220.858 64.9956 222.011 64.8008 223.157C64.6059 224.303 64.3565 225.441 64.0604 226.578C63.7486 227.716 63.3979 228.854 62.8524 230C62.4783 228.792 62.3536 227.576 62.3302 226.368C62.3146 225.16 62.4159 223.96 62.6185 222.783C62.8212 221.606 63.1329 220.437 63.5538 219.307C63.9824 218.177 64.5046 217.078 65.2606 216.065Z" fill="white"/>
<path d="M197.487 292.73C197.455 296.113 196.473 299.76 195.25 302.917L197.487 292.73Z" fill="white"/>
<path d="M197.596 292.73C197.767 293.611 197.806 294.507 197.837 295.419C197.845 296.323 197.79 297.227 197.674 298.124C197.557 299.02 197.603 299.971 197.167 300.781C196.754 301.592 196.232 302.363 195.343 302.963L195.141 302.886C194.891 301.857 194.946 300.976 195.063 300.119C195.156 299.261 195.671 298.529 195.951 297.726C196.232 296.923 196.504 296.105 196.746 295.279C197.011 294.453 197.19 293.603 197.377 292.738L197.596 292.73Z" fill="white"/>
<path d="M191.252 291.951C191.221 295.334 190.238 298.981 189.015 302.137L191.252 291.951Z" fill="white"/>
<path d="M191.361 291.951C191.532 292.832 191.571 293.728 191.602 294.64C191.61 295.544 191.556 296.448 191.439 297.344C191.322 298.241 191.368 299.191 190.932 300.002C190.519 300.812 189.997 301.584 189.108 302.184L188.906 302.106C188.656 301.077 188.711 300.197 188.828 299.339C188.921 298.482 189.436 297.75 189.716 296.947C189.997 296.144 190.27 295.326 190.511 294.5C190.776 293.674 190.955 292.824 191.142 291.959L191.361 291.951Z" fill="white"/>
<path d="M202.942 292.73C203.721 296.627 202.708 301.319 201.485 304.475L202.942 292.73Z" fill="white"/>
<path d="M203.051 292.707C203.425 293.666 203.62 294.679 203.768 295.708C203.893 296.736 203.924 297.781 203.862 298.817C203.807 299.846 203.885 300.937 203.464 301.903C203.059 302.87 202.513 303.797 201.586 304.514L201.383 304.436C201.173 303.291 201.235 302.317 201.329 301.35C201.414 300.384 201.89 299.519 202.116 298.568C202.342 297.625 202.529 296.674 202.661 295.708C202.809 294.741 202.856 293.759 202.833 292.754L203.051 292.707Z" fill="white"/>
<g opacity="0.1">
<path d="M125.973 140.366C127.204 141.597 142.339 145.042 154.03 139.587L125.973 140.366Z" fill="white"/>
<path d="M125.973 140.366C127.204 141.597 142.339 145.042 154.03 139.587" stroke="white" stroke-width="2.8346" stroke-miterlimit="10"/>
</g>
<path d="M138.442 276.754C125.972 276.754 94.0188 276.754 94.0188 311.825V449.771H117.968L139.97 341.051L161.971 449.771H182.873V310.266C182.866 275.195 150.912 276.754 138.442 276.754Z" fill="#1A1A1A"/>
<path d="M207.579 65.5789C209.987 74.1518 212.395 82.7248 214.804 91.2977C216.448 97.1663 218.1 103.058 218.864 109.106C219.979 117.975 219.137 126.961 218.038 135.83C216.729 146.367 204.734 153.677 205.81 164.246C207.034 176.224 201.375 201.031 193.005 199.605C184.635 198.179 194.462 256.288 185.991 255.719C178.501 255.22 169.235 259.14 161.831 260.395C134.826 264.985 120.735 255.882 94.0267 261.954C76.8809 265.85 55.0277 227.763 46.486 225.324C30.1195 220.648 50.8581 160.318 50.3827 159.078C47.7251 152.127 45.5117 149.258 47.5459 142.096C49.6501 134.7 51.7466 127.304 53.8508 119.908C55.6823 113.463 57.5216 107.002 60.2494 100.884C62.9693 94.7814 63.9202 75.5001 66.7492 69.4523C73.288 55.4551 78.65 52.7741 89.1635 41.4422C96.0842 33.976 105.631 29.557 115.116 25.8395C121.265 23.4313 127.547 21.2335 134.078 20.2203C149.049 17.9134 164.605 22.1375 177.434 30.2039C190.262 38.2702 200.518 49.9528 208.553 62.7966" fill="#C37429"/>
<path d="M118.179 155.174C109.606 158.291 95.7881 168.961 91.9771 173.037C84.3394 181.212 78.4085 190.798 72.5321 200.314C72.1814 200.891 71.8073 201.53 71.932 202.192C72.0255 202.699 72.384 203.104 72.7347 203.486C81.0193 212.558 89.6857 221.902 101.049 226.563L118.179 155.174Z" fill="#BD7CB3"/>
<path d="M163.382 155.174C166.499 156.733 181.431 167.402 185.235 171.478C192.872 179.653 198.803 189.24 204.68 198.755C205.038 199.332 205.405 199.971 205.28 200.634C205.186 201.14 204.828 201.546 204.477 201.927C196.193 210.999 187.526 220.344 176.163 225.004L163.382 155.174Z" fill="#BD7CB3"/>
<path d="M96.3569 298.576C96.3569 298.576 119.395 303.992 139.44 304.015C159.485 304.031 180.528 297.017 180.528 297.017L178.969 222.199C178.969 213.314 171.768 155.174 162.875 155.174H118.179C107.268 166.864 99.4744 215.652 99.4744 224.537L96.3569 298.576Z" fill="#971B81"/>
<path d="M154.224 139.587C154.224 139.587 152.174 155.486 154.224 156.506C156.274 157.535 159.352 158.042 159.352 158.042C159.352 158.042 154.816 167.09 140.375 167.784C126.744 168.438 118.833 162.141 118.833 157.527C118.833 157.527 123.019 157.683 124.99 156.499C127.555 154.963 125.505 139.579 125.505 139.579H154.224V139.587Z" fill="#F7B48F"/>
<path d="M157.739 452.343C157.739 452.343 166.148 436.927 175.142 437.309C184.136 437.683 192.545 450.465 192.834 452.343C193.122 454.221 193.122 456.855 191.961 457.978C190.799 459.108 160.342 459.482 159.181 458.352C158.02 457.222 156.578 457.229 157.739 452.343Z" fill="#971B81"/>
<path d="M88.3763 452.343C88.3763 452.343 96.7855 436.927 105.779 437.309C114.773 437.683 123.182 450.465 123.471 452.343C123.759 454.221 123.759 456.855 122.598 457.978C121.437 459.108 90.9793 459.482 89.8181 458.352C88.6569 457.222 87.2151 457.229 88.3763 452.343Z" fill="#971B81"/>
<path d="M46.1742 178.484C46.1742 178.484 38.8326 159.577 39.0041 157.917C39.1678 156.257 40.7421 149.165 42.5892 146.71C44.4362 144.255 50.0086 138.924 50.9438 138.371C51.8791 137.818 52.6039 136.664 51.5751 135.667C50.5464 134.669 47.2808 132.432 43.423 135.589C39.5652 138.745 37.3051 140.662 37.3051 140.662C37.3051 140.662 35.0216 136.726 34.6709 135.721C34.3202 134.716 31.9509 125.395 31.3118 122.908C30.665 120.43 28.8958 114.733 28.6854 114.125C28.475 113.517 27.1111 112.2 25.833 112.753C24.5626 113.315 23.4169 114.554 23.7131 115.723C24.0093 116.892 26.5578 129.307 26.8383 130.11C27.1189 130.912 27.6567 133.741 27.6177 133.936C27.5787 134.139 26.9786 135.02 26.4331 134.084C25.8797 133.149 18.3433 114.53 18.3433 114.53C18.3433 114.53 17.2678 112.005 16.091 111.756C14.9142 111.506 12.2643 113.354 12.3423 114.336C12.4202 115.317 16.2391 125.979 17.0652 127.811C17.8913 129.642 20.6814 136.329 20.8996 136.937C21.1179 137.545 21.188 138.472 20.0735 137.818C18.9512 137.163 13.5269 125.535 12.7631 124C11.9994 122.464 11.0953 120.524 10.6823 119.994C10.2692 119.464 8.50785 118.949 7.44792 119.775C6.388 120.602 6.06068 121.615 6.41139 122.62C6.7621 123.625 13.5893 138.605 14.1426 139.54C14.6959 140.475 15.1168 141.683 15.1869 141.878C15.2571 142.073 14.9999 142.618 14.3842 142.159C13.7685 141.699 6.88678 130.086 6.32565 129.284C5.75672 128.489 4.13565 127.701 2.8653 128.598C1.60274 129.494 1.96124 131.17 2.44444 131.902C2.92764 132.635 9.91068 144.847 10.5342 145.985C11.1577 147.123 13.0905 154.566 15.413 156.686C17.7354 158.806 22.3025 161.689 25.1237 162.78C26.0122 163.123 34.2189 190.198 34.7956 191.804C35.3645 193.409 46.1742 178.484 46.1742 178.484Z" fill="#FBC099"/>
<path d="M37.235 140.53C37.235 140.53 34.9749 141.714 34.7801 142.12C34.5852 142.525 28.9115 145.642 28.0231 149.563C27.1346 153.483 26.9631 154.901 26.9631 154.901C26.9631 154.901 25.4434 152.501 26.5423 149.181C27.6412 145.861 32.6758 142.416 33.6188 141.8C34.5697 141.184 36.7285 139.634 36.7285 139.634L37.235 140.53Z" fill="#F7B48F"/>
<path d="M83.8873 80.3556C83.8873 95.6076 81.9155 105.155 90.9015 120.882C100.254 137.249 116.979 143.483 137.663 143.483C157.552 143.483 175.22 135.238 185.827 122.145C194.821 111.031 195.172 96.4337 195.172 80.4257C195.172 45.5495 174.714 17.2744 137.943 17.2744C101.173 17.2822 83.8873 45.4793 83.8873 80.3556Z" fill="#FBC099"/>
<g opacity="0.25">
<path opacity="0.25" d="M91.5874 108.974C91.5874 111.694 96.2246 113.899 101.945 113.899C107.666 113.899 112.303 111.694 112.303 108.974C112.303 106.246 107.666 104.04 101.945 104.04C96.2246 104.04 91.5874 106.246 91.5874 108.974Z" fill="#F7A38D"/>
<path opacity="0.25" d="M163.592 108.974C163.592 111.694 168.229 113.899 173.95 113.899C179.67 113.899 184.307 111.694 184.307 108.974C184.307 106.246 179.67 104.04 173.95 104.04C168.229 104.04 163.592 106.246 163.592 108.974Z" fill="#F7A38D"/>
</g>
<path d="M91.5639 76.7081C92.6628 75.6404 93.9721 74.8299 95.336 74.1129C96.7077 73.4193 98.1651 72.8737 99.677 72.4996C101.181 72.1567 102.732 71.6735 104.299 71.8761C105.857 72.0086 107.393 72.4295 108.772 73.2478C108.827 73.279 108.85 73.3569 108.811 73.4115C108.795 73.4348 108.772 73.4582 108.741 73.466H108.733C107.946 73.6842 107.198 73.7622 106.457 73.8479C105.717 73.9726 105 73.9882 104.283 74.0817C103.924 74.1129 103.574 74.1363 103.215 74.1363C102.857 74.1596 102.506 74.1674 102.148 74.1596C101.789 74.1363 101.431 74.1441 101.072 74.1674C100.714 74.183 100.347 74.1908 99.9965 74.2376C98.5703 74.409 97.1441 74.713 95.749 75.1338C94.3462 75.5469 92.9745 76.1158 91.7042 76.8718L91.6964 76.8796C91.6418 76.9108 91.5795 76.8952 91.5483 76.8406C91.5171 76.8017 91.5249 76.7471 91.5639 76.7081Z" fill="#51140C"/>
<path d="M184.198 76.8796C182.928 76.1237 181.556 75.5547 180.153 75.1417C178.758 74.7208 177.332 74.4169 175.906 74.2454C175.547 74.1986 175.189 74.1908 174.83 74.1753C174.472 74.1519 174.113 74.1519 173.755 74.1675C173.396 74.1753 173.038 74.1675 172.687 74.1441C172.329 74.1441 171.978 74.1207 171.619 74.0895C170.902 73.996 170.185 73.9804 169.445 73.8557C168.712 73.7622 167.964 73.6921 167.169 73.4738H167.161C167.099 73.4582 167.06 73.3881 167.084 73.3258C167.091 73.2946 167.115 73.2712 167.138 73.2556C168.518 72.4373 170.061 72.0164 171.612 71.8839C173.178 71.6813 174.729 72.1645 176.233 72.5074C177.745 72.8815 179.203 73.4271 180.574 74.1207C181.938 74.8377 183.247 75.6482 184.346 76.7082C184.393 76.7471 184.393 76.8173 184.346 76.864C184.307 76.903 184.253 76.9108 184.214 76.8796H184.198Z" fill="#51140C"/>
<path d="M195.335 102.957C195.335 102.957 195.865 94.61 195.865 86.4034C195.865 66.3895 169.663 71.5644 168.019 55.4551C168.019 55.4551 167.863 61.3704 159.633 65.0724C157.778 65.9063 157.996 71.1514 160.786 73.1231C160.786 73.1231 150.6 68.6886 151.746 56.0318C151.746 56.0318 144.763 67.0442 133.174 66.0622C133.174 66.0622 134.631 62.6252 135.021 58.9077C135.637 53.117 133.291 48.55 139.331 44.6065C139.331 44.6065 131.833 43.3049 127.087 49.6177C119.73 59.3987 115.046 60.9963 97.0428 67.2858C83.747 71.9307 79.858 90.7522 82.3285 100.611C82.3285 100.611 65.2762 89.7312 65.2762 73.7856C65.2762 64.5814 65.0969 42.1125 84.5886 23.1508C108.421 -0.0273266 168.923 -1.9991 177.176 23.8911C177.176 23.8911 209.356 29.6818 209.356 71.7281C209.364 81.9766 202.552 98.3354 195.335 102.957Z" fill="#C37429"/>
<path d="M87.7842 91.2666C87.7842 99.0134 97.5573 105.295 109.606 105.295C121.655 105.295 131.428 99.0134 131.428 91.2666C131.428 83.5198 128.311 78.7969 109.606 78.7969C87.7842 78.7969 87.7842 83.5198 87.7842 91.2666Z" fill="#1A1A1A"/>
<path d="M144.677 91.2666C144.677 99.0134 154.45 105.295 166.499 105.295C178.548 105.295 188.321 99.0134 188.321 91.2666C188.321 83.5198 185.204 78.7969 166.499 78.7969C144.677 78.7969 144.677 83.5198 144.677 91.2666Z" fill="#1A1A1A"/>
<path d="M127.765 90.2534C134.998 90.1287 142.222 90.0118 149.455 89.8871C150.959 89.8637 150.959 87.5256 149.455 87.549C142.222 87.6737 134.998 87.7906 127.765 87.9153C126.261 87.9387 126.261 90.2768 127.765 90.2534Z" fill="#1A1A1A"/>
<path d="M174.223 88.796C181.346 87.5413 188.469 86.2865 195.585 85.0395C197.066 84.7823 196.434 82.5222 194.961 82.7872C187.838 84.042 180.715 85.2967 173.599 86.5437C172.118 86.8009 172.75 89.0532 174.223 88.796Z" fill="#1A1A1A"/>
<path d="M103.621 86.536C96.4973 85.2812 89.374 84.0264 82.2585 82.7795C80.7855 82.5223 80.1542 84.7746 81.635 85.0318C88.7583 86.2866 95.8816 87.5413 102.997 88.7883C104.47 89.0533 105.101 86.8009 103.621 86.536Z" fill="#1A1A1A"/>
<path d="M136.735 92.8799C136.938 93.9164 136.961 94.9919 136.884 96.0675C136.673 97.1196 136.354 98.1483 135.909 99.1303C135.465 100.128 134.92 100.985 134.436 101.897C134.023 102.793 133.797 103.775 133.782 104.765C133.758 105.747 133.93 106.784 134.623 107.29C135.325 107.812 136.377 107.836 137.367 107.75C138.357 107.656 139.339 107.391 140.243 106.971C141.209 106.667 142.113 106.176 142.97 105.568C142.331 106.41 141.497 107.103 140.57 107.68C139.58 108.132 138.52 108.42 137.437 108.529C136.899 108.576 136.354 108.592 135.792 108.522C135.239 108.451 134.655 108.288 134.156 107.914C133.649 107.54 133.337 106.971 133.189 106.417C133.034 105.856 133.002 105.303 133.01 104.757C133.026 103.658 133.275 102.567 133.743 101.57C134.234 100.634 134.803 99.7226 135.208 98.8108C135.621 97.8911 135.933 96.917 136.12 95.9194C136.431 94.9452 136.603 93.932 136.735 92.8799Z" fill="#51140C"/>
<path d="M122.154 120.29C125.489 121.373 127.352 121.537 130.617 121.887C132.098 122.043 134.772 122.347 136.26 122.402C140.352 122.534 143.851 122.41 148.566 121.887C149.774 121.755 152.058 121.319 153.18 120.859C154.302 120.407 154.497 118.973 154.715 117.78C153.928 117.383 152.767 117.858 151.886 117.959C151.177 118.045 150.281 117.617 149.587 117.78C148.543 118.014 147.576 118.279 146.509 118.295C138.115 118.427 129.768 118.91 121.538 117.266C121.382 117.788 121.819 118.957 121.896 119.838" fill="white"/>
<path d="M123.759 123.368C125.926 122.784 128.217 122.955 130.454 123.135C134.374 123.446 138.302 123.758 142.222 124.085C144.966 124.311 148.558 125.028 151.13 125.995C151.068 126.922 149.946 127.187 149.081 127.53C148.161 127.896 147.475 128.824 146.516 129.065C145.589 129.299 144.903 129.463 143.952 129.58C142.129 129.806 140.648 130.383 138.824 130.609C138.115 130.694 135.442 130.118 134.725 130.094C133.15 130.047 131.584 129.627 130.111 129.065C129.355 128.777 128.817 128.325 128.061 128.037C127.617 127.865 126.916 127.289 126.526 127.008C126.128 126.727 125.817 126.353 125.497 125.979C124.866 125.231 124.079 124.678 123.448 123.93" fill="#D86755"/>
<path d="M121.133 117.017C121.133 117.017 131.389 118.552 138.567 118.552C145.745 118.552 154.466 117.523 154.466 117.523C154.466 117.523 155.495 129.829 138.567 130.344C121.647 130.866 121.133 117.017 121.133 117.017Z" stroke="#A67C52" stroke-miterlimit="10"/>
<path d="M197.244 305.037L194.142 305.346L210.609 470.536L213.712 470.227L197.244 305.037Z" fill="#4D4D4D"/>
<path d="M201.858 382.887L204.96 382.583L199.552 304.795L191.025 305.644L201.858 382.887Z" fill="#333333"/>
<path d="M99.1726 224.785C99.8643 223.96 94.2776 218.133 86.6943 211.77C79.111 205.406 72.4029 200.916 71.7112 201.74C71.0195 202.564 76.6062 208.391 84.1894 214.755C91.7727 221.118 98.4809 225.609 99.1726 224.785Z" fill="#AF5EA1"/>
<path d="M178.969 222.199C179.662 223.025 185.11 219.533 192.693 213.174C200.276 206.806 205.864 200.984 205.171 200.158C204.477 199.332 197.767 203.821 190.184 210.189C182.601 216.556 178.283 221.372 178.969 222.199Z" fill="#AF5EA1"/>
<path d="M96.3571 220.64C96.3571 220.64 64.2631 249.874 59.2752 250.131C54.2951 250.388 34.7878 191.804 34.7878 191.804L40.2433 163.747L65.3776 218.551L78.4318 205.053C78.4318 205.053 81.6038 207.78 87.7841 212.846C93.9644 217.912 96.3571 220.64 96.3571 220.64Z" fill="#FBC099"/>
<path d="M196.894 205.053C196.894 205.053 190.659 252.594 198.453 284.984C201.321 296.9 186.762 293.12 186.762 293.12C186.762 293.12 183.286 276.208 181.307 258.828C179.265 240.872 178.727 222.44 178.969 222.199C179.733 221.435 180.527 218.302 186.762 212.846C191.337 208.848 196.894 205.053 196.894 205.053Z" fill="#FBC099"/>
<path d="M193.254 304.062C192.81 304.086 192.233 302.917 192 302.582C191.485 301.849 190.971 301.101 190.48 300.353C189.568 298.95 188.711 297.492 188.048 295.949C187.425 294.507 187.051 293.214 188.157 291.912C189.124 290.774 190.558 290.042 191.891 289.442C193.41 288.756 195.063 288.249 196.715 288.008C198.157 287.797 199.708 287.844 200.822 288.896C203.012 290.961 202.474 294.289 201.36 296.744C199.871 300.041 197.736 302.948 194.384 304.483C193.021 305.107 194.205 307.125 195.561 306.502C199.341 304.772 201.859 301.366 203.503 297.633C204.96 294.32 205.327 290.244 202.646 287.423C199.715 284.329 194.727 285.708 191.322 287.158C188.025 288.561 184.058 291.156 185.313 295.31C186.014 297.633 187.324 299.807 188.648 301.818C189.326 302.847 190.028 303.875 190.761 304.865C191.384 305.715 192.124 306.463 193.254 306.4C194.751 306.33 194.766 303.984 193.254 304.062Z" fill="black"/>
<path d="M207.875 297.477C206.714 295.949 205.95 294.149 204.875 292.559C202.856 289.582 199.645 287.384 196.091 286.854C192.538 286.324 188.703 287.555 186.318 290.244C184.845 291.896 184.611 294.936 183.848 297.017C182.944 299.495 183.068 303.252 183.848 304.81C184.627 306.369 187.37 307.406 188.968 305.301C188.095 306.829 188.797 308.333 190.511 308.738C192.226 309.136 194.065 308.232 195.078 306.198C196.006 307.382 196.232 308.988 197.697 309.354C198.819 309.635 200.183 309.035 200.643 308.068C200.838 307.663 201.399 307.624 201.679 307.982C202.576 309.136 203.215 310.679 204.485 310.289C204.953 310.149 205.966 308.629 206.254 308.232C208.779 304.701 208.912 301.108 207.719 296.931" fill="#FBC099"/>
<path d="M180.699 252.835C181.291 252.095 181.977 251.502 182.733 250.98C183.489 250.466 184.354 250.053 185.227 249.78C186.108 249.499 187.012 249.343 187.924 249.289C188.835 249.242 189.74 249.273 190.667 249.484C189.849 249.959 189.007 250.271 188.181 250.567C187.355 250.855 186.536 251.113 185.734 251.362L183.318 252.141C182.484 252.406 181.634 252.695 180.699 252.835Z" fill="#F7B48F"/>
<path d="M65.2606 219.182C65.2761 220.414 65.167 221.591 65.0268 222.76C64.9021 223.929 64.7228 225.082 64.5202 226.228C64.3175 227.373 64.0993 228.519 63.8266 229.665C63.5616 230.81 63.2732 231.956 62.8446 233.109C62.5874 231.909 62.5172 230.701 62.5484 229.509C62.564 228.309 62.6887 227.124 62.8913 225.947C63.1018 224.77 63.3823 223.609 63.772 222.479C64.1539 221.341 64.6137 220.227 65.2606 219.182Z" fill="#F7B48F"/>
<path d="M197.541 295.848C197.689 297.609 197.541 299.386 197.245 301.14C197.089 302.013 196.988 302.909 196.645 303.735C196.31 304.561 195.896 305.356 195.296 306.057L195.195 306.019C195.226 305.099 195.405 304.242 195.593 303.4C195.772 302.558 196.146 301.771 196.387 300.937C196.878 299.285 197.245 297.586 197.44 295.848H197.541Z" fill="#F7B48F"/>
<path d="M191.306 295.068C191.454 296.83 191.306 298.607 191.01 300.36C190.854 301.233 190.753 302.129 190.41 302.955C190.075 303.782 189.662 304.577 189.062 305.278L188.96 305.239C188.991 304.319 189.171 303.462 189.358 302.62C189.537 301.779 189.911 300.992 190.153 300.158C190.644 298.505 191.01 296.806 191.205 295.068H191.306Z" fill="#F7B48F"/>
<path d="M202.996 295.84C203.269 296.806 203.417 297.82 203.487 298.833C203.542 299.846 203.511 300.867 203.425 301.88C203.332 302.893 203.261 303.922 202.926 304.888C202.599 305.855 202.17 306.79 201.531 307.616L201.43 307.577C201.508 306.541 201.687 305.574 201.859 304.608C202.03 303.641 202.365 302.714 202.552 301.748C202.747 300.789 202.88 299.807 202.942 298.825C203.02 297.843 203.012 296.845 202.895 295.856L202.996 295.84Z" fill="#F7B48F"/>
<path opacity="0.1" d="M125.973 143.483C127.204 144.715 142.339 148.16 154.03 142.704L125.973 143.483Z" fill="#844D20"/>
</svg>
