<svg viewBox="0 0 649 280" fill="none" xmlns="http://www.w3.org/2000/svg" preserveAspectRatio="none">
<path id="Vector" d="M536.166 237.296L535.068 236.364L533.711 236.847C477.42 256.863 404.381 268.979 324.5 268.979C235.141 268.979 154.358 253.823 96.0089 229.416C66.8288 217.21 43.3774 202.739 27.2589 186.798C11.1495 170.867 2.5 153.614 2.5 135.739C2.5 117.865 11.1495 100.612 27.2589 84.6804C43.3774 68.7396 66.8288 54.269 96.0089 42.063C154.358 17.6554 235.141 2.5 324.5 2.5C413.859 2.5 494.642 17.6554 552.991 42.063C582.171 54.269 605.623 68.7396 621.741 84.6804C637.851 100.612 646.5 117.865 646.5 135.739C646.5 161.918 627.887 186.817 594.642 208.005L593.169 208.943L593.543 210.649C594.844 216.578 598.03 230.147 602.829 244.148C606.351 254.422 610.833 265.214 616.225 273.358C615.119 272.924 613.924 272.455 612.653 271.953C605.209 269.015 595.141 264.973 584.702 260.614C574.258 256.253 563.466 251.584 554.565 247.392C550.113 245.295 546.157 243.328 542.964 241.586C539.727 239.819 537.423 238.363 536.166 237.296Z" stroke="#074A81" stroke-width="5"/>
</svg>
