<svg width="305" height="226" viewBox="0 0 305 226" fill="none" xmlns="http://www.w3.org/2000/svg">
<path opacity="0.2" fill-rule="evenodd" clip-rule="evenodd" d="M50.7672 173.66C50.7672 173.66 119.797 229.75 151.087 225.44C182.377 221.13 208.257 200.63 231.987 193.08C255.717 185.53 308.577 160.72 304.257 142.38C299.947 124.04 272.977 107.86 234.147 84.1301C195.317 60.4001 155.397 33.43 100.387 52.85C45.3772 72.2701 7.29725 80.6101 3.30725 103.55C-1.01275 128.36 -5.32275 135.91 50.7672 173.66Z" fill="#DCE56B"/>
<path fill-rule="evenodd" clip-rule="evenodd" d="M121.817 59.51L85.3271 80.65L234.657 167.03L271.147 145.88L121.817 59.51Z" fill="#FFFCF8"/>
<path fill-rule="evenodd" clip-rule="evenodd" d="M153.487 57.3101L277.237 128.89L208.657 168.57L84.8972 97.0001L153.487 57.3101Z" fill="#FFFCF8"/>
<path fill-rule="evenodd" clip-rule="evenodd" d="M154.687 64.0701L97.7173 96.9501L209.317 161.51L266.287 128.62L154.687 64.0701Z" fill="#0B828D"/>
<path fill-rule="evenodd" clip-rule="evenodd" d="M154.787 69.5801L102.497 99.7701L209.347 161.57L261.627 131.37L154.787 69.5801Z" fill="#5BCCBD"/>
<path fill-rule="evenodd" clip-rule="evenodd" d="M154.877 75.3801L107.627 102.66L209.397 161.52L256.637 134.24L154.877 75.3801Z" fill="#6CE4D4"/>
<path fill-rule="evenodd" clip-rule="evenodd" d="M146.627 80.1301L140.867 83.4501L242.627 142.31L248.387 138.98L146.627 80.1301Z" fill="#3DCCBD"/>
<path fill-rule="evenodd" clip-rule="evenodd" d="M124.557 92.3L118.797 95.63L220.557 154.49L226.317 151.16L124.557 92.3Z" fill="#3DCCBD"/>
<path fill-rule="evenodd" clip-rule="evenodd" d="M63.0671 93.58C63.0671 95.75 64.5371 97.6 67.4671 99.11C70.2871 100.63 73.7671 101.39 77.8971 101.39C82.0271 101.39 85.5571 100.63 88.4871 99.11C91.3171 97.59 92.7271 95.75 92.7271 93.58C92.7271 91.41 91.3171 89.56 88.4871 88.04C85.5571 86.52 82.0271 85.76 77.8971 85.76C73.7671 85.76 70.2871 86.52 67.4671 88.04C64.5371 89.55 63.0671 91.4 63.0671 93.58Z" fill="#474646"/>
<path fill-rule="evenodd" clip-rule="evenodd" d="M93.9071 71.76L93.7671 75.1C92.7871 75.99 91.6771 76.75 90.4271 77.37C83.4771 81.2 77.4271 80.36 72.2571 74.83C71.4671 81.68 71.3771 87.29 71.9871 91.66C71.9971 91.75 72.0271 91.84 72.0571 91.93C72.9971 96.25 76.1271 98.88 81.4771 99.81V99.74C89.3971 98.95 93.4871 96.7 93.7671 92.99L93.9071 71.76Z" fill="#C4B7A0"/>
<path fill-rule="evenodd" clip-rule="evenodd" d="M72.2671 74.8301C77.4371 80.3501 83.4871 81.1901 90.4371 77.3701C91.6871 76.7501 92.7971 75.9901 93.7771 75.1001L93.9171 71.7601C88.7571 66.3301 82.6971 65.4801 75.7471 69.2201C74.5971 69.7601 73.4771 70.5201 72.4071 71.4901L72.2671 74.8301Z" fill="#F3EDE1"/>
<path fill-rule="evenodd" clip-rule="evenodd" d="M82.3271 69.2099L86.0571 67.1599V73.6699L82.3271 75.7199V69.2099Z" fill="#DBD8CD"/>
<path fill-rule="evenodd" clip-rule="evenodd" d="M78.0972 66.9199L81.9572 69.2099V75.7199L78.0972 73.3199V66.9199Z" fill="#8A8881"/>
<path fill-rule="evenodd" clip-rule="evenodd" d="M82.3272 69.21L78.3472 66.92L81.9572 64.51L86.0572 67.16L82.3272 69.21Z" fill="#F5F1E1"/>
<path fill-rule="evenodd" clip-rule="evenodd" d="M82.6971 32.51C82.6971 32.27 82.6271 32.08 82.4771 31.93C82.3371 31.79 82.1371 31.72 81.9071 31.72H81.8271C81.5871 31.72 81.3971 31.79 81.2471 31.93C81.1071 32.08 81.0371 32.27 81.0371 32.51V66.47C81.0371 66.71 81.1071 66.91 81.2471 67.05C81.3971 67.19 81.5871 67.27 81.8271 67.27H81.9071C82.1471 67.27 82.3371 67.19 82.4771 67.05C82.6271 66.91 82.6971 66.71 82.6971 66.47V32.51Z" fill="#383838"/>
<path fill-rule="evenodd" clip-rule="evenodd" d="M70.6572 33.68C70.1872 34.17 69.6772 33.9 69.1372 32.84V40.31C69.8672 41.02 70.5772 41.16 71.2472 40.73C71.9272 40.29 72.5072 39.86 72.9772 39.42C73.4472 38.98 73.8172 38.71 74.0872 38.6C74.5372 38.42 74.9872 38.35 75.4272 38.39C76.2472 38.6 76.9872 38.93 77.6472 39.38C78.0572 39.68 78.4772 39.93 78.9172 40.13C79.1372 40.24 79.3872 40.32 79.6372 40.37C79.9072 40.37 80.1572 40.35 80.3872 40.3V33.51C80.2072 33.37 80.0072 33.23 79.8072 33.1C79.4272 32.89 78.9272 32.65 78.3272 32.35C77.7172 32.06 76.9972 31.86 76.1772 31.74C75.3572 31.62 74.4272 31.78 73.4072 32.22C72.3972 32.66 71.7972 32.88 71.6272 32.9C71.4472 32.93 71.1272 33.18 70.6572 33.68Z" fill="url(#paint0_linear)"/>
<path fill-rule="evenodd" clip-rule="evenodd" d="M77.2572 98.51L17.2072 91.76L49.6472 110.57V110.69L50.0072 110.57L54.2272 113.1V106.1L51.3272 105.74L46.0172 102.73V101.28L48.9172 101.52L49.7572 101.64V102L54.2172 104.77H55.0572V105.73L62.0572 109.83V108.75L62.4272 108.63L60.9772 107.79V102.6L75.6872 111.17V116.35V117.8L83.2872 122.14V129.86L87.8672 132.63V133L125.727 155.19L185.777 161.94L178.537 157.84V154.95L184.437 158.32L185.047 158.44L172.867 151.32L166.237 150.6L102.567 113.34V110.57L108.477 114.07L109.077 114.19L96.8972 106.95L90.3872 106.1L77.2572 98.51ZM112.467 126.61L115.357 126.97H116.207V127.34L120.667 129.99L121.517 130.11V131.43L117.897 131.07L112.467 127.93V126.61ZM78.4572 105.27L83.0472 107.92L83.7672 108.04V109.36L80.1472 109L74.7272 105.86V104.53L77.7372 104.89L78.4572 105.01V105.27ZM86.6672 123.6L87.3872 123.72V124.09L91.9672 126.74L92.6872 126.86V128.31L88.9472 127.83L83.6472 124.82V123.37L86.6672 123.6ZM60.0172 124.92L61.0972 125.4L60.3772 125.16V126.37L59.2972 125.65V124.44L59.4172 124.56L60.0172 124.92ZM67.3672 132.16L66.2872 132.76V128.54L67.3672 129.15V132.16ZM33.4872 109.37L33.0072 109.01L34.0872 109.73L34.6872 110.09V112.99L33.4872 113.71V109.37ZM42.8972 114.91L44.1072 115.52V116.85L42.8972 116.13V114.91ZM49.8872 118.89L50.9672 119.61V122.62L49.8872 123.23L48.6772 122.5V118.28L49.8872 118.89ZM48.6772 140.48L34.6872 132.28L33.4872 132.88L48.6772 141.8V140.48ZM18.2972 123.96L32.4072 132.29V130.96L29.7472 129.51L19.3772 123.36L18.2972 123.96ZM27.6972 105.99L30.4772 107.56L27.6972 107.2L26.4972 106.59V105.26L27.6972 105.99ZM126.697 149.89L121.387 146.75V145.43L124.287 145.67L125.127 145.79V146.15L129.587 148.8L130.427 148.92V150.37L126.697 149.89ZM153.107 148.92L153.707 149.04V149.28L158.417 152.05L159.137 152.17V153.5L155.397 153.13L150.087 150V148.55L153.107 148.92ZM149.007 172.31V166.76L144.187 169.41L149.007 172.31ZM156.717 166.89L151.287 166.17V173.53L159.727 178.59L162.497 177.02L161.417 176.3V169.55L156.717 166.89ZM13.2272 106.35L170.107 198.24L180.237 192.69L132.847 164.96V170.38L131.637 171.1L130.557 170.38V165.19L125.737 164.59L124.647 163.99V162.66L125.737 163.38V158.08L11.4172 91.04V96.35L12.4972 97.07L15.1472 98.64L17.0772 99.72V101.89V104.06L13.2272 106.35ZM168.297 173.64L164.077 171.11V176.3L168.297 173.64ZM130.557 188.35L116.447 180.15L115.237 180.75L130.547 189.68V188.35H130.557ZM49.8872 142.53L65.0772 151.46V150.13L50.9672 141.81L49.8872 142.53ZM81.3572 159.65L67.3672 151.45L66.2872 152.05L81.3572 160.98V159.65ZM98.9572 151.94L97.8772 151.22V147L98.9572 147.6L100.037 148.32V151.22L98.9572 151.94ZM114.147 178.83L100.037 170.63L98.9572 171.11L114.147 180.15V178.83ZM97.8772 169.3L83.6472 160.98L82.5672 161.7L97.8772 170.63V169.3ZM109.457 153.86L112.227 155.43L109.457 155.06L108.377 154.46V153.13L109.457 153.86ZM115.237 157.12L116.447 157.84V160.85L115.237 161.57V157.12ZM19.3772 101.05L20.8272 101.89L19.3772 102.86V104.07L18.2972 104.79V100.45L19.3772 101.05Z" fill="#F3EDE3"/>
<path fill-rule="evenodd" clip-rule="evenodd" d="M51.3272 104.42L46.0172 101.29V102.74L51.3272 105.75V104.42ZM117.897 129.63L112.467 126.62V127.95L117.897 131.09V129.63ZM80.1472 107.56L74.7272 104.55V105.88L80.1472 109.02V107.56ZM88.9572 126.49L83.6572 123.36V124.81L88.9572 127.82V126.49ZM49.8872 123.24V118.9L48.6772 118.3V122.52L49.8872 123.24ZM48.6772 140.48V141.81L33.4872 132.89V125.9L34.6872 126.62L48.6772 134.7V140.48ZM32.3972 127.94V130.95V132.28L18.2872 123.95V116.95L19.3672 117.67L32.3872 125.27V127.94H32.3972ZM126.697 148.56L121.387 145.43V146.75L126.697 149.89V148.56ZM155.397 151.69L150.087 148.55V150L155.397 153.13V151.69ZM149.967 172.91V166.04L148.997 166.76V172.31L149.967 172.91ZM130.557 165.19V170.38L131.637 171.1V165.31L130.557 165.19ZM161.427 169.54V176.29L162.507 177.01V167.48L161.427 167.36V169.54ZM115.237 180.75V173.76L116.447 174.49L130.557 182.57V188.36V189.69L115.237 180.75ZM131.637 204.15V183.28L132.847 183.89L170.107 205.83V200.28L11.4172 107.32V112.87L17.0772 116.25V137.11L18.2872 137.83V126.73L19.3672 127.34L26.3572 131.44L32.3872 134.94V144.83V146.04L33.4772 146.76V135.67L34.6772 136.27L48.6672 144.59V154.36V155.69L49.8772 156.42V145.2L50.9572 145.8L65.0672 154.12V163.89V165.21L66.2772 165.82V154.73L67.3572 155.45L81.3472 163.77V173.41V174.74L82.5572 175.35V164.26L83.6372 164.98L97.8672 173.18V183.07V184.27L98.9472 184.99V173.9L100.027 174.62L114.137 182.82V192.59V193.92L115.227 194.64V183.55L116.437 184.15L130.547 192.47V202.24V203.45L131.637 204.15ZM189.877 169.66L190.957 170.38V166.88L189.877 167.49V169.66ZM49.8872 142.53V135.42L50.9672 136.14L65.0772 144.34V150.12V151.45L49.8872 142.53ZM67.3672 145.54L81.3572 153.98V159.64V160.97L66.2872 152.04V145.05L67.3672 145.54ZM98.9572 151.94V147.6L97.8772 147V151.22L98.9572 151.94ZM100.047 164.84L114.157 173.04V178.83V180.16L98.9672 171.12V164.13L100.047 164.84ZM97.8772 169.3V170.62L82.5672 161.69V154.58L83.6472 155.19L97.8772 163.51V169.3Z" fill="#E0D9CD"/>
<path fill-rule="evenodd" clip-rule="evenodd" d="M34.6872 132.28L48.6772 140.48V134.69L34.6872 126.61V132.28ZM32.3972 144.82V134.93L26.3672 131.43L19.3772 135.77V137.1L32.3972 144.82ZM32.3972 127.94L29.7372 129.51L32.3972 130.96V127.94ZM116.447 174.49V180.15L130.557 188.35V182.56L116.447 174.49ZM176.377 202.7L170.107 205.83L132.847 183.89V203.43L141.407 198.36L167.817 214.04L182.407 206.56L176.377 202.7ZM116.447 193.9L130.557 202.22V192.45L116.447 184.13V193.9ZM100.047 184.25L114.157 192.58V182.81L100.047 174.61V184.25ZM100.047 170.62L114.157 178.82V173.03L100.047 164.83V170.62ZM83.6472 164.96V174.72L97.8772 183.05V173.16L83.6472 164.96ZM67.3672 165.19L81.3572 173.39V163.75L67.3672 155.43V165.19ZM50.9672 155.67L65.0772 163.87V154.1L50.9672 145.78V155.67ZM34.6872 146.02L48.6772 154.34V144.57L34.6872 136.25V146.02ZM65.0772 150.12V144.34L50.9672 136.14V141.8L65.0772 150.12ZM67.3672 145.54V151.45L81.3572 159.65V153.99L67.3672 145.54ZM83.6472 160.98L97.8772 169.3V163.51L83.6472 155.19V160.98Z" fill="#5B5B5B"/>
<path fill-rule="evenodd" clip-rule="evenodd" d="M54.2271 104.79L51.3271 104.42V105.75L54.2271 106.11V105.63L54.5971 105.39L55.0771 105.75V104.79H54.2271ZM83.0471 107.92L80.1471 107.56V109.01L83.7671 109.37V108.05L83.0471 107.92Z" fill="#C4B7A1"/>
<path fill-rule="evenodd" clip-rule="evenodd" d="M77.2572 95.74L11.4172 88.26L17.2072 91.76L77.2572 98.51V95.74ZM191.687 162.66L185.787 161.94L125.737 155.19V158.08L191.697 165.56V162.66H191.687Z" fill="#88A07E"/>
<path fill-rule="evenodd" clip-rule="evenodd" d="M77.2572 95.74V98.51L90.3972 106.11V103.34L77.2572 95.74ZM166.247 150.61V147.84L108.487 114.08L102.577 110.58V113.35L166.247 150.61ZM191.687 162.66L184.447 158.32L178.547 154.95V157.84L185.787 161.94L191.687 162.66ZM11.4172 91.04L125.727 158.09V155.2L87.8672 133L87.6272 132.88V132.76L82.9272 130.11V130.71L54.2272 113.95V113.59L49.6472 110.7V110.58L17.2072 91.76L11.4172 88.26V91.04Z" fill="#B3C6AC"/>
<path fill-rule="evenodd" clip-rule="evenodd" d="M49.7672 102.01L48.9272 101.53L46.0272 101.29L51.3372 104.42L54.2372 104.79L49.7672 102.01ZM112.467 126.61L117.897 129.62L120.667 129.98L116.207 127.33L115.357 126.96L112.467 126.61ZM83.0472 107.92L78.4572 105.27L77.7372 104.9L74.7272 104.54L80.1472 107.55L83.0472 107.92ZM83.6472 123.36L88.9472 126.49L91.9572 126.73L87.3772 124.08L86.6572 123.6L83.6472 123.36ZM60.3772 125.16L60.0172 124.92L59.4172 124.56L59.2972 124.44V125.65L60.3772 126.37V125.16ZM42.8972 114.91V116.12L44.1072 116.84V115.51L42.8972 114.91ZM121.387 145.42L126.697 148.55L129.597 148.79L125.137 146.14L124.297 145.66L121.387 145.42ZM150.087 148.56L155.397 151.7L158.407 152.06L153.697 149.29L153.097 148.93L150.087 148.56ZM149.967 166.04L137.547 164.71V165.56L144.177 169.42L148.997 166.77L149.967 166.04ZM164.077 171.11L168.297 173.64V168.21L164.077 167.61V171.11ZM156.717 166.89L161.427 169.55V167.38L156.717 166.89ZM172.517 173.52L169.507 175.2V177.13L172.517 175.32V173.52ZM173.597 174.72L176.607 173.04V171.11L173.597 172.92V174.72ZM174.207 179.55L175.777 178.7V175.33L174.207 176.29V179.55ZM186.747 171.35L189.877 169.66V167.49L186.747 169.3V171.35ZM125.737 164.59V163.38L124.647 162.66V163.99L125.737 164.59ZM109.457 155.07V153.86L108.377 153.14V154.47L109.457 155.07ZM12.5072 97.0701L11.4272 96.3501V97.6801L12.5072 98.2801V97.0701ZM27.6972 107.2V105.99L26.4972 105.27V106.6L27.6972 107.2Z" fill="#94876F"/>
<path fill-rule="evenodd" clip-rule="evenodd" d="M117.897 131.07L121.517 131.43V130.11L120.667 129.99L117.897 129.63V131.07ZM91.9673 126.73L88.9573 126.49V127.82L92.6973 128.3V126.85L91.9673 126.73ZM67.3673 132.16V129.15L66.2873 128.54V132.76L67.3673 132.16ZM33.4873 109.37V113.72L34.6873 113V110.1L34.0873 109.74L33.4873 109.37ZM49.8873 118.89V123.23L50.9673 122.62V119.61L49.8873 118.89ZM34.6873 126.61L33.4873 125.89V132.88L34.6873 132.28V126.61ZM19.3773 127.34L18.2973 126.73V137.83L19.3773 137.11V135.78V127.34ZM19.3773 123.36V117.69L18.2973 116.97V123.97L19.3773 123.36ZM129.587 148.8L126.687 148.56V149.89L130.427 150.37V148.92L129.587 148.8ZM155.397 151.69V153.13L159.137 153.5V152.17L158.417 152.05L155.397 151.69ZM125.737 164.59L130.557 165.19L131.637 165.31V171.1L132.847 170.38V164.96V164.11L137.557 164.71L149.977 166.04V172.91L151.297 173.52V166.16L156.727 166.88L161.437 167.36L162.517 167.48V177.01L159.747 178.58L168.067 183.4L174.217 179.9V179.54V176.28L175.787 175.32L176.027 175.2V178.82L185.307 173.52V168.33L185.427 168.21V173.64L186.757 172.92V171.35V169.3L189.887 167.49L190.967 166.88V170.38L191.687 169.9V165.56L125.727 158.08V163.38V164.59H125.737ZM168.297 173.64L164.077 176.3V171.11V167.61L168.297 168.21V173.64ZM173.597 174.72H173.477V172.91L176.367 171.1H176.607V173.03L173.597 174.72ZM172.517 173.52V175.33L169.507 177.14L169.267 177.02V175.09L172.397 173.4L172.517 173.52ZM116.447 180.15V174.49L115.237 173.76V180.75L116.447 180.15ZM131.637 204.15L132.847 203.43V183.89L131.637 183.28V204.15ZM182.647 169.78H182.527V168.81L186.627 166.28L186.747 166.4L182.647 168.81V169.78ZM176.377 202.7L182.767 199.69V194.14L170.107 200.29V205.84L176.377 202.7ZM83.6473 164.96L82.5673 164.24V175.33L83.6473 174.72V164.96ZM115.237 194.62L116.447 193.9V184.13L115.237 183.53V194.62ZM100.047 184.25V174.61L98.9673 173.89V184.98L100.047 184.25ZM67.3673 165.19V155.43L66.2873 154.71V165.8L67.3673 165.19ZM50.9673 155.67V145.78L49.8873 145.18V156.4L50.9673 155.67ZM33.4873 146.75L34.6873 146.03V136.26L33.4873 135.66V146.75ZM50.9673 136.14L49.8873 135.42V142.53L50.9673 141.81V136.14ZM67.3673 151.45V145.54L66.2873 145.06V152.05L67.3673 151.45ZM98.9573 147.59V151.93L100.037 151.21V148.31L98.9573 147.59ZM100.047 170.62V164.83L98.9673 164.11V171.1L100.047 170.62ZM83.6473 160.98V155.19L82.5673 154.58V161.69L83.6473 160.98ZM109.457 155.07L112.227 155.44L109.457 153.87V155.07ZM115.237 157.12V161.58L116.447 160.86V157.85L115.237 157.12ZM27.6973 105.99V107.2L30.4773 107.56L27.6973 105.99ZM12.5073 97.0701V98.2801L15.1573 98.6501L12.5073 97.0701ZM19.3773 102.85V101.04L18.2973 100.44V104.78L19.3773 104.06V102.85Z" fill="#C4B7A2"/>
<path fill-rule="evenodd" clip-rule="evenodd" d="M54.2273 113.11V113.59V113.95L82.9273 130.71V130.11V122.39L75.3273 117.93V116.48L62.0673 108.77V109.85V110.21L54.2273 105.63V106.11V113.11Z" fill="#0099FF"/>
<path fill-rule="evenodd" clip-rule="evenodd" d="M180.237 192.69L170.107 198.24V200.29L182.767 194.14V191.24L180.237 192.69ZM17.0872 101.89L11.4272 105.15L13.2372 106.35L17.0972 104.06V101.89H17.0872ZM19.3772 101.05V102.86L20.8272 101.89L19.3772 101.05Z" fill="#906E69"/>
<path fill-rule="evenodd" clip-rule="evenodd" d="M132.847 164.96L180.237 192.69L182.767 191.24L168.057 183.4L159.737 178.58L151.297 173.52L149.977 172.91L149.007 172.31L144.187 169.41L137.557 165.55V164.7L132.847 164.1V164.96ZM170.107 198.24L13.2272 106.35L11.4172 105.15V107.32L170.097 200.29V198.24H170.107Z" fill="#C4A5A1"/>
<path fill-rule="evenodd" clip-rule="evenodd" d="M62.4273 108.64L75.6973 116.36V111.18L60.9773 102.61V107.8L62.4273 108.64Z" fill="#FF0000"/>
<path fill-rule="evenodd" clip-rule="evenodd" d="M118.067 61.86C118.067 64.03 119.527 65.88 122.467 67.39C125.287 68.91 128.767 69.67 132.897 69.67C137.027 69.67 140.557 68.91 143.497 67.39C146.317 65.87 147.727 64.02 147.727 61.86C147.727 59.69 146.317 57.84 143.497 56.32C140.557 54.8 137.027 54.04 132.897 54.04C128.767 54.04 125.287 54.8 122.467 56.32C119.527 57.84 118.067 59.69 118.067 61.86Z" fill="#474646"/>
<path fill-rule="evenodd" clip-rule="evenodd" d="M127.257 43.2301C126.467 50.0801 126.377 55.6901 126.987 60.0601C126.997 60.1501 127.027 60.2401 127.057 60.3201C127.997 64.6501 131.127 67.2701 136.467 68.2001V68.1301C144.397 67.3401 148.487 65.0901 148.757 61.3901L148.897 40.1501L148.757 43.4901C147.777 44.3801 146.657 45.1301 145.417 45.7601C138.477 49.6001 132.417 48.7601 127.257 43.2301Z" fill="#C4B7A0"/>
<path fill-rule="evenodd" clip-rule="evenodd" d="M148.897 40.1601C143.737 34.7301 137.677 33.8801 130.727 37.6301C129.567 38.1601 128.457 38.9201 127.387 39.9001L127.247 43.2401C132.407 48.7601 138.467 49.6001 145.407 45.7801C146.657 45.1601 147.777 44.4001 148.747 43.5101L148.897 40.1601Z" fill="#F3EDE1"/>
<path fill-rule="evenodd" clip-rule="evenodd" d="M141.167 35.4499L137.427 37.6199L133.327 35.2099L137.067 32.9199L141.167 35.4499Z" fill="#F5F1E1"/>
<path fill-rule="evenodd" clip-rule="evenodd" d="M141.167 35.45V41.9599L137.427 44.0099V37.6199L141.167 35.45Z" fill="#DBD8CD"/>
<path fill-rule="evenodd" clip-rule="evenodd" d="M137.067 44.01L133.087 41.72V35.21L137.067 37.62V44.01Z" fill="#8A8881"/>
<path fill-rule="evenodd" clip-rule="evenodd" d="M137.797 0.79C137.797 0.55 137.727 0.35 137.587 0.21C137.437 0.08 137.247 0 137.007 0H136.937C136.697 0 136.497 0.08 136.357 0.22C136.207 0.36 136.137 0.56 136.137 0.8V34.76C136.137 35 136.207 35.19 136.357 35.34C136.497 35.48 136.697 35.55 136.937 35.55H137.007C137.247 35.55 137.437 35.48 137.587 35.34C137.727 35.19 137.797 35 137.797 34.76V0.79Z" fill="#383838"/>
<path fill-rule="evenodd" clip-rule="evenodd" d="M125.637 2.07991C125.157 2.56991 124.657 2.29991 124.107 1.23991V8.70991C124.847 9.41991 125.547 9.56991 126.227 9.12991C126.907 8.68991 127.487 8.25991 127.957 7.81991C128.427 7.37991 128.797 7.10991 129.067 6.99991C129.527 6.81991 129.967 6.74991 130.397 6.78991C131.217 6.99991 131.957 7.32991 132.627 7.77991C133.037 8.06991 133.457 8.31991 133.887 8.52991C134.117 8.63991 134.357 8.71991 134.607 8.76991C134.887 8.76991 135.127 8.74991 135.357 8.69991V1.92991C135.177 1.78991 134.977 1.65991 134.777 1.51991C134.397 1.30991 133.897 1.05991 133.297 0.769909C132.687 0.479909 131.967 0.279909 131.137 0.159909C130.317 0.0399093 129.387 0.199909 128.367 0.639909C127.347 1.07991 126.757 1.29991 126.587 1.31991C126.427 1.33991 126.107 1.58991 125.637 2.07991Z" fill="url(#paint1_linear)"/>
<path fill-rule="evenodd" clip-rule="evenodd" d="M102.987 120.87H105.357L105.217 116.34C105.217 116.16 105.097 116.01 104.867 115.89C104.687 115.77 104.457 115.71 104.187 115.71H104.147C103.907 115.71 103.667 115.77 103.427 115.89C103.247 116.01 103.157 116.15 103.157 116.34L102.987 120.87ZM102.497 136.33L102.137 146.69C102.137 147.31 102.327 147.87 102.717 148.34C103.137 148.82 103.607 149.08 104.157 149.1H104.247C104.787 149.07 105.247 148.82 105.637 148.34C106.027 147.86 106.217 147.31 106.217 146.69L105.857 136.33H102.497Z" fill="#85898C"/>
<path fill-rule="evenodd" clip-rule="evenodd" d="M105.357 120.87H102.987L102.847 124.45H105.447L105.357 120.87ZM105.637 129.61H102.727L102.507 136.33H105.867L105.637 129.61Z" fill="#FF0000"/>
<path fill-rule="evenodd" clip-rule="evenodd" d="M102.857 124.45L102.717 129.61H105.637L105.447 124.45H102.857Z" fill="white"/>
<path fill-rule="evenodd" clip-rule="evenodd" d="M83.4574 107.84H85.8274L85.6874 103.31C85.6874 103.13 85.5674 102.98 85.3274 102.86C85.1474 102.74 84.9274 102.68 84.6574 102.68H84.6174C84.3774 102.68 84.1374 102.74 83.8974 102.86C83.7174 102.98 83.6274 103.13 83.6274 103.31L83.4574 107.84ZM82.9574 123.31L82.5974 133.67C82.5974 134.29 82.7974 134.85 83.1774 135.32C83.5974 135.8 84.0674 136.06 84.6174 136.09H84.7074C85.2474 136.06 85.7074 135.81 86.0974 135.32C86.4874 134.84 86.6774 134.29 86.6774 133.67L86.3174 123.31H82.9574Z" fill="#85898C"/>
<path fill-rule="evenodd" clip-rule="evenodd" d="M85.8275 107.84H83.4575L83.3175 111.42H85.9175L85.8275 107.84ZM86.3175 123.31L86.0975 116.59H83.1875L82.9675 123.31H86.3175Z" fill="#FF0000"/>
<path fill-rule="evenodd" clip-rule="evenodd" d="M83.1875 116.59H86.0975L85.9175 111.43H83.3175L83.1875 116.59Z" fill="white"/>
<path fill-rule="evenodd" clip-rule="evenodd" d="M54.8773 92.2899H57.2573L57.1173 87.7599C57.1173 87.5799 56.9973 87.4299 56.7573 87.3099C56.5773 87.1899 56.3473 87.1299 56.0873 87.1299H56.0373C55.7973 87.1299 55.5573 87.1999 55.3173 87.3099C55.1373 87.4299 55.0473 87.5799 55.0473 87.7599L54.8773 92.2899ZM54.3773 107.75L54.0173 118.11C54.0173 118.74 54.2073 119.29 54.5973 119.77C55.0173 120.25 55.4873 120.5 56.0373 120.53H56.1273C56.6673 120.5 57.1273 120.25 57.5173 119.77C57.9073 119.29 58.0973 118.74 58.0973 118.11L57.7373 107.75H54.3773Z" fill="#85898C"/>
<path fill-rule="evenodd" clip-rule="evenodd" d="M57.2575 92.2898H54.8775L54.7375 95.8798H57.3375L57.2575 92.2898ZM57.5175 101.03H54.6075L54.3875 107.75H57.7475L57.5175 101.03Z" fill="#FF0000"/>
<path fill-rule="evenodd" clip-rule="evenodd" d="M54.7374 95.8699L54.6074 101.03H57.5174L57.3374 95.8699H54.7374Z" fill="white"/>
<path fill-rule="evenodd" clip-rule="evenodd" d="M35.3373 81.92H37.7173L37.5773 77.39C37.5773 77.21 37.4573 77.06 37.2173 76.94C37.0373 76.82 36.8173 76.76 36.5473 76.76H36.4973C36.2573 76.76 36.0173 76.82 35.7773 76.94C35.5973 77.06 35.5173 77.21 35.5173 77.39L35.3373 81.92ZM34.8473 97.38L34.4973 107.74C34.4973 108.36 34.6873 108.92 35.0773 109.39C35.4973 109.87 35.9773 110.13 36.5073 110.16H36.5973C37.1373 110.13 37.5973 109.87 37.9873 109.39C38.3773 108.91 38.5673 108.36 38.5673 107.74L38.2073 97.38H34.8473Z" fill="#85898C"/>
<path fill-rule="evenodd" clip-rule="evenodd" d="M37.7174 81.9199H35.3374L35.2074 85.4999H37.8074L37.7174 81.9199ZM38.2074 97.3799L37.9874 90.6499H35.0774L34.8474 97.3799H38.2074Z" fill="#FF0000"/>
<path fill-rule="evenodd" clip-rule="evenodd" d="M35.0774 90.66H37.9874L37.8074 85.5H35.2074L35.0774 90.66Z" fill="white"/>
<path fill-rule="evenodd" clip-rule="evenodd" d="M206.357 167.47L219.177 176.02L290.387 134.71L274.727 127.59L206.357 167.47Z" fill="#FFFCF8"/>
<path d="M114.147 87.47L114.767 87.83" stroke="#FF1D25" stroke-width="0.9921" stroke-linecap="round" stroke-linejoin="round"/>
<path d="M115.987 88.54L222.737 151.09" stroke="#FF1D25" stroke-width="0.9921" stroke-linecap="round" stroke-linejoin="round" stroke-dasharray="1.41 1.41"/>
<path d="M223.347 151.45L223.967 151.8" stroke="#FF1D25" stroke-width="0.9921" stroke-linecap="round" stroke-linejoin="round"/>
<path d="M134.097 76.0801L134.707 76.4301" stroke="#FF1D25" stroke-width="0.9921" stroke-linecap="round" stroke-linejoin="round"/>
<path d="M135.927 77.1501L242.677 139.69" stroke="#FF1D25" stroke-width="0.9921" stroke-linecap="round" stroke-linejoin="round" stroke-dasharray="1.41 1.41"/>
<path d="M243.287 140.05L243.907 140.41" stroke="#FF1D25" stroke-width="0.9921" stroke-linecap="round" stroke-linejoin="round"/>
<path d="M88.4973 99.1101L197.467 165.03" stroke="#5B5B5B" stroke-width="2.8346" stroke-miterlimit="10" stroke-linecap="round" stroke-linejoin="round"/>
<defs>
<linearGradient id="paint0_linear" x1="78.7682" y1="36.348" x2="41.9391" y2="36.348" gradientUnits="userSpaceOnUse">
<stop stop-color="#770000"/>
<stop offset="0.1843" stop-color="#FF0000"/>
<stop offset="0.2627" stop-color="#FFA1A1"/>
<stop offset="0.3725" stop-color="#FF0000"/>
<stop offset="0.4471" stop-color="#9D0000"/>
<stop offset="0.5216" stop-color="#FF0000"/>
<stop offset="0.6039" stop-color="#FF8585"/>
<stop offset="0.698" stop-color="#FF0000"/>
<stop offset="0.9529" stop-color="#B20000"/>
</linearGradient>
<linearGradient id="paint1_linear" x1="133.753" y1="4.75526" x2="96.9041" y2="4.75526" gradientUnits="userSpaceOnUse">
<stop stop-color="#770000"/>
<stop offset="0.1843" stop-color="#FF0000"/>
<stop offset="0.2627" stop-color="#FFA1A1"/>
<stop offset="0.3725" stop-color="#FF0000"/>
<stop offset="0.4471" stop-color="#9D0000"/>
<stop offset="0.5216" stop-color="#FF0000"/>
<stop offset="0.6039" stop-color="#FF8585"/>
<stop offset="0.698" stop-color="#FF0000"/>
<stop offset="0.9529" stop-color="#B20000"/>
</linearGradient>
</defs>
</svg>
