<svg width="304" height="226" viewBox="0 0 304 226" fill="none" xmlns="http://www.w3.org/2000/svg">
<g clip-path="url(#clip0)">
<path fill-rule="evenodd" clip-rule="evenodd" d="M49.7702 173.66C49.7702 173.66 118.8 229.75 150.09 225.44C181.38 221.13 207.26 200.63 230.99 193.08C254.72 185.53 307.58 160.72 303.26 142.38C298.95 124.04 271.98 107.86 233.15 84.1301C194.32 60.4001 154.4 33.43 99.3902 52.85C44.3802 72.2701 6.30018 80.6101 2.31018 103.55C-2.00982 128.36 -6.31982 135.91 49.7702 173.66Z" fill="#BEE26D"/>
<path fill-rule="evenodd" clip-rule="evenodd" d="M120.821 59.51L84.3306 80.65L233.661 167.03L270.151 145.88L120.821 59.51Z" fill="#FFFCF8"/>
<path fill-rule="evenodd" clip-rule="evenodd" d="M152.49 57.3101L276.24 128.89L207.66 168.57L83.9004 97.0001L152.49 57.3101Z" fill="#FFFCF8"/>
<path fill-rule="evenodd" clip-rule="evenodd" d="M153.69 64.0701L96.7202 96.9501L208.32 161.51L265.29 128.62L153.69 64.0701Z" fill="#0B828D"/>
<path fill-rule="evenodd" clip-rule="evenodd" d="M153.79 69.5801L101.5 99.7701L208.35 161.57L260.63 131.37L153.79 69.5801Z" fill="#5BCCBD"/>
<path fill-rule="evenodd" clip-rule="evenodd" d="M153.88 75.3801L106.63 102.66L208.4 161.52L255.64 134.24L153.88 75.3801Z" fill="#6CE4D4"/>
<path fill-rule="evenodd" clip-rule="evenodd" d="M145.631 80.1301L139.871 83.4501L241.631 142.31L247.391 138.98L145.631 80.1301Z" fill="#3DCCBD"/>
<path fill-rule="evenodd" clip-rule="evenodd" d="M123.56 92.3L117.8 95.63L219.56 154.49L225.32 151.16L123.56 92.3Z" fill="#3DCCBD"/>
<path fill-rule="evenodd" clip-rule="evenodd" d="M62.0703 93.58C62.0703 95.75 63.5403 97.6 66.4703 99.11C69.2903 100.63 72.7703 101.39 76.9003 101.39C81.0303 101.39 84.5603 100.63 87.4903 99.11C90.3203 97.59 91.7303 95.75 91.7303 93.58C91.7303 91.41 90.3203 89.56 87.4903 88.04C84.5603 86.52 81.0303 85.76 76.9003 85.76C72.7703 85.76 69.2903 86.52 66.4703 88.04C63.5403 89.55 62.0703 91.4 62.0703 93.58Z" fill="#474646"/>
<path fill-rule="evenodd" clip-rule="evenodd" d="M92.9105 71.76L92.7705 75.1C91.7905 75.99 90.6805 76.75 89.4305 77.37C82.4805 81.2 76.4305 80.36 71.2605 74.83C70.4705 81.68 70.3805 87.29 70.9905 91.66C71.0005 91.75 71.0305 91.84 71.0605 91.93C72.0005 96.25 75.1305 98.88 80.4805 99.81V99.74C88.4005 98.95 92.4905 96.7 92.7705 92.99L92.9105 71.76Z" fill="#C4B7A0"/>
<path fill-rule="evenodd" clip-rule="evenodd" d="M71.2705 74.8301C76.4405 80.3501 82.4905 81.1901 89.4405 77.3701C90.6905 76.7501 91.8005 75.9901 92.7805 75.1001L92.9205 71.7601C87.7605 66.3301 81.7005 65.4801 74.7505 69.2201C73.6005 69.7601 72.4805 70.5201 71.4105 71.4901L71.2705 74.8301Z" fill="#F3EDE1"/>
<path fill-rule="evenodd" clip-rule="evenodd" d="M81.3301 69.2099L85.0601 67.1599V73.6699L81.3301 75.7199V69.2099Z" fill="#DBD8CD"/>
<path fill-rule="evenodd" clip-rule="evenodd" d="M77.1001 66.9199L80.9601 69.2099V75.7199L77.1001 73.3199V66.9199Z" fill="#8A8881"/>
<path fill-rule="evenodd" clip-rule="evenodd" d="M81.3301 69.21L77.3501 66.92L80.9601 64.51L85.0601 67.16L81.3301 69.21Z" fill="#F5F1E1"/>
<path fill-rule="evenodd" clip-rule="evenodd" d="M81.7 32.51C81.7 32.27 81.63 32.08 81.48 31.93C81.34 31.79 81.14 31.72 80.91 31.72H80.83C80.59 31.72 80.4 31.79 80.25 31.93C80.11 32.08 80.04 32.27 80.04 32.51V66.47C80.04 66.71 80.11 66.91 80.25 67.05C80.4 67.19 80.59 67.27 80.83 67.27H80.91C81.15 67.27 81.34 67.19 81.48 67.05C81.63 66.91 81.7 66.71 81.7 66.47V32.51Z" fill="#383838"/>
<path fill-rule="evenodd" clip-rule="evenodd" d="M69.6601 33.68C69.1901 34.17 68.6801 33.9 68.1401 32.84V40.31C68.8701 41.02 69.5801 41.16 70.2501 40.73C70.9301 40.29 71.5101 39.86 71.9801 39.42C72.4501 38.98 72.8201 38.71 73.0901 38.6C73.5401 38.42 73.9901 38.35 74.4301 38.39C75.2501 38.6 75.9901 38.93 76.6501 39.38C77.0601 39.68 77.4801 39.93 77.9201 40.13C78.1401 40.24 78.3901 40.32 78.6401 40.37C78.9101 40.37 79.1601 40.35 79.3901 40.3V33.51C79.2101 33.37 79.0101 33.23 78.8101 33.1C78.4301 32.89 77.9301 32.65 77.3301 32.35C76.7201 32.06 76.0001 31.86 75.1801 31.74C74.3601 31.62 73.4301 31.78 72.4101 32.22C71.4001 32.66 70.8001 32.88 70.6301 32.9C70.4501 32.93 70.1301 33.18 69.6601 33.68Z" fill="url(#paint0_linear)"/>
<path fill-rule="evenodd" clip-rule="evenodd" d="M76.2604 98.51L16.2104 91.76L48.6504 110.57V110.69L49.0104 110.57L53.2304 113.1V106.1L50.3304 105.74L45.0204 102.73V101.28L47.9204 101.52L48.7604 101.64V102L53.2204 104.77H54.0604V105.73L61.0604 109.83V108.75L61.4304 108.63L59.9804 107.79V102.6L74.6904 111.17V116.35V117.8L82.2904 122.14V129.86L86.8704 132.63V133L124.73 155.19L184.78 161.94L177.54 157.84V154.95L183.44 158.32L184.05 158.44L171.87 151.32L165.24 150.6L101.57 113.34V110.57L107.48 114.07L108.08 114.19L95.9004 106.95L89.3904 106.1L76.2604 98.51ZM111.47 126.61L114.36 126.97H115.21V127.34L119.67 129.99L120.52 130.11V131.43L116.9 131.07L111.47 127.93V126.61ZM77.4604 105.27L82.0504 107.92L82.7704 108.04V109.36L79.1504 109L73.7304 105.86V104.53L76.7404 104.89L77.4604 105.01V105.27ZM85.6704 123.6L86.3904 123.72V124.09L90.9704 126.74L91.6904 126.86V128.31L87.9504 127.83L82.6504 124.82V123.37L85.6704 123.6ZM59.0204 124.92L60.1004 125.4L59.3804 125.16V126.37L58.3004 125.65V124.44L58.4204 124.56L59.0204 124.92ZM66.3704 132.16L65.2904 132.76V128.54L66.3704 129.15V132.16ZM32.4904 109.37L32.0104 109.01L33.0904 109.73L33.6904 110.09V112.99L32.4904 113.71V109.37ZM41.9004 114.91L43.1104 115.52V116.85L41.9004 116.13V114.91ZM48.8904 118.89L49.9704 119.61V122.62L48.8904 123.23L47.6804 122.5V118.28L48.8904 118.89ZM47.6804 140.48L33.6904 132.28L32.4904 132.88L47.6804 141.8V140.48ZM17.3004 123.96L31.4104 132.29V130.96L28.7504 129.51L18.3804 123.36L17.3004 123.96ZM26.7004 105.99L29.4804 107.56L26.7004 107.2L25.5004 106.59V105.26L26.7004 105.99ZM125.7 149.89L120.39 146.75V145.43L123.29 145.67L124.13 145.79V146.15L128.59 148.8L129.43 148.92V150.37L125.7 149.89ZM152.11 148.92L152.71 149.04V149.28L157.42 152.05L158.14 152.17V153.5L154.4 153.13L149.09 150V148.55L152.11 148.92ZM148.01 172.31V166.76L143.19 169.41L148.01 172.31ZM155.72 166.89L150.29 166.17V173.53L158.73 178.59L161.5 177.02L160.42 176.3V169.55L155.72 166.89ZM12.2304 106.35L169.11 198.24L179.24 192.69L131.85 164.96V170.38L130.64 171.1L129.56 170.38V165.19L124.74 164.59L123.65 163.99V162.66L124.74 163.38V158.08L10.4204 91.04V96.35L11.5004 97.07L14.1504 98.64L16.0804 99.72V101.89V104.06L12.2304 106.35ZM167.3 173.64L163.08 171.11V176.3L167.3 173.64ZM129.56 188.35L115.45 180.15L114.24 180.75L129.55 189.68V188.35H129.56ZM48.8904 142.53L64.0804 151.46V150.13L49.9704 141.81L48.8904 142.53ZM80.3604 159.65L66.3704 151.45L65.2904 152.05L80.3604 160.98V159.65ZM97.9604 151.94L96.8804 151.22V147L97.9604 147.6L99.0404 148.32V151.22L97.9604 151.94ZM113.15 178.83L99.0404 170.63L97.9604 171.11L113.15 180.15V178.83ZM96.8804 169.3L82.6504 160.98L81.5704 161.7L96.8804 170.63V169.3ZM108.46 153.86L111.23 155.43L108.46 155.06L107.38 154.46V153.13L108.46 153.86ZM114.24 157.12L115.45 157.84V160.85L114.24 161.57V157.12ZM18.3804 101.05L19.8304 101.89L18.3804 102.86V104.07L17.3004 104.79V100.45L18.3804 101.05Z" fill="#F3EDE3"/>
<path fill-rule="evenodd" clip-rule="evenodd" d="M50.3304 104.42L45.0204 101.29V102.74L50.3304 105.75V104.42ZM116.9 129.63L111.47 126.62V127.95L116.9 131.09V129.63ZM79.1504 107.56L73.7304 104.55V105.88L79.1504 109.02V107.56ZM87.9604 126.49L82.6604 123.36V124.81L87.9604 127.82V126.49ZM48.8904 123.24V118.9L47.6804 118.3V122.52L48.8904 123.24ZM47.6804 140.48V141.81L32.4904 132.89V125.9L33.6904 126.62L47.6804 134.7V140.48ZM31.4004 127.94V130.95V132.28L17.2904 123.95V116.95L18.3704 117.67L31.3904 125.27V127.94H31.4004ZM125.7 148.56L120.39 145.43V146.75L125.7 149.89V148.56ZM154.4 151.69L149.09 148.55V150L154.4 153.13V151.69ZM148.97 172.91V166.04L148 166.76V172.31L148.97 172.91ZM129.56 165.19V170.38L130.64 171.1V165.31L129.56 165.19ZM160.43 169.54V176.29L161.51 177.01V167.48L160.43 167.36V169.54ZM114.24 180.75V173.76L115.45 174.49L129.56 182.57V188.36V189.69L114.24 180.75ZM130.64 204.15V183.28L131.85 183.89L169.11 205.83V200.28L10.4204 107.32V112.87L16.0804 116.25V137.11L17.2904 137.83V126.73L18.3704 127.34L25.3604 131.44L31.3904 134.94V144.83V146.04L32.4804 146.76V135.67L33.6804 136.27L47.6704 144.59V154.36V155.69L48.8804 156.42V145.2L49.9604 145.8L64.0704 154.12V163.89V165.21L65.2804 165.82V154.73L66.3604 155.45L80.3504 163.77V173.41V174.74L81.5604 175.35V164.26L82.6404 164.98L96.8704 173.18V183.07V184.27L97.9504 184.99V173.9L99.0304 174.62L113.14 182.82V192.59V193.92L114.23 194.64V183.55L115.44 184.15L129.55 192.47V202.24V203.45L130.64 204.15ZM188.88 169.66L189.96 170.38V166.88L188.88 167.49V169.66ZM48.8904 142.53V135.42L49.9704 136.14L64.0804 144.34V150.12V151.45L48.8904 142.53ZM66.3704 145.54L80.3604 153.98V159.64V160.97L65.2904 152.04V145.05L66.3704 145.54ZM97.9604 151.94V147.6L96.8804 147V151.22L97.9604 151.94ZM99.0504 164.84L113.16 173.04V178.83V180.16L97.9704 171.12V164.13L99.0504 164.84ZM96.8804 169.3V170.62L81.5704 161.69V154.58L82.6504 155.19L96.8804 163.51V169.3Z" fill="#E0D9CD"/>
<path fill-rule="evenodd" clip-rule="evenodd" d="M33.6904 132.28L47.6804 140.48V134.69L33.6904 126.61V132.28ZM31.4004 144.82V134.93L25.3704 131.43L18.3804 135.77V137.1L31.4004 144.82ZM31.4004 127.94L28.7404 129.51L31.4004 130.96V127.94ZM115.45 174.49V180.15L129.56 188.35V182.56L115.45 174.49ZM175.38 202.7L169.11 205.83L131.85 183.89V203.43L140.41 198.36L166.82 214.04L181.41 206.56L175.38 202.7ZM115.45 193.9L129.56 202.22V192.45L115.45 184.13V193.9ZM99.0504 184.25L113.16 192.58V182.81L99.0504 174.61V184.25ZM99.0504 170.62L113.16 178.82V173.03L99.0504 164.83V170.62ZM82.6504 164.96V174.72L96.8804 183.05V173.16L82.6504 164.96ZM66.3704 165.19L80.3604 173.39V163.75L66.3704 155.43V165.19ZM49.9704 155.67L64.0804 163.87V154.1L49.9704 145.78V155.67ZM33.6904 146.02L47.6804 154.34V144.57L33.6904 136.25V146.02ZM64.0804 150.12V144.34L49.9704 136.14V141.8L64.0804 150.12ZM66.3704 145.54V151.45L80.3604 159.65V153.99L66.3704 145.54ZM82.6504 160.98L96.8804 169.3V163.51L82.6504 155.19V160.98Z" fill="#5B5B5B"/>
<path fill-rule="evenodd" clip-rule="evenodd" d="M53.2306 104.79L50.3306 104.42V105.75L53.2306 106.11V105.63L53.6006 105.39L54.0806 105.75V104.79H53.2306ZM82.0506 107.92L79.1506 107.56V109.01L82.7706 109.37V108.05L82.0506 107.92Z" fill="#C4B7A1"/>
<path fill-rule="evenodd" clip-rule="evenodd" d="M76.2604 95.74L10.4204 88.26L16.2104 91.76L76.2604 98.51V95.74ZM190.69 162.66L184.79 161.94L124.74 155.19V158.08L190.7 165.56V162.66H190.69Z" fill="#88A07E"/>
<path fill-rule="evenodd" clip-rule="evenodd" d="M76.2604 95.74V98.51L89.4004 106.11V103.34L76.2604 95.74ZM165.25 150.61V147.84L107.49 114.08L101.58 110.58V113.35L165.25 150.61ZM190.69 162.66L183.45 158.32L177.55 154.95V157.84L184.79 161.94L190.69 162.66ZM10.4204 91.04L124.73 158.09V155.2L86.8704 133L86.6304 132.88V132.76L81.9304 130.11V130.71L53.2304 113.95V113.59L48.6504 110.7V110.58L16.2104 91.76L10.4204 88.26V91.04Z" fill="#B3C6AC"/>
<path fill-rule="evenodd" clip-rule="evenodd" d="M48.7702 102.01L47.9302 101.53L45.0302 101.29L50.3402 104.42L53.2402 104.79L48.7702 102.01ZM111.47 126.61L116.9 129.62L119.67 129.98L115.21 127.33L114.36 126.96L111.47 126.61ZM82.0502 107.92L77.4602 105.27L76.7402 104.9L73.7302 104.54L79.1502 107.55L82.0502 107.92ZM82.6502 123.36L87.9502 126.49L90.9602 126.73L86.3802 124.08L85.6602 123.6L82.6502 123.36ZM59.3802 125.16L59.0202 124.92L58.4202 124.56L58.3002 124.44V125.65L59.3802 126.37V125.16ZM41.9002 114.91V116.12L43.1102 116.84V115.51L41.9002 114.91ZM120.39 145.42L125.7 148.55L128.6 148.79L124.14 146.14L123.3 145.66L120.39 145.42ZM149.09 148.56L154.4 151.7L157.41 152.06L152.7 149.29L152.1 148.93L149.09 148.56ZM148.97 166.04L136.55 164.71V165.56L143.18 169.42L148 166.77L148.97 166.04ZM163.08 171.11L167.3 173.64V168.21L163.08 167.61V171.11ZM155.72 166.89L160.43 169.55V167.38L155.72 166.89ZM171.52 173.52L168.51 175.2V177.13L171.52 175.32V173.52ZM172.6 174.72L175.61 173.04V171.11L172.6 172.92V174.72ZM173.21 179.55L174.78 178.7V175.33L173.21 176.29V179.55ZM185.75 171.35L188.88 169.66V167.49L185.75 169.3V171.35ZM124.74 164.59V163.38L123.65 162.66V163.99L124.74 164.59ZM108.46 155.07V153.86L107.38 153.14V154.47L108.46 155.07ZM11.5102 97.0701L10.4302 96.3501V97.6801L11.5102 98.2801V97.0701ZM26.7002 107.2V105.99L25.5002 105.27V106.6L26.7002 107.2Z" fill="#94876F"/>
<path fill-rule="evenodd" clip-rule="evenodd" d="M116.9 131.07L120.52 131.43V130.11L119.67 129.99L116.9 129.63V131.07ZM90.9703 126.73L87.9603 126.49V127.82L91.7002 128.3V126.85L90.9703 126.73ZM66.3703 132.16V129.15L65.2903 128.54V132.76L66.3703 132.16ZM32.4903 109.37V113.72L33.6903 113V110.1L33.0903 109.74L32.4903 109.37ZM48.8903 118.89V123.23L49.9703 122.62V119.61L48.8903 118.89ZM33.6903 126.61L32.4903 125.89V132.88L33.6903 132.28V126.61ZM18.3803 127.34L17.3003 126.73V137.83L18.3803 137.11V135.78V127.34ZM18.3803 123.36V117.69L17.3003 116.97V123.97L18.3803 123.36ZM128.59 148.8L125.69 148.56V149.89L129.43 150.37V148.92L128.59 148.8ZM154.4 151.69V153.13L158.14 153.5V152.17L157.42 152.05L154.4 151.69ZM124.74 164.59L129.56 165.19L130.64 165.31V171.1L131.85 170.38V164.96V164.11L136.56 164.71L148.98 166.04V172.91L150.3 173.52V166.16L155.73 166.88L160.44 167.36L161.52 167.48V177.01L158.75 178.58L167.07 183.4L173.22 179.9V179.54V176.28L174.79 175.32L175.03 175.2V178.82L184.31 173.52V168.33L184.43 168.21V173.64L185.76 172.92V171.35V169.3L188.89 167.49L189.97 166.88V170.38L190.69 169.9V165.56L124.73 158.08V163.38V164.59H124.74ZM167.3 173.64L163.08 176.3V171.11V167.61L167.3 168.21V173.64ZM172.6 174.72H172.48V172.91L175.37 171.1H175.61V173.03L172.6 174.72ZM171.52 173.52V175.33L168.51 177.14L168.27 177.02V175.09L171.4 173.4L171.52 173.52ZM115.45 180.15V174.49L114.24 173.76V180.75L115.45 180.15ZM130.64 204.15L131.85 203.43V183.89L130.64 183.28V204.15ZM181.65 169.78H181.53V168.81L185.63 166.28L185.75 166.4L181.65 168.81V169.78ZM175.38 202.7L181.77 199.69V194.14L169.11 200.29V205.84L175.38 202.7ZM82.6503 164.96L81.5703 164.24V175.33L82.6503 174.72V164.96ZM114.24 194.62L115.45 193.9V184.13L114.24 183.53V194.62ZM99.0503 184.25V174.61L97.9703 173.89V184.98L99.0503 184.25ZM66.3703 165.19V155.43L65.2903 154.71V165.8L66.3703 165.19ZM49.9703 155.67V145.78L48.8903 145.18V156.4L49.9703 155.67ZM32.4903 146.75L33.6903 146.03V136.26L32.4903 135.66V146.75ZM49.9703 136.14L48.8903 135.42V142.53L49.9703 141.81V136.14ZM66.3703 151.45V145.54L65.2903 145.06V152.05L66.3703 151.45ZM97.9603 147.59V151.93L99.0403 151.21V148.31L97.9603 147.59ZM99.0503 170.62V164.83L97.9703 164.11V171.1L99.0503 170.62ZM82.6503 160.98V155.19L81.5703 154.58V161.69L82.6503 160.98ZM108.46 155.07L111.23 155.44L108.46 153.87V155.07ZM114.24 157.12V161.58L115.45 160.86V157.85L114.24 157.12ZM26.7003 105.99V107.2L29.4803 107.56L26.7003 105.99ZM11.5103 97.0701V98.2801L14.1603 98.6501L11.5103 97.0701ZM18.3803 102.85V101.04L17.3003 100.44V104.78L18.3803 104.06V102.85Z" fill="#C4B7A2"/>
<path fill-rule="evenodd" clip-rule="evenodd" d="M53.2305 113.11V113.59V113.95L81.9305 130.71V130.11V122.39L74.3305 117.93V116.48L61.0705 108.77V109.85V110.21L53.2305 105.63V106.11V113.11Z" fill="#0099FF"/>
<path fill-rule="evenodd" clip-rule="evenodd" d="M179.24 192.69L169.11 198.24V200.29L181.77 194.14V191.24L179.24 192.69ZM16.0902 101.89L10.4302 105.15L12.2402 106.35L16.1002 104.06V101.89H16.0902ZM18.3802 101.05V102.86L19.8302 101.89L18.3802 101.05Z" fill="#906E69"/>
<path fill-rule="evenodd" clip-rule="evenodd" d="M131.85 164.96L179.24 192.69L181.77 191.24L167.06 183.4L158.74 178.58L150.3 173.52L148.98 172.91L148.01 172.31L143.19 169.41L136.56 165.55V164.7L131.85 164.1V164.96ZM169.11 198.24L12.2304 106.35L10.4204 105.15V107.32L169.1 200.29V198.24H169.11Z" fill="#C4A5A1"/>
<path fill-rule="evenodd" clip-rule="evenodd" d="M61.4305 108.64L74.7005 116.36V111.18L59.9805 102.61V107.8L61.4305 108.64Z" fill="#FF0000"/>
<path fill-rule="evenodd" clip-rule="evenodd" d="M117.07 61.86C117.07 64.03 118.53 65.88 121.47 67.39C124.29 68.91 127.77 69.67 131.9 69.67C136.03 69.67 139.56 68.91 142.5 67.39C145.32 65.87 146.73 64.02 146.73 61.86C146.73 59.69 145.32 57.84 142.5 56.32C139.56 54.8 136.03 54.04 131.9 54.04C127.77 54.04 124.29 54.8 121.47 56.32C118.53 57.84 117.07 59.69 117.07 61.86Z" fill="#474646"/>
<path fill-rule="evenodd" clip-rule="evenodd" d="M126.26 43.2301C125.47 50.0801 125.38 55.6901 125.99 60.0601C126 60.1501 126.03 60.2401 126.06 60.3201C127 64.6501 130.13 67.2701 135.47 68.2001V68.1301C143.4 67.3401 147.49 65.0901 147.76 61.3901L147.9 40.1501L147.76 43.4901C146.78 44.3801 145.66 45.1301 144.42 45.7601C137.48 49.6001 131.42 48.7601 126.26 43.2301Z" fill="#C4B7A0"/>
<path fill-rule="evenodd" clip-rule="evenodd" d="M147.9 40.1601C142.74 34.7301 136.68 33.8801 129.73 37.6301C128.57 38.1601 127.46 38.9201 126.39 39.9001L126.25 43.2401C131.41 48.7601 137.47 49.6001 144.41 45.7801C145.66 45.1601 146.78 44.4001 147.75 43.5101L147.9 40.1601Z" fill="#F3EDE1"/>
<path fill-rule="evenodd" clip-rule="evenodd" d="M140.171 35.4499L136.431 37.6199L132.331 35.2099L136.071 32.9199L140.171 35.4499Z" fill="#F5F1E1"/>
<path fill-rule="evenodd" clip-rule="evenodd" d="M140.17 35.45V41.9599L136.43 44.0099V37.6199L140.17 35.45Z" fill="#DBD8CD"/>
<path fill-rule="evenodd" clip-rule="evenodd" d="M136.07 44.01L132.09 41.72V35.21L136.07 37.62V44.01Z" fill="#8A8881"/>
<path fill-rule="evenodd" clip-rule="evenodd" d="M136.8 0.79C136.8 0.55 136.73 0.35 136.59 0.21C136.44 0.08 136.25 0 136.01 0H135.94C135.7 0 135.5 0.08 135.36 0.22C135.21 0.36 135.14 0.56 135.14 0.8V34.76C135.14 35 135.21 35.19 135.36 35.34C135.5 35.48 135.7 35.55 135.94 35.55H136.01C136.25 35.55 136.44 35.48 136.59 35.34C136.73 35.19 136.8 35 136.8 34.76V0.79Z" fill="#383838"/>
<path fill-rule="evenodd" clip-rule="evenodd" d="M124.64 2.07991C124.16 2.56991 123.66 2.29991 123.11 1.23991V8.70991C123.85 9.41991 124.55 9.56991 125.23 9.12991C125.91 8.68991 126.49 8.25991 126.96 7.81991C127.43 7.37991 127.8 7.10991 128.07 6.99991C128.53 6.81991 128.97 6.74991 129.4 6.78991C130.22 6.99991 130.96 7.32991 131.63 7.77991C132.04 8.06991 132.46 8.31991 132.89 8.52991C133.12 8.63991 133.36 8.71991 133.61 8.76991C133.89 8.76991 134.13 8.74991 134.36 8.69991V1.92991C134.18 1.78991 133.98 1.65991 133.78 1.51991C133.4 1.30991 132.9 1.05991 132.3 0.769909C131.69 0.479909 130.97 0.279909 130.14 0.159909C129.32 0.0399093 128.39 0.199909 127.37 0.639909C126.35 1.07991 125.76 1.29991 125.59 1.31991C125.43 1.33991 125.11 1.58991 124.64 2.07991Z" fill="url(#paint1_linear)"/>
<path fill-rule="evenodd" clip-rule="evenodd" d="M101.991 120.87H104.361L104.221 116.34C104.221 116.16 104.101 116.01 103.871 115.89C103.691 115.77 103.461 115.71 103.191 115.71H103.151C102.911 115.71 102.671 115.77 102.431 115.89C102.251 116.01 102.161 116.15 102.161 116.34L101.991 120.87ZM101.501 136.33L101.141 146.69C101.141 147.31 101.331 147.87 101.721 148.34C102.141 148.82 102.611 149.08 103.161 149.1H103.251C103.791 149.07 104.251 148.82 104.641 148.34C105.031 147.86 105.221 147.31 105.221 146.69L104.861 136.33H101.501Z" fill="#85898C"/>
<path fill-rule="evenodd" clip-rule="evenodd" d="M104.361 120.87H101.991L101.851 124.45H104.451L104.361 120.87ZM104.641 129.61H101.731L101.511 136.33H104.871L104.641 129.61Z" fill="#FF0000"/>
<path fill-rule="evenodd" clip-rule="evenodd" d="M101.861 124.45L101.721 129.61H104.641L104.451 124.45H101.861Z" fill="white"/>
<path fill-rule="evenodd" clip-rule="evenodd" d="M82.4606 107.84H84.8306L84.6906 103.31C84.6906 103.13 84.5706 102.98 84.3306 102.86C84.1506 102.74 83.9306 102.68 83.6606 102.68H83.6206C83.3806 102.68 83.1406 102.74 82.9006 102.86C82.7206 102.98 82.6306 103.13 82.6306 103.31L82.4606 107.84ZM81.9606 123.31L81.6006 133.67C81.6006 134.29 81.8006 134.85 82.1806 135.32C82.6006 135.8 83.0706 136.06 83.6206 136.09H83.7106C84.2506 136.06 84.7106 135.81 85.1006 135.32C85.4906 134.84 85.6806 134.29 85.6806 133.67L85.3206 123.31H81.9606Z" fill="#85898C"/>
<path fill-rule="evenodd" clip-rule="evenodd" d="M84.8307 107.84H82.4607L82.3207 111.42H84.9207L84.8307 107.84ZM85.3207 123.31L85.1007 116.59H82.1907L81.9707 123.31H85.3207Z" fill="#FF0000"/>
<path fill-rule="evenodd" clip-rule="evenodd" d="M82.1904 116.59H85.1004L84.9204 111.43H82.3204L82.1904 116.59Z" fill="white"/>
<path fill-rule="evenodd" clip-rule="evenodd" d="M53.8805 92.2899H56.2605L56.1205 87.7599C56.1205 87.5799 56.0005 87.4299 55.7605 87.3099C55.5805 87.1899 55.3505 87.1299 55.0905 87.1299H55.0405C54.8005 87.1299 54.5605 87.1999 54.3205 87.3099C54.1405 87.4299 54.0505 87.5799 54.0505 87.7599L53.8805 92.2899ZM53.3805 107.75L53.0205 118.11C53.0205 118.74 53.2105 119.29 53.6005 119.77C54.0205 120.25 54.4905 120.5 55.0405 120.53H55.1305C55.6705 120.5 56.1305 120.25 56.5205 119.77C56.9105 119.29 57.1005 118.74 57.1005 118.11L56.7405 107.75H53.3805Z" fill="#85898C"/>
<path fill-rule="evenodd" clip-rule="evenodd" d="M56.2606 92.2898H53.8806L53.7406 95.8798H56.3406L56.2606 92.2898ZM56.5206 101.03H53.6106L53.3906 107.75H56.7506L56.5206 101.03Z" fill="#FF0000"/>
<path fill-rule="evenodd" clip-rule="evenodd" d="M53.7404 95.8699L53.6104 101.03H56.5204L56.3404 95.8699H53.7404Z" fill="white"/>
<path fill-rule="evenodd" clip-rule="evenodd" d="M34.3405 81.92H36.7205L36.5805 77.39C36.5805 77.21 36.4605 77.06 36.2205 76.94C36.0405 76.82 35.8205 76.76 35.5505 76.76H35.5005C35.2605 76.76 35.0205 76.82 34.7805 76.94C34.6005 77.06 34.5205 77.21 34.5205 77.39L34.3405 81.92ZM33.8505 97.38L33.5005 107.74C33.5005 108.36 33.6905 108.92 34.0805 109.39C34.5005 109.87 34.9805 110.13 35.5105 110.16H35.6005C36.1405 110.13 36.6005 109.87 36.9905 109.39C37.3805 108.91 37.5705 108.36 37.5705 107.74L37.2105 97.38H33.8505Z" fill="#85898C"/>
<path fill-rule="evenodd" clip-rule="evenodd" d="M36.7206 81.9199H34.3406L34.2106 85.4999H36.8106L36.7206 81.9199ZM37.2106 97.3799L36.9906 90.6499H34.0806L33.8506 97.3799H37.2106Z" fill="#FF0000"/>
<path fill-rule="evenodd" clip-rule="evenodd" d="M34.0806 90.66H36.9906L36.8106 85.5H34.2106L34.0806 90.66Z" fill="white"/>
<path fill-rule="evenodd" clip-rule="evenodd" d="M205.36 167.47L218.18 176.02L289.39 134.71L273.73 127.59L205.36 167.47Z" fill="#FFFCF8"/>
<path d="M113.15 87.47L113.77 87.83" stroke="#FF1D25" stroke-width="0.9921" stroke-linecap="round" stroke-linejoin="round"/>
<path d="M114.99 88.54L221.74 151.09" stroke="#FF1D25" stroke-width="0.9921" stroke-linecap="round" stroke-linejoin="round" stroke-dasharray="1.41 1.41"/>
<path d="M222.351 151.45L222.971 151.8" stroke="#FF1D25" stroke-width="0.9921" stroke-linecap="round" stroke-linejoin="round"/>
<path d="M133.101 76.0801L133.711 76.4301" stroke="#FF1D25" stroke-width="0.9921" stroke-linecap="round" stroke-linejoin="round"/>
<path d="M134.931 77.1501L241.681 139.69" stroke="#FF1D25" stroke-width="0.9921" stroke-linecap="round" stroke-linejoin="round" stroke-dasharray="1.41 1.41"/>
<path d="M242.291 140.05L242.911 140.41" stroke="#FF1D25" stroke-width="0.9921" stroke-linecap="round" stroke-linejoin="round"/>
<path d="M87.5 99.1101L196.47 165.03" stroke="#5B5B5B" stroke-width="2.8346" stroke-miterlimit="10" stroke-linecap="round" stroke-linejoin="round"/>
</g>
<defs>
<linearGradient id="paint0_linear" x1="77.7711" y1="36.3479" x2="40.9418" y2="36.3479" gradientUnits="userSpaceOnUse">
<stop stop-color="#770000"/>
<stop offset="0.1843" stop-color="#FF0000"/>
<stop offset="0.2627" stop-color="#FFA1A1"/>
<stop offset="0.3725" stop-color="#FF0000"/>
<stop offset="0.4471" stop-color="#9D0000"/>
<stop offset="0.5216" stop-color="#FF0000"/>
<stop offset="0.6039" stop-color="#FF8585"/>
<stop offset="0.698" stop-color="#FF0000"/>
<stop offset="0.9529" stop-color="#B20000"/>
</linearGradient>
<linearGradient id="paint1_linear" x1="132.756" y1="4.75514" x2="95.9073" y2="4.75514" gradientUnits="userSpaceOnUse">
<stop stop-color="#770000"/>
<stop offset="0.1843" stop-color="#FF0000"/>
<stop offset="0.2627" stop-color="#FFA1A1"/>
<stop offset="0.3725" stop-color="#FF0000"/>
<stop offset="0.4471" stop-color="#9D0000"/>
<stop offset="0.5216" stop-color="#FF0000"/>
<stop offset="0.6039" stop-color="#FF8585"/>
<stop offset="0.698" stop-color="#FF0000"/>
<stop offset="0.9529" stop-color="#B20000"/>
</linearGradient>
<clipPath id="clip0">
<rect width="303.5" height="225.67" fill="white"/>
</clipPath>
</defs>
</svg>
