<svg width="1361" height="762" viewBox="0 0 1361 762" fill="none" xmlns="http://www.w3.org/2000/svg">
<g id="Group" opacity="0.59">
<g id="Group_2" opacity="0.59">
<path id="Vector" opacity="0.59" d="M310.93 193.78C311.42 196.38 311.83 198.99 312.29 201.59C312.96 205.34 314.08 209.07 314.19 212.84C314.31 216.84 312.55 220.45 309.85 223.54C306.62 227.24 302.21 228.33 297.74 229.53C290.66 231.44 283.65 233.61 276.6 235.63C275.41 235.97 274.97 236.58 275.07 237.85C275.38 241.6 275.59 245.35 275.82 249.1C276.46 259.4 277.11 269.71 277.7 280.01C277.94 284.23 278.32 288.47 278.08 292.67C277.85 296.77 273.95 300.36 269.57 301.27C265.55 302.11 261.01 300.17 258.72 297.02C256.54 294.01 256.6 290.59 256.36 287.2C256 282.15 255.79 277.09 255.46 272.04C254.91 263.58 254.31 255.13 253.76 246.67C253.43 241.62 253.33 236.55 252.82 231.52C252.2 225.47 254.48 220.9 259.98 218.71C265.65 216.45 271.38 214.31 277.18 212.4C279.24 211.72 279.66 210.91 279.21 208.9C277.96 203.27 276.87 197.61 275.82 191.95C275.55 190.49 275.66 188.96 275.55 187.47C275.49 186.64 275.67 185.49 275.2 185.07C273.81 183.81 273.93 182.18 273.61 180.64C273 177.75 272.24 174.88 271.9 171.96C271.61 169.52 270.23 168.93 268.16 168.68C259.45 167.6 250.74 166.5 242.06 165.27C240.58 165.06 238.95 164.47 237.8 163.54C234.19 160.64 232.66 156.24 230.21 152.48C229.67 151.65 228.62 150.84 227.67 150.64C224.84 150.03 223.86 148.79 224.26 145.94C224.43 144.71 224.68 143.32 224.29 142.22C223.71 140.57 222.69 139.05 221.69 137.59C217.68 131.68 220.97 124.1 227.37 122.91C227.91 122.81 228.58 122.45 228.84 122C229.96 120.08 229.48 118.01 227.82 116.52C227.07 115.85 226.34 115.11 225.74 114.3C222.1 109.43 220.76 103.86 220.97 97.88C221.31 88.34 224.32 79.94 232.19 74.01C236.79 70.54 242.06 69.86 247.09 73.11C250.49 75.3 252.61 78.67 253.76 82.46C256.43 91.23 255.41 99.73 251.21 107.85C248.58 112.93 244.88 116.95 239.36 118.85C237.72 119.41 236.71 119.99 236.78 121.86C236.84 123.34 236.19 125.11 236.8 126.25C240.24 132.7 243.96 139 247.6 145.34C248.25 146.47 248.93 147.44 250.49 147.63C256.98 148.4 263.46 149.23 269.92 150.19C271.53 150.43 272.36 149.94 273.32 148.74C276.7 144.52 281.06 142.12 286.59 142.13C294.53 142.15 301.11 147.02 303.05 154.62C304.27 159.4 305.06 164.29 306.05 169.13C306.39 170.77 306.76 172.41 307.12 174.06C315.88 172.05 324.38 171.56 332.81 173.58C353.36 178.5 367.54 190.71 374.44 210.9C378.86 223.82 378.43 236.68 373.29 249.3C367.19 264.28 356.56 274.77 341.52 280.74C333.88 283.77 325.97 284.87 317.77 284.39C307.09 283.77 297.47 280.25 288.74 274.18C287.3 273.18 286.9 271.06 287.78 269.8C288.8 268.34 290.44 267.99 292.11 268.95C293.4 269.7 294.62 270.56 295.91 271.31C305.65 276.97 316.07 279.22 327.32 277.85C337.95 276.56 347.19 272.33 354.99 265.11C364.54 256.27 369.88 245.27 370.94 232.28C371.19 229.17 371.33 226.01 371.06 222.91C370.84 220.41 369.93 217.97 369.32 215.5C367.06 206.44 362.41 198.75 355.66 192.37C346.76 183.97 336.11 179.4 323.91 178.65C318.78 178.33 313.67 178.84 308.3 180.23C309.21 184.91 310.09 189.34 310.93 193.78Z" fill="white"/>
<path id="Vector_2" opacity="0.59" d="M272.89 99.6999C262.84 102.6 257 113.15 259.88 123.21C262.79 133.35 273.55 139.27 283.57 136.24C293.7 133.18 299.42 122.48 296.45 112.19C293.57 102.23 283.19 96.7199 272.89 99.6999Z" fill="white"/>
<path id="Vector_3" opacity="0.59" d="M209.58 89.2401C208.43 85.3101 204.54 83.1501 200.59 84.2401C196.69 85.3201 194.29 89.5601 195.39 93.4001C196.52 97.3101 200.59 99.4901 204.59 98.3301C208.69 97.1301 210.78 93.3401 209.58 89.2401Z" fill="white"/>
</g>
<g id="Group_3" opacity="0.59">
<path id="Vector_4" opacity="0.59" d="M53.81 458.03C48.92 460.82 44.52 463.35 40.11 465.85C35.89 468.24 31.58 466.62 29.72 462.18C25.12 451.19 20.45 440.23 15.72 429.29C13.73 424.7 15.15 420.15 19.29 418.6C23.4 417.06 27.08 419.24 28.88 423.87C31.89 431.6 35.14 439.24 38.24 446.94C39.08 449.04 40.35 449.41 42.32 448.46C50.13 444.68 58.32 441.53 65.66 436.99C70.26 434.14 73.26 428.85 77.54 425.34C84.29 419.81 85.77 412.58 86.12 404.51C86.43 397.34 87.24 390.19 88.03 383.05C88.57 378.19 91.94 375.24 95.91 375.75C100.31 376.32 102.58 379.81 102.07 384.84C101.03 395.16 99.67 405.48 99.31 415.83C99.06 423.08 94.63 427.35 90.39 432.03C86.74 436.06 83.08 440.09 79.3 443.99C77.78 445.56 77.58 446.89 78.41 448.95C81.05 455.54 83.39 462.25 85.9 468.89C86.5 470.49 87.29 472.02 88.28 474.21C91.43 470.87 94.39 468.08 96.93 464.95C99.79 461.42 103.22 461.05 107 462.6C117.69 466.99 128.38 471.39 138.95 476.05C144.8 478.63 145.77 485.88 140.95 489.84C137.81 492.42 134.03 491.44 130.8 490.24C123.2 487.4 115.85 483.93 108.27 481.03C106.99 480.54 104.55 481.1 103.58 482.09C98.21 487.6 92.95 493.24 88.01 499.14C83.12 504.98 73.07 503.27 69.95 497.14C67.05 491.43 64.79 485.39 62.42 479.42C60.04 473.45 57.9 467.38 55.6 461.38C55.19 460.31 54.51 459.32 53.81 458.03Z" fill="white"/>
<path id="Vector_5" opacity="0.59" d="M70.68 392.68C61.41 395.31 51.67 389.43 48.87 379.6C46.44 371.1 51.11 359.88 60.84 357.6C69.87 355.49 79.36 360.88 82.26 370.45C85.21 380.24 80.12 390.01 70.68 392.68Z" fill="white"/>
<path id="Vector_6" opacity="0.59" d="M58.86 436.36C51.34 438.54 44.47 434.33 41.92 426.46C39.43 418.76 44.04 411.13 50.63 409.21C57.78 407.12 65.5 411.64 67.69 419.26C69.91 426.92 66.13 434.25 58.86 436.36Z" fill="white"/>
</g>
<g id="Group_4" opacity="0.59">
<path id="Vector_7" opacity="0.59" d="M1106.69 92.0699C1105.13 96.2799 1108.74 99.0299 1110.57 102.21C1114.36 108.79 1119.14 114.85 1122.5 121.63C1125.02 126.71 1126.02 132.56 1127.49 138.12C1127.76 139.13 1127.34 140.67 1126.66 141.49C1125.1 143.38 1124.27 145.11 1125.16 147.65C1125.39 148.3 1124.07 149.66 1123.24 150.47C1121.85 151.84 1119.98 152.82 1118.85 154.36C1116.79 157.16 1116.66 160.37 1118.48 163.39C1120.26 166.35 1123.2 166.55 1126.23 166.03C1131.17 165.18 1135.63 162.59 1135.2 156.25C1135.14 155.43 1136.22 154.53 1136.77 153.67C1137.54 154.42 1138.73 155.03 1139.01 155.93C1140.85 161.76 1136.31 168.01 1128.99 169.93C1122.12 171.73 1116.81 169.84 1114.14 164.64C1111.54 159.57 1113.16 152.99 1118.05 148.82C1118.74 148.23 1119.43 147.62 1120.06 147.07C1120.01 146.67 1120.05 146.22 1119.94 146.18C1114.33 144.06 1113.31 139 1111.38 134.09C1108.97 127.95 1105.29 122.3 1102.1 116.48C1101.28 114.98 1100.23 113.6 1098.37 112.5C1098.32 118.39 1098.58 124.31 1098.07 130.17C1097.84 132.85 1096.44 135.6 1094.97 137.94C1093.58 140.15 1091.5 141.97 1089.55 143.78C1088.52 144.73 1087.11 145.94 1085.9 145.91C1082.81 145.83 1080.33 146.46 1078.15 148.81C1077.71 149.28 1075.74 148.74 1074.72 148.2C1069.64 145.52 1065.78 145.93 1062.64 150.09C1061.7 151.33 1061.06 153.25 1061.21 154.77C1061.86 161.15 1070.22 165.05 1075.78 161.91C1076.76 161.35 1078.31 161.79 1079.59 161.77C1078.94 163.18 1078.67 165.26 1077.57 165.9C1069.56 170.55 1062.14 166.1 1058.29 159.03C1055.9 154.64 1056.1 150.1 1059.77 146.46C1063.65 142.61 1068.47 141.5 1073.82 143.06C1074.99 143.4 1076.2 143.61 1078.47 144.12C1075.6 137.75 1078.37 133.97 1082.1 130.31C1083.17 129.27 1083.74 127.24 1083.74 125.67C1083.77 111.67 1083.62 97.6699 1083.51 83.6799C1083.48 79.1899 1083.41 74.6999 1083.34 69.1099C1079.05 70.3399 1075.43 71.1599 1072.01 72.4999C1071.03 72.8799 1070.23 74.6999 1070.04 75.9699C1069.36 80.5699 1068.97 85.2199 1068.49 89.8499C1068.03 94.2699 1065.37 97.0199 1061.75 96.7699C1057.88 96.4999 1055.52 93.9299 1055.92 89.2299C1056.56 81.6799 1057.51 74.1399 1058.88 66.6899C1059.2 64.9499 1061.44 62.7999 1063.24 62.2299C1072.83 59.1999 1082.53 56.5299 1092.24 53.9099C1099.09 52.0599 1106.51 57.5299 1106.22 64.8499C1106.05 69.2399 1108.01 72.1999 1110 75.4599C1111.34 77.6599 1113.04 78.2499 1115.71 77.3599C1120.28 75.8299 1124.99 74.6999 1129.69 73.5899C1132.69 72.8799 1135.59 73.8199 1136.96 76.5099C1137.78 78.1399 1137.51 80.5999 1137.02 82.5099C1136.72 83.6699 1135.22 85.0499 1134.01 85.3599C1125.12 87.6699 1116.16 89.7699 1106.69 92.0699Z" fill="white"/>
<path id="Vector_8" opacity="0.59" d="M1098.46 49.36C1092.05 51.16 1084.52 46.98 1082.61 40.56C1080.67 34.05 1084.75 26.65 1091.34 24.7C1098.04 22.72 1105.7 26.96 1107.45 33.62C1109.16 40.08 1104.89 47.55 1098.46 49.36Z" fill="white"/>
</g>
<g id="Group_5" opacity="0.59">
<path id="Vector_9" opacity="0.59" d="M1005.59 704.22C999.84 711.01 995.47 717.22 993.78 724.99C993.49 726.34 992.83 728.17 991.79 728.72C985.67 731.91 986.09 738.05 984.82 743.4C983.77 747.81 983.04 752.3 981.86 756.67C981.58 757.72 980.09 758.45 979.16 759.32C978.53 758.03 977.19 756.62 977.38 755.47C978.5 748.82 979.9 742.22 981.4 735.64C981.99 733.07 982.02 731.1 979.61 729.32C976.81 727.25 976.55 724.17 977.32 720.96C980.31 708.51 987.4 698.54 996.34 689.73C1000.57 685.55 1004.91 681.49 1009.18 677.34C1013.03 673.6 1019.48 672.19 1023.97 675.49C1030.55 680.33 1038.34 680.77 1045.63 682.97C1051.08 684.62 1056.71 685.66 1062.21 687.19C1069.67 689.26 1071.75 694.17 1068.12 701.5C1074.14 706.3 1080.72 710.66 1086.21 716.13C1093.04 722.94 1100.05 724.37 1108.64 720.24C1111.5 718.87 1114.76 718.22 1117.9 717.6C1119.06 717.37 1120.43 718.2 1121.7 718.54C1120.95 719.74 1120.44 721.7 1119.41 722.02C1112.01 724.39 1104.53 726.58 1096.99 728.44C1095.55 728.79 1093.4 727.77 1092.06 726.74C1083.84 720.44 1075.54 714.22 1067.74 707.43C1064.42 704.54 1060.7 704.13 1056.91 703.2C1048.79 701.2 1040.67 699.16 1031.99 697C1032.35 704.8 1032.69 712.4 1033.07 720.72C1038.82 719.07 1043.9 717.56 1049.02 716.16C1052.5 715.21 1055.88 715.71 1057.95 718.78C1059.91 721.69 1061.25 725.23 1058.64 728.46C1057.31 730.1 1055.34 731.65 1053.36 732.28C1043.91 735.28 1034.26 737.69 1024.85 740.82C1014.47 744.26 1006.77 736.47 1006.97 727.1C1007.05 723.37 1006.72 719.63 1006.5 715.9C1006.29 712.33 1005.95 708.77 1005.59 704.22Z" fill="white"/>
<path id="Vector_10" opacity="0.59" d="M1030.75 652.89C1032.89 660.68 1028.3 668.96 1020.6 671.23C1012.91 673.5 1004.64 668.82 1002.45 660.94C1000.29 653.16 1004.94 644.72 1012.55 642.62C1020.26 640.49 1028.64 645.22 1030.75 652.89Z" fill="white"/>
<path id="Vector_11" opacity="0.59" d="M1031.29 747.43C1023.3 749.72 1015.31 752.01 1007.32 754.3C1006.42 754.56 1005.41 755.18 1004.63 754.97C1003.39 754.63 1002.31 753.74 1001.16 753.08C1001.9 752.17 1002.47 750.73 1003.41 750.43C1008.76 748.7 1014.21 747.23 1019.62 745.68C1030.32 742.61 1041.01 739.54 1051.71 736.48C1060.08 734.09 1066.84 729.46 1072.06 722.44C1072.84 721.38 1074.71 721.13 1076.08 720.51C1075.99 722.15 1076.5 724.19 1075.72 725.38C1070.79 732.9 1063.69 737.78 1055.24 740.5C1047.33 743.05 1039.28 745.14 1031.29 747.43C1031.29 747.43 1031.29 747.42 1031.29 747.43Z" fill="white"/>
</g>
<g id="Group_6" opacity="0.59">
<path id="Vector_12" opacity="0.59" d="M248.644 449.112C242.894 455.902 238.524 462.112 236.834 469.882C236.544 471.232 235.884 473.062 234.844 473.612C228.724 476.802 229.144 482.942 227.874 488.292C226.824 492.702 226.094 497.192 224.914 501.562C224.634 502.612 223.144 503.342 222.214 504.212C221.584 502.922 220.244 501.512 220.434 500.362C221.554 493.712 222.954 487.112 224.454 480.532C225.044 477.962 225.074 475.992 222.664 474.212C219.864 472.142 219.604 469.062 220.374 465.852C223.364 453.402 230.454 443.432 239.394 434.622C243.624 430.442 247.964 426.382 252.234 422.232C256.084 418.492 262.534 417.082 267.024 420.382C273.604 425.222 281.394 425.662 288.684 427.862C294.134 429.512 299.764 430.552 305.264 432.082C312.724 434.152 314.804 439.062 311.174 446.392C317.194 451.192 323.774 455.552 329.264 461.022C336.094 467.832 343.104 469.262 351.694 465.132C354.554 463.762 357.814 463.112 360.954 462.492C362.114 462.262 363.484 463.092 364.754 463.432C364.004 464.632 363.494 466.592 362.464 466.912C355.064 469.282 347.584 471.472 340.044 473.332C338.604 473.682 336.454 472.662 335.114 471.632C326.894 465.332 318.594 459.112 310.794 452.322C307.474 449.432 303.754 449.022 299.964 448.092C291.844 446.092 283.724 444.052 275.044 441.892C275.404 449.692 275.744 457.292 276.124 465.612C281.874 463.962 286.954 462.452 292.074 461.052C295.554 460.102 298.934 460.602 301.004 463.672C302.964 466.582 304.304 470.122 301.694 473.352C300.364 474.992 298.394 476.542 296.414 477.172C286.964 480.172 277.314 482.582 267.904 485.712C257.524 489.152 249.824 481.362 250.024 471.992C250.104 468.262 249.774 464.522 249.554 460.792C249.344 457.222 249.004 453.662 248.644 449.112Z" fill="white"/>
<path id="Vector_13" opacity="0.59" d="M273.804 397.782C275.944 405.572 271.354 413.852 263.654 416.122C255.964 418.392 247.694 413.712 245.504 405.832C243.344 398.052 247.994 389.612 255.604 387.512C263.314 385.382 271.694 390.112 273.804 397.782Z" fill="white"/>
<path id="Vector_14" opacity="0.59" d="M274.344 492.322C266.354 494.612 258.364 496.902 250.374 499.192C249.474 499.452 248.464 500.072 247.684 499.862C246.444 499.522 245.364 498.632 244.214 497.972C244.954 497.062 245.524 495.622 246.464 495.322C251.814 493.592 257.264 492.122 262.674 490.572C273.374 487.502 284.064 484.432 294.764 481.372C303.134 478.982 309.894 474.352 315.114 467.332C315.894 466.272 317.764 466.022 319.134 465.402C319.044 467.042 319.554 469.082 318.774 470.272C313.844 477.792 306.744 482.672 298.294 485.392C290.384 487.942 282.334 490.032 274.344 492.322C274.344 492.322 274.344 492.312 274.344 492.322Z" fill="white"/>
</g>
<g id="Group_7" opacity="0.59">
<path id="Vector_15" opacity="0.59" d="M1283.42 188.6C1284.14 202.17 1290.26 212.44 1297.64 221.81C1309.03 236.28 1313.88 253.6 1320.08 270.36C1321.61 274.51 1319.63 278.32 1315.82 279.92C1311.93 281.56 1307.58 280.22 1305.84 275.98C1302.32 267.43 1299.7 258.51 1296.01 250.05C1293.23 243.68 1289.37 237.79 1285.99 231.69C1285.51 231.91 1285.03 232.12 1284.55 232.34C1285.83 237.92 1287.3 243.47 1288.31 249.1C1288.71 251.33 1288.68 253.98 1287.84 256.02C1286.67 258.85 1284.03 260.73 1280.73 260.19C1277.29 259.63 1274.43 257.98 1273.54 254.14C1270.58 241.47 1267.72 228.77 1264.56 216.15C1262.58 208.25 1260.12 200.47 1257.83 192.5C1257.09 193.4 1255.95 194.35 1255.35 195.56C1250.13 206.06 1239.38 206.78 1230.01 209.66C1226.88 210.62 1224.08 208.33 1223 205.01C1221.98 201.85 1223.16 199.3 1225.82 197.43C1226.36 197.05 1227.02 196.74 1227.66 196.65C1239.36 195.01 1246.07 186.96 1251.77 177.74C1254.16 173.87 1257.3 171.68 1261.81 170.62C1279.61 166.42 1274.85 166.4 1288.81 175.78C1290.9 177.19 1292.87 178.81 1295.08 180C1296.08 180.54 1297.59 180.56 1298.75 180.29C1302.54 179.41 1306.25 178.2 1310.02 177.27C1315.1 176.02 1318.88 178 1319.81 182.25C1320.68 186.24 1318.2 189.55 1313.29 190.79C1308.74 191.94 1304.09 192.76 1299.62 194.16C1295.54 195.44 1292.11 194.81 1288.82 192.21C1287.26 190.97 1285.51 189.98 1283.42 188.6Z" fill="white"/>
<path id="Vector_16" opacity="0.59" d="M1275.35 149.8C1277.44 156.95 1273.39 164.59 1266.35 166.76C1259.17 168.97 1251.47 164.69 1249.35 157.32C1247.26 150.05 1251.17 142.75 1258.35 140.5C1265.52 138.24 1273.21 142.45 1275.35 149.8Z" fill="white"/>
<path id="Vector_17" opacity="0.59" d="M1288.48 287.89C1282.73 289.51 1276.53 285.73 1274.93 279.62C1273.37 273.67 1276.44 267.82 1281.98 266.17C1287.76 264.46 1293.84 268.03 1295.61 274.18C1297.32 280.15 1294.12 286.3 1288.48 287.89Z" fill="white"/>
</g>
<g id="Group_8" opacity="0.59">
<path id="Vector_18" opacity="0.59" d="M1262.02 489.08C1260.56 489.86 1259.59 489.76 1259.19 487.85C1258.78 485.9 1258.12 483.99 1256.67 481.87C1255.44 485.37 1253.84 488.78 1253.07 492.38C1251.97 497.49 1250.11 502.03 1245.98 505.35C1244.94 506.19 1243.56 506.62 1242.33 507.23C1241.71 505.73 1240.33 504.06 1240.62 502.76C1241.81 497.33 1243.37 491.96 1245.04 486.65C1247.02 480.32 1249.25 474.07 1251.38 467.78C1252.18 465.42 1253.43 463.53 1256.06 462.87C1257.09 462.61 1258.07 462.15 1259.06 461.73C1265.95 458.8 1271.68 459.76 1275.87 466.5C1276.62 467.71 1277.93 468.56 1279.43 470.01C1275.44 474.24 1271.45 478.4 1267.54 482.64C1265.59 484.76 1263.8 487.03 1261.94 489.24L1262.02 489.08Z" fill="white"/>
<path id="Vector_19" opacity="0.59" d="M1231.02 525.87C1233.15 525.99 1236.86 526.02 1240.51 526.45C1245.85 527.08 1250.67 526.14 1254.62 522.35C1260.7 516.52 1267.72 514.62 1275.98 516.38C1280.95 517.44 1285.68 516.11 1289.36 512.55C1295.55 506.56 1302.65 504.54 1311.04 506.34C1315.6 507.32 1320.19 506.39 1323.42 503.17C1331.15 495.46 1340.02 494.28 1349.98 497.21C1351.37 497.62 1352.97 497.54 1354.19 498.21C1355.12 498.72 1355.59 500.05 1356.26 501.02C1355.26 501.48 1354.19 502.42 1353.26 502.3C1349.98 501.88 1346.75 501.11 1343.51 500.43C1337.86 499.25 1332.94 500.65 1328.76 504.6C1322.99 510.05 1316.22 512.01 1308.45 510.44C1302.8 509.3 1297.91 510.74 1293.72 514.69C1288.07 520 1281.39 522.07 1273.78 520.53C1267.94 519.34 1262.96 520.75 1258.66 524.76C1253.23 529.82 1246.82 532.28 1239.53 530.67C1231.57 528.91 1225.79 532.03 1220.69 537.56C1219.33 539.03 1218 540.57 1216.42 541.76C1215.69 542.31 1214.38 542.07 1213.33 542.19C1213.25 541.11 1212.66 539.51 1213.16 539.02C1218.09 534.2 1222.46 528.61 1231.02 525.87Z" fill="white"/>
<path id="Vector_20" opacity="0.59" d="M1227.22 518.57C1221.1 520.19 1218.14 525.46 1213.91 529.01C1212.61 530.1 1211.4 532.12 1209.78 529.98C1209.29 529.34 1210.11 527.16 1210.92 526.17C1212.76 523.91 1214.91 521.88 1217.04 519.86C1222.61 514.59 1229.26 512.87 1236.67 514.4C1242.36 515.58 1247.12 514.34 1251.38 510.31C1257.18 504.82 1264.05 502.67 1272.04 504.43C1277.51 505.64 1282.3 504.28 1286.39 500.29C1292.3 494.53 1299.39 492.7 1307.45 494.44C1312.68 495.57 1317.36 494.3 1321.08 490.47C1330.19 481.1 1340.81 483.83 1351.4 486.58C1352.06 486.75 1352.63 488.4 1352.66 489.38C1352.67 489.79 1351.1 490.7 1350.35 490.6C1347.32 490.19 1344.31 489.58 1341.34 488.85C1334.96 487.29 1329.58 488.93 1324.73 493.29C1319.1 498.35 1312.46 499.99 1305 498.59C1299.55 497.56 1294.59 498.95 1290.51 502.65C1284.54 508.06 1277.81 510.06 1269.83 508.57C1264.44 507.56 1259.43 509.01 1255.37 512.78C1249.67 518.06 1243.1 519.94 1235.45 518.79C1232.75 518.39 1229.96 518.62 1227.22 518.57Z" fill="white"/>
<path id="Vector_21" opacity="0.59" d="M1261.93 489.24C1264.83 486.67 1267.89 484.25 1270.61 481.49C1276.09 475.92 1281.4 470.18 1286.73 464.47C1287.44 463.71 1288.33 462.69 1288.33 461.79C1288.29 454.23 1294.38 450.74 1298.56 445.98C1299.52 444.89 1300.52 443.84 1301.83 442.41C1304.71 445.1 1307.54 447.63 1310.17 450.34C1310.56 450.74 1310.39 452.3 1309.92 452.84C1306.86 456.32 1303.77 459.81 1300.4 462.99C1299.16 464.17 1297.19 465.02 1295.48 465.18C1291.07 465.59 1288.93 468.39 1287.26 471.93L1287.36 471.76C1284.78 474.16 1282.11 476.45 1279.65 478.97C1274.65 484.08 1269.75 489.31 1264.85 494.51C1264.45 494.94 1264.29 495.6 1264.02 496.15L1264.11 495.98C1260 500.08 1255.94 504.24 1251.75 508.26C1248.99 510.91 1245.94 513.14 1240.66 513.11C1245.47 507.99 1249.58 503.59 1253.72 499.22C1256.18 496.62 1258.74 494.1 1261.14 491.45C1261.66 490.87 1261.74 489.89 1262.02 489.1C1262.02 489.08 1261.93 489.24 1261.93 489.24Z" fill="white"/>
<path id="Vector_22" opacity="0.59" d="M1254.83 441.08C1260 439.54 1265.21 442.43 1266.69 447.65C1268.11 452.66 1265.31 457.97 1260.46 459.46C1255.44 461 1250.17 458 1248.68 452.76C1247.22 447.65 1249.92 442.54 1254.83 441.08Z" fill="white"/>
<path id="Vector_23" opacity="0.59" d="M1264.01 496.14C1267.13 493.24 1270.26 490.33 1273.38 487.43C1274.11 486.75 1274.82 486.05 1275.85 485.06C1277.55 490.99 1279.11 496.43 1280.93 502.77C1277.73 502.91 1274.94 503.12 1272.15 503.14C1270.31 503.15 1268.48 502.85 1266.64 502.77C1262.75 502.6 1261.92 501.04 1263.84 497.46C1264.06 497.05 1264.02 496.49 1264.1 495.99C1264.1 495.97 1264.01 496.14 1264.01 496.14Z" fill="white"/>
<path id="Vector_24" opacity="0.59" d="M1287.26 471.92C1287.93 471.55 1288.8 471.33 1289.25 470.78C1291.15 468.41 1293.1 468.61 1294.97 470.62C1296.97 472.77 1296.61 475.37 1294.7 477.06C1291.73 479.68 1288.44 482.07 1284.94 483.92C1283.37 484.75 1280.98 484.01 1278.97 483.98C1278.86 483.52 1278.75 483.06 1278.64 482.6C1281.54 478.99 1284.45 475.38 1287.35 471.76C1287.35 471.75 1287.26 471.92 1287.26 471.92Z" fill="white"/>
</g>
<g id="Group_9" opacity="0.59">
<path id="Vector_25" opacity="0.59" d="M1078.49 414.27C1071.89 416.16 1065.87 417.92 1059.84 419.61C1046.69 423.29 1038.52 416.45 1040.06 402.97C1041.57 389.74 1043.13 376.51 1044.82 363.3C1045.53 357.77 1048.86 353.81 1053.94 351.98C1058.68 350.27 1063.21 351.46 1067.32 354.7C1068.81 355.87 1071.3 356.59 1073.16 356.31C1083.16 354.79 1092.75 352.12 1100.83 345.46C1104.18 342.69 1107.81 340.15 1111.65 338.13C1114.09 336.84 1117.34 335.79 1119.86 336.33C1121.82 336.76 1124.24 339.66 1124.55 341.75C1124.88 344 1123.71 347.55 1121.95 348.85C1113.55 355.05 1105.16 361.55 1095.91 366.22C1089.73 369.34 1082.13 369.78 1075.1 371.03C1072.01 371.58 1070.94 373.12 1070.65 375.92C1069.96 382.55 1069.15 389.16 1068.44 395.79C1068.34 396.73 1068.52 397.71 1068.61 399.49C1072.58 398.35 1076.03 397.2 1079.55 396.39C1085.34 395.06 1088.77 397.04 1091.58 402.27C1098.66 415.47 1105.89 428.6 1113.17 441.69C1115.88 446.57 1115.7 450.34 1112.23 454.05C1109.21 457.27 1105.4 457.35 1102.31 455.17C1099.75 453.37 1097.89 450.29 1096.32 447.44C1090.33 436.62 1084.59 425.68 1078.49 414.27Z" fill="white"/>
<path id="Vector_26" opacity="0.59" d="M1056.47 471.29C1036.92 477.25 1015.5 468.72 1005.95 451.58C993.42 429.1 998.58 403.95 1022.78 389.36C1025.01 388.01 1027.42 386.73 1029.92 386.13C1031.41 385.77 1033.23 386.8 1034.9 387.21C1033.8 388.43 1032.93 390.22 1031.56 390.77C1018.47 396.01 1009.38 404.93 1005.9 418.78C999.6 443.85 1018.34 467.85 1043.58 467.89C1059.58 467.92 1071.52 460.49 1079.34 446.42C1080.31 444.68 1080.38 440.79 1083.63 442.29C1087.19 443.94 1084.68 446.88 1083.57 448.98C1077.67 460.19 1068.61 467.64 1056.47 471.29Z" fill="white"/>
<path id="Vector_27" opacity="0.59" d="M1058.64 317.27C1067.01 314.96 1074.88 319.49 1077.16 327.93C1079.32 335.94 1074.69 344.13 1066.73 346.38C1058.86 348.61 1050.06 343.68 1047.87 335.72C1045.97 328.83 1049.5 319.02 1058.64 317.27Z" fill="white"/>
<path id="Vector_28" opacity="0.59" d="M1143.5 345.17C1144.57 348.93 1142.7 352.23 1138.94 353.22C1135.39 354.16 1131.66 352.02 1130.79 348.54C1130.01 345.43 1132.24 341.58 1135.38 340.62C1138.95 339.53 1142.45 341.49 1143.5 345.17Z" fill="white"/>
</g>
<g id="Group_10" opacity="0.59">
<path id="Vector_29" opacity="0.59" d="M1221.7 622.13C1229.03 616.75 1235.35 611.46 1242.34 607.28C1245.19 605.58 1249.48 606.13 1253.13 605.94C1261.97 605.47 1270.83 605.2 1279.68 604.8C1285.21 604.54 1288.61 600.98 1288.13 596.08C1287.69 591.6 1283.76 589.16 1278.36 589.52C1269.37 590.12 1260.35 590.88 1251.36 590.78C1242.17 590.67 1234.28 592.62 1226.96 598.75C1217.64 606.56 1207.44 613.31 1197.64 620.54C1187.69 627.88 1188.75 642.66 1199.72 648.83C1210.04 654.63 1220.41 660.34 1230.8 666.03C1232.26 666.83 1233.93 667.23 1236.23 668.08C1233.33 670.89 1231.54 672.95 1229.42 674.6C1223.62 679.11 1221.17 684.73 1221.18 692.26C1221.2 706.57 1220.22 720.87 1219.83 735.19C1219.67 741.08 1224.3 745.7 1230.05 745.85C1235.83 746.01 1240.61 741.68 1240.88 735.84C1241.42 723.96 1242.29 712.06 1242.18 700.18C1242.11 692.92 1245.45 688.28 1250.56 684.07C1255.24 680.21 1259.68 676.04 1264.47 672.33C1265.55 671.5 1267.97 671.36 1269.24 671.98C1280.08 677.27 1290.82 682.76 1301.54 688.28C1315.58 695.51 1329.53 702.91 1343.6 710.06C1350.16 713.39 1356.52 711.33 1359.11 705.47C1361.88 699.19 1358.27 692.62 1351.38 689.91C1346.4 687.95 1341.41 686.25 1336.86 682.71C1332.25 679.11 1325.78 677.88 1320.12 675.63C1319.84 675.52 1319.34 675.6 1319.26 675.43C1317.28 671.55 1313.08 671.62 1309.83 669.93C1299.11 664.35 1288.59 658.4 1277.94 652.69C1260.47 643.32 1242.97 634.02 1225.49 624.67C1224.43 624.09 1223.5 623.34 1221.7 622.13Z" fill="white"/>
<path id="Vector_30" opacity="0.59" d="M1319.26 598.22C1316.82 590.21 1308.04 585.59 1299.92 588.05C1291.66 590.55 1286.87 599.36 1289.28 607.61C1291.84 616.37 1300.57 620.85 1309.62 618.04C1317.73 615.53 1321.91 606.94 1319.26 598.22Z" fill="white"/>
<path id="Vector_31" opacity="0.59" d="M1174.96 628.45C1183.45 628.45 1190.33 621.569 1190.33 613.08C1190.33 604.591 1183.45 597.71 1174.96 597.71C1166.47 597.71 1159.59 604.591 1159.59 613.08C1159.59 621.569 1166.47 628.45 1174.96 628.45Z" fill="white"/>
</g>
<g id="Group_11" opacity="0.59">
<path id="Vector_32" opacity="0.59" d="M34.84 145.59C33.72 142.63 32.43 139.82 31.61 136.87C30.8 133.98 30.22 130.96 30.08 127.97C30.03 126.95 31.62 125.84 32.46 124.78C33.18 123.87 33.92 122.98 34.38 121.8C37.73 119.78 41.35 117.94 45.52 119.9C45.64 119.96 45.78 119.97 45.91 119.98C48.14 120.01 58.72 109.69 58.82 107.43C59.07 102.11 59.28 96.8 59.63 91.49C59.89 87.53 62.79 84.65 66.23 84.72C69.54 84.78 72.08 87.31 71.99 91.55C71.84 99.27 71.92 107.13 70.38 114.62C69.71 117.88 65.33 120.46 62.47 123.16C59.77 125.71 55.46 127.55 54.43 130.57C53.51 133.27 56.01 137.2 57.18 140.52C58.83 145.19 60.5 149.87 62.48 154.41C62.94 155.47 64.73 156.69 65.82 156.61C68.87 156.39 71.9 155.64 74.88 154.89C80.6 153.46 83.84 155.09 86.59 160.38C91.45 169.74 96.53 178.99 101.5 188.29C102.69 190.53 103.97 192.74 104.91 195.09C106.24 198.42 104.81 202.06 101.77 203.73C98.44 205.56 94.33 204.87 92.27 201.55C89.38 196.91 86.93 192 84.32 187.18C81.52 182.01 78.85 176.78 75.9 171.7C75.43 170.89 73.68 170.18 72.73 170.39C68.43 171.33 64.09 172.31 59.97 173.85C51.89 176.87 46.04 174.5 43 166.57C41.42 162.44 39.79 158.33 38.14 154.22C36.34 149.73 36.3 149.7 31.51 152.05C20.9 157.24 14.88 165.78 13.46 177.46C10.96 197.98 27.04 214.74 46.65 214.44C59.81 214.24 69.01 207.63 75.4 196.55C75.8 195.86 75.92 194.88 76.49 194.43C77.31 193.78 78.41 193.49 79.39 193.05C79.65 194.09 80.48 195.47 80.09 196.1C77.46 200.33 75.24 205.16 71.64 208.4C55.01 223.4 32.39 222.14 17.63 205.43C3.24 189.14 6.47 162.88 25.8 150.26C28.43 148.55 31.42 147.34 34.84 145.59Z" fill="white"/>
<path id="Vector_33" opacity="0.59" d="M82.68 86.2799C75.33 88.4399 67.74 84.6899 65.15 79.1399C62.67 73.8199 61.67 69.0499 64.44 63.7899C66.48 59.9199 69.84 57.5299 73.86 56.2499C81.99 53.6599 91.01 58.7999 93.29 67.1199C95.57 75.5099 90.96 83.8499 82.68 86.2799Z" fill="white"/>
<path id="Vector_34" opacity="0.59" d="M26.74 117.58C35.0795 117.58 41.84 110.819 41.84 102.48C41.84 94.1404 35.0795 87.3799 26.74 87.3799C18.4005 87.3799 11.64 94.1404 11.64 102.48C11.64 110.819 18.4005 117.58 26.74 117.58Z" fill="white"/>
</g>
<g id="Group_12" opacity="0.59">
<path id="Vector_35" opacity="0.59" d="M246.925 705.76C242.745 705.55 240.775 708.64 242.805 711.7C244.665 714.52 247.125 717.17 249.855 719.16C259.635 726.28 271.045 729.96 282.465 733.3C314.255 742.6 346.135 751.63 377.985 760.72C379.575 761.17 381.285 761.18 382.945 761.4C383.025 760.9 383.115 760.4 383.195 759.9C366.425 755.09 349.645 750.28 332.205 745.28C333.285 744.34 333.655 743.8 334.175 743.6C341.385 740.84 344.285 736.04 343.685 728.38C343.155 721.52 342.925 714.64 342.505 706.79C348.885 712.04 352.105 718.24 355.275 724.43C355.515 724.91 354.645 726.09 354.095 726.8C353.635 727.4 352.835 727.73 352.295 728.29C352.085 728.51 352.175 729.03 352.045 730.12C353.765 729.63 355.155 729.24 356.575 728.83C361.085 734.57 364.805 736.11 369.115 734C373.695 731.76 374.475 728.34 372.125 719.43C380.065 715.12 388.165 710.73 396.265 706.34C396.185 705.9 396.105 705.46 396.025 705.02C394.585 705.32 392.995 705.33 391.735 705.98C384.905 709.52 378.155 713.22 371.015 717.05C368.995 713.71 366.975 710.07 364.685 706.6C358.965 697.97 351.775 690.86 342.985 685.26C339.805 683.24 337.525 679.78 334.305 677.85C325.715 672.71 314.805 679.22 315.085 689.23C315.355 698.81 316.045 708.38 316.515 717.95C316.585 719.48 316.475 721.02 316.445 723.1C311.865 721.79 307.845 720.79 303.935 719.47C300.045 718.16 296.605 718.81 294.215 721.99C292.015 724.9 291.575 728.35 293.685 731.73C293.995 732.23 294.085 732.88 294.685 734.7C283.605 730.82 273.255 727.69 263.345 723.52C257.695 721.14 252.655 717.21 247.535 713.69C244.705 711.78 243.335 709.11 246.925 705.76Z" fill="white"/>
<path id="Vector_36" opacity="0.59" d="M321.975 670.93C330.015 673.24 337.935 668.71 340.245 660.49C342.445 652.65 338.165 644.89 330.385 642.61C322.425 640.28 314.085 644.83 311.845 652.75C309.635 660.57 314.145 668.68 321.975 670.93Z" fill="white"/>
</g>
<g id="Group_13" opacity="0.59">
<path id="Vector_37" opacity="0.59" d="M95.4863 694.094C87.8163 696.294 80.3563 698.424 72.8963 700.574C64.4563 703.004 57.9663 700.504 54.1863 692.394C50.5863 684.644 47.7963 676.514 44.5363 668.244C31.8363 671.394 23.2063 679.484 17.8163 690.624C3.74627 719.664 23.9863 753.374 56.2163 754.234C74.2963 754.714 88.0163 746.214 96.8463 730.234C97.4763 729.084 97.8763 727.704 98.7663 726.834C99.5163 726.104 101.386 725.344 101.786 725.694C102.646 726.464 103.646 728.354 103.256 729.054C100.516 734.024 98.1763 739.494 94.3663 743.544C71.7363 767.544 35.0163 765.244 16.2463 738.074C0.446271 715.204 6.00627 683.504 31.5863 667.504C34.7563 665.524 38.2563 664.074 42.2863 662.024C41.0263 658.674 39.7363 655.214 38.2463 651.264C29.9663 653.634 22.0563 655.934 14.1263 658.154C12.3963 658.644 10.5763 659.164 8.80627 659.124C1.32627 658.944 -2.46373 652.104 1.75627 645.954C7.03627 638.254 12.6763 630.794 18.4063 623.414C21.6463 619.234 26.4663 618.464 30.1963 620.984C33.6063 623.294 34.3763 628.264 32.0563 632.904C31.8563 633.314 31.8263 633.814 32.4563 635.474C35.0463 633.934 37.4963 632.044 40.2563 630.934C44.5263 629.224 49.2463 626.414 53.3363 627.014C59.4763 627.914 64.1563 625.434 69.4263 624.274C69.4963 623.824 69.5563 623.364 69.6263 622.914C68.5363 622.504 67.4563 621.764 66.3563 621.754C65.0863 621.744 63.7363 622.804 62.5463 622.614C61.0263 622.364 59.6363 621.334 58.1863 620.644C59.0863 619.494 59.7663 617.974 60.9363 617.294C62.4563 616.414 64.3763 616.204 66.6463 615.544C67.5663 602.244 68.5663 588.894 69.2963 575.524C69.3563 574.414 67.5363 573.254 66.7463 572.014C66.1163 571.034 65.1163 569.654 65.4063 568.884C65.7463 567.984 67.4363 566.864 68.3363 567.014C77.4663 568.544 86.2863 570.934 93.5363 577.194C97.6163 580.724 97.8363 585.534 98.1463 590.344C98.2963 592.634 98.2863 594.954 98.5863 597.224C99.5763 604.644 101.116 605.634 108.116 603.644C109.066 603.374 110.076 602.774 110.966 602.904C112.356 603.114 113.686 603.814 115.036 604.304C114.176 605.674 113.626 607.574 112.386 608.284C110.426 609.394 107.956 609.574 105.806 610.414C104.886 610.764 104.226 611.774 103.446 612.484C104.366 613.204 105.176 614.284 106.216 614.584C113.776 616.764 115.736 621.314 112.016 628.244C111.576 629.064 111.036 630.144 111.216 630.954C113.596 641.274 107.316 648.084 101.526 655.054C99.7563 657.184 97.7663 659.194 95.5663 660.854C94.6963 661.514 92.8563 661.414 91.7363 660.964C91.2463 660.774 90.9563 658.514 91.4463 657.744C93.0263 655.254 92.1663 653.574 90.4463 651.664C88.9163 649.964 87.8463 647.864 86.4463 646.054C80.4063 638.244 79.1463 638.054 67.9663 643.424C71.9463 653.964 75.8363 664.614 80.1063 675.104C80.5363 676.164 83.3663 676.904 84.9463 676.704C90.0263 676.074 95.0463 674.964 100.076 673.994C104.636 673.114 107.816 675.194 109.866 678.924C118.356 694.364 126.666 709.894 135.126 725.354C138.096 730.784 137.216 736.604 132.776 739.314C127.066 742.794 121.766 741.494 118.296 735.254C111.646 723.314 105.266 711.224 98.7263 699.214C97.8363 697.494 96.6663 695.914 95.4863 694.094ZM94.5363 607.394C93.7763 600.854 92.6963 594.904 92.5163 588.924C92.3963 584.854 91.1663 581.774 87.8063 579.804C84.7463 578.004 81.4563 576.524 78.0963 575.374C77.3863 575.134 75.1463 576.834 75.0163 577.824C74.3563 583.014 74.1363 588.264 73.8063 593.504C73.3863 600.124 73.0063 606.754 72.5963 613.684C80.3963 611.454 87.6563 609.364 94.5363 607.394ZM105.336 632.394C99.5863 634.044 93.8363 635.694 87.6263 637.474C90.4163 641.574 92.8963 645.384 95.5963 649.024C96.0663 649.654 97.7363 650.044 98.4763 649.714C102.226 648.054 106.656 636.904 105.336 632.394ZM74.7063 619.564C74.8263 620.304 74.9563 621.034 75.0763 621.774C82.3663 621.804 89.1563 618.404 96.1563 616.544C96.8563 616.354 97.1663 614.704 98.0963 612.854C89.4363 615.344 82.0763 617.454 74.7063 619.564Z" fill="white"/>
<path id="Vector_38" opacity="0.59" d="M48.2363 623.914C39.3363 626.574 29.5863 621.114 26.8963 611.974C24.2763 603.064 29.4562 593.844 38.5862 591.204C47.2562 588.694 57.1062 594.014 59.7962 602.644C62.3862 610.944 56.7163 621.384 48.2363 623.914Z" fill="white"/>
</g>
<g id="Group_14" opacity="0.59">
<path id="Vector_39" opacity="0.59" d="M164.24 265.8C162.92 266.08 161.65 266.32 160.39 266.61C155.66 267.7 151.14 269.39 146.78 271.53C139.82 274.96 133.54 279.35 128.06 284.85C123.65 289.28 119.95 294.22 117.5 300.01C116.09 303.34 115.19 306.8 115.29 310.44C115.45 316.78 118.26 321.59 123.84 324.65C125.38 325.49 127.1 325.99 128.74 326.65C128.82 326.68 128.91 326.71 129 326.73C129 326.79 129 326.86 129 326.92C127.03 327.02 125.05 327.17 123.08 327.2C118.83 327.26 114.7 326.63 110.83 324.79C105.84 322.42 102.58 318.63 101.52 313.12C100.83 309.54 101.28 306.02 102.36 302.58C103.99 297.37 106.78 292.79 110.26 288.63C117.95 279.44 127.56 272.94 138.7 268.64C142.7 267.1 146.83 266 151.09 265.43C155.28 264.86 159.47 264.82 163.64 265.64C163.74 265.66 163.83 265.68 163.93 265.71C164.01 265.73 164.1 265.76 164.24 265.8Z" fill="white"/>
<path id="Vector_40" opacity="0.59" d="M235.96 315.7C237.03 317.35 238.15 318.97 239.16 320.65C241 323.73 242.35 327.03 242.94 330.58C244.28 338.63 241.09 345.63 232.98 349.29C230.25 350.52 227.37 351.17 224.4 351.48C217.32 352.22 210.46 351.11 203.76 348.94C193.14 345.51 183.77 339.94 175.87 332.02C171.53 327.68 167.98 322.78 165.82 316.98C165.72 316.7 165.61 316.42 165.52 316.14C165.48 316.03 165.46 315.92 165.41 315.72C165.52 315.81 165.58 315.85 165.62 315.89C170.47 321.8 176.34 326.5 182.92 330.35C189.32 334.1 196.14 336.81 203.41 338.33C207.6 339.21 211.85 339.56 216.12 339.3C220.21 339.05 224.16 338.19 227.79 336.19C232.27 333.73 235.25 330.11 236.28 325.02C236.87 322.1 236.63 319.2 235.94 316.33C235.9 316.15 235.85 315.97 235.81 315.78C235.85 315.76 235.9 315.73 235.96 315.7Z" fill="white"/>
<path id="Vector_41" opacity="0.59" d="M151.01 291.21C149.25 295.7 148.09 300.33 147.44 305.1C146.95 308.7 146.68 312.3 146.75 315.93C146.92 324.12 148.24 332.09 151.4 339.68C153.38 344.43 155.94 348.81 159.66 352.43C162.42 355.12 165.58 357.12 169.43 357.9C173.6 358.75 177.47 357.92 181.05 355.73C182.47 354.86 183.76 353.79 185.15 352.79C184.61 353.89 184.09 355 183.52 356.08C181.51 359.84 179.02 363.23 175.67 365.92C173.1 367.98 170.23 369.39 166.95 369.85C163.25 370.36 159.83 369.51 156.63 367.65C152.71 365.36 149.81 362.06 147.43 358.27C144.07 352.9 142.01 347.03 140.75 340.85C139.93 336.85 139.51 332.8 139.4 328.71C139.19 321 140.15 313.47 142.55 306.13C144.15 301.25 146.39 296.69 149.62 292.66C149.97 292.23 150.35 291.81 150.71 291.39C150.79 291.3 150.83 291.19 150.89 291.08C150.93 291.12 150.97 291.16 151.01 291.21Z" fill="white"/>
</g>
<g id="Group_15" opacity="0.59">
<path id="Vector_42" opacity="0.59" d="M226.24 536.8C224.92 537.08 223.65 537.32 222.39 537.61C217.66 538.7 213.14 540.39 208.78 542.53C201.82 545.96 195.54 550.35 190.06 555.85C185.65 560.28 181.95 565.22 179.5 571.01C178.09 574.34 177.19 577.8 177.29 581.44C177.45 587.78 180.26 592.59 185.84 595.65C187.38 596.49 189.1 596.99 190.74 597.65C190.82 597.68 190.91 597.71 191 597.73C191 597.79 191 597.86 191 597.92C189.03 598.02 187.05 598.17 185.08 598.2C180.83 598.26 176.7 597.63 172.83 595.79C167.84 593.42 164.58 589.63 163.52 584.12C162.83 580.54 163.28 577.02 164.36 573.58C165.99 568.37 168.78 563.79 172.26 559.63C179.95 550.44 189.56 543.94 200.7 539.64C204.7 538.1 208.83 537 213.09 536.43C217.28 535.86 221.47 535.82 225.64 536.64C225.74 536.66 225.83 536.68 225.93 536.71C226.01 536.73 226.1 536.76 226.24 536.8Z" fill="white"/>
<path id="Vector_43" opacity="0.59" d="M297.96 586.7C299.03 588.35 300.15 589.97 301.16 591.65C303 594.73 304.35 598.03 304.94 601.58C306.28 609.63 303.09 616.63 294.98 620.29C292.25 621.52 289.37 622.17 286.4 622.48C279.32 623.22 272.46 622.11 265.76 619.94C255.14 616.51 245.77 610.94 237.87 603.02C233.53 598.68 229.98 593.78 227.82 587.98C227.72 587.7 227.61 587.42 227.52 587.14C227.48 587.03 227.46 586.92 227.41 586.72C227.52 586.81 227.58 586.85 227.62 586.89C232.47 592.8 238.34 597.5 244.92 601.35C251.32 605.1 258.14 607.81 265.41 609.33C269.6 610.21 273.85 610.56 278.12 610.3C282.21 610.05 286.16 609.19 289.79 607.19C294.27 604.73 297.25 601.11 298.28 596.02C298.87 593.1 298.63 590.2 297.94 587.33C297.9 587.15 297.85 586.97 297.81 586.78C297.85 586.76 297.9 586.73 297.96 586.7Z" fill="white"/>
<path id="Vector_44" opacity="0.59" d="M213.01 562.21C211.25 566.7 210.09 571.33 209.44 576.1C208.95 579.7 208.68 583.3 208.75 586.93C208.92 595.12 210.24 603.09 213.4 610.68C215.38 615.43 217.94 619.81 221.66 623.43C224.42 626.12 227.58 628.12 231.43 628.9C235.6 629.75 239.47 628.92 243.05 626.73C244.47 625.86 245.76 624.79 247.15 623.79C246.61 624.89 246.09 626 245.52 627.08C243.51 630.84 241.02 634.23 237.67 636.92C235.1 638.98 232.23 640.39 228.95 640.85C225.25 641.36 221.83 640.51 218.63 638.65C214.71 636.36 211.81 633.06 209.43 629.27C206.07 623.9 204.01 618.03 202.75 611.85C201.93 607.85 201.51 603.8 201.4 599.71C201.19 592 202.15 584.47 204.55 577.13C206.15 572.25 208.39 567.69 211.62 563.66C211.97 563.23 212.35 562.81 212.71 562.39C212.79 562.3 212.83 562.19 212.89 562.08C212.93 562.12 212.97 562.16 213.01 562.21Z" fill="white"/>
</g>
<g id="Group_16" opacity="0.59">
<path id="Vector_45" opacity="0.59" d="M414.24 244.8C412.92 245.08 411.65 245.32 410.39 245.61C405.66 246.7 401.14 248.39 396.78 250.53C389.82 253.96 383.54 258.35 378.06 263.85C373.65 268.28 369.95 273.22 367.5 279.01C366.09 282.34 365.19 285.8 365.29 289.44C365.45 295.78 368.26 300.59 373.84 303.65C375.38 304.49 377.1 304.99 378.74 305.65C378.82 305.68 378.91 305.71 379 305.73C379 305.79 379 305.86 379 305.92C377.03 306.02 375.05 306.17 373.08 306.2C368.83 306.26 364.7 305.63 360.83 303.79C355.84 301.42 352.58 297.63 351.52 292.12C350.83 288.54 351.28 285.02 352.36 281.58C353.99 276.37 356.78 271.79 360.26 267.63C367.95 258.44 377.56 251.94 388.7 247.64C392.7 246.1 396.83 245 401.09 244.43C405.28 243.86 409.47 243.82 413.64 244.64C413.74 244.66 413.83 244.68 413.93 244.71C414.01 244.73 414.1 244.76 414.24 244.8Z" fill="white"/>
<path id="Vector_46" opacity="0.59" d="M485.96 294.7C487.03 296.35 488.15 297.97 489.16 299.65C491 302.73 492.35 306.03 492.94 309.58C494.28 317.63 491.09 324.63 482.98 328.29C480.25 329.52 477.37 330.17 474.4 330.48C467.32 331.22 460.46 330.11 453.76 327.94C443.14 324.51 433.77 318.94 425.87 311.02C421.53 306.68 417.98 301.78 415.82 295.98C415.72 295.7 415.61 295.42 415.52 295.14C415.48 295.03 415.46 294.92 415.41 294.72C415.52 294.81 415.58 294.85 415.62 294.89C420.47 300.8 426.34 305.5 432.92 309.35C439.32 313.1 446.14 315.81 453.41 317.33C457.6 318.21 461.85 318.56 466.12 318.3C470.21 318.05 474.16 317.19 477.79 315.19C482.27 312.73 485.25 309.11 486.28 304.02C486.87 301.1 486.63 298.2 485.94 295.33C485.9 295.15 485.85 294.97 485.81 294.78C485.85 294.76 485.9 294.73 485.96 294.7Z" fill="white"/>
<path id="Vector_47" opacity="0.59" d="M401.01 270.21C399.25 274.7 398.09 279.33 397.44 284.1C396.95 287.7 396.68 291.3 396.75 294.93C396.92 303.12 398.24 311.09 401.4 318.68C403.38 323.43 405.94 327.81 409.66 331.43C412.42 334.12 415.58 336.12 419.43 336.9C423.6 337.75 427.47 336.92 431.05 334.73C432.47 333.86 433.76 332.79 435.15 331.79C434.61 332.89 434.09 334 433.52 335.08C431.51 338.84 429.02 342.23 425.67 344.92C423.1 346.98 420.23 348.39 416.95 348.85C413.25 349.36 409.83 348.51 406.63 346.65C402.71 344.36 399.81 341.06 397.43 337.27C394.07 331.9 392.01 326.03 390.75 319.85C389.93 315.85 389.51 311.8 389.4 307.71C389.19 300 390.15 292.47 392.55 285.13C394.15 280.25 396.39 275.69 399.62 271.66C399.97 271.23 400.35 270.81 400.71 270.39C400.79 270.3 400.83 270.19 400.89 270.08C400.93 270.12 400.97 270.16 401.01 270.21Z" fill="white"/>
</g>
<g id="Group_17" opacity="0.59">
<path id="Vector_48" opacity="0.59" d="M1052.24 504.8C1050.92 505.08 1049.65 505.32 1048.39 505.61C1043.66 506.7 1039.14 508.39 1034.78 510.53C1027.82 513.96 1021.54 518.35 1016.06 523.85C1011.65 528.28 1007.95 533.22 1005.5 539.01C1004.09 542.34 1003.19 545.8 1003.29 549.44C1003.45 555.78 1006.26 560.59 1011.84 563.65C1013.38 564.49 1015.1 564.99 1016.74 565.65C1016.82 565.68 1016.91 565.71 1017 565.73C1017 565.79 1017 565.86 1017 565.92C1015.03 566.02 1013.05 566.17 1011.08 566.2C1006.83 566.26 1002.7 565.63 998.83 563.79C993.84 561.42 990.58 557.63 989.52 552.12C988.83 548.54 989.28 545.02 990.36 541.58C991.99 536.37 994.78 531.79 998.26 527.63C1005.95 518.44 1015.56 511.94 1026.7 507.64C1030.7 506.1 1034.83 505 1039.09 504.43C1043.28 503.86 1047.47 503.82 1051.64 504.64C1051.74 504.66 1051.83 504.68 1051.93 504.71C1052.01 504.73 1052.1 504.76 1052.24 504.8Z" fill="white"/>
<path id="Vector_49" opacity="0.59" d="M1123.96 554.7C1125.03 556.35 1126.15 557.97 1127.16 559.65C1129 562.73 1130.35 566.03 1130.94 569.58C1132.28 577.63 1129.09 584.63 1120.98 588.29C1118.25 589.52 1115.37 590.17 1112.4 590.48C1105.32 591.22 1098.46 590.11 1091.76 587.94C1081.14 584.51 1071.78 578.94 1063.87 571.02C1059.53 566.68 1055.98 561.78 1053.82 555.98C1053.72 555.7 1053.61 555.42 1053.52 555.14C1053.48 555.03 1053.46 554.92 1053.41 554.72C1053.52 554.81 1053.58 554.85 1053.62 554.89C1058.47 560.8 1064.34 565.5 1070.92 569.35C1077.32 573.1 1084.14 575.81 1091.41 577.33C1095.6 578.21 1099.85 578.56 1104.12 578.3C1108.21 578.05 1112.16 577.19 1115.79 575.19C1120.27 572.73 1123.25 569.11 1124.28 564.02C1124.87 561.1 1124.63 558.2 1123.94 555.33C1123.9 555.15 1123.85 554.97 1123.81 554.78C1123.85 554.76 1123.9 554.73 1123.96 554.7Z" fill="white"/>
<path id="Vector_50" opacity="0.59" d="M1039.01 530.21C1037.25 534.7 1036.09 539.33 1035.44 544.1C1034.95 547.7 1034.68 551.3 1034.75 554.93C1034.92 563.12 1036.24 571.09 1039.4 578.68C1041.38 583.43 1043.94 587.81 1047.66 591.43C1050.42 594.12 1053.58 596.12 1057.43 596.9C1061.6 597.75 1065.47 596.92 1069.05 594.73C1070.47 593.86 1071.76 592.79 1073.15 591.79C1072.61 592.89 1072.09 594 1071.51 595.08C1069.5 598.84 1067.01 602.23 1063.66 604.92C1061.09 606.98 1058.22 608.39 1054.94 608.85C1051.24 609.36 1047.82 608.51 1044.62 606.65C1040.7 604.36 1037.8 601.06 1035.42 597.27C1032.06 591.9 1030 586.03 1028.74 579.85C1027.92 575.85 1027.5 571.8 1027.39 567.71C1027.18 560 1028.14 552.47 1030.54 545.13C1032.14 540.25 1034.38 535.69 1037.61 531.66C1037.96 531.23 1038.34 530.81 1038.7 530.39C1038.78 530.3 1038.82 530.19 1038.88 530.08C1038.93 530.12 1038.97 530.16 1039.01 530.21Z" fill="white"/>
</g>
<g id="Group_18" opacity="0.59">
<path id="Vector_51" opacity="0.59" d="M1242.24 299.8C1240.92 300.08 1239.65 300.32 1238.39 300.61C1233.66 301.7 1229.14 303.39 1224.78 305.53C1217.82 308.96 1211.54 313.35 1206.06 318.85C1201.65 323.28 1197.95 328.22 1195.5 334.01C1194.09 337.34 1193.19 340.8 1193.29 344.44C1193.45 350.78 1196.26 355.59 1201.84 358.65C1203.38 359.49 1205.1 359.99 1206.74 360.65C1206.82 360.68 1206.91 360.71 1207 360.73C1207 360.79 1207 360.86 1207 360.92C1205.03 361.02 1203.05 361.17 1201.08 361.2C1196.83 361.26 1192.7 360.63 1188.83 358.79C1183.84 356.42 1180.58 352.63 1179.52 347.12C1178.83 343.54 1179.28 340.02 1180.36 336.58C1181.99 331.37 1184.78 326.79 1188.26 322.63C1195.95 313.44 1205.56 306.94 1216.7 302.64C1220.7 301.1 1224.83 300 1229.09 299.43C1233.28 298.86 1237.47 298.82 1241.64 299.64C1241.74 299.66 1241.83 299.68 1241.93 299.71C1242.01 299.73 1242.1 299.76 1242.24 299.8Z" fill="white"/>
<path id="Vector_52" opacity="0.59" d="M1313.96 349.7C1315.03 351.35 1316.15 352.97 1317.16 354.65C1319 357.73 1320.35 361.03 1320.94 364.58C1322.28 372.63 1319.09 379.63 1310.98 383.29C1308.25 384.52 1305.37 385.17 1302.4 385.48C1295.32 386.22 1288.46 385.11 1281.76 382.94C1271.14 379.51 1261.78 373.94 1253.87 366.02C1249.53 361.68 1245.98 356.78 1243.82 350.98C1243.72 350.7 1243.61 350.42 1243.52 350.14C1243.48 350.03 1243.46 349.92 1243.41 349.72C1243.52 349.81 1243.58 349.85 1243.62 349.89C1248.47 355.8 1254.34 360.5 1260.92 364.35C1267.32 368.1 1274.14 370.81 1281.41 372.33C1285.6 373.21 1289.85 373.56 1294.12 373.3C1298.21 373.05 1302.16 372.19 1305.79 370.19C1310.27 367.73 1313.25 364.11 1314.28 359.02C1314.87 356.1 1314.63 353.2 1313.94 350.33C1313.9 350.15 1313.85 349.97 1313.81 349.78C1313.85 349.76 1313.9 349.73 1313.96 349.7Z" fill="white"/>
<path id="Vector_53" opacity="0.59" d="M1229.01 325.21C1227.25 329.7 1226.09 334.33 1225.44 339.1C1224.95 342.7 1224.68 346.3 1224.75 349.93C1224.92 358.12 1226.24 366.09 1229.4 373.68C1231.38 378.43 1233.94 382.81 1237.66 386.43C1240.42 389.12 1243.58 391.12 1247.43 391.9C1251.6 392.75 1255.47 391.92 1259.05 389.73C1260.47 388.86 1261.76 387.79 1263.15 386.79C1262.61 387.89 1262.09 389 1261.51 390.08C1259.5 393.84 1257.01 397.23 1253.66 399.92C1251.09 401.98 1248.22 403.39 1244.94 403.85C1241.24 404.36 1237.82 403.51 1234.62 401.65C1230.7 399.36 1227.8 396.06 1225.42 392.27C1222.06 386.9 1220 381.03 1218.74 374.85C1217.92 370.85 1217.5 366.8 1217.39 362.71C1217.18 355 1218.14 347.47 1220.54 340.13C1222.14 335.25 1224.38 330.69 1227.61 326.66C1227.96 326.23 1228.34 325.81 1228.7 325.39C1228.78 325.3 1228.82 325.19 1228.88 325.08C1228.93 325.12 1228.97 325.16 1229.01 325.21Z" fill="white"/>
</g>
<g id="Group_19" opacity="0.59">
<path id="Vector_54" opacity="0.59" d="M1266.24 0.799927C1264.92 1.07993 1263.65 1.31993 1262.39 1.60993C1257.66 2.69993 1253.14 4.38993 1248.78 6.52993C1241.82 9.95993 1235.54 14.3499 1230.06 19.8499C1225.65 24.2799 1221.95 29.2199 1219.5 35.0099C1218.09 38.3399 1217.19 41.7999 1217.29 45.4399C1217.45 51.7799 1220.26 56.5899 1225.84 59.6499C1227.38 60.4899 1229.1 60.9899 1230.74 61.6499C1230.82 61.6799 1230.91 61.7099 1231 61.7299C1231 61.7899 1231 61.8599 1231 61.9199C1229.03 62.0199 1227.05 62.1699 1225.08 62.1999C1220.83 62.2599 1216.7 61.6299 1212.83 59.7899C1207.84 57.4199 1204.58 53.6299 1203.52 48.1199C1202.83 44.5399 1203.28 41.0199 1204.36 37.5799C1205.99 32.3699 1208.78 27.7899 1212.26 23.6299C1219.95 14.4399 1229.56 7.93993 1240.7 3.63993C1244.7 2.09993 1248.83 0.999927 1253.09 0.429927C1257.28 -0.140073 1261.47 -0.180072 1265.64 0.639928C1265.74 0.659927 1265.83 0.679927 1265.93 0.709927C1266.01 0.729927 1266.1 0.759927 1266.24 0.799927Z" fill="white"/>
<path id="Vector_55" opacity="0.59" d="M1337.96 50.7C1339.03 52.35 1340.15 53.97 1341.16 55.65C1343 58.73 1344.35 62.03 1344.94 65.58C1346.28 73.63 1343.09 80.63 1334.98 84.29C1332.25 85.52 1329.37 86.17 1326.4 86.48C1319.32 87.22 1312.46 86.11 1305.76 83.94C1295.14 80.51 1285.78 74.9399 1277.87 67.0199C1273.53 62.6799 1269.98 57.78 1267.82 51.9799C1267.72 51.6999 1267.61 51.4199 1267.52 51.1399C1267.48 51.0299 1267.46 50.92 1267.41 50.72C1267.52 50.81 1267.58 50.8499 1267.62 50.8899C1272.47 56.7999 1278.34 61.4999 1284.92 65.3499C1291.32 69.0999 1298.14 71.81 1305.41 73.33C1309.6 74.21 1313.85 74.56 1318.12 74.3C1322.21 74.05 1326.16 73.19 1329.79 71.19C1334.27 68.73 1337.25 65.11 1338.28 60.02C1338.87 57.1 1338.63 54.2 1337.94 51.33C1337.9 51.15 1337.85 50.9699 1337.81 50.7799C1337.85 50.7599 1337.9 50.73 1337.96 50.7Z" fill="white"/>
<path id="Vector_56" opacity="0.59" d="M1253.01 26.2098C1251.25 30.6998 1250.09 35.3298 1249.44 40.0998C1248.95 43.6998 1248.68 47.2998 1248.75 50.9298C1248.92 59.1198 1250.24 67.0898 1253.4 74.6798C1255.38 79.4298 1257.94 83.8098 1261.66 87.4298C1264.42 90.1198 1267.58 92.1198 1271.43 92.8998C1275.6 93.7498 1279.47 92.9198 1283.05 90.7298C1284.47 89.8598 1285.76 88.7898 1287.15 87.7898C1286.61 88.8898 1286.09 89.9998 1285.51 91.0798C1283.5 94.8398 1281.01 98.2298 1277.66 100.92C1275.09 102.98 1272.22 104.39 1268.94 104.85C1265.24 105.36 1261.82 104.51 1258.62 102.65C1254.7 100.36 1251.8 97.0598 1249.42 93.2698C1246.06 87.8998 1244 82.0298 1242.74 75.8498C1241.92 71.8498 1241.5 67.7998 1241.39 63.7098C1241.18 55.9998 1242.14 48.4698 1244.54 41.1298C1246.14 36.2498 1248.38 31.6898 1251.61 27.6598C1251.96 27.2298 1252.34 26.8098 1252.7 26.3898C1252.78 26.2998 1252.82 26.1898 1252.88 26.0798C1252.93 26.1198 1252.97 26.1598 1253.01 26.2098Z" fill="white"/>
</g>
<g id="Group_20" opacity="0.59">
<path id="Vector_57" opacity="0.59" d="M1069.24 183.8C1067.92 184.08 1066.65 184.32 1065.39 184.61C1060.66 185.7 1056.14 187.39 1051.78 189.53C1044.82 192.96 1038.54 197.35 1033.06 202.85C1028.65 207.28 1024.95 212.22 1022.5 218.01C1021.09 221.34 1020.19 224.8 1020.29 228.44C1020.45 234.78 1023.26 239.59 1028.84 242.65C1030.38 243.49 1032.1 243.99 1033.74 244.65C1033.82 244.68 1033.91 244.71 1034 244.73C1034 244.79 1034 244.86 1034 244.92C1032.03 245.02 1030.05 245.17 1028.08 245.2C1023.83 245.26 1019.7 244.63 1015.83 242.79C1010.84 240.42 1007.58 236.63 1006.52 231.12C1005.83 227.54 1006.28 224.02 1007.36 220.58C1008.99 215.37 1011.78 210.79 1015.26 206.63C1022.95 197.44 1032.56 190.94 1043.7 186.64C1047.7 185.1 1051.83 184 1056.09 183.43C1060.28 182.86 1064.47 182.82 1068.64 183.64C1068.74 183.66 1068.83 183.68 1068.93 183.71C1069.01 183.73 1069.1 183.76 1069.24 183.8Z" fill="white"/>
<path id="Vector_58" opacity="0.59" d="M1140.96 233.7C1142.03 235.35 1143.15 236.97 1144.16 238.65C1146 241.73 1147.35 245.03 1147.94 248.58C1149.28 256.63 1146.09 263.63 1137.98 267.29C1135.25 268.52 1132.37 269.17 1129.4 269.48C1122.32 270.22 1115.46 269.11 1108.76 266.94C1098.14 263.51 1088.78 257.94 1080.87 250.02C1076.53 245.68 1072.98 240.78 1070.82 234.98C1070.72 234.7 1070.61 234.42 1070.52 234.14C1070.48 234.03 1070.46 233.92 1070.41 233.72C1070.52 233.81 1070.58 233.85 1070.62 233.89C1075.47 239.8 1081.34 244.5 1087.92 248.35C1094.32 252.1 1101.14 254.81 1108.41 256.33C1112.6 257.21 1116.85 257.56 1121.12 257.3C1125.21 257.05 1129.16 256.19 1132.79 254.19C1137.27 251.73 1140.25 248.11 1141.28 243.02C1141.87 240.1 1141.63 237.2 1140.94 234.33C1140.9 234.15 1140.85 233.97 1140.81 233.78C1140.85 233.76 1140.9 233.73 1140.96 233.7Z" fill="white"/>
<path id="Vector_59" opacity="0.59" d="M1056.01 209.21C1054.25 213.7 1053.09 218.33 1052.44 223.1C1051.95 226.7 1051.68 230.3 1051.75 233.93C1051.92 242.12 1053.24 250.09 1056.4 257.68C1058.38 262.43 1060.94 266.81 1064.66 270.43C1067.42 273.12 1070.58 275.12 1074.43 275.9C1078.6 276.75 1082.47 275.92 1086.05 273.73C1087.47 272.86 1088.76 271.79 1090.15 270.79C1089.61 271.89 1089.09 273 1088.51 274.08C1086.5 277.84 1084.01 281.23 1080.66 283.92C1078.09 285.98 1075.22 287.39 1071.94 287.85C1068.24 288.36 1064.82 287.51 1061.62 285.65C1057.7 283.36 1054.8 280.06 1052.42 276.27C1049.06 270.9 1047 265.03 1045.74 258.85C1044.92 254.85 1044.5 250.8 1044.39 246.71C1044.18 239 1045.14 231.47 1047.54 224.13C1049.14 219.25 1051.38 214.69 1054.61 210.66C1054.96 210.23 1055.34 209.81 1055.7 209.39C1055.78 209.3 1055.82 209.19 1055.88 209.08C1055.93 209.12 1055.97 209.16 1056.01 209.21Z" fill="white"/>
</g>
</g>
</svg>
