<svg width="229" height="215" viewBox="0 0 229 215" fill="none" xmlns="http://www.w3.org/2000/svg">
<g clip-path="url(#clip0)">
<path fill-rule="evenodd" clip-rule="evenodd" d="M130.52 75.0701C108.25 72.6001 4.1201 136.15 0.190099 150.37C-3.7399 164.59 56.8801 179.63 69.0701 190.12C81.2601 200.61 90.0501 220.79 111.66 214.69C133.26 208.6 172.03 164.06 212.05 156.62C228.27 153.6 227.27 148.72 228.27 134.6C229.27 120.48 203.18 120.15 192.73 111.37C182.25 102.6 152.78 77.5401 130.52 75.0701Z" fill="#BEE26D" fill-opacity="0.3"/>
<path fill-rule="evenodd" clip-rule="evenodd" d="M125.64 89.1901V82.2701L130.05 79.5701V86.5801L125.64 89.1901Z" fill="#8A8881"/>
<path fill-rule="evenodd" clip-rule="evenodd" d="M121.33 80.0701L125.34 82.2701V89.1901L121.33 87.0801V80.0701Z" fill="#DBD8CD"/>
<path fill-rule="evenodd" clip-rule="evenodd" d="M121.33 80.0701V79.8701L125.64 77.0701L129.95 79.5701L125.34 82.2701L121.33 80.0701Z" fill="#F5F1E1"/>
<path fill-rule="evenodd" clip-rule="evenodd" d="M126.89 1.23C127.05 1.39 127.12 1.6 127.12 1.87V76.39C127.12 76.65 127.04 76.86 126.89 77.03C126.73 77.19 126.52 77.27 126.25 77.27H126.17C125.91 77.27 125.7 77.19 125.53 77.03C125.37 76.87 125.3 76.66 125.3 76.39V1.87C125.3 1.61 125.38 1.4 125.53 1.23C125.7 1.08 125.91 1 126.17 1H126.25C126.52 1 126.73 1.08 126.89 1.23Z" fill="#383838"/>
<path fill-rule="evenodd" clip-rule="evenodd" d="M137.78 7.22001C138.3 7.77001 138.86 7.46001 139.45 6.30001V14.51C138.64 15.3 137.87 15.45 137.12 14.98C136.37 14.5 135.74 14.02 135.22 13.54C134.71 13.06 134.3 12.76 134 12.64C133.5 12.44 133.01 12.37 132.54 12.41C131.64 12.64 130.82 13 130.1 13.5C129.64 13.83 129.18 14.1 128.71 14.33C128.46 14.45 128.2 14.54 127.92 14.59C127.62 14.59 127.34 14.57 127.09 14.52V7.06001C127.29 6.91001 127.51 6.76001 127.73 6.61001C128.15 6.38001 128.7 6.11001 129.36 5.78001C130.03 5.46001 130.82 5.24001 131.73 5.10001C132.64 4.97001 133.65 5.14001 134.77 5.62001C135.88 6.10001 136.53 6.35001 136.72 6.37001C136.91 6.40001 137.26 6.68001 137.78 7.22001Z" fill="url(#paint0_linear)"/>
<path fill-rule="evenodd" clip-rule="evenodd" d="M114.62 86.88V93.79L110.61 91.69V84.48L114.62 86.88Z" fill="#DBD8CD"/>
<path fill-rule="evenodd" clip-rule="evenodd" d="M114.62 86.8801L110.61 84.4801L115.02 81.5801L119.23 84.1801L114.62 86.8801Z" fill="#F5F1E1"/>
<path fill-rule="evenodd" clip-rule="evenodd" d="M115.02 86.8802L119.53 84.1802V91.1902L115.02 93.7902V86.8802Z" fill="#8A8881"/>
<path fill-rule="evenodd" clip-rule="evenodd" d="M116.17 6.04006C116.33 6.20006 116.41 6.41006 116.41 6.68006V81.2001C116.41 81.4601 116.33 81.6701 116.17 81.8401C116.01 82.0001 115.8 82.0701 115.54 82.0701H115.46C115.2 82.0701 114.99 81.9901 114.83 81.8401C114.67 81.6801 114.59 81.4701 114.59 81.2001V6.68006C114.59 6.42006 114.67 6.21006 114.83 6.04006C114.99 5.88006 115.2 5.81006 115.46 5.81006H115.54C115.8 5.81006 116.01 5.89006 116.17 6.04006Z" fill="#383838"/>
<path fill-rule="evenodd" clip-rule="evenodd" d="M126.66 11.73C127.18 12.27 127.74 11.97 128.33 10.81V19.02C127.52 19.8 126.75 19.96 126 19.49C125.25 19.01 124.62 18.53 124.1 18.04C123.59 17.57 123.18 17.26 122.88 17.14C122.38 16.94 121.89 16.87 121.41 16.91C120.51 17.14 119.7 17.5 118.97 18C118.52 18.32 118.06 18.6 117.58 18.82C117.33 18.95 117.07 19.04 116.79 19.08C116.49 19.08 116.21 19.06 115.96 19.01V11.55C116.16 11.4 116.37 11.25 116.6 11.1C117.03 10.88 117.57 10.6 118.23 10.28C118.9 9.96001 119.69 9.73001 120.6 9.60001C121.51 9.47001 122.52 9.64001 123.64 10.12C124.76 10.6 125.41 10.85 125.6 10.87C125.79 10.9 126.14 11.19 126.66 11.73Z" fill="url(#paint1_linear)"/>
<path fill-rule="evenodd" clip-rule="evenodd" d="M104.31 92.7999L108.81 90.1899V97.2999L104.31 99.9099V92.7999Z" fill="#8A8881"/>
<path fill-rule="evenodd" clip-rule="evenodd" d="M99.8999 90.79V90.59L104.31 87.79L108.51 90.19L104.1 92.8L99.8999 90.79Z" fill="#F5F1E1"/>
<path fill-rule="evenodd" clip-rule="evenodd" d="M104.1 92.8V99.91L99.8999 97.8V90.79L104.1 92.8Z" fill="#DBD8CD"/>
<path fill-rule="evenodd" clip-rule="evenodd" d="M104.75 12.76C104.91 12.92 104.98 13.13 104.98 13.39V87.91C104.98 88.17 104.9 88.39 104.75 88.55C104.59 88.71 104.38 88.79 104.11 88.79H104.03C103.77 88.79 103.56 88.71 103.39 88.55C103.23 88.39 103.16 88.18 103.16 87.91V13.39C103.16 13.13 103.24 12.92 103.39 12.76C103.55 12.6 103.76 12.52 104.03 12.52H104.11C104.38 12.52 104.59 12.6 104.75 12.76Z" fill="#383838"/>
<path fill-rule="evenodd" clip-rule="evenodd" d="M116.14 18.24C116.66 18.78 117.22 18.48 117.81 17.32V25.53C117 26.32 116.23 26.47 115.48 26C114.73 25.52 114.1 25.04 113.58 24.55C113.07 24.08 112.66 23.77 112.36 23.66C111.86 23.46 111.37 23.38 110.9 23.43C110 23.66 109.18 24.02 108.46 24.52C108.01 24.84 107.55 25.12 107.07 25.35C106.82 25.47 106.56 25.56 106.28 25.61C105.98 25.61 105.7 25.59 105.45 25.54V18.08C105.65 17.93 105.87 17.78 106.09 17.63C106.51 17.4 107.06 17.13 107.72 16.81C108.39 16.49 109.18 16.27 110.09 16.13C110.99 16 112.01 16.17 113.13 16.65C114.24 17.13 114.9 17.38 115.08 17.4C115.28 17.42 115.62 17.7 116.14 18.24Z" fill="url(#paint2_linear)"/>
<path fill-rule="evenodd" clip-rule="evenodd" d="M32.4799 125.95L28.3799 123.75V123.64L32.7799 120.84L37.0899 123.35L32.4799 125.95Z" fill="#F5F1E1"/>
<path fill-rule="evenodd" clip-rule="evenodd" d="M32.4799 125.95V132.96L28.3799 130.86V123.75L32.4799 125.95Z" fill="#DBD8CD"/>
<path fill-rule="evenodd" clip-rule="evenodd" d="M32.7798 132.96V125.95L37.1898 123.35V130.26L32.7798 132.96Z" fill="#8A8881"/>
<path fill-rule="evenodd" clip-rule="evenodd" d="M33.8297 45.21C33.9897 45.37 34.0697 45.58 34.0697 45.85V120.37C34.0697 120.63 33.9897 120.84 33.8297 121C33.6697 121.16 33.4597 121.24 33.1897 121.24H33.1097C32.8497 121.24 32.6397 121.16 32.4797 121C32.3197 120.84 32.2397 120.63 32.2397 120.37V45.85C32.2397 45.59 32.3197 45.38 32.4797 45.21C32.6397 45.05 32.8497 44.97 33.1097 44.97H33.1897C33.4597 44.97 33.6697 45.05 33.8297 45.21Z" fill="#383838"/>
<path fill-rule="evenodd" clip-rule="evenodd" d="M44.1197 51.6999C44.6397 52.2499 45.1997 51.9399 45.7897 50.7899V58.9999C44.9897 59.7899 44.2097 59.9399 43.4597 59.4699C42.7097 58.9899 42.0797 58.5099 41.5597 58.0299C41.0497 57.5499 40.6397 57.2499 40.3397 57.1299C39.8397 56.9299 39.3497 56.8599 38.8797 56.9099C37.9797 57.1299 37.1597 57.4999 36.4397 57.9999C35.9897 58.3299 35.5197 58.5999 35.0497 58.8299C34.7997 58.9599 34.5397 59.0499 34.2597 59.0899C33.9597 59.0899 33.6797 59.0599 33.4297 59.0099V51.5499C33.6297 51.3999 33.8497 51.2499 34.0697 51.0999C34.4897 50.8699 35.0397 50.5999 35.6997 50.2699C36.3697 49.9499 37.1597 49.7299 38.0697 49.5899C38.9797 49.4599 39.9897 49.6299 41.1097 50.1199C42.2197 50.5899 42.8797 50.8399 43.0597 50.8699C43.2497 50.8699 43.5997 51.1499 44.1197 51.6999Z" fill="url(#paint3_linear)"/>
<path fill-rule="evenodd" clip-rule="evenodd" d="M21.7602 130.56V137.57L17.6602 135.47V128.15L21.7602 130.56Z" fill="#DBD8CD"/>
<path fill-rule="evenodd" clip-rule="evenodd" d="M26.5702 127.95V134.86L22.1602 137.57V130.56L26.5702 127.95Z" fill="#8A8881"/>
<path fill-rule="evenodd" clip-rule="evenodd" d="M17.6602 128.15L22.1602 125.25L26.3702 127.95L21.7602 130.56L17.6602 128.15Z" fill="#F5F1E1"/>
<path fill-rule="evenodd" clip-rule="evenodd" d="M22.81 50.22C22.97 50.38 23.05 50.59 23.05 50.86V125.38C23.05 125.64 22.97 125.85 22.81 126.01C22.65 126.17 22.44 126.25 22.18 126.25H22.1C21.84 126.25 21.63 126.17 21.47 126.01C21.31 125.85 21.23 125.64 21.23 125.38V50.85C21.23 50.59 21.31 50.38 21.47 50.21C21.63 50.05 21.84 49.97 22.1 49.97H22.18C22.44 49.98 22.65 50.06 22.81 50.22Z" fill="#383838"/>
<path fill-rule="evenodd" clip-rule="evenodd" d="M33.4002 55.7999C33.9202 56.3399 34.4802 56.0399 35.0702 54.8799V63.0899C34.2602 63.8799 33.4902 64.0299 32.7402 63.5599C31.9902 63.0799 31.3602 62.5999 30.8402 62.1099C30.3302 61.6399 29.9202 61.3299 29.6202 61.2199C29.1202 61.0199 28.6302 60.9399 28.1602 60.9899C27.2602 61.2199 26.4402 61.5799 25.7102 62.0799C25.2602 62.3999 24.8002 62.6799 24.3202 62.9099C24.0702 63.0299 23.8102 63.1199 23.5302 63.1699C23.2302 63.1699 22.9502 63.1499 22.7002 63.0999V55.6399C22.9002 55.4899 23.1102 55.3399 23.3402 55.1899C23.7702 54.9599 24.3102 54.6899 24.9802 54.3699C25.6502 54.0499 26.4402 53.8299 27.3402 53.6899C28.2502 53.5599 29.2602 53.7299 30.3902 54.2099C31.5102 54.6899 32.1602 54.9399 32.3402 54.9599C32.5302 54.9799 32.8902 55.2599 33.4002 55.7999Z" fill="url(#paint4_linear)"/>
<path fill-rule="evenodd" clip-rule="evenodd" d="M11.1399 136.57V143.68L6.93994 141.58V134.46L11.1399 136.57Z" fill="#DBD8CD"/>
<path fill-rule="evenodd" clip-rule="evenodd" d="M11.1399 136.57L6.93994 134.46V134.37L11.4499 131.56L15.6499 133.86L11.1399 136.57Z" fill="#F5F1E1"/>
<path fill-rule="evenodd" clip-rule="evenodd" d="M11.4497 143.68V136.57L15.8497 133.86V140.97L11.4497 143.68Z" fill="#8A8881"/>
<path fill-rule="evenodd" clip-rule="evenodd" d="M11.3901 56.73C11.5501 56.89 11.6301 57.1 11.6301 57.37V131.89C11.6301 132.15 11.5501 132.36 11.3901 132.52C11.2301 132.68 11.0201 132.76 10.7601 132.76H10.6801C10.4201 132.76 10.2101 132.68 10.0501 132.52C9.89006 132.36 9.81006 132.15 9.81006 131.89V57.36C9.81006 57.1 9.89006 56.89 10.0501 56.72C10.2101 56.56 10.4201 56.49 10.6801 56.49H10.7601C11.0201 56.49 11.2301 56.57 11.3901 56.73Z" fill="#383838"/>
<path fill-rule="evenodd" clip-rule="evenodd" d="M23.0901 62.6199C23.6101 63.1599 24.1701 62.8599 24.7601 61.6999V69.9099C23.9601 70.6999 23.1801 70.8499 22.4301 70.3699C21.6801 69.8899 21.0501 69.4099 20.5301 68.9299C20.0201 68.4599 19.6101 68.1499 19.3101 68.0399C18.8101 67.8399 18.3201 67.7599 17.8401 67.8099C16.9401 68.0399 16.1201 68.3999 15.4001 68.8999C14.9501 69.2199 14.4901 69.4999 14.0101 69.7199C13.7601 69.8499 13.5001 69.9399 13.2201 69.9799C12.9201 69.9799 12.6501 69.9499 12.3901 69.9099V62.4499C12.5901 62.2999 12.8101 62.1499 13.0301 61.9999C13.4601 61.7799 14.0001 61.4999 14.6601 61.1799C15.3301 60.8599 16.1201 60.6399 17.0301 60.4999C17.9401 60.3699 18.9501 60.5399 20.0701 61.0199C21.1901 61.4999 21.8401 61.7499 22.0201 61.7699C22.2201 61.7899 22.5701 62.0699 23.0901 62.6199Z" fill="url(#paint5_linear)"/>
<path fill-rule="evenodd" clip-rule="evenodd" d="M110.71 48.8599V68.6199L113.22 67.4199V47.5999L110.71 48.8599ZM121.1 67.0099L122.82 66.2099L123.05 66.0299L126.65 64.2599L126.82 64.1499L130.42 62.3799L130.65 62.3299L134.13 60.4999L134.36 60.3899L137.96 58.5599L138.53 58.3299V57.4699L120.43 66.5499L121.1 67.0099ZM64.1801 112.58V114.07L83.9901 102.48L114.53 85.7499L133.09 76.4399V75.3499V75.0099L114.53 84.2599L83.9901 100.93L64.1801 112.58ZM53.5601 80.1499V99.8999L55.8401 98.5799V78.7199L53.5601 80.1499ZM72.8601 69.2999V89.0599L74.1801 88.3199L75.1501 87.7499V67.8699L72.8601 69.2999ZM153.93 89.6799L154.67 89.3399L138.57 61.1899L138.52 61.1299L138.12 60.4399L138.18 61.4099L137.95 61.4599L142.75 69.9699L153.93 89.6799ZM91.6401 59.1399V78.8999L93.9201 77.5799V57.7099L91.6401 59.1399Z" fill="#B4A68D"/>
<path fill-rule="evenodd" clip-rule="evenodd" d="M109.05 47.66L110.71 48.86L113.22 47.6L111.4 46.46L109.05 47.66ZM113.22 67.41L110.71 68.61L109.05 69.52L91.5 78.97L89.81 80.03V79.89L74.17 88.31L72.85 89.05L71.03 90.19V90.08L55.84 98.59L53.56 99.91L51.73 101.05L47.85 103.33L64.18 112.58L83.99 100.93L114.53 84.26L133.09 75.01L123.61 68.62L123.04 68.28L122.81 68.22L121.09 67.02L120.41 66.56L138.51 57.48L137.05 56.48L136.96 56.51L118.86 65.59L118.06 64.96L113.22 67.41ZM91.64 59.14L93.92 57.71L91.98 56.68L89.81 57.99L91.64 59.14ZM75.14 67.87L73.2 66.84L71.03 68.15L72.85 69.29L75.14 67.87ZM55.84 78.72L53.9 77.69L51.73 79L53.56 80.14L55.84 78.72ZM29.46 119.09V120.97L29.23 121.03V119.2L26.37 121.03V122.91L26.2 123.02V121.14L23.29 122.97V124.91L23.12 125.02V123.08L20.2 124.97V126.91L20.03 126.97V125.03L17.23 126.8V128.85L17.12 128.91V126.91L14.32 128.8V130.74L14.09 130.86V128.92L11.35 130.74V132.68L11.18 132.74V130.86L8.38002 132.68V134.56L8.21002 134.68V132.79L5.52002 134.56V136.16L5.81002 136.39L35.55 117.21L33.96 116.24L32.53 117.15V118.92L32.36 119.09V117.27L29.46 119.09Z" fill="#F3EDE3"/>
<path fill-rule="evenodd" clip-rule="evenodd" d="M110.71 68.6099V48.8599L109.05 47.6599V69.5199L110.71 68.6099ZM64.1797 114.06V112.57L47.8497 103.32V104.29L49.3997 105.26L49.6797 105.89L50.5997 106.41L50.7697 106.46L52.4897 107.43L52.8297 107.71L53.0597 107.77L63.3997 113.59L64.1797 114.06ZM51.7297 78.9999V101.04L53.5597 99.8999V80.1499L51.7297 78.9999ZM71.0297 68.1499V90.0799V90.1899L72.8497 89.0499V69.2999L71.0297 68.1499ZM89.8097 57.9899V79.8899V80.0299L91.4997 78.9699L91.6397 78.8899V59.1399L89.8097 57.9899ZM41.9097 125.54L56.9797 142.78L57.9497 142.15L42.8797 124.85L36.0297 116.92L35.7497 116.63L34.9497 115.66L34.3797 115.03L32.5597 116.23V117.14L33.9897 116.23L35.5797 117.2V118.17H35.6397L41.9097 125.54ZM5.36967 132.96L3.65967 132.1V132.96L5.30967 133.76H5.36967V132.96ZM3.65967 137.13V152.49L28.2097 164.19V162.76L5.36967 137.7V137.93L3.65967 137.13Z" fill="#E0D9CD"/>
<path fill-rule="evenodd" clip-rule="evenodd" d="M134.12 60.5001L130.64 62.3301V65.1301L134.12 63.3601V60.5001ZM123.04 66.0401V67.1801L123.67 66.8901L123.04 67.2401V68.2701L123.61 68.6101L126.64 67.0601V64.2601L123.04 66.0401ZM122.82 68.2101V66.2101L121.1 67.0101L122.82 68.2101ZM134.35 60.3901V63.3001L137.95 61.4701V60.1601L137.89 59.9301H137.95V58.5601L134.35 60.3901ZM130.41 65.3001V62.3901L126.81 64.1601V67.0701L130.41 65.3001Z" fill="#5B5B5B"/>
<path fill-rule="evenodd" clip-rule="evenodd" d="M5.53967 136.16L4.62967 135.19L3.65967 134.05V137.13L5.36967 137.93V137.7L28.2097 162.77L57.9597 143.93L88.8497 125.49L121.17 107.85L154.68 91.0599V89.3499L153.94 89.6899L121.17 106.19L88.8497 123.77L57.9597 142.16L56.9897 142.79L28.2097 160.49L13.0797 144.45L6.34967 137.03L35.6397 118.19H35.5797V117.22L5.82967 136.39L5.53967 136.16ZM48.5297 106.7L49.6697 105.9L49.3897 105.27L35.6297 113.49L5.36967 132.96V133.76L5.53967 133.7L8.22967 131.88L8.39967 131.82L11.1997 129.94L11.3697 129.83L14.1097 128.06L14.3397 127.89L17.1397 126.12L17.2497 125.95L20.0497 124.18L20.2197 124.01L23.1397 122.24L23.3097 122.07L26.2197 120.3L26.3897 120.13L29.2497 118.25L29.4797 118.19L32.3897 116.31L32.5597 116.25L34.3797 115.05L35.6397 114.31L35.7597 114.26L38.7197 112.43L38.9497 112.32L41.9197 110.61L42.1497 110.44L45.1197 108.67L45.3497 108.55L48.3197 106.78L48.5297 106.7ZM36.0297 116.92L52.4697 107.44L50.7497 106.47L42.1297 111.61L41.8997 111.67L38.6997 113.61V113.38L35.7397 115.21V116.64L36.0297 116.92Z" fill="#C4B7A1"/>
<path fill-rule="evenodd" clip-rule="evenodd" d="M48.3101 106.76L45.3401 108.53V109.5L48.3101 107.73V106.76ZM42.1401 110.41V111.38L45.1101 109.67V108.64L42.1401 110.41ZM38.7101 112.4L35.7501 114.23V115.2L38.7101 113.37V112.4ZM38.9401 112.29V113.32L41.9101 111.55V110.58L38.9401 112.29ZM34.3701 115.03L34.9401 115.66L35.6301 115.26V114.29L34.3701 115.03ZM50.5901 106.41L49.6701 105.89L48.5301 106.69V107.66L50.5901 106.41Z" fill="#94876E"/>
<path fill-rule="evenodd" clip-rule="evenodd" d="M29.4599 119.09L32.3699 117.27V116.3L29.4599 118.18V119.09ZM26.3799 120.11V121.02L29.2399 119.19V118.22L26.3799 120.11ZM23.1299 122.23L20.2099 124V124.97L23.1299 123.08V122.23ZM20.0399 125.02V124.16L17.2399 125.93V126.79L20.0399 125.02ZM23.2999 122.05V122.96L26.2099 121.13V120.27L23.2999 122.05ZM17.1299 126.11L14.3299 127.88V128.79L17.1299 126.9V126.11ZM14.0999 128.05L11.3599 129.82V130.73L14.0999 128.91V128.05ZM11.1899 129.93L8.3899 131.81V132.67L11.1899 130.85V129.93ZM5.5399 133.7V134.56L8.2299 132.79V131.88L5.5399 133.7ZM4.6199 135.19L5.2999 134.68V133.77L3.6499 132.97V134.06L4.6199 135.19Z" fill="#94866E"/>
<path fill-rule="evenodd" clip-rule="evenodd" d="M133.09 75.35L142.74 69.98L137.94 61.47L134.34 63.3L134.11 63.36L130.63 65.13L130.4 65.3L126.8 67.07H126.63L123.6 68.62L133.08 75.01V75.35H133.09ZM52.4698 107.44L36.0298 116.92L42.8798 124.85L63.3798 113.6L53.0398 107.78L52.8098 107.89V107.72L52.4698 107.44Z" fill="#B4776B"/>
<path fill-rule="evenodd" clip-rule="evenodd" d="M13.0798 144.44L41.9098 125.54L35.6298 118.17L6.33984 137.01L13.0798 144.44Z" fill="#88A07E"/>
<path fill-rule="evenodd" clip-rule="evenodd" d="M56.9801 142.78L41.9101 125.54L13.0801 144.44L28.2001 160.48L56.9801 142.78Z" fill="#B3C6AC"/>
<path fill-rule="evenodd" clip-rule="evenodd" d="M47.8497 104.3L18.4997 122.28L3.65967 132.1L5.36967 132.96L35.6297 113.49L49.3897 105.27L47.8497 104.3Z" fill="#F3EDE2"/>
<path fill-rule="evenodd" clip-rule="evenodd" d="M88.8397 127.48L121.16 109.84V107.84L88.8397 125.48V127.48ZM57.9597 143.92L28.1997 162.76V164.19L57.9497 145.86V143.92H57.9597Z" fill="#0099FF"/>
<path fill-rule="evenodd" clip-rule="evenodd" d="M57.96 145.86L88.84 127.48V125.48L57.96 143.92V145.86Z" fill="#FFCC00"/>
<path fill-rule="evenodd" clip-rule="evenodd" d="M64.1799 114.06L63.3799 113.6L42.8799 124.85L57.9599 142.15L88.8399 123.77L121.16 106.18L153.93 89.68L142.74 69.98L133.09 75.35V76.43L114.54 85.74L83.9899 102.47L64.1799 114.06Z" fill="#E79181"/>
<path fill-rule="evenodd" clip-rule="evenodd" d="M121.16 109.84L154.67 92.99V91.05L121.16 107.84V109.84Z" fill="#FF3300"/>
<path fill-rule="evenodd" clip-rule="evenodd" d="M68.6802 156.09L147.65 110.67L207.03 144.7L127.94 190.12L68.6802 156.09Z" fill="white"/>
<path fill-rule="evenodd" clip-rule="evenodd" d="M147.02 113.47L202.36 145.19L128.66 187.52L73.4302 155.8L147.02 113.47Z" fill="#123A49"/>
<path fill-rule="evenodd" clip-rule="evenodd" d="M97.39 148.76C97.3 148.76 97.25 148.91 97.25 149.22C97.25 149.63 103.17 153.72 115.01 161.49C119.92 164.97 123.92 167.74 127 169.77C132.58 173.66 135.81 175.6 136.67 175.6L137.25 175.44C134.46 173.6 127.91 169 117.61 161.64C109.91 156.12 103.37 151.78 97.97 148.6C97.78 148.71 97.59 148.76 97.39 148.76Z" fill="white"/>
<path fill-rule="evenodd" clip-rule="evenodd" d="M136.25 126.08C155.85 138.92 169.8 147.43 178.11 151.61L178.25 151.14C160.19 138.92 146.24 130.42 136.4 125.61L136.25 126.08Z" fill="white"/>
<path d="M115.75 161.1L155.87 137.57" stroke="white" stroke-miterlimit="10"/>
<path d="M152.8 116.15L78.75 160.1" stroke="white" stroke-miterlimit="10"/>
<path d="M196.8 140.15L122.75 184.1" stroke="white" stroke-miterlimit="10"/>
<path opacity="0.6" fill-rule="evenodd" clip-rule="evenodd" d="M164.83 159.25L108.28 126.6V136.45L164.83 169.11V159.25Z" fill="#00CC66"/>
</g>
<defs>
<linearGradient id="paint0_linear" x1="128.859" y1="10.1558" x2="169.351" y2="10.1558" gradientUnits="userSpaceOnUse">
<stop stop-color="#770000"/>
<stop offset="0.1843" stop-color="#FF0000"/>
<stop offset="0.2627" stop-color="#FFA1A1"/>
<stop offset="0.3725" stop-color="#FF0000"/>
<stop offset="0.4471" stop-color="#9D0000"/>
<stop offset="0.5216" stop-color="#FF0000"/>
<stop offset="0.6039" stop-color="#FF8585"/>
<stop offset="0.698" stop-color="#FF0000"/>
<stop offset="0.9529" stop-color="#B20000"/>
</linearGradient>
<linearGradient id="paint1_linear" x1="117.741" y1="14.6649" x2="158.236" y2="14.6649" gradientUnits="userSpaceOnUse">
<stop stop-color="#770000"/>
<stop offset="0.1843" stop-color="#FF0000"/>
<stop offset="0.2627" stop-color="#FFA1A1"/>
<stop offset="0.3725" stop-color="#FF0000"/>
<stop offset="0.4471" stop-color="#9D0000"/>
<stop offset="0.5216" stop-color="#FF0000"/>
<stop offset="0.6039" stop-color="#FF8585"/>
<stop offset="0.698" stop-color="#FF0000"/>
<stop offset="0.9529" stop-color="#B20000"/>
</linearGradient>
<linearGradient id="paint2_linear" x1="107.22" y1="21.1756" x2="147.716" y2="21.1756" gradientUnits="userSpaceOnUse">
<stop stop-color="#770000"/>
<stop offset="0.1843" stop-color="#FF0000"/>
<stop offset="0.2627" stop-color="#FFA1A1"/>
<stop offset="0.3725" stop-color="#FF0000"/>
<stop offset="0.4471" stop-color="#9D0000"/>
<stop offset="0.5216" stop-color="#FF0000"/>
<stop offset="0.6039" stop-color="#FF8585"/>
<stop offset="0.698" stop-color="#FF0000"/>
<stop offset="0.9529" stop-color="#B20000"/>
</linearGradient>
<linearGradient id="paint3_linear" x1="35.1983" y1="54.6316" x2="75.6939" y2="54.6316" gradientUnits="userSpaceOnUse">
<stop stop-color="#770000"/>
<stop offset="0.1843" stop-color="#FF0000"/>
<stop offset="0.2627" stop-color="#FFA1A1"/>
<stop offset="0.3725" stop-color="#FF0000"/>
<stop offset="0.4471" stop-color="#9D0000"/>
<stop offset="0.5216" stop-color="#FF0000"/>
<stop offset="0.6039" stop-color="#FF8585"/>
<stop offset="0.698" stop-color="#FF0000"/>
<stop offset="0.9529" stop-color="#B20000"/>
</linearGradient>
<linearGradient id="paint4_linear" x1="24.4817" y1="58.739" x2="64.9773" y2="58.739" gradientUnits="userSpaceOnUse">
<stop stop-color="#770000"/>
<stop offset="0.1843" stop-color="#FF0000"/>
<stop offset="0.2627" stop-color="#FFA1A1"/>
<stop offset="0.3725" stop-color="#FF0000"/>
<stop offset="0.4471" stop-color="#9D0000"/>
<stop offset="0.5216" stop-color="#FF0000"/>
<stop offset="0.6039" stop-color="#FF8585"/>
<stop offset="0.698" stop-color="#FF0000"/>
<stop offset="0.9529" stop-color="#B20000"/>
</linearGradient>
<linearGradient id="paint5_linear" x1="14.1629" y1="65.5519" x2="54.6585" y2="65.5519" gradientUnits="userSpaceOnUse">
<stop stop-color="#770000"/>
<stop offset="0.1843" stop-color="#FF0000"/>
<stop offset="0.2627" stop-color="#FFA1A1"/>
<stop offset="0.3725" stop-color="#FF0000"/>
<stop offset="0.4471" stop-color="#9D0000"/>
<stop offset="0.5216" stop-color="#FF0000"/>
<stop offset="0.6039" stop-color="#FF8585"/>
<stop offset="0.698" stop-color="#FF0000"/>
<stop offset="0.9529" stop-color="#B20000"/>
</linearGradient>
<clipPath id="clip0">
<rect width="228.28" height="214.82" fill="white"/>
</clipPath>
</defs>
</svg>
