<svg width="229" height="215" viewBox="0 0 229 215" fill="none" xmlns="http://www.w3.org/2000/svg">
<g clip-path="url(#clip0)">
<path fill-rule="evenodd" clip-rule="evenodd" d="M130.52 74.0701C108.25 71.6001 4.1201 135.15 0.190099 149.37C-3.7399 163.59 56.8801 178.63 69.0701 189.12C81.2601 199.61 90.0501 219.79 111.66 213.69C133.26 207.6 172.03 163.06 212.05 155.62C228.27 152.6 227.27 147.72 228.27 133.6C229.27 119.48 203.18 119.15 192.73 110.37C182.25 101.6 152.78 76.5401 130.52 74.0701Z" fill="#BEE26D"/>
<path fill-rule="evenodd" clip-rule="evenodd" d="M125.64 88.1901V81.2701L130.05 78.5701V85.5801L125.64 88.1901Z" fill="#8A8881"/>
<path fill-rule="evenodd" clip-rule="evenodd" d="M121.33 79.0701L125.34 81.2701V88.1901L121.33 86.0801V79.0701Z" fill="#DBD8CD"/>
<path fill-rule="evenodd" clip-rule="evenodd" d="M121.33 79.0701V78.8701L125.64 76.0701L129.95 78.5701L125.34 81.2701L121.33 79.0701Z" fill="#F5F1E1"/>
<path fill-rule="evenodd" clip-rule="evenodd" d="M126.89 0.23C127.05 0.39 127.12 0.6 127.12 0.87V75.39C127.12 75.65 127.04 75.86 126.89 76.03C126.73 76.19 126.52 76.27 126.25 76.27H126.17C125.91 76.27 125.7 76.19 125.53 76.03C125.37 75.87 125.3 75.66 125.3 75.39V0.87C125.3 0.61 125.38 0.4 125.53 0.23C125.7 0.08 125.91 0 126.17 0H126.25C126.52 0 126.73 0.08 126.89 0.23Z" fill="#383838"/>
<path fill-rule="evenodd" clip-rule="evenodd" d="M137.78 6.22001C138.3 6.77001 138.86 6.46001 139.45 5.30001V13.51C138.64 14.3 137.87 14.45 137.12 13.98C136.37 13.5 135.74 13.02 135.22 12.54C134.71 12.06 134.3 11.76 134 11.64C133.5 11.44 133.01 11.37 132.54 11.41C131.64 11.64 130.82 12 130.1 12.5C129.64 12.83 129.18 13.1 128.71 13.33C128.46 13.45 128.2 13.54 127.92 13.59C127.62 13.59 127.34 13.57 127.09 13.52V6.06001C127.29 5.91001 127.51 5.76001 127.73 5.61001C128.15 5.38001 128.7 5.11001 129.36 4.78001C130.03 4.46001 130.82 4.24001 131.73 4.10001C132.64 3.97001 133.65 4.14001 134.77 4.62001C135.88 5.10001 136.53 5.35001 136.72 5.37001C136.91 5.40001 137.26 5.68001 137.78 6.22001Z" fill="url(#paint0_linear)"/>
<path fill-rule="evenodd" clip-rule="evenodd" d="M114.62 85.88V92.79L110.61 90.69V83.48L114.62 85.88Z" fill="#DBD8CD"/>
<path fill-rule="evenodd" clip-rule="evenodd" d="M114.62 85.8801L110.61 83.4801L115.02 80.5801L119.23 83.1801L114.62 85.8801Z" fill="#F5F1E1"/>
<path fill-rule="evenodd" clip-rule="evenodd" d="M115.02 85.8802L119.53 83.1802V90.1902L115.02 92.7902V85.8802Z" fill="#8A8881"/>
<path fill-rule="evenodd" clip-rule="evenodd" d="M116.17 5.04006C116.33 5.20006 116.41 5.41006 116.41 5.68006V80.2001C116.41 80.4601 116.33 80.6701 116.17 80.8401C116.01 81.0001 115.8 81.0701 115.54 81.0701H115.46C115.2 81.0701 114.99 80.9901 114.83 80.8401C114.67 80.6801 114.59 80.4701 114.59 80.2001V5.68006C114.59 5.42006 114.67 5.21006 114.83 5.04006C114.99 4.88006 115.2 4.81006 115.46 4.81006H115.54C115.8 4.81006 116.01 4.89006 116.17 5.04006Z" fill="#383838"/>
<path fill-rule="evenodd" clip-rule="evenodd" d="M126.66 10.73C127.18 11.27 127.74 10.97 128.33 9.81001V18.02C127.52 18.8 126.75 18.96 126 18.49C125.25 18.01 124.62 17.53 124.1 17.04C123.59 16.57 123.18 16.26 122.88 16.14C122.38 15.94 121.89 15.87 121.41 15.91C120.51 16.14 119.7 16.5 118.97 17C118.52 17.32 118.06 17.6 117.58 17.82C117.33 17.95 117.07 18.04 116.79 18.08C116.49 18.08 116.21 18.06 115.96 18.01V10.55C116.16 10.4 116.37 10.25 116.6 10.1C117.03 9.88001 117.57 9.60001 118.23 9.28001C118.9 8.96001 119.69 8.73001 120.6 8.60001C121.51 8.47001 122.52 8.64001 123.64 9.12001C124.76 9.60001 125.41 9.85001 125.6 9.87001C125.79 9.90001 126.14 10.19 126.66 10.73Z" fill="url(#paint1_linear)"/>
<path fill-rule="evenodd" clip-rule="evenodd" d="M104.31 91.7999L108.81 89.1899V96.2999L104.31 98.9099V91.7999Z" fill="#8A8881"/>
<path fill-rule="evenodd" clip-rule="evenodd" d="M99.8999 89.79V89.59L104.31 86.79L108.51 89.19L104.1 91.8L99.8999 89.79Z" fill="#F5F1E1"/>
<path fill-rule="evenodd" clip-rule="evenodd" d="M104.1 91.8V98.91L99.8999 96.8V89.79L104.1 91.8Z" fill="#DBD8CD"/>
<path fill-rule="evenodd" clip-rule="evenodd" d="M104.75 11.76C104.91 11.92 104.98 12.13 104.98 12.39V86.91C104.98 87.17 104.9 87.39 104.75 87.55C104.59 87.71 104.38 87.79 104.11 87.79H104.03C103.77 87.79 103.56 87.71 103.39 87.55C103.23 87.39 103.16 87.18 103.16 86.91V12.39C103.16 12.13 103.24 11.92 103.39 11.76C103.55 11.6 103.76 11.52 104.03 11.52H104.11C104.38 11.52 104.59 11.6 104.75 11.76Z" fill="#383838"/>
<path fill-rule="evenodd" clip-rule="evenodd" d="M116.14 17.24C116.66 17.78 117.22 17.48 117.81 16.32V24.53C117 25.32 116.23 25.47 115.48 25C114.73 24.52 114.1 24.04 113.58 23.55C113.07 23.08 112.66 22.77 112.36 22.66C111.86 22.46 111.37 22.38 110.9 22.43C110 22.66 109.18 23.02 108.46 23.52C108.01 23.84 107.55 24.12 107.07 24.35C106.82 24.47 106.56 24.56 106.28 24.61C105.98 24.61 105.7 24.59 105.45 24.54V17.08C105.65 16.93 105.87 16.78 106.09 16.63C106.51 16.4 107.06 16.13 107.72 15.81C108.39 15.49 109.18 15.27 110.09 15.13C110.99 15 112.01 15.17 113.13 15.65C114.24 16.13 114.9 16.38 115.08 16.4C115.28 16.42 115.62 16.7 116.14 17.24Z" fill="url(#paint2_linear)"/>
<path fill-rule="evenodd" clip-rule="evenodd" d="M32.4799 124.95L28.3799 122.75V122.64L32.7799 119.84L37.0899 122.35L32.4799 124.95Z" fill="#F5F1E1"/>
<path fill-rule="evenodd" clip-rule="evenodd" d="M32.4799 124.95V131.96L28.3799 129.86V122.75L32.4799 124.95Z" fill="#DBD8CD"/>
<path fill-rule="evenodd" clip-rule="evenodd" d="M32.7798 131.96V124.95L37.1898 122.35V129.26L32.7798 131.96Z" fill="#8A8881"/>
<path fill-rule="evenodd" clip-rule="evenodd" d="M33.8297 44.21C33.9897 44.37 34.0697 44.58 34.0697 44.85V119.37C34.0697 119.63 33.9897 119.84 33.8297 120C33.6697 120.16 33.4597 120.24 33.1897 120.24H33.1097C32.8497 120.24 32.6397 120.16 32.4797 120C32.3197 119.84 32.2397 119.63 32.2397 119.37V44.85C32.2397 44.59 32.3197 44.38 32.4797 44.21C32.6397 44.05 32.8497 43.97 33.1097 43.97H33.1897C33.4597 43.97 33.6697 44.05 33.8297 44.21Z" fill="#383838"/>
<path fill-rule="evenodd" clip-rule="evenodd" d="M44.1197 50.6999C44.6397 51.2499 45.1997 50.9399 45.7897 49.7899V57.9999C44.9897 58.7899 44.2097 58.9399 43.4597 58.4699C42.7097 57.9899 42.0797 57.5099 41.5597 57.0299C41.0497 56.5499 40.6397 56.2499 40.3397 56.1299C39.8397 55.9299 39.3497 55.8599 38.8797 55.9099C37.9797 56.1299 37.1597 56.4999 36.4397 56.9999C35.9897 57.3299 35.5197 57.5999 35.0497 57.8299C34.7997 57.9599 34.5397 58.0499 34.2597 58.0899C33.9597 58.0899 33.6797 58.0599 33.4297 58.0099V50.5499C33.6297 50.3999 33.8497 50.2499 34.0697 50.0999C34.4897 49.8699 35.0397 49.5999 35.6997 49.2699C36.3697 48.9499 37.1597 48.7299 38.0697 48.5899C38.9797 48.4599 39.9897 48.6299 41.1097 49.1199C42.2197 49.5899 42.8797 49.8399 43.0597 49.8699C43.2497 49.8699 43.5997 50.1499 44.1197 50.6999Z" fill="url(#paint3_linear)"/>
<path fill-rule="evenodd" clip-rule="evenodd" d="M21.7602 129.56V136.57L17.6602 134.47V127.15L21.7602 129.56Z" fill="#DBD8CD"/>
<path fill-rule="evenodd" clip-rule="evenodd" d="M26.5702 126.95V133.86L22.1602 136.57V129.56L26.5702 126.95Z" fill="#8A8881"/>
<path fill-rule="evenodd" clip-rule="evenodd" d="M17.6602 127.15L22.1602 124.25L26.3702 126.95L21.7602 129.56L17.6602 127.15Z" fill="#F5F1E1"/>
<path fill-rule="evenodd" clip-rule="evenodd" d="M22.81 49.22C22.97 49.38 23.05 49.59 23.05 49.86V124.38C23.05 124.64 22.97 124.85 22.81 125.01C22.65 125.17 22.44 125.25 22.18 125.25H22.1C21.84 125.25 21.63 125.17 21.47 125.01C21.31 124.85 21.23 124.64 21.23 124.38V49.85C21.23 49.59 21.31 49.38 21.47 49.21C21.63 49.05 21.84 48.97 22.1 48.97H22.18C22.44 48.98 22.65 49.06 22.81 49.22Z" fill="#383838"/>
<path fill-rule="evenodd" clip-rule="evenodd" d="M33.4002 54.7999C33.9202 55.3399 34.4802 55.0399 35.0702 53.8799V62.0899C34.2602 62.8799 33.4902 63.0299 32.7402 62.5599C31.9902 62.0799 31.3602 61.5999 30.8402 61.1099C30.3302 60.6399 29.9202 60.3299 29.6202 60.2199C29.1202 60.0199 28.6302 59.9399 28.1602 59.9899C27.2602 60.2199 26.4402 60.5799 25.7102 61.0799C25.2602 61.3999 24.8002 61.6799 24.3202 61.9099C24.0702 62.0299 23.8102 62.1199 23.5302 62.1699C23.2302 62.1699 22.9502 62.1499 22.7002 62.0999V54.6399C22.9002 54.4899 23.1102 54.3399 23.3402 54.1899C23.7702 53.9599 24.3102 53.6899 24.9802 53.3699C25.6502 53.0499 26.4402 52.8299 27.3402 52.6899C28.2502 52.5599 29.2602 52.7299 30.3902 53.2099C31.5102 53.6899 32.1602 53.9399 32.3402 53.9599C32.5302 53.9799 32.8902 54.2599 33.4002 54.7999Z" fill="url(#paint4_linear)"/>
<path fill-rule="evenodd" clip-rule="evenodd" d="M11.1399 135.57V142.68L6.93994 140.58V133.46L11.1399 135.57Z" fill="#DBD8CD"/>
<path fill-rule="evenodd" clip-rule="evenodd" d="M11.1399 135.57L6.93994 133.46V133.37L11.4499 130.56L15.6499 132.86L11.1399 135.57Z" fill="#F5F1E1"/>
<path fill-rule="evenodd" clip-rule="evenodd" d="M11.4497 142.68V135.57L15.8497 132.86V139.97L11.4497 142.68Z" fill="#8A8881"/>
<path fill-rule="evenodd" clip-rule="evenodd" d="M11.3901 55.73C11.5501 55.89 11.6301 56.1 11.6301 56.37V130.89C11.6301 131.15 11.5501 131.36 11.3901 131.52C11.2301 131.68 11.0201 131.76 10.7601 131.76H10.6801C10.4201 131.76 10.2101 131.68 10.0501 131.52C9.89006 131.36 9.81006 131.15 9.81006 130.89V56.36C9.81006 56.1 9.89006 55.89 10.0501 55.72C10.2101 55.56 10.4201 55.49 10.6801 55.49H10.7601C11.0201 55.49 11.2301 55.57 11.3901 55.73Z" fill="#383838"/>
<path fill-rule="evenodd" clip-rule="evenodd" d="M23.0901 61.6199C23.6101 62.1599 24.1701 61.8599 24.7601 60.6999V68.9099C23.9601 69.6999 23.1801 69.8499 22.4301 69.3699C21.6801 68.8899 21.0501 68.4099 20.5301 67.9299C20.0201 67.4599 19.6101 67.1499 19.3101 67.0399C18.8101 66.8399 18.3201 66.7599 17.8401 66.8099C16.9401 67.0399 16.1201 67.3999 15.4001 67.8999C14.9501 68.2199 14.4901 68.4999 14.0101 68.7199C13.7601 68.8499 13.5001 68.9399 13.2201 68.9799C12.9201 68.9799 12.6501 68.9499 12.3901 68.9099V61.4499C12.5901 61.2999 12.8101 61.1499 13.0301 60.9999C13.4601 60.7799 14.0001 60.4999 14.6601 60.1799C15.3301 59.8599 16.1201 59.6399 17.0301 59.4999C17.9401 59.3699 18.9501 59.5399 20.0701 60.0199C21.1901 60.4999 21.8401 60.7499 22.0201 60.7699C22.2201 60.7899 22.5701 61.0699 23.0901 61.6199Z" fill="url(#paint5_linear)"/>
<path fill-rule="evenodd" clip-rule="evenodd" d="M110.71 47.8599V67.6199L113.22 66.4199V46.5999L110.71 47.8599ZM121.1 66.0099L122.82 65.2099L123.05 65.0299L126.65 63.2599L126.82 63.1499L130.42 61.3799L130.65 61.3299L134.13 59.4999L134.36 59.3899L137.96 57.5599L138.53 57.3299V56.4699L120.43 65.5499L121.1 66.0099ZM64.1801 111.58V113.07L83.9901 101.48L114.53 84.7499L133.09 75.4399V74.3499V74.0099L114.53 83.2599L83.9901 99.9299L64.1801 111.58ZM53.5601 79.1499V98.8999L55.8401 97.5799V77.7199L53.5601 79.1499ZM72.8601 68.2999V88.0599L74.1801 87.3199L75.1501 86.7499V66.8699L72.8601 68.2999ZM153.93 88.6799L154.67 88.3399L138.57 60.1899L138.52 60.1299L138.12 59.4399L138.18 60.4099L137.95 60.4599L142.75 68.9699L153.93 88.6799ZM91.6401 58.1399V77.8999L93.9201 76.5799V56.7099L91.6401 58.1399Z" fill="#B4A68D"/>
<path fill-rule="evenodd" clip-rule="evenodd" d="M109.05 46.66L110.71 47.86L113.22 46.6L111.4 45.46L109.05 46.66ZM113.22 66.41L110.71 67.61L109.05 68.52L91.5 77.97L89.81 79.03V78.89L74.17 87.31L72.85 88.05L71.03 89.19V89.08L55.84 97.59L53.56 98.91L51.73 100.05L47.85 102.33L64.18 111.58L83.99 99.93L114.53 83.26L133.09 74.01L123.61 67.62L123.04 67.28L122.81 67.22L121.09 66.02L120.41 65.56L138.51 56.48L137.05 55.48L136.96 55.51L118.86 64.59L118.06 63.96L113.22 66.41ZM91.64 58.14L93.92 56.71L91.98 55.68L89.81 56.99L91.64 58.14ZM75.14 66.87L73.2 65.84L71.03 67.15L72.85 68.29L75.14 66.87ZM55.84 77.72L53.9 76.69L51.73 78L53.56 79.14L55.84 77.72ZM29.46 118.09V119.97L29.23 120.03V118.2L26.37 120.03V121.91L26.2 122.02V120.14L23.29 121.97V123.91L23.12 124.02V122.08L20.2 123.97V125.91L20.03 125.97V124.03L17.23 125.8V127.85L17.12 127.91V125.91L14.32 127.8V129.74L14.09 129.86V127.92L11.35 129.74V131.68L11.18 131.74V129.86L8.38002 131.68V133.56L8.21002 133.68V131.79L5.52002 133.56V135.16L5.81002 135.39L35.55 116.21L33.96 115.24L32.53 116.15V117.92L32.36 118.09V116.27L29.46 118.09Z" fill="#F3EDE3"/>
<path fill-rule="evenodd" clip-rule="evenodd" d="M110.71 67.6099V47.8599L109.05 46.6599V68.5199L110.71 67.6099ZM64.1797 113.06V111.57L47.8497 102.32V103.29L49.3997 104.26L49.6797 104.89L50.5997 105.41L50.7697 105.46L52.4897 106.43L52.8297 106.71L53.0597 106.77L63.3997 112.59L64.1797 113.06ZM51.7297 77.9999V100.04L53.5597 98.8999V79.1499L51.7297 77.9999ZM71.0297 67.1499V89.0799V89.1899L72.8497 88.0499V68.2999L71.0297 67.1499ZM89.8097 56.9899V78.8899V79.0299L91.4997 77.9699L91.6397 77.8899V58.1399L89.8097 56.9899ZM41.9097 124.54L56.9797 141.78L57.9497 141.15L42.8797 123.85L36.0297 115.92L35.7497 115.63L34.9497 114.66L34.3797 114.03L32.5597 115.23V116.14L33.9897 115.23L35.5797 116.2V117.17H35.6397L41.9097 124.54ZM5.36967 131.96L3.65967 131.1V131.96L5.30967 132.76H5.36967V131.96ZM3.65967 136.13V151.49L28.2097 163.19V161.76L5.36967 136.7V136.93L3.65967 136.13Z" fill="#E0D9CD"/>
<path fill-rule="evenodd" clip-rule="evenodd" d="M134.12 59.5001L130.64 61.3301V64.1301L134.12 62.3601V59.5001ZM123.04 65.0401V66.1801L123.67 65.8901L123.04 66.2401V67.2701L123.61 67.6101L126.64 66.0601V63.2601L123.04 65.0401ZM122.82 67.2101V65.2101L121.1 66.0101L122.82 67.2101ZM134.35 59.3901V62.3001L137.95 60.4701V59.1601L137.89 58.9301H137.95V57.5601L134.35 59.3901ZM130.41 64.3001V61.3901L126.81 63.1601V66.0701L130.41 64.3001Z" fill="#5B5B5B"/>
<path fill-rule="evenodd" clip-rule="evenodd" d="M5.53967 135.16L4.62967 134.19L3.65967 133.05V136.13L5.36967 136.93V136.7L28.2097 161.77L57.9597 142.93L88.8497 124.49L121.17 106.85L154.68 90.0599V88.3499L153.94 88.6899L121.17 105.19L88.8497 122.77L57.9597 141.16L56.9897 141.79L28.2097 159.49L13.0797 143.45L6.34967 136.03L35.6397 117.19H35.5797V116.22L5.82967 135.39L5.53967 135.16ZM48.5297 105.7L49.6697 104.9L49.3897 104.27L35.6297 112.49L5.36967 131.96V132.76L5.53967 132.7L8.22967 130.88L8.39967 130.82L11.1997 128.94L11.3697 128.83L14.1097 127.06L14.3397 126.89L17.1397 125.12L17.2497 124.95L20.0497 123.18L20.2197 123.01L23.1397 121.24L23.3097 121.07L26.2197 119.3L26.3897 119.13L29.2497 117.25L29.4797 117.19L32.3897 115.31L32.5597 115.25L34.3797 114.05L35.6397 113.31L35.7597 113.26L38.7197 111.43L38.9497 111.32L41.9197 109.61L42.1497 109.44L45.1197 107.67L45.3497 107.55L48.3197 105.78L48.5297 105.7ZM36.0297 115.92L52.4697 106.44L50.7497 105.47L42.1297 110.61L41.8997 110.67L38.6997 112.61V112.38L35.7397 114.21V115.64L36.0297 115.92Z" fill="#C4B7A1"/>
<path fill-rule="evenodd" clip-rule="evenodd" d="M48.3101 105.76L45.3401 107.53V108.5L48.3101 106.73V105.76ZM42.1401 109.41V110.38L45.1101 108.67V107.64L42.1401 109.41ZM38.7101 111.4L35.7501 113.23V114.2L38.7101 112.37V111.4ZM38.9401 111.29V112.32L41.9101 110.55V109.58L38.9401 111.29ZM34.3701 114.03L34.9401 114.66L35.6301 114.26V113.29L34.3701 114.03ZM50.5901 105.41L49.6701 104.89L48.5301 105.69V106.66L50.5901 105.41Z" fill="#94876E"/>
<path fill-rule="evenodd" clip-rule="evenodd" d="M29.4599 118.09L32.3699 116.27V115.3L29.4599 117.18V118.09ZM26.3799 119.11V120.02L29.2399 118.19V117.22L26.3799 119.11ZM23.1299 121.23L20.2099 123V123.97L23.1299 122.08V121.23ZM20.0399 124.02V123.16L17.2399 124.93V125.79L20.0399 124.02ZM23.2999 121.05V121.96L26.2099 120.13V119.27L23.2999 121.05ZM17.1299 125.11L14.3299 126.88V127.79L17.1299 125.9V125.11ZM14.0999 127.05L11.3599 128.82V129.73L14.0999 127.91V127.05ZM11.1899 128.93L8.3899 130.81V131.67L11.1899 129.85V128.93ZM5.5399 132.7V133.56L8.2299 131.79V130.88L5.5399 132.7ZM4.6199 134.19L5.2999 133.68V132.77L3.6499 131.97V133.06L4.6199 134.19Z" fill="#94866E"/>
<path fill-rule="evenodd" clip-rule="evenodd" d="M133.09 74.35L142.74 68.98L137.94 60.47L134.34 62.3L134.11 62.36L130.63 64.13L130.4 64.3L126.8 66.07H126.63L123.6 67.62L133.08 74.01V74.35H133.09ZM52.4698 106.44L36.0298 115.92L42.8798 123.85L63.3798 112.6L53.0398 106.78L52.8098 106.89V106.72L52.4698 106.44Z" fill="#B4776B"/>
<path fill-rule="evenodd" clip-rule="evenodd" d="M13.0798 143.44L41.9098 124.54L35.6298 117.17L6.33984 136.01L13.0798 143.44Z" fill="#88A07E"/>
<path fill-rule="evenodd" clip-rule="evenodd" d="M56.9801 141.78L41.9101 124.54L13.0801 143.44L28.2001 159.48L56.9801 141.78Z" fill="#B3C6AC"/>
<path fill-rule="evenodd" clip-rule="evenodd" d="M47.8497 103.3L18.4997 121.28L3.65967 131.1L5.36967 131.96L35.6297 112.49L49.3897 104.27L47.8497 103.3Z" fill="#F3EDE2"/>
<path fill-rule="evenodd" clip-rule="evenodd" d="M88.8397 126.48L121.16 108.84V106.84L88.8397 124.48V126.48ZM57.9597 142.92L28.1997 161.76V163.19L57.9497 144.86V142.92H57.9597Z" fill="#0099FF"/>
<path fill-rule="evenodd" clip-rule="evenodd" d="M57.96 144.86L88.84 126.48V124.48L57.96 142.92V144.86Z" fill="#FFCC00"/>
<path fill-rule="evenodd" clip-rule="evenodd" d="M64.1799 113.06L63.3799 112.6L42.8799 123.85L57.9599 141.15L88.8399 122.77L121.16 105.18L153.93 88.68L142.74 68.98L133.09 74.35V75.43L114.54 84.74L83.9899 101.47L64.1799 113.06Z" fill="#E79181"/>
<path fill-rule="evenodd" clip-rule="evenodd" d="M121.16 108.84L154.67 91.99V90.05L121.16 106.84V108.84Z" fill="#FF3300"/>
<path fill-rule="evenodd" clip-rule="evenodd" d="M68.6802 155.09L147.65 109.67L207.03 143.7L127.94 189.12L68.6802 155.09Z" fill="white"/>
<path fill-rule="evenodd" clip-rule="evenodd" d="M147.02 112.47L202.36 144.19L128.66 186.52L73.4302 154.8L147.02 112.47Z" fill="#D47748"/>
<path fill-rule="evenodd" clip-rule="evenodd" d="M96.44 140.44C96.32 140.44 96.25 140.63 96.25 141.03C96.25 141.56 104.31 146.8 120.45 156.76C127.14 161.23 132.58 164.77 136.78 167.38C144.39 172.36 148.78 174.86 149.96 174.86L150.75 174.66C146.95 172.3 138.03 166.4 123.99 156.96C113.5 149.88 104.59 144.31 97.24 140.24C96.97 140.37 96.71 140.44 96.44 140.44Z" fill="white"/>
<path fill-rule="evenodd" clip-rule="evenodd" d="M124.77 124.9C151.66 141.03 170.81 151.72 182.22 156.96L182.41 156.37C157.63 141.02 138.48 130.34 124.97 124.3L124.77 124.9Z" fill="white"/>
<path fill-rule="evenodd" clip-rule="evenodd" d="M164.83 158.25L108.28 125.6V135.45L164.83 168.11V158.25Z" fill="#00CC66"/>
</g>
<defs>
<linearGradient id="paint0_linear" x1="128.859" y1="9.15575" x2="169.351" y2="9.15575" gradientUnits="userSpaceOnUse">
<stop stop-color="#770000"/>
<stop offset="0.1843" stop-color="#FF0000"/>
<stop offset="0.2627" stop-color="#FFA1A1"/>
<stop offset="0.3725" stop-color="#FF0000"/>
<stop offset="0.4471" stop-color="#9D0000"/>
<stop offset="0.5216" stop-color="#FF0000"/>
<stop offset="0.6039" stop-color="#FF8585"/>
<stop offset="0.698" stop-color="#FF0000"/>
<stop offset="0.9529" stop-color="#B20000"/>
</linearGradient>
<linearGradient id="paint1_linear" x1="117.741" y1="13.6647" x2="158.236" y2="13.6647" gradientUnits="userSpaceOnUse">
<stop stop-color="#770000"/>
<stop offset="0.1843" stop-color="#FF0000"/>
<stop offset="0.2627" stop-color="#FFA1A1"/>
<stop offset="0.3725" stop-color="#FF0000"/>
<stop offset="0.4471" stop-color="#9D0000"/>
<stop offset="0.5216" stop-color="#FF0000"/>
<stop offset="0.6039" stop-color="#FF8585"/>
<stop offset="0.698" stop-color="#FF0000"/>
<stop offset="0.9529" stop-color="#B20000"/>
</linearGradient>
<linearGradient id="paint2_linear" x1="107.22" y1="20.1756" x2="147.716" y2="20.1756" gradientUnits="userSpaceOnUse">
<stop stop-color="#770000"/>
<stop offset="0.1843" stop-color="#FF0000"/>
<stop offset="0.2627" stop-color="#FFA1A1"/>
<stop offset="0.3725" stop-color="#FF0000"/>
<stop offset="0.4471" stop-color="#9D0000"/>
<stop offset="0.5216" stop-color="#FF0000"/>
<stop offset="0.6039" stop-color="#FF8585"/>
<stop offset="0.698" stop-color="#FF0000"/>
<stop offset="0.9529" stop-color="#B20000"/>
</linearGradient>
<linearGradient id="paint3_linear" x1="35.1984" y1="53.6316" x2="75.694" y2="53.6316" gradientUnits="userSpaceOnUse">
<stop stop-color="#770000"/>
<stop offset="0.1843" stop-color="#FF0000"/>
<stop offset="0.2627" stop-color="#FFA1A1"/>
<stop offset="0.3725" stop-color="#FF0000"/>
<stop offset="0.4471" stop-color="#9D0000"/>
<stop offset="0.5216" stop-color="#FF0000"/>
<stop offset="0.6039" stop-color="#FF8585"/>
<stop offset="0.698" stop-color="#FF0000"/>
<stop offset="0.9529" stop-color="#B20000"/>
</linearGradient>
<linearGradient id="paint4_linear" x1="24.4816" y1="57.7391" x2="64.9774" y2="57.7391" gradientUnits="userSpaceOnUse">
<stop stop-color="#770000"/>
<stop offset="0.1843" stop-color="#FF0000"/>
<stop offset="0.2627" stop-color="#FFA1A1"/>
<stop offset="0.3725" stop-color="#FF0000"/>
<stop offset="0.4471" stop-color="#9D0000"/>
<stop offset="0.5216" stop-color="#FF0000"/>
<stop offset="0.6039" stop-color="#FF8585"/>
<stop offset="0.698" stop-color="#FF0000"/>
<stop offset="0.9529" stop-color="#B20000"/>
</linearGradient>
<linearGradient id="paint5_linear" x1="14.1629" y1="64.5519" x2="54.6585" y2="64.5519" gradientUnits="userSpaceOnUse">
<stop stop-color="#770000"/>
<stop offset="0.1843" stop-color="#FF0000"/>
<stop offset="0.2627" stop-color="#FFA1A1"/>
<stop offset="0.3725" stop-color="#FF0000"/>
<stop offset="0.4471" stop-color="#9D0000"/>
<stop offset="0.5216" stop-color="#FF0000"/>
<stop offset="0.6039" stop-color="#FF8585"/>
<stop offset="0.698" stop-color="#FF0000"/>
<stop offset="0.9529" stop-color="#B20000"/>
</linearGradient>
<clipPath id="clip0">
<rect width="228.28" height="214.82" fill="white"/>
</clipPath>
</defs>
</svg>
