<svg width="230" height="215" viewBox="0 0 230 215" fill="none" xmlns="http://www.w3.org/2000/svg">
<path opacity="0.2" fill-rule="evenodd" clip-rule="evenodd" d="M131.511 74.0701C109.241 71.6001 5.11131 135.15 1.18131 149.37C-2.74869 163.59 57.8713 178.63 70.0613 189.12C82.2513 199.61 91.0413 219.79 112.651 213.69C134.251 207.6 173.021 163.06 213.041 155.62C229.261 152.6 228.261 147.72 229.261 133.6C230.261 119.48 204.171 119.15 193.721 110.37C183.241 101.6 153.771 76.5401 131.511 74.0701Z" fill="#DCE56B"/>
<path fill-rule="evenodd" clip-rule="evenodd" d="M126.631 88.1901V81.2701L131.041 78.5701V85.5801L126.631 88.1901Z" fill="#8A8881"/>
<path fill-rule="evenodd" clip-rule="evenodd" d="M122.321 79.0701L126.331 81.2701V88.1901L122.321 86.0801V79.0701Z" fill="#DBD8CD"/>
<path fill-rule="evenodd" clip-rule="evenodd" d="M122.321 79.0701V78.8701L126.631 76.0701L130.941 78.5701L126.331 81.2701L122.321 79.0701Z" fill="#F5F1E1"/>
<path fill-rule="evenodd" clip-rule="evenodd" d="M127.881 0.23C128.041 0.39 128.111 0.6 128.111 0.87V75.39C128.111 75.65 128.031 75.86 127.881 76.03C127.721 76.19 127.511 76.27 127.241 76.27H127.161C126.901 76.27 126.691 76.19 126.521 76.03C126.361 75.87 126.291 75.66 126.291 75.39V0.87C126.291 0.61 126.371 0.4 126.521 0.23C126.691 0.08 126.901 0 127.161 0H127.241C127.511 0 127.721 0.08 127.881 0.23Z" fill="#383838"/>
<path fill-rule="evenodd" clip-rule="evenodd" d="M138.771 6.22001C139.291 6.77001 139.851 6.46001 140.441 5.30001V13.51C139.631 14.3 138.861 14.45 138.111 13.98C137.361 13.5 136.731 13.02 136.211 12.54C135.701 12.06 135.291 11.76 134.991 11.64C134.491 11.44 134.001 11.37 133.531 11.41C132.631 11.64 131.811 12 131.091 12.5C130.631 12.83 130.171 13.1 129.701 13.33C129.451 13.45 129.191 13.54 128.911 13.59C128.611 13.59 128.331 13.57 128.081 13.52V6.06001C128.281 5.91001 128.501 5.76001 128.721 5.61001C129.141 5.38001 129.691 5.11001 130.351 4.78001C131.021 4.46001 131.811 4.24001 132.721 4.10001C133.631 3.97001 134.641 4.14001 135.761 4.62001C136.871 5.10001 137.521 5.35001 137.711 5.37001C137.901 5.40001 138.251 5.68001 138.771 6.22001Z" fill="url(#paint0_linear)"/>
<path fill-rule="evenodd" clip-rule="evenodd" d="M115.611 85.88V92.79L111.601 90.69V83.48L115.611 85.88Z" fill="#DBD8CD"/>
<path fill-rule="evenodd" clip-rule="evenodd" d="M115.611 85.8801L111.601 83.4801L116.011 80.5801L120.221 83.1801L115.611 85.8801Z" fill="#F5F1E1"/>
<path fill-rule="evenodd" clip-rule="evenodd" d="M116.011 85.8802L120.521 83.1802V90.1902L116.011 92.7902V85.8802Z" fill="#8A8881"/>
<path fill-rule="evenodd" clip-rule="evenodd" d="M117.161 5.04006C117.321 5.20006 117.401 5.41006 117.401 5.68006V80.2001C117.401 80.4601 117.321 80.6701 117.161 80.8401C117.001 81.0001 116.791 81.0701 116.531 81.0701H116.451C116.191 81.0701 115.981 80.9901 115.821 80.8401C115.661 80.6801 115.581 80.4701 115.581 80.2001V5.68006C115.581 5.42006 115.661 5.21006 115.821 5.04006C115.981 4.88006 116.191 4.81006 116.451 4.81006H116.531C116.791 4.81006 117.001 4.89006 117.161 5.04006Z" fill="#383838"/>
<path fill-rule="evenodd" clip-rule="evenodd" d="M127.651 10.73C128.171 11.27 128.731 10.97 129.321 9.81001V18.02C128.511 18.8 127.741 18.96 126.991 18.49C126.241 18.01 125.611 17.53 125.091 17.04C124.581 16.57 124.171 16.26 123.871 16.14C123.371 15.94 122.881 15.87 122.401 15.91C121.501 16.14 120.691 16.5 119.961 17C119.511 17.32 119.051 17.6 118.571 17.82C118.321 17.95 118.061 18.04 117.781 18.08C117.481 18.08 117.201 18.06 116.951 18.01V10.55C117.151 10.4 117.361 10.25 117.591 10.1C118.021 9.88001 118.561 9.60001 119.221 9.28001C119.891 8.96001 120.681 8.73001 121.591 8.60001C122.501 8.47001 123.511 8.64001 124.631 9.12001C125.751 9.60001 126.401 9.85001 126.591 9.87001C126.781 9.90001 127.131 10.19 127.651 10.73Z" fill="url(#paint1_linear)"/>
<path fill-rule="evenodd" clip-rule="evenodd" d="M105.301 91.7999L109.801 89.1899V96.2999L105.301 98.9099V91.7999Z" fill="#8A8881"/>
<path fill-rule="evenodd" clip-rule="evenodd" d="M100.891 89.79V89.59L105.301 86.79L109.501 89.19L105.091 91.8L100.891 89.79Z" fill="#F5F1E1"/>
<path fill-rule="evenodd" clip-rule="evenodd" d="M105.091 91.8V98.91L100.891 96.8V89.79L105.091 91.8Z" fill="#DBD8CD"/>
<path fill-rule="evenodd" clip-rule="evenodd" d="M105.741 11.76C105.901 11.92 105.971 12.13 105.971 12.39V86.91C105.971 87.17 105.891 87.39 105.741 87.55C105.581 87.71 105.371 87.79 105.101 87.79H105.021C104.761 87.79 104.551 87.71 104.381 87.55C104.221 87.39 104.151 87.18 104.151 86.91V12.39C104.151 12.13 104.231 11.92 104.381 11.76C104.541 11.6 104.751 11.52 105.021 11.52H105.101C105.371 11.52 105.581 11.6 105.741 11.76Z" fill="#383838"/>
<path fill-rule="evenodd" clip-rule="evenodd" d="M117.131 17.24C117.651 17.78 118.211 17.48 118.801 16.32V24.53C117.991 25.32 117.221 25.47 116.471 25C115.721 24.52 115.091 24.04 114.571 23.55C114.061 23.08 113.651 22.77 113.351 22.66C112.851 22.46 112.361 22.38 111.891 22.43C110.991 22.66 110.171 23.02 109.451 23.52C109.001 23.84 108.541 24.12 108.061 24.35C107.811 24.47 107.551 24.56 107.271 24.61C106.971 24.61 106.691 24.59 106.441 24.54V17.08C106.641 16.93 106.861 16.78 107.081 16.63C107.501 16.4 108.051 16.13 108.711 15.81C109.381 15.49 110.171 15.27 111.081 15.13C111.981 15 113.001 15.17 114.121 15.65C115.231 16.13 115.891 16.38 116.071 16.4C116.271 16.42 116.611 16.7 117.131 17.24Z" fill="url(#paint2_linear)"/>
<path fill-rule="evenodd" clip-rule="evenodd" d="M33.4713 124.95L29.3713 122.75V122.64L33.7713 119.84L38.0813 122.35L33.4713 124.95Z" fill="#F5F1E1"/>
<path fill-rule="evenodd" clip-rule="evenodd" d="M33.4713 124.95V131.96L29.3713 129.86V122.75L33.4713 124.95Z" fill="#DBD8CD"/>
<path fill-rule="evenodd" clip-rule="evenodd" d="M33.7712 131.96V124.95L38.1812 122.35V129.26L33.7712 131.96Z" fill="#8A8881"/>
<path fill-rule="evenodd" clip-rule="evenodd" d="M34.8214 44.21C34.9814 44.37 35.0614 44.58 35.0614 44.85V119.37C35.0614 119.63 34.9814 119.84 34.8214 120C34.6614 120.16 34.4514 120.24 34.1814 120.24H34.1014C33.8414 120.24 33.6314 120.16 33.4714 120C33.3114 119.84 33.2314 119.63 33.2314 119.37V44.85C33.2314 44.59 33.3114 44.38 33.4714 44.21C33.6314 44.05 33.8414 43.97 34.1014 43.97H34.1814C34.4514 43.97 34.6614 44.05 34.8214 44.21Z" fill="#383838"/>
<path fill-rule="evenodd" clip-rule="evenodd" d="M45.1114 50.6999C45.6314 51.2499 46.1914 50.9399 46.7814 49.7899V57.9999C45.9814 58.7899 45.2014 58.9399 44.4514 58.4699C43.7014 57.9899 43.0714 57.5099 42.5514 57.0299C42.0414 56.5499 41.6314 56.2499 41.3314 56.1299C40.8314 55.9299 40.3414 55.8599 39.8714 55.9099C38.9714 56.1299 38.1514 56.4999 37.4314 56.9999C36.9814 57.3299 36.5114 57.5999 36.0414 57.8299C35.7914 57.9599 35.5314 58.0499 35.2514 58.0899C34.9514 58.0899 34.6714 58.0599 34.4214 58.0099V50.5499C34.6214 50.3999 34.8414 50.2499 35.0614 50.0999C35.4814 49.8699 36.0314 49.5999 36.6914 49.2699C37.3614 48.9499 38.1514 48.7299 39.0614 48.5899C39.9714 48.4599 40.9814 48.6299 42.1014 49.1199C43.2114 49.5899 43.8714 49.8399 44.0514 49.8699C44.2414 49.8699 44.5914 50.1499 45.1114 50.6999Z" fill="url(#paint3_linear)"/>
<path fill-rule="evenodd" clip-rule="evenodd" d="M22.7514 129.56V136.57L18.6514 134.47V127.15L22.7514 129.56Z" fill="#DBD8CD"/>
<path fill-rule="evenodd" clip-rule="evenodd" d="M27.5614 126.95V133.86L23.1514 136.57V129.56L27.5614 126.95Z" fill="#8A8881"/>
<path fill-rule="evenodd" clip-rule="evenodd" d="M18.6514 127.15L23.1514 124.25L27.3614 126.95L22.7514 129.56L18.6514 127.15Z" fill="#F5F1E1"/>
<path fill-rule="evenodd" clip-rule="evenodd" d="M23.8014 49.22C23.9614 49.38 24.0414 49.59 24.0414 49.86V124.38C24.0414 124.64 23.9614 124.85 23.8014 125.01C23.6414 125.17 23.4314 125.25 23.1714 125.25H23.0914C22.8314 125.25 22.6214 125.17 22.4614 125.01C22.3014 124.85 22.2214 124.64 22.2214 124.38V49.85C22.2214 49.59 22.3014 49.38 22.4614 49.21C22.6214 49.05 22.8314 48.97 23.0914 48.97H23.1714C23.4314 48.98 23.6414 49.06 23.8014 49.22Z" fill="#383838"/>
<path fill-rule="evenodd" clip-rule="evenodd" d="M34.3914 54.7999C34.9114 55.3399 35.4714 55.0399 36.0614 53.8799V62.0899C35.2514 62.8799 34.4814 63.0299 33.7314 62.5599C32.9814 62.0799 32.3514 61.5999 31.8314 61.1099C31.3214 60.6399 30.9114 60.3299 30.6114 60.2199C30.1114 60.0199 29.6214 59.9399 29.1514 59.9899C28.2514 60.2199 27.4314 60.5799 26.7014 61.0799C26.2514 61.3999 25.7914 61.6799 25.3114 61.9099C25.0614 62.0299 24.8014 62.1199 24.5214 62.1699C24.2214 62.1699 23.9414 62.1499 23.6914 62.0999V54.6399C23.8914 54.4899 24.1014 54.3399 24.3314 54.1899C24.7614 53.9599 25.3014 53.6899 25.9714 53.3699C26.6414 53.0499 27.4314 52.8299 28.3314 52.6899C29.2414 52.5599 30.2514 52.7299 31.3814 53.2099C32.5014 53.6899 33.1514 53.9399 33.3314 53.9599C33.5214 53.9799 33.8814 54.2599 34.3914 54.7999Z" fill="url(#paint4_linear)"/>
<path fill-rule="evenodd" clip-rule="evenodd" d="M12.1314 135.57V142.68L7.9314 140.58V133.46L12.1314 135.57Z" fill="#DBD8CD"/>
<path fill-rule="evenodd" clip-rule="evenodd" d="M12.1314 135.57L7.9314 133.46V133.37L12.4414 130.56L16.6414 132.86L12.1314 135.57Z" fill="#F5F1E1"/>
<path fill-rule="evenodd" clip-rule="evenodd" d="M12.4414 142.68V135.57L16.8414 132.86V139.97L12.4414 142.68Z" fill="#8A8881"/>
<path fill-rule="evenodd" clip-rule="evenodd" d="M12.3815 55.73C12.5415 55.89 12.6215 56.1 12.6215 56.37V130.89C12.6215 131.15 12.5415 131.36 12.3815 131.52C12.2215 131.68 12.0115 131.76 11.7515 131.76H11.6715C11.4115 131.76 11.2015 131.68 11.0415 131.52C10.8815 131.36 10.8015 131.15 10.8015 130.89V56.36C10.8015 56.1 10.8815 55.89 11.0415 55.72C11.2015 55.56 11.4115 55.49 11.6715 55.49H11.7515C12.0115 55.49 12.2215 55.57 12.3815 55.73Z" fill="#383838"/>
<path fill-rule="evenodd" clip-rule="evenodd" d="M24.0813 61.6199C24.6013 62.1599 25.1613 61.8599 25.7513 60.6999V68.9099C24.9513 69.6999 24.1713 69.8499 23.4213 69.3699C22.6713 68.8899 22.0413 68.4099 21.5213 67.9299C21.0113 67.4599 20.6013 67.1499 20.3013 67.0399C19.8013 66.8399 19.3113 66.7599 18.8313 66.8099C17.9313 67.0399 17.1113 67.3999 16.3913 67.8999C15.9413 68.2199 15.4813 68.4999 15.0013 68.7199C14.7513 68.8499 14.4913 68.9399 14.2113 68.9799C13.9113 68.9799 13.6413 68.9499 13.3813 68.9099V61.4499C13.5813 61.2999 13.8013 61.1499 14.0213 60.9999C14.4513 60.7799 14.9913 60.4999 15.6513 60.1799C16.3213 59.8599 17.1113 59.6399 18.0213 59.4999C18.9313 59.3699 19.9413 59.5399 21.0613 60.0199C22.1813 60.4999 22.8313 60.7499 23.0113 60.7699C23.2113 60.7899 23.5613 61.0699 24.0813 61.6199Z" fill="url(#paint5_linear)"/>
<path fill-rule="evenodd" clip-rule="evenodd" d="M111.701 47.8599V67.6199L114.211 66.4199V46.5999L111.701 47.8599ZM122.091 66.0099L123.811 65.2099L124.041 65.0299L127.641 63.2599L127.811 63.1499L131.411 61.3799L131.641 61.3299L135.121 59.4999L135.351 59.3899L138.951 57.5599L139.521 57.3299V56.4699L121.421 65.5499L122.091 66.0099ZM65.1713 111.58V113.07L84.9813 101.48L115.521 84.7499L134.081 75.4399V74.3499V74.0099L115.521 83.2599L84.9813 99.9299L65.1713 111.58ZM54.5513 79.1499V98.8999L56.8313 97.5799V77.7199L54.5513 79.1499ZM73.8513 68.2999V88.0599L75.1713 87.3199L76.1413 86.7499V66.8699L73.8513 68.2999ZM154.921 88.6799L155.661 88.3399L139.561 60.1899L139.511 60.1299L139.111 59.4399L139.171 60.4099L138.941 60.4599L143.741 68.9699L154.921 88.6799ZM92.6313 58.1399V77.8999L94.9113 76.5799V56.7099L92.6313 58.1399Z" fill="#B4A68D"/>
<path fill-rule="evenodd" clip-rule="evenodd" d="M110.041 46.66L111.701 47.86L114.211 46.6L112.391 45.46L110.041 46.66ZM114.211 66.41L111.701 67.61L110.041 68.52L92.4915 77.97L90.8015 79.03V78.89L75.1615 87.31L73.8415 88.05L72.0215 89.19V89.08L56.8315 97.59L54.5515 98.91L52.7215 100.05L48.8415 102.33L65.1715 111.58L84.9815 99.93L115.521 83.26L134.081 74.01L124.601 67.62L124.031 67.28L123.801 67.22L122.081 66.02L121.401 65.56L139.501 56.48L138.041 55.48L137.951 55.51L119.851 64.59L119.051 63.96L114.211 66.41ZM92.6315 58.14L94.9115 56.71L92.9715 55.68L90.8015 56.99L92.6315 58.14ZM76.1315 66.87L74.1915 65.84L72.0215 67.15L73.8415 68.29L76.1315 66.87ZM56.8315 77.72L54.8915 76.69L52.7215 78L54.5515 79.14L56.8315 77.72ZM30.4515 118.09V119.97L30.2215 120.03V118.2L27.3615 120.03V121.91L27.1915 122.02V120.14L24.2815 121.97V123.91L24.1115 124.02V122.08L21.1915 123.97V125.91L21.0215 125.97V124.03L18.2215 125.8V127.85L18.1115 127.91V125.91L15.3115 127.8V129.74L15.0815 129.86V127.92L12.3415 129.74V131.68L12.1715 131.74V129.86L9.37147 131.68V133.56L9.20147 133.68V131.79L6.51147 133.56V135.16L6.80147 135.39L36.5415 116.21L34.9515 115.24L33.5215 116.15V117.92L33.3515 118.09V116.27L30.4515 118.09Z" fill="#F3EDE3"/>
<path fill-rule="evenodd" clip-rule="evenodd" d="M111.701 67.6099V47.8599L110.041 46.6599V68.5199L111.701 67.6099ZM65.1714 113.06V111.57L48.8414 102.32V103.29L50.3914 104.26L50.6714 104.89L51.5914 105.41L51.7614 105.46L53.4814 106.43L53.8214 106.71L54.0514 106.77L64.3914 112.59L65.1714 113.06ZM52.7214 77.9999V100.04L54.5514 98.8999V79.1499L52.7214 77.9999ZM72.0214 67.1499V89.0799V89.1899L73.8414 88.0499V68.2999L72.0214 67.1499ZM90.8014 56.9899V78.8899V79.0299L92.4914 77.9699L92.6314 77.8899V58.1399L90.8014 56.9899ZM42.9014 124.54L57.9714 141.78L58.9414 141.15L43.8714 123.85L37.0214 115.92L36.7414 115.63L35.9414 114.66L35.3714 114.03L33.5514 115.23V116.14L34.9814 115.23L36.5714 116.2V117.17H36.6314L42.9014 124.54ZM6.36137 131.96L4.65137 131.1V131.96L6.30137 132.76H6.36137V131.96ZM4.65137 136.13V151.49L29.2014 163.19V161.76L6.36137 136.7V136.93L4.65137 136.13Z" fill="#E0D9CD"/>
<path fill-rule="evenodd" clip-rule="evenodd" d="M135.111 59.5001L131.631 61.3301V64.1301L135.111 62.3601V59.5001ZM124.031 65.0401V66.1801L124.661 65.8901L124.031 66.2401V67.2701L124.601 67.6101L127.631 66.0601V63.2601L124.031 65.0401ZM123.811 67.2101V65.2101L122.091 66.0101L123.811 67.2101ZM135.341 59.3901V62.3001L138.941 60.4701V59.1601L138.881 58.9301H138.941V57.5601L135.341 59.3901ZM131.401 64.3001V61.3901L127.801 63.1601V66.0701L131.401 64.3001Z" fill="#5B5B5B"/>
<path fill-rule="evenodd" clip-rule="evenodd" d="M6.53137 135.16L5.62137 134.19L4.65137 133.05V136.13L6.36137 136.93V136.7L29.2014 161.77L58.9514 142.93L89.8414 124.49L122.161 106.85L155.671 90.0599V88.3499L154.931 88.6899L122.161 105.19L89.8414 122.77L58.9514 141.16L57.9814 141.79L29.2014 159.49L14.0714 143.45L7.34137 136.03L36.6314 117.19H36.5714V116.22L6.82137 135.39L6.53137 135.16ZM49.5214 105.7L50.6614 104.9L50.3814 104.27L36.6214 112.49L6.36137 131.96V132.76L6.53137 132.7L9.22137 130.88L9.39137 130.82L12.1914 128.94L12.3614 128.83L15.1014 127.06L15.3314 126.89L18.1314 125.12L18.2414 124.95L21.0414 123.18L21.2114 123.01L24.1314 121.24L24.3014 121.07L27.2114 119.3L27.3814 119.13L30.2414 117.25L30.4714 117.19L33.3814 115.31L33.5514 115.25L35.3714 114.05L36.6314 113.31L36.7514 113.26L39.7114 111.43L39.9414 111.32L42.9114 109.61L43.1414 109.44L46.1114 107.67L46.3414 107.55L49.3114 105.78L49.5214 105.7ZM37.0214 115.92L53.4614 106.44L51.7414 105.47L43.1214 110.61L42.8914 110.67L39.6914 112.61V112.38L36.7314 114.21V115.64L37.0214 115.92Z" fill="#C4B7A1"/>
<path fill-rule="evenodd" clip-rule="evenodd" d="M49.3013 105.76L46.3313 107.53V108.5L49.3013 106.73V105.76ZM43.1313 109.41V110.38L46.1013 108.67V107.64L43.1313 109.41ZM39.7013 111.4L36.7413 113.23V114.2L39.7013 112.37V111.4ZM39.9313 111.29V112.32L42.9013 110.55V109.58L39.9313 111.29ZM35.3613 114.03L35.9313 114.66L36.6213 114.26V113.29L35.3613 114.03ZM51.5813 105.41L50.6613 104.89L49.5213 105.69V106.66L51.5813 105.41Z" fill="#94876E"/>
<path fill-rule="evenodd" clip-rule="evenodd" d="M30.4514 118.09L33.3614 116.27V115.3L30.4514 117.18V118.09ZM27.3714 119.11V120.02L30.2314 118.19V117.22L27.3714 119.11ZM24.1214 121.23L21.2014 123V123.97L24.1214 122.08V121.23ZM21.0314 124.02V123.16L18.2314 124.93V125.79L21.0314 124.02ZM24.2914 121.05V121.96L27.2014 120.13V119.27L24.2914 121.05ZM18.1214 125.11L15.3214 126.88V127.79L18.1214 125.9V125.11ZM15.0914 127.05L12.3514 128.82V129.73L15.0914 127.91V127.05ZM12.1814 128.93L9.38136 130.81V131.67L12.1814 129.85V128.93ZM6.53136 132.7V133.56L9.22136 131.79V130.88L6.53136 132.7ZM5.61136 134.19L6.29136 133.68V132.77L4.64136 131.97V133.06L5.61136 134.19Z" fill="#94866E"/>
<path fill-rule="evenodd" clip-rule="evenodd" d="M134.081 74.35L143.731 68.98L138.931 60.47L135.331 62.3L135.101 62.36L131.621 64.13L131.391 64.3L127.791 66.07H127.621L124.591 67.62L134.071 74.01V74.35H134.081ZM53.4612 106.44L37.0212 115.92L43.8712 123.85L64.3712 112.6L54.0312 106.78L53.8012 106.89V106.72L53.4612 106.44Z" fill="#B4776B"/>
<path fill-rule="evenodd" clip-rule="evenodd" d="M14.0713 143.44L42.9013 124.54L36.6213 117.17L7.3313 136.01L14.0713 143.44Z" fill="#88A07E"/>
<path fill-rule="evenodd" clip-rule="evenodd" d="M57.9713 141.78L42.9013 124.54L14.0713 143.44L29.1913 159.48L57.9713 141.78Z" fill="#B3C6AC"/>
<path fill-rule="evenodd" clip-rule="evenodd" d="M48.8414 103.3L19.4914 121.28L4.65137 131.1L6.36137 131.96L36.6214 112.49L50.3814 104.27L48.8414 103.3Z" fill="#F3EDE2"/>
<path fill-rule="evenodd" clip-rule="evenodd" d="M89.8314 126.48L122.151 108.84V106.84L89.8314 124.48V126.48ZM58.9514 142.92L29.1914 161.76V163.19L58.9414 144.86V142.92H58.9514Z" fill="#0099FF"/>
<path fill-rule="evenodd" clip-rule="evenodd" d="M58.9514 144.86L89.8314 126.48V124.48L58.9514 142.92V144.86Z" fill="#FFCC00"/>
<path fill-rule="evenodd" clip-rule="evenodd" d="M65.1713 113.06L64.3713 112.6L43.8713 123.85L58.9513 141.15L89.8313 122.77L122.151 105.18L154.921 88.68L143.731 68.98L134.081 74.35V75.43L115.531 84.74L84.9813 101.47L65.1713 113.06Z" fill="#E79181"/>
<path fill-rule="evenodd" clip-rule="evenodd" d="M122.151 108.84L155.661 91.99V90.05L122.151 106.84V108.84Z" fill="#FF3300"/>
<path fill-rule="evenodd" clip-rule="evenodd" d="M69.6714 155.09L148.641 109.67L208.021 143.7L128.931 189.12L69.6714 155.09Z" fill="white"/>
<path fill-rule="evenodd" clip-rule="evenodd" d="M148.011 112.47L203.351 144.19L129.651 186.52L74.4214 154.8L148.011 112.47Z" fill="#D47748"/>
<path fill-rule="evenodd" clip-rule="evenodd" d="M97.4315 140.44C97.3115 140.44 97.2415 140.63 97.2415 141.03C97.2415 141.56 105.301 146.8 121.441 156.76C128.131 161.23 133.571 164.77 137.771 167.38C145.381 172.36 149.771 174.86 150.951 174.86L151.741 174.66C147.941 172.3 139.021 166.4 124.981 156.96C114.491 149.88 105.581 144.31 98.2315 140.24C97.9615 140.37 97.7015 140.44 97.4315 140.44Z" fill="white"/>
<path fill-rule="evenodd" clip-rule="evenodd" d="M125.761 124.9C152.651 141.03 171.801 151.72 183.211 156.96L183.401 156.37C158.621 141.02 139.471 130.34 125.961 124.3L125.761 124.9Z" fill="white"/>
<path fill-rule="evenodd" clip-rule="evenodd" d="M165.821 158.25L109.271 125.6V135.45L165.821 168.11V158.25Z" fill="#00CC66"/>
<defs>
<linearGradient id="paint0_linear" x1="129.85" y1="9.15583" x2="170.343" y2="9.15583" gradientUnits="userSpaceOnUse">
<stop stop-color="#770000"/>
<stop offset="0.1843" stop-color="#FF0000"/>
<stop offset="0.2627" stop-color="#FFA1A1"/>
<stop offset="0.3725" stop-color="#FF0000"/>
<stop offset="0.4471" stop-color="#9D0000"/>
<stop offset="0.5216" stop-color="#FF0000"/>
<stop offset="0.6039" stop-color="#FF8585"/>
<stop offset="0.698" stop-color="#FF0000"/>
<stop offset="0.9529" stop-color="#B20000"/>
</linearGradient>
<linearGradient id="paint1_linear" x1="118.732" y1="13.6648" x2="159.228" y2="13.6648" gradientUnits="userSpaceOnUse">
<stop stop-color="#770000"/>
<stop offset="0.1843" stop-color="#FF0000"/>
<stop offset="0.2627" stop-color="#FFA1A1"/>
<stop offset="0.3725" stop-color="#FF0000"/>
<stop offset="0.4471" stop-color="#9D0000"/>
<stop offset="0.5216" stop-color="#FF0000"/>
<stop offset="0.6039" stop-color="#FF8585"/>
<stop offset="0.698" stop-color="#FF0000"/>
<stop offset="0.9529" stop-color="#B20000"/>
</linearGradient>
<linearGradient id="paint2_linear" x1="108.212" y1="20.1756" x2="148.708" y2="20.1756" gradientUnits="userSpaceOnUse">
<stop stop-color="#770000"/>
<stop offset="0.1843" stop-color="#FF0000"/>
<stop offset="0.2627" stop-color="#FFA1A1"/>
<stop offset="0.3725" stop-color="#FF0000"/>
<stop offset="0.4471" stop-color="#9D0000"/>
<stop offset="0.5216" stop-color="#FF0000"/>
<stop offset="0.6039" stop-color="#FF8585"/>
<stop offset="0.698" stop-color="#FF0000"/>
<stop offset="0.9529" stop-color="#B20000"/>
</linearGradient>
<linearGradient id="paint3_linear" x1="36.1901" y1="53.6316" x2="76.6858" y2="53.6316" gradientUnits="userSpaceOnUse">
<stop stop-color="#770000"/>
<stop offset="0.1843" stop-color="#FF0000"/>
<stop offset="0.2627" stop-color="#FFA1A1"/>
<stop offset="0.3725" stop-color="#FF0000"/>
<stop offset="0.4471" stop-color="#9D0000"/>
<stop offset="0.5216" stop-color="#FF0000"/>
<stop offset="0.6039" stop-color="#FF8585"/>
<stop offset="0.698" stop-color="#FF0000"/>
<stop offset="0.9529" stop-color="#B20000"/>
</linearGradient>
<linearGradient id="paint4_linear" x1="25.473" y1="57.7391" x2="65.9687" y2="57.7391" gradientUnits="userSpaceOnUse">
<stop stop-color="#770000"/>
<stop offset="0.1843" stop-color="#FF0000"/>
<stop offset="0.2627" stop-color="#FFA1A1"/>
<stop offset="0.3725" stop-color="#FF0000"/>
<stop offset="0.4471" stop-color="#9D0000"/>
<stop offset="0.5216" stop-color="#FF0000"/>
<stop offset="0.6039" stop-color="#FF8585"/>
<stop offset="0.698" stop-color="#FF0000"/>
<stop offset="0.9529" stop-color="#B20000"/>
</linearGradient>
<linearGradient id="paint5_linear" x1="15.1542" y1="64.5519" x2="55.6498" y2="64.5519" gradientUnits="userSpaceOnUse">
<stop stop-color="#770000"/>
<stop offset="0.1843" stop-color="#FF0000"/>
<stop offset="0.2627" stop-color="#FFA1A1"/>
<stop offset="0.3725" stop-color="#FF0000"/>
<stop offset="0.4471" stop-color="#9D0000"/>
<stop offset="0.5216" stop-color="#FF0000"/>
<stop offset="0.6039" stop-color="#FF8585"/>
<stop offset="0.698" stop-color="#FF0000"/>
<stop offset="0.9529" stop-color="#B20000"/>
</linearGradient>
</defs>
</svg>
