<svg width="243" height="500" viewBox="0 0 243 500" fill="none" xmlns="http://www.w3.org/2000/svg">
<ellipse cx="146.407" cy="475.633" rx="91.3139" ry="24.3675" fill="black" fill-opacity="0.1"/>
<path d="M179.601 144.91L217.529 179.917L200.107 204.666L175.401 191.649L179.601 144.91Z" fill="white" stroke="white" stroke-width="5.6693" stroke-miterlimit="10"/>
<path d="M118.969 144.91L76.7815 176.994L94.1969 201.744L118.91 188.726L118.969 144.91Z" fill="white" stroke="white" stroke-width="5.6693" stroke-miterlimit="10"/>
<path d="M115.528 266.767L106.601 322.373C106.601 322.373 110.823 331.125 122.811 331.359C134.799 331.593 144.23 329.357 144.23 329.357C144.23 329.357 148.781 308.004 150.841 307.617C152.908 307.237 154.552 328.108 157.167 330.475C159.775 332.842 174.108 332.06 179.148 331.373C193.393 329.452 198.916 325.778 198.916 325.778L188.521 265.036L115.528 266.767Z" fill="white" stroke="white" stroke-width="5.6693" stroke-miterlimit="10"/>
<path d="M168.066 371.172C169.571 367.965 185.014 367.965 185.547 371.172C186.073 374.379 180.112 432.747 180.112 432.747H171.814C171.806 432.739 166.905 373.648 168.066 371.172Z" fill="white" stroke="white" stroke-width="5.6693" stroke-miterlimit="10"/>
<path d="M213.205 180.706C213.205 180.706 237.56 198.369 239.503 202.621C241.446 206.872 194.212 250.835 194.212 250.835L192.75 235.494L214.396 208.633L200.267 200.663L213.205 180.706Z" fill="white" stroke="white" stroke-width="5.6693" stroke-miterlimit="10"/>
<path d="M92.3854 198.778C92.3854 198.778 60.9222 223.112 56.247 223.017C51.5717 222.922 32.3008 147.343 32.3008 147.343L47.0717 141.192L64.2534 190.984L78.7906 179.975L92.3854 198.778Z" fill="white" stroke="white" stroke-width="5.6693" stroke-miterlimit="10"/>
<path d="M162.134 481.749C156.1 478.995 150.928 466.16 156.1 460.659C161.272 455.159 162.134 446.904 175.065 446.904C188.857 446.904 195.694 457.905 198.339 467.073C200.895 475.92 194.284 482.662 186.526 482.662C178.768 482.662 162.134 481.749 162.134 481.749Z" fill="white" stroke="white" stroke-width="5.6693" stroke-miterlimit="10"/>
<path d="M180.112 444.296V432.739H171.814V444.727C168.578 446.407 166.364 449.782 166.364 453.676C166.364 453.676 167.92 455.37 176.738 455.137C182.53 454.983 186.534 453.676 186.534 453.676C186.526 449.409 183.867 445.764 180.112 444.296Z" fill="white" stroke="white" stroke-width="5.6693" stroke-miterlimit="10"/>
<path opacity="0.5" d="M176.898 372.545C181.457 372.545 185.153 371.724 185.153 370.712C185.153 369.699 181.457 368.878 176.898 368.878C172.339 368.878 168.644 369.699 168.644 370.712C168.644 371.724 172.339 372.545 176.898 372.545Z" fill="white" stroke="white" stroke-width="5.6693" stroke-miterlimit="10"/>
<path d="M177.358 356.043C175.583 356.043 174.151 356.861 174.151 357.877V369.798C174.151 370.814 175.59 371.632 177.358 371.632C179.133 371.632 180.565 370.814 180.565 369.798V357.877C180.565 356.861 179.133 356.043 177.358 356.043Z" fill="white" stroke="white" stroke-width="5.6693" stroke-miterlimit="10"/>
<path opacity="0.4" d="M143.894 328.539C143.675 330.3 132.395 331.169 122.804 330.373C111.802 329.452 107.003 324.799 107.215 323.038C107.427 321.278 113.636 324.872 125.945 325.814C135.544 326.545 144.113 326.779 143.894 328.539Z" fill="white" stroke="white" stroke-width="5.6693" stroke-miterlimit="10"/>
<path d="M112.723 323.038C111.437 333.025 113.782 353.245 112.102 362.208C110.429 371.172 106.433 400.436 106.762 408.764C107.207 420.123 109.516 446.356 109.516 446.356H125.499C125.499 446.356 134.266 387.681 133.352 373.013C132.432 358.344 137.465 332.272 138.393 328.546C140.227 321.205 112.723 323.038 112.723 323.038Z" fill="white" stroke="white" stroke-width="5.6693" stroke-miterlimit="10"/>
<path d="M130.598 482.107C137.019 479.353 142.52 466.518 137.019 461.017C131.519 455.516 130.598 447.262 116.85 447.262C102.181 447.262 91.1799 458.263 92.093 467.431C93.0134 476.599 97.5937 482.1 105.849 482.1C114.103 482.1 130.598 482.107 130.598 482.107Z" fill="white" stroke="white" stroke-width="5.6693" stroke-miterlimit="10"/>
<path d="M107.039 414.228L130.072 414.608L125.507 450.476C125.507 450.476 123.651 452.149 118.026 451.937C112.401 451.725 109.523 450.476 109.523 450.476L107.039 414.228Z" fill="white" stroke="white" stroke-width="5.6693" stroke-miterlimit="10"/>
<path d="M107.397 419.846L129.364 420.123L128.706 425.303H107.806L107.397 419.846Z" fill="white" stroke="white" stroke-width="5.6693" stroke-miterlimit="10"/>
<path opacity="0.4" d="M157.174 330.475C157.174 330.475 162.865 333.667 178.133 331.564C193.4 329.46 198.93 325.785 198.93 325.785C198.93 325.785 195.336 325.391 191.158 325.595C186.979 325.8 173.231 323.959 164.976 325.792C156.729 327.619 157.174 330.475 157.174 330.475Z" fill="white" stroke="white" stroke-width="5.6693" stroke-miterlimit="10"/>
<path d="M164.983 325.785C164.983 325.785 159.943 367.497 178.279 363.83C196.615 360.163 191.165 325.58 191.165 325.58C191.165 325.58 178.739 324.865 174.159 324.865C169.578 324.865 164.983 325.785 164.983 325.785Z" fill="white" stroke="white" stroke-width="5.6693" stroke-miterlimit="10"/>
<g opacity="0.3">
<path opacity="0.3" d="M115.265 377.469C117.201 378.864 119.648 379.543 122.022 379.339C123.534 379.207 125.003 378.74 126.405 378.155" fill="white"/>
<path opacity="0.3" d="M115.265 377.469C116.558 377.33 117.5 377.308 118.392 377.272C119.268 377.257 120.05 377.25 120.824 377.293C121.598 377.323 122.358 377.396 123.264 377.491C124.17 377.608 125.178 377.732 126.412 378.148C125.843 379.317 125.003 380.099 124.009 380.661C123.016 381.209 121.818 381.487 120.634 381.428C119.458 381.37 118.304 380.997 117.332 380.34C116.368 379.675 115.564 378.733 115.265 377.469Z" fill="white"/>
</g>
<path d="M181.062 145.641C178.213 139.541 129.481 135.034 118.969 144.91C108.457 154.787 113.855 269.097 115.316 272.019C116.777 274.941 189.784 274.941 190.172 272.019C190.559 269.097 186.176 156.598 181.062 145.641Z" fill="white" stroke="white" stroke-width="5.6693" stroke-miterlimit="10"/>
<path d="M103.511 68.9811C103.051 68.7327 101.663 68.5062 101.174 68.3601C99.5445 67.8853 97.7401 68.8057 96.732 70.6174C95.5047 72.8309 95.5193 75.8625 95.6435 78.6457C95.7239 80.5889 95.8408 82.5905 96.5128 84.3072C96.7904 85.0231 97.163 85.6587 97.5283 86.2942C98.2515 87.5434 98.9819 88.7852 99.8147 89.8956C102.32 93.2268 102.342 92.9199 105.557 94.7901L103.511 68.9811Z" fill="white" stroke="white" stroke-width="5.6693" stroke-miterlimit="10"/>
<path d="M134.339 129.343C134.792 131.812 135.047 134.318 135.106 136.831C135.149 138.548 135.011 140.469 133.74 141.63C133.542 141.813 133.309 141.981 133.236 142.244C133.192 142.383 133.206 142.536 133.221 142.682C133.425 144.275 134.58 145.626 135.953 146.466C137.326 147.306 138.912 147.708 140.475 148.088C145.384 149.279 150.819 150.28 155.275 147.898C157.635 146.634 159.439 144.552 161.148 142.492C161.411 142.171 161.689 141.828 161.755 141.411C161.806 141.068 161.704 140.717 161.609 140.381C160.747 137.291 160.644 133.996 161.302 130.863C161.375 130.512 161.441 127.174 161.192 126.918C160.958 126.677 160.571 129.621 160.243 129.665C151.929 130.695 143.433 130.271 135.259 128.408L134.339 129.343Z" fill="white" stroke="white" stroke-width="5.6693" stroke-miterlimit="10"/>
<path d="M190.676 100.561C188.988 105.039 199.588 96.7551 203.021 93.4167C204.168 92.3063 205.169 91.0571 206.163 89.8153C206.667 89.1797 207.171 88.5369 207.558 87.8283C208.478 86.1116 208.639 84.11 208.756 82.1668C208.917 79.3909 208.946 76.3519 207.258 74.1385C205.878 72.3195 203.409 71.4064 201.173 71.8812C200.508 72.02 198.609 72.2465 197.974 72.5021C197.966 72.5021 191.596 98.1139 190.676 100.561Z" fill="white" stroke="white" stroke-width="5.6693" stroke-miterlimit="10"/>
<path d="M188.579 107.698C180.441 121.264 165.108 130.527 149.387 132.265C133.666 134.004 114.454 124.31 107.624 110.043C102.437 99.2168 104.103 88.9239 103.043 77.2284C102.043 66.2123 99.1059 53.5452 102.926 43.1646C104.278 39.4902 107.31 28.4448 109.969 25.5666C120.714 13.9369 130.81 15.1787 146.64 15.544C154.72 15.7339 162.565 18.1519 170.258 20.6284C177.826 23.061 182.114 23.2801 188.579 27.9116C195.044 32.543 198.711 38.745 199.142 46.6857C199.361 50.7108 198.952 74.4598 197.966 78.368C197.966 78.368 195.621 95.966 188.579 107.698Z" fill="white" stroke="white" stroke-width="5.6693" stroke-miterlimit="10"/>
<path d="M187.607 41.2946C186.132 41.3311 185.343 43.2377 185.774 44.6476C186.205 46.0575 187.388 47.0802 188.396 48.1614C189.405 49.2425 190.325 50.6378 190.047 52.0915C189.85 53.1289 189.054 54.0055 188.981 55.0574C188.813 57.3585 191.823 58.4324 193.042 60.3902C194.116 62.1142 193.685 64.3276 193.415 66.3438C193.145 68.36 193.254 70.7707 194.927 71.9322C196.856 73.2618 199.464 72.0491 201.392 70.7196C203.438 69.3024 205.571 67.4469 205.717 64.9559C205.826 63.1734 204.862 61.4494 205.016 59.667C205.198 57.5266 206.922 55.8464 207.558 53.8009C208.442 50.9446 207.119 47.9495 206.374 45.0567C205.753 42.646 205.527 40.1331 205.71 37.6493C205.834 35.9399 206.097 34.0333 205.037 32.6891C204.387 31.8637 203.379 31.4473 202.444 30.9724C196.578 28.0139 192.568 21.6803 192.385 15.113C188.543 18.7437 181.354 17.626 178.783 13.0092C175.072 15.1934 170.367 17.3995 166.708 15.1276C164.954 14.0392 163.902 12.1399 162.631 10.5108C161.36 8.88177 159.519 7.36961 157.467 7.61798C155.487 7.85905 153.88 9.69994 151.893 9.59036C149.117 9.43696 147.254 5.58716 144.544 6.2081C143.309 6.493 142.447 7.66181 141.22 7.98324C138.488 8.70645 135.281 5.01736 133.206 6.93861C132.768 7.34039 132.534 7.91749 132.118 8.34119C130.62 9.86796 128.115 8.62609 126.003 8.27544C122.38 7.66912 118.56 10.6277 118.238 14.2876C115.871 14.5725 113.439 14.8866 111.357 16.0335C109.267 17.1804 107.58 19.3938 107.777 21.768C107.821 22.294 107.945 22.8565 107.697 23.3167C107.47 23.7331 107.003 23.9522 106.638 24.2517C105.345 25.311 105.396 27.2541 104.84 28.832C104.117 30.8994 102.32 32.375 101.02 34.1356C99.7196 35.9034 98.9818 38.5405 100.443 40.1696C98.0833 42.6022 95.5411 45.5973 96.1182 48.9357C96.2204 49.5347 96.425 50.1265 96.3593 50.7328C96.2058 52.0185 94.9275 52.8074 94.102 53.8009C92.1296 56.1897 93.2546 60.4048 96.162 61.4786C94.5037 61.8293 93.8755 64.1012 94.6645 65.5987C95.4534 67.0963 97.1336 67.8998 98.7699 68.3454C99.9534 68.6669 101.239 68.8495 102.393 68.4258C103.547 68.0021 104.49 66.804 104.263 65.5987C104.168 65.0873 103.884 64.6344 103.737 64.1377C102.7 60.6531 108.435 57.8553 107.47 54.3488C107.076 52.9097 105.622 51.9674 105.125 50.5575C104.424 48.5778 105.805 46.5031 107.266 44.9983C108.72 43.4934 110.444 41.9301 110.626 39.8409C110.78 38.0657 109.75 36.2321 110.363 34.5593C111.123 32.4919 113.804 32.0317 116.01 32.0025C118.216 31.9732 120.846 31.8052 121.949 29.8986C122.512 28.9197 122.672 27.5098 123.739 27.1519C125.149 26.6697 126.12 28.4887 127.077 29.6283C128.421 31.2281 130.708 31.7614 132.783 31.513C134.857 31.2573 136.771 30.3369 138.649 29.4238C140.723 32.4189 144.208 34.3985 147.846 34.6396C151.856 34.9026 156.283 33.2589 159.702 35.3774C161.031 36.2029 162.113 37.5617 163.654 37.8027C165.838 38.1461 168.358 36.1518 170.068 37.5544C170.55 37.9488 170.82 38.5406 171.164 39.0592C172.858 41.5941 176.796 42.2442 179.214 40.3887C180.521 42.3757 182.676 43.7783 185.021 44.1655" fill="white"/>
<path d="M187.608 35.0852C186.161 35.2167 184.941 35.3701 183.67 36.1591C182.516 36.875 181.559 37.8027 180.836 38.9496C179.886 40.4545 179.331 42.4269 179.47 44.2166C179.667 46.7588 180.711 48.7677 182.304 50.7109C183.027 51.5875 183.875 52.3545 184.59 53.2458C184.269 52.8294 183.94 52.4057 183.619 51.9893C183.926 52.3984 184.181 52.8074 184.401 53.2677C184.189 52.7709 183.984 52.2815 183.772 51.7847C183.918 52.15 184.028 52.5006 184.086 52.8951C184.013 52.3472 183.94 51.792 183.867 51.2442C183.889 51.4341 183.889 51.624 183.875 51.8139C183.948 51.2661 184.021 50.7109 184.094 50.163C184.043 50.5575 183.933 50.9008 183.787 51.2734C183.999 50.7766 184.203 50.2872 184.415 49.7904C183.568 51.6386 182.837 53.2092 182.757 55.2839C182.698 56.8472 183.297 58.71 184.174 59.9884C184.883 61.0184 185.664 61.9023 186.607 62.7059C187.242 63.2538 187.878 63.787 188.404 64.4372C188.082 64.0208 187.754 63.5971 187.432 63.1807C187.637 63.4583 187.797 63.7359 187.951 64.0427C187.739 63.546 187.534 63.0565 187.323 62.5598C187.505 63.0054 187.615 63.4437 187.688 63.9185C187.615 63.3706 187.542 62.8155 187.469 62.2676C187.571 63.2465 187.491 64.218 187.366 65.1896C187.439 64.6417 187.513 64.0865 187.586 63.5387C187.089 67.1985 186.614 70.9314 188.74 74.248C190.062 76.308 192.188 77.9955 194.635 78.463C197.367 78.9817 199.749 78.4849 202.247 77.3672C205.322 75.9939 208.164 73.6197 210.056 70.8365C211.225 69.1198 211.846 67.0232 211.934 64.9632C212.014 63.0273 211.364 61.1572 211.057 59.2725C211.13 59.8204 211.203 60.3755 211.276 60.9234C211.21 60.4048 211.196 59.9153 211.261 59.3967C211.188 59.9445 211.115 60.4997 211.042 61.0476C211.123 60.5874 211.254 60.1637 211.422 59.7327C211.21 60.2294 211.006 60.7189 210.794 61.2156C211.32 60.0103 212.072 58.9218 212.628 57.7311C213.592 55.6345 214.22 53.4138 214.037 51.0834C213.76 47.5185 212.343 44.2678 211.846 40.754C211.919 41.3019 211.992 41.8571 212.065 42.405C211.853 40.7321 211.817 39.0592 211.941 37.379C212.08 35.5528 212.123 33.6534 211.503 31.8929C210.582 29.2777 208.814 27.2688 206.345 26.005C205.118 25.3767 203.942 24.7339 202.839 23.9011C203.255 24.2225 203.679 24.5513 204.095 24.8727C202.809 23.8719 201.677 22.7323 200.676 21.4539C200.998 21.8703 201.326 22.294 201.648 22.7104C200.662 21.4174 199.851 20.0221 199.201 18.5318C199.413 19.0286 199.617 19.518 199.829 20.0148C199.201 18.5172 198.762 16.9612 198.529 15.3541C198.602 15.902 198.675 16.4572 198.748 17.0051C198.667 16.3768 198.616 15.7559 198.594 15.1277C198.507 12.622 197.104 10.4305 194.774 9.45158C192.422 8.45808 189.857 9.02057 187.987 10.7373C187.819 10.8907 187.659 11.0295 187.483 11.1756C187.9 10.8542 188.323 10.5254 188.74 10.204C188.214 10.6058 187.651 10.9345 187.045 11.2121C187.542 11.0003 188.031 10.7957 188.528 10.5839C187.775 10.898 187.008 11.1025 186.205 11.2194C186.753 11.1464 187.308 11.0733 187.856 11.0003C186.972 11.1098 186.088 11.1025 185.204 10.9857C185.752 11.0587 186.307 11.1318 186.855 11.2048C186.044 11.0806 185.27 10.8688 184.51 10.562C185.007 10.7738 185.496 10.9783 185.993 11.1902C185.248 10.8688 184.554 10.4743 183.904 9.98485C184.32 10.3063 184.744 10.635 185.16 10.9564C184.642 10.54 184.181 10.0798 183.772 9.56846C184.094 9.98485 184.422 10.4085 184.744 10.8249C184.525 10.5254 184.32 10.2259 184.138 9.90449C182.465 6.99706 178.527 5.98165 175.634 7.67643C174.378 8.41425 173.107 9.09363 171.763 9.66342C172.259 9.45158 172.749 9.24703 173.246 9.03518C172.113 9.49541 170.959 9.86066 169.746 10.0433C170.294 9.97024 170.85 9.89719 171.397 9.82414C170.63 9.9191 169.878 9.92641 169.111 9.83144C169.659 9.90449 170.214 9.97754 170.762 10.0506C170.192 9.95563 169.659 9.80222 169.126 9.58307C169.622 9.79492 170.112 9.99946 170.608 10.2113C170.17 10.0068 169.761 9.7657 169.367 9.4808C169.783 9.80222 170.207 10.131 170.623 10.4524C169.878 9.86797 169.272 9.18129 168.695 8.43616C169.016 8.85256 169.345 9.27625 169.666 9.69265C168.607 8.29006 167.643 6.79982 166.459 5.4922C165.013 3.89969 163.23 2.782 161.243 2.00766C159.322 1.26254 157.014 1.22601 155.049 1.83234C153.42 2.33639 152.024 3.25684 150.483 3.9216C150.98 3.70975 151.469 3.50521 151.966 3.29336C151.564 3.44677 151.17 3.56365 150.746 3.62209C151.294 3.54904 151.849 3.47599 152.397 3.40294C152.148 3.41755 151.922 3.41755 151.674 3.39563C152.222 3.46868 152.777 3.54174 153.325 3.61479C152.974 3.55635 152.645 3.46138 152.316 3.32989C152.813 3.54174 153.303 3.74628 153.799 3.95813C153.193 3.68053 152.653 3.30797 152.127 2.9135C152.543 3.23492 152.967 3.56365 153.383 3.88508C151.491 2.42405 149.701 0.780402 147.291 0.239824C145.34 -0.198483 143.477 -0.0377706 141.636 0.736572C140.526 1.2041 139.649 1.9273 138.583 2.46788C139.08 2.25604 139.569 2.05149 140.066 1.83964C139.766 1.96383 139.481 2.05149 139.16 2.10263C139.708 2.02958 140.263 1.95653 140.811 1.88347C140.533 1.90539 140.263 1.89808 139.985 1.87617C140.533 1.94922 141.088 2.02227 141.636 2.09532C140.906 1.98575 140.219 1.73737 139.54 1.45247C140.037 1.66432 140.526 1.86886 141.023 2.08071C138.904 1.18949 137.049 0.269044 134.711 0.203298C133.279 0.159467 131.694 0.605079 130.452 1.32098C128.889 2.22681 127.976 3.60018 126.938 5.01737C127.26 4.60098 127.589 4.17728 127.91 3.76089C127.8 3.90699 127.669 4.03848 127.53 4.15537C127.947 3.83394 128.37 3.50521 128.787 3.18379C128.589 3.32989 128.407 3.43947 128.18 3.54904C128.677 3.33719 129.167 3.13265 129.663 2.9208C129.437 3.00116 129.225 3.0596 128.991 3.09612C129.539 3.02307 130.094 2.95002 130.642 2.87697C130.226 2.9208 129.824 2.90619 129.408 2.85506C129.955 2.92811 130.511 3.00116 131.059 3.07421C129.174 2.78931 127.421 2.15376 125.492 2.03688C123.213 1.89808 121.021 2.57016 118.998 3.56365C116.982 4.54984 115.396 6.2008 114.111 7.99786C112.752 9.90449 112.262 12.0449 112.014 14.3241C114.081 12.2567 116.156 10.1821 118.223 8.11474C114.096 8.61879 110.042 9.17398 106.645 11.7965C105.067 13.0165 103.672 14.4775 102.81 16.2965C102.065 17.8744 101.758 18.9921 101.59 20.7234C101.517 21.4466 101.634 22.1406 101.612 22.8638C101.685 22.3159 101.758 21.7607 101.831 21.2128C101.816 21.3881 101.772 21.5488 101.692 21.7023C101.904 21.2055 102.108 20.7161 102.32 20.2193C102.276 20.2851 102.233 20.3508 102.189 20.4166C102.51 20.0002 102.839 19.5765 103.16 19.1601C103.058 19.277 102.941 19.3865 102.817 19.4815C103.233 19.1601 103.657 18.8313 104.073 18.5099C103.248 19.1016 102.393 19.6568 101.736 20.4385C100.698 21.673 100.209 22.6008 99.6466 24.1495C99.2521 25.2379 99.1498 26.4068 98.7407 27.4952C98.9526 26.9985 99.1571 26.509 99.369 26.0123C99.0695 26.7136 98.675 27.3418 98.2221 27.9554C98.5435 27.539 98.8722 27.1153 99.1936 26.699C98.5435 27.5317 97.8203 28.2988 97.1555 29.1169C96.0013 30.5268 95.1174 31.776 94.4161 33.4416C93.766 34.9757 93.3569 36.5901 93.4372 38.2849C93.5614 40.7832 94.4745 42.7118 96.0451 44.6184C96.0451 41.6891 96.0451 38.7597 96.0451 35.8304C94.2992 37.6347 92.4949 39.6144 91.3991 41.8936C90.5225 43.7272 90.0331 45.2832 89.8577 47.2994C89.7189 48.8335 90.1134 50.3237 90.3472 51.8286C90.2741 51.2807 90.2011 50.7255 90.128 50.1776C90.1572 50.3748 90.1572 50.5794 90.1353 50.7766C90.2083 50.2287 90.2814 49.6735 90.3545 49.1257C90.3326 49.2937 90.296 49.4544 90.2376 49.6151C90.4494 49.1184 90.6539 48.6289 90.8658 48.1322C90.7343 48.4463 90.5663 48.7166 90.3618 48.9942C90.6832 48.5778 91.0119 48.1541 91.3333 47.7377C90.2522 49.0234 88.93 50.0753 88.1629 51.6167C87.2717 53.4065 86.7384 55.43 86.9357 57.4462C87.1329 59.477 87.6151 61.4348 88.7985 63.1369C89.3391 63.9112 89.9234 64.6856 90.6467 65.2992C91.9762 66.4242 92.8674 66.8625 94.4965 67.52C94.4965 63.5241 94.4965 59.5355 94.4965 55.5396C90.5809 56.5769 87.7903 60.5947 88.1264 64.6417C88.4843 68.9371 91.2018 72.0126 95.0809 73.6489C98.5362 75.11 102.912 75.6652 106.221 73.4736C108.179 72.1733 109.852 70.1936 110.268 67.8195C110.517 66.4096 110.59 64.9412 110.107 63.5533C109.925 63.02 109.676 62.5452 109.596 61.9827C109.669 62.5306 109.742 63.0857 109.815 63.6336C109.801 63.3853 109.801 63.1515 109.83 62.9104C109.757 63.4583 109.684 64.0135 109.611 64.5614C109.669 64.1961 109.771 63.8528 109.91 63.5021C109.698 63.9989 109.494 64.4883 109.282 64.9851C110.1 63.1515 111.649 61.7708 112.525 59.9592C113.599 57.7384 114.001 55.5469 113.512 53.1143C113.073 50.9081 111.627 49.2864 110.283 47.5697C110.604 47.9861 110.933 48.4098 111.254 48.8262C110.984 48.4682 110.75 48.1103 110.56 47.7085C110.772 48.2052 110.977 48.6947 111.189 49.1914C111.079 48.9211 111.006 48.6654 110.948 48.3805C111.021 48.9284 111.094 49.4836 111.167 50.0315C111.123 49.6443 111.123 49.2864 111.174 48.8919C111.101 49.4398 111.028 49.995 110.955 50.5429C111.035 50.1557 111.145 49.7904 111.291 49.4252C111.079 49.9219 110.875 50.4114 110.663 50.9081C110.918 50.3456 111.24 49.8343 111.598 49.3302C111.276 49.7466 110.948 50.1703 110.626 50.5867C112.138 48.6289 114.133 47.1021 115.353 44.9033C116.266 43.245 116.777 41.4772 116.821 39.5779C116.857 38.0219 116.412 36.4805 116.185 34.9537C116.258 35.5016 116.331 36.0568 116.405 36.6047C116.346 36.1153 116.331 35.6477 116.39 35.1583C116.317 35.7062 116.244 36.2614 116.171 36.8092C116.229 36.5316 116.302 36.2906 116.405 36.0276C116.193 36.5243 115.988 37.0138 115.776 37.5105C115.879 37.306 115.988 37.1234 116.127 36.9334C115.805 37.3498 115.477 37.7735 115.155 38.1899C115.345 37.9561 115.55 37.7589 115.784 37.5763C115.367 37.8977 114.943 38.2264 114.527 38.5479C114.841 38.3287 115.17 38.1461 115.521 37.9927C115.024 38.2045 114.534 38.4091 114.038 38.6209C114.651 38.3871 115.272 38.241 115.915 38.1461C115.367 38.2191 114.812 38.2922 114.264 38.3652C116.587 38.0657 118.961 38.3068 121.24 37.6055C122.935 37.0868 124.542 36.2394 125.799 34.9757C127.158 33.6096 127.757 32.0463 128.465 30.2931C128.253 30.7898 128.049 31.2793 127.837 31.776C127.99 31.4254 128.151 31.1039 128.378 30.7971C128.056 31.2135 127.727 31.6372 127.406 32.0536C127.494 31.944 127.596 31.8491 127.713 31.7687C127.296 32.0901 126.873 32.4189 126.456 32.7403C126.573 32.6526 126.697 32.5869 126.836 32.5431C126.339 32.7549 125.85 32.9594 125.353 33.1713C125.426 33.1494 125.499 33.1348 125.572 33.1129C125.025 33.1859 124.469 33.259 123.921 33.332C124.06 33.3101 124.199 33.3028 124.338 33.3247C123.79 33.2516 123.235 33.1786 122.687 33.1055C122.826 33.1275 122.957 33.164 123.081 33.2151C122.585 33.0033 122.095 32.7987 121.598 32.5869C121.803 32.6892 121.964 32.7987 122.146 32.9375C121.73 32.6161 121.306 32.2874 120.89 31.9659C121.262 32.2947 121.577 32.6745 121.883 33.0617C121.562 32.6453 121.233 32.2216 120.912 31.8052C122.197 33.4927 123.279 34.9318 125.134 36.0568C126.997 37.1818 129.093 37.6493 131.241 37.7881C134.967 38.0365 138.495 36.3855 141.753 34.8076C138.919 34.0625 136.084 33.3247 133.257 32.5796C135.997 36.4294 139.92 39.4975 144.646 40.4472C146.867 40.8928 149.022 40.9659 151.265 40.7686C153.084 40.6079 154.91 40.396 156.736 40.6079C156.188 40.5348 155.633 40.4618 155.085 40.3887C155.743 40.4837 156.371 40.6371 156.999 40.8709C156.502 40.659 156.013 40.4545 155.516 40.2426C156.137 40.5056 156.685 40.8344 157.226 41.2361C156.809 40.9147 156.385 40.586 155.969 40.2646C156.941 41.017 157.861 41.8352 158.891 42.5072C160.367 43.4715 162.018 43.9025 163.756 44.0486C165.743 44.2093 167.606 43.4423 169.527 43.1136C168.979 43.1866 168.424 43.2597 167.876 43.3327C168.264 43.2816 168.636 43.267 169.023 43.3181C168.475 43.245 167.92 43.172 167.372 43.0989C167.518 43.1209 167.664 43.1647 167.803 43.2158C167.307 43.004 166.817 42.7994 166.32 42.5876C166.547 42.6899 166.722 42.7921 166.919 42.9382C166.503 42.6168 166.079 42.2881 165.663 41.9667C165.802 42.0835 165.919 42.2077 166.028 42.3465C165.707 41.9301 165.378 41.5064 165.057 41.09C165.933 42.2808 166.642 43.5957 167.774 44.5746C169.206 45.8238 170.828 46.7661 172.683 47.2556C175.824 48.081 179.66 47.7231 182.34 45.7653C179.506 45.0202 176.672 44.2824 173.845 43.5373C176.073 46.8099 179.382 49.4398 183.363 50.1703C185.036 50.4771 186.636 50.4333 188.148 49.5421C189.434 48.7896 190.668 47.314 191.004 45.8311C191.698 42.7921 190.084 38.8108 186.665 38.1899C186.03 38.073 185.423 37.8977 184.824 37.6639C185.321 37.8758 185.81 38.0803 186.307 38.2922C185.547 37.9634 184.846 37.5544 184.189 37.0503C184.605 37.3717 185.029 37.7005 185.445 38.0219C184.875 37.5544 184.371 37.043 183.911 36.4586C184.233 36.875 184.561 37.2987 184.883 37.7151C184.773 37.569 184.664 37.4229 184.569 37.2695C183.692 35.9838 182.443 34.7784 180.858 34.4132C179.323 34.0625 177.395 34.0698 176.073 35.0414C175.759 35.2752 175.43 35.4651 175.079 35.6331C175.576 35.4213 176.065 35.2167 176.562 35.0049C176.058 35.2167 175.547 35.3555 175.006 35.4359C175.554 35.3628 176.109 35.2898 176.657 35.2167C176.109 35.2752 175.576 35.2679 175.028 35.1948C175.576 35.2679 176.131 35.3409 176.679 35.414C176.131 35.3263 175.62 35.1802 175.116 34.9683C175.612 35.1802 176.102 35.3847 176.599 35.5966C176.175 35.3994 175.781 35.1729 175.401 34.8953C175.817 35.2167 176.241 35.5455 176.657 35.8669C176.292 35.5747 175.97 35.2532 175.686 34.8807C176.007 35.2971 176.336 35.7208 176.657 36.1372C175.97 35.1656 175.401 34.1356 174.546 33.2736C173.041 31.7541 171.018 31.0236 168.921 30.8848C166.956 30.7533 165.137 31.513 163.23 31.8272C163.778 31.7541 164.333 31.681 164.881 31.608C164.458 31.6591 164.063 31.6737 163.639 31.6226C164.187 31.6957 164.742 31.7687 165.29 31.8418C165.013 31.7833 164.772 31.7176 164.516 31.6153C165.013 31.8272 165.502 32.0317 165.999 32.2435C165.495 32.0171 165.049 31.7176 164.611 31.3888C165.027 31.7103 165.451 32.039 165.867 32.3604C165.005 31.6884 164.173 30.9798 163.281 30.3515C162.376 29.716 161.346 29.2777 160.308 28.8978C158.694 28.2988 156.875 28.1015 155.165 28.0942C152.433 28.0869 149.73 28.7152 146.998 28.3645C147.546 28.4376 148.101 28.5106 148.649 28.5837C147.627 28.4303 146.648 28.16 145.683 27.7728C146.18 27.9847 146.67 28.1892 147.166 28.401C146.129 27.9554 145.165 27.4002 144.266 26.7136C144.683 27.035 145.106 27.3637 145.523 27.6851C144.712 27.0423 143.996 26.3191 143.353 25.5082C143.675 25.9246 144.003 26.3483 144.325 26.7647C144.208 26.6186 144.098 26.4652 143.996 26.3118C143.083 25.0261 141.899 23.828 140.285 23.4555C138.583 23.0683 137.071 23.3167 135.5 24.0837C134.704 24.4709 133.915 24.8508 133.097 25.1941C133.593 24.9823 134.083 24.7777 134.58 24.5659C133.455 25.0261 132.315 25.384 131.117 25.5521C131.665 25.479 132.22 25.406 132.768 25.3329C132.125 25.3986 131.497 25.406 130.847 25.3402C131.395 25.4133 131.95 25.4863 132.498 25.5594C131.855 25.4717 131.256 25.3183 130.657 25.0772C131.154 25.2891 131.643 25.4936 132.14 25.7055C131.723 25.5155 131.351 25.3037 130.978 25.0407C131.395 25.3621 131.818 25.6908 132.235 26.0123C131.818 25.6835 131.475 25.311 131.154 24.8946C131.475 25.311 131.804 25.7347 132.125 26.1511C131.38 25.1722 130.693 24.0983 129.787 23.2656C128.239 21.8484 126.303 20.8914 124.163 20.8987C122.066 20.906 120.116 21.8264 118.654 23.2875C117.42 24.522 116.894 26.0926 116.251 27.6632C116.463 27.1665 116.668 26.677 116.879 26.1803C116.719 26.5455 116.543 26.8816 116.31 27.203C116.631 26.7866 116.96 26.3629 117.281 25.9465C117.128 26.1292 116.974 26.2826 116.792 26.4433C117.208 26.1219 117.632 25.7931 118.048 25.4717C117.734 25.7128 117.413 25.9027 117.047 26.0634C117.544 25.8516 118.034 25.647 118.53 25.4352C117.909 25.6835 117.281 25.8223 116.624 25.9173C117.172 25.8443 117.727 25.7712 118.275 25.6982C117.033 25.8443 115.784 25.7858 114.542 25.9246C112.46 26.1511 110.502 26.5017 108.661 27.5902C106.513 28.854 104.987 30.8556 104.278 33.237C103.569 35.6331 104.241 37.9781 104.585 40.3522C104.512 39.8043 104.439 39.2491 104.366 38.7013C104.424 39.198 104.439 39.6655 104.38 40.1623C104.453 39.6144 104.526 39.0592 104.599 38.5113C104.534 38.8693 104.439 39.198 104.315 39.534C104.526 39.0373 104.731 38.5479 104.943 38.0511C104.687 38.6355 104.358 39.1542 103.978 39.6655C104.3 39.2491 104.629 38.8254 104.95 38.4091C104.249 39.2857 103.431 40.0527 102.671 40.8782C101.21 42.4561 100.099 44.1363 99.3398 46.1452C98.6166 48.0591 98.5435 50.3018 99.1425 52.2669C99.7415 54.2319 100.954 55.6199 102.196 57.2051C101.875 56.7887 101.546 56.365 101.224 55.9486C101.495 56.2993 101.729 56.6572 101.933 57.0517C101.721 56.555 101.517 56.0655 101.305 55.5688C101.422 55.8537 101.509 56.1313 101.56 56.4308C101.487 55.8829 101.414 55.3277 101.341 54.7798C101.378 55.0866 101.378 55.3862 101.334 55.693C101.407 55.1451 101.48 54.5899 101.553 54.042C101.487 54.4146 101.378 54.7579 101.239 55.1013C101.451 54.6045 101.655 54.1151 101.867 53.6183C101.137 55.2108 99.8584 56.4527 98.9818 57.9502C98.076 59.4989 97.5427 61.128 97.4331 62.9177C97.382 63.7797 97.4916 64.6198 97.6669 65.4745C97.7984 66.1101 98.1198 66.6799 98.2805 67.3081C98.2075 66.7602 98.1344 66.205 98.0614 65.6571C98.0906 65.8252 98.1052 66.0005 98.0906 66.1685C98.1636 65.6206 98.2367 65.0654 98.3097 64.5175C98.2732 64.7878 98.2148 64.9997 98.1198 65.2554C98.3317 64.7586 98.5362 64.2692 98.748 63.7724C98.6239 64.0135 98.4997 64.218 98.3316 64.4372C98.6531 64.0208 98.9818 63.5971 99.3032 63.1807C99.1864 63.3195 99.0622 63.4437 98.9234 63.5533C99.3398 63.2318 99.7634 62.9031 100.18 62.5817C99.9607 62.7497 99.7561 62.8812 99.5078 63.0127C100.005 62.8008 100.494 62.5963 100.991 62.3845C100.618 62.5379 100.26 62.6328 99.8584 62.6986C100.406 62.6255 100.961 62.5525 101.509 62.4794C100.991 62.5233 100.494 62.5086 99.9826 62.4429C100.53 62.5159 101.086 62.589 101.634 62.662C100.779 62.5233 99.9461 62.2895 99.1425 61.9754C99.6393 62.1872 100.129 62.3918 100.625 62.6036C100.041 62.3552 99.5005 62.063 98.9891 61.6832C99.4055 62.0046 99.8292 62.3333 100.246 62.6547C99.968 62.4283 99.7269 62.1945 99.4932 61.9242C99.8146 62.3406 100.143 62.7643 100.465 63.1807C100.26 62.9104 100.085 62.6401 99.9388 62.3333C100.151 62.8301 100.355 63.3195 100.567 63.8163C100.465 63.546 100.392 63.283 100.348 62.9908C100.421 63.5387 100.494 64.0938 100.567 64.6417C100.538 64.3495 100.538 64.0719 100.567 63.787C100.494 64.3349 100.421 64.8901 100.348 65.438C100.392 65.1531 100.465 64.8901 100.56 64.6198C100.348 65.1166 100.143 65.606 99.9315 66.1028C100.048 65.8471 100.18 65.6206 100.348 65.4015C100.026 65.8179 99.6977 66.2416 99.3763 66.6579C99.5151 66.5045 99.6465 66.3803 99.8146 66.2489C99.3982 66.5703 98.9745 66.899 98.5581 67.2204C98.6677 67.1401 98.7845 67.0743 98.9087 67.0232C98.412 67.2351 97.9226 67.4396 97.4258 67.6514C97.55 67.593 97.6815 67.5565 97.8203 67.5273C100.355 66.8552 102.503 64.2253 102.379 61.5371C102.328 60.434 102.043 59.3747 101.531 58.4032C100.742 56.9056 99.3105 56.1459 97.8203 55.5469C97.7545 55.5176 97.6888 55.4957 97.623 55.4665C98.1198 55.6784 98.6092 55.8829 99.106 56.0947C98.7773 55.9413 98.4851 55.766 98.2002 55.5542C98.6166 55.8756 99.0402 56.2043 99.4566 56.5257C99.1279 56.2555 98.843 55.956 98.58 55.6199C98.9015 56.0363 99.2302 56.46 99.5516 56.8764C99.3032 56.5257 99.0987 56.1605 98.9234 55.766C99.1352 56.2628 99.3397 56.7522 99.5516 57.249C99.3617 56.7741 99.2375 56.3066 99.1644 55.8025C99.2375 56.3504 99.3105 56.9056 99.3836 57.4535C99.3398 57.0225 99.3324 56.6061 99.369 56.1751C99.2959 56.723 99.2229 57.2782 99.1498 57.8261C99.2083 57.4024 99.3032 57.0006 99.4566 56.5988C99.2448 57.0955 99.0402 57.585 98.8284 58.0817C98.9745 57.753 99.1352 57.4535 99.3471 57.1613C99.0256 57.5777 98.6969 58.0014 98.3755 58.4178C99.3763 57.1467 100.677 56.2189 101.466 54.7506C102.189 53.4065 102.605 52.0258 102.598 50.4917C102.598 49.3229 102.247 48.2052 102.079 47.0583C102.152 47.6062 102.225 48.1614 102.298 48.7093C102.254 48.2344 102.254 47.7815 102.298 47.3067C102.225 47.8546 102.152 48.4098 102.079 48.9576C102.174 48.3002 102.349 47.6939 102.598 47.0802C102.386 47.577 102.181 48.0664 101.97 48.5632C102.408 47.5697 102.985 46.6785 103.642 45.8164C103.321 46.2328 102.992 46.6565 102.671 47.0729C103.35 46.2109 104.088 45.4074 104.848 44.6184C105.914 43.508 106.74 41.7986 106.667 40.228C106.586 38.4894 105.944 37.1745 104.848 35.8377C104.789 35.7719 104.738 35.7062 104.68 35.6404C105.001 36.0568 105.33 36.4805 105.651 36.8969C105.505 36.685 105.388 36.4805 105.279 36.2467C105.491 36.7435 105.695 37.2329 105.907 37.7297C105.79 37.4083 105.71 37.1014 105.666 36.7654C105.739 37.3133 105.812 37.8685 105.885 38.4164C105.863 38.073 105.863 37.737 105.9 37.3936C105.827 37.9415 105.754 38.4967 105.681 39.0446C105.761 38.504 105.907 38 106.097 37.4959C105.885 37.9927 105.681 38.4821 105.469 38.9789C105.761 38.2995 106.119 37.6932 106.565 37.1014C106.243 37.5178 105.914 37.9415 105.593 38.3579C106.974 36.5974 108.654 35.0195 109.742 33.0544C110.341 31.9659 110.823 30.7679 111.108 29.5626C111.306 28.7371 111.444 27.9043 111.773 27.1227C111.561 27.6194 111.357 28.1088 111.145 28.6056C111.254 28.3864 111.364 28.1819 111.503 27.9774C111.181 28.3937 110.853 28.8174 110.531 29.2338C110.685 29.0366 110.838 28.8686 111.028 28.7006C110.612 29.022 110.188 29.3507 109.771 29.6721C110.444 29.1608 111.196 28.7225 111.795 28.1235C112.708 27.2176 113.439 26.0269 113.782 24.7777C114.169 23.3824 113.862 22.1113 114.03 20.738C113.957 21.2859 113.884 21.8411 113.811 22.3889C113.892 21.9433 114.016 21.5196 114.184 21.1032C113.972 21.6 113.767 22.0894 113.556 22.5862C113.789 22.0821 114.067 21.6292 114.403 21.1836C114.081 21.6 113.753 22.0237 113.431 22.4401C113.848 21.9287 114.308 21.4904 114.827 21.0813C114.41 21.4027 113.987 21.7315 113.57 22.0529C114.125 21.6511 114.71 21.3224 115.331 21.0448C114.834 21.2566 114.344 21.4612 113.848 21.673C115.389 21.0302 117.011 20.7161 118.662 20.4896C118.114 20.5627 117.559 20.6357 117.011 20.7088C117.42 20.6576 117.836 20.6065 118.245 20.5554C119.874 20.3581 121.46 20.0148 122.636 18.7364C123.819 17.4507 124.265 16.07 124.455 14.346C124.462 14.2656 124.469 14.178 124.484 14.0976C124.411 14.6455 124.338 15.2007 124.265 15.7486C124.352 15.1642 124.506 14.6309 124.74 14.0903C124.528 14.5871 124.323 15.0765 124.111 15.5733C124.36 15.04 124.652 14.5652 125.01 14.0976C124.689 14.514 124.36 14.9377 124.038 15.3541C124.411 14.9012 124.82 14.4994 125.28 14.1342C124.864 14.4556 124.44 14.7843 124.024 15.1057C124.564 14.704 125.127 14.3752 125.748 14.1122C125.251 14.3241 124.762 14.5286 124.265 14.7405C124.813 14.5286 125.353 14.3825 125.938 14.2949C125.39 14.3679 124.835 14.441 124.287 14.514C124.783 14.4629 125.273 14.4556 125.77 14.5067C125.222 14.4337 124.667 14.3606 124.119 14.2876C126.164 14.5798 128.085 15.3687 130.189 15.3541C131.774 15.3468 133.418 14.945 134.791 14.1415C136.406 13.1918 137.283 11.7819 138.386 10.3501C138.064 10.7665 137.735 11.1902 137.414 11.6066C137.524 11.4751 137.64 11.3655 137.772 11.2632C137.356 11.5847 136.932 11.9134 136.516 12.2348C136.676 12.1252 136.822 12.0376 136.998 11.9499C136.501 12.1618 136.011 12.3663 135.515 12.5782C135.69 12.5197 135.851 12.4759 136.033 12.4467C135.485 12.5197 134.93 12.5928 134.382 12.6658C134.631 12.6439 134.865 12.6512 135.113 12.6804C134.565 12.6074 134.01 12.5343 133.462 12.4613C134.156 12.5782 134.799 12.8338 135.442 13.1041C134.945 12.8923 134.455 12.6877 133.959 12.4759C136.099 13.389 138.057 14.3168 140.431 14.346C142.045 14.3679 143.587 13.8931 145.004 13.1553C145.771 12.7535 146.414 12.1691 147.196 11.7965C146.699 12.0084 146.209 12.2129 145.713 12.4248C145.954 12.3298 146.173 12.264 146.429 12.2129C145.881 12.286 145.325 12.359 144.778 12.4321C145.048 12.4028 145.304 12.4028 145.574 12.4394C145.026 12.3663 144.471 12.2933 143.923 12.2202C144.186 12.2713 144.434 12.3444 144.683 12.4394C144.186 12.2275 143.696 12.023 143.2 11.8111C143.791 12.0741 144.31 12.4321 144.821 12.8192C144.405 12.4978 143.981 12.1691 143.565 11.8477C145.545 13.3817 147.495 15.1642 150.059 15.6098C152.514 16.0335 154.545 15.6609 156.787 14.6601C157.671 14.2656 158.497 13.7616 159.388 13.3744C158.891 13.5863 158.402 13.7908 157.905 14.0027C158.314 13.842 158.716 13.7251 159.147 13.652C158.599 13.7251 158.044 13.7981 157.496 13.8712C157.781 13.8493 158.036 13.842 158.321 13.8639C157.773 13.7908 157.218 13.7178 156.67 13.6447C157.131 13.7105 157.554 13.8273 157.978 14.0027C157.481 13.7908 156.992 13.5863 156.495 13.3744C156.926 13.579 157.313 13.8127 157.7 14.0903C157.284 13.7689 156.86 13.4402 156.444 13.1187C157.131 13.652 157.722 14.2656 158.263 14.945C157.941 14.5286 157.613 14.1049 157.291 13.6885C158.555 15.3322 159.651 17.1585 161.141 18.6122C163.428 20.8403 166.16 21.9433 169.286 22.2794C173.728 22.7542 178.213 20.5992 181.939 18.415C179.104 17.6698 176.27 16.932 173.443 16.1869C175.532 19.8248 179.426 22.557 183.582 23.2071C185.986 23.5797 188.228 23.6381 190.617 23.0172C192.955 22.4109 195.029 21.1763 196.797 19.5546C193.262 18.0935 189.726 16.6252 186.19 15.1642C186.358 19.8614 187.79 24.6316 190.537 28.4741C191.903 30.3807 193.386 32.1559 195.227 33.6096C196.315 34.4716 197.404 35.319 198.609 35.9984C199.508 36.5097 200.479 36.8896 201.319 37.5032C200.903 37.1818 200.479 36.8531 200.063 36.5316C200.289 36.7216 200.472 36.9042 200.662 37.1234C200.34 36.707 200.012 36.2833 199.69 35.8669C199.858 36.1006 199.99 36.3198 200.114 36.5828C199.902 36.086 199.697 35.5966 199.486 35.0998C199.624 35.4505 199.712 35.7938 199.778 36.1664C199.705 35.6185 199.632 35.0633 199.559 34.5154C199.719 35.8084 199.522 37.0868 199.464 38.3725C199.391 40.0162 199.537 41.6306 199.756 43.2597C199.975 44.8887 200.289 46.4593 200.749 48.0372C201.158 49.4398 201.589 50.8278 201.787 52.2742C201.714 51.7263 201.641 51.1711 201.568 50.6232C201.655 51.3829 201.663 52.1208 201.568 52.8878C201.641 52.3399 201.714 51.7847 201.787 51.2368C201.699 51.7482 201.568 52.2376 201.378 52.7198C201.589 52.223 201.794 51.7336 202.006 51.2368C201.137 53.2896 199.749 55.0501 199.171 57.249C198.682 59.1191 198.777 60.7481 199.076 62.6182C199.245 63.6628 199.559 64.671 199.697 65.7156C199.624 65.1677 199.551 64.6125 199.478 64.0646C199.515 64.4737 199.522 64.8682 199.486 65.2773C199.559 64.7294 199.632 64.1742 199.705 63.6263C199.639 64.0792 199.522 64.4956 199.361 64.9193C199.573 64.4226 199.778 63.9331 199.99 63.4364C199.763 63.9331 199.493 64.3861 199.171 64.8317C199.493 64.4153 199.822 63.9916 200.143 63.5752C199.493 64.3934 198.74 65.08 197.915 65.7156C198.331 65.3942 198.755 65.0654 199.171 64.744C198.171 65.4964 197.133 66.1831 195.979 66.6799C196.476 66.468 196.965 66.2635 197.462 66.0516C196.929 66.2635 196.396 66.4242 195.833 66.5191C196.381 66.4461 196.936 66.373 197.484 66.3C197.126 66.3438 196.783 66.3511 196.417 66.3219C196.965 66.395 197.521 66.468 198.068 66.5411C197.71 66.4899 197.389 66.4023 197.06 66.2635C197.557 66.4753 198.046 66.6799 198.543 66.8917C198.302 66.7675 198.09 66.636 197.878 66.4753C198.295 66.7967 198.719 67.1255 199.135 67.4469C198.952 67.2862 198.799 67.1328 198.638 66.9501C198.96 67.3665 199.288 67.7902 199.61 68.2066C199.42 67.951 199.266 67.6953 199.135 67.4104C199.347 67.9071 199.551 68.3966 199.763 68.8933C199.581 68.4404 199.456 67.9875 199.383 67.498C199.456 68.0459 199.529 68.6011 199.602 69.149C199.486 68.2285 199.522 67.3154 199.639 66.395C199.566 66.9428 199.493 67.498 199.42 68.0459C199.917 64.3861 200.45 60.8065 198.492 57.4243C197.835 56.2847 196.921 55.2693 195.928 54.4C195.256 53.8156 194.562 53.2677 194.007 52.5737C194.328 52.9901 194.657 53.4138 194.978 53.8302C194.818 53.611 194.686 53.3919 194.562 53.1435C194.774 53.6402 194.978 54.1297 195.19 54.6264C195.088 54.3707 195.022 54.137 194.986 53.8667C195.059 54.4146 195.132 54.9698 195.205 55.5176C195.19 55.2693 195.205 55.0647 195.241 54.8164C195.168 55.3642 195.095 55.9194 195.022 56.4673C195.095 56.1824 195.176 55.9267 195.292 55.6564C195.081 56.1532 194.876 56.6426 194.664 57.1394C195.205 55.956 195.877 54.7871 196.096 53.4941C196.491 51.1711 196.176 49.133 195.146 47.0291C194.175 45.0421 192.473 43.6468 191.107 41.9667C191.428 42.383 191.757 42.8067 192.078 43.2231C191.801 42.8579 191.56 42.4853 191.355 42.0689C191.567 42.5657 191.771 43.0551 191.983 43.5519C191.852 43.2377 191.749 42.9382 191.691 42.6022C191.764 43.1501 191.837 43.7053 191.91 44.2532C191.881 43.9463 191.888 43.6541 191.932 43.3473C191.859 43.8952 191.786 44.4504 191.713 44.9983C191.757 44.7718 191.815 44.5673 191.896 44.3481C191.684 44.8449 191.479 45.3343 191.267 45.8311C191.362 45.6265 191.457 45.4439 191.581 45.254C191.26 45.6703 190.931 46.094 190.61 46.5104C190.749 46.3351 190.88 46.2036 191.048 46.0575C190.632 46.3789 190.208 46.7077 189.792 47.0291C189.901 46.9487 190.018 46.8757 190.142 46.8246C189.646 47.0364 189.156 47.2409 188.659 47.4528C188.791 47.3944 188.922 47.3578 189.061 47.3359C188.513 47.409 187.958 47.482 187.41 47.5551C187.483 47.5478 187.556 47.5405 187.629 47.5331C189.31 47.3797 190.793 46.9414 192.02 45.7142C193.094 44.6403 193.912 42.8725 193.839 41.3238C193.678 38.1826 191.07 34.7711 187.608 35.0852Z" fill="white"/>
<path d="M163.939 83.0652C166.529 83.0652 168.629 79.9124 168.629 76.0231C168.629 72.1338 166.529 68.981 163.939 68.981C161.349 68.981 159.249 72.1338 159.249 76.0231C159.249 79.9124 161.349 83.0652 163.939 83.0652Z" fill="white" stroke="white" stroke-width="5.6693" stroke-miterlimit="10"/>
<path d="M127.567 81.8892C130.157 81.8892 132.257 78.7363 132.257 74.8471C132.257 70.9578 130.157 67.8049 127.567 67.8049C124.977 67.8049 122.877 70.9578 122.877 74.8471C122.877 78.7363 124.977 81.8892 127.567 81.8892Z" fill="white" stroke="white" stroke-width="5.6693" stroke-miterlimit="10"/>
<path d="M144.208 81.7212C144.23 84.0296 144.135 86.6229 142.469 88.23C142.067 88.6172 141.578 88.9387 141.249 89.3916C140.869 89.9248 140.738 90.5896 140.614 91.2325C140.533 91.6781 140.446 92.1383 140.57 92.5693C140.767 93.2779 141.439 93.7308 142.111 94.0303C143.506 94.6439 145.099 94.812 146.589 94.5052" fill="white"/>
<path d="M144.208 81.7212C145.077 82.4955 145.683 83.2991 146.217 84.2488C146.092 85.1327 145.968 86.0823 145.603 87.0539C145.26 88.0182 144.653 89.0263 143.821 89.8007C143.419 90.1659 143.127 90.3924 143.01 90.5166C142.951 90.5823 142.937 90.5969 142.929 90.6115C142.915 90.6334 142.893 90.6846 142.864 90.7576C142.805 90.9183 142.739 91.1886 142.674 91.5539C142.593 91.941 142.586 92.1456 142.593 92.0798C142.593 91.9776 142.476 91.8096 142.513 91.868C142.542 91.8972 142.688 92.0068 142.9 92.1018C143.382 92.3209 143.945 92.4816 144.507 92.5401C145.004 93.2268 145.676 93.8331 146.604 94.4905C146.005 95.4621 145.099 96.1415 144.047 96.6529C143.054 96.5433 142.097 96.2803 141.162 95.8566C140.665 95.6228 140.139 95.3306 139.606 94.812C139.343 94.5563 139.087 94.2349 138.875 93.8404C138.67 93.4532 138.524 92.9784 138.473 92.562C138.386 91.7219 138.539 91.1521 138.597 90.7722C138.678 90.3778 138.765 89.881 138.977 89.3039C139.087 89.019 139.226 88.7122 139.416 88.4054C139.606 88.0913 139.854 87.8064 140.066 87.5945C140.497 87.1635 140.833 86.9224 141.001 86.7617C141.3 86.4695 141.541 86.1189 141.724 85.6148C141.899 85.1254 142.038 84.5191 142.06 83.8543C142.732 83.2626 143.346 82.5101 144.208 81.7212Z" fill="white"/>
<path d="M165.59 105.046C161.397 106.683 159.059 106.924 154.946 107.45C153.091 107.691 149.723 108.151 147.853 108.224C142.71 108.429 138.305 108.239 132.374 107.45C130.854 107.245 127.983 106.595 126.573 105.908C125.163 105.229 124.915 103.067 124.637 101.277C125.631 100.671 127.085 101.387 128.188 101.547C129.079 101.679 130.211 101.036 131.081 101.277C132.395 101.635 133.608 102.022 134.952 102.051C145.501 102.256 156.006 102.972 166.35 100.495C166.547 101.277 165.999 103.045 165.904 104.367" fill="white"/>
<path d="M163.939 99.0561C161.178 100.123 158.387 100.78 155.465 101.182C156.013 101.109 156.568 101.036 157.116 100.963C153.281 101.474 149.453 102.015 145.581 102.08C141.162 102.154 136.757 101.817 132.374 101.24C132.921 101.313 133.477 101.386 134.024 101.46C132.184 101.204 130.313 100.773 128.589 100.079C129.086 100.291 129.576 100.495 130.072 100.707C129.817 100.598 129.583 100.481 129.349 100.32C129.766 100.641 130.189 100.97 130.606 101.292C130.438 101.145 130.306 101.007 130.167 100.839C130.489 101.255 130.818 101.679 131.139 102.095C130.964 101.847 130.832 101.591 130.708 101.313C130.92 101.81 131.124 102.3 131.336 102.796C130.942 101.774 130.796 100.692 130.628 99.6186C129.678 101.956 128.721 104.294 127.771 106.632C127.844 106.595 127.917 106.559 127.99 106.522C127.494 106.734 127.004 106.938 126.508 107.15C126.661 107.092 126.822 107.055 126.982 107.033C126.434 107.106 125.879 107.179 125.331 107.252C125.602 107.238 125.835 107.252 126.106 107.282C125.558 107.209 125.003 107.136 124.455 107.063C125.726 107.282 126.88 107.698 128.195 107.757C129.481 107.808 130.723 107.428 131.979 107.231C131.431 107.304 130.876 107.377 130.328 107.45C130.503 107.428 130.671 107.421 130.847 107.435C130.299 107.362 129.744 107.289 129.196 107.216C131.044 107.552 132.717 108.107 134.631 108.239C136.143 108.341 137.67 108.312 139.182 108.356C142.279 108.436 145.369 108.516 148.467 108.509C155.019 108.487 161.623 107.99 168.015 106.478C165.466 105.032 162.924 103.585 160.374 102.139C160.381 102.19 160.396 102.241 160.403 102.3C160.33 101.752 160.257 101.197 160.184 100.649C160.206 100.926 160.184 101.189 160.162 101.467C160.235 100.919 160.308 100.364 160.381 99.8159C160.177 101.335 159.848 102.826 159.709 104.36C159.578 105.857 160.498 107.72 161.528 108.75C162.602 109.824 164.37 110.642 165.919 110.569C167.526 110.496 169.191 109.97 170.309 108.75C171.478 107.472 171.975 106.084 172.128 104.36C172.143 104.184 172.157 104.016 172.179 103.848C172.106 104.396 172.033 104.951 171.96 105.499C172.062 104.783 172.216 104.075 172.325 103.366C172.61 101.54 172.683 100.656 172.354 98.8443C172.099 97.449 170.733 95.7835 169.498 95.1333C167.986 94.337 166.393 94.1106 164.713 94.5051C162.77 94.9653 160.812 95.3232 158.833 95.5935C159.381 95.5205 159.936 95.4474 160.484 95.3744C156.093 95.9515 151.666 96.1122 147.247 96.0976C145.084 96.0903 142.922 96.0391 140.76 95.988C138.517 95.9296 136.201 96.0391 133.973 95.7615C134.521 95.8346 135.076 95.9076 135.624 95.9807C134.558 95.8127 133.55 95.4474 132.498 95.2429C131.081 94.9726 129.963 95.031 128.546 95.2794C128.049 95.3671 127.559 95.4986 127.055 95.5643C127.603 95.4912 128.158 95.4182 128.706 95.3451C128.538 95.3671 128.37 95.3598 128.202 95.3378C128.75 95.4109 129.305 95.4839 129.853 95.557C128.867 95.3817 127.939 95.1114 126.938 94.9726C124.981 94.7096 123.286 95.0164 121.511 95.9076C120.327 96.4994 119.465 97.7047 118.969 98.8808C118.384 100.269 118.428 101.438 118.655 102.928C118.932 104.754 119.297 106.464 120.24 108.1C121.606 110.474 123.878 111.657 126.398 112.461C129.78 113.535 133.382 113.856 136.895 114.178C140.132 114.47 143.382 114.572 146.633 114.485C149.533 114.404 152.404 113.995 155.275 113.63C159.402 113.104 163.347 112.549 167.241 111.044C168.797 110.445 170.083 109.67 170.952 108.188C171.733 106.858 172.062 104.893 171.58 103.403C171.091 101.898 170.163 100.451 168.724 99.6917C167.328 98.9466 165.473 98.4644 163.939 99.0561Z" fill="white"/>
<path d="M162.229 111.811C159.731 111.124 157.087 111.329 154.508 111.54C149.986 111.906 145.457 112.278 140.935 112.658C137.772 112.928 133.63 113.768 130.657 114.901C130.73 115.989 132.023 116.311 133.024 116.712C134.083 117.143 134.879 118.239 135.982 118.524C137.049 118.802 137.845 118.992 138.941 119.13C141.045 119.393 142.754 120.073 144.858 120.336C145.676 120.438 148.759 119.759 149.592 119.729C151.411 119.678 153.215 119.182 154.917 118.524C155.794 118.188 156.407 117.655 157.284 117.319C157.803 117.122 158.606 116.435 159.059 116.113C159.519 115.785 159.877 115.346 160.242 114.908C160.973 114.024 161.879 113.374 162.609 112.497" fill="white"/>
<path d="M163.881 105.821C160.652 104.988 157.43 105.09 154.15 105.353C151.235 105.587 148.313 105.828 145.399 106.069C139.869 106.529 134.251 106.946 129.006 108.903C127.523 109.459 126.069 110.291 125.295 111.76C124.462 113.33 124.404 114.799 124.667 116.545C124.966 118.532 126.544 120.248 128.173 121.3C129.145 121.928 130.299 122.272 131.373 122.695C130.876 122.484 130.387 122.279 129.89 122.067C130.306 122.257 130.664 122.498 131.029 122.776C130.613 122.454 130.189 122.126 129.773 121.804C130.686 122.513 131.555 123.302 132.6 123.799C133.747 124.346 134.857 124.675 136.085 124.916C137.684 125.223 139.262 125.479 140.848 125.859C142.491 126.253 144.23 126.677 145.917 126.48C147.524 126.29 149.11 125.99 150.709 125.764C150.162 125.837 149.606 125.91 149.058 125.983C150.914 125.742 152.784 125.669 154.603 125.157C156.466 124.631 158.146 123.777 159.855 122.915C161.302 122.184 162.683 121.242 163.866 120.124C164.363 119.657 164.764 119.087 165.247 118.605C165.824 118.027 166.445 117.494 166.985 116.873C168.074 115.617 168.804 114.192 168.804 112.483C168.804 110.956 168.125 109.137 166.985 108.093C164.648 105.952 160.476 105.47 158.197 108.093C157.627 108.75 156.963 109.312 156.356 109.933C155.779 110.525 155.304 111.197 154.654 111.709C155.071 111.387 155.494 111.058 155.911 110.737C154.625 111.679 153.244 112.527 151.769 113.148C152.265 112.936 152.755 112.731 153.252 112.519C151.959 113.009 150.651 113.396 149.292 113.608C149.84 113.535 150.395 113.462 150.943 113.389C148.781 113.666 146.626 113.944 144.471 114.243C145.019 114.17 145.574 114.097 146.122 114.024C145.705 114.083 145.274 114.141 144.851 114.112C145.399 114.185 145.954 114.258 146.502 114.331C144.931 114.112 143.419 113.652 141.87 113.338C140.373 113.031 138.846 112.907 137.385 112.439C137.882 112.651 138.371 112.855 138.868 113.067C138.451 112.885 138.093 112.651 137.728 112.381C138.145 112.702 138.568 113.031 138.985 113.352C138.181 112.731 137.407 112.008 136.516 111.511C135.654 111.037 134.704 110.73 133.783 110.364C134.28 110.576 134.77 110.781 135.266 110.993C134.908 110.839 134.58 110.679 134.273 110.437C134.689 110.759 135.113 111.088 135.529 111.409C135.42 111.321 135.332 111.219 135.252 111.102C135.573 111.519 135.902 111.942 136.223 112.359C136.187 112.3 136.158 112.242 136.121 112.176C136.333 112.673 136.538 113.162 136.749 113.659C136.691 113.528 136.654 113.381 136.647 113.235C135.201 115.785 133.754 118.327 132.308 120.876C135.076 119.839 138.006 119.211 140.935 118.816C140.387 118.89 139.832 118.963 139.284 119.036C142.791 118.59 146.341 118.4 149.869 118.115C153.398 117.83 157.05 117.253 160.586 117.677C160.038 117.604 159.483 117.531 158.935 117.458C159.49 117.538 160.038 117.648 160.586 117.786C163.727 118.597 167.475 116.756 168.227 113.447C168.958 110.218 167.241 106.69 163.881 105.821Z" fill="white"/>
<path d="M166.876 100.115C166.876 100.115 153.975 102.431 144.953 102.431C135.924 102.431 124.959 100.89 124.959 100.89C124.959 100.89 123.666 119.416 144.953 120.19C166.233 120.964 166.876 100.115 166.876 100.115Z" fill="white" stroke="white" stroke-width="5.6693" stroke-miterlimit="10"/>
<path d="M117.142 480.946C108.303 480.946 100.289 479.039 94.4307 475.956C96.6953 480.084 100.494 482.407 105.849 482.407C114.103 482.407 130.606 482.407 130.606 482.407C132.505 481.596 134.317 479.894 135.792 477.768C130.511 479.77 124.082 480.946 117.142 480.946Z" fill="white" stroke="white" stroke-width="5.6693" stroke-miterlimit="10"/>
<path d="M175.583 480.215C168.965 480.215 162.777 479.222 157.51 477.49C158.847 479.441 160.462 480.982 162.135 481.749C162.135 481.749 178.768 482.67 186.526 482.67C191.37 482.67 195.767 480.04 197.769 475.912C191.75 478.593 184.021 480.215 175.583 480.215Z" fill="white" stroke="white" stroke-width="5.6693" stroke-miterlimit="10"/>
<g opacity="0.3">
<path opacity="0.3" d="M104.461 464.414C106.579 463.567 108.72 462.712 110.977 462.391C112.197 462.215 113.431 462.201 114.666 462.186C119.202 462.135 123.775 462.084 128.217 462.982" fill="white"/>
<path opacity="0.3" d="M104.461 464.414C106.002 462.88 107.748 461.689 109.866 460.937C110.926 460.564 112.065 460.367 113.11 460.258C114.176 460.155 115.155 460.119 116.171 460.104C118.194 460.082 120.262 460.228 122.307 460.645C124.353 461.076 126.398 461.748 128.202 462.99C126.062 463.443 124.104 463.684 122.132 463.896C120.167 464.093 118.202 464.232 116.207 464.246C115.214 464.246 114.184 464.224 113.234 464.18C112.277 464.137 111.393 464.1 110.487 464.122C108.654 464.151 106.645 464.458 104.461 464.414Z" fill="white"/>
</g>
<g opacity="0.3">
<path opacity="0.3" d="M167.036 464.831C170.477 463.757 173.962 462.749 177.548 462.339C181.128 461.93 184.839 462.135 188.207 463.443" fill="white"/>
<path opacity="0.3" d="M167.036 464.831C168.497 463.479 170.119 462.522 171.843 461.762C173.567 461.017 175.408 460.499 177.315 460.28C179.221 460.06 181.194 460.148 183.093 460.623C184.978 461.112 186.826 461.974 188.207 463.443C186.22 463.603 184.503 463.706 182.801 463.866C181.106 464.02 179.455 464.21 177.782 464.392C176.109 464.582 174.4 464.779 172.625 464.911C170.85 465.028 169.016 465.115 167.036 464.831Z" fill="white"/>
</g>
<path d="M193.736 234.194C198.507 235.947 202.678 239.278 205.439 243.537C206.484 245.151 207.339 246.897 208.442 248.468C211.071 252.208 214.994 254.83 218.997 257.044C219.765 257.468 220.67 258.14 220.48 259.002C220.247 260.068 218.72 260.046 217.675 259.732C212.094 258.074 206.798 255.451 202.093 252.018C206.455 254.779 216.141 258.527 215.184 260.309C214.227 262.092 211.926 260.594 210.356 260.046C204.833 258.14 199.486 255.736 194.394 252.873L209.866 259.9C209.764 260.528 208.522 261.456 207.923 261.683C207.331 261.909 206.674 261.909 206.038 261.902C204.015 261.873 201.991 261.712 199.982 261.427C197.637 261.091 195.139 260.492 193.583 258.695C193.583 258.695 200.041 260.309 204.767 262.077C205.447 262.333 205.023 263.969 200.771 263.969C198.58 263.969 196.498 263.86 194.197 263.239C193.232 262.976 191.552 263.071 190.756 262.472C188.871 261.047 188.426 258.454 188.126 256.109C187.68 252.675 187.235 249.235 186.789 245.801C186.723 245.297 186.658 244.786 186.745 244.289C186.811 243.895 186.972 243.522 187.14 243.164C188.703 239.753 190.939 236.648 193.671 234.077" fill="white"/>
<path d="M193.736 234.194C198.507 235.947 202.678 239.278 205.439 243.537C206.484 245.151 207.339 246.897 208.442 248.468C211.071 252.208 214.994 254.83 218.997 257.044C219.765 257.468 220.67 258.14 220.48 259.002C220.247 260.068 218.72 260.046 217.675 259.732C212.094 258.074 206.798 255.451 202.093 252.018C206.455 254.779 216.141 258.527 215.184 260.309C214.227 262.092 211.926 260.594 210.356 260.046C204.833 258.14 199.486 255.736 194.394 252.873L209.866 259.9C209.764 260.528 208.522 261.456 207.923 261.683C207.331 261.909 206.674 261.909 206.038 261.902C204.015 261.873 201.991 261.712 199.982 261.427C197.637 261.091 195.139 260.492 193.583 258.695C193.583 258.695 200.041 260.309 204.767 262.077C205.447 262.333 205.023 263.969 200.771 263.969C198.58 263.969 196.498 263.86 194.197 263.239C193.232 262.976 191.552 263.071 190.756 262.472C188.871 261.047 188.426 258.454 188.126 256.109C187.68 252.675 187.235 249.235 186.789 245.801C186.723 245.297 186.658 244.786 186.745 244.289C186.811 243.895 186.972 243.522 187.14 243.164C188.703 239.753 190.939 236.648 193.671 234.077" stroke="white" stroke-width="5.6693" stroke-miterlimit="10"/>
<path d="M209.647 259.381C207.704 258.622 205.746 257.855 203.949 256.788C202.152 255.729 200.494 254.348 199.383 252.58" fill="white"/>
<path d="M209.647 259.381C207.704 258.622 205.746 257.855 203.949 256.788C202.152 255.729 200.494 254.348 199.383 252.58" stroke="white" stroke-width="5.6693" stroke-miterlimit="10" stroke-linecap="round" stroke-linejoin="round"/>
<path d="M203.628 261.617C202.437 261.369 201.253 261.12 200.063 260.879C199.559 260.777 199.054 260.667 198.572 260.499C196.388 259.74 194.818 257.796 193.758 255.736" fill="white"/>
<path d="M203.628 261.617C202.437 261.369 201.253 261.12 200.063 260.879C199.559 260.777 199.054 260.667 198.572 260.499C196.388 259.74 194.818 257.796 193.758 255.736" stroke="white" stroke-width="5.6693" stroke-miterlimit="10" stroke-linecap="round" stroke-linejoin="round"/>
<path d="M213.234 258.023C211.473 256.964 209.662 255.977 208.018 254.728C206.382 253.486 204.906 251.952 204.066 250.075" fill="white"/>
<path d="M213.234 258.023C211.473 256.964 209.662 255.977 208.018 254.728C206.382 253.486 204.906 251.952 204.066 250.075" stroke="white" stroke-width="5.6693" stroke-miterlimit="10" stroke-linecap="round" stroke-linejoin="round"/>
<path d="M118.311 63.5825C122.607 60.7554 128.129 59.8714 133.09 61.2156L118.311 63.5825Z" fill="white"/>
<path d="M118.202 63.4145C119.107 62.4283 120.196 61.5882 121.372 60.8723L122.278 60.3683L123.22 59.9154L124.199 59.5355L125.2 59.2068C125.536 59.1118 125.879 59.0095 126.223 58.8927L127.267 58.5931C127.618 58.5274 127.976 58.4617 128.334 58.4543C128.692 58.4543 129.05 58.4982 129.408 58.5639C130.81 58.9 132.198 59.5793 133.163 61.0257L133.053 61.4275C131.533 62.2019 130.365 62.4941 129.21 62.6986C128.633 62.8009 128.078 62.7936 127.501 62.684L126.624 62.5379C126.332 62.5014 126.033 62.4868 125.733 62.4795L124.842 62.5014L123.943 62.5744L123.038 62.6621L122.125 62.8009C120.905 62.9981 119.685 63.3342 118.443 63.7579L118.202 63.4145Z" fill="white"/>
<path d="M172.931 65.7741C168.636 62.947 163.113 62.0631 158.153 63.4072L172.931 65.7741Z" fill="white"/>
<path d="M172.815 65.9495C171.573 65.5258 170.36 65.1898 169.133 64.9925L168.22 64.8537L167.314 64.7661L166.415 64.693L165.524 64.6711C165.225 64.6857 164.932 64.7003 164.633 64.7296L163.756 64.8757C163.179 64.9852 162.624 64.9925 162.047 64.8903C160.885 64.6784 159.716 64.3935 158.204 63.6192L158.095 63.2174C159.059 61.771 160.44 61.0916 161.85 60.7556C162.2 60.6898 162.565 60.646 162.923 60.646C163.281 60.6533 163.639 60.719 163.99 60.7848L165.035 61.0843C165.378 61.2012 165.714 61.3035 166.057 61.3984L167.058 61.7272L168.037 62.107L168.979 62.5599L169.885 63.064C171.061 63.7872 172.142 64.62 173.056 65.6062L172.815 65.9495Z" fill="white"/>
<path d="M51.031 152.946C51.031 152.946 43.967 130.066 44.303 128.13C44.639 126.195 47.079 117.969 49.4604 115.237C51.8419 112.505 58.8475 106.683 59.9944 106.113C61.1413 105.543 62.091 104.235 60.966 102.979C59.841 101.722 56.1811 98.815 51.3744 102.205C46.5676 105.594 43.7478 107.669 43.7478 107.669C43.7478 107.669 41.3883 102.84 41.0595 101.627C40.7308 100.415 38.7219 89.238 38.1741 86.2648C37.6262 83.2916 36.0117 76.4321 35.8145 75.7089C35.6172 74.9784 34.1197 73.3055 32.571 73.8607C31.0223 74.4159 29.5759 75.7819 29.8316 77.1772C30.08 78.5725 32.045 93.4092 32.308 94.3808C32.571 95.3523 32.9728 98.72 32.9071 98.9538C32.8413 99.1875 32.067 100.181 31.4972 99.0341C30.9274 97.8872 23.6003 75.3363 23.6003 75.3363C23.6003 75.3363 22.5411 72.2755 21.175 71.881C19.809 71.4865 16.5363 73.4443 16.5436 74.5985C16.5509 75.7527 20.1596 88.6389 20.9778 90.8597C21.796 93.0804 24.5281 101.196 24.7253 101.92C24.9226 102.65 24.9372 103.753 23.6734 102.891C22.4096 102.029 16.9819 87.8792 16.2149 86.0018C15.4405 84.1317 14.542 81.7721 14.0964 81.1074C13.6581 80.4426 11.6272 79.6975 10.305 80.5814C8.98279 81.4653 8.52258 82.6341 8.85131 83.8468C9.18004 85.0594 15.9738 103.264 16.5436 104.411C17.1134 105.558 17.5152 107.011 17.5809 107.252C17.6467 107.493 17.296 108.114 16.6093 107.515C15.9227 106.916 8.79285 92.6714 8.19383 91.6852C7.59481 90.699 5.74662 89.6397 4.17602 90.5894C2.60542 91.5391 2.89762 93.5407 3.40168 94.4465C3.90573 95.3523 11.1159 110.321 11.7587 111.708C12.4016 113.096 14.0525 122.023 16.6093 124.712C19.1661 127.4 24.3016 131.184 27.5378 132.696C28.5605 133.171 35.1424 157.585 35.683 159.52C36.2309 161.456 51.031 152.946 51.031 152.946Z" fill="white" stroke="white" stroke-width="5.6693" stroke-miterlimit="10"/>
<path d="M43.6675 107.501C43.6675 107.501 40.9062 108.706 40.6432 109.166C40.3802 109.627 33.433 112.826 32.067 117.37C30.7009 121.914 30.3722 123.565 30.3722 123.565C30.3722 123.565 28.787 120.613 30.3503 116.8C31.9136 112.987 38.1303 109.342 39.2991 108.699C40.4679 108.049 43.1416 106.405 43.1416 106.405L43.6675 107.501Z" fill="white" stroke="white" stroke-width="5.6693" stroke-miterlimit="10"/>
<g opacity="0.2">
<path opacity="0.2" d="M135.04 131.031C135.04 131.031 140.153 134.683 146.626 134.698C152.572 134.712 156.342 132.185 161.338 129.57" fill="white"/>
<path opacity="0.2" d="M135.04 131.031C137.45 131.6 139.671 132.075 141.848 132.367C142.929 132.521 143.996 132.616 145.048 132.645C146.085 132.682 147.13 132.66 148.182 132.557C150.256 132.382 152.28 131.951 154.435 131.301C156.59 130.68 158.862 129.891 161.338 129.57C159.665 131.41 157.883 132.966 155.764 134.274C153.661 135.574 151.126 136.48 148.532 136.685C147.882 136.736 147.239 136.743 146.596 136.743C145.946 136.692 145.289 136.67 144.653 136.546C143.375 136.349 142.133 135.991 140.964 135.494C138.641 134.493 136.53 133.054 135.04 131.031Z" fill="white"/>
</g>
<path d="M179.601 146.371L217.529 181.377L200.107 206.127L175.401 193.109L179.601 146.371Z" fill="#FDC75F"/>
<path d="M118.969 146.371L76.7815 178.455L94.1969 203.205L118.91 190.187L118.969 146.371Z" fill="#FDC75F"/>
<path d="M115.528 268.228L106.601 323.834C106.601 323.834 110.823 332.586 122.811 332.82C134.799 333.053 144.23 330.818 144.23 330.818C144.23 330.818 148.781 309.465 150.841 309.078C152.908 308.698 154.552 329.569 157.167 331.936C159.775 334.303 174.108 333.521 179.148 332.834C193.393 330.913 198.916 327.239 198.916 327.239L188.521 266.497L115.528 268.228Z" fill="#354D73"/>
<path d="M168.066 372.633C169.571 369.426 185.014 369.426 185.547 372.633C186.073 375.84 180.112 434.208 180.112 434.208H171.814C171.806 434.2 166.905 375.109 168.066 372.633Z" fill="#939DA9"/>
<path d="M213.205 182.166C213.205 182.166 237.56 199.83 239.503 204.082C241.446 208.333 194.212 252.295 194.212 252.295L192.75 236.955L214.396 210.094L200.267 202.124L213.205 182.166Z" fill="#72421F"/>
<path d="M92.3854 200.239C92.3854 200.239 60.9222 224.573 56.247 224.478C51.5717 224.383 32.3008 148.804 32.3008 148.804L47.0717 142.653L64.2534 192.445L78.7906 181.436L92.3854 200.239Z" fill="#72421F"/>
<path d="M162.134 483.21C156.1 480.456 150.928 467.621 156.1 462.12C161.272 456.619 162.134 448.365 175.065 448.365C188.857 448.365 195.694 459.366 198.339 468.534C200.895 477.381 194.284 484.123 186.526 484.123C178.768 484.123 162.134 483.21 162.134 483.21Z" fill="#F9AE00"/>
<path d="M180.112 445.757V434.2H171.814V446.188C168.578 447.868 166.364 451.243 166.364 455.137C166.364 455.137 167.92 456.831 176.738 456.598C182.53 456.444 186.534 455.137 186.534 455.137C186.526 450.87 183.867 447.225 180.112 445.757Z" fill="#7092C0"/>
<path opacity="0.5" d="M176.898 374.006C181.457 374.006 185.153 373.185 185.153 372.172C185.153 371.16 181.457 370.339 176.898 370.339C172.339 370.339 168.644 371.16 168.644 372.172C168.644 373.185 172.339 374.006 176.898 374.006Z" fill="#868E96"/>
<path d="M177.358 357.504C175.583 357.504 174.151 358.322 174.151 359.337V371.259C174.151 372.275 175.59 373.093 177.358 373.093C179.133 373.093 180.565 372.275 180.565 371.259V359.337C180.565 358.322 179.133 357.504 177.358 357.504Z" fill="#939DA9"/>
<path opacity="0.4" d="M143.894 330C143.675 331.761 132.395 332.63 122.804 331.834C111.802 330.913 107.003 326.26 107.215 324.499C107.427 322.739 113.636 326.333 125.945 327.275C135.544 328.006 144.113 328.24 143.894 330Z" fill="#21324C"/>
<path d="M112.723 324.499C111.437 334.485 113.782 354.706 112.102 363.669C110.429 372.633 106.433 401.897 106.762 410.225C107.207 421.584 109.516 447.817 109.516 447.817H125.499C125.499 447.817 134.266 389.142 133.352 374.473C132.432 359.805 137.465 333.733 138.393 330.007C140.227 322.666 112.723 324.499 112.723 324.499Z" fill="#72421F"/>
<path d="M130.598 483.568C137.019 480.814 142.52 467.979 137.019 462.478C131.519 456.978 130.598 448.723 116.85 448.723C102.181 448.723 91.1799 459.724 92.093 468.892C93.0134 478.06 97.5937 483.561 105.849 483.561C114.103 483.561 130.598 483.568 130.598 483.568Z" fill="#F9AE00"/>
<path d="M107.039 415.689L130.072 416.069L125.507 451.937C125.507 451.937 123.651 453.61 118.026 453.398C112.401 453.186 109.523 451.937 109.523 451.937L107.039 415.689Z" fill="#7494C2"/>
<path d="M107.397 421.307L129.364 421.584L128.706 426.764H107.806L107.397 421.307Z" fill="#39506D"/>
<path opacity="0.4" d="M157.174 331.936C157.174 331.936 162.865 335.128 178.133 333.024C193.4 330.92 198.93 327.246 198.93 327.246C198.93 327.246 195.336 326.851 191.158 327.056C186.979 327.26 173.231 325.42 164.976 327.253C156.729 329.079 157.174 331.936 157.174 331.936Z" fill="#21324C"/>
<path d="M164.983 327.246C164.983 327.246 159.943 368.958 178.279 365.291C196.615 361.624 191.165 327.041 191.165 327.041C191.165 327.041 178.739 326.325 174.159 326.325C169.578 326.325 164.983 327.246 164.983 327.246Z" fill="#333333"/>
<g opacity="0.3">
<path opacity="0.3" d="M115.265 378.93C116.31 379.142 117.215 379.361 118.121 379.5C119.02 379.653 119.896 379.741 120.773 379.784C121.65 379.821 122.519 379.806 123.447 379.741C124.374 379.689 125.339 379.587 126.405 379.609C125.667 380.383 124.791 380.939 123.812 381.326C122.84 381.713 121.752 381.903 120.671 381.852C119.597 381.801 118.53 381.523 117.588 381.034C116.653 380.544 115.813 379.843 115.265 378.93Z" fill="#542700"/>
</g>
<path d="M181.062 147.102C178.213 141.002 129.481 136.495 118.969 146.371C108.457 156.248 113.855 270.558 115.316 273.48C116.777 276.402 189.784 276.402 190.172 273.48C190.559 270.558 186.176 158.059 181.062 147.102Z" fill="#F9AE00"/>
<path d="M103.511 70.4418C103.051 70.1934 101.663 69.9669 101.174 69.8208C99.5445 69.346 97.7401 70.2664 96.732 72.0781C95.5047 74.2916 95.5193 77.3232 95.6435 80.1064C95.7239 82.0496 95.8408 84.0512 96.5128 85.7679C96.7904 86.4838 97.163 87.1193 97.5283 87.7549C98.2515 89.0041 98.9819 90.2459 99.8147 91.3563C102.32 94.6874 102.342 94.3806 105.557 96.2507L103.511 70.4418Z" fill="#683914"/>
<path d="M134.339 130.804C134.792 133.273 135.047 135.779 135.106 138.292C135.149 140.009 135.011 141.93 133.74 143.091C133.542 143.274 133.309 143.442 133.236 143.705C133.192 143.844 133.206 143.997 133.221 144.143C133.425 145.736 134.58 147.087 135.953 147.927C137.326 148.767 138.912 149.169 140.475 149.549C145.384 150.74 150.819 151.741 155.275 149.359C157.635 148.095 159.439 146.013 161.148 143.953C161.411 143.632 161.689 143.289 161.755 142.872C161.806 142.529 161.704 142.178 161.609 141.842C160.747 138.752 160.644 135.457 161.302 132.324C161.375 131.973 161.441 128.634 161.192 128.379C160.958 128.138 160.571 131.082 160.243 131.126C151.929 132.156 143.433 131.732 135.259 129.869L134.339 130.804Z" fill="#683914"/>
<path d="M190.676 102.022C188.988 106.5 199.588 98.216 203.021 94.8776C204.168 93.7672 205.169 92.5181 206.163 91.2762C206.667 90.6406 207.171 89.9978 207.558 89.2892C208.478 87.5725 208.639 85.5709 208.756 83.6277C208.917 80.8518 208.946 77.8129 207.258 75.5994C205.878 73.7804 203.409 72.8673 201.173 73.3421C200.508 73.4809 198.609 73.7074 197.974 73.9631C197.966 73.9631 191.596 99.5748 190.676 102.022Z" fill="#683914"/>
<path d="M188.579 109.159C180.441 122.725 165.108 131.987 149.387 133.726C133.666 135.465 114.454 125.771 107.624 111.504C102.437 100.678 104.103 90.3848 103.043 78.6893C102.043 67.6732 99.1059 55.0061 102.926 44.6256C104.278 40.9511 107.31 29.9058 109.969 27.0276C120.714 15.3978 130.81 16.6397 146.64 17.0049C154.72 17.1949 162.565 19.6129 170.258 22.0893C177.826 24.5219 182.114 24.7411 188.579 29.3725C195.044 34.0039 198.711 40.206 199.142 48.1466C199.361 52.1718 198.952 75.9207 197.966 79.8289C197.966 79.8289 195.621 97.4269 188.579 109.159Z" fill="#72421F"/>
<path d="M187.607 42.7555C186.132 42.792 185.343 44.6987 185.774 46.1086C186.205 47.5184 187.388 48.5412 188.396 49.6223C189.405 50.7035 190.325 52.0988 190.047 53.5525C189.85 54.5898 189.054 55.4664 188.981 56.5183C188.813 58.8195 191.823 59.8933 193.042 61.8511C194.116 63.5751 193.685 65.7885 193.415 67.8048C193.145 69.821 193.254 72.2317 194.927 73.3932C196.856 74.7227 199.464 73.51 201.392 72.1805C203.438 70.7633 205.571 68.9078 205.717 66.4168C205.826 64.6343 204.862 62.9103 205.016 61.1279C205.198 58.9875 206.922 57.3073 207.558 55.2619C208.442 52.4056 207.119 49.4105 206.374 46.5176C205.753 44.107 205.527 41.594 205.71 39.1103C205.834 37.4009 206.097 35.4942 205.037 34.1501C204.387 33.3246 203.379 32.9082 202.444 32.4334C196.578 29.4748 192.568 23.1413 192.385 16.574C188.543 20.2046 181.354 19.0869 178.783 14.4701C175.072 16.6543 170.367 18.8605 166.708 16.5886C164.954 15.5001 163.902 13.6008 162.631 11.9717C161.36 10.3427 159.519 8.83055 157.467 9.07892C155.487 9.31999 153.88 11.1609 151.893 11.0513C149.117 10.8979 147.254 7.0481 144.544 7.66903C143.309 7.95393 142.447 9.12275 141.22 9.44418C138.488 10.1674 135.281 6.4783 133.206 8.39954C132.768 8.80133 132.534 9.37843 132.118 9.80213C130.62 11.3289 128.115 10.087 126.003 9.73638C122.38 9.13006 118.56 12.0886 118.238 15.7485C115.871 16.0334 113.439 16.3475 111.357 17.4944C109.267 18.6413 107.58 20.8548 107.777 23.2289C107.821 23.7549 107.945 24.3174 107.697 24.7776C107.47 25.194 107.003 25.4132 106.638 25.7127C105.345 26.7719 105.396 28.7151 104.84 30.293C104.117 32.3603 102.32 33.836 101.02 35.5965C99.7196 37.3643 98.9818 40.0015 100.443 41.6305C98.0833 44.0631 95.5411 47.0582 96.1182 50.3967C96.2204 50.9957 96.425 51.5874 96.3593 52.1937C96.2058 53.4794 94.9275 54.2684 94.102 55.2619C92.1296 57.6506 93.2546 61.8657 96.162 62.9395C94.5037 63.2902 93.8755 65.5621 94.6645 67.0596C95.4534 68.5572 97.1336 69.3607 98.7699 69.8064C99.9534 70.1278 101.239 70.3104 102.393 69.8867C103.547 69.463 104.49 68.265 104.263 67.0596C104.168 66.5483 103.884 66.0954 103.737 65.5986C102.7 62.1141 108.435 59.3162 107.47 55.8098C107.076 54.3706 105.622 53.4283 105.125 52.0184C104.424 50.0387 105.805 47.9641 107.266 46.4592C108.72 44.9543 110.444 43.3911 110.626 41.3018C110.78 39.5266 109.75 37.6931 110.363 36.0202C111.123 33.9528 113.804 33.4926 116.01 33.4634C118.216 33.4342 120.846 33.2662 121.949 31.3595C122.512 30.3806 122.672 28.9708 123.739 28.6128C125.149 28.1307 126.12 29.9496 127.077 31.0892C128.421 32.6891 130.708 33.2223 132.783 32.974C134.857 32.7183 136.771 31.7978 138.649 30.8847C140.723 33.8798 144.208 35.8595 147.846 36.1005C151.856 36.3635 156.283 34.7199 159.702 36.8384C161.031 37.6638 162.113 39.0226 163.654 39.2637C165.838 39.607 168.358 37.6127 170.068 39.0153C170.55 39.4098 170.82 40.0015 171.164 40.5201C172.858 43.055 176.796 43.7052 179.214 41.8497C180.521 43.8367 182.676 45.2393 185.021 45.6264" fill="black"/>
<path d="M163.939 84.5262C166.529 84.5262 168.629 81.3733 168.629 77.484C168.629 73.5948 166.529 70.4419 163.939 70.4419C161.349 70.4419 159.249 73.5948 159.249 77.484C159.249 81.3733 161.349 84.5262 163.939 84.5262Z" fill="black"/>
<path d="M127.567 83.3501C130.157 83.3501 132.257 80.1973 132.257 76.308C132.257 72.4187 130.157 69.2659 127.567 69.2659C124.977 69.2659 122.877 72.4187 122.877 76.308C122.877 80.1973 124.977 83.3501 127.567 83.3501Z" fill="black"/>
<path d="M144.208 83.1819C144.361 83.9562 144.456 84.7452 144.5 85.5487C144.42 86.345 144.288 87.1486 144.003 87.9229C143.726 88.6972 143.273 89.4351 142.659 90.0122C142.352 90.2971 142.045 90.5235 141.797 90.7792C141.549 91.0276 141.381 91.2979 141.257 91.6266C141.132 91.9553 141.059 92.3206 140.986 92.7004C140.913 93.0803 140.847 93.4383 140.884 93.7451C140.942 94.3514 141.512 94.8189 142.17 95.1184C142.842 95.4253 143.565 95.6225 144.303 95.7028C145.026 95.9074 145.793 95.9731 146.589 95.9585C145.851 96.2653 145.048 96.3968 144.222 96.426C143.412 96.3384 142.615 96.1192 141.863 95.7759C141.483 95.6006 141.11 95.3814 140.789 95.0673C140.468 94.7605 140.212 94.3076 140.161 93.8327C140.11 93.3652 140.197 92.9415 140.27 92.5616C140.343 92.1745 140.424 91.7727 140.57 91.3709C140.709 90.9691 140.964 90.5601 141.271 90.2605C141.571 89.9537 141.892 89.72 142.155 89.4789C142.674 88.9894 143.068 88.3612 143.317 87.6745C143.572 86.9878 143.704 86.2427 143.77 85.483C143.959 84.7379 144.054 83.9635 144.208 83.1819Z" fill="black"/>
<path d="M165.59 106.507C161.397 108.144 159.059 108.385 154.946 108.911C153.091 109.152 149.723 109.612 147.853 109.685C142.71 109.89 138.305 109.7 132.374 108.911C130.854 108.706 127.983 108.056 126.573 107.369C125.163 106.69 124.915 104.528 124.637 102.738C125.631 102.132 127.085 102.848 128.188 103.008C129.079 103.14 130.211 102.497 131.081 102.738C132.395 103.096 133.608 103.483 134.952 103.512C145.501 103.717 156.006 104.433 166.35 101.956C166.547 102.738 165.999 104.506 165.904 105.828" fill="white"/>
<path d="M162.229 113.272C159.731 112.585 157.087 112.79 154.508 113.002C149.986 113.367 145.457 113.739 140.935 114.119C137.772 114.39 133.63 115.23 130.657 116.362C130.73 117.45 132.023 117.772 133.024 118.174C134.083 118.605 134.879 119.7 135.982 119.985C137.049 120.263 137.845 120.453 138.941 120.592C141.045 120.855 142.754 121.534 144.858 121.797C145.676 121.899 148.759 121.22 149.592 121.191C151.411 121.139 153.215 120.643 154.917 119.985C155.794 119.649 156.407 119.116 157.284 118.78C157.803 118.583 158.606 117.896 159.059 117.575C159.519 117.246 159.877 116.808 160.242 116.369C160.973 115.485 161.879 114.835 162.609 113.959" fill="#C45549"/>
<path d="M166.876 101.576C166.876 101.576 153.975 103.892 144.953 103.892C135.924 103.892 124.959 102.351 124.959 102.351C124.959 102.351 123.666 120.877 144.953 121.651C166.233 122.425 166.876 101.576 166.876 101.576Z" stroke="black" stroke-miterlimit="10"/>
<path d="M117.142 482.407C108.303 482.407 100.289 480.5 94.4307 477.417C96.6953 481.545 100.494 483.868 105.849 483.868C114.103 483.868 130.606 483.868 130.606 483.868C132.505 483.057 134.317 481.355 135.792 479.229C130.511 481.231 124.082 482.407 117.142 482.407Z" fill="#604F3F"/>
<path d="M175.583 481.676C168.965 481.676 162.777 480.683 157.51 478.951C158.847 480.902 160.462 482.443 162.135 483.21C162.135 483.21 178.768 484.131 186.526 484.131C191.37 484.131 195.767 481.501 197.769 477.373C191.75 480.054 184.021 481.676 175.583 481.676Z" fill="#604F3F"/>
<g opacity="0.3">
<path opacity="0.3" d="M104.461 465.875C106.207 464.831 108.033 463.917 110.064 463.399C112.124 462.858 114.191 462.917 116.185 462.858C118.202 462.858 120.232 462.887 122.256 463.121C124.279 463.348 126.296 463.735 128.21 464.443C126.172 464.363 124.184 464.326 122.19 464.326L116.2 464.407H113.198C112.211 464.392 111.254 464.458 110.29 464.575C108.369 464.845 106.448 465.43 104.461 465.875Z" fill="#604F3F"/>
</g>
<g opacity="0.3">
<path opacity="0.3" d="M167.036 466.291C168.658 465.451 170.346 464.765 172.084 464.209C173.823 463.647 175.62 463.252 177.453 463.026C179.287 462.829 181.157 462.814 182.998 463.099C184.824 463.377 186.636 463.939 188.199 464.896C186.402 464.545 184.649 464.348 182.888 464.304C181.128 464.268 179.375 464.348 177.636 464.567C175.883 464.75 174.144 465.071 172.384 465.378C170.623 465.707 168.855 466.065 167.036 466.291Z" fill="#604F3F"/>
</g>
<path d="M193.736 235.654C198.507 237.408 202.678 240.739 205.439 244.998C206.484 246.612 207.339 248.358 208.442 249.929C211.071 253.669 214.994 256.291 218.997 258.505C219.765 258.929 220.67 259.601 220.48 260.463C220.247 261.529 218.72 261.507 217.675 261.193C212.094 259.535 206.798 256.912 202.093 253.479C206.455 256.24 216.141 259.988 215.184 261.77C214.227 263.553 211.926 262.055 210.356 261.507C204.833 259.601 199.486 257.197 194.394 254.334L209.866 261.361C209.764 261.989 208.522 262.917 207.923 263.144C207.331 263.37 206.674 263.37 206.038 263.363C204.015 263.334 201.991 263.173 199.982 262.888C197.637 262.552 195.139 261.953 193.583 260.156C193.583 260.156 200.041 261.77 204.767 263.538C205.447 263.794 205.023 265.43 200.771 265.43C198.58 265.43 196.498 265.321 194.197 264.7C193.232 264.437 191.552 264.532 190.756 263.933C188.871 262.508 188.426 259.915 188.126 257.57C187.68 254.136 187.235 250.696 186.789 247.262C186.723 246.758 186.658 246.247 186.745 245.75C186.811 245.356 186.972 244.983 187.14 244.625C188.703 241.214 190.939 238.109 193.671 235.538" fill="#72421F"/>
<path d="M209.647 260.843C207.704 260.083 205.746 259.316 203.949 258.249C202.152 257.19 200.494 255.809 199.383 254.042" stroke="#542700" stroke-width="1.0001" stroke-miterlimit="10" stroke-linecap="round" stroke-linejoin="round"/>
<path d="M203.628 263.078C202.437 262.83 201.253 262.581 200.063 262.34C199.559 262.238 199.054 262.128 198.572 261.96C196.388 261.2 194.818 259.257 193.758 257.197" stroke="#542700" stroke-width="1.0001" stroke-miterlimit="10" stroke-linecap="round" stroke-linejoin="round"/>
<path d="M213.234 259.484C211.473 258.424 209.662 257.438 208.018 256.189C206.382 254.947 204.906 253.413 204.066 251.536" stroke="#542700" stroke-width="1.0001" stroke-miterlimit="10" stroke-linecap="round" stroke-linejoin="round"/>
<path d="M118.202 64.8755C119.107 63.8893 120.196 63.0492 121.372 62.3333L122.278 61.8292L123.22 61.3763L124.199 60.9964L125.2 60.6677C125.536 60.5727 125.879 60.4705 126.223 60.3536L127.267 60.0541C127.618 59.9883 127.976 59.9226 128.334 59.9153C128.692 59.9153 129.05 59.9591 129.408 60.0249C130.81 60.3609 132.198 61.0403 133.163 62.4867L133.053 62.8885C131.533 63.6628 130.365 63.955 129.21 64.1596C128.633 64.2618 128.078 64.2545 127.501 64.145L126.624 63.9989C126.332 63.9623 126.033 63.9477 125.733 63.9404L124.842 63.9623L123.943 64.0354L123.038 64.123L122.125 64.2618C120.905 64.4591 119.685 64.7951 118.443 65.2188L118.202 64.8755Z" fill="black"/>
<path d="M172.815 67.4102C171.573 66.9865 170.36 66.6505 169.133 66.4532L168.22 66.3144L167.314 66.2268L166.415 66.1537L165.524 66.1318C165.225 66.1464 164.932 66.161 164.633 66.1903L163.756 66.3364C163.179 66.4459 162.624 66.4532 162.047 66.351C160.885 66.1391 159.716 65.8542 158.204 65.0799L158.095 64.6781C159.059 63.2317 160.44 62.5523 161.85 62.2163C162.2 62.1505 162.565 62.1067 162.923 62.1067C163.281 62.114 163.639 62.1797 163.99 62.2455L165.035 62.545C165.378 62.6619 165.714 62.7641 166.057 62.8591L167.058 63.1878L168.037 63.5677L168.979 64.0206L169.885 64.5247C171.061 65.2479 172.142 66.0807 173.056 67.0669L172.815 67.4102Z" fill="black"/>
<path d="M51.031 154.407C51.031 154.407 43.967 131.527 44.303 129.592C44.639 127.656 47.079 119.43 49.4604 116.698C51.8419 113.966 58.8475 108.144 59.9944 107.574C61.1413 107.004 62.091 105.697 60.966 104.44C59.841 103.184 56.1811 100.276 51.3744 103.666C46.5676 107.055 43.7478 109.13 43.7478 109.13C43.7478 109.13 41.3883 104.301 41.0595 103.089C40.7308 101.876 38.7219 90.6991 38.1741 87.726C37.6262 84.7528 36.0117 77.8933 35.8145 77.1701C35.6172 76.4395 34.1197 74.7667 32.571 75.3219C31.0223 75.8771 29.5759 77.2431 29.8316 78.6384C30.08 80.0337 32.045 94.8704 32.308 95.8419C32.571 96.8135 32.9728 100.181 32.9071 100.415C32.8413 100.649 32.067 101.642 31.4972 100.495C30.9274 99.3484 23.6003 76.7975 23.6003 76.7975C23.6003 76.7975 22.5411 73.7367 21.175 73.3422C19.809 72.9477 16.5363 74.9055 16.5436 76.0597C16.5509 77.2139 20.1596 90.1001 20.9778 92.3209C21.796 94.5416 24.5281 102.658 24.7253 103.381C24.9226 104.111 24.9372 105.214 23.6734 104.352C22.4096 103.49 16.9819 89.3404 16.2149 87.463C15.4405 85.5929 14.542 83.2333 14.0964 82.5685C13.6581 81.9038 11.6272 81.1587 10.305 82.0426C8.98279 82.9265 8.52258 84.0953 8.85131 85.308C9.18004 86.5206 15.9738 104.725 16.5436 105.872C17.1134 107.019 17.5152 108.472 17.5809 108.714C17.6467 108.955 17.296 109.576 16.6093 108.977C15.9227 108.378 8.79285 94.1325 8.19383 93.1464C7.59481 92.1602 5.74662 91.1009 4.17602 92.0506C2.60542 93.0002 2.89762 95.0019 3.40168 95.9077C3.90573 96.8135 11.1159 111.782 11.7587 113.17C12.4016 114.558 14.0525 123.484 16.6093 126.173C19.1661 128.861 24.3016 132.645 27.5378 134.157C28.5605 134.632 35.1424 159.046 35.683 160.982C36.2309 162.918 51.031 154.407 51.031 154.407Z" fill="#72421F"/>
<path d="M43.6675 108.962C43.6675 108.962 40.9062 110.167 40.6432 110.628C40.3802 111.088 33.433 114.287 32.067 118.831C30.7009 123.375 30.3722 125.026 30.3722 125.026C30.3722 125.026 28.787 122.075 30.3503 118.261C31.9136 114.448 38.1303 110.803 39.2991 110.16C40.4679 109.51 43.1416 107.866 43.1416 107.866L43.6675 108.962Z" fill="#683914"/>
<g opacity="0.2">
<path opacity="0.2" d="M135.04 132.492C137.45 133.061 139.671 133.536 141.848 133.828C142.929 133.982 143.996 134.077 145.048 134.106C146.085 134.142 147.13 134.121 148.182 134.018C150.256 133.843 152.28 133.412 154.435 132.762C156.59 132.141 158.862 131.352 161.338 131.031C159.665 132.871 157.883 134.427 155.764 135.735C153.661 137.035 151.126 137.941 148.532 138.146C147.882 138.197 147.239 138.204 146.596 138.204C145.946 138.153 145.289 138.131 144.653 138.007C143.375 137.81 142.133 137.452 140.964 136.955C138.641 135.954 136.53 134.515 135.04 132.492Z" fill="#542700"/>
</g>
</svg>
