<svg width="256" height="688" viewBox="0 0 256 688" fill="none" xmlns="http://www.w3.org/2000/svg">
<ellipse cx="125" cy="654.357" rx="125" ry="33.3567" fill="black" fill-opacity="0.1"/>
<g clip-path="url(#clip0)">
<path d="M91.91 198.41L42.58 250.41L67.58 283.41L97.66 262.39L91.91 198.41Z" fill="white" stroke="white" stroke-width="5.6693" stroke-miterlimit="10" stroke-linecap="round" stroke-linejoin="round"/>
<path d="M68.0873 282.863C69.152 282.055 64.3369 273.918 57.3326 264.688C50.3283 255.458 43.7871 248.63 42.7225 249.438C41.6578 250.246 46.4728 258.383 53.4771 267.614C60.4814 276.844 67.0226 283.671 68.0873 282.863Z" fill="white" stroke="white" stroke-width="5.6693" stroke-miterlimit="10" stroke-linecap="round" stroke-linejoin="round"/>
<path d="M47.58 253.41C47.58 253.41 17.57 274.59 14.91 280.41C12.25 286.23 76.91 346.41 76.91 346.41L78.91 325.41L49.28 288.64L67.58 279.41C67.58 279.41 62.58 272.41 58.58 266.41C53.04 258.09 47.58 253.41 47.58 253.41Z" fill="white" stroke="white" stroke-width="5.6693" stroke-miterlimit="10" stroke-linecap="round" stroke-linejoin="round"/>
<path d="M175.58 197.41L224.91 249.41L199.91 282.41L169.83 261.39L175.58 197.41Z" fill="white" stroke="white" stroke-width="5.6693" stroke-miterlimit="10" stroke-linecap="round" stroke-linejoin="round"/>
<path d="M214.022 266.638C221.026 257.408 225.841 249.27 224.776 248.462C223.712 247.654 217.171 254.482 210.166 263.712C203.162 272.942 198.347 281.08 199.412 281.888C200.476 282.696 207.018 275.868 214.022 266.638Z" fill="white" stroke="white" stroke-width="5.6693" stroke-miterlimit="10" stroke-linecap="round" stroke-linejoin="round"/>
<path d="M219.91 252.41C219.91 252.41 249.92 273.59 252.58 279.41C255.24 285.23 190.58 345.41 190.58 345.41L188.58 324.41L218.21 287.64L199.91 278.41C199.91 278.41 204.91 271.41 208.91 265.41C214.46 257.09 219.91 252.41 219.91 252.41Z" fill="white" stroke="white" stroke-width="5.6693" stroke-miterlimit="10" stroke-linecap="round" stroke-linejoin="round"/>
<path d="M87.88 365.23L75.66 441.35C75.66 441.35 81.44 453.33 97.85 453.65C114.26 453.97 127.17 450.91 127.17 450.91C127.17 450.91 133.4 421.68 136.22 421.15C139.05 420.63 141.3 449.2 144.88 452.44C148.45 455.68 168.07 454.61 174.97 453.67C194.47 451.04 202.03 446.01 202.03 446.01L187.8 362.86L87.88 365.23Z" fill="white" stroke="white" stroke-width="5.6693" stroke-miterlimit="10" stroke-linecap="round" stroke-linejoin="round"/>
<path d="M159.79 508.14C161.85 503.75 182.99 503.75 183.72 508.14C184.44 512.53 176.28 592.43 176.28 592.43H164.92C164.92 592.43 158.2 511.54 159.79 508.14Z" fill="white" stroke="white" stroke-width="5.6693" stroke-miterlimit="10" stroke-linecap="round" stroke-linejoin="round"/>
<path d="M151.68 659.51C143.42 655.74 136.34 638.17 143.42 630.64C150.5 623.11 151.68 611.81 169.38 611.81C188.26 611.81 197.62 626.87 201.24 639.42C204.74 651.53 195.69 660.76 185.07 660.76C174.45 660.77 151.68 659.51 151.68 659.51Z" fill="white" stroke="white" stroke-width="5.6693" stroke-miterlimit="10" stroke-linecap="round" stroke-linejoin="round"/>
<path d="M176.28 608.25V592.43H164.92V608.84C160.49 611.14 157.46 615.76 157.46 621.09C157.46 621.09 159.59 623.41 171.66 623.09C179.59 622.88 185.07 621.09 185.07 621.09C185.07 615.24 181.42 610.26 176.28 608.25Z" fill="white" stroke="white" stroke-width="5.6693" stroke-miterlimit="10" stroke-linecap="round" stroke-linejoin="round"/>
<path opacity="0.5" d="M171.89 510.02C178.131 510.02 183.19 508.896 183.19 507.51C183.19 506.124 178.131 505 171.89 505C165.649 505 160.59 506.124 160.59 507.51C160.59 508.896 165.649 510.02 171.89 510.02Z" fill="white" stroke="white" stroke-width="5.6693" stroke-miterlimit="10" stroke-linecap="round" stroke-linejoin="round"/>
<path d="M172.52 487.43C170.09 487.43 168.13 488.55 168.13 489.94V506.26C168.13 507.65 170.1 508.77 172.52 508.77C174.95 508.77 176.91 507.65 176.91 506.26V489.94C176.91 488.56 174.94 487.43 172.52 487.43Z" fill="white" stroke="white" stroke-width="5.6693" stroke-miterlimit="10" stroke-linecap="round" stroke-linejoin="round"/>
<path opacity="0.4" d="M126.71 449.78C126.41 452.19 110.97 453.38 97.84 452.29C82.78 451.03 76.21 444.66 76.5 442.25C76.8 439.84 85.29 444.76 102.14 446.05C115.27 447.05 127 447.38 126.71 449.78Z" fill="white" stroke="white" stroke-width="5.6693" stroke-miterlimit="10" stroke-linecap="round" stroke-linejoin="round"/>
<path d="M84.04 442.25C82.28 455.92 85.49 483.6 83.19 495.87C80.9 508.14 75.43 548.2 75.88 559.6C76.49 575.15 79.65 611.06 79.65 611.06H101.53C101.53 611.06 113.53 530.74 112.28 510.66C111.03 490.58 117.91 454.89 119.18 449.79C121.69 439.74 84.04 442.25 84.04 442.25Z" fill="white" stroke="white" stroke-width="5.6693" stroke-miterlimit="10" stroke-linecap="round" stroke-linejoin="round"/>
<path d="M108.51 660C117.3 656.23 124.83 638.66 117.3 631.13C109.77 623.6 108.51 612.3 89.69 612.3C69.61 612.3 54.55 627.36 55.8 639.91C57.05 652.47 63.33 660 74.62 660C85.91 660 108.51 660 108.51 660Z" fill="white" stroke="white" stroke-width="5.6693" stroke-miterlimit="10" stroke-linecap="round" stroke-linejoin="round"/>
<path d="M76.25 567.08L107.78 567.6L101.53 616.7C101.53 616.7 98.99 618.99 91.29 618.7C83.59 618.41 79.65 616.7 79.65 616.7L76.25 567.08Z" fill="white" stroke="white" stroke-width="5.6693" stroke-miterlimit="10" stroke-linecap="round" stroke-linejoin="round"/>
<path d="M76.75 574.78L106.82 575.16L105.92 582.24H77.3L76.75 574.78Z" fill="white" stroke="white" stroke-width="5.6693" stroke-miterlimit="10" stroke-linecap="round" stroke-linejoin="round"/>
<path opacity="0.4" d="M144.89 452.43C144.89 452.43 152.68 456.8 173.58 453.92C194.48 451.04 202.05 446.01 202.05 446.01C202.05 446.01 197.13 445.47 191.41 445.75C185.69 446.03 166.87 443.51 155.57 446.02C144.27 448.53 144.89 452.43 144.89 452.43Z" fill="white" stroke="white" stroke-width="5.6693" stroke-miterlimit="10" stroke-linecap="round" stroke-linejoin="round"/>
<path d="M155.57 446.02C155.57 446.02 148.67 503.12 173.77 498.1C198.87 493.08 191.41 445.74 191.41 445.74C191.41 445.74 174.4 444.76 168.13 444.76C161.86 444.76 155.57 446.02 155.57 446.02Z" fill="white" stroke="white" stroke-width="5.6693" stroke-miterlimit="10" stroke-linecap="round" stroke-linejoin="round"/>
<g opacity="0.3">
<path opacity="0.3" d="M87.52 516.76C90.17 518.67 93.52 519.6 96.77 519.32C98.84 519.14 100.85 518.5 102.77 517.7" fill="white"/>
<path opacity="0.3" d="M87.52 516.76C89.29 516.57 90.58 516.54 91.8 516.49C93 516.47 94.07 516.46 95.13 516.52C96.19 516.56 97.23 516.66 98.47 516.79C99.71 516.95 101.09 517.12 102.78 517.69C102 519.29 100.85 520.36 99.49 521.13C98.13 521.88 96.49 522.26 94.87 522.18C93.26 522.1 91.68 521.59 90.35 520.69C89.03 519.79 87.93 518.5 87.52 516.76Z" fill="white"/>
</g>
<path d="M177.58 199.41C173.68 191.06 106.97 184.89 92.58 198.41C78.19 211.93 85.58 368.41 87.58 372.41C89.58 376.41 189.52 376.41 190.05 372.41C190.58 368.41 184.58 214.41 177.58 199.41Z" fill="white" stroke="white" stroke-width="5.6693" stroke-miterlimit="10" stroke-linecap="round" stroke-linejoin="round"/>
<path d="M71.42 94.4697C70.79 94.1297 68.89 93.8197 68.22 93.6197C65.99 92.9697 63.52 94.2297 62.14 96.7097C60.46 99.7397 60.48 103.89 60.65 107.7C60.76 110.36 60.92 113.1 61.84 115.45C62.22 116.43 62.73 117.3 63.23 118.17C64.22 119.88 65.22 121.58 66.36 123.1C69.79 127.66 69.82 127.24 74.22 129.8L71.42 94.4697Z" fill="white" stroke="white" stroke-width="5.6693" stroke-miterlimit="10" stroke-linecap="round" stroke-linejoin="round"/>
<path d="M113.62 177.11C114.24 180.49 114.59 183.92 114.67 187.36C114.73 189.71 114.54 192.34 112.8 193.93C112.53 194.18 112.21 194.41 112.11 194.77C112.05 194.96 112.07 195.17 112.09 195.37C112.37 197.55 113.95 199.4 115.83 200.55C117.71 201.7 119.88 202.25 122.02 202.77C128.74 204.4 136.18 205.77 142.28 202.51C145.51 200.78 147.98 197.93 150.32 195.11C150.68 194.67 151.06 194.2 151.15 193.63C151.22 193.16 151.08 192.68 150.95 192.22C149.77 187.99 149.63 183.48 150.53 179.19C150.63 178.71 150.72 174.14 150.38 173.79C150.06 173.46 149.53 177.49 149.08 177.55C137.7 178.96 126.07 178.38 114.88 175.83L113.62 177.11Z" fill="white" stroke="white" stroke-width="5.6693" stroke-miterlimit="10" stroke-linecap="round" stroke-linejoin="round"/>
<path d="M190.74 137.71C188.43 143.84 202.94 132.5 207.64 127.93C209.21 126.41 210.58 124.7 211.94 123C212.63 122.13 213.32 121.25 213.85 120.28C215.11 117.94 215.33 115.19 215.49 112.53C215.71 108.73 215.75 104.57 213.44 101.54C211.55 99.05 208.17 97.8 205.11 98.45C204.2 98.64 201.6 98.95 200.73 99.3C200.73 99.29 192 134.36 190.74 137.71Z" fill="white" stroke="white" stroke-width="5.6693" stroke-miterlimit="10" stroke-linecap="round" stroke-linejoin="round"/>
<path d="M187.88 147.48C176.74 166.05 155.75 178.73 134.23 181.11C112.71 183.49 86.41 170.22 77.06 150.69C69.96 135.87 72.24 121.78 70.79 105.77C69.42 90.6897 65.4 73.3497 70.63 59.1397C72.48 54.1097 76.63 38.9897 80.27 35.0497C94.98 19.1297 108.8 20.8297 130.47 21.3297C141.53 21.5897 152.27 24.8997 162.8 28.2897C173.16 31.6197 179.03 31.9197 187.88 38.2597C196.73 44.5997 201.75 53.0897 202.34 63.9597C202.64 69.4697 202.08 101.98 200.73 107.33C200.73 107.32 197.51 131.42 187.88 147.48Z" fill="white" stroke="white" stroke-width="5.6693" stroke-miterlimit="10" stroke-linecap="round" stroke-linejoin="round"/>
<path d="M186.54 56.57C184.52 56.62 183.44 59.23 184.03 61.16C184.62 63.09 186.24 64.49 187.62 65.97C189 67.45 190.26 69.36 189.88 71.35C189.61 72.77 188.52 73.97 188.42 75.41C188.19 78.56 192.31 80.03 193.98 82.71C195.45 85.07 194.86 88.1 194.49 90.86C194.12 93.62 194.27 96.92 196.56 98.51C199.2 100.33 202.77 98.67 205.41 96.85C208.21 94.91 211.13 92.37 211.33 88.96C211.48 86.52 210.16 84.16 210.37 81.72C210.62 78.79 212.98 76.49 213.85 73.69C215.06 69.78 213.25 65.68 212.23 61.72C211.38 58.42 211.07 54.98 211.32 51.58C211.49 49.24 211.85 46.63 210.4 44.79C209.51 43.66 208.13 43.09 206.85 42.44C198.82 38.39 193.33 29.72 193.08 20.73C187.82 25.7 177.98 24.17 174.46 17.85C169.38 20.84 162.94 23.86 157.93 20.75C155.53 19.26 154.09 16.66 152.35 14.43C150.61 12.2 148.09 10.13 145.28 10.47C142.57 10.8 140.37 13.32 137.65 13.17C133.85 12.96 131.3 7.68996 127.59 8.53996C125.9 8.92996 124.72 10.53 123.04 10.97C119.29 11.96 114.91 6.90996 112.07 9.53996C111.47 10.09 111.15 10.88 110.58 11.46C108.53 13.55 105.1 11.85 102.21 11.37C97.25 10.54 92.02 14.59 91.58 19.6C88.34 19.99 85.01 20.42 82.16 21.99C79.3 23.56 76.99 26.59 77.26 29.84C77.32 30.56 77.49 31.33 77.15 31.96C76.84 32.53 76.2 32.83 75.7 33.24C73.93 34.69 74 37.35 73.24 39.51C72.25 42.34 69.79 44.36 68.01 46.77C66.23 49.19 65.22 52.8 67.22 55.03C63.99 58.36 60.51 62.46 61.3 67.03C61.44 67.85 61.72 68.66 61.63 69.49C61.42 71.25 59.67 72.33 58.54 73.69C55.84 76.96 57.38 82.73 61.36 84.2C59.09 84.68 58.23 87.79 59.31 89.84C60.39 91.89 62.69 92.99 64.93 93.6C66.55 94.04 68.31 94.29 69.89 93.71C71.47 93.13 72.76 91.49 72.45 89.84C72.32 89.14 71.93 88.52 71.73 87.84C70.31 83.07 78.16 79.24 76.84 74.44C76.3 72.47 74.31 71.18 73.63 69.25C72.67 66.54 74.56 63.7 76.56 61.64C78.55 59.58 80.91 57.44 81.16 54.58C81.37 52.15 79.96 49.64 80.8 47.35C81.84 44.52 85.51 43.89 88.53 43.85C91.55 43.81 95.15 43.58 96.66 40.97C97.43 39.63 97.65 37.7 99.11 37.21C101.04 36.55 102.37 39.04 103.68 40.6C105.52 42.79 108.65 43.52 111.49 43.18C114.33 42.83 116.95 41.57 119.52 40.32C122.36 44.42 127.13 47.13 132.11 47.46C137.61 47.82 143.66 45.57 148.34 48.47C150.16 49.6 151.64 51.46 153.75 51.79C156.74 52.26 160.19 49.53 162.53 51.45C163.19 51.99 163.56 52.8 164.03 53.51C166.35 56.98 171.74 57.87 175.05 55.33C176.84 58.05 179.79 59.97 183 60.5" fill="white"/>
<path d="M186.54 48.0698C184.56 48.2498 182.89 48.4598 181.15 49.5398C179.57 50.5198 178.26 51.7898 177.27 53.3598C175.97 55.4198 175.21 58.1198 175.4 60.5698C175.67 64.0498 177.1 66.7998 179.28 69.4598C180.27 70.6598 181.43 71.7098 182.41 72.9298C181.97 72.3598 181.52 71.7798 181.08 71.2098C181.5 71.7698 181.85 72.3298 182.15 72.9598C181.86 72.2798 181.58 71.6098 181.29 70.9298C181.49 71.4298 181.64 71.9098 181.72 72.4498C181.62 71.6998 181.52 70.9398 181.42 70.1898C181.45 70.4498 181.45 70.7098 181.43 70.9698C181.53 70.2198 181.63 69.4598 181.73 68.7098C181.66 69.2498 181.51 69.7198 181.31 70.2298C181.6 69.5498 181.88 68.8798 182.17 68.1998C181.01 70.7298 180.01 72.8798 179.9 75.7198C179.82 77.8598 180.64 80.4098 181.84 82.1598C182.81 83.5698 183.88 84.7798 185.17 85.8798C186.04 86.6298 186.91 87.3598 187.63 88.2498C187.19 87.6798 186.74 87.0998 186.3 86.5298C186.58 86.9098 186.8 87.2898 187.01 87.7098C186.72 87.0298 186.44 86.3598 186.15 85.6798C186.4 86.2898 186.55 86.8898 186.65 87.5398C186.55 86.7898 186.45 86.0298 186.35 85.2798C186.49 86.6198 186.38 87.9498 186.21 89.2798C186.31 88.5298 186.41 87.7698 186.51 87.0198C185.83 92.0298 185.18 97.1398 188.09 101.68C189.9 104.5 192.81 106.81 196.16 107.45C199.9 108.16 203.16 107.48 206.58 105.95C210.79 104.07 214.68 100.82 217.27 97.0098C218.87 94.6598 219.72 91.7898 219.84 88.9698C219.95 86.3198 219.06 83.7598 218.64 81.1798C218.74 81.9298 218.84 82.6898 218.94 83.4398C218.85 82.7298 218.83 82.0598 218.92 81.3498C218.82 82.0998 218.72 82.8598 218.62 83.6098C218.73 82.9798 218.91 82.3998 219.14 81.8098C218.85 82.4898 218.57 83.1598 218.28 83.8398C219 82.1898 220.03 80.6998 220.79 79.0698C222.11 76.1998 222.97 73.1598 222.72 69.9698C222.34 65.0898 220.4 60.6398 219.72 55.8298C219.82 56.5798 219.92 57.3398 220.02 58.0898C219.73 55.7998 219.68 53.5098 219.85 51.2098C220.04 48.7098 220.1 46.1098 219.25 43.6998C217.99 40.1198 215.57 37.3698 212.19 35.6398C210.51 34.7798 208.9 33.8998 207.39 32.7598C207.96 33.1998 208.54 33.6498 209.11 34.0898C207.35 32.7198 205.8 31.1598 204.43 29.4098C204.87 29.9798 205.32 30.5598 205.76 31.1298C204.41 29.3598 203.3 27.4498 202.41 25.4098C202.7 26.0898 202.98 26.7598 203.27 27.4398C202.41 25.3898 201.81 23.2598 201.49 21.0598C201.59 21.8098 201.69 22.5698 201.79 23.3198C201.68 22.4598 201.61 21.6098 201.58 20.7498C201.46 17.3198 199.54 14.3198 196.35 12.9798C193.13 11.6198 189.62 12.3898 187.06 14.7398C186.83 14.9498 186.61 15.1398 186.37 15.3398C186.94 14.8998 187.52 14.4498 188.09 14.0098C187.37 14.5598 186.6 15.0098 185.77 15.3898C186.45 15.0998 187.12 14.8198 187.8 14.5298C186.77 14.9598 185.72 15.2398 184.62 15.3998C185.37 15.2998 186.13 15.1998 186.88 15.0998C185.67 15.2498 184.46 15.2398 183.25 15.0798C184 15.1798 184.76 15.2798 185.51 15.3798C184.4 15.2098 183.34 14.9198 182.3 14.4998C182.98 14.7898 183.65 15.0698 184.33 15.3598C183.31 14.9198 182.36 14.3798 181.47 13.7098C182.04 14.1498 182.62 14.5998 183.19 15.0398C182.48 14.4698 181.85 13.8398 181.29 13.1398C181.73 13.7098 182.18 14.2898 182.62 14.8598C182.32 14.4498 182.04 14.0398 181.79 13.5998C179.5 9.6198 174.11 8.2298 170.16 10.5498C168.44 11.5598 166.7 12.4898 164.86 13.2698C165.54 12.9798 166.21 12.6998 166.89 12.4098C165.34 13.0398 163.76 13.5398 162.1 13.7898C162.85 13.6898 163.61 13.5898 164.36 13.4898C163.31 13.6198 162.28 13.6298 161.23 13.4998C161.98 13.5998 162.74 13.6998 163.49 13.7998C162.71 13.6698 161.98 13.4598 161.25 13.1598C161.93 13.4498 162.6 13.7298 163.28 14.0198C162.68 13.7398 162.12 13.4098 161.58 13.0198C162.15 13.4598 162.73 13.9098 163.3 14.3498C162.28 13.5498 161.45 12.6098 160.66 11.5898C161.1 12.1598 161.55 12.7398 161.99 13.3098C160.54 11.3898 159.22 9.3498 157.6 7.5598C155.62 5.3798 153.18 3.8498 150.46 2.7898C147.83 1.7698 144.67 1.7198 141.98 2.5498C139.75 3.2398 137.84 4.4998 135.73 5.4098C136.41 5.1198 137.08 4.8398 137.76 4.5498C137.21 4.7598 136.67 4.9198 136.09 4.9998C136.84 4.8998 137.6 4.7998 138.35 4.6998C138.01 4.7198 137.7 4.7198 137.36 4.6898C138.11 4.7898 138.87 4.8898 139.62 4.9898C139.14 4.9098 138.69 4.7798 138.24 4.5998C138.92 4.8898 139.59 5.1698 140.27 5.4598C139.44 5.0798 138.7 4.5698 137.98 4.0298C138.55 4.4698 139.13 4.9198 139.7 5.3598C137.11 3.3598 134.66 1.1098 131.36 0.369799C128.69 -0.230201 126.14 -0.0102006 123.62 1.0498C122.1 1.6898 120.9 2.6798 119.44 3.4198C120.12 3.1298 120.79 2.8498 121.47 2.5598C121.06 2.7298 120.67 2.8498 120.23 2.9198C120.98 2.8198 121.74 2.7198 122.49 2.6198C122.11 2.6498 121.74 2.6398 121.36 2.6098C122.11 2.7098 122.87 2.8098 123.62 2.9098C122.62 2.7598 121.68 2.4198 120.75 2.0298C121.43 2.3198 122.1 2.5998 122.78 2.8898C119.88 1.6698 117.34 0.409799 114.14 0.319799C112.18 0.259799 110.01 0.869799 108.31 1.8498C106.17 3.0898 104.92 4.9698 103.5 6.9098C103.94 6.3398 104.39 5.7598 104.83 5.1898C104.68 5.3898 104.5 5.5698 104.31 5.7298C104.88 5.2898 105.46 4.8398 106.03 4.3998C105.76 4.5998 105.51 4.7498 105.2 4.8998C105.88 4.6098 106.55 4.3298 107.23 4.0398C106.92 4.1498 106.63 4.2298 106.31 4.2798C107.06 4.1798 107.82 4.0798 108.57 3.9798C108.02 3.9998 107.47 3.9798 106.9 3.9198C107.65 4.0198 108.41 4.1198 109.16 4.2198C106.58 3.8298 104.18 2.9598 101.54 2.7998C98.42 2.6098 95.42 3.5298 92.65 4.8898C89.89 6.2398 87.72 8.4998 85.96 10.9598C84.1 13.5698 83.43 16.4998 83.09 19.6198C85.92 16.7898 88.76 13.9498 91.59 11.1198C85.94 11.8098 80.39 12.5698 75.74 16.1598C73.58 17.8298 71.67 19.8298 70.49 22.3198C69.47 24.4798 69.05 26.0098 68.82 28.3798C68.72 29.3698 68.88 30.3198 68.85 31.3098C68.95 30.5598 69.05 29.7998 69.15 29.0498C69.13 29.2898 69.07 29.5098 68.96 29.7198C69.25 29.0398 69.53 28.3698 69.82 27.6898C69.76 27.7798 69.7 27.8698 69.64 27.9598C70.08 27.3898 70.53 26.8098 70.97 26.2398C70.83 26.3998 70.67 26.5498 70.5 26.6798C71.07 26.2398 71.65 25.7898 72.22 25.3498C71.09 26.1598 69.92 26.9198 69.02 27.9898C67.6 29.6798 66.93 30.9498 66.16 33.0698C65.62 34.5598 65.48 36.1598 64.92 37.6498C65.21 36.9698 65.49 36.2998 65.78 35.6198C65.37 36.5798 64.83 37.4398 64.21 38.2798C64.65 37.7098 65.1 37.1298 65.54 36.5598C64.65 37.6998 63.66 38.7498 62.75 39.8698C61.17 41.7998 59.96 43.5098 59 45.7898C58.11 47.8898 57.55 50.0998 57.66 52.4198C57.83 55.8398 59.08 58.4798 61.23 61.0898C61.23 57.0798 61.23 53.0698 61.23 49.0598C58.84 51.5298 56.37 54.2398 54.87 57.3598C53.67 59.8698 53 61.9998 52.76 64.7598C52.57 66.8598 53.11 68.8998 53.43 70.9598C53.33 70.2098 53.23 69.4498 53.13 68.6998C53.17 68.9698 53.17 69.2498 53.14 69.5198C53.24 68.7698 53.34 68.0098 53.44 67.2598C53.41 67.4898 53.36 67.7098 53.28 67.9298C53.57 67.2498 53.85 66.5798 54.14 65.8998C53.96 66.3298 53.73 66.6998 53.45 67.0798C53.89 66.5098 54.34 65.9298 54.78 65.3598C53.3 67.1198 51.49 68.5598 50.44 70.6698C49.22 73.1198 48.49 75.8898 48.76 78.6498C49.03 81.4298 49.69 84.1098 51.31 86.4398C52.05 87.4998 52.85 88.5598 53.84 89.3998C55.66 90.9398 56.88 91.5398 59.11 92.4398C59.11 86.9698 59.11 81.5098 59.11 76.0398C53.75 77.4598 49.93 82.9598 50.39 88.4998C50.88 94.3798 54.6 98.5898 59.91 100.83C64.64 102.83 70.63 103.59 75.16 100.59C77.84 98.8098 80.13 96.0998 80.7 92.8498C81.04 90.9198 81.14 88.9098 80.48 87.0098C80.23 86.2798 79.89 85.6298 79.78 84.8598C79.88 85.6098 79.98 86.3698 80.08 87.1198C80.06 86.7798 80.06 86.4598 80.1 86.1298C80 86.8798 79.9 87.6398 79.8 88.3898C79.88 87.8898 80.02 87.4198 80.21 86.9398C79.92 87.6198 79.64 88.2898 79.35 88.9698C80.47 86.4598 82.59 84.5698 83.79 82.0898C85.26 79.0498 85.81 76.0498 85.14 72.7198C84.54 69.6998 82.56 67.4798 80.72 65.1298C81.16 65.6998 81.61 66.2798 82.05 66.8498C81.68 66.3598 81.36 65.8698 81.1 65.3198C81.39 65.9998 81.67 66.6698 81.96 67.3498C81.81 66.9798 81.71 66.6298 81.63 66.2398C81.73 66.9898 81.83 67.7498 81.93 68.4998C81.87 67.9698 81.87 67.4798 81.94 66.9398C81.84 67.6898 81.74 68.4498 81.64 69.1998C81.75 68.6698 81.9 68.1698 82.1 67.6698C81.81 68.3498 81.53 69.0198 81.24 69.6998C81.59 68.9298 82.03 68.2298 82.52 67.5398C82.08 68.1098 81.63 68.6898 81.19 69.2598C83.26 66.5798 85.99 64.4898 87.66 61.4798C88.91 59.2098 89.61 56.7898 89.67 54.1898C89.72 52.0598 89.11 49.9498 88.8 47.8598C88.9 48.6098 89 49.3698 89.1 50.1198C89.02 49.4498 89 48.8098 89.08 48.1398C88.98 48.8898 88.88 49.6498 88.78 50.3998C88.86 50.0198 88.96 49.6898 89.1 49.3298C88.81 50.0098 88.53 50.6798 88.24 51.3598C88.38 51.0798 88.53 50.8298 88.72 50.5698C88.28 51.1398 87.83 51.7198 87.39 52.2898C87.65 51.9698 87.93 51.6998 88.25 51.4498C87.68 51.8898 87.1 52.3398 86.53 52.7798C86.96 52.4798 87.41 52.2298 87.89 52.0198C87.21 52.3098 86.54 52.5898 85.86 52.8798C86.7 52.5598 87.55 52.3598 88.43 52.2298C87.68 52.3298 86.92 52.4298 86.17 52.5298C89.35 52.1198 92.6 52.4498 95.72 51.4898C98.04 50.7798 100.24 49.6198 101.96 47.8898C103.82 46.0198 104.64 43.8798 105.61 41.4798C105.32 42.1598 105.04 42.8298 104.75 43.5098C104.96 43.0298 105.18 42.5898 105.49 42.1698C105.05 42.7398 104.6 43.3198 104.16 43.8898C104.28 43.7398 104.42 43.6098 104.58 43.4998C104.01 43.9398 103.43 44.3898 102.86 44.8298C103.02 44.7098 103.19 44.6198 103.38 44.5598C102.7 44.8498 102.03 45.1298 101.35 45.4198C101.45 45.3898 101.55 45.3698 101.65 45.3398C100.9 45.4398 100.14 45.5398 99.39 45.6398C99.58 45.6098 99.77 45.5998 99.96 45.6298C99.21 45.5298 98.45 45.4298 97.7 45.3298C97.89 45.3598 98.07 45.4098 98.24 45.4798C97.56 45.1898 96.89 44.9098 96.21 44.6198C96.49 44.7598 96.71 44.9098 96.96 45.0998C96.39 44.6598 95.81 44.2098 95.24 43.7698C95.75 44.2198 96.18 44.7398 96.6 45.2698C96.16 44.6998 95.71 44.1198 95.27 43.5498C97.03 45.8598 98.51 47.8298 101.05 49.3698C103.6 50.9098 106.47 51.5498 109.41 51.7398C114.51 52.0798 119.34 49.8198 123.8 47.6598C119.92 46.6398 116.04 45.6298 112.16 44.6098C115.91 49.8798 121.28 54.0798 127.75 55.3798C130.79 55.9898 133.74 56.0898 136.81 55.8198C139.3 55.5998 141.8 55.3098 144.3 55.5998C143.55 55.4998 142.79 55.3998 142.04 55.2998C142.95 55.4298 143.8 55.6398 144.66 55.9598C143.98 55.6698 143.31 55.3898 142.63 55.0998C143.48 55.4598 144.23 55.9098 144.97 56.4598C144.4 56.0198 143.82 55.5698 143.25 55.1298C144.58 56.1598 145.84 57.2798 147.25 58.1998C149.27 59.5198 151.53 60.1098 153.91 60.3098C156.63 60.5298 159.18 59.4798 161.81 59.0298C161.06 59.1298 160.3 59.2298 159.55 59.3298C160.08 59.2598 160.59 59.2398 161.12 59.3098C160.37 59.2098 159.61 59.1098 158.86 59.0098C159.06 59.0398 159.26 59.0998 159.45 59.1698C158.77 58.8798 158.1 58.5998 157.42 58.3098C157.73 58.4498 157.97 58.5898 158.24 58.7898C157.67 58.3498 157.09 57.8998 156.52 57.4598C156.71 57.6198 156.87 57.7898 157.02 57.9798C156.58 57.4098 156.13 56.8298 155.69 56.2598C156.89 57.8898 157.86 59.6898 159.41 61.0298C161.37 62.7398 163.59 64.0298 166.13 64.6998C170.43 65.8298 175.68 65.3398 179.35 62.6598C175.47 61.6398 171.59 60.6298 167.72 59.6098C170.77 64.0898 175.3 67.6898 180.75 68.6898C183.04 69.1098 185.23 69.0498 187.3 67.8298C189.06 66.7998 190.75 64.7798 191.21 62.7498C192.16 58.5898 189.95 53.1398 185.27 52.2898C184.4 52.1298 183.57 51.8898 182.75 51.5698C183.43 51.8598 184.1 52.1398 184.78 52.4298C183.74 51.9798 182.78 51.4198 181.88 50.7298C182.45 51.1698 183.03 51.6198 183.6 52.0598C182.82 51.4198 182.13 50.7198 181.5 49.9198C181.94 50.4898 182.39 51.0698 182.83 51.6398C182.68 51.4398 182.53 51.2398 182.4 51.0298C181.2 49.2698 179.49 47.6198 177.32 47.1198C175.22 46.6398 172.58 46.6498 170.77 47.9798C170.34 48.2998 169.89 48.5598 169.41 48.7898C170.09 48.4998 170.76 48.2198 171.44 47.9298C170.75 48.2198 170.05 48.4098 169.31 48.5198C170.06 48.4198 170.82 48.3198 171.57 48.2198C170.82 48.2998 170.09 48.2898 169.34 48.1898C170.09 48.2898 170.85 48.3898 171.6 48.4898C170.85 48.3698 170.15 48.1698 169.46 47.8798C170.14 48.1698 170.81 48.4498 171.49 48.7398C170.91 48.4698 170.37 48.1598 169.85 47.7798C170.42 48.2198 171 48.6698 171.57 49.1098C171.07 48.7098 170.63 48.2698 170.24 47.7598C170.68 48.3298 171.13 48.9098 171.57 49.4798C170.63 48.1498 169.85 46.7398 168.68 45.5598C166.62 43.4798 163.85 42.4798 160.98 42.2898C158.29 42.1098 155.8 43.1498 153.19 43.5798C153.94 43.4798 154.7 43.3798 155.45 43.2798C154.87 43.3498 154.33 43.3698 153.75 43.2998C154.5 43.3998 155.26 43.4998 156.01 43.5998C155.63 43.5198 155.3 43.4298 154.95 43.2898C155.63 43.5798 156.3 43.8598 156.98 44.1498C156.29 43.8398 155.68 43.4298 155.08 42.9798C155.65 43.4198 156.23 43.8698 156.8 44.3098C155.62 43.3898 154.48 42.4198 153.26 41.5598C152.02 40.6898 150.61 40.0898 149.19 39.5698C146.98 38.7498 144.49 38.4798 142.15 38.4698C138.41 38.4598 134.71 39.3198 130.97 38.8398C131.72 38.9398 132.48 39.0398 133.23 39.1398C131.83 38.9298 130.49 38.5598 129.17 38.0298C129.85 38.3198 130.52 38.5998 131.2 38.8898C129.78 38.2798 128.46 37.5198 127.23 36.5798C127.8 37.0198 128.38 37.4698 128.95 37.9098C127.84 37.0298 126.86 36.0398 125.98 34.9298C126.42 35.4998 126.87 36.0798 127.31 36.6498C127.15 36.4498 127 36.2398 126.86 36.0298C125.61 34.2698 123.99 32.6298 121.78 32.1198C119.45 31.5898 117.38 31.9298 115.23 32.9798C114.14 33.5098 113.06 34.0298 111.94 34.4998C112.62 34.2098 113.29 33.9298 113.97 33.6398C112.43 34.2698 110.87 34.7598 109.23 34.9898C109.98 34.8898 110.74 34.7898 111.49 34.6898C110.61 34.7798 109.75 34.7898 108.86 34.6998C109.61 34.7998 110.37 34.8998 111.12 34.9998C110.24 34.8798 109.42 34.6698 108.6 34.3398C109.28 34.6298 109.95 34.9098 110.63 35.1998C110.06 34.9398 109.55 34.6498 109.04 34.2898C109.61 34.7298 110.19 35.1798 110.76 35.6198C110.19 35.1698 109.72 34.6598 109.28 34.0898C109.72 34.6598 110.17 35.2398 110.61 35.8098C109.59 34.4698 108.65 32.9998 107.41 31.8598C105.29 29.9198 102.64 28.6098 99.71 28.6198C96.84 28.6298 94.17 29.8898 92.17 31.8898C90.48 33.5798 89.76 35.7298 88.88 37.8798C89.17 37.1998 89.45 36.5298 89.74 35.8498C89.52 36.3498 89.28 36.8098 88.96 37.2498C89.4 36.6798 89.85 36.0998 90.29 35.5298C90.08 35.7798 89.87 35.9898 89.62 36.2098C90.19 35.7698 90.77 35.3198 91.34 34.8798C90.91 35.2098 90.47 35.4698 89.97 35.6898C90.65 35.3998 91.32 35.1198 92 34.8298C91.15 35.1698 90.29 35.3598 89.39 35.4898C90.14 35.3898 90.9 35.2898 91.65 35.1898C89.95 35.3898 88.24 35.3098 86.54 35.4998C83.69 35.8098 81.01 36.2898 78.49 37.7798C75.55 39.5098 73.46 42.2498 72.49 45.5098C71.52 48.7898 72.44 51.9998 72.91 55.2498C72.81 54.4998 72.71 53.7398 72.61 52.9898C72.69 53.6698 72.71 54.3098 72.63 54.9898C72.73 54.2398 72.83 53.4798 72.93 52.7298C72.84 53.2198 72.71 53.6698 72.54 54.1298C72.83 53.4498 73.11 52.7798 73.4 52.0998C73.05 52.8998 72.6 53.6098 72.08 54.3098C72.52 53.7398 72.97 53.1598 73.41 52.5898C72.45 53.7898 71.33 54.8398 70.29 55.9698C68.29 58.1298 66.77 60.4298 65.73 63.1798C64.74 65.7998 64.64 68.8698 65.46 71.5598C66.28 74.2498 67.94 76.1498 69.64 78.3198C69.2 77.7498 68.75 77.1698 68.31 76.5998C68.68 77.0798 69 77.5698 69.28 78.1098C68.99 77.4298 68.71 76.7598 68.42 76.0798C68.58 76.4698 68.7 76.8498 68.77 77.2598C68.67 76.5098 68.57 75.7498 68.47 74.9998C68.52 75.4198 68.52 75.8298 68.46 76.2498C68.56 75.4998 68.66 74.7398 68.76 73.9898C68.67 74.4998 68.52 74.9698 68.33 75.4398C68.62 74.7598 68.9 74.0898 69.19 73.4098C68.19 75.5898 66.44 77.2898 65.24 79.3398C64 81.4598 63.27 83.6898 63.12 86.1398C63.05 87.3198 63.2 88.4698 63.44 89.6398C63.62 90.5098 64.06 91.2898 64.28 92.1498C64.18 91.3998 64.08 90.6398 63.98 89.8898C64.02 90.1198 64.04 90.3598 64.02 90.5898C64.12 89.8398 64.22 89.0798 64.32 88.3298C64.27 88.6998 64.19 88.9898 64.06 89.3398C64.35 88.6598 64.63 87.9898 64.92 87.3098C64.75 87.6398 64.58 87.9198 64.35 88.2198C64.79 87.6498 65.24 87.0698 65.68 86.4998C65.52 86.6898 65.35 86.8598 65.16 87.0098C65.73 86.5698 66.31 86.1198 66.88 85.6798C66.58 85.9098 66.3 86.0898 65.96 86.2698C66.64 85.9798 67.31 85.6998 67.99 85.4098C67.48 85.6198 66.99 85.7498 66.44 85.8398C67.19 85.7398 67.95 85.6398 68.7 85.5398C67.99 85.5998 67.31 85.5798 66.61 85.4898C67.36 85.5898 68.12 85.6898 68.87 85.7898C67.7 85.5998 66.56 85.2798 65.46 84.8498C66.14 85.1398 66.81 85.4198 67.49 85.7098C66.69 85.3698 65.95 84.9698 65.25 84.4498C65.82 84.8898 66.4 85.3398 66.97 85.7798C66.59 85.4698 66.26 85.1498 65.94 84.7798C66.38 85.3498 66.83 85.9298 67.27 86.4998C66.99 86.1298 66.75 85.7598 66.55 85.3398C66.84 86.0198 67.12 86.6898 67.41 87.3698C67.27 86.9998 67.17 86.6398 67.11 86.2398C67.21 86.9898 67.31 87.7498 67.41 88.4998C67.37 88.0998 67.37 87.7198 67.41 87.3298C67.31 88.0798 67.21 88.8398 67.11 89.5898C67.17 89.1998 67.27 88.8398 67.4 88.4698C67.11 89.1498 66.83 89.8198 66.54 90.4998C66.7 90.1498 66.88 89.8398 67.11 89.5398C66.67 90.1098 66.22 90.6898 65.78 91.2598C65.97 91.0498 66.15 90.8798 66.38 90.6998C65.81 91.1398 65.23 91.5898 64.66 92.0298C64.81 91.9198 64.97 91.8298 65.14 91.7598C64.46 92.0498 63.79 92.3298 63.11 92.6198C63.28 92.5398 63.46 92.4898 63.65 92.4498C67.12 91.5298 70.06 87.9298 69.89 84.2498C69.82 82.7398 69.43 81.2898 68.73 79.9598C67.65 77.9098 65.69 76.8698 63.65 76.0498C63.56 76.0098 63.47 75.9798 63.38 75.9398C64.06 76.2298 64.73 76.5098 65.41 76.7998C64.96 76.5898 64.56 76.3498 64.17 76.0598C64.74 76.4998 65.32 76.9498 65.89 77.3898C65.44 77.0198 65.05 76.6098 64.69 76.1498C65.13 76.7198 65.58 77.2998 66.02 77.8698C65.68 77.3898 65.4 76.8898 65.16 76.3498C65.45 77.0298 65.73 77.6998 66.02 78.3798C65.76 77.7298 65.59 77.0898 65.49 76.3998C65.59 77.1498 65.69 77.9098 65.79 78.6598C65.73 78.0698 65.72 77.4998 65.77 76.9098C65.67 77.6598 65.57 78.4198 65.47 79.1698C65.55 78.5898 65.68 78.0398 65.89 77.4898C65.6 78.1698 65.32 78.8398 65.03 79.5198C65.23 79.0698 65.45 78.6598 65.74 78.2598C65.3 78.8298 64.85 79.4098 64.41 79.9798C65.78 78.2398 67.56 76.9698 68.64 74.9598C69.63 73.1198 70.2 71.2298 70.19 69.1298C70.19 67.5298 69.71 65.9998 69.48 64.4298C69.58 65.1798 69.68 65.9398 69.78 66.6898C69.72 66.0398 69.72 65.4198 69.78 64.7698C69.68 65.5198 69.58 66.2798 69.48 67.0298C69.61 66.1298 69.85 65.2998 70.19 64.4598C69.9 65.1398 69.62 65.8098 69.33 66.4898C69.93 65.1298 70.72 63.9098 71.62 62.7298C71.18 63.2998 70.73 63.8798 70.29 64.4498C71.22 63.2698 72.23 62.1698 73.27 61.0898C74.73 59.5698 75.86 57.2298 75.76 55.0798C75.65 52.6998 74.77 50.8998 73.27 49.0698C73.19 48.9798 73.12 48.8898 73.04 48.7998C73.48 49.3698 73.93 49.9498 74.37 50.5198C74.17 50.2298 74.01 49.9498 73.86 49.6298C74.15 50.3098 74.43 50.9798 74.72 51.6598C74.56 51.2198 74.45 50.7998 74.39 50.3398C74.49 51.0898 74.59 51.8498 74.69 52.5998C74.66 52.1298 74.66 51.6698 74.71 51.1998C74.61 51.9498 74.51 52.7098 74.41 53.4598C74.52 52.7198 74.72 52.0298 74.98 51.3398C74.69 52.0198 74.41 52.6898 74.12 53.3698C74.52 52.4398 75.01 51.6098 75.62 50.7998C75.18 51.3698 74.73 51.9498 74.29 52.5198C76.18 50.1098 78.48 47.9498 79.97 45.2598C80.79 43.7698 81.45 42.1298 81.84 40.4798C82.11 39.3498 82.3 38.2098 82.75 37.1398C82.46 37.8198 82.18 38.4898 81.89 39.1698C82.04 38.8698 82.19 38.5898 82.38 38.3098C81.94 38.8798 81.49 39.4598 81.05 40.0298C81.26 39.7598 81.47 39.5298 81.73 39.2998C81.16 39.7398 80.58 40.1898 80.01 40.6298C80.93 39.9298 81.96 39.3298 82.78 38.5098C84.03 37.2698 85.03 35.6398 85.5 33.9298C86.03 32.0198 85.61 30.2798 85.84 28.3998C85.74 29.1498 85.64 29.9098 85.54 30.6598C85.65 30.0498 85.82 29.4698 86.05 28.8998C85.76 29.5798 85.48 30.2498 85.19 30.9298C85.51 30.2398 85.89 29.6198 86.35 29.0098C85.91 29.5798 85.46 30.1598 85.02 30.7298C85.59 30.0298 86.22 29.4298 86.93 28.8698C86.36 29.3098 85.78 29.7598 85.21 30.1998C85.97 29.6498 86.77 29.1998 87.62 28.8198C86.94 29.1098 86.27 29.3898 85.59 29.6798C87.7 28.7998 89.92 28.3698 92.18 28.0598C91.43 28.1598 90.67 28.2598 89.92 28.3598C90.48 28.2898 91.05 28.2198 91.61 28.1498C93.84 27.8798 96.01 27.4098 97.62 25.6598C99.24 23.8998 99.85 22.0098 100.11 19.6498C100.12 19.5398 100.13 19.4198 100.15 19.3098C100.05 20.0598 99.95 20.8198 99.85 21.5698C99.97 20.7698 100.18 20.0398 100.5 19.2998C100.21 19.9798 99.93 20.6498 99.64 21.3298C99.98 20.5998 100.38 19.9498 100.87 19.3098C100.43 19.8798 99.98 20.4598 99.54 21.0298C100.05 20.4098 100.61 19.8598 101.24 19.3598C100.67 19.7998 100.09 20.2498 99.52 20.6898C100.26 20.1398 101.03 19.6898 101.88 19.3298C101.2 19.6198 100.53 19.8998 99.85 20.1898C100.6 19.8998 101.34 19.6998 102.14 19.5798C101.39 19.6798 100.63 19.7798 99.88 19.8798C100.56 19.8098 101.23 19.7998 101.91 19.8698C101.16 19.7698 100.4 19.6698 99.65 19.5698C102.45 19.9698 105.08 21.0498 107.96 21.0298C110.13 21.0198 112.38 20.4698 114.26 19.3698C116.47 18.0698 117.67 16.1398 119.18 14.1798C118.74 14.7498 118.29 15.3298 117.85 15.8998C118 15.7198 118.16 15.5698 118.34 15.4298C117.77 15.8698 117.19 16.3198 116.62 16.7598C116.84 16.6098 117.04 16.4898 117.28 16.3698C116.6 16.6598 115.93 16.9398 115.25 17.2298C115.49 17.1498 115.71 17.0898 115.96 17.0498C115.21 17.1498 114.45 17.2498 113.7 17.3498C114.04 17.3198 114.36 17.3298 114.7 17.3698C113.95 17.2698 113.19 17.1698 112.44 17.0698C113.39 17.2298 114.27 17.5798 115.15 17.9498C114.47 17.6598 113.8 17.3798 113.12 17.0898C116.05 18.3398 118.73 19.6098 121.98 19.6498C124.19 19.6798 126.3 19.0298 128.24 18.0198C129.29 17.4698 130.17 16.6698 131.24 16.1598C130.56 16.4498 129.89 16.7298 129.21 17.0198C129.54 16.8898 129.84 16.7998 130.19 16.7298C129.44 16.8298 128.68 16.9298 127.93 17.0298C128.3 16.9898 128.65 16.9898 129.02 17.0398C128.27 16.9398 127.51 16.8398 126.76 16.7398C127.12 16.8098 127.46 16.9098 127.8 17.0398C127.12 16.7498 126.45 16.4698 125.77 16.1798C126.58 16.5398 127.29 17.0298 127.99 17.5598C127.42 17.1198 126.84 16.6698 126.27 16.2298C128.98 18.3298 131.65 20.7698 135.16 21.3798C138.52 21.9598 141.3 21.4498 144.37 20.0798C145.58 19.5398 146.71 18.8498 147.93 18.3198C147.25 18.6098 146.58 18.8898 145.9 19.1798C146.46 18.9598 147.01 18.7998 147.6 18.6998C146.85 18.7998 146.09 18.8998 145.34 18.9998C145.73 18.9698 146.08 18.9598 146.47 18.9898C145.72 18.8898 144.96 18.7898 144.21 18.6898C144.84 18.7798 145.42 18.9398 146 19.1798C145.32 18.8898 144.65 18.6098 143.97 18.3198C144.56 18.5998 145.09 18.9198 145.62 19.2998C145.05 18.8598 144.47 18.4098 143.9 17.9698C144.84 18.6998 145.65 19.5398 146.39 20.4698C145.95 19.8998 145.5 19.3198 145.06 18.7498C146.79 20.9998 148.29 23.4998 150.33 25.4898C153.46 28.5398 157.2 30.0498 161.48 30.5098C167.56 31.1598 173.7 28.2098 178.8 25.2198C174.92 24.1998 171.04 23.1898 167.17 22.1698C170.03 27.1498 175.36 30.8898 181.05 31.7798C184.34 32.2898 187.41 32.3698 190.68 31.5198C193.88 30.6898 196.72 28.9998 199.14 26.7798C194.3 24.7798 189.46 22.7698 184.62 20.7698C184.85 27.1998 186.81 33.7298 190.57 38.9898C192.44 41.5998 194.47 44.0298 196.99 46.0198C198.48 47.1998 199.97 48.3598 201.62 49.2898C202.85 49.9898 204.18 50.5098 205.33 51.3498C204.76 50.9098 204.18 50.4598 203.61 50.0198C203.92 50.2798 204.17 50.5298 204.43 50.8298C203.99 50.2598 203.54 49.6798 203.1 49.1098C203.33 49.4298 203.51 49.7298 203.68 50.0898C203.39 49.4098 203.11 48.7398 202.82 48.0598C203.01 48.5398 203.13 49.0098 203.22 49.5198C203.12 48.7698 203.02 48.0098 202.92 47.2598C203.14 49.0298 202.87 50.7798 202.79 52.5398C202.69 54.7898 202.89 56.9998 203.19 59.2298C203.49 61.4598 203.92 63.6098 204.55 65.7698C205.11 67.6898 205.7 69.5898 205.97 71.5698C205.87 70.8198 205.77 70.0598 205.67 69.3098C205.79 70.3498 205.8 71.3598 205.67 72.4098C205.77 71.6598 205.87 70.8998 205.97 70.1498C205.85 70.8498 205.67 71.5198 205.41 72.1798C205.7 71.4998 205.98 70.8298 206.27 70.1498C205.08 72.9598 203.18 75.3698 202.39 78.3798C201.72 80.9398 201.85 83.1698 202.26 85.7298C202.49 87.1598 202.92 88.5398 203.11 89.9698C203.01 89.2198 202.91 88.4598 202.81 87.7098C202.86 88.2698 202.87 88.8098 202.82 89.3698C202.92 88.6198 203.02 87.8598 203.12 87.1098C203.03 87.7298 202.87 88.2998 202.65 88.8798C202.94 88.1998 203.22 87.5298 203.51 86.8498C203.2 87.5298 202.83 88.1498 202.39 88.7598C202.83 88.1898 203.28 87.6098 203.72 87.0398C202.83 88.1598 201.8 89.0998 200.67 89.9698C201.24 89.5298 201.82 89.0798 202.39 88.6398C201.02 89.6698 199.6 90.6098 198.02 91.2898C198.7 90.9998 199.37 90.7198 200.05 90.4298C199.32 90.7198 198.59 90.9398 197.82 91.0698C198.57 90.9698 199.33 90.8698 200.08 90.7698C199.59 90.8298 199.12 90.8398 198.62 90.7998C199.37 90.8998 200.13 90.9998 200.88 91.0998C200.39 91.0298 199.95 90.9098 199.5 90.7198C200.18 91.0098 200.85 91.2898 201.53 91.5798C201.2 91.4098 200.91 91.2298 200.62 91.0098C201.19 91.4498 201.77 91.8998 202.34 92.3398C202.09 92.1198 201.88 91.9098 201.66 91.6598C202.1 92.2298 202.55 92.8098 202.99 93.3798C202.73 93.0298 202.52 92.6798 202.34 92.2898C202.63 92.9698 202.91 93.6398 203.2 94.3198C202.95 93.6998 202.78 93.0798 202.68 92.4098C202.78 93.1598 202.88 93.9198 202.98 94.6698C202.82 93.4098 202.87 92.1598 203.03 90.8998C202.93 91.6498 202.83 92.4098 202.73 93.1598C203.41 88.1498 204.14 83.2498 201.46 78.6198C200.56 77.0598 199.31 75.6698 197.95 74.4798C197.03 73.6798 196.08 72.9298 195.32 71.9798C195.76 72.5498 196.21 73.1298 196.65 73.6998C196.43 73.3998 196.25 73.0998 196.08 72.7598C196.37 73.4398 196.65 74.1098 196.94 74.7898C196.8 74.4398 196.71 74.1198 196.66 73.7498C196.76 74.4998 196.86 75.2598 196.96 76.0098C196.94 75.6698 196.96 75.3898 197.01 75.0498C196.91 75.7998 196.81 76.5598 196.71 77.3098C196.81 76.9198 196.92 76.5698 197.08 76.1998C196.79 76.8798 196.51 77.5498 196.22 78.2298C196.96 76.6098 197.88 75.0098 198.18 73.2398C198.72 70.0598 198.29 67.2698 196.88 64.3898C195.55 61.6698 193.22 59.7598 191.35 57.4598C191.79 58.0298 192.24 58.6098 192.68 59.1798C192.3 58.6798 191.97 58.1698 191.69 57.5998C191.98 58.2798 192.26 58.9498 192.55 59.6298C192.37 59.1998 192.23 58.7898 192.15 58.3298C192.25 59.0798 192.35 59.8398 192.45 60.5898C192.41 60.1698 192.42 59.7698 192.48 59.3498C192.38 60.0998 192.28 60.8598 192.18 61.6098C192.24 61.2998 192.32 61.0198 192.43 60.7198C192.14 61.3998 191.86 62.0698 191.57 62.7498C191.7 62.4698 191.83 62.2198 192 61.9598C191.56 62.5298 191.11 63.1098 190.67 63.6798C190.86 63.4398 191.04 63.2598 191.27 63.0598C190.7 63.4998 190.12 63.9498 189.55 64.3898C189.7 64.2798 189.86 64.1798 190.03 64.1098C189.35 64.3998 188.68 64.6798 188 64.9698C188.18 64.8898 188.36 64.8398 188.55 64.8098C187.8 64.9098 187.04 65.0098 186.29 65.1098C186.39 65.0998 186.49 65.0898 186.59 65.0798C188.89 64.8698 190.92 64.2698 192.6 62.5898C194.07 61.1198 195.19 58.6998 195.09 56.5798C194.86 52.3098 191.29 47.6398 186.54 48.0698Z" fill="white"/>
<path d="M154.15 113.75C157.696 113.75 160.57 109.434 160.57 104.11C160.57 98.7857 157.696 94.4697 154.15 94.4697C150.604 94.4697 147.73 98.7857 147.73 104.11C147.73 109.434 150.604 113.75 154.15 113.75Z" fill="white" stroke="white" stroke-width="5.6693" stroke-miterlimit="10" stroke-linecap="round" stroke-linejoin="round"/>
<path d="M104.36 112.15C107.906 112.15 110.78 107.834 110.78 102.51C110.78 97.1856 107.906 92.8696 104.36 92.8696C100.814 92.8696 97.94 97.1856 97.94 102.51C97.94 107.834 100.814 112.15 104.36 112.15Z" fill="white" stroke="white" stroke-width="5.6693" stroke-miterlimit="10" stroke-linecap="round" stroke-linejoin="round"/>
<path d="M127.13 111.92C127.16 115.08 127.03 118.63 124.75 120.83C124.2 121.36 123.53 121.8 123.08 122.42C122.56 123.15 122.38 124.06 122.21 124.94C122.1 125.55 121.98 126.18 122.15 126.77C122.42 127.74 123.34 128.36 124.26 128.77C126.17 129.61 128.35 129.84 130.39 129.42" fill="white"/>
<path d="M127.13 111.92C128.32 112.98 129.15 114.08 129.88 115.38C129.71 116.59 129.54 117.89 129.04 119.22C128.57 120.54 127.74 121.92 126.6 122.98C126.05 123.48 125.65 123.79 125.49 123.96C125.41 124.05 125.39 124.07 125.38 124.09C125.36 124.12 125.33 124.19 125.29 124.29C125.21 124.51 125.12 124.88 125.03 125.38C124.92 125.91 124.91 126.19 124.92 126.1C124.92 125.96 124.76 125.73 124.81 125.81C124.85 125.85 125.05 126 125.34 126.13C126 126.43 126.77 126.65 127.54 126.73C128.22 127.67 129.14 128.5 130.41 129.4C129.59 130.73 128.35 131.66 126.91 132.36C125.55 132.21 124.24 131.85 122.96 131.27C122.28 130.95 121.56 130.55 120.83 129.84C120.47 129.49 120.12 129.05 119.83 128.51C119.55 127.98 119.35 127.33 119.28 126.76C119.16 125.61 119.37 124.83 119.45 124.31C119.56 123.77 119.68 123.09 119.97 122.3C120.12 121.91 120.31 121.49 120.57 121.07C120.83 120.64 121.17 120.25 121.46 119.96C122.05 119.37 122.51 119.04 122.74 118.82C123.15 118.42 123.48 117.94 123.73 117.25C123.97 116.58 124.16 115.75 124.19 114.84C125.11 114.03 125.96 112.99 127.13 111.92Z" fill="white"/>
<path d="M156.4 143.84C150.66 146.08 147.46 146.41 141.83 147.13C139.29 147.46 134.68 148.09 132.12 148.19C125.08 148.47 119.05 148.21 110.93 147.13C108.85 146.85 104.92 145.96 102.99 145.02C101.06 144.09 100.72 141.13 100.34 138.68C101.7 137.85 103.69 138.83 105.2 139.05C106.42 139.23 107.97 138.35 109.16 138.68C110.96 139.17 112.62 139.7 114.46 139.74C128.9 140.02 143.28 141 157.44 137.61C157.71 138.68 156.96 141.1 156.83 142.91" fill="white"/>
<path d="M154.14 135.64C150.36 137.1 146.54 138 142.54 138.55C143.29 138.45 144.05 138.35 144.8 138.25C139.55 138.95 134.31 139.69 129.01 139.78C122.96 139.88 116.93 139.42 110.93 138.63C111.68 138.73 112.44 138.83 113.19 138.93C110.67 138.58 108.11 137.99 105.75 137.04C106.43 137.33 107.1 137.61 107.78 137.9C107.43 137.75 107.11 137.59 106.79 137.37C107.36 137.81 107.94 138.26 108.51 138.7C108.28 138.5 108.1 138.31 107.91 138.08C108.35 138.65 108.8 139.23 109.24 139.8C109 139.46 108.82 139.11 108.65 138.73C108.94 139.41 109.22 140.08 109.51 140.76C108.97 139.36 108.77 137.88 108.54 136.41C107.24 139.61 105.93 142.81 104.63 146.01C104.73 145.96 104.83 145.91 104.93 145.86C104.25 146.15 103.58 146.43 102.9 146.72C103.11 146.64 103.33 146.59 103.55 146.56C102.8 146.66 102.04 146.76 101.29 146.86C101.66 146.84 101.98 146.86 102.35 146.9C101.6 146.8 100.84 146.7 100.09 146.6C101.83 146.9 103.41 147.47 105.21 147.55C106.97 147.62 108.67 147.1 110.39 146.83C109.64 146.93 108.88 147.03 108.13 147.13C108.37 147.1 108.6 147.09 108.84 147.11C108.09 147.01 107.33 146.91 106.58 146.81C109.11 147.27 111.4 148.03 114.02 148.21C116.09 148.35 118.18 148.31 120.25 148.37C124.49 148.48 128.72 148.59 132.96 148.58C141.93 148.55 150.97 147.87 159.72 145.8C156.23 143.82 152.75 141.84 149.26 139.86C149.27 139.93 149.29 140 149.3 140.08C149.2 139.33 149.1 138.57 149 137.82C149.03 138.2 149 138.56 148.97 138.94C149.07 138.19 149.17 137.43 149.27 136.68C148.99 138.76 148.54 140.8 148.35 142.9C148.17 144.95 149.43 147.5 150.84 148.91C152.31 150.38 154.73 151.5 156.85 151.4C159.05 151.3 161.33 150.58 162.86 148.91C164.46 147.16 165.14 145.26 165.35 142.9C165.37 142.66 165.39 142.43 165.42 142.2C165.32 142.95 165.22 143.71 165.12 144.46C165.26 143.48 165.47 142.51 165.62 141.54C166.01 139.04 166.11 137.83 165.66 135.35C165.31 133.44 163.44 131.16 161.75 130.27C159.68 129.18 157.5 128.87 155.2 129.41C152.54 130.04 149.86 130.53 147.15 130.9C147.9 130.8 148.66 130.7 149.41 130.6C143.4 131.39 137.34 131.61 131.29 131.59C128.33 131.58 125.37 131.51 122.41 131.44C119.34 131.36 116.17 131.51 113.12 131.13C113.87 131.23 114.63 131.33 115.38 131.43C113.92 131.2 112.54 130.7 111.1 130.42C109.16 130.05 107.63 130.13 105.69 130.47C105.01 130.59 104.34 130.77 103.65 130.86C104.4 130.76 105.16 130.66 105.91 130.56C105.68 130.59 105.45 130.58 105.22 130.55C105.97 130.65 106.73 130.75 107.48 130.85C106.13 130.61 104.86 130.24 103.49 130.05C100.81 129.69 98.49 130.11 96.06 131.33C94.44 132.14 93.26 133.79 92.58 135.4C91.78 137.3 91.84 138.9 92.15 140.94C92.53 143.44 93.03 145.78 94.32 148.02C96.19 151.27 99.3 152.89 102.75 153.99C107.38 155.46 112.31 155.9 117.12 156.34C121.55 156.74 126 156.88 130.45 156.76C134.42 156.65 138.35 156.09 142.28 155.59C147.93 154.87 153.33 154.11 158.66 152.05C160.79 151.23 162.55 150.17 163.74 148.14C164.81 146.32 165.26 143.63 164.6 141.59C163.93 139.53 162.66 137.55 160.69 136.51C158.79 135.49 156.24 134.83 154.14 135.64Z" fill="white"/>
<path d="M151.8 153.1C148.38 152.16 144.76 152.44 141.23 152.73C135.04 153.23 128.84 153.74 122.65 154.26C118.32 154.63 112.65 155.78 108.58 157.33C108.68 158.82 110.45 159.26 111.82 159.81C113.27 160.4 114.36 161.9 115.87 162.29C117.33 162.67 118.42 162.93 119.92 163.12C122.8 163.48 125.14 164.41 128.02 164.77C129.14 164.91 133.36 163.98 134.5 163.94C136.99 163.87 139.46 163.19 141.79 162.29C142.99 161.83 143.83 161.1 145.03 160.64C145.74 160.37 146.84 159.43 147.46 158.99C148.09 158.54 148.58 157.94 149.08 157.34C150.08 156.13 151.32 155.24 152.32 154.04" fill="white"/>
<path d="M154.06 144.9C149.64 143.76 145.23 143.9 140.74 144.26C136.75 144.58 132.75 144.91 128.76 145.24C121.19 145.87 113.5 146.44 106.32 149.12C104.29 149.88 102.3 151.02 101.24 153.03C100.1 155.18 100.02 157.19 100.38 159.58C100.79 162.3 102.95 164.65 105.18 166.09C106.51 166.95 108.09 167.42 109.56 168C108.88 167.71 108.21 167.43 107.53 167.14C108.1 167.4 108.59 167.73 109.09 168.11C108.52 167.67 107.94 167.22 107.37 166.78C108.62 167.75 109.81 168.83 111.24 169.51C112.81 170.26 114.33 170.71 116.01 171.04C118.2 171.46 120.36 171.81 122.53 172.33C124.78 172.87 127.16 173.45 129.47 173.18C131.67 172.92 133.84 172.51 136.03 172.2C135.28 172.3 134.52 172.4 133.77 172.5C136.31 172.17 138.87 172.07 141.36 171.37C143.91 170.65 146.21 169.48 148.55 168.3C150.53 167.3 152.42 166.01 154.04 164.48C154.72 163.84 155.27 163.06 155.93 162.4C156.72 161.61 157.57 160.88 158.31 160.03C159.8 158.31 160.8 156.36 160.8 154.02C160.8 151.93 159.87 149.44 158.31 148.01C155.11 145.08 149.4 144.42 146.28 148.01C145.5 148.91 144.59 149.68 143.76 150.53C142.97 151.34 142.32 152.26 141.43 152.96C142 152.52 142.58 152.07 143.15 151.63C141.39 152.92 139.5 154.08 137.48 154.93C138.16 154.64 138.83 154.36 139.51 154.07C137.74 154.74 135.95 155.27 134.09 155.56C134.84 155.46 135.6 155.36 136.35 155.26C133.39 155.64 130.44 156.02 127.49 156.43C128.24 156.33 129 156.23 129.75 156.13C129.18 156.21 128.59 156.29 128.01 156.25C128.76 156.35 129.52 156.45 130.27 156.55C128.12 156.25 126.05 155.62 123.93 155.19C121.88 154.77 119.79 154.6 117.79 153.96C118.47 154.25 119.14 154.53 119.82 154.82C119.25 154.57 118.76 154.25 118.26 153.88C118.83 154.32 119.41 154.77 119.98 155.21C118.88 154.36 117.82 153.37 116.6 152.69C115.42 152.04 114.12 151.62 112.86 151.12C113.54 151.41 114.21 151.69 114.89 151.98C114.4 151.77 113.95 151.55 113.53 151.22C114.1 151.66 114.68 152.11 115.25 152.55C115.1 152.43 114.98 152.29 114.87 152.13C115.31 152.7 115.76 153.28 116.2 153.85C116.15 153.77 116.11 153.69 116.06 153.6C116.35 154.28 116.63 154.95 116.92 155.63C116.84 155.45 116.79 155.25 116.78 155.05C114.8 158.54 112.82 162.02 110.84 165.51C114.63 164.09 118.64 163.23 122.65 162.69C121.9 162.79 121.14 162.89 120.39 162.99C125.19 162.38 130.05 162.12 134.88 161.73C139.71 161.34 144.71 160.55 149.55 161.13C148.8 161.03 148.04 160.93 147.29 160.83C148.05 160.94 148.8 161.09 149.55 161.28C153.85 162.39 158.98 159.87 160.01 155.34C161.01 150.93 158.67 146.1 154.06 144.9Z" fill="white"/>
<path d="M158.16 137.1C158.16 137.1 140.5 140.27 128.15 140.27C115.8 140.27 100.78 138.16 100.78 138.16C100.78 138.16 99.01 163.52 128.15 164.58C157.28 165.63 158.16 137.1 158.16 137.1Z" fill="white" stroke="white" stroke-width="5.6693" stroke-miterlimit="10" stroke-linecap="round" stroke-linejoin="round"/>
<path d="M90.08 658.41C77.98 658.41 67.01 655.8 58.99 651.58C62.09 657.23 67.29 660.41 74.62 660.41C85.92 660.41 108.51 660.41 108.51 660.41C111.11 659.3 113.59 656.97 115.61 654.06C108.38 656.8 99.59 658.41 90.08 658.41Z" fill="white" stroke="white" stroke-width="5.6693" stroke-miterlimit="10" stroke-linecap="round" stroke-linejoin="round"/>
<path d="M170.08 657.41C161.02 657.41 152.55 656.05 145.34 653.68C147.17 656.35 149.38 658.46 151.67 659.51C151.67 659.51 174.44 660.77 185.06 660.77C191.69 660.77 197.71 657.17 200.45 651.52C192.22 655.2 181.63 657.41 170.08 657.41Z" fill="white" stroke="white" stroke-width="5.6693" stroke-miterlimit="10" stroke-linecap="round" stroke-linejoin="round"/>
<g opacity="0.3">
<path opacity="0.3" d="M72.72 635.79C75.62 634.63 78.55 633.46 81.64 633.02C83.31 632.78 85 632.76 86.69 632.74C92.9 632.67 99.16 632.6 105.24 633.83" fill="white"/>
<path opacity="0.3" d="M72.72 635.79C74.83 633.69 77.22 632.06 80.12 631.03C81.57 630.52 83.13 630.25 84.56 630.1C86.02 629.96 87.36 629.91 88.75 629.89C91.52 629.86 94.35 630.06 97.15 630.63C99.95 631.22 102.75 632.14 105.22 633.84C102.29 634.46 99.61 634.79 96.91 635.08C94.22 635.35 91.53 635.54 88.8 635.56C87.44 635.56 86.03 635.53 84.73 635.47C83.42 635.41 82.21 635.36 80.97 635.39C78.47 635.43 75.72 635.85 72.72 635.79Z" fill="white"/>
</g>
<g opacity="0.3">
<path opacity="0.3" d="M158.39 636.36C163.1 634.89 167.87 633.51 172.78 632.95C177.69 632.39 182.76 632.67 187.37 634.46" fill="white"/>
<path opacity="0.3" d="M158.39 636.36C160.39 634.51 162.61 633.2 164.97 632.16C167.33 631.14 169.85 630.43 172.46 630.13C175.07 629.83 177.77 629.95 180.37 630.6C182.95 631.27 185.48 632.45 187.37 634.46C184.65 634.68 182.3 634.82 179.97 635.04C177.65 635.25 175.39 635.51 173.1 635.76C170.81 636.02 168.47 636.29 166.04 636.47C163.61 636.63 161.09 636.74 158.39 636.36Z" fill="white"/>
</g>
<path d="M194.94 320.64C201.47 323.04 207.18 327.6 210.96 333.43C212.4 335.64 213.56 338.03 215.07 340.18C218.67 345.3 224.04 348.89 229.52 351.92C230.57 352.5 231.81 353.42 231.55 354.6C231.23 356.06 229.14 356.03 227.71 355.6C220.07 353.33 212.82 349.74 206.38 345.04C212.35 348.82 225.61 353.95 224.3 356.39C222.99 358.83 219.84 356.78 217.69 356.03C210.13 353.42 202.81 350.13 195.84 346.21L217.02 355.83C216.88 356.69 215.18 357.96 214.36 358.27C213.55 358.58 212.65 358.58 211.78 358.57C209.01 358.53 206.24 358.31 203.49 357.92C200.28 357.46 196.86 356.64 194.73 354.18C194.73 354.18 203.57 356.39 210.04 358.81C210.97 359.16 210.39 361.4 204.57 361.4C201.57 361.4 198.72 361.25 195.57 360.4C194.25 360.04 191.95 360.17 190.86 359.35C188.28 357.4 187.67 353.85 187.26 350.64C186.65 345.94 186.04 341.23 185.43 336.53C185.34 335.84 185.25 335.14 185.37 334.46C185.46 333.92 185.68 333.41 185.91 332.92C188.05 328.25 191.11 324 194.85 320.48" fill="white"/>
<path d="M194.94 320.64C201.47 323.04 207.18 327.6 210.96 333.43C212.4 335.64 213.56 338.03 215.07 340.18C218.67 345.3 224.04 348.89 229.52 351.92C230.57 352.5 231.81 353.42 231.55 354.6C231.23 356.06 229.14 356.03 227.71 355.6C220.07 353.33 212.82 349.74 206.38 345.04C212.35 348.82 225.61 353.95 224.3 356.39C222.99 358.83 219.84 356.78 217.69 356.03C210.13 353.42 202.81 350.13 195.84 346.21L217.02 355.83C216.88 356.69 215.18 357.96 214.36 358.27C213.55 358.58 212.65 358.58 211.78 358.57C209.01 358.53 206.24 358.31 203.49 357.92C200.28 357.46 196.86 356.64 194.73 354.18C194.73 354.18 203.57 356.39 210.04 358.81C210.97 359.16 210.39 361.4 204.57 361.4C201.57 361.4 198.72 361.25 195.57 360.4C194.25 360.04 191.95 360.17 190.86 359.35C188.28 357.4 187.67 353.85 187.26 350.64C186.65 345.94 186.04 341.23 185.43 336.53C185.34 335.84 185.25 335.14 185.37 334.46C185.46 333.92 185.68 333.41 185.91 332.92C188.05 328.25 191.11 324 194.85 320.48" stroke="white" stroke-width="5.6693" stroke-miterlimit="10" stroke-linecap="round" stroke-linejoin="round"/>
<path d="M216.72 355.11C214.06 354.07 211.38 353.02 208.92 351.56C206.46 350.11 204.19 348.22 202.67 345.8" fill="white"/>
<path d="M216.72 355.11C214.06 354.07 211.38 353.02 208.92 351.56C206.46 350.11 204.19 348.22 202.67 345.8" stroke="white" stroke-width="5.6693" stroke-miterlimit="10" stroke-linecap="round" stroke-linejoin="round"/>
<path d="M208.48 358.17C206.85 357.83 205.23 357.49 203.6 357.16C202.91 357.02 202.22 356.87 201.56 356.64C198.57 355.6 196.42 352.94 194.97 350.12" fill="white"/>
<path d="M208.48 358.17C206.85 357.83 205.23 357.49 203.6 357.16C202.91 357.02 202.22 356.87 201.56 356.64C198.57 355.6 196.42 352.94 194.97 350.12" stroke="white" stroke-width="5.6693" stroke-miterlimit="10" stroke-linecap="round" stroke-linejoin="round"/>
<path d="M221.63 353.25C219.22 351.8 216.74 350.45 214.49 348.74C212.25 347.04 210.23 344.94 209.08 342.37" fill="white"/>
<path d="M221.63 353.25C219.22 351.8 216.74 350.45 214.49 348.74C212.25 347.04 210.23 344.94 209.08 342.37" stroke="white" stroke-width="5.6693" stroke-miterlimit="10" stroke-linecap="round" stroke-linejoin="round"/>
<path d="M91.6899 87.0894C97.5699 83.2194 105.13 82.0094 111.92 83.8494L91.6899 87.0894Z" fill="white"/>
<path d="M91.53 86.8496C92.77 85.4996 94.26 84.3496 95.87 83.3696L97.11 82.6796L98.4 82.0596L99.74 81.5396L101.11 81.0896C101.57 80.9596 102.04 80.8196 102.51 80.6596L103.94 80.2496C104.42 80.1596 104.91 80.0696 105.4 80.0596C105.89 80.0596 106.38 80.1196 106.87 80.2096C108.79 80.6696 110.69 81.5996 112.01 83.5796C112.13 83.7496 112.08 83.9896 111.9 84.0996C111.89 84.1096 111.88 84.1196 111.86 84.1196H111.85C109.77 85.1796 108.17 85.5796 106.59 85.8596C105.8 85.9996 105.04 85.9896 104.25 85.8396L103.05 85.6396C102.65 85.5896 102.24 85.5696 101.83 85.5596L100.6 85.5996L99.37 85.6996L98.13 85.8196L96.88 86.0096C95.21 86.2796 93.54 86.7396 91.84 87.3196C91.69 87.3696 91.52 87.2896 91.47 87.1396C91.44 87.0396 91.47 86.9296 91.53 86.8496Z" fill="white"/>
<path d="M166.45 90.0899C160.57 86.2199 153.01 85.0099 146.22 86.8499L166.45 90.0899Z" fill="white"/>
<path d="M166.3 90.3298C164.6 89.7498 162.94 89.2898 161.26 89.0198L160.01 88.8298L158.77 88.7098L157.54 88.6098L156.32 88.5798C155.91 88.5998 155.51 88.6198 155.1 88.6598L153.9 88.8598C153.11 89.0098 152.35 89.0198 151.56 88.8798C149.97 88.5898 148.37 88.1998 146.3 87.1398H146.29C146.1 87.0498 146.03 86.8198 146.13 86.6298C146.14 86.6198 146.14 86.5998 146.15 86.5898C147.47 84.6098 149.36 83.6798 151.29 83.2198C151.77 83.1298 152.27 83.0698 152.76 83.0698C153.25 83.0798 153.74 83.1698 154.22 83.2598L155.65 83.6698C156.12 83.8298 156.58 83.9698 157.05 84.0998L158.42 84.5498L159.76 85.0698L161.05 85.6898L162.29 86.3798C163.9 87.3698 165.38 88.5098 166.63 89.8598C166.74 89.9798 166.73 90.1598 166.61 90.2698C166.51 90.3398 166.4 90.3598 166.3 90.3298Z" fill="white"/>
<g opacity="0.2">
<path opacity="0.2" d="M114.58 179.41C114.58 179.41 121.58 184.41 130.44 184.43C138.58 184.45 143.74 180.99 150.58 177.41" fill="white"/>
<path opacity="0.2" d="M114.58 179.41C117.88 180.19 120.92 180.84 123.9 181.24C125.38 181.45 126.84 181.58 128.28 181.62C129.7 181.67 131.13 181.64 132.57 181.5C135.41 181.26 138.18 180.67 141.13 179.78C144.08 178.93 147.19 177.85 150.58 177.41C148.29 179.93 145.85 182.06 142.95 183.85C140.07 185.63 136.6 186.87 133.05 187.15C132.16 187.22 131.28 187.23 130.4 187.23C129.51 187.16 128.61 187.13 127.74 186.96C125.99 186.69 124.29 186.2 122.69 185.52C119.52 184.16 116.62 182.18 114.58 179.41Z" fill="white"/>
</g>
<path d="M77.56 323.64C71.03 326.04 65.32 330.6 61.54 336.43C60.1 338.64 58.94 341.03 57.43 343.18C53.83 348.3 48.46 351.89 42.98 354.92C41.93 355.5 40.69 356.42 40.95 357.6C41.27 359.06 43.36 359.03 44.79 358.6C52.43 356.33 59.68 352.74 66.12 348.04C60.15 351.82 46.89 356.95 48.2 359.39C49.51 361.83 52.66 359.78 54.81 359.03C62.37 356.42 69.69 353.13 76.66 349.21L55.48 358.83C55.62 359.69 57.32 360.96 58.14 361.27C58.95 361.58 59.85 361.58 60.72 361.57C63.49 361.53 66.26 361.31 69.01 360.92C72.22 360.46 75.64 359.64 77.77 357.18C77.77 357.18 68.93 359.39 62.46 361.81C61.53 362.16 62.11 364.4 67.93 364.4C70.93 364.4 73.78 364.25 76.93 363.4C78.25 363.04 80.55 363.17 81.64 362.35C84.22 360.4 84.83 356.85 85.24 353.64C85.85 348.94 86.46 344.23 87.07 339.53C87.16 338.84 87.25 338.14 87.13 337.46C87.04 336.92 86.82 336.41 86.59 335.92C84.45 331.25 81.39 327 77.65 323.48" fill="white"/>
<path d="M77.56 323.64C71.03 326.04 65.32 330.6 61.54 336.43C60.1 338.64 58.94 341.03 57.43 343.18C53.83 348.3 48.46 351.89 42.98 354.92C41.93 355.5 40.69 356.42 40.95 357.6C41.27 359.06 43.36 359.03 44.79 358.6C52.43 356.33 59.68 352.74 66.12 348.04C60.15 351.82 46.89 356.95 48.2 359.39C49.51 361.83 52.66 359.78 54.81 359.03C62.37 356.42 69.69 353.13 76.66 349.21L55.48 358.83C55.62 359.69 57.32 360.96 58.14 361.27C58.95 361.58 59.85 361.58 60.72 361.57C63.49 361.53 66.26 361.31 69.01 360.92C72.22 360.46 75.64 359.64 77.77 357.18C77.77 357.18 68.93 359.39 62.46 361.81C61.53 362.16 62.11 364.4 67.93 364.4C70.93 364.4 73.78 364.25 76.93 363.4C78.25 363.04 80.55 363.17 81.64 362.35C84.22 360.4 84.83 356.85 85.24 353.64C85.85 348.94 86.46 344.23 87.07 339.53C87.16 338.84 87.25 338.14 87.13 337.46C87.04 336.92 86.82 336.41 86.59 335.92C84.45 331.25 81.39 327 77.65 323.48" stroke="white" stroke-width="5.6693" stroke-miterlimit="10" stroke-linecap="round" stroke-linejoin="round"/>
<path d="M55.78 358.11C58.44 357.07 61.12 356.02 63.58 354.56C66.04 353.11 68.31 351.22 69.83 348.8" fill="white"/>
<path d="M55.78 358.111C56.69 356.491 57.78 355.411 58.86 354.461C59.95 353.531 61.04 352.781 62.14 352.131C63.24 351.481 64.35 350.931 65.56 350.401C66.79 349.881 68.07 349.381 69.83 348.811C70.07 350.661 69.44 352.331 68.54 353.721C67.62 355.101 66.39 356.211 65.02 357.011C63.66 357.811 62.17 358.311 60.64 358.531C59.1 358.731 57.53 358.691 55.78 358.111Z" fill="white"/>
<path d="M64.02 361.17C65.65 360.83 67.27 360.49 68.9 360.16C69.59 360.02 70.28 359.87 70.94 359.64C73.93 358.6 76.08 355.94 77.53 353.12" fill="white"/>
<path d="M64.02 361.17C65.13 359.74 66.36 358.86 67.63 358.15C67.93 357.98 68.3 357.81 68.56 357.67C68.82 357.51 69.09 357.4 69.36 357.27C69.61 357.14 69.93 357.06 70.13 356.95L70.75 356.64C71.58 356.21 72.48 355.71 73.56 355.11C74.65 354.51 75.85 353.8 77.53 353.12C77.94 354.89 77.65 356.53 76.93 358.03C76.2 359.51 74.97 360.85 73.34 361.69C72.93 361.89 72.51 362.07 72.06 362.21C71.62 362.35 71.25 362.38 70.84 362.44C70.44 362.49 70.04 362.54 69.63 362.55C69.22 362.58 68.9 362.53 68.53 362.51C67.09 362.36 65.61 362.04 64.02 361.17Z" fill="white"/>
<path d="M50.87 356.25C53.28 354.8 55.76 353.45 58.01 351.74C60.25 350.04 62.27 347.94 63.42 345.37" fill="white"/>
<path d="M50.87 356.25C51.47 354.52 52.41 353.28 53.34 352.19C54.3 351.12 55.28 350.25 56.29 349.48C57.29 348.71 58.32 348.06 59.43 347.42C60.57 346.78 61.75 346.16 63.41 345.37C63.91 347.15 63.5 348.89 62.78 350.36C62.04 351.83 60.96 353.06 59.71 354C58.47 354.94 57.09 355.59 55.64 355.99C54.18 356.37 52.68 356.53 50.87 356.25Z" fill="white"/>
<path d="M91.91 199.41L42.58 251.41L67.58 284.41L97.66 263.39L91.91 199.41Z" fill="#FDC75F"/>
<path d="M68.0873 283.864C69.152 283.056 64.3369 274.918 57.3326 265.688C50.3283 256.458 43.7871 249.631 42.7225 250.438C41.6578 251.246 46.4728 259.384 53.4771 268.614C60.4814 277.844 67.0226 284.672 68.0873 283.864Z" fill="#F9AE00"/>
<path d="M47.58 254.41C47.58 254.41 17.57 275.59 14.91 281.41C12.25 287.23 76.91 347.41 76.91 347.41L78.91 326.41L49.28 289.64L67.58 280.41C67.58 280.41 62.58 273.41 58.58 267.41C53.04 259.09 47.58 254.41 47.58 254.41Z" fill="#72421F"/>
<path d="M175.58 198.41L224.91 250.41L199.91 283.41L169.83 262.39L175.58 198.41Z" fill="#FDC75F"/>
<path d="M214.022 267.639C221.026 258.409 225.841 250.271 224.776 249.463C223.712 248.655 217.171 255.483 210.166 264.713C203.162 273.943 198.347 282.081 199.412 282.889C200.476 283.697 207.018 276.869 214.022 267.639Z" fill="#F9AE00"/>
<path d="M219.91 253.41C219.91 253.41 249.92 274.59 252.58 280.41C255.24 286.23 190.58 346.41 190.58 346.41L188.58 325.41L218.21 288.64L199.91 279.41C199.91 279.41 204.91 272.41 208.91 266.41C214.46 258.09 219.91 253.41 219.91 253.41Z" fill="#72421F"/>
<path d="M87.88 366.23L75.66 442.35C75.66 442.35 81.44 454.33 97.85 454.65C114.26 454.97 127.17 451.91 127.17 451.91C127.17 451.91 133.4 422.68 136.22 422.15C139.05 421.63 141.3 450.2 144.88 453.44C148.45 456.68 168.07 455.61 174.97 454.67C194.47 452.04 202.03 447.01 202.03 447.01L187.8 363.86L87.88 366.23Z" fill="#354D73"/>
<path d="M159.79 509.14C161.85 504.75 182.99 504.75 183.72 509.14C184.44 513.53 176.28 593.43 176.28 593.43H164.92C164.92 593.43 158.2 512.54 159.79 509.14Z" fill="#939DA9"/>
<path d="M151.68 660.51C143.42 656.74 136.34 639.17 143.42 631.64C150.5 624.11 151.68 612.81 169.38 612.81C188.26 612.81 197.62 627.87 201.24 640.42C204.74 652.53 195.69 661.76 185.07 661.76C174.45 661.77 151.68 660.51 151.68 660.51Z" fill="#F9AE00"/>
<path d="M176.28 609.25V593.43H164.92V609.84C160.49 612.14 157.46 616.76 157.46 622.09C157.46 622.09 159.59 624.41 171.66 624.09C179.59 623.88 185.07 622.09 185.07 622.09C185.07 616.24 181.42 611.26 176.28 609.25Z" fill="#7092C0"/>
<path opacity="0.5" d="M171.89 511.02C178.131 511.02 183.19 509.896 183.19 508.51C183.19 507.124 178.131 506 171.89 506C165.649 506 160.59 507.124 160.59 508.51C160.59 509.896 165.649 511.02 171.89 511.02Z" fill="#868E96"/>
<path d="M172.52 488.43C170.09 488.43 168.13 489.55 168.13 490.94V507.26C168.13 508.65 170.1 509.77 172.52 509.77C174.95 509.77 176.91 508.65 176.91 507.26V490.94C176.91 489.56 174.94 488.43 172.52 488.43Z" fill="#939DA9"/>
<path opacity="0.4" d="M126.71 450.78C126.41 453.19 110.97 454.38 97.84 453.29C82.78 452.03 76.21 445.66 76.5 443.25C76.8 440.84 85.29 445.76 102.14 447.05C115.27 448.05 127 448.38 126.71 450.78Z" fill="#21324C"/>
<path d="M84.04 443.25C82.28 456.92 85.49 484.6 83.19 496.87C80.9 509.14 75.43 549.2 75.88 560.6C76.49 576.15 79.65 612.06 79.65 612.06H101.53C101.53 612.06 113.53 531.74 112.28 511.66C111.03 491.58 117.91 455.89 119.18 450.79C121.69 440.74 84.04 443.25 84.04 443.25Z" fill="#72421F"/>
<path d="M108.51 661C117.3 657.23 124.83 639.66 117.3 632.13C109.77 624.6 108.51 613.3 89.69 613.3C69.61 613.3 54.55 628.36 55.8 640.91C57.05 653.47 63.33 661 74.62 661C85.91 661 108.51 661 108.51 661Z" fill="#F9AE00"/>
<path d="M76.25 568.08L107.78 568.6L101.53 617.7C101.53 617.7 98.99 619.99 91.29 619.7C83.59 619.41 79.65 617.7 79.65 617.7L76.25 568.08Z" fill="#7494C2"/>
<path d="M76.75 575.78L106.82 576.16L105.92 583.24H77.3L76.75 575.78Z" fill="#39506D"/>
<path opacity="0.4" d="M144.89 453.43C144.89 453.43 152.68 457.8 173.58 454.92C194.48 452.04 202.05 447.01 202.05 447.01C202.05 447.01 197.13 446.47 191.41 446.75C185.69 447.03 166.87 444.51 155.57 447.02C144.27 449.53 144.89 453.43 144.89 453.43Z" fill="#21324C"/>
<path d="M155.57 447.02C155.57 447.02 148.67 504.12 173.77 499.1C198.87 494.08 191.41 446.74 191.41 446.74C191.41 446.74 174.4 445.76 168.13 445.76C161.86 445.76 155.57 447.02 155.57 447.02Z" fill="#333333"/>
<g opacity="0.3">
<path opacity="0.3" d="M87.52 517.76C88.95 518.05 90.19 518.35 91.43 518.54C92.66 518.75 93.86 518.87 95.06 518.93C96.26 518.98 97.45 518.96 98.72 518.87C99.99 518.8 101.31 518.66 102.77 518.69C101.76 519.75 100.56 520.51 99.22 521.04C97.89 521.57 96.4 521.83 94.92 521.76C93.45 521.69 91.99 521.31 90.7 520.64C89.42 519.98 88.27 519.02 87.52 517.76Z" fill="#542700"/>
</g>
<path d="M177.58 200.41C173.68 192.06 106.97 185.89 92.58 199.41C78.19 212.93 85.58 369.41 87.58 373.41C89.58 377.41 189.52 377.41 190.05 373.41C190.58 369.41 184.58 215.41 177.58 200.41Z" fill="#F9AE00"/>
<path d="M71.42 95.4702C70.79 95.1302 68.89 94.8202 68.22 94.6202C65.99 93.9702 63.52 95.2301 62.14 97.7101C60.46 100.74 60.48 104.89 60.65 108.7C60.76 111.36 60.92 114.1 61.84 116.45C62.22 117.43 62.73 118.3 63.23 119.17C64.22 120.88 65.22 122.58 66.36 124.1C69.79 128.66 69.82 128.24 74.22 130.8L71.42 95.4702Z" fill="#683914"/>
<path d="M113.62 178.11C114.24 181.49 114.59 184.92 114.67 188.36C114.73 190.71 114.54 193.34 112.8 194.93C112.53 195.18 112.21 195.41 112.11 195.77C112.05 195.96 112.07 196.17 112.09 196.37C112.37 198.55 113.95 200.4 115.83 201.55C117.71 202.7 119.88 203.25 122.02 203.77C128.74 205.4 136.18 206.77 142.28 203.51C145.51 201.78 147.98 198.93 150.32 196.11C150.68 195.67 151.06 195.2 151.15 194.63C151.22 194.16 151.08 193.68 150.95 193.22C149.77 188.99 149.63 184.48 150.53 180.19C150.63 179.71 150.72 175.14 150.38 174.79C150.06 174.46 149.53 178.49 149.08 178.55C137.7 179.96 126.07 179.38 114.88 176.83L113.62 178.11Z" fill="#683914"/>
<path d="M190.74 138.71C188.43 144.84 202.94 133.5 207.64 128.93C209.21 127.41 210.58 125.7 211.94 124C212.63 123.13 213.32 122.25 213.85 121.28C215.11 118.94 215.33 116.19 215.49 113.53C215.71 109.73 215.75 105.57 213.44 102.54C211.55 100.05 208.17 98.8 205.11 99.45C204.2 99.64 201.6 99.95 200.73 100.3C200.73 100.29 192 135.36 190.74 138.71Z" fill="#683914"/>
<path d="M187.88 148.48C176.74 167.05 155.75 179.73 134.23 182.11C112.71 184.49 86.41 171.22 77.06 151.69C69.96 136.87 72.24 122.78 70.79 106.77C69.42 91.6901 65.4 74.3502 70.63 60.1402C72.48 55.1102 76.63 39.9902 80.27 36.0502C94.98 20.1302 108.8 21.8302 130.47 22.3302C141.53 22.5902 152.27 25.9002 162.8 29.2902C173.16 32.6202 179.03 32.9202 187.88 39.2602C196.73 45.6002 201.75 54.0902 202.34 64.9602C202.64 70.4702 202.08 102.98 200.73 108.33C200.73 108.32 197.51 132.42 187.88 148.48Z" fill="#72421F"/>
<path d="M186.54 57.57C184.52 57.62 183.44 60.23 184.03 62.16C184.62 64.09 186.24 65.49 187.62 66.97C189 68.45 190.26 70.36 189.88 72.35C189.61 73.77 188.52 74.97 188.42 76.41C188.19 79.56 192.31 81.03 193.98 83.71C195.45 86.07 194.86 89.1 194.49 91.86C194.12 94.62 194.27 97.92 196.56 99.51C199.2 101.33 202.77 99.67 205.41 97.85C208.21 95.91 211.13 93.37 211.33 89.96C211.48 87.52 210.16 85.16 210.37 82.72C210.62 79.79 212.98 77.49 213.85 74.69C215.06 70.78 213.25 66.68 212.23 62.72C211.38 59.42 211.07 55.98 211.32 52.58C211.49 50.24 211.85 47.63 210.4 45.79C209.51 44.66 208.13 44.09 206.85 43.44C198.82 39.39 193.33 30.72 193.08 21.73C187.82 26.7 177.98 25.17 174.46 18.85C169.38 21.84 162.94 24.86 157.93 21.75C155.53 20.26 154.09 17.66 152.35 15.43C150.61 13.2 148.09 11.13 145.28 11.47C142.57 11.8 140.37 14.32 137.65 14.17C133.85 13.96 131.3 8.68996 127.59 9.53996C125.9 9.92996 124.72 11.53 123.04 11.97C119.29 12.96 114.91 7.90996 112.07 10.54C111.47 11.09 111.15 11.88 110.58 12.46C108.53 14.55 105.1 12.85 102.21 12.37C97.25 11.54 92.02 15.59 91.58 20.6C88.34 20.99 85.01 21.42 82.16 22.99C79.3 24.56 76.99 27.59 77.26 30.84C77.32 31.56 77.49 32.33 77.15 32.96C76.84 33.53 76.2 33.83 75.7 34.24C73.93 35.69 74 38.35 73.24 40.51C72.25 43.34 69.79 45.36 68.01 47.77C66.23 50.19 65.22 53.8 67.22 56.03C63.99 59.36 60.51 63.46 61.3 68.03C61.44 68.85 61.72 69.66 61.63 70.49C61.42 72.25 59.67 73.33 58.54 74.69C55.84 77.96 57.38 83.73 61.36 85.2C59.09 85.68 58.23 88.79 59.31 90.84C60.39 92.89 62.69 93.99 64.93 94.6C66.55 95.04 68.31 95.29 69.89 94.71C71.47 94.13 72.76 92.49 72.45 90.84C72.32 90.14 71.93 89.52 71.73 88.84C70.31 84.07 78.16 80.24 76.84 75.44C76.3 73.47 74.31 72.18 73.63 70.25C72.67 67.54 74.56 64.7 76.56 62.64C78.55 60.58 80.91 58.44 81.16 55.58C81.37 53.15 79.96 50.64 80.8 48.35C81.84 45.52 85.51 44.89 88.53 44.85C91.55 44.81 95.15 44.58 96.66 41.97C97.43 40.63 97.65 38.7 99.11 38.21C101.04 37.55 102.37 40.04 103.68 41.6C105.52 43.79 108.65 44.52 111.49 44.18C114.33 43.83 116.95 42.57 119.52 41.32C122.36 45.42 127.13 48.13 132.11 48.46C137.61 48.82 143.66 46.57 148.34 49.47C150.16 50.6 151.64 52.46 153.75 52.79C156.74 53.26 160.19 50.53 162.53 52.45C163.19 52.99 163.56 53.8 164.03 54.51C166.35 57.98 171.74 58.87 175.05 56.33C176.84 59.05 179.79 60.97 183 61.5" fill="black"/>
<path d="M154.15 114.75C157.696 114.75 160.57 110.434 160.57 105.11C160.57 99.7857 157.696 95.4697 154.15 95.4697C150.604 95.4697 147.73 99.7857 147.73 105.11C147.73 110.434 150.604 114.75 154.15 114.75Z" fill="black"/>
<path d="M104.36 113.15C107.906 113.15 110.78 108.834 110.78 103.51C110.78 98.1861 107.906 93.8701 104.36 93.8701C100.814 93.8701 97.94 98.1861 97.94 103.51C97.94 108.834 100.814 113.15 104.36 113.15Z" fill="black"/>
<path d="M127.13 112.92C127.34 113.98 127.47 115.06 127.53 116.16C127.42 117.25 127.24 118.35 126.85 119.41C126.47 120.47 125.85 121.48 125.01 122.27C124.59 122.66 124.17 122.97 123.83 123.32C123.49 123.66 123.26 124.03 123.09 124.48C122.92 124.93 122.82 125.43 122.72 125.95C122.62 126.47 122.53 126.96 122.58 127.38C122.66 128.21 123.44 128.85 124.34 129.26C125.26 129.68 126.25 129.95 127.26 130.06C128.25 130.34 129.3 130.43 130.39 130.41C129.38 130.83 128.28 131.01 127.15 131.05C126.04 130.93 124.95 130.63 123.92 130.16C123.4 129.92 122.89 129.62 122.45 129.19C122.01 128.77 121.66 128.15 121.59 127.5C121.52 126.86 121.64 126.28 121.74 125.76C121.84 125.23 121.95 124.68 122.15 124.13C122.34 123.58 122.69 123.02 123.11 122.61C123.52 122.19 123.96 121.87 124.32 121.54C125.03 120.87 125.57 120.01 125.91 119.07C126.26 118.13 126.44 117.11 126.53 116.07C126.79 115.05 126.93 113.99 127.13 112.92Z" fill="black"/>
<path d="M156.4 144.84C150.66 147.08 147.46 147.41 141.83 148.13C139.29 148.46 134.68 149.09 132.12 149.19C125.08 149.47 119.05 149.21 110.93 148.13C108.85 147.85 104.92 146.96 102.99 146.02C101.06 145.09 100.72 142.13 100.34 139.68C101.7 138.85 103.69 139.83 105.2 140.05C106.42 140.23 107.97 139.35 109.16 139.68C110.96 140.17 112.62 140.7 114.46 140.74C128.9 141.02 143.28 142 157.44 138.61C157.71 139.68 156.96 142.1 156.83 143.91" fill="white"/>
<path d="M151.8 154.1C148.38 153.16 144.76 153.44 141.23 153.73C135.04 154.23 128.84 154.74 122.65 155.26C118.32 155.63 112.65 156.78 108.58 158.33C108.68 159.82 110.45 160.26 111.82 160.81C113.27 161.4 114.36 162.9 115.87 163.29C117.33 163.67 118.42 163.93 119.92 164.12C122.8 164.48 125.14 165.41 128.02 165.77C129.14 165.91 133.36 164.98 134.5 164.94C136.99 164.87 139.46 164.19 141.79 163.29C142.99 162.83 143.83 162.1 145.03 161.64C145.74 161.37 146.84 160.43 147.46 159.99C148.09 159.54 148.58 158.94 149.08 158.34C150.08 157.13 151.32 156.24 152.32 155.04" fill="#C45549"/>
<path d="M158.16 138.1C158.16 138.1 140.5 141.27 128.15 141.27C115.8 141.27 100.78 139.16 100.78 139.16C100.78 139.16 99.01 164.52 128.15 165.58C157.28 166.63 158.16 138.1 158.16 138.1Z" stroke="black" stroke-miterlimit="10"/>
<path d="M90.08 659.41C77.98 659.41 67.01 656.8 58.99 652.58C62.09 658.23 67.29 661.41 74.62 661.41C85.92 661.41 108.51 661.41 108.51 661.41C111.11 660.3 113.59 657.97 115.61 655.06C108.38 657.8 99.59 659.41 90.08 659.41Z" fill="#604F3F"/>
<path d="M170.08 658.41C161.02 658.41 152.55 657.05 145.34 654.68C147.17 657.35 149.38 659.46 151.67 660.51C151.67 660.51 174.44 661.77 185.06 661.77C191.69 661.77 197.71 658.17 200.45 652.52C192.22 656.2 181.63 658.41 170.08 658.41Z" fill="#604F3F"/>
<g opacity="0.3">
<path opacity="0.3" d="M72.72 636.79C75.11 635.36 77.61 634.11 80.39 633.4C83.21 632.66 86.04 632.74 88.77 632.66C91.53 632.66 94.31 632.7 97.08 633.02C99.85 633.33 102.61 633.86 105.23 634.83C102.44 634.72 99.72 634.67 96.99 634.67L88.79 634.78H84.68C83.33 634.76 82.02 634.85 80.7 635.01C78.08 635.38 75.44 636.17 72.72 636.79Z" fill="#604F3F"/>
</g>
<g opacity="0.3">
<path opacity="0.3" d="M158.39 637.36C160.61 636.21 162.92 635.27 165.3 634.51C167.68 633.74 170.14 633.2 172.65 632.89C175.16 632.62 177.72 632.6 180.24 632.99C182.74 633.37 185.22 634.14 187.36 635.45C184.9 634.97 182.5 634.7 180.09 634.64C177.68 634.59 175.28 634.7 172.9 635C170.5 635.25 168.12 635.69 165.71 636.11C163.29 636.56 160.87 637.04 158.39 637.36Z" fill="#604F3F"/>
</g>
<path d="M194.94 321.64C201.47 324.04 207.18 328.6 210.96 334.43C212.4 336.64 213.56 339.03 215.07 341.18C218.67 346.3 224.04 349.89 229.52 352.92C230.57 353.5 231.81 354.42 231.55 355.6C231.23 357.06 229.14 357.03 227.71 356.6C220.07 354.33 212.82 350.74 206.38 346.04C212.35 349.82 225.61 354.95 224.3 357.39C222.99 359.83 219.84 357.78 217.69 357.03C210.13 354.42 202.81 351.13 195.84 347.21L217.02 356.83C216.88 357.69 215.18 358.96 214.36 359.27C213.55 359.58 212.65 359.58 211.78 359.57C209.01 359.53 206.24 359.31 203.49 358.92C200.28 358.46 196.86 357.64 194.73 355.18C194.73 355.18 203.57 357.39 210.04 359.81C210.97 360.16 210.39 362.4 204.57 362.4C201.57 362.4 198.72 362.25 195.57 361.4C194.25 361.04 191.95 361.17 190.86 360.35C188.28 358.4 187.67 354.85 187.26 351.64C186.65 346.94 186.04 342.23 185.43 337.53C185.34 336.84 185.25 336.14 185.37 335.46C185.46 334.92 185.68 334.41 185.91 333.92C188.05 329.25 191.11 325 194.85 321.48" fill="#72421F"/>
<path d="M216.72 356.11C214.06 355.07 211.38 354.02 208.92 352.56C206.46 351.11 204.19 349.22 202.67 346.8" stroke="#542700" stroke-width="1.0001" stroke-miterlimit="10" stroke-linecap="round" stroke-linejoin="round"/>
<path d="M208.48 359.17C206.85 358.83 205.23 358.49 203.6 358.16C202.91 358.02 202.22 357.87 201.56 357.64C198.57 356.6 196.42 353.94 194.97 351.12" stroke="#542700" stroke-width="1.0001" stroke-miterlimit="10" stroke-linecap="round" stroke-linejoin="round"/>
<path d="M221.63 354.25C219.22 352.8 216.74 351.45 214.49 349.74C212.25 348.04 210.23 345.94 209.08 343.37" stroke="#542700" stroke-width="1.0001" stroke-miterlimit="10" stroke-linecap="round" stroke-linejoin="round"/>
<path d="M91.53 87.8501C92.77 86.5001 94.26 85.3501 95.87 84.3701L97.11 83.6801L98.4 83.0601L99.74 82.5401L101.11 82.0901C101.57 81.9601 102.04 81.8201 102.51 81.6601L103.94 81.2501C104.42 81.1601 104.91 81.0701 105.4 81.0601C105.89 81.0601 106.38 81.1201 106.87 81.2101C108.79 81.6701 110.69 82.6001 112.01 84.5801L111.86 85.1301C109.78 86.1901 108.18 86.5901 106.6 86.8701C105.81 87.0101 105.05 87.0001 104.26 86.8501L103.06 86.6501C102.66 86.6001 102.25 86.5801 101.84 86.5701L100.6 86.6001L99.37 86.7001L98.13 86.8201L96.88 87.0101C95.21 87.2801 93.54 87.7401 91.84 88.3201L91.53 87.8501Z" fill="black"/>
<path d="M166.3 91.3298C164.6 90.7498 162.94 90.2898 161.26 90.0198L160.01 89.8298L158.77 89.7098L157.54 89.6098L156.32 89.5798C155.91 89.5998 155.51 89.6198 155.1 89.6598L153.9 89.8598C153.11 90.0098 152.35 90.0198 151.56 89.8798C149.97 89.5898 148.37 89.1998 146.3 88.1398L146.15 87.5898C147.47 85.6098 149.36 84.6798 151.29 84.2198C151.77 84.1298 152.27 84.0698 152.76 84.0698C153.25 84.0798 153.74 84.1698 154.22 84.2598L155.65 84.6698C156.12 84.8298 156.58 84.9698 157.05 85.0998L158.42 85.5498L159.76 86.0698L161.05 86.6898L162.29 87.3798C163.9 88.3698 165.38 89.5098 166.63 90.8598L166.3 91.3298Z" fill="black"/>
<g opacity="0.2">
<path opacity="0.2" d="M114.58 180.41C117.88 181.19 120.92 181.84 123.9 182.24C125.38 182.45 126.84 182.58 128.28 182.62C129.7 182.67 131.13 182.64 132.57 182.5C135.41 182.26 138.18 181.67 141.13 180.78C144.08 179.93 147.19 178.85 150.58 178.41C148.29 180.93 145.85 183.06 142.95 184.85C140.07 186.63 136.6 187.87 133.05 188.15C132.16 188.22 131.28 188.23 130.4 188.23C129.51 188.16 128.61 188.13 127.74 187.96C125.99 187.69 124.29 187.2 122.69 186.52C119.52 185.16 116.62 183.18 114.58 180.41Z" fill="#542700"/>
</g>
<path d="M77.56 324.64C71.03 327.04 65.32 331.6 61.54 337.43C60.1 339.64 58.94 342.03 57.43 344.18C53.83 349.3 48.46 352.89 42.98 355.92C41.93 356.5 40.69 357.42 40.95 358.6C41.27 360.06 43.36 360.03 44.79 359.6C52.43 357.33 59.68 353.74 66.12 349.04C60.15 352.82 46.89 357.95 48.2 360.39C49.51 362.83 52.66 360.78 54.81 360.03C62.37 357.42 69.69 354.13 76.66 350.21L55.48 359.83C55.62 360.69 57.32 361.96 58.14 362.27C58.95 362.58 59.85 362.58 60.72 362.57C63.49 362.53 66.26 362.31 69.01 361.92C72.22 361.46 75.64 360.64 77.77 358.18C77.77 358.18 68.93 360.39 62.46 362.81C61.53 363.16 62.11 365.4 67.93 365.4C70.93 365.4 73.78 365.25 76.93 364.4C78.25 364.04 80.55 364.17 81.64 363.35C84.22 361.4 84.83 357.85 85.24 354.64C85.85 349.94 86.46 345.23 87.07 340.53C87.16 339.84 87.25 339.14 87.13 338.46C87.04 337.92 86.82 337.41 86.59 336.92C84.45 332.25 81.39 328 77.65 324.48" fill="#72421F"/>
<path d="M55.78 359.11C58.3 357.7 60.92 356.57 63.33 355.13C65.75 353.71 67.97 352.01 69.84 349.8C69.24 351.12 68.36 352.32 67.32 353.34C66.28 354.38 65.09 355.24 63.84 355.99C61.31 357.47 58.58 358.44 55.78 359.11Z" fill="#542700"/>
<path d="M64.02 362.17C65.33 361.7 66.66 361.29 68 360.95C68.68 360.77 69.32 360.6 69.97 360.4C70.63 360.24 71.25 360.04 71.82 359.72C72.98 359.13 74.01 358.27 74.95 357.31C75.88 356.33 76.72 355.25 77.53 354.12C77.07 355.43 76.42 356.7 75.54 357.82C74.67 358.94 73.57 359.93 72.27 360.61C71.62 360.95 70.92 361.17 70.22 361.31C69.52 361.46 68.83 361.63 68.15 361.71C66.79 361.93 65.41 362.08 64.02 362.17Z" fill="#542700"/>
<path d="M50.87 357.25C53.08 355.46 55.51 354.03 57.7 352.35C59.9 350.68 61.89 348.78 63.41 346.38C63.01 347.75 62.3 349.03 61.4 350.16C60.51 351.3 59.44 352.28 58.3 353.15C56 354.87 53.47 356.14 50.87 357.25Z" fill="#542700"/>
<g opacity="0.7">
<g opacity="0.8">
<g opacity="0.8">
<path opacity="0.8" d="M159.83 236.05C158.92 238.09 158.11 240.17 157.44 242.31C156.83 244.25 155.95 246.55 157.31 248.37C158.47 249.94 160.59 250.58 162.3 251.36C164.44 252.34 166.59 253.31 168.73 254.29C169.47 254.63 170.34 254.5 170.78 253.75C171.16 253.11 170.98 252.03 170.24 251.7C168.44 250.88 166.64 250.06 164.83 249.24C163.95 248.84 163.08 248.44 162.2 248.04C161.48 247.71 160.66 247.42 160.03 246.93C159.56 246.56 159.52 246.16 159.63 245.58C159.8 244.7 160.11 243.82 160.38 242.96C160.96 241.13 161.64 239.32 162.42 237.57C162.75 236.83 162.63 235.96 161.88 235.52C161.24 235.13 160.16 235.3 159.83 236.05Z" fill="#F7931E"/>
</g>
</g>
<g opacity="0.8">
<g opacity="0.8">
<path opacity="0.8" d="M128.38 261.09C131.54 263.16 135.3 262.37 138.83 262.75C138.86 262.75 139.28 262.81 139.27 262.82C139.16 262.68 139.04 262.54 138.93 262.39C139.01 262.38 139.01 262.45 138.94 262.6C138.8 262.98 138.88 263.65 138.86 264.04C138.79 265.1 138.72 266.15 138.64 267.2C138.47 269.4 138.25 271.6 137.99 273.79C137.9 274.6 138.75 275.29 139.49 275.29C140.38 275.29 140.9 274.6 140.99 273.79C141.26 271.46 141.49 269.13 141.67 266.79C141.76 265.64 141.84 264.5 141.9 263.35C141.97 262.17 141.92 260.92 140.79 260.23C139.95 259.71 138.78 259.73 137.82 259.69C136.88 259.65 135.93 259.66 134.99 259.65C133.2 259.62 131.42 259.51 129.88 258.5C128.27 257.44 126.77 260.04 128.38 261.09Z" fill="#F7931E"/>
</g>
</g>
<g opacity="0.8">
<g opacity="0.8">
<path opacity="0.8" d="M145.38 223.029C145.05 224.829 144.71 226.629 144.38 228.429C144.22 229.309 144.07 230.189 143.89 231.069C143.84 231.309 143.73 231.689 143.7 231.819C143.73 231.739 143.71 231.779 143.64 231.929C143.66 231.909 143.68 231.889 143.7 231.869C143.55 231.999 143.56 232.009 143.74 231.889C143.8 231.829 143.86 231.799 143.94 231.799C143.96 231.709 142.23 230.929 142.04 230.829C141.25 230.429 140.46 230.029 139.67 229.629C138.01 228.789 136.36 227.959 134.7 227.119C133.98 226.759 133.07 226.929 132.65 227.659C132.26 228.329 132.46 229.349 133.19 229.709C135.07 230.659 136.95 231.609 138.83 232.559C139.77 233.029 140.71 233.509 141.65 233.979C142.59 234.449 143.59 235.019 144.68 234.679C146.63 234.069 146.8 231.779 147.11 230.089C147.5 227.999 147.89 225.899 148.27 223.809C148.42 223.009 148.05 222.189 147.22 221.959C146.5 221.779 145.53 222.229 145.38 223.029Z" fill="#F7931E"/>
</g>
</g>
<g opacity="0.8">
<g opacity="0.8">
<path opacity="0.8" d="M102.68 201.63C101.75 204.01 100.58 206.29 99.23 208.47C98.6 209.48 99.43 210.67 100.53 210.73C104.39 210.94 108.25 211.14 112.11 211.35C112.92 211.39 113.61 210.63 113.61 209.85C113.61 209 112.92 208.39 112.11 208.35C108.25 208.14 104.39 207.94 100.53 207.73C100.96 208.48 101.39 209.23 101.83 209.99C103.31 207.59 104.55 205.06 105.58 202.43C105.88 201.68 105.25 200.78 104.53 200.58C103.68 200.35 102.98 200.87 102.68 201.63Z" fill="#F7931E"/>
</g>
</g>
<g opacity="0.8">
<g opacity="0.8">
<path opacity="0.8" d="M123.39 213.74C127.05 211.94 130.31 209.36 132.89 206.2C132.18 206.2 131.48 206.2 130.77 206.2C133.01 208.24 135.25 210.27 137.49 212.31C138.92 213.61 141.04 211.49 139.61 210.19C137.37 208.15 135.13 206.12 132.89 204.08C132.34 203.58 131.3 203.43 130.77 204.08C128.33 207.06 125.33 209.45 121.87 211.15C121.14 211.51 120.94 212.54 121.33 213.2C121.77 213.94 122.66 214.09 123.39 213.74Z" fill="#F7931E"/>
</g>
</g>
<g opacity="0.8">
<g opacity="0.8">
<path opacity="0.8" d="M160.78 194.57C159.57 196.37 158.36 198.17 157.15 199.97C156.59 200.81 155.91 201.63 155.46 202.53C154.87 203.7 155.25 205.01 156.42 205.62C157.33 206.09 158.47 206.26 159.45 206.5C160.45 206.75 161.45 206.97 162.46 207.18C164.61 207.62 166.77 207.97 168.95 208.25C169.75 208.35 170.45 207.49 170.45 206.75C170.45 205.85 169.76 205.36 168.95 205.25C166.96 204.99 164.99 204.65 163.03 204.23C162.02 204.02 161.02 203.79 160.02 203.54C159.56 203.43 159.1 203.31 158.64 203.18C158.44 203.13 158.17 202.99 157.95 202.99C157.78 202.93 157.75 202.92 157.86 202.98C157.94 203.08 158.02 203.17 158.1 203.26C158.1 203.53 158.1 203.79 158.1 204.06C158.14 203.75 158.36 203.52 158.53 203.26C158.75 202.93 158.98 202.59 159.2 202.26C159.67 201.56 160.14 200.86 160.61 200.16C161.53 198.79 162.45 197.43 163.37 196.06C163.82 195.39 163.5 194.4 162.83 194.01C162.1 193.6 161.24 193.89 160.78 194.57Z" fill="#F7931E"/>
</g>
</g>
<g opacity="0.8">
<g opacity="0.8">
<path opacity="0.8" d="M95.94 225.839C98.19 227.269 100.52 228.539 102.95 229.629C104.17 230.179 105.41 230.689 106.66 231.159C107.29 231.399 107.93 231.619 108.58 231.829C108.86 231.919 109.13 232.009 109.41 232.099C109.57 232.149 109.72 232.199 109.88 232.249C109.69 232.099 109.68 232.119 109.85 232.299C109.72 232.079 109.59 231.859 109.46 231.639C109.67 232.159 108.9 233.199 108.55 233.619C107.94 234.339 107.19 234.919 106.42 235.449C104.36 236.839 102.16 238.049 100.03 239.329C98.38 240.319 99.88 242.919 101.54 241.919C103.97 240.459 106.55 239.119 108.81 237.409C109.83 236.639 110.75 235.789 111.46 234.709C112.12 233.709 112.74 232.249 112.43 231.039C112.05 229.529 110.34 229.279 109.1 228.849C107.76 228.399 106.43 227.899 105.13 227.329C102.47 226.169 99.91 224.799 97.46 223.239C95.82 222.209 94.32 224.809 95.94 225.839Z" fill="#F7931E"/>
</g>
</g>
<g opacity="0.8">
<g opacity="0.8">
<path opacity="0.8" d="M115.38 244.85C114.45 248.96 113.52 253.08 112.58 257.19C112.51 257.5 112.28 257.76 112.71 257.47C113.2 257.14 112.92 257.33 112.76 257.28C112.36 257.15 111.66 257.28 111.25 257.28C110.19 257.28 109.13 257.28 108.07 257.28C105.9 257.28 103.73 257.28 101.56 257.28C99.63 257.28 99.63 260.28 101.56 260.28C103.93 260.28 106.3 260.29 108.67 260.28C109.83 260.28 110.99 260.28 112.15 260.27C113.28 260.27 114.42 260.21 115.08 259.14C115.61 258.29 115.69 257.02 115.91 256.06C116.17 254.93 116.42 253.81 116.68 252.68C117.21 250.33 117.75 247.98 118.28 245.63C118.69 243.77 115.8 242.97 115.38 244.85Z" fill="#F7931E"/>
</g>
</g>
<g opacity="0.8">
<g opacity="0.8">
<path opacity="0.8" d="M98.62 277.859C98.6 278.309 98.42 278.799 98.06 279.349C97.72 279.869 97.29 280.309 96.78 280.839C96.25 281.379 95.71 281.899 95.21 282.459C94.61 283.139 93.9 283.899 93.9 284.859C93.9 286.089 94.92 286.659 95.88 287.149C96.82 287.629 97.76 288.119 98.69 288.599C100.57 289.569 102.44 290.529 104.32 291.499C105.04 291.869 105.95 291.689 106.37 290.959C106.76 290.289 106.55 289.279 105.83 288.909C104.1 288.019 102.37 287.129 100.63 286.229C99.8 285.799 98.97 285.379 98.14 284.949C97.71 284.729 97.27 284.509 96.84 284.279C96.75 284.239 96.66 284.189 96.58 284.139C96.54 285.179 96.64 285.519 96.87 285.139C96.98 285.019 97 284.959 97.05 284.899C98.87 282.669 101.45 281.009 101.61 277.859C101.65 277.049 100.89 276.359 100.11 276.359C99.28 276.359 98.67 277.049 98.62 277.859Z" fill="#F7931E"/>
</g>
</g>
<g opacity="0.8">
<g opacity="0.8">
<path opacity="0.8" d="M118.8 285.689C120.22 286.619 121.58 287.619 122.87 288.709C123.49 289.239 124.1 289.779 124.69 290.339C125.24 290.859 126.08 291.469 126.39 292.169C126.32 291.919 126.25 291.669 126.19 291.409C126.51 291.009 126.52 290.919 126.22 291.139C126.14 291.179 126.06 291.229 125.99 291.269C125.72 291.429 125.45 291.589 125.18 291.749C124.72 292.029 124.27 292.329 123.84 292.639C122.89 293.309 121.98 294.029 121.11 294.789C119.4 296.309 117.91 298.029 116.59 299.889C116.12 300.549 116.47 301.559 117.13 301.939C117.88 302.379 118.71 302.059 119.18 301.399C120.4 299.679 121.84 298.109 123.44 296.719C124.22 296.039 125.05 295.409 125.91 294.829C126.77 294.259 127.89 293.819 128.6 293.069C130.58 290.979 127.3 288.589 125.87 287.319C124.13 285.769 122.27 284.349 120.32 283.079C118.69 282.039 117.19 284.629 118.8 285.689Z" fill="#F7931E"/>
</g>
</g>
<g opacity="0.8">
<g opacity="0.8">
<path opacity="0.8" d="M164.49 274.079C160.27 277.349 156.18 280.769 152.2 284.329C151.46 284.989 151.72 286.209 152.5 286.689C156.07 288.869 159.38 291.399 162.41 294.279C163.81 295.609 165.93 293.489 164.53 292.159C161.32 289.109 157.79 286.409 154.01 284.099C154.11 284.889 154.21 285.669 154.31 286.459C158.28 282.899 162.38 279.479 166.6 276.209C167.24 275.709 167.12 274.609 166.6 274.089C165.98 273.439 165.13 273.579 164.49 274.079Z" fill="#F7931E"/>
</g>
</g>
<g opacity="0.8">
<g opacity="0.8">
<path opacity="0.8" d="M151.26 311.699C149.07 308.859 147.04 305.899 145.17 302.829C144.73 302.109 143.85 301.909 143.12 302.289C138.3 304.789 133.47 307.289 128.65 309.789C126.94 310.679 128.45 313.269 130.16 312.379C134.98 309.879 139.81 307.379 144.63 304.879C143.95 304.699 143.26 304.519 142.58 304.339C144.45 307.409 146.48 310.359 148.67 313.209C149.17 313.859 149.95 314.189 150.72 313.749C151.35 313.389 151.75 312.339 151.26 311.699Z" fill="#F7931E"/>
</g>
</g>
<g opacity="0.8">
<g opacity="0.8">
<path opacity="0.8" d="M93.9699 322.43C96.0299 323.45 98.1999 324.24 100.46 324.69C101.6 324.92 102.75 325.07 103.91 325.15C104.48 325.19 105.05 325.2 105.62 325.2C105.75 325.2 105.87 325.2 106 325.2C106.16 325.23 106.14 325.16 105.92 325.01C105.89 325.13 105.89 325.27 105.87 325.39C105.41 327.75 104.51 330.09 103.84 332.4C103.13 334.84 102.41 337.29 101.7 339.73C101.16 341.59 104.05 342.38 104.59 340.53C105.39 337.79 106.19 335.04 106.99 332.3C107.37 330.99 107.76 329.68 108.14 328.36C108.49 327.17 109.02 325.91 108.88 324.65C108.55 321.61 105.05 322.29 102.89 322.04C100.32 321.75 97.7999 320.97 95.4899 319.82C93.7599 318.98 92.2299 321.57 93.9699 322.43Z" fill="#F7931E"/>
</g>
</g>
<g opacity="0.8">
<g opacity="0.8">
<path opacity="0.8" d="M131.45 327.53C129.11 327.87 126.72 327.88 124.37 327.64C123.6 327.56 122.81 328.39 122.87 329.14C123.21 333.65 122.77 338.14 121.54 342.49C121.02 344.35 123.91 345.15 124.43 343.29C125.72 338.7 126.22 333.9 125.87 329.15C125.37 329.65 124.87 330.15 124.37 330.65C127.01 330.92 129.63 330.81 132.25 330.43C133.05 330.31 133.49 329.3 133.3 328.58C133.06 327.71 132.26 327.41 131.45 327.53Z" fill="#F7931E"/>
</g>
</g>
<g opacity="0.8">
<g opacity="0.8">
<path opacity="0.8" d="M159.68 338.05C161.5 338.31 163.33 338.57 165.15 338.84C166.11 338.98 167.06 339.11 168.02 339.25C168.45 339.31 168.89 339.37 169.32 339.44C169.58 339.48 169.84 339.51 170.1 339.55C170.42 339.6 170.6 339.8 170.23 339.3C169.87 338.82 169.99 339.08 169.94 339.47C169.91 339.69 169.89 339.91 169.86 340.13C169.8 340.61 169.74 341.1 169.69 341.58C169.58 342.5 169.47 343.42 169.36 344.35C169.13 346.24 168.91 348.13 168.68 350.01C168.58 350.82 169.44 351.51 170.18 351.51C171.07 351.51 171.58 350.82 171.68 350.01C171.93 347.9 172.19 345.8 172.44 343.69C172.56 342.68 172.68 341.67 172.8 340.66C172.93 339.61 173.26 338.4 172.5 337.51C171.82 336.71 170.83 336.65 169.86 336.51C168.82 336.36 167.78 336.21 166.73 336.06C164.65 335.76 162.56 335.46 160.48 335.16C159.68 335.05 158.87 335.36 158.63 336.21C158.44 336.91 158.87 337.94 159.68 338.05Z" fill="#F7931E"/>
</g>
</g>
<g opacity="0.8">
<g opacity="0.8">
<path opacity="0.8" d="M182.22 323.959C178.51 323.879 174.88 323.159 171.39 321.879C171.74 322.499 172.09 323.109 172.44 323.729C173.43 319.699 175.24 315.979 177.76 312.679C178.25 312.039 177.86 310.999 177.22 310.629C176.45 310.179 175.66 310.519 175.17 311.169C172.51 314.649 170.59 318.679 169.54 322.929C169.33 323.769 169.81 324.489 170.59 324.779C174.31 326.149 178.25 326.879 182.21 326.969C184.15 327.009 184.15 324.009 182.22 323.959Z" fill="#F7931E"/>
</g>
</g>
<g opacity="0.8">
<g opacity="0.8">
<path opacity="0.8" d="M171.41 290.36C174.06 292.5 176.72 294.64 179.37 296.78C179.96 297.25 180.54 297.84 181.28 298.04C182.1 298.26 182.83 297.91 183.52 297.49C185.02 296.57 186.52 295.65 188.02 294.73C189.66 293.72 188.16 291.13 186.51 292.14C185.26 292.91 184.01 293.67 182.76 294.44C182.5 294.6 181.94 294.81 181.76 295.05C181.4 295.22 181.55 295.26 182.18 295.19C182.13 295.28 182.05 295.23 181.95 295.02C181.41 294.61 180.89 294.16 180.36 293.74C178.08 291.91 175.81 290.07 173.53 288.24C172.9 287.73 172.02 287.62 171.41 288.24C170.89 288.76 170.78 289.85 171.41 290.36Z" fill="#F7931E"/>
</g>
</g>
<g opacity="0.8">
<g opacity="0.8">
<path opacity="0.8" d="M182.83 237.29C182.76 237.46 182.69 237.63 182.62 237.8C182.68 237.66 182.66 237.71 182.61 237.82C182.57 237.9 182.54 237.99 182.5 238.07C182.35 238.41 182.19 238.74 182.03 239.07C181.69 239.75 181.33 240.41 180.94 241.06C180.56 241.69 180.16 242.3 179.73 242.9C179.62 243.05 179.52 243.2 179.41 243.34C179.36 243.41 179.3 243.49 179.24 243.56C179.1 243.75 179.37 243.4 179.22 243.58C178.98 243.88 178.73 244.19 178.48 244.48C177.97 245.08 177.85 246.02 178.48 246.6C179.04 247.11 180.06 247.24 180.6 246.6C182.78 244.04 184.48 241.19 185.71 238.07C186 237.34 185.39 236.39 184.66 236.22C183.82 236.05 183.15 236.51 182.83 237.29Z" fill="#F7931E"/>
</g>
</g>
<g opacity="0.8">
<g opacity="0.8">
<path opacity="0.8" d="M100.35 362.7C101.9 361.82 103.49 361 105.11 360.25C105.84 359.91 106.58 359.58 107.33 359.28C107.74 359.11 108.16 358.95 108.57 358.79C108.74 358.72 108.97 358.68 109.13 358.58C109.41 358.4 109.31 358.72 109.03 358.51C108.85 358.33 108.67 358.15 108.49 357.97C108.61 358.13 108.65 358.63 108.7 358.92C108.78 359.35 108.88 359.78 108.99 360.2C109.24 361.09 109.57 361.95 109.95 362.8C110.69 364.44 111.72 365.93 112.94 367.26C114.25 368.69 116.36 366.56 115.06 365.14C113.9 363.87 112.93 362.38 112.33 360.77C112.01 359.91 111.76 359.03 111.59 358.14C111.4 357.1 111.18 356.07 110.04 355.68C109.12 355.37 108.26 355.72 107.4 356.05C106.37 356.46 105.34 356.89 104.33 357.34C102.46 358.18 100.63 359.11 98.8399 360.12C97.1499 361.06 98.6599 363.65 100.35 362.7Z" fill="#F7931E"/>
</g>
</g>
<g opacity="0.8">
<g opacity="0.8">
<path opacity="0.8" d="M147.86 354.67C146.26 355.6 144.6 356.42 142.87 357.07C141.15 357.73 139.37 358.11 137.62 358.65C136.73 358.92 135.89 359.38 135.36 360.18C134.84 360.97 134.76 361.92 134.76 362.84C134.75 364.93 134.77 367.01 134.78 369.1C134.79 371.03 137.79 371.03 137.78 369.1C137.77 367.19 137.77 365.28 137.76 363.36C137.76 362.86 137.62 362.08 137.95 361.73C138.01 361.67 138.3 361.57 138.5 361.52C138.86 361.42 139.23 361.34 139.59 361.25C143.01 360.4 146.32 359.03 149.37 357.26C151.04 356.29 149.53 353.7 147.86 354.67Z" fill="#F7931E"/>
</g>
</g>
<g opacity="0.8">
<g opacity="0.8">
<path opacity="0.8" d="M185.36 365.61C184.34 365.26 183.73 364.21 183.15 363.36C182.43 362.32 181.65 361.32 180.72 360.45C179.12 358.96 176.46 356.79 174.12 357.44C171.6 358.14 169.08 359.67 166.83 360.98C164.39 362.39 162.09 364 159.88 365.74C158.36 366.93 160.5 369.04 162 367.86C163.95 366.33 166.02 364.93 168.16 363.68C169.26 363.04 170.37 362.43 171.51 361.87C172.08 361.59 172.65 361.31 173.23 361.05C173.71 360.83 174.36 360.41 174.89 360.35C175.76 360.25 177.03 361.3 177.7 361.81C178.63 362.51 179.48 363.38 180.17 364.32C181.43 366.04 182.43 367.78 184.56 368.51C186.39 369.13 187.18 366.23 185.36 365.61Z" fill="#F7931E"/>
</g>
</g>
<g opacity="0.8">
<g opacity="0.8">
<path opacity="0.8" d="M75.82 218.08C74.89 219.05 73.48 219.3 71.97 219.58C70.4 219.87 68.43 220.15 67.21 221.29C66.15 222.28 66.5 223.56 67.29 224.56C68 225.45 68.72 226.33 69.44 227.21C70.87 228.98 72.31 230.74 73.74 232.51C74.25 233.14 75.33 233.04 75.86 232.51C76.48 231.89 76.37 231.02 75.86 230.39C74.73 229 73.61 227.61 72.48 226.23C71.92 225.54 71.35 224.84 70.79 224.15C70.53 223.83 70.28 223.52 70.02 223.2C69.87 223.01 69.7 222.83 69.56 222.63C69.34 222.33 69.56 222.42 69.53 222.66C69.46 222.91 69.39 223.16 69.33 223.42C69.29 223.44 69.25 223.48 69.22 223.51C69.32 223.45 69.41 223.4 69.51 223.35C69.49 223.36 69.96 223.14 69.76 223.22C70.13 223.07 70.51 222.96 70.89 222.86C71.7 222.65 72.53 222.52 73.35 222.36C75.04 222.03 76.71 221.48 77.93 220.2C79.27 218.81 77.15 216.68 75.82 218.08Z" fill="#F7931E"/>
</g>
</g>
<g opacity="0.8">
<g opacity="0.8">
<path opacity="0.8" d="M55.59 247.01C57.47 247.01 59.36 247.02 61.24 247.02C62.14 247.02 63.04 247.02 63.94 247.03C64.19 247.03 64.43 247.03 64.68 247.03C64.76 247.03 64.84 247.03 64.93 247.03C65.12 247.05 65.15 247.04 65.04 247.02C64.87 246.78 64.7 246.54 64.53 246.3C64.54 246.49 64.54 246.55 64.52 246.47C64.47 246.6 64.43 246.86 64.39 247.05C63.59 250.64 62.58 254.17 61.38 257.64C61.11 258.41 61.68 259.28 62.43 259.49C63.26 259.72 64.01 259.21 64.28 258.44C64.97 256.46 65.59 254.45 66.15 252.43C66.43 251.42 66.69 250.4 66.94 249.38C67.18 248.39 67.59 247.24 67.54 246.21C67.39 243.48 64 244.03 62.12 244.03C59.95 244.03 57.78 244.02 55.61 244.02C53.66 244.01 53.66 247.01 55.59 247.01Z" fill="#F7931E"/>
</g>
</g>
<g opacity="0.8">
<g opacity="0.8">
<path opacity="0.8" d="M84.18 241.669C82.96 242.209 81.74 242.739 80.52 243.279C79.39 243.779 78.28 244.289 77.58 245.369C76.9 246.419 76.7 247.8 76.39 248.99C76.04 250.32 75.68 251.65 75.33 252.97C75.12 253.75 75.59 254.6 76.38 254.82C77.16 255.03 78.02 254.56 78.23 253.77C78.55 252.58 78.87 251.38 79.19 250.19C79.35 249.59 79.51 248.999 79.67 248.399C79.79 247.939 79.92 247.349 80.1 247.039C80.19 246.879 80.19 246.88 80.38 246.71C80.24 246.83 80.49 246.639 80.52 246.619C80.61 246.559 80.7 246.51 80.79 246.46C81.26 246.21 81.75 246.01 82.24 245.8C83.4 245.29 84.55 244.78 85.71 244.27C86.45 243.94 86.62 242.86 86.25 242.22C85.78 241.45 84.92 241.349 84.18 241.669Z" fill="#F7931E"/>
</g>
</g>
<g opacity="0.8">
<g opacity="0.8">
<path opacity="0.8" d="M184.29 217.41C187.54 219.6 190.8 221.78 194.04 223.98C194.7 224.42 194.71 224.56 194.67 225.37C194.62 226.31 194.56 227.25 194.48 228.18C194.31 230.1 194.07 232 193.76 233.9C193.63 234.7 193.97 235.51 194.81 235.75C195.53 235.95 196.52 235.51 196.66 234.7C197.01 232.54 197.29 230.36 197.48 228.18C197.65 226.27 198.22 223.76 196.7 222.26C196.03 221.59 195.13 221.11 194.36 220.58C193.41 219.94 192.46 219.3 191.51 218.66C189.61 217.38 187.71 216.1 185.81 214.82C184.19 213.74 182.69 216.33 184.29 217.41Z" fill="#F7931E"/>
</g>
</g>
<g opacity="0.8">
<g opacity="0.8">
<path opacity="0.8" d="M209.8 244.25C207.92 244.68 206.01 244.84 204.08 244.74C203.21 244.69 202.34 244.5 201.49 244.79C200.49 245.13 199.95 246.03 199.72 247.02C198.8 251 198.17 255.07 197.61 259.11C197.5 259.91 197.8 260.72 198.66 260.96C199.36 261.15 200.39 260.72 200.51 259.91C201.03 256.2 201.66 252.51 202.41 248.84C202.49 248.44 202.56 248.03 202.67 247.63C202.73 247.4 202.84 247.29 202.65 247.52C202.43 247.78 202.42 247.55 202.57 247.63C202.85 247.78 203.52 247.71 203.84 247.73C204.27 247.76 204.7 247.77 205.12 247.78C206.96 247.79 208.82 247.56 210.61 247.15C212.47 246.71 211.68 243.82 209.8 244.25Z" fill="#F7931E"/>
</g>
</g>
</g>
</g>
<defs>
<clipPath id="clip0">
<rect width="243.5" height="663.6" fill="white" transform="translate(12)"/>
</clipPath>
</defs>
</svg>
