<svg width="352" height="738" viewBox="0 0 352 738" fill="none" xmlns="http://www.w3.org/2000/svg">
<ellipse cx="169" cy="704.357" rx="125" ry="33.3567" fill="black" fill-opacity="0.1"/>
<g clip-path="url(#clip0)">
<path d="M119.61 208.73C120.32 209.53 113.43 214.5 103.12 219.75C92.81 225 83.13 228.43 82.42 227.63C81.71 226.83 90.12 220.87 100.42 215.63C110.72 210.39 118.9 207.93 119.61 208.73Z" fill="white" stroke="white" stroke-width="5.6693" stroke-miterlimit="10" stroke-linecap="round" stroke-linejoin="round"/>
<path d="M121.42 217.63C121.42 217.63 57.42 75.6301 62.01 62.7701C63.58 58.3901 71.2 38.5901 69.98 35.5101C68.76 32.4201 59.87 25.8801 59.42 23.8101C58.97 21.7401 53.91 6.5301 51.65 5.1401C49.39 3.7501 45.81 1.7101 42.98 3.5901C40.15 5.4701 37.41 9.6701 37.41 9.6701C37.41 9.6701 32.26 8.8001 29.63 9.9101C27 11.0201 25.14 15.7201 25.14 15.7201C25.14 15.7201 19.34 14.5601 15.5 17.0301C11.66 19.5001 12.53 23.1501 12.53 23.1501C12.53 23.1501 8.44 22.2001 5.57 24.3301C2.7 26.4601 2.4 33.2901 3.27 36.9401C4.14 40.5901 7.32 51.9001 9.45 54.7701C11.58 57.6401 22.37 66.2501 29.55 70.2401C37.43 74.6201 88.43 233.62 88.43 233.62L121.42 217.63Z" fill="white" stroke="white" stroke-width="5.6693" stroke-miterlimit="10" stroke-linecap="round" stroke-linejoin="round"/>
<path opacity="0.5" d="M39 69.4403C39 69.4403 35.71 57.6803 38.49 53.1603C41.27 48.6403 46.33 43.5703 46.33 43.5703C46.33 43.5703 42.23 44.5003 37.77 41.0003C33.31 37.5003 32.44 33.8503 32.57 32.3703C32.7 30.8903 39.31 30.2803 43.77 28.7303C48.23 27.1803 56.12 23.8503 57.14 24.0903C58.16 24.3303 59.44 23.7903 59.44 23.7903C59.44 23.7903 53.42 7.01029 52.2 5.68029C50.98 4.34029 49.73 4.05029 49.73 4.05029C49.73 4.05029 51.42 6.17029 52.96 10.6303C54.5 15.0903 57.27 22.6303 57.27 22.6303L42.88 27.0303L37.41 9.68029L34.56 9.39029L40.36 27.9503C40.36 27.9503 35.81 27.7503 33.29 29.3103C30.77 30.8703 30.22 32.7103 30.22 32.7103L23.68 15.5403L21.09 15.4803C21.09 15.4803 22.37 17.9203 24.9 26.4903C27.43 35.0603 32.36 41.6003 32.56 44.4503C32.76 47.3003 29.78 48.9703 27.04 49.6303C24.3 50.2903 20.58 46.8303 20.58 46.8303L11.88 23.0703L9.91 22.9803C9.91 22.9803 18.77 45.3303 18.86 47.7203C18.95 50.1103 17.69 50.8903 15.4 51.4403C13.12 51.9803 9.05 49.4703 8.12 45.4003C7.2 41.3303 2.84 32.3003 2.84 32.3003C2.84 32.3003 5.96 47.9103 7.04 49.5803C8.12 51.2503 9.12 53.4203 12.64 54.0303C16.16 54.6403 24.22 54.8003 27.26 54.0003C30.3 53.2003 35.78 51.8903 35.78 51.8903C35.78 51.8903 34.77 56.4903 35.78 60.3403C36.78 64.1803 39 69.4403 39 69.4403Z" fill="white" stroke="white" stroke-width="5.6693" stroke-miterlimit="10" stroke-linecap="round" stroke-linejoin="round"/>
<path d="M125.42 299.63C119.09 299.63 82.53 227.34 82.53 227.34L119.48 208.6L132.48 241.32C132.48 241.32 126.42 299.63 125.42 299.63Z" fill="white" stroke="white" stroke-width="5.6693" stroke-miterlimit="10" stroke-linecap="round" stroke-linejoin="round"/>
<path d="M231.71 208.73C231 209.53 237.89 214.5 248.2 219.75C258.5 224.99 268.19 228.43 268.9 227.63C269.61 226.83 261.2 220.87 250.9 215.63C240.59 210.38 232.41 207.93 231.71 208.73Z" fill="white" stroke="white" stroke-width="5.6693" stroke-miterlimit="10" stroke-linecap="round" stroke-linejoin="round"/>
<path d="M229.89 217.63C229.89 217.63 293.89 75.6299 289.3 62.7699C287.73 58.3899 280.11 38.5899 281.33 35.5099C282.55 32.4199 291.44 25.8799 291.89 23.8099C292.34 21.7399 297.41 6.53986 299.67 5.14986C301.93 3.75986 305.51 1.71986 308.34 3.59986C311.17 5.47986 313.91 9.67986 313.91 9.67986C313.91 9.67986 319.06 8.80986 321.69 9.91986C324.32 11.0299 326.18 15.7299 326.18 15.7299C326.18 15.7299 331.98 14.5699 335.82 17.0399C339.66 19.5099 338.79 23.1599 338.79 23.1599C338.79 23.1599 342.88 22.2099 345.75 24.3399C348.62 26.4699 348.92 33.2999 348.05 36.9499C347.18 40.5999 344 51.9099 341.87 54.7799C339.74 57.6499 328.95 66.2599 321.77 70.2499C313.89 74.6299 262.89 233.63 262.89 233.63L229.89 217.63Z" fill="white" stroke="white" stroke-width="5.6693" stroke-miterlimit="10" stroke-linecap="round" stroke-linejoin="round"/>
<path opacity="0.5" d="M312.32 69.44C312.32 69.44 315.61 57.68 312.83 53.16C310.05 48.64 304.99 43.57 304.99 43.57C304.99 43.57 309.1 44.51 313.56 41.01C318.02 37.51 318.89 33.86 318.76 32.38C318.63 30.9 312.02 30.29 307.56 28.74C303.1 27.19 295.21 23.86 294.19 24.1C293.17 24.34 291.89 23.8 291.89 23.8C291.89 23.8 297.9 7.01004 299.12 5.67004C300.34 4.33004 301.59 4.04004 301.59 4.04004C301.59 4.04004 299.9 6.16004 298.36 10.62C296.81 15.08 294.05 22.62 294.05 22.62L308.44 27.02L313.91 9.68004L316.76 9.39004L310.96 27.95C310.96 27.95 315.51 27.75 318.03 29.31C320.55 30.87 321.1 32.71 321.1 32.71L327.64 15.54L330.23 15.48C330.23 15.48 328.95 17.92 326.42 26.49C323.89 35.06 318.96 41.6 318.76 44.45C318.56 47.3 321.54 48.97 324.28 49.63C327.02 50.28 330.74 46.83 330.74 46.83L339.44 23.07L341.41 22.98C341.41 22.98 332.55 45.33 332.46 47.72C332.37 50.11 333.63 50.89 335.92 51.44C338.2 51.98 342.27 49.47 343.2 45.4C344.13 41.33 348.48 32.3 348.48 32.3C348.48 32.3 345.36 47.91 344.28 49.58C343.2 51.25 342.2 53.42 338.68 54.03C335.16 54.64 327.1 54.8 324.06 54C321.02 53.2 315.54 51.89 315.54 51.89C315.54 51.89 316.55 56.49 315.54 60.34C314.53 64.19 312.32 69.44 312.32 69.44Z" fill="white" stroke="white" stroke-width="5.6693" stroke-miterlimit="10" stroke-linecap="round" stroke-linejoin="round"/>
<path d="M225.89 299.63C232.22 299.63 268.78 227.34 268.78 227.34L231.83 208.6L218.83 241.32C218.83 241.32 224.89 299.63 225.89 299.63Z" fill="white" stroke="white" stroke-width="5.6693" stroke-miterlimit="10" stroke-linecap="round" stroke-linejoin="round"/>
<path d="M128.72 407.44L116.5 483.56C116.5 483.56 122.28 495.54 138.69 495.86C155.1 496.18 168.01 493.12 168.01 493.12C168.01 493.12 174.24 463.89 177.06 463.36C179.89 462.84 182.14 491.41 185.72 494.65C189.29 497.89 208.91 496.82 215.81 495.88C235.31 493.25 242.87 488.22 242.87 488.22L228.64 405.07L128.72 407.44Z" fill="white" stroke="white" stroke-width="5.6693" stroke-miterlimit="10" stroke-linecap="round" stroke-linejoin="round"/>
<path d="M200.63 550.36C202.69 545.97 223.83 545.97 224.56 550.36C225.28 554.75 217.12 634.65 217.12 634.65H205.76C205.76 634.64 199.04 553.75 200.63 550.36Z" fill="white" stroke="white" stroke-width="5.6693" stroke-miterlimit="10" stroke-linecap="round" stroke-linejoin="round"/>
<path d="M192.52 701.73C184.26 697.96 177.18 680.39 184.26 672.86C191.34 665.33 192.52 654.03 210.22 654.03C229.1 654.03 238.46 669.09 242.08 681.64C245.58 693.75 236.53 702.98 225.91 702.98C215.29 702.98 192.52 701.73 192.52 701.73Z" fill="white" stroke="white" stroke-width="5.6693" stroke-miterlimit="10" stroke-linecap="round" stroke-linejoin="round"/>
<path d="M217.12 650.46V634.64H205.76V651.05C201.33 653.35 198.3 657.97 198.3 663.3C198.3 663.3 200.43 665.62 212.5 665.3C220.43 665.09 225.91 663.3 225.91 663.3C225.91 657.46 222.26 652.47 217.12 650.46Z" fill="white" stroke="white" stroke-width="5.6693" stroke-miterlimit="10" stroke-linecap="round" stroke-linejoin="round"/>
<path opacity="0.5" d="M212.73 552.24C218.971 552.24 224.03 551.116 224.03 549.73C224.03 548.344 218.971 547.22 212.73 547.22C206.489 547.22 201.43 548.344 201.43 549.73C201.43 551.116 206.489 552.24 212.73 552.24Z" fill="white" stroke="white" stroke-width="5.6693" stroke-miterlimit="10" stroke-linecap="round" stroke-linejoin="round"/>
<path d="M213.36 529.65C210.93 529.65 208.97 530.77 208.97 532.16V548.48C208.97 549.87 210.94 550.99 213.36 550.99C215.79 550.99 217.75 549.87 217.75 548.48V532.16C217.75 530.77 215.78 529.65 213.36 529.65Z" fill="white" stroke="white" stroke-width="5.6693" stroke-miterlimit="10" stroke-linecap="round" stroke-linejoin="round"/>
<path opacity="0.4" d="M167.55 492C167.25 494.41 151.81 495.6 138.68 494.51C123.62 493.25 117.05 486.88 117.34 484.47C117.63 482.06 126.13 486.98 142.98 488.27C156.12 489.27 167.85 489.59 167.55 492Z" fill="white" stroke="white" stroke-width="5.6693" stroke-miterlimit="10" stroke-linecap="round" stroke-linejoin="round"/>
<path d="M124.88 484.47C123.12 498.14 126.33 525.82 124.03 538.09C121.73 550.36 116.27 590.42 116.72 601.82C117.33 617.37 120.49 653.28 120.49 653.28H142.37C142.37 653.28 154.37 572.96 153.12 552.88C151.86 532.8 158.75 497.11 160.02 492.01C162.53 481.96 124.88 484.47 124.88 484.47Z" fill="white" stroke="white" stroke-width="5.6693" stroke-miterlimit="10" stroke-linecap="round" stroke-linejoin="round"/>
<path d="M149.35 702.22C158.14 698.45 165.67 680.88 158.14 673.35C150.61 665.82 149.35 654.52 130.53 654.52C110.45 654.52 95.39 669.58 96.64 682.13C97.9 694.68 104.17 702.21 115.47 702.21C126.77 702.21 149.35 702.22 149.35 702.22Z" fill="white" stroke="white" stroke-width="5.6693" stroke-miterlimit="10" stroke-linecap="round" stroke-linejoin="round"/>
<path d="M117.09 609.3L148.62 609.82L142.37 658.92C142.37 658.92 139.83 661.21 132.13 660.92C124.43 660.63 120.49 658.92 120.49 658.92L117.09 609.3Z" fill="white" stroke="white" stroke-width="5.6693" stroke-miterlimit="10" stroke-linecap="round" stroke-linejoin="round"/>
<path d="M117.59 616.99L147.66 617.37L146.76 624.46H118.15L117.59 616.99Z" fill="white" stroke="white" stroke-width="5.6693" stroke-miterlimit="10" stroke-linecap="round" stroke-linejoin="round"/>
<path opacity="0.4" d="M185.73 494.65C185.73 494.65 193.52 499.02 214.42 496.14C235.32 493.26 242.89 488.23 242.89 488.23C242.89 488.23 237.97 487.69 232.25 487.97C226.53 488.25 207.71 485.73 196.41 488.24C185.12 490.74 185.73 494.65 185.73 494.65Z" fill="white" stroke="white" stroke-width="5.6693" stroke-miterlimit="10" stroke-linecap="round" stroke-linejoin="round"/>
<path d="M196.42 488.23C196.42 488.23 189.52 545.33 214.62 540.31C239.72 535.29 232.26 487.95 232.26 487.95C232.26 487.95 215.25 486.97 208.98 486.97C202.71 486.97 196.42 488.23 196.42 488.23Z" fill="white" stroke="white" stroke-width="5.6693" stroke-miterlimit="10" stroke-linecap="round" stroke-linejoin="round"/>
<g opacity="0.3">
<path opacity="0.3" d="M128.36 558.98C131.01 560.89 134.36 561.82 137.61 561.54C139.68 561.36 141.69 560.72 143.61 559.92" fill="white"/>
<path opacity="0.3" d="M128.36 558.98C130.13 558.79 131.42 558.76 132.64 558.71C133.84 558.69 134.91 558.68 135.97 558.74C137.03 558.78 138.07 558.88 139.31 559.01C140.55 559.17 141.93 559.34 143.62 559.91C142.84 561.51 141.69 562.58 140.33 563.35C138.97 564.1 137.33 564.48 135.71 564.4C134.1 564.32 132.52 563.81 131.19 562.91C129.87 562 128.77 560.71 128.36 558.98Z" fill="white"/>
</g>
<path d="M218.42 241.63C214.52 233.28 145.42 231.63 133.42 240.63C122.11 249.12 122.42 416.63 124.42 420.63C126.42 424.63 230.36 418.63 230.89 414.63C231.42 410.63 225.42 256.63 218.42 241.63Z" fill="white" stroke="white" stroke-width="5.6693" stroke-miterlimit="10" stroke-linecap="round" stroke-linejoin="round"/>
<path d="M112.26 136.69C111.63 136.35 109.73 136.04 109.06 135.84C106.83 135.19 104.36 136.45 102.98 138.93C101.3 141.96 101.32 146.11 101.49 149.92C101.6 152.58 101.76 155.32 102.68 157.67C103.06 158.65 103.57 159.52 104.07 160.39C105.06 162.1 106.06 163.8 107.2 165.32C110.63 169.88 110.66 169.46 115.06 172.02L112.26 136.69Z" fill="white" stroke="white" stroke-width="5.6693" stroke-miterlimit="10" stroke-linecap="round" stroke-linejoin="round"/>
<path d="M154.47 219.32C155.09 222.7 155.44 226.13 155.52 229.57C155.58 231.92 155.39 234.55 153.65 236.14C153.38 236.39 153.06 236.62 152.96 236.98C152.9 237.17 152.92 237.38 152.94 237.58C153.22 239.76 154.8 241.61 156.68 242.76C158.56 243.91 160.73 244.46 162.87 244.98C169.59 246.61 177.03 247.98 183.13 244.72C186.36 242.99 188.83 240.14 191.17 237.32C191.53 236.88 191.91 236.41 192 235.84C192.07 235.37 191.93 234.89 191.8 234.43C190.62 230.2 190.48 225.69 191.38 221.4C191.48 220.92 191.57 216.35 191.23 216C190.91 215.67 190.38 219.7 189.93 219.76C178.55 221.17 166.92 220.59 155.73 218.04L154.47 219.32Z" fill="white" stroke="white" stroke-width="5.6693" stroke-miterlimit="10" stroke-linecap="round" stroke-linejoin="round"/>
<path d="M228.84 178.68C227.57 185.1 240.02 171.53 243.91 166.26C245.21 164.5 246.28 162.6 247.34 160.69C247.88 159.72 248.42 158.74 248.77 157.69C249.63 155.17 249.4 152.42 249.11 149.78C248.71 145.99 248.06 141.89 245.29 139.28C243.01 137.14 239.47 136.46 236.56 137.6C235.69 137.94 233.18 138.67 232.38 139.15C232.39 139.15 229.53 175.18 228.84 178.68Z" fill="white" stroke="white" stroke-width="5.6693" stroke-miterlimit="10" stroke-linecap="round" stroke-linejoin="round"/>
<path d="M228.72 189.69C217.58 208.26 196.59 220.94 175.07 223.32C153.55 225.7 127.25 212.43 117.9 192.9C110.8 178.08 113.08 163.99 111.63 147.98C110.26 132.9 106.24 115.56 111.47 101.35C113.32 96.3201 117.47 81.2001 121.11 77.2601C135.82 61.3401 149.64 63.0401 171.31 63.5401C182.37 63.8001 193.11 67.1101 203.64 70.5001C214 73.8301 219.87 74.1301 228.72 80.4701C237.57 86.8101 242.59 95.3001 243.18 106.17C243.48 111.68 238.78 135.28 237.43 140.63C237.42 140.63 238.36 173.63 228.72 189.69Z" fill="white" stroke="white" stroke-width="5.6693" stroke-miterlimit="10" stroke-linecap="round" stroke-linejoin="round"/>
<path d="M227.39 98.7902C225.37 98.8402 224.29 101.45 224.88 103.38C225.47 105.31 227.09 106.71 228.47 108.19C229.85 109.67 231.11 111.58 230.73 113.57C230.46 114.99 229.37 116.19 229.27 117.63C229.04 120.78 233.16 122.25 234.83 124.93C236.3 127.29 235.71 130.32 235.34 133.08C234.97 135.84 235.12 139.14 237.41 140.73C240.05 142.55 243.62 140.89 246.26 139.07C249.06 137.13 251.98 134.59 252.18 131.18C252.33 128.74 251.01 126.38 251.22 123.94C251.47 121.01 253.83 118.71 254.7 115.91C255.91 112 251.46 106.58 250.43 102.62C249.58 99.3202 251.92 97.2002 252.17 93.8002C252.34 91.4602 252.7 88.8502 251.25 87.0102C250.36 85.8802 248.98 85.3102 247.7 84.6602C239.67 80.6102 234.18 71.9402 233.93 62.9502C228.67 67.9202 218.83 66.3902 215.31 60.0702C210.23 63.0602 203.79 66.0802 198.78 62.9702C196.38 61.4802 194.94 58.8802 193.2 56.6502C191.46 54.4202 188.94 52.3502 186.13 52.6902C183.42 53.0202 181.22 55.5402 178.5 55.3902C174.7 55.1802 172.15 49.9102 168.44 50.7602C166.75 51.1502 165.57 52.7502 163.89 53.1902C160.15 54.1802 155.76 49.1302 152.92 51.7602C152.32 52.3102 152 53.1002 151.43 53.6802C149.38 55.7702 145.95 54.0702 143.06 53.5902C138.1 52.7602 132.87 56.8102 132.43 61.8202C129.19 62.2102 125.86 62.6402 123.01 64.2102C120.15 65.7802 117.84 68.8102 118.11 72.0602C118.17 72.7802 118.34 73.5502 118 74.1802C117.69 74.7502 117.05 75.0502 116.55 75.4602C114.78 76.9102 114.85 79.5702 114.09 81.7302C113.1 84.5602 110.64 86.5802 108.86 88.9902C107.08 91.4102 106.07 95.0202 108.07 97.2502C104.84 100.58 101.36 104.68 102.15 109.25C102.29 110.07 102.57 110.88 102.48 111.71C102.27 113.47 100.52 114.55 99.39 115.91C96.69 119.18 98.23 124.95 102.21 126.42C99.94 126.9 99.08 130.01 100.16 132.06C101.24 134.11 103.54 135.21 105.78 135.82C107.4 136.26 108.85 141.19 110.43 140.61C112.01 140.03 113.61 133.71 113.3 132.06C113.17 131.36 113.63 132.3 113.43 131.61C112.01 126.84 118.75 121.41 117.43 116.61C116.89 114.64 115.15 113.39 114.47 111.46C113.51 108.75 115.4 105.91 117.4 103.85C119.4 101.79 123.19 105.47 123.43 102.61C123.64 100.18 120.79 91.8502 121.63 89.5702C122.67 86.7402 127.41 89.6602 130.43 89.6102C133.45 89.5702 135.98 85.7902 137.49 83.1802C138.26 81.8402 138.48 79.9102 139.94 79.4202C141.87 78.7602 143.2 81.2502 144.51 82.8102C146.35 85.0002 149.48 85.7302 152.32 85.3902C155.16 85.0402 157.78 83.7802 160.35 82.5302C163.19 86.6302 167.96 89.3402 172.94 89.6702C178.44 90.0302 184.49 87.7802 189.17 90.6802C190.99 91.8102 192.47 93.6702 194.58 94.0002C197.57 94.4702 201.02 91.7402 203.36 93.6602C204.02 94.2002 204.39 95.0102 204.86 95.7202C207.18 99.1902 212.57 100.08 215.88 97.5402C217.67 100.26 220.62 102.18 223.83 102.71" fill="white"/>
<path d="M227.39 90.2902C225.41 90.4702 223.74 90.6802 222 91.7602C220.42 92.7402 219.11 94.0102 218.12 95.5802C216.82 97.6402 216.06 100.34 216.25 102.79C216.52 106.27 217.95 109.02 220.13 111.68C221.12 112.88 222.28 113.93 223.26 115.15C222.82 114.58 222.37 114 221.93 113.43C222.35 113.99 222.7 114.55 223 115.18C222.71 114.5 222.43 113.83 222.14 113.15C222.34 113.65 222.49 114.13 222.57 114.67C222.47 113.92 222.37 113.16 222.27 112.41C222.3 112.67 222.3 112.93 222.28 113.19C222.38 112.44 222.48 111.68 222.58 110.93C222.51 111.47 222.36 111.94 222.16 112.45C222.45 111.77 222.73 111.1 223.02 110.42C221.86 112.95 220.86 115.1 220.75 117.94C220.67 120.08 221.49 122.63 222.69 124.38C223.66 125.79 224.73 127 226.02 128.1C226.89 128.85 227.76 129.58 228.48 130.47C228.04 129.9 227.59 129.32 227.15 128.75C227.43 129.13 227.65 129.51 227.86 129.93C227.57 129.25 227.29 128.58 227 127.9C227.25 128.51 227.4 129.11 227.5 129.76C227.4 129.01 227.3 128.25 227.2 127.5C227.34 128.84 227.23 130.17 227.06 131.5C227.16 130.75 227.26 129.99 227.36 129.24C226.68 134.25 226.03 139.36 228.94 143.9C230.75 146.72 233.66 149.03 237.01 149.67C240.75 150.38 244.01 149.7 247.43 148.17C251.64 146.29 255.53 143.04 258.12 139.23C259.72 136.88 260.57 134.01 260.69 131.19C260.8 128.54 259.91 125.98 259.49 123.4C259.59 124.15 259.69 124.91 259.79 125.66C259.7 124.95 259.68 124.28 259.77 123.57C259.67 124.32 259.57 125.08 259.47 125.83C259.58 125.2 259.76 124.62 259.99 124.03C259.7 124.71 259.42 125.38 259.13 126.06C259.9 124.29 261.01 122.7 261.79 120.93C262.72 118.82 263.22 117.41 263.38 115.08C263.47 113.73 263.25 112.36 263 111.03C262.26 107.13 259.92 103.68 258.38 100.07C258.67 100.75 258.95 101.42 259.24 102.1C258.91 101.28 258.63 100.47 258.49 99.5902C258.59 100.34 258.69 101.1 258.79 101.85C258.75 101.36 258.75 100.9 258.8 100.41C258.7 101.16 258.6 101.92 258.5 102.67C258.8 100.77 259.8 99.1002 260.2 97.2302C260.91 93.9302 261.09 90.3102 260.41 86.9902C259.63 83.1802 256.93 79.9702 253.58 78.1102C251.75 77.1002 249.94 76.2202 248.26 74.9502C248.83 75.3902 249.41 75.8402 249.98 76.2802C248.22 74.9102 246.67 73.3502 245.3 71.6002C245.74 72.1702 246.19 72.7502 246.63 73.3202C245.28 71.5502 244.17 69.6402 243.28 67.6002C243.57 68.2802 243.85 68.9502 244.14 69.6302C243.28 67.5802 242.68 65.4502 242.36 63.2502C242.46 64.0002 242.56 64.7602 242.66 65.5102C242.55 64.6502 242.48 63.8002 242.45 62.9402C242.33 59.5102 240.41 56.5102 237.22 55.1702C234 53.8102 230.49 54.5802 227.93 56.9302C227.7 57.1402 227.48 57.3302 227.24 57.5302C227.81 57.0902 228.39 56.6402 228.96 56.2002C228.24 56.7502 227.47 57.2002 226.64 57.5802C227.32 57.2902 227.99 57.0102 228.67 56.7202C227.64 57.1502 226.59 57.4302 225.49 57.5902C226.24 57.4902 227 57.3902 227.75 57.2902C226.54 57.4402 225.33 57.4302 224.12 57.2702C224.87 57.3702 225.63 57.4702 226.38 57.5702C225.27 57.4002 224.21 57.1102 223.17 56.6902C223.85 56.9802 224.52 57.2602 225.2 57.5502C224.18 57.1102 223.23 56.5702 222.34 55.9002C222.91 56.3402 223.49 56.7902 224.06 57.2302C223.35 56.6602 222.72 56.0302 222.16 55.3302C222.6 55.9002 223.05 56.4802 223.49 57.0502C223.19 56.6402 222.91 56.2302 222.66 55.7902C220.37 51.8102 214.98 50.4202 211.02 52.7402C209.3 53.7502 207.56 54.6802 205.72 55.4602C206.4 55.1702 207.07 54.8902 207.75 54.6002C206.2 55.2302 204.62 55.7302 202.96 55.9802C203.71 55.8802 204.47 55.7802 205.22 55.6802C204.17 55.8102 203.14 55.8202 202.09 55.6902C202.84 55.7902 203.6 55.8902 204.35 55.9902C203.57 55.8602 202.84 55.6502 202.11 55.3502C202.79 55.6402 203.46 55.9202 204.14 56.2102C203.54 55.9302 202.98 55.6002 202.44 55.2102C203.01 55.6502 203.59 56.1002 204.16 56.5402C203.14 55.7402 202.31 54.8002 201.52 53.7802C201.96 54.3502 202.41 54.9302 202.85 55.5002C201.4 53.5802 200.08 51.5402 198.46 49.7502C196.48 47.5702 194.04 46.0402 191.32 44.9802C188.69 43.9602 185.53 43.9102 182.84 44.7402C180.61 45.4302 178.7 46.6902 176.59 47.6002C177.27 47.3102 177.94 47.0302 178.62 46.7402C178.07 46.9502 177.53 47.1102 176.95 47.1902C177.7 47.0902 178.46 46.9902 179.21 46.8902C178.87 46.9102 178.56 46.9102 178.22 46.8802C178.97 46.9802 179.73 47.0802 180.48 47.1802C180 47.1002 179.55 46.9702 179.1 46.7902C179.78 47.0802 180.45 47.3602 181.13 47.6502C180.3 47.2702 179.56 46.7602 178.84 46.2202C179.41 46.6602 179.99 47.1102 180.56 47.5502C177.97 45.5502 175.52 43.3002 172.22 42.5602C169.55 41.9602 167 42.1802 164.48 43.2402C162.96 43.8802 161.76 44.8702 160.3 45.6102C160.98 45.3202 161.65 45.0402 162.33 44.7502C161.92 44.9202 161.53 45.0402 161.09 45.1102C161.84 45.0102 162.6 44.9102 163.35 44.8102C162.97 44.8402 162.6 44.8302 162.22 44.8002C162.97 44.9002 163.73 45.0002 164.48 45.1002C163.48 44.9502 162.54 44.6102 161.61 44.2202C162.29 44.5102 162.96 44.7902 163.64 45.0802C160.74 43.8602 158.2 42.6002 155 42.5102C153.04 42.4502 150.87 43.0602 149.17 44.0402C147.03 45.2802 145.78 47.1602 144.36 49.1002C144.8 48.5302 145.25 47.9502 145.69 47.3802C145.54 47.5802 145.36 47.7602 145.17 47.9202C145.74 47.4802 146.32 47.0302 146.89 46.5902C146.62 46.7902 146.37 46.9402 146.06 47.0902C146.74 46.8002 147.41 46.5202 148.09 46.2302C147.78 46.3402 147.49 46.4202 147.17 46.4702C147.92 46.3702 148.68 46.2702 149.43 46.1702C148.86 46.2302 148.31 46.2102 147.74 46.1402C148.49 46.2402 149.25 46.3402 150 46.4402C147.42 46.0502 145.02 45.1802 142.38 45.0202C139.26 44.8302 136.26 45.7502 133.49 47.1102C130.73 48.4602 128.56 50.7202 126.8 53.1802C124.94 55.7902 124.27 58.7202 123.93 61.8402C126.76 59.0102 129.6 56.1702 132.43 53.3402C126.78 54.0302 121.23 54.7902 116.58 58.3802C114.42 60.0502 112.51 62.0502 111.33 64.5402C110.31 66.7002 109.89 68.2302 109.66 70.6002C109.56 71.5902 109.72 72.5402 109.69 73.5302C109.79 72.7802 109.89 72.0202 109.99 71.2702C109.97 71.5102 109.91 71.7302 109.8 71.9402C110.09 71.2602 110.37 70.5902 110.66 69.9102C110.6 70.0002 110.54 70.0902 110.48 70.1802C110.92 69.6102 111.37 69.0302 111.81 68.4602C111.67 68.6202 111.51 68.7702 111.34 68.9002C111.91 68.4602 112.49 68.0102 113.06 67.5702C111.93 68.3802 110.76 69.1402 109.86 70.2102C108.44 71.9002 107.77 73.1702 107 75.2902C106.46 76.7802 106.32 78.3802 105.76 79.8702C106.05 79.1902 106.33 78.5202 106.62 77.8402C106.21 78.8002 105.67 79.6602 105.05 80.5002C105.49 79.9302 105.94 79.3502 106.38 78.7802C105.49 79.9202 104.5 80.9702 103.59 82.0902C102.01 84.0202 100.8 85.7302 99.84 88.0102C98.95 90.1102 98.39 92.3202 98.5 94.6402C98.67 98.0602 99.92 100.7 102.07 103.31C102.07 99.3002 102.07 95.2902 102.07 91.2802C99.68 93.7502 97.21 96.4602 95.71 99.5802C94.51 102.09 93.84 104.22 93.6 106.98C93.41 109.08 93.95 111.12 94.27 113.18C94.17 112.43 94.07 111.67 93.97 110.92C94.01 111.19 94.01 111.47 93.98 111.74C94.08 110.99 94.18 110.23 94.28 109.48C94.25 109.71 94.2 109.93 94.12 110.15C94.41 109.47 94.69 108.8 94.98 108.12C94.8 108.55 94.57 108.92 94.29 109.3C94.73 108.73 95.18 108.15 95.62 107.58C94.14 109.34 92.33 110.78 91.28 112.89C90.06 115.34 89.33 118.11 89.6 120.87C89.87 123.65 90.53 126.33 92.15 128.66C92.89 129.72 93.69 130.78 94.68 131.62C96.5 133.16 97.72 133.76 99.95 134.66C99.95 129.19 99.95 123.73 99.95 118.26C93.4 120 89.94 127.2 91.64 133.55C92.53 136.86 94.77 139.39 97.49 141.35C99.35 142.69 101.53 143.35 103.66 144.11C102.98 143.82 102.31 143.54 101.63 143.25C101.74 143.3 101.84 143.36 101.93 143.43C101.36 142.99 100.78 142.54 100.21 142.1C100.49 142.33 100.72 142.59 100.95 142.88C100.51 142.31 100.06 141.73 99.62 141.16C100.9 142.91 101.85 144.9 103.46 146.41C105.96 148.76 109.18 149.63 112.53 148.88C114.73 148.39 116.47 146.9 117.8 145.18C119.38 143.14 120.35 140.68 120.99 138.19C121.36 136.75 121.55 135.27 121.73 133.8C121.89 132.43 121.69 131.23 121.49 129.83C121.59 130.58 121.69 131.34 121.79 132.09C121.78 132.02 121.77 131.95 121.77 131.88C121.67 132.63 121.57 133.39 121.47 134.14C121.48 134.12 121.49 134.1 121.5 134.07C118.01 136.05 114.53 138.03 111.04 140.01C111.06 140.02 111.08 140.02 111.1 140.03C109.85 139.3 108.6 138.57 107.35 137.84C107.75 138.16 108.71 139.02 109.18 139.24C111.71 140.44 114.11 140.78 116.75 139.67C118.96 138.74 121.27 136.69 121.67 134.16C122.01 132.02 122.11 131.62 121.65 129.48C121.58 129.17 121.5 128.87 121.46 128.55C121.56 129.3 121.66 130.06 121.76 130.81C121.72 130.33 121.73 129.87 121.79 129.4C121.69 130.15 121.59 130.91 121.49 131.66C121.64 130.75 121.93 129.9 122.28 129.06C121.99 129.74 121.71 130.41 121.42 131.09C122.82 127.92 124.99 124.9 125.67 121.45C126.18 118.85 126.33 116.2 125.37 113.68C124.8 112.19 124.25 111.02 123.34 109.77C122.83 109.06 122.33 108.36 121.95 107.57C122.24 108.25 122.52 108.92 122.81 109.6C122.66 109.22 122.56 108.87 122.47 108.47C122.57 109.22 122.67 109.98 122.77 110.73C122.71 110.2 122.71 109.71 122.78 109.17C122.68 109.92 122.58 110.68 122.48 111.43C122.59 110.9 122.74 110.4 122.94 109.9C122.65 110.58 122.37 111.25 122.08 111.93C122.43 111.16 122.87 110.46 123.36 109.77C122.92 110.34 122.47 110.92 122.03 111.49C122.51 110.87 123.01 110.25 123.59 109.72C123.02 110.16 122.44 110.61 121.87 111.05C122 110.95 122.13 110.86 122.28 110.79C121.6 111.08 120.93 111.36 120.25 111.65C120.48 111.56 120.68 111.5 120.92 111.45C120.17 111.55 119.41 111.65 118.66 111.75C118.98 111.72 119.29 111.73 119.62 111.76C118.87 111.66 118.11 111.56 117.36 111.46C119.97 111.84 122.39 112.71 125.06 111.91C129.44 110.6 132.27 106.24 131.89 101.71C131.56 97.8002 130.35 94.0602 129.8 90.2002C129.9 90.9502 130 91.7102 130.1 92.4602C130 91.6602 129.91 90.8502 130.01 90.0502C129.91 90.8002 129.81 91.5602 129.71 92.3102C129.74 92.1602 129.77 92.0102 129.82 91.8702C129.53 92.5502 129.25 93.2202 128.96 93.9002C129.06 93.6602 129.16 93.4802 129.32 93.2802C128.88 93.8502 128.43 94.4302 127.99 95.0002C128.04 94.9502 128.09 94.9002 128.14 94.8502C127.57 95.2902 126.99 95.7402 126.42 96.1802C126.53 96.0902 126.65 96.0102 126.77 95.9502C126.09 96.2402 125.42 96.5202 124.74 96.8102C124.96 96.7202 125.15 96.6602 125.38 96.6202C124.63 96.7202 123.87 96.8202 123.12 96.9202C123.56 96.8702 123.97 96.8902 124.41 96.9402C123.66 96.8402 122.9 96.7402 122.15 96.6402C123.71 96.8802 125.19 97.4402 126.73 97.7202C130.34 98.3802 133.71 98.2302 136.94 96.3102C141.62 93.5302 144.47 88.6302 146.45 83.7402C146.16 84.4202 145.88 85.0902 145.59 85.7702C145.8 85.2902 146.02 84.8502 146.33 84.4302C145.89 85.0002 145.44 85.5802 145 86.1502C145.12 86.0002 145.26 85.8702 145.42 85.7602C144.85 86.2002 144.27 86.6502 143.7 87.0902C143.86 86.9702 144.03 86.8802 144.22 86.8202C143.54 87.1102 142.87 87.3902 142.19 87.6802C142.29 87.6502 142.39 87.6302 142.49 87.6002C141.74 87.7002 140.98 87.8002 140.23 87.9002C140.42 87.8702 140.61 87.8602 140.8 87.8902C140.05 87.7902 139.29 87.6902 138.54 87.5902C138.73 87.6202 138.91 87.6702 139.08 87.7402C138.4 87.4502 137.73 87.1702 137.05 86.8802C137.33 87.0202 137.55 87.1702 137.8 87.3602C137.23 86.9202 136.65 86.4702 136.08 86.0302C136.59 86.4802 137.02 87.0002 137.44 87.5302C137 86.9602 136.55 86.3802 136.11 85.8102C137.87 88.1202 139.35 90.0902 141.89 91.6302C144.44 93.1702 147.31 93.8102 150.25 94.0002C155.35 94.3402 160.18 92.0802 164.64 89.9202C160.76 88.9002 156.88 87.8902 153 86.8702C156.75 92.1402 162.12 96.3402 168.59 97.6402C171.63 98.2502 174.58 98.3502 177.65 98.0802C180.14 97.8602 182.64 97.5702 185.14 97.8602C184.39 97.7602 183.63 97.6602 182.88 97.5602C183.79 97.6902 184.64 97.9002 185.5 98.2202C184.82 97.9302 184.15 97.6502 183.47 97.3602C184.32 97.7202 185.07 98.1702 185.81 98.7202C185.24 98.2802 184.66 97.8302 184.09 97.3902C185.42 98.4202 186.68 99.5402 188.09 100.46C190.11 101.78 192.37 102.37 194.75 102.57C197.47 102.79 200.02 101.74 202.65 101.29C201.9 101.39 201.14 101.49 200.39 101.59C200.92 101.52 201.43 101.5 201.96 101.57C201.21 101.47 200.45 101.37 199.7 101.27C199.9 101.3 200.1 101.36 200.29 101.43C199.61 101.14 198.94 100.86 198.26 100.57C198.57 100.71 198.81 100.85 199.08 101.05C198.51 100.61 197.93 100.16 197.36 99.7202C197.55 99.8802 197.71 100.05 197.86 100.24C197.42 99.6702 196.97 99.0902 196.53 98.5202C197.73 100.15 198.7 101.95 200.25 103.29C202.21 105 204.43 106.29 206.97 106.96C211.27 108.09 216.52 107.6 220.19 104.92C216.31 103.9 212.43 102.89 208.56 101.87C211.61 106.35 216.14 109.95 221.59 110.95C223.88 111.37 226.07 111.31 228.14 110.09C229.9 109.06 231.59 107.04 232.05 105.01C233 100.85 230.79 95.4002 226.11 94.5502C225.24 94.3902 224.41 94.1502 223.59 93.8302C224.27 94.1202 224.94 94.4002 225.62 94.6902C224.58 94.2402 223.62 93.6802 222.72 92.9902C223.29 93.4302 223.87 93.8802 224.44 94.3202C223.66 93.6802 222.97 92.9802 222.34 92.1802C222.78 92.7502 223.23 93.3302 223.67 93.9002C223.52 93.7002 223.37 93.5002 223.24 93.2902C222.04 91.5302 220.33 89.8802 218.16 89.3802C216.06 88.9002 213.42 88.9102 211.61 90.2402C211.18 90.5602 210.73 90.8202 210.25 91.0502C210.93 90.7602 211.6 90.4802 212.28 90.1902C211.59 90.4802 210.89 90.6702 210.15 90.7802C210.9 90.6802 211.66 90.5802 212.41 90.4802C211.66 90.5602 210.93 90.5502 210.18 90.4502C210.93 90.5502 211.69 90.6502 212.44 90.7502C211.69 90.6302 210.99 90.4302 210.3 90.1402C210.98 90.4302 211.65 90.7102 212.33 91.0002C211.75 90.7302 211.21 90.4202 210.69 90.0402C211.26 90.4802 211.84 90.9302 212.41 91.3702C211.91 90.9702 211.47 90.5302 211.08 90.0202C211.52 90.5902 211.97 91.1702 212.41 91.7402C211.47 90.4102 210.69 89.0002 209.52 87.8202C207.46 85.7402 204.69 84.7402 201.82 84.5502C199.13 84.3702 196.64 85.4102 194.03 85.8402C194.78 85.7402 195.54 85.6402 196.29 85.5402C195.71 85.6102 195.17 85.6302 194.59 85.5602C195.34 85.6602 196.1 85.7602 196.85 85.8602C196.47 85.7802 196.14 85.6902 195.79 85.5502C196.47 85.8402 197.14 86.1202 197.82 86.4102C197.13 86.1002 196.52 85.6902 195.92 85.2402C196.49 85.6802 197.07 86.1302 197.64 86.5702C196.46 85.6502 195.32 84.6802 194.1 83.8202C192.86 82.9502 191.45 82.3502 190.03 81.8302C187.82 81.0102 185.33 80.7402 182.99 80.7302C179.25 80.7202 175.55 81.5802 171.81 81.1002C172.56 81.2002 173.32 81.3002 174.07 81.4002C172.67 81.1902 171.33 80.8202 170.01 80.2902C170.69 80.5802 171.36 80.8602 172.04 81.1502C170.62 80.5402 169.3 79.7802 168.07 78.8402C168.64 79.2802 169.22 79.7302 169.79 80.1702C168.68 79.2902 167.7 78.3002 166.82 77.1902C167.26 77.7602 167.71 78.3402 168.15 78.9102C167.99 78.7102 167.84 78.5002 167.7 78.2902C166.45 76.5302 164.83 74.8902 162.62 74.3802C160.29 73.8502 158.22 74.1902 156.07 75.2402C154.98 75.7702 153.9 76.2902 152.78 76.7602C153.46 76.4702 154.13 76.1902 154.81 75.9002C153.27 76.5302 151.71 77.0202 150.07 77.2502C150.82 77.1502 151.58 77.0502 152.33 76.9502C151.45 77.0402 150.59 77.0502 149.7 76.9602C150.45 77.0602 151.21 77.1602 151.96 77.2602C151.08 77.1402 150.26 76.9302 149.44 76.6002C150.12 76.8902 150.79 77.1702 151.47 77.4602C150.9 77.2002 150.39 76.9102 149.88 76.5502C150.45 76.9902 151.03 77.4402 151.6 77.8802C151.03 77.4302 150.56 76.9202 150.12 76.3502C150.56 76.9202 151.01 77.5002 151.45 78.0702C150.43 76.7302 149.49 75.2602 148.25 74.1202C146.13 72.1802 143.48 70.8702 140.55 70.8802C137.68 70.8902 135.01 72.1502 133.01 74.1502C131.32 75.8402 130.6 77.9902 129.72 80.1402C130.01 79.4602 130.29 78.7902 130.58 78.1102C130 79.4602 129.14 80.7102 128.26 81.8802C128.7 81.3102 129.15 80.7302 129.59 80.1602C128.92 81.0202 128.21 81.8102 127.36 82.5002C127.93 82.0602 128.51 81.6102 129.08 81.1702C128.63 81.5002 128.18 81.7802 127.67 82.0102C128.35 81.7202 129.02 81.4402 129.7 81.1502C129.3 81.3002 128.92 81.4002 128.5 81.4602C129.25 81.3602 130.01 81.2602 130.76 81.1602C130.37 81.1802 130 81.1702 129.61 81.1302C130.36 81.2302 131.12 81.3302 131.87 81.4302C129.08 81.0302 126.51 79.9002 123.63 79.9002C120.83 79.9002 117.95 80.9602 115.99 83.0102C114.05 85.0402 113.17 87.5902 113 90.3502C112.86 92.8102 113.46 95.3602 113.97 97.7702C114.39 99.7402 114.9 101.71 115.17 103.71C115.07 102.96 114.97 102.2 114.87 101.45C114.93 101.95 114.97 102.44 114.9 102.94C115 102.19 115.1 101.43 115.2 100.68C115.18 100.82 115.13 100.95 115.08 101.07C115.37 100.39 115.65 99.7202 115.94 99.0402C115.91 99.0902 115.88 99.1402 115.85 99.1902C116.29 98.6202 116.74 98.0402 117.18 97.4702C117.14 97.5102 117.11 97.5502 117.07 97.5902C117.64 97.1502 118.22 96.7002 118.79 96.2602C118.71 96.3302 118.63 96.3802 118.53 96.4202C119.21 96.1302 119.88 95.8502 120.56 95.5602C120.46 95.6002 120.35 95.6202 120.24 95.6302C120.99 95.5302 121.75 95.4302 122.5 95.3302C122.31 95.3402 122.13 95.3202 121.94 95.3002C122.69 95.4002 123.45 95.5002 124.2 95.6002C121.58 95.1502 119.1 94.3802 116.41 95.1002C112.71 96.0902 110.22 98.8202 108.19 101.93C106.06 105.21 105.04 109.6 106.15 113.42C106.6 114.97 107.29 116.48 108.22 117.79C108.79 118.6 109.4 119.37 109.83 120.27C109.54 119.59 109.26 118.92 108.97 118.24C109.14 118.66 109.26 119.06 109.34 119.51C109.24 118.76 109.14 118 109.04 117.25C109.1 117.73 109.1 118.19 109.06 118.66C109.16 117.91 109.26 117.15 109.36 116.4C109.24 117.31 108.97 118.16 108.63 119C108.92 118.32 109.2 117.65 109.49 116.97C108.39 119.56 106.96 121.97 105.89 124.58C104.63 127.66 104.49 130.92 105.28 134.15C105.28 132.64 105.28 131.14 105.28 129.63C105.28 129.65 105.27 129.67 105.27 129.69C109.43 128 113.6 126.3 117.76 124.61C117.74 124.6 117.73 124.6 117.71 124.59C118.28 125.03 118.86 125.48 119.43 125.92C117.69 124.54 117.67 124.43 115.56 123.66C113.66 122.97 110.68 123.44 109.01 124.52C108.44 124.96 107.86 125.41 107.29 125.85C106.24 126.91 105.51 128.16 105.1 129.6C104.45 131.15 104.88 132.96 105.12 134.53C105.02 133.78 104.92 133.02 104.82 132.27C104.86 132.8 104.81 133.32 104.74 133.84C104.84 133.09 104.94 132.33 105.04 131.58C104.79 133.23 104.36 134.86 103.71 136.4C104 135.72 104.28 135.05 104.57 134.37C104.35 134.87 104.11 135.34 103.8 135.78C104.24 135.21 104.69 134.63 105.13 134.06C104.99 134.24 104.84 134.4 104.66 134.54C105.23 134.1 105.81 133.65 106.38 133.21C106.31 133.26 106.23 133.31 106.14 133.34C106.82 133.05 107.49 132.77 108.17 132.48C108.12 132.49 108.07 132.51 108.02 132.52C108.77 132.42 109.53 132.32 110.28 132.22C110.23 132.22 110.18 132.23 110.13 132.23C110.88 132.33 111.64 132.43 112.39 132.53C112.29 132.52 112.19 132.5 112.1 132.46C112.78 132.75 113.45 133.03 114.13 133.32C114.03 133.28 113.93 133.22 113.84 133.15C114.41 133.59 114.99 134.04 115.56 134.48C115.28 134.26 115.06 134 114.84 133.72C115.28 134.29 115.73 134.87 116.17 135.44C115.04 133.89 114.15 132.28 112.9 130.8C111.09 128.66 108.75 128.08 106.28 127.1C106.96 127.39 107.63 127.67 108.31 127.96C107.51 127.62 106.77 127.22 106.07 126.7C106.64 127.14 107.22 127.59 107.79 128.03C107.41 127.72 107.08 127.4 106.76 127.03C107.2 127.6 107.65 128.18 108.09 128.75C107.81 128.38 107.57 128.01 107.37 127.59C107.66 128.27 107.94 128.94 108.23 129.62C108.09 129.25 107.99 128.89 107.93 128.49C108.03 129.24 108.13 130 108.23 130.75C108.19 130.35 108.19 129.97 108.23 129.58C108.13 130.33 108.03 131.09 107.93 131.84C107.99 131.45 108.09 131.09 108.22 130.72C107.93 131.4 107.65 132.07 107.36 132.75C107.52 132.4 107.7 132.09 107.93 131.79C107.49 132.36 107.04 132.94 106.6 133.51C106.79 133.3 106.97 133.13 107.2 132.95C106.63 133.39 106.05 133.84 105.48 134.28C105.63 134.17 105.79 134.08 105.96 134.01C105.28 134.3 104.61 134.58 103.93 134.87C104.1 134.79 104.28 134.74 104.47 134.7C107.94 133.78 110.88 130.18 110.71 126.5C110.64 124.99 110.25 123.54 109.55 122.21C108.47 120.16 106.51 119.12 104.47 118.3C104.38 118.26 104.29 118.23 104.2 118.19C104.88 118.48 105.55 118.76 106.23 119.05C105.78 118.84 105.38 118.6 104.99 118.31C105.56 118.75 106.14 119.2 106.71 119.64C106.26 119.27 105.87 118.86 105.51 118.4C105.95 118.97 106.4 119.55 106.84 120.12C106.5 119.64 106.22 119.14 105.98 118.6C106.27 119.28 106.55 119.95 106.84 120.63C106.58 119.98 106.41 119.34 106.31 118.65C106.41 119.4 106.51 120.16 106.61 120.91C106.55 120.32 106.54 119.75 106.59 119.16C106.49 119.91 106.39 120.67 106.29 121.42C106.37 120.84 106.5 120.29 106.71 119.74C106.42 120.42 106.14 121.09 105.85 121.77C106.05 121.32 106.27 120.91 106.56 120.51C106.12 121.08 105.67 121.66 105.23 122.23C106.6 120.49 108.38 119.22 109.46 117.21C110.45 115.37 111.02 113.48 111.01 111.38C111.01 109.78 110.53 108.25 110.3 106.68C110.4 107.43 110.5 108.19 110.6 108.94C110.54 108.29 110.54 107.67 110.6 107.02C110.5 107.77 110.4 108.53 110.3 109.28C110.43 108.38 110.67 107.55 111.01 106.71C110.72 107.39 110.44 108.06 110.15 108.74C110.75 107.38 111.54 106.16 112.44 104.98C112 105.55 111.55 106.13 111.11 106.7C112.04 105.52 113.05 104.42 114.09 103.34C115.55 101.82 116.68 99.4802 116.58 97.3302C116.47 94.9502 115.59 93.1502 114.09 91.3202C114.01 91.2302 113.94 91.1402 113.86 91.0502C114.3 91.6202 114.75 92.2002 115.19 92.7702C114.99 92.4802 114.83 92.2002 114.68 91.8802C114.97 92.5602 115.25 93.2302 115.54 93.9102C115.38 93.4702 115.27 93.0502 115.21 92.5902C115.31 93.3402 115.41 94.1002 115.51 94.8502C115.48 94.3802 115.48 93.9202 115.53 93.4502C115.43 94.2002 115.33 94.9602 115.23 95.7102C115.34 94.9702 115.54 94.2802 115.8 93.5902C115.51 94.2702 115.23 94.9402 114.94 95.6202C115.34 94.6902 115.83 93.8602 116.44 93.0502C116 93.6202 115.55 94.2002 115.11 94.7702C117 92.3602 119.3 90.2002 120.79 87.5102C121.61 86.0202 122.27 84.3802 122.66 82.7302C122.93 81.6002 123.12 80.4602 123.57 79.3902C123.28 80.0702 123 80.7402 122.71 81.4202C122.86 81.1202 123.01 80.8402 123.2 80.5602C122.76 81.1302 122.31 81.7102 121.87 82.2802C122.08 82.0102 122.29 81.7802 122.55 81.5502C121.98 81.9902 121.4 82.4402 120.83 82.8802C121.75 82.1802 122.78 81.5802 123.6 80.7602C124.85 79.5202 125.85 77.8902 126.32 76.1802C126.85 74.2702 126.43 72.5302 126.66 70.6502C126.56 71.4002 126.46 72.1602 126.36 72.9102C126.47 72.3002 126.64 71.7202 126.87 71.1502C126.58 71.8302 126.3 72.5002 126.01 73.1802C126.33 72.4902 126.71 71.8702 127.17 71.2602C126.73 71.8302 126.28 72.4102 125.84 72.9802C126.41 72.2802 127.04 71.6802 127.75 71.1202C127.18 71.5602 126.6 72.0102 126.03 72.4502C126.79 71.9002 127.59 71.4502 128.44 71.0702C127.76 71.3602 127.09 71.6402 126.41 71.9302C128.52 71.0502 130.74 70.6202 133 70.3102C132.25 70.4102 131.49 70.5102 130.74 70.6102C131.3 70.5402 131.87 70.4702 132.43 70.4002C134.66 70.1302 136.83 69.6602 138.44 67.9102C140.06 66.1502 140.67 64.2602 140.93 61.9002C140.94 61.7902 140.95 61.6702 140.97 61.5602C140.87 62.3102 140.77 63.0702 140.67 63.8202C140.79 63.0202 141 62.2902 141.32 61.5502C141.03 62.2302 140.75 62.9002 140.46 63.5802C140.8 62.8502 141.2 62.2002 141.69 61.5602C141.25 62.1302 140.8 62.7102 140.36 63.2802C140.87 62.6602 141.43 62.1102 142.06 61.6102C141.49 62.0502 140.91 62.5002 140.34 62.9402C141.08 62.3902 141.85 61.9402 142.7 61.5802C142.02 61.8702 141.35 62.1502 140.67 62.4402C141.42 62.1502 142.16 61.9502 142.96 61.8302C142.21 61.9302 141.45 62.0302 140.7 62.1302C141.38 62.0602 142.05 62.0502 142.73 62.1202C141.98 62.0202 141.22 61.9202 140.47 61.8202C143.27 62.2202 145.9 63.3002 148.78 63.2802C150.95 63.2702 153.2 62.7202 155.08 61.6202C157.29 60.3202 158.49 58.3902 160 56.4302C159.56 57.0002 159.11 57.5802 158.67 58.1502C158.82 57.9702 158.98 57.8202 159.16 57.6802C158.59 58.1202 158.01 58.5702 157.44 59.0102C157.66 58.8602 157.86 58.7402 158.1 58.6202C157.42 58.9102 156.75 59.1902 156.07 59.4802C156.31 59.4002 156.53 59.3402 156.78 59.3002C156.03 59.4002 155.27 59.5002 154.52 59.6002C154.86 59.5702 155.18 59.5802 155.52 59.6202C154.77 59.5202 154.01 59.4202 153.26 59.3202C154.21 59.4802 155.09 59.8302 155.97 60.2002C155.29 59.9102 154.62 59.6302 153.94 59.3402C156.87 60.5902 159.55 61.8602 162.8 61.9002C165.01 61.9302 167.12 61.2802 169.06 60.2702C170.11 59.7202 170.99 58.9202 172.06 58.4102C171.38 58.7002 170.71 58.9802 170.03 59.2702C170.36 59.1402 170.66 59.0502 171.01 58.9802C170.26 59.0802 169.5 59.1802 168.75 59.2802C169.12 59.2402 169.47 59.2402 169.84 59.2902C169.09 59.1902 168.33 59.0902 167.58 58.9902C167.94 59.0602 168.28 59.1602 168.62 59.2902C167.94 59.0002 167.27 58.7202 166.59 58.4302C167.4 58.7902 168.11 59.2802 168.81 59.8102C168.24 59.3702 167.66 58.9202 167.09 58.4802C169.8 60.5802 172.47 63.0202 175.98 63.6302C179.34 64.2102 182.12 63.7002 185.19 62.3302C186.4 61.7902 187.53 61.1002 188.75 60.5702C188.07 60.8602 187.4 61.1402 186.72 61.4302C187.28 61.2102 187.83 61.0502 188.42 60.9502C187.67 61.0502 186.91 61.1502 186.16 61.2502C186.55 61.2202 186.9 61.2102 187.29 61.2402C186.54 61.1402 185.78 61.0402 185.03 60.9402C185.66 61.0302 186.24 61.1902 186.82 61.4302C186.14 61.1402 185.47 60.8602 184.79 60.5702C185.38 60.8502 185.91 61.1702 186.44 61.5502C185.87 61.1102 185.29 60.6602 184.72 60.2202C185.66 60.9502 186.47 61.7902 187.21 62.7202C186.77 62.1502 186.32 61.5702 185.88 61.0002C187.61 63.2502 189.11 65.7502 191.15 67.7402C194.28 70.7902 198.02 72.3002 202.3 72.7602C208.38 73.4102 214.52 70.4602 219.62 67.4702C215.74 66.4502 211.86 65.4402 207.99 64.4202C210.85 69.4002 216.18 73.1402 221.87 74.0302C225.16 74.5402 228.23 74.6202 231.5 73.7702C234.7 72.9402 237.54 71.2502 239.96 69.0302C235.12 67.0302 230.28 65.0202 225.44 63.0202C225.67 69.4502 227.63 75.9802 231.39 81.2402C233.26 83.8502 235.29 86.2802 237.81 88.2702C239.3 89.4502 240.79 90.6102 242.44 91.5402C243.67 92.2402 245 92.7602 246.15 93.6002C245.58 93.1602 245 92.7102 244.43 92.2702C244.74 92.5302 244.99 92.7802 245.25 93.0802C244.81 92.5102 244.36 91.9302 243.92 91.3602C244.15 91.6802 244.33 91.9802 244.5 92.3402C244.21 91.6602 243.93 90.9902 243.64 90.3102C243.83 90.7902 243.95 91.2602 244.04 91.7702C243.94 91.0202 243.84 90.2602 243.74 89.5102C243.94 91.0902 243.79 92.6902 243.63 94.2702C243.73 93.5202 243.83 92.7602 243.93 92.0102C243.69 93.6102 243.02 95.0302 242.51 96.5502C241.6 99.2502 241.55 102.2 242.23 104.95C243.09 108.41 245.18 111.52 246.56 114.79C246.27 114.11 245.99 113.44 245.7 112.76C246.12 113.79 246.47 114.83 246.64 115.93C246.54 115.18 246.44 114.42 246.34 113.67C246.4 114.17 246.41 114.65 246.37 115.15C246.47 114.4 246.57 113.64 246.67 112.89C246.59 113.44 246.44 113.93 246.24 114.45C246.53 113.77 246.81 113.1 247.1 112.42C245.91 115.23 244.01 117.64 243.22 120.65C242.55 123.21 242.68 125.44 243.09 128C243.32 129.43 243.75 130.81 243.94 132.24C243.84 131.49 243.74 130.73 243.64 129.98C243.69 130.54 243.7 131.08 243.65 131.64C243.75 130.89 243.85 130.13 243.95 129.38C243.86 130 243.7 130.57 243.48 131.15C243.77 130.47 244.05 129.8 244.34 129.12C244.03 129.8 243.66 130.42 243.22 131.03C243.66 130.46 244.11 129.88 244.55 129.31C243.66 130.43 242.63 131.37 241.5 132.24C242.07 131.8 242.65 131.35 243.22 130.91C241.85 131.94 240.43 132.88 238.85 133.56C239.53 133.27 240.2 132.99 240.88 132.7C240.15 132.99 239.42 133.21 238.65 133.34C239.4 133.24 240.16 133.14 240.91 133.04C240.42 133.1 239.95 133.11 239.45 133.07C240.2 133.17 240.96 133.27 241.71 133.37C241.22 133.3 240.78 133.18 240.33 132.99C241.01 133.28 241.68 133.56 242.36 133.85C242.03 133.68 241.74 133.5 241.45 133.28C242.02 133.72 242.6 134.17 243.17 134.61C242.92 134.39 242.71 134.18 242.49 133.93C242.93 134.5 243.38 135.08 243.82 135.65C243.56 135.3 243.35 134.95 243.17 134.56C243.46 135.24 243.74 135.91 244.03 136.59C243.78 135.97 243.61 135.35 243.51 134.68C243.61 135.43 243.71 136.19 243.81 136.94C243.65 135.68 243.7 134.43 243.86 133.17C243.76 133.92 243.66 134.68 243.56 135.43C244.24 130.42 244.97 125.52 242.29 120.89C241.39 119.33 240.14 117.94 238.78 116.75C237.86 115.95 236.91 115.2 236.15 114.25C236.59 114.82 237.04 115.4 237.48 115.97C237.26 115.67 237.08 115.37 236.91 115.03C237.2 115.71 237.48 116.38 237.77 117.06C237.63 116.71 237.54 116.39 237.49 116.02C237.59 116.77 237.69 117.53 237.79 118.28C237.77 117.94 237.79 117.66 237.84 117.32C237.74 118.07 237.64 118.83 237.54 119.58C237.64 119.19 237.75 118.84 237.91 118.47C237.62 119.15 237.34 119.82 237.05 120.5C237.79 118.88 238.71 117.28 239.01 115.51C239.55 112.33 239.12 109.54 237.71 106.66C236.38 103.94 234.05 102.03 232.18 99.7302C232.62 100.3 233.07 100.88 233.51 101.45C233.13 100.95 232.8 100.44 232.52 99.8702C232.81 100.55 233.09 101.22 233.38 101.9C233.2 101.47 233.06 101.06 232.98 100.6C233.08 101.35 233.18 102.11 233.28 102.86C233.24 102.44 233.25 102.04 233.31 101.62C233.21 102.37 233.11 103.13 233.01 103.88C233.07 103.57 233.15 103.29 233.26 102.99C232.97 103.67 232.69 104.34 232.4 105.02C232.53 104.74 232.66 104.49 232.83 104.23C232.39 104.8 231.94 105.38 231.5 105.95C231.69 105.71 231.87 105.53 232.1 105.33C231.53 105.77 230.95 106.22 230.38 106.66C230.53 106.55 230.69 106.45 230.86 106.38C230.18 106.67 229.51 106.95 228.83 107.24C229.01 107.16 229.19 107.11 229.38 107.08C228.63 107.18 227.87 107.28 227.12 107.38C227.22 107.37 227.32 107.36 227.42 107.35C229.72 107.14 231.75 106.54 233.43 104.86C234.9 103.39 236.02 100.97 235.92 98.8502C235.7 94.5302 232.13 89.8602 227.39 90.2902Z" fill="white"/>
<path d="M190.57 146.33C190.57 151.65 193.45 141.97 196.99 141.97C200.53 141.97 203.41 151.66 203.41 146.33C203.41 141.01 200.53 136.69 196.99 136.69C193.45 136.69 190.57 141 190.57 146.33Z" fill="white" stroke="white" stroke-width="5.6693" stroke-miterlimit="10" stroke-linecap="round" stroke-linejoin="round"/>
<path d="M138.77 144.72C138.77 150.04 141.65 140.36 145.19 140.36C148.74 140.36 151.61 150.05 151.61 144.72C151.61 139.4 148.73 135.08 145.19 135.08C141.65 135.08 138.77 139.4 138.77 144.72Z" fill="white" stroke="white" stroke-width="5.6693" stroke-miterlimit="10" stroke-linecap="round" stroke-linejoin="round"/>
<path d="M171.97 154.13C172 157.29 171.87 160.84 169.59 163.04C169.04 163.57 168.37 164.01 167.92 164.63C167.4 165.36 167.22 166.27 167.05 167.15C166.94 167.76 166.82 168.39 166.99 168.98C167.26 169.95 168.18 170.57 169.1 170.98C171.01 171.82 173.19 172.05 175.23 171.63" fill="white"/>
<path d="M171.97 154.13C173.16 155.19 173.99 156.29 174.72 157.59C174.55 158.8 174.38 160.1 173.88 161.43C173.41 162.75 172.58 164.13 171.44 165.19C170.89 165.69 170.49 166 170.33 166.17C170.25 166.26 170.23 166.28 170.22 166.3C170.2 166.33 170.17 166.4 170.13 166.5C170.05 166.72 169.96 167.09 169.87 167.59C169.76 168.12 169.75 168.4 169.76 168.31C169.76 168.17 169.6 167.94 169.65 168.02C169.69 168.06 169.89 168.21 170.18 168.34C170.84 168.64 171.61 168.86 172.38 168.94C173.06 169.88 173.98 170.71 175.25 171.61C174.43 172.94 173.19 173.87 171.75 174.57C170.39 174.42 169.08 174.06 167.8 173.48C167.12 173.16 166.4 172.76 165.67 172.05C165.31 171.7 164.96 171.26 164.67 170.72C164.39 170.19 164.19 169.54 164.12 168.97C164 167.82 164.21 167.04 164.29 166.52C164.4 165.98 164.52 165.3 164.81 164.51C164.96 164.12 165.15 163.7 165.41 163.28C165.67 162.85 166.01 162.46 166.3 162.17C166.89 161.58 167.35 161.25 167.58 161.03C167.99 160.63 168.32 160.15 168.57 159.46C168.81 158.79 169 157.96 169.03 157.05C169.95 156.24 170.8 155.21 171.97 154.13Z" fill="white"/>
<path d="M197.76 188.46C191.84 190.19 188.63 190.24 182.96 190.47C180.4 190.57 175.75 190.8 173.19 190.67C166.15 190.33 160.17 189.54 152.18 187.76C150.13 187.3 146.3 186.06 144.45 184.96C142.61 183.86 142.53 180.88 142.37 178.41C143.79 177.7 145.7 178.86 147.18 179.21C148.38 179.49 150 178.76 151.16 179.18C152.91 179.82 154.51 180.5 156.34 180.7C170.7 182.24 184.94 184.48 199.34 182.34C199.52 183.43 198.55 185.77 198.27 187.56" fill="white"/>
<path d="M195.5 180.26C193.34 180.88 191.15 181.39 188.92 181.71C189.67 181.61 190.43 181.51 191.18 181.41C186.67 182.01 182.04 182.05 177.49 182.17C172.79 182.29 168.1 181.92 163.44 181.31C164.19 181.41 164.95 181.51 165.7 181.61C159.96 180.83 154.03 179.9 148.64 177.7C149.32 177.99 149.99 178.27 150.67 178.56C149.92 178.24 149.16 177.91 148.48 177.45C149.05 177.89 149.63 178.34 150.2 178.78C149.96 178.58 149.77 178.38 149.58 178.13C150.02 178.7 150.47 179.28 150.91 179.85C150.73 179.58 150.59 179.32 150.46 179.03C150.75 179.71 151.03 180.38 151.32 181.06C151.03 180.29 150.87 179.51 150.76 178.7C150.86 179.45 150.96 180.21 151.06 180.96C150.96 180.11 150.91 179.26 150.86 178.41C148.78 181.14 146.7 183.88 144.62 186.61C144.82 186.51 145.03 186.45 145.26 186.41C144.51 186.51 143.75 186.61 143 186.71C143.36 186.68 143.67 186.69 144.03 186.74C143.28 186.64 142.52 186.54 141.77 186.44C142.8 186.65 143.74 187.11 144.75 187.36C147.23 187.97 149.15 187.65 151.63 187.31C150.88 187.41 150.12 187.51 149.37 187.61C149.87 187.55 150.33 187.53 150.83 187.59C150.08 187.49 149.32 187.39 148.57 187.29C149.55 187.56 150.49 187.99 151.46 188.3C152.92 188.77 154.36 188.95 155.89 189.14C158 189.4 160.11 189.62 162.21 189.86C166.35 190.33 170.5 190.81 174.66 191.16C183.71 191.93 192.61 191.85 201.61 190.54C198.02 187.81 194.43 185.07 190.85 182.34C190.87 182.59 190.87 182.82 190.84 183.07C190.94 182.32 191.04 181.56 191.14 180.81C190.91 182.33 190.35 183.78 190.08 185.3C189.67 187.6 189.72 189.77 190.94 191.85C191.97 193.61 193.99 195.3 196.02 195.76C200.17 196.71 205.64 194.5 206.48 189.82C206.92 187.37 208.09 184.87 207.86 182.34C207.6 179.57 206.75 177.39 204.51 175.66C203.69 174.91 202.72 174.4 201.62 174.14C200.11 173.73 198.61 173.73 197.1 174.14C196.77 174.19 196.45 174.23 196.12 174.28C196.87 174.18 197.63 174.08 198.38 173.98C191.32 174.91 184.2 174.86 177.11 174.35C170.03 173.84 162.94 173.05 155.9 172.14C156.65 172.24 157.41 172.34 158.16 172.44C156.75 172.2 155.42 171.72 154.08 171.22C151.53 170.27 149.34 170.61 146.74 170.96C147.49 170.86 148.25 170.76 149 170.66C148.5 170.73 148.02 170.77 147.52 170.75C148.27 170.85 149.03 170.95 149.78 171.05C148.76 170.89 147.83 170.41 146.83 170.15C144.77 169.61 142.13 169.39 140.11 170.19C138.33 170.9 136.9 171.68 135.69 173.24C134.6 174.65 133.74 176.55 133.86 178.39C134.07 181.62 134.33 184.82 135.85 187.74C137.64 191.18 140.73 192.7 144.12 194.08C148.07 195.68 152.25 196.51 156.43 197.25C161.41 198.13 166.46 198.76 171.51 199.06C175.48 199.3 179.44 199.09 183.4 198.93C189.02 198.71 194.58 198.2 200.01 196.64C204.28 195.41 207.38 190.58 205.95 186.18C204.56 181.86 200.08 178.94 195.5 180.26Z" fill="white"/>
<path d="M192.37 197.28C189.04 196.04 185.42 196.01 181.87 195.98C175.66 195.94 169.44 195.9 163.23 195.88C158.89 195.87 153.13 196.52 148.95 197.71C148.92 199.21 150.65 199.79 151.96 200.46C153.35 201.17 154.31 202.76 155.78 203.28C157.2 203.79 158.26 204.14 159.74 204.46C162.58 205.07 164.82 206.2 167.66 206.81C168.77 207.05 173.05 206.49 174.18 206.55C176.67 206.7 179.18 206.24 181.58 205.54C182.81 205.18 183.72 204.53 184.95 204.18C185.68 203.97 186.86 203.13 187.51 202.75C188.18 202.35 188.72 201.8 189.27 201.25C190.37 200.14 191.68 199.36 192.79 198.24" fill="white"/>
<path d="M194.63 189.08C190.42 187.59 185.8 187.51 181.38 187.48C177.37 187.45 173.37 187.43 169.36 187.41C161.74 187.37 154.09 187.46 146.68 189.51C143.27 190.46 140.2 194.02 140.44 197.71C140.68 201.56 142.3 204.34 145.41 206.55C146.31 207.19 147.36 207.56 148.27 208.18C147.7 207.74 147.12 207.29 146.55 206.85C147.14 207.31 147.67 207.83 148.23 208.32C149.85 209.73 151.18 210.56 153.17 211.33C154.65 211.9 156.14 212.33 157.68 212.7C161.28 213.54 164.59 215.26 168.35 215.37C170.45 215.43 172.53 215.02 174.63 215.08C177.09 215.14 179.61 214.76 182.01 214.22C184.28 213.71 186.33 212.72 188.45 211.8C187.77 212.09 187.1 212.37 186.42 212.66C189.33 211.55 191.78 210.36 194.15 208.32C195.69 206.99 197.33 205.67 198.79 204.25C201.99 201.15 202.14 195.3 198.79 192.22C195.35 189.06 190.18 188.91 186.76 192.22C186 192.95 185.16 193.58 184.35 194.24C183.57 194.88 182.89 195.63 182.12 196.28C182.69 195.84 183.27 195.39 183.84 194.95C182.94 195.63 181.92 196.27 180.9 196.73C181.58 196.44 182.25 196.16 182.93 195.87C181.26 196.46 179.67 197.21 178.05 197.91C178.73 197.62 179.4 197.34 180.08 197.05C178.51 197.65 176.82 197.98 175.17 198.21C175.92 198.11 176.68 198.01 177.43 197.91C175.66 198.11 173.89 198 172.12 198.13C170.7 198.24 169.21 198.46 167.78 198.31C168.53 198.41 169.29 198.51 170.04 198.61C167.94 198.25 165.94 197.36 163.91 196.74C161.84 196.11 159.7 195.76 157.69 194.92C158.37 195.21 159.04 195.49 159.72 195.78C159.39 195.6 159.11 195.41 158.81 195.19C159.38 195.63 159.96 196.08 160.53 196.52C159.22 195.42 158.02 194.17 156.54 193.27C155.7 192.76 154.77 192.44 153.98 191.84C154.55 192.28 155.13 192.73 155.7 193.17C155.55 193.05 155.41 192.91 155.3 192.75C155.74 193.32 156.19 193.9 156.63 194.47C156.52 194.32 156.43 194.15 156.36 193.98C156.65 194.66 156.93 195.33 157.22 196.01C157.2 195.92 157.17 195.82 157.15 195.73C157.25 196.48 157.35 197.24 157.45 197.99C157.44 197.89 157.44 197.79 157.43 197.68C155.35 200.41 153.27 203.15 151.19 205.88C153.24 205.31 155.33 204.92 157.44 204.63C156.69 204.73 155.93 204.83 155.18 204.93C160.46 204.22 165.75 204.36 171.06 204.39C173.92 204.41 176.78 204.42 179.65 204.44C182.55 204.46 185.46 204.41 188.34 204.78C187.59 204.68 186.83 204.58 186.08 204.48C187.45 204.68 188.79 204.99 190.1 205.45C192.09 206.16 194.88 205.63 196.65 204.59C198.41 203.56 200.1 201.54 200.56 199.51C201.65 194.78 199.12 190.68 194.63 189.08Z" fill="white"/>
<path d="M200.11 181.89C200.11 181.89 182.24 183.5 169.93 182.42C157.62 181.34 142.85 177.92 142.85 177.92C142.85 177.92 138.87 203.03 167.8 206.64C196.73 210.25 200.11 181.89 200.11 181.89Z" fill="white" stroke="white" stroke-width="5.6693" stroke-miterlimit="10" stroke-linecap="round" stroke-linejoin="round"/>
<path d="M130.92 700.63C118.82 700.63 107.85 698.02 99.83 693.8C102.93 699.45 108.13 702.63 115.46 702.63C126.76 702.63 149.35 702.63 149.35 702.63C151.95 701.52 154.43 699.19 156.45 696.28C149.22 699.02 140.43 700.63 130.92 700.63Z" fill="white" stroke="white" stroke-width="5.6693" stroke-miterlimit="10" stroke-linecap="round" stroke-linejoin="round"/>
<path d="M210.92 699.63C201.86 699.63 193.39 698.27 186.18 695.9C188.01 698.57 190.22 700.68 192.51 701.73C192.51 701.73 215.28 702.99 225.9 702.99C232.53 702.99 238.55 699.39 241.29 693.74C233.06 697.41 222.47 699.63 210.92 699.63Z" fill="white" stroke="white" stroke-width="5.6693" stroke-miterlimit="10" stroke-linecap="round" stroke-linejoin="round"/>
<g opacity="0.3">
<path opacity="0.3" d="M113.56 678C116.46 676.84 119.39 675.67 122.48 675.23C124.15 674.99 125.84 674.97 127.53 674.95C133.74 674.88 140 674.81 146.08 676.04" fill="white"/>
<path opacity="0.3" d="M113.56 678C115.67 675.9 118.06 674.27 120.96 673.24C122.41 672.73 123.97 672.46 125.4 672.31C126.86 672.17 128.2 672.12 129.59 672.1C132.36 672.07 135.19 672.27 137.99 672.84C140.79 673.43 143.59 674.35 146.06 676.05C143.13 676.67 140.45 677 137.75 677.29C135.06 677.56 132.37 677.75 129.64 677.77C128.28 677.77 126.87 677.74 125.57 677.68C124.26 677.62 123.05 677.57 121.81 677.6C119.31 677.64 116.56 678.06 113.56 678Z" fill="white"/>
</g>
<g opacity="0.3">
<path opacity="0.3" d="M199.23 678.57C203.94 677.1 208.71 675.72 213.62 675.16C218.52 674.6 223.6 674.88 228.21 676.67" fill="white"/>
<path opacity="0.3" d="M199.23 678.57C201.23 676.72 203.45 675.41 205.81 674.37C208.17 673.35 210.69 672.64 213.3 672.34C215.91 672.04 218.61 672.16 221.21 672.81C223.79 673.48 226.32 674.66 228.21 676.67C225.49 676.89 223.14 677.03 220.81 677.25C218.49 677.46 216.23 677.72 213.94 677.97C211.65 678.23 209.31 678.5 206.88 678.68C204.45 678.84 201.93 678.96 199.23 678.57Z" fill="white"/>
</g>
<path d="M132.53 121.3C138.41 117.43 145.97 116.22 152.76 118.06L132.53 121.3Z" fill="white"/>
<path d="M132.38 121.07C133.62 119.72 135.11 118.57 136.72 117.59L137.96 116.9L139.25 116.28L140.59 115.76L141.96 115.31C142.42 115.18 142.89 115.04 143.36 114.88L144.79 114.47C145.27 114.38 145.76 114.29 146.25 114.28C146.74 114.28 147.23 114.34 147.72 114.43C149.64 114.89 151.54 115.82 152.86 117.8C152.98 117.97 152.93 118.21 152.75 118.32C152.74 118.33 152.73 118.34 152.71 118.34H152.7C150.62 119.4 149.02 119.8 147.44 120.08C146.65 120.22 145.89 120.21 145.1 120.06L143.9 119.86C143.5 119.81 143.09 119.79 142.68 119.78L141.46 119.81L140.23 119.91L138.99 120.03L137.74 120.22C136.07 120.49 134.4 120.95 132.7 121.53C132.55 121.58 132.38 121.5 132.33 121.35C132.28 121.26 132.31 121.14 132.38 121.07Z" fill="white"/>
<path d="M211.3 124.3C205.42 120.43 197.86 119.22 191.07 121.06L211.3 124.3Z" fill="white"/>
<path d="M211.14 124.54C209.44 123.96 207.78 123.5 206.1 123.23L204.85 123.04L203.61 122.92L202.38 122.82L201.16 122.79C200.75 122.81 200.35 122.83 199.94 122.87L198.74 123.07C197.95 123.22 197.19 123.23 196.4 123.09C194.81 122.8 193.21 122.41 191.14 121.35H191.13C190.94 121.26 190.87 121.03 190.97 120.84C190.98 120.83 190.98 120.81 190.99 120.8C192.31 118.82 194.2 117.89 196.13 117.43C196.61 117.34 197.11 117.28 197.6 117.28C198.09 117.29 198.58 117.38 199.06 117.47L200.49 117.88C200.96 118.04 201.42 118.18 201.89 118.31L203.26 118.76L204.6 119.28L205.89 119.9L207.13 120.59C208.74 121.58 210.22 122.72 211.47 124.07C211.58 124.19 211.57 124.37 211.45 124.48C211.35 124.55 211.24 124.57 211.14 124.54Z" fill="white"/>
<g opacity="0.2">
<path opacity="0.2" d="M155.42 221.63C155.42 221.63 162.42 226.63 171.28 226.65C179.42 226.67 184.58 223.21 191.42 219.63" fill="white"/>
<path opacity="0.2" d="M155.42 221.63C158.72 222.41 161.76 223.06 164.74 223.46C166.22 223.67 167.68 223.8 169.12 223.84C170.54 223.89 171.97 223.86 173.41 223.72C176.25 223.48 179.02 222.89 181.97 222C184.92 221.15 188.03 220.07 191.42 219.63C189.13 222.15 186.69 224.28 183.79 226.07C180.91 227.85 177.44 229.09 173.89 229.37C173 229.44 172.12 229.45 171.24 229.45C170.35 229.38 169.45 229.35 168.58 229.18C166.83 228.91 165.13 228.42 163.53 227.74C160.36 226.37 157.46 224.4 155.42 221.63Z" fill="white"/>
</g>
<path d="M119.61 209.73C120.32 210.53 113.43 215.5 103.12 220.75C92.81 226 83.13 229.43 82.42 228.63C81.71 227.83 90.12 221.87 100.42 216.63C110.72 211.39 118.9 208.93 119.61 209.73Z" fill="#F9AE00"/>
<path d="M121.42 218.63C121.42 218.63 57.42 76.6301 62.01 63.7701C63.58 59.3901 71.2 39.5901 69.98 36.5101C68.76 33.4201 59.87 26.8801 59.42 24.8101C58.97 22.7401 53.91 7.5301 51.65 6.1401C49.39 4.7501 45.81 2.7101 42.98 4.5901C40.15 6.4701 37.41 10.6701 37.41 10.6701C37.41 10.6701 32.26 9.8001 29.63 10.9101C27 12.0201 25.14 16.7201 25.14 16.7201C25.14 16.7201 19.34 15.5601 15.5 18.0301C11.66 20.5001 12.53 24.1501 12.53 24.1501C12.53 24.1501 8.44 23.2001 5.57 25.3301C2.7 27.4601 2.4 34.2901 3.27 37.9401C4.14 41.5901 7.32 52.9001 9.45 55.7701C11.58 58.6401 22.37 67.2501 29.55 71.2401C37.43 75.6201 88.43 234.62 88.43 234.62L121.42 218.63Z" fill="#72421F"/>
<path opacity="0.5" d="M39 70.4403C39 70.4403 35.71 58.6803 38.49 54.1603C41.27 49.6403 46.33 44.5703 46.33 44.5703C46.33 44.5703 42.23 45.5003 37.77 42.0003C33.31 38.5003 32.44 34.8503 32.57 33.3703C32.7 31.8903 39.31 31.2803 43.77 29.7303C48.23 28.1803 56.12 24.8503 57.14 25.0903C58.16 25.3303 59.44 24.7903 59.44 24.7903C59.44 24.7903 53.42 8.01029 52.2 6.68029C50.98 5.34029 49.73 5.05029 49.73 5.05029C49.73 5.05029 51.42 7.17029 52.96 11.6303C54.5 16.0903 57.27 23.6303 57.27 23.6303L42.88 28.0303L37.41 10.6903L34.56 10.4003L40.36 28.9603C40.36 28.9603 35.81 28.7603 33.29 30.3203C30.77 31.8803 30.22 33.7203 30.22 33.7203L23.68 16.5503L21.09 16.4903C21.09 16.4903 22.37 18.9303 24.9 27.5003C27.43 36.0703 32.36 42.6103 32.56 45.4603C32.76 48.3103 29.78 49.9803 27.04 50.6403C24.3 51.3003 20.58 47.8403 20.58 47.8403L11.88 24.0803L9.91 23.9903C9.91 23.9903 18.77 46.3403 18.86 48.7303C18.95 51.1203 17.69 51.9003 15.4 52.4503C13.12 52.9903 9.05 50.4803 8.12 46.4103C7.2 42.3403 2.84 33.3103 2.84 33.3103C2.84 33.3103 5.96 48.9203 7.04 50.5903C8.12 52.2603 9.12 54.4303 12.64 55.0403C16.16 55.6503 24.22 55.8103 27.26 55.0103C30.3 54.2103 35.78 52.9003 35.78 52.9003C35.78 52.9003 34.77 57.5003 35.78 61.3503C36.78 65.1803 39 70.4403 39 70.4403Z" fill="#542700"/>
<path d="M125.42 300.63C119.09 300.63 82.53 228.34 82.53 228.34L119.48 209.6L132.48 242.32C132.48 242.32 126.42 300.63 125.42 300.63Z" fill="#FDC75F"/>
<path d="M231.71 209.73C231 210.53 237.89 215.5 248.2 220.75C258.5 225.99 268.19 229.43 268.9 228.63C269.61 227.83 261.2 221.87 250.9 216.63C240.59 211.38 232.41 208.93 231.71 209.73Z" fill="#F9AE00"/>
<path d="M229.89 218.63C229.89 218.63 293.89 76.6299 289.3 63.7699C287.73 59.3899 280.11 39.5899 281.33 36.5099C282.55 33.4199 291.44 26.8799 291.89 24.8099C292.34 22.7399 297.41 7.53986 299.67 6.14986C301.93 4.75986 305.51 2.71986 308.34 4.59986C311.17 6.47986 313.91 10.6799 313.91 10.6799C313.91 10.6799 319.06 9.80986 321.69 10.9199C324.32 12.0299 326.18 16.7299 326.18 16.7299C326.18 16.7299 331.98 15.5699 335.82 18.0399C339.66 20.5099 338.79 24.1599 338.79 24.1599C338.79 24.1599 342.88 23.2099 345.75 25.3399C348.62 27.4699 348.92 34.2999 348.05 37.9499C347.18 41.5999 344 52.9099 341.87 55.7799C339.74 58.6499 328.95 67.2599 321.77 71.2499C313.89 75.6299 262.89 234.63 262.89 234.63L229.89 218.63Z" fill="#72421F"/>
<path opacity="0.5" d="M312.32 70.44C312.32 70.44 315.61 58.68 312.83 54.16C310.05 49.64 304.99 44.57 304.99 44.57C304.99 44.57 309.1 45.51 313.56 42.01C318.02 38.51 318.89 34.86 318.76 33.38C318.63 31.9 312.02 31.29 307.56 29.74C303.1 28.19 295.21 24.86 294.19 25.1C293.17 25.34 291.89 24.8 291.89 24.8C291.89 24.8 297.9 8.01004 299.12 6.67004C300.34 5.33004 301.59 5.04004 301.59 5.04004C301.59 5.04004 299.9 7.16004 298.36 11.62C296.81 16.08 294.05 23.62 294.05 23.62L308.44 28.02L313.91 10.68L316.76 10.39L310.96 28.95C310.96 28.95 315.51 28.75 318.03 30.31C320.55 31.87 321.1 33.71 321.1 33.71L327.64 16.54L330.23 16.48C330.23 16.48 328.95 18.92 326.42 27.49C323.89 36.06 318.96 42.6 318.76 45.45C318.56 48.3 321.54 49.97 324.28 50.63C327.02 51.28 330.74 47.83 330.74 47.83L339.44 24.07L341.41 23.98C341.41 23.98 332.55 46.33 332.46 48.72C332.37 51.11 333.63 51.89 335.92 52.44C338.2 52.98 342.27 50.47 343.2 46.4C344.13 42.33 348.48 33.3 348.48 33.3C348.48 33.3 345.36 48.91 344.28 50.58C343.2 52.25 342.2 54.42 338.68 55.03C335.16 55.64 327.1 55.8 324.06 55C321.02 54.2 315.54 52.89 315.54 52.89C315.54 52.89 316.55 57.49 315.54 61.34C314.53 65.19 312.32 70.44 312.32 70.44Z" fill="#542700"/>
<path d="M225.89 300.63C232.22 300.63 268.78 228.34 268.78 228.34L231.83 209.6L218.83 242.32C218.83 242.32 224.89 300.63 225.89 300.63Z" fill="#FDC75F"/>
<path d="M128.72 408.44L116.5 484.56C116.5 484.56 122.28 496.54 138.69 496.86C155.1 497.18 168.01 494.12 168.01 494.12C168.01 494.12 174.24 464.89 177.06 464.36C179.89 463.84 182.14 492.41 185.72 495.65C189.29 498.89 208.91 497.82 215.81 496.88C235.31 494.25 242.87 489.22 242.87 489.22L228.64 406.07L128.72 408.44Z" fill="#354D73"/>
<path d="M200.63 551.36C202.69 546.97 223.83 546.97 224.56 551.36C225.28 555.75 217.12 635.65 217.12 635.65H205.76C205.76 635.64 199.04 554.75 200.63 551.36Z" fill="#939DA9"/>
<path d="M192.52 702.73C184.26 698.96 177.18 681.39 184.26 673.86C191.34 666.33 192.52 655.03 210.22 655.03C229.1 655.03 238.46 670.09 242.08 682.64C245.58 694.75 236.53 703.98 225.91 703.98C215.29 703.98 192.52 702.73 192.52 702.73Z" fill="#F9AE00"/>
<path d="M217.12 651.46V635.64H205.76V652.05C201.33 654.35 198.3 658.97 198.3 664.3C198.3 664.3 200.43 666.62 212.5 666.3C220.43 666.09 225.91 664.3 225.91 664.3C225.91 658.46 222.26 653.47 217.12 651.46Z" fill="#7092C0"/>
<path opacity="0.5" d="M212.73 553.24C218.971 553.24 224.03 552.116 224.03 550.73C224.03 549.344 218.971 548.22 212.73 548.22C206.489 548.22 201.43 549.344 201.43 550.73C201.43 552.116 206.489 553.24 212.73 553.24Z" fill="#868E96"/>
<path d="M213.36 530.65C210.93 530.65 208.97 531.77 208.97 533.16V549.48C208.97 550.87 210.94 551.99 213.36 551.99C215.79 551.99 217.75 550.87 217.75 549.48V533.16C217.75 531.77 215.78 530.65 213.36 530.65Z" fill="#939DA9"/>
<path opacity="0.4" d="M167.55 493C167.25 495.41 151.81 496.6 138.68 495.51C123.62 494.25 117.05 487.88 117.34 485.47C117.63 483.06 126.13 487.98 142.98 489.27C156.12 490.27 167.85 490.59 167.55 493Z" fill="#21324C"/>
<path d="M124.88 485.47C123.12 499.14 126.33 526.82 124.03 539.09C121.73 551.36 116.27 591.42 116.72 602.82C117.33 618.37 120.49 654.28 120.49 654.28H142.37C142.37 654.28 154.37 573.96 153.12 553.88C151.86 533.8 158.75 498.11 160.02 493.01C162.53 482.96 124.88 485.47 124.88 485.47Z" fill="#72421F"/>
<path d="M149.35 703.22C158.14 699.45 165.67 681.88 158.14 674.35C150.61 666.82 149.35 655.52 130.53 655.52C110.45 655.52 95.39 670.58 96.64 683.13C97.9 695.68 104.17 703.21 115.47 703.21C126.77 703.21 149.35 703.22 149.35 703.22Z" fill="#F9AE00"/>
<path d="M117.09 610.3L148.62 610.82L142.37 659.92C142.37 659.92 139.83 662.21 132.13 661.92C124.43 661.63 120.49 659.92 120.49 659.92L117.09 610.3Z" fill="#7494C2"/>
<path d="M117.59 617.99L147.66 618.37L146.76 625.46H118.15L117.59 617.99Z" fill="#39506D"/>
<path opacity="0.4" d="M185.73 495.65C185.73 495.65 193.52 500.02 214.42 497.14C235.32 494.26 242.89 489.23 242.89 489.23C242.89 489.23 237.97 488.69 232.25 488.97C226.53 489.25 207.71 486.73 196.41 489.24C185.12 491.74 185.73 495.65 185.73 495.65Z" fill="#21324C"/>
<path d="M196.42 489.23C196.42 489.23 189.52 546.33 214.62 541.31C239.72 536.29 232.26 488.95 232.26 488.95C232.26 488.95 215.25 487.97 208.98 487.97C202.71 487.97 196.42 489.23 196.42 489.23Z" fill="#333333"/>
<g opacity="0.3">
<path opacity="0.3" d="M128.36 559.98C129.79 560.27 131.03 560.57 132.27 560.76C133.5 560.97 134.7 561.09 135.9 561.15C137.1 561.2 138.29 561.18 139.56 561.09C140.83 561.02 142.15 560.88 143.61 560.91C142.6 561.97 141.4 562.73 140.06 563.26C138.73 563.79 137.24 564.05 135.76 563.98C134.29 563.91 132.83 563.53 131.54 562.86C130.26 562.19 129.11 561.23 128.36 559.98Z" fill="#542700"/>
</g>
<path d="M218.42 242.63C214.52 234.28 145.42 232.63 133.42 241.63C122.11 250.12 122.42 417.63 124.42 421.63C126.42 425.63 230.36 419.63 230.89 415.63C231.42 411.63 225.42 257.63 218.42 242.63Z" fill="#F9AE00"/>
<path d="M112.26 137.69C111.63 137.35 109.73 137.04 109.06 136.84C106.83 136.19 104.36 137.45 102.98 139.93C101.3 142.96 101.32 147.11 101.49 150.92C101.6 153.58 101.76 156.32 102.68 158.67C103.06 159.65 103.57 160.52 104.07 161.39C105.06 163.1 106.06 164.8 107.2 166.32C110.63 170.88 110.66 170.46 115.06 173.02L112.26 137.69Z" fill="#683914"/>
<path d="M154.47 220.32C155.09 223.7 155.44 227.13 155.52 230.57C155.58 232.92 155.39 235.55 153.65 237.14C153.38 237.39 153.06 237.62 152.96 237.98C152.9 238.17 152.92 238.38 152.94 238.58C153.22 240.76 154.8 242.61 156.68 243.76C158.56 244.91 160.73 245.46 162.87 245.98C169.59 247.61 177.03 248.98 183.13 245.72C186.36 243.99 188.83 241.14 191.17 238.32C191.53 237.88 191.91 237.41 192 236.84C192.07 236.37 191.93 235.89 191.8 235.43C190.62 231.2 190.48 226.69 191.38 222.4C191.48 221.92 191.57 217.35 191.23 217C190.91 216.67 190.38 220.7 189.93 220.76C178.55 222.17 166.92 221.59 155.73 219.04L154.47 220.32Z" fill="#683914"/>
<path d="M228.84 179.68C227.57 186.1 240.02 172.53 243.91 167.26C245.21 165.5 246.28 163.6 247.34 161.69C247.88 160.72 248.42 159.74 248.77 158.69C249.63 156.17 249.4 153.42 249.11 150.78C248.71 146.99 248.06 142.89 245.29 140.28C243.01 138.14 239.47 137.46 236.56 138.6C235.69 138.94 233.18 139.67 232.38 140.15C232.39 140.15 229.53 176.18 228.84 179.68Z" fill="#683914"/>
<path d="M228.72 190.69C217.58 209.26 196.59 221.94 175.07 224.32C153.55 226.7 127.25 213.43 117.9 193.9C110.8 179.08 113.08 164.99 111.63 148.98C110.26 133.9 106.24 116.56 111.47 102.35C113.32 97.3201 117.47 82.2001 121.11 78.2601C135.82 62.3401 149.64 64.0401 171.31 64.5401C182.37 64.8001 193.11 68.1101 203.64 71.5001C214 74.8301 219.87 75.1301 228.72 81.4701C237.57 87.8101 242.59 96.3001 243.18 107.17C243.48 112.68 238.78 136.28 237.43 141.63C237.42 141.63 238.36 174.63 228.72 190.69Z" fill="#72421F"/>
<path d="M227.39 99.7902C225.37 99.8402 224.29 102.45 224.88 104.38C225.47 106.31 227.09 107.71 228.47 109.19C229.85 110.67 231.11 112.58 230.73 114.57C230.46 115.99 229.37 117.19 229.27 118.63C229.04 121.78 233.16 123.25 234.83 125.93C236.3 128.29 235.71 131.32 235.34 134.08C234.97 136.84 235.12 140.14 237.41 141.73C240.05 143.55 243.62 141.89 246.26 140.07C249.06 138.13 251.98 135.59 252.18 132.18C252.33 129.74 251.01 127.38 251.22 124.94C251.47 122.01 253.83 119.71 254.7 116.91C255.91 113 251.46 107.58 250.43 103.62C249.58 100.32 251.92 98.2002 252.17 94.8002C252.34 92.4602 252.7 89.8502 251.25 88.0102C250.36 86.8802 248.98 86.3102 247.7 85.6602C239.67 81.6102 234.18 72.9402 233.93 63.9502C228.67 68.9202 218.83 67.3902 215.31 61.0702C210.23 64.0602 203.79 67.0802 198.78 63.9702C196.38 62.4802 194.94 59.8802 193.2 57.6502C191.46 55.4202 188.94 53.3502 186.13 53.6902C183.42 54.0202 181.22 56.5402 178.5 56.3902C174.7 56.1802 172.15 50.9102 168.44 51.7602C166.75 52.1502 165.57 53.7502 163.89 54.1902C160.15 55.1802 155.76 50.1302 152.92 52.7602C152.32 53.3102 152 54.1002 151.43 54.6802C149.38 56.7702 145.95 55.0702 143.06 54.5902C138.1 53.7602 132.87 57.8102 132.43 62.8202C129.19 63.2102 125.86 63.6402 123.01 65.2102C120.15 66.7802 117.84 69.8102 118.11 73.0602C118.17 73.7802 118.34 74.5502 118 75.1802C117.69 75.7502 117.05 76.0502 116.55 76.4602C114.78 77.9102 114.85 80.5702 114.09 82.7302C113.1 85.5602 110.64 87.5802 108.86 89.9902C107.08 92.4102 106.07 96.0202 108.07 98.2502C104.84 101.58 101.36 105.68 102.15 110.25C102.29 111.07 102.57 111.88 102.48 112.71C102.27 114.47 100.52 115.55 99.39 116.91C96.69 120.18 98.23 125.95 102.21 127.42C99.94 127.9 99.08 131.01 100.16 133.06C101.24 135.11 103.54 136.21 105.78 136.82C107.4 137.26 108.85 142.19 110.43 141.61C112.01 141.03 113.61 134.71 113.3 133.06C113.17 132.36 113.63 133.3 113.43 132.61C112.01 127.84 118.75 122.41 117.43 117.61C116.89 115.64 115.15 114.39 114.47 112.46C113.51 109.75 115.4 106.91 117.4 104.85C119.4 102.79 123.19 106.47 123.43 103.61C123.64 101.18 120.79 92.8502 121.63 90.5702C122.67 87.7402 127.41 90.6602 130.43 90.6102C133.45 90.5702 135.98 86.7902 137.49 84.1802C138.26 82.8402 138.48 80.9102 139.94 80.4202C141.87 79.7602 143.2 82.2502 144.51 83.8102C146.35 86.0002 149.48 86.7302 152.32 86.3902C155.16 86.0402 157.78 84.7802 160.35 83.5302C163.19 87.6302 167.96 90.3402 172.94 90.6702C178.44 91.0302 184.49 88.7802 189.17 91.6802C190.99 92.8102 192.47 94.6702 194.58 95.0002C197.57 95.4702 201.02 92.7402 203.36 94.6602C204.02 95.2002 204.39 96.0102 204.86 96.7202C207.18 100.19 212.57 101.08 215.88 98.5402C217.67 101.26 220.62 103.18 223.83 103.71" fill="black"/>
<path d="M190.57 147.33C190.57 152.65 193.45 142.97 196.99 142.97C200.53 142.97 203.41 152.66 203.41 147.33C203.41 142.01 200.53 137.69 196.99 137.69C193.45 137.69 190.57 142 190.57 147.33Z" fill="black"/>
<path d="M138.77 145.72C138.77 151.04 141.65 141.36 145.19 141.36C148.74 141.36 151.61 151.05 151.61 145.72C151.61 140.4 148.73 136.08 145.19 136.08C141.65 136.08 138.77 140.4 138.77 145.72Z" fill="black"/>
<path d="M171.97 155.13C172.18 156.19 172.31 157.27 172.37 158.37C172.26 159.46 172.08 160.56 171.69 161.62C171.31 162.68 170.69 163.69 169.85 164.48C169.43 164.87 169.01 165.18 168.67 165.53C168.33 165.87 168.1 166.24 167.93 166.69C167.76 167.14 167.66 167.64 167.56 168.16C167.46 168.68 167.37 169.17 167.42 169.59C167.5 170.42 168.28 171.06 169.18 171.47C170.1 171.89 171.09 172.16 172.1 172.27C173.09 172.55 174.14 172.64 175.23 172.62C174.22 173.04 173.12 173.22 171.99 173.26C170.88 173.14 169.79 172.84 168.76 172.37C168.24 172.13 167.73 171.83 167.29 171.4C166.85 170.98 166.5 170.36 166.43 169.71C166.36 169.07 166.48 168.49 166.58 167.97C166.68 167.44 166.79 166.89 166.99 166.34C167.18 165.79 167.53 165.23 167.95 164.82C168.36 164.4 168.8 164.08 169.16 163.75C169.87 163.08 170.41 162.22 170.75 161.28C171.1 160.34 171.28 159.32 171.37 158.28C171.64 157.26 171.77 156.2 171.97 155.13Z" fill="black"/>
<path d="M197.76 189.46C191.84 191.19 188.63 191.24 182.96 191.47C180.4 191.57 175.75 191.8 173.19 191.67C166.15 191.33 160.17 190.54 152.18 188.76C150.13 188.3 146.3 187.06 144.45 185.96C142.61 184.86 142.53 181.88 142.37 179.41C143.79 178.7 145.7 179.86 147.18 180.21C148.38 180.49 150 179.76 151.16 180.18C152.91 180.82 154.51 181.5 156.34 181.7C170.7 183.24 184.94 185.48 199.34 183.34C199.52 184.43 198.55 186.77 198.27 188.56" fill="white"/>
<path d="M192.37 198.28C189.04 197.04 185.42 197.01 181.87 196.98C175.66 196.94 169.44 196.9 163.23 196.88C158.89 196.87 153.13 197.52 148.95 198.71C148.92 200.21 150.65 200.79 151.96 201.46C153.35 202.17 154.31 203.76 155.78 204.28C157.2 204.79 158.26 205.14 159.74 205.46C162.58 206.07 164.82 207.2 167.66 207.81C168.77 208.05 173.05 207.49 174.18 207.55C176.67 207.7 179.18 207.24 181.58 206.54C182.81 206.18 183.72 205.53 184.95 205.18C185.68 204.97 186.86 204.13 187.51 203.75C188.18 203.35 188.72 202.8 189.27 202.25C190.37 201.14 191.68 200.36 192.79 199.24" fill="#C45549"/>
<path d="M200.11 182.89C200.11 182.89 182.24 184.5 169.93 183.42C157.62 182.34 142.85 178.92 142.85 178.92C142.85 178.92 138.87 204.03 167.8 207.64C196.73 211.25 200.11 182.89 200.11 182.89Z" stroke="black" stroke-miterlimit="10"/>
<path d="M130.92 701.63C118.82 701.63 107.85 699.02 99.83 694.8C102.93 700.45 108.13 703.63 115.46 703.63C126.76 703.63 149.35 703.63 149.35 703.63C151.95 702.52 154.43 700.19 156.45 697.28C149.22 700.02 140.43 701.63 130.92 701.63Z" fill="#604F3F"/>
<path d="M210.92 700.63C201.86 700.63 193.39 699.27 186.18 696.9C188.01 699.57 190.22 701.68 192.51 702.73C192.51 702.73 215.28 703.99 225.9 703.99C232.53 703.99 238.55 700.39 241.29 694.74C233.06 698.41 222.47 700.63 210.92 700.63Z" fill="#604F3F"/>
<g opacity="0.3">
<path opacity="0.3" d="M113.56 679C115.95 677.57 118.45 676.32 121.23 675.61C124.05 674.87 126.88 674.95 129.61 674.87C132.37 674.87 135.15 674.91 137.92 675.23C140.69 675.54 143.45 676.07 146.07 677.04C143.28 676.93 140.56 676.88 137.83 676.88L129.63 676.99H125.52C124.17 676.97 122.86 677.06 121.54 677.22C118.92 677.59 116.28 678.39 113.56 679Z" fill="#604F3F"/>
</g>
<g opacity="0.3">
<path opacity="0.3" d="M199.23 679.57C201.45 678.42 203.76 677.48 206.14 676.72C208.52 675.95 210.98 675.41 213.49 675.1C216 674.83 218.56 674.81 221.08 675.2C223.58 675.58 226.06 676.35 228.2 677.66C225.74 677.18 223.34 676.91 220.93 676.85C218.52 676.8 216.12 676.91 213.74 677.21C211.34 677.46 208.96 677.9 206.55 678.32C204.14 678.77 201.71 679.26 199.23 679.57Z" fill="#604F3F"/>
</g>
<path d="M132.38 122.07C133.62 120.72 135.11 119.57 136.72 118.59L137.96 117.9L139.25 117.28L140.59 116.76L141.96 116.31C142.42 116.18 142.89 116.04 143.36 115.88L144.79 115.47C145.27 115.38 145.76 115.29 146.25 115.28C146.74 115.28 147.23 115.34 147.72 115.43C149.64 115.89 151.54 116.82 152.86 118.8L152.71 119.35C150.63 120.41 149.03 120.81 147.45 121.09C146.66 121.23 145.9 121.22 145.11 121.07L143.91 120.87C143.51 120.82 143.1 120.8 142.69 120.79L141.47 120.82L140.24 120.92L139 121.04L137.75 121.23C136.08 121.5 134.41 121.96 132.71 122.54L132.38 122.07Z" fill="black"/>
<path d="M211.14 125.54C209.44 124.96 207.78 124.5 206.1 124.23L204.85 124.04L203.61 123.92L202.38 123.82L201.16 123.79C200.75 123.81 200.35 123.83 199.94 123.87L198.74 124.07C197.95 124.22 197.19 124.23 196.4 124.09C194.81 123.8 193.21 123.41 191.14 122.35L190.99 121.8C192.31 119.82 194.2 118.89 196.13 118.43C196.61 118.34 197.11 118.28 197.6 118.28C198.09 118.29 198.58 118.38 199.06 118.47L200.49 118.88C200.96 119.04 201.42 119.18 201.89 119.31L203.26 119.76L204.6 120.28L205.89 120.9L207.13 121.59C208.74 122.58 210.22 123.72 211.47 125.07L211.14 125.54Z" fill="black"/>
<g opacity="0.2">
<path opacity="0.2" d="M155.42 222.63C158.72 223.41 161.76 224.06 164.74 224.46C166.22 224.67 167.68 224.8 169.12 224.84C170.54 224.89 171.97 224.86 173.41 224.72C176.25 224.48 179.02 223.89 181.97 223C184.92 222.15 188.03 221.07 191.42 220.63C189.13 223.15 186.69 225.28 183.79 227.07C180.91 228.85 177.44 230.09 173.89 230.37C173 230.44 172.12 230.45 171.24 230.45C170.35 230.38 169.45 230.35 168.58 230.18C166.83 229.91 165.13 229.42 163.53 228.74C160.36 227.37 157.46 225.4 155.42 222.63Z" fill="#542700"/>
</g>
<g opacity="0.7">
<g opacity="0.8">
<g opacity="0.8">
<path opacity="0.8" d="M197.67 277.26C196.76 279.3 195.95 281.38 195.28 283.52C194.67 285.46 193.79 287.76 195.15 289.58C196.31 291.15 198.43 291.79 200.14 292.57C202.28 293.55 204.43 294.52 206.57 295.5C207.31 295.84 208.18 295.71 208.62 294.96C209 294.32 208.82 293.24 208.08 292.91C206.28 292.09 204.48 291.27 202.67 290.45C201.79 290.05 200.92 289.65 200.04 289.25C199.32 288.92 198.5 288.63 197.87 288.14C197.4 287.77 197.36 287.37 197.47 286.79C197.64 285.91 197.95 285.03 198.22 284.17C198.8 282.34 199.48 280.53 200.26 278.78C200.59 278.04 200.47 277.17 199.72 276.73C199.08 276.35 198 276.52 197.67 277.26Z" fill="#F7931E"/>
</g>
</g>
<g opacity="0.8">
<g opacity="0.8">
<path opacity="0.8" d="M166.22 302.31C169.38 304.38 173.14 303.59 176.67 303.97C176.7 303.97 177.12 304.03 177.11 304.04C177 303.9 176.88 303.76 176.77 303.61C176.85 303.6 176.85 303.67 176.78 303.82C176.64 304.2 176.72 304.87 176.7 305.26C176.63 306.32 176.56 307.37 176.48 308.42C176.31 310.62 176.09 312.82 175.83 315.01C175.74 315.82 176.59 316.51 177.33 316.51C178.22 316.51 178.74 315.82 178.83 315.01C179.1 312.68 179.33 310.35 179.51 308.01C179.6 306.86 179.68 305.72 179.74 304.57C179.81 303.39 179.76 302.14 178.63 301.45C177.79 300.93 176.62 300.95 175.66 300.91C174.72 300.87 173.77 300.88 172.83 300.87C171.04 300.84 169.26 300.73 167.72 299.72C166.11 298.65 164.61 301.25 166.22 302.31Z" fill="#F7931E"/>
</g>
</g>
<g opacity="0.8">
<g opacity="0.8">
<path opacity="0.8" d="M183.22 264.24C182.89 266.04 182.55 267.84 182.22 269.64C182.06 270.52 181.91 271.4 181.73 272.28C181.68 272.52 181.57 272.9 181.54 273.03C181.57 272.95 181.55 272.99 181.48 273.14C181.5 273.12 181.52 273.1 181.54 273.08C181.39 273.21 181.4 273.22 181.58 273.1C181.64 273.04 181.7 273.01 181.78 273.01C181.8 272.92 180.07 272.14 179.88 272.04C179.09 271.64 178.3 271.24 177.51 270.84C175.85 270 174.2 269.17 172.54 268.33C171.82 267.97 170.91 268.14 170.49 268.87C170.1 269.54 170.3 270.56 171.03 270.92C172.91 271.87 174.79 272.82 176.67 273.77C177.61 274.24 178.55 274.72 179.49 275.19C180.43 275.66 181.43 276.23 182.52 275.89C184.47 275.28 184.64 272.99 184.95 271.3C185.34 269.21 185.73 267.11 186.11 265.02C186.26 264.22 185.89 263.4 185.06 263.17C184.34 262.99 183.37 263.44 183.22 264.24Z" fill="#F7931E"/>
</g>
</g>
<g opacity="0.8">
<g opacity="0.8">
<path opacity="0.8" d="M140.52 242.85C139.59 245.23 138.42 247.51 137.07 249.69C136.44 250.7 137.27 251.89 138.37 251.95C142.23 252.16 146.09 252.36 149.95 252.57C150.76 252.61 151.45 251.85 151.45 251.07C151.45 250.22 150.76 249.61 149.95 249.57C146.09 249.36 142.23 249.16 138.37 248.95C138.8 249.7 139.23 250.45 139.67 251.21C141.15 248.81 142.39 246.28 143.42 243.65C143.72 242.9 143.09 242 142.37 241.8C141.52 241.57 140.82 242.09 140.52 242.85Z" fill="#F7931E"/>
</g>
</g>
<g opacity="0.8">
<g opacity="0.8">
<path opacity="0.8" d="M161.23 258.95C164.89 257.15 168.15 254.57 170.73 251.41C170.02 251.41 169.32 251.41 168.61 251.41C170.85 253.45 173.09 255.48 175.33 257.52C176.76 258.82 178.88 256.7 177.45 255.4C175.21 253.36 172.97 251.33 170.73 249.29C170.18 248.79 169.14 248.64 168.61 249.29C166.17 252.27 163.17 254.66 159.71 256.36C158.98 256.72 158.78 257.75 159.17 258.41C159.61 259.15 160.5 259.31 161.23 258.95Z" fill="#F7931E"/>
</g>
</g>
<g opacity="0.8">
<g opacity="0.8">
<path opacity="0.8" d="M198.63 239.78C197.42 241.58 196.21 243.38 195 245.18C194.44 246.02 193.76 246.84 193.31 247.74C192.72 248.91 193.1 250.22 194.27 250.83C195.18 251.3 196.32 251.47 197.3 251.71C198.3 251.96 199.3 252.18 200.31 252.39C202.46 252.83 204.62 253.18 206.8 253.46C207.6 253.56 208.3 252.7 208.3 251.96C208.3 251.06 207.61 250.57 206.8 250.46C204.81 250.2 202.84 249.86 200.88 249.44C199.87 249.23 198.87 249 197.87 248.75C197.41 248.64 196.95 248.52 196.49 248.39C196.29 248.34 196.02 248.2 195.8 248.2C195.63 248.14 195.6 248.13 195.71 248.19C195.79 248.29 195.87 248.38 195.95 248.47C195.95 248.74 195.95 249 195.95 249.27C195.99 248.96 196.21 248.73 196.38 248.47C196.6 248.14 196.83 247.8 197.05 247.47C197.52 246.77 197.99 246.07 198.46 245.37C199.38 244 200.3 242.64 201.22 241.27C201.67 240.6 201.35 239.61 200.68 239.22C199.94 238.81 199.08 239.11 198.63 239.78Z" fill="#F7931E"/>
</g>
</g>
<g opacity="0.8">
<g opacity="0.8">
<path opacity="0.8" d="M133.79 267.05C136.04 268.48 138.37 269.75 140.8 270.84C142.02 271.39 143.26 271.9 144.51 272.37C145.14 272.61 145.78 272.83 146.43 273.04C146.71 273.13 146.98 273.22 147.26 273.31C147.42 273.36 147.57 273.41 147.73 273.46C147.54 273.31 147.53 273.33 147.7 273.51C147.57 273.29 147.44 273.07 147.31 272.85C147.52 273.37 146.75 274.41 146.4 274.83C145.79 275.55 145.04 276.13 144.27 276.66C142.21 278.05 140.01 279.26 137.88 280.54C136.23 281.53 137.73 284.13 139.39 283.13C141.82 281.67 144.4 280.33 146.66 278.62C147.68 277.85 148.6 277 149.31 275.92C149.97 274.92 150.59 273.46 150.28 272.25C149.9 270.74 148.19 270.49 146.95 270.06C145.61 269.61 144.28 269.11 142.98 268.54C140.32 267.38 137.76 266.01 135.31 264.45C133.67 263.42 132.16 266.02 133.79 267.05Z" fill="#F7931E"/>
</g>
</g>
<g opacity="0.8">
<g opacity="0.8">
<path opacity="0.8" d="M153.22 286.07C152.29 290.18 151.36 294.3 150.42 298.41C150.35 298.72 150.12 298.98 150.55 298.69C151.04 298.36 150.76 298.55 150.6 298.5C150.2 298.37 149.5 298.5 149.09 298.5C148.03 298.5 146.97 298.5 145.91 298.5C143.74 298.5 141.57 298.5 139.4 298.5C137.47 298.5 137.47 301.5 139.4 301.5C141.77 301.5 144.14 301.51 146.51 301.5C147.67 301.5 148.83 301.5 149.99 301.49C151.12 301.49 152.26 301.43 152.92 300.36C153.45 299.51 153.53 298.24 153.75 297.28C154.01 296.15 154.26 295.03 154.52 293.9C155.05 291.55 155.59 289.2 156.12 286.85C156.54 284.99 153.64 284.18 153.22 286.07Z" fill="#F7931E"/>
</g>
</g>
<g opacity="0.8">
<g opacity="0.8">
<path opacity="0.8" d="M136.46 319.07C136.44 319.52 136.26 320.01 135.9 320.56C135.56 321.08 135.13 321.52 134.62 322.05C134.09 322.59 133.55 323.11 133.05 323.67C132.45 324.35 131.74 325.11 131.74 326.07C131.74 327.3 132.76 327.87 133.72 328.36C134.66 328.84 135.6 329.33 136.53 329.81C138.41 330.78 140.28 331.74 142.16 332.71C142.88 333.08 143.79 332.9 144.21 332.17C144.6 331.5 144.39 330.49 143.67 330.12C141.94 329.23 140.21 328.34 138.47 327.44C137.64 327.01 136.81 326.59 135.98 326.16C135.55 325.94 135.11 325.72 134.68 325.49C134.59 325.45 134.5 325.4 134.42 325.35C134.38 326.39 134.48 326.73 134.71 326.35C134.82 326.23 134.84 326.17 134.89 326.11C136.71 323.88 139.29 322.22 139.45 319.07C139.49 318.26 138.73 317.57 137.95 317.57C137.12 317.57 136.51 318.26 136.46 319.07Z" fill="#F7931E"/>
</g>
</g>
<g opacity="0.8">
<g opacity="0.8">
<path opacity="0.8" d="M156.64 326.9C158.06 327.83 159.42 328.83 160.71 329.92C161.33 330.45 161.94 330.99 162.53 331.55C163.08 332.07 163.92 332.68 164.23 333.38C164.16 333.13 164.09 332.88 164.03 332.62C164.35 332.22 164.36 332.13 164.06 332.35C163.98 332.39 163.9 332.44 163.83 332.48C163.56 332.64 163.29 332.8 163.02 332.96C162.56 333.24 162.11 333.54 161.68 333.85C160.73 334.52 159.82 335.24 158.95 336C157.24 337.52 155.75 339.24 154.43 341.1C153.96 341.76 154.31 342.77 154.97 343.15C155.72 343.59 156.55 343.27 157.02 342.61C158.24 340.89 159.68 339.32 161.28 337.93C162.06 337.25 162.89 336.62 163.75 336.04C164.61 335.47 165.73 335.03 166.44 334.28C168.42 332.19 165.14 329.8 163.71 328.53C161.97 326.98 160.11 325.56 158.16 324.29C156.53 323.25 155.03 325.85 156.64 326.9Z" fill="#F7931E"/>
</g>
</g>
<g opacity="0.8">
<g opacity="0.8">
<path opacity="0.8" d="M202.33 315.29C198.11 318.56 194.02 321.98 190.04 325.54C189.3 326.2 189.56 327.42 190.34 327.9C193.91 330.08 197.22 332.61 200.25 335.49C201.65 336.82 203.77 334.7 202.37 333.37C199.16 330.32 195.63 327.62 191.85 325.31C191.95 326.1 192.05 326.88 192.15 327.67C196.12 324.11 200.22 320.69 204.44 317.42C205.08 316.92 204.96 315.82 204.44 315.3C203.82 314.66 202.97 314.79 202.33 315.29Z" fill="#F7931E"/>
</g>
</g>
<g opacity="0.8">
<g opacity="0.8">
<path opacity="0.8" d="M189.1 352.92C186.91 350.08 184.88 347.12 183.01 344.05C182.57 343.33 181.69 343.13 180.96 343.51C176.14 346.01 171.31 348.51 166.49 351.01C164.78 351.9 166.29 354.49 168 353.6C172.82 351.1 177.65 348.6 182.47 346.1C181.79 345.92 181.1 345.74 180.42 345.56C182.29 348.63 184.32 351.58 186.51 354.43C187.01 355.08 187.79 355.41 188.56 354.97C189.19 354.61 189.59 353.56 189.1 352.92Z" fill="#F7931E"/>
</g>
</g>
<g opacity="0.8">
<g opacity="0.8">
<path opacity="0.8" d="M131.81 363.64C133.87 364.66 136.04 365.45 138.3 365.9C139.44 366.13 140.59 366.28 141.75 366.36C142.32 366.4 142.89 366.41 143.46 366.41C143.59 366.41 143.71 366.41 143.84 366.41C144 366.44 143.98 366.37 143.76 366.22C143.73 366.34 143.73 366.48 143.71 366.6C143.25 368.96 142.35 371.3 141.68 373.61C140.97 376.05 140.25 378.5 139.54 380.94C139 382.8 141.89 383.59 142.43 381.74C143.23 379 144.03 376.25 144.83 373.51C145.21 372.2 145.6 370.89 145.98 369.57C146.33 368.38 146.86 367.12 146.72 365.86C146.39 362.82 142.89 363.5 140.73 363.25C138.16 362.96 135.64 362.18 133.33 361.03C131.6 360.2 130.08 362.78 131.81 363.64Z" fill="#F7931E"/>
</g>
</g>
<g opacity="0.8">
<g opacity="0.8">
<path opacity="0.8" d="M169.3 368.74C166.96 369.08 164.57 369.09 162.22 368.85C161.45 368.77 160.66 369.6 160.72 370.35C161.06 374.86 160.62 379.35 159.39 383.7C158.87 385.56 161.76 386.36 162.28 384.5C163.57 379.91 164.07 375.11 163.72 370.36C163.22 370.86 162.72 371.36 162.22 371.86C164.86 372.13 167.48 372.02 170.1 371.64C170.9 371.52 171.34 370.51 171.15 369.79C170.9 368.93 170.1 368.62 169.3 368.74Z" fill="#F7931E"/>
</g>
</g>
<g opacity="0.8">
<g opacity="0.8">
<path opacity="0.8" d="M197.52 379.27C199.34 379.53 201.17 379.79 202.99 380.06C203.95 380.2 204.9 380.33 205.86 380.47C206.29 380.53 206.73 380.59 207.16 380.66C207.42 380.7 207.68 380.73 207.94 380.77C208.26 380.82 208.44 381.02 208.07 380.52C207.71 380.04 207.83 380.3 207.78 380.69C207.75 380.91 207.73 381.13 207.7 381.35C207.64 381.83 207.58 382.32 207.53 382.8C207.42 383.72 207.31 384.64 207.2 385.57C206.97 387.46 206.75 389.35 206.52 391.23C206.42 392.04 207.28 392.73 208.02 392.73C208.91 392.73 209.42 392.04 209.52 391.23C209.77 389.12 210.03 387.02 210.28 384.91C210.4 383.9 210.52 382.89 210.64 381.88C210.77 380.83 211.1 379.62 210.34 378.73C209.66 377.93 208.67 377.87 207.7 377.73C206.66 377.58 205.62 377.43 204.57 377.28C202.49 376.98 200.4 376.68 198.32 376.38C197.52 376.27 196.71 376.58 196.47 377.43C196.28 378.12 196.72 379.15 197.52 379.27Z" fill="#F7931E"/>
</g>
</g>
<g opacity="0.8">
<g opacity="0.8">
<path opacity="0.8" d="M220.06 365.18C216.35 365.1 212.72 364.38 209.23 363.1C209.58 363.72 209.93 364.33 210.28 364.95C211.27 360.92 213.08 357.2 215.6 353.9C216.09 353.26 215.7 352.22 215.06 351.85C214.29 351.4 213.5 351.74 213.01 352.39C210.35 355.87 208.43 359.9 207.38 364.15C207.17 364.99 207.65 365.71 208.43 366C212.15 367.37 216.09 368.1 220.05 368.19C221.99 368.22 221.99 365.22 220.06 365.18Z" fill="#F7931E"/>
</g>
</g>
<g opacity="0.8">
<g opacity="0.8">
<path opacity="0.8" d="M209.25 331.57C211.9 333.71 214.56 335.85 217.21 337.99C217.8 338.46 218.38 339.05 219.12 339.25C219.94 339.47 220.67 339.12 221.36 338.7C222.86 337.78 224.36 336.86 225.86 335.94C227.5 334.93 226 332.34 224.35 333.35C223.1 334.12 221.85 334.88 220.6 335.65C220.34 335.81 219.78 336.02 219.6 336.26C219.24 336.43 219.39 336.47 220.02 336.4C219.97 336.49 219.89 336.44 219.79 336.23C219.25 335.82 218.73 335.37 218.2 334.95C215.92 333.12 213.65 331.28 211.37 329.45C210.74 328.94 209.86 328.83 209.25 329.45C208.73 329.98 208.62 331.06 209.25 331.57Z" fill="#F7931E"/>
</g>
</g>
<g opacity="0.8">
<g opacity="0.8">
<path opacity="0.8" d="M220.68 278.51C220.61 278.68 220.54 278.85 220.47 279.02C220.53 278.88 220.51 278.93 220.46 279.04C220.42 279.12 220.39 279.21 220.35 279.29C220.2 279.63 220.04 279.96 219.88 280.29C219.54 280.97 219.18 281.63 218.79 282.28C218.41 282.91 218.01 283.52 217.58 284.12C217.47 284.27 217.37 284.42 217.26 284.56C217.21 284.63 217.15 284.71 217.09 284.78C216.95 284.97 217.22 284.62 217.07 284.8C216.83 285.1 216.58 285.41 216.33 285.7C215.82 286.3 215.7 287.24 216.33 287.82C216.89 288.33 217.91 288.46 218.45 287.82C220.63 285.26 222.33 282.41 223.56 279.29C223.85 278.56 223.24 277.61 222.51 277.44C221.66 277.26 220.99 277.73 220.68 278.51Z" fill="#F7931E"/>
</g>
</g>
<g opacity="0.8">
<g opacity="0.8">
<path opacity="0.8" d="M138.19 403.91C139.74 403.03 141.33 402.21 142.95 401.46C143.68 401.12 144.42 400.79 145.17 400.49C145.58 400.32 146 400.16 146.41 400C146.58 399.93 146.81 399.89 146.97 399.79C147.25 399.61 147.15 399.93 146.87 399.73C146.69 399.55 146.51 399.37 146.33 399.19C146.45 399.35 146.49 399.85 146.54 400.14C146.62 400.57 146.72 401 146.83 401.42C147.08 402.31 147.41 403.17 147.79 404.02C148.53 405.66 149.56 407.15 150.78 408.48C152.09 409.91 154.2 407.78 152.9 406.36C151.74 405.09 150.77 403.6 150.17 401.99C149.85 401.13 149.6 400.25 149.43 399.36C149.24 398.32 149.02 397.29 147.88 396.9C146.96 396.59 146.1 396.94 145.24 397.27C144.21 397.68 143.18 398.11 142.17 398.56C140.3 399.4 138.47 400.33 136.68 401.34C134.99 402.27 136.5 404.87 138.19 403.91Z" fill="#F7931E"/>
</g>
</g>
<g opacity="0.8">
<g opacity="0.8">
<path opacity="0.8" d="M185.7 395.88C184.1 396.81 182.44 397.63 180.71 398.28C178.99 398.94 177.21 399.32 175.46 399.86C174.57 400.13 173.73 400.59 173.2 401.39C172.68 402.18 172.6 403.13 172.6 404.05C172.59 406.14 172.61 408.22 172.62 410.31C172.63 412.24 175.63 412.24 175.62 410.31C175.61 408.4 175.61 406.49 175.6 404.57C175.6 404.07 175.46 403.29 175.79 402.94C175.85 402.88 176.14 402.78 176.34 402.73C176.7 402.63 177.07 402.55 177.43 402.46C180.85 401.61 184.16 400.24 187.21 398.47C188.88 397.51 187.37 394.91 185.7 395.88Z" fill="#F7931E"/>
</g>
</g>
<g opacity="0.8">
<g opacity="0.8">
<path opacity="0.8" d="M223.2 406.82C222.18 406.47 221.57 405.42 220.99 404.57C220.27 403.53 219.49 402.53 218.56 401.66C216.96 400.17 214.3 398 211.96 398.65C209.44 399.35 206.92 400.88 204.67 402.19C202.23 403.6 199.93 405.21 197.72 406.95C196.2 408.14 198.34 410.25 199.84 409.07C201.79 407.54 203.86 406.14 206 404.89C207.1 404.25 208.21 403.64 209.35 403.08C209.92 402.8 210.49 402.52 211.07 402.26C211.55 402.04 212.2 401.62 212.73 401.56C213.6 401.46 214.87 402.51 215.54 403.02C216.47 403.72 217.32 404.59 218.01 405.53C219.27 407.25 220.27 408.99 222.4 409.72C224.23 410.34 225.02 407.44 223.2 406.82Z" fill="#F7931E"/>
</g>
</g>
<g opacity="0.8">
<g opacity="0.8">
<path opacity="0.8" d="M109.66 247.3C108.73 248.27 107.32 248.52 105.81 248.8C104.24 249.09 102.27 249.37 101.05 250.51C99.99 251.5 100.34 252.78 101.13 253.78C101.84 254.67 102.56 255.55 103.28 256.43C104.71 258.2 106.15 259.96 107.58 261.73C108.09 262.36 109.17 262.26 109.7 261.73C110.32 261.11 110.21 260.24 109.7 259.61C108.57 258.22 107.45 256.83 106.32 255.45C105.76 254.76 105.19 254.06 104.63 253.37C104.37 253.05 104.12 252.74 103.86 252.42C103.71 252.23 103.54 252.05 103.4 251.85C103.18 251.55 103.4 251.64 103.37 251.88C103.3 252.13 103.23 252.38 103.17 252.64C103.13 252.66 103.09 252.7 103.06 252.73C103.16 252.67 103.25 252.62 103.35 252.57C103.33 252.58 103.8 252.36 103.6 252.44C103.97 252.29 104.35 252.18 104.73 252.08C105.54 251.87 106.37 251.74 107.19 251.58C108.88 251.25 110.55 250.7 111.77 249.42C113.11 248.02 110.99 245.9 109.66 247.3Z" fill="#F7931E"/>
</g>
</g>
<g opacity="0.8">
<g opacity="0.8">
<path opacity="0.8" d="M111.43 226.23C113.31 226.23 115.2 226.24 117.08 226.24C117.98 226.24 118.88 226.24 119.78 226.25C120.03 226.25 120.27 226.25 120.52 226.25C120.6 226.25 120.68 226.25 120.77 226.25C120.96 226.27 120.99 226.26 120.88 226.24C120.71 226 120.54 225.76 120.37 225.52C120.38 225.71 120.38 225.77 120.36 225.69C120.31 225.82 120.27 226.08 120.23 226.27C119.43 229.86 118.42 233.39 117.22 236.86C116.95 237.63 117.52 238.5 118.27 238.71C119.1 238.94 119.85 238.43 120.12 237.66C120.81 235.68 121.43 233.67 121.99 231.65C122.27 230.64 122.53 229.62 122.78 228.6C123.02 227.61 123.43 226.46 123.38 225.43C123.23 222.7 119.84 223.25 117.96 223.25C115.79 223.25 113.62 223.24 111.45 223.24C109.5 223.22 109.5 226.22 111.43 226.23Z" fill="#F7931E"/>
</g>
</g>
<g opacity="0.8">
<g opacity="0.8">
<path opacity="0.8" d="M124.02 270.89C122.8 271.43 121.58 271.96 120.36 272.5C119.23 273 118.12 273.51 117.42 274.59C116.74 275.64 116.54 277.02 116.23 278.21C115.88 279.54 115.52 280.87 115.17 282.19C114.96 282.97 115.43 283.82 116.22 284.04C117 284.25 117.86 283.78 118.07 282.99C118.39 281.8 118.71 280.6 119.03 279.41C119.19 278.81 119.35 278.22 119.51 277.62C119.63 277.16 119.76 276.57 119.94 276.26C120.03 276.1 120.03 276.1 120.22 275.93C120.08 276.05 120.33 275.86 120.36 275.84C120.45 275.78 120.54 275.73 120.63 275.68C121.1 275.43 121.59 275.23 122.08 275.02C123.24 274.51 124.39 274 125.55 273.49C126.29 273.16 126.46 272.08 126.09 271.44C125.62 270.66 124.76 270.56 124.02 270.89Z" fill="#F7931E"/>
</g>
</g>
<g opacity="0.8">
<g opacity="0.8">
<path opacity="0.8" d="M224.13 254.62C227.38 256.81 230.64 258.99 233.88 261.19C234.54 261.63 234.55 261.77 234.51 262.58C234.46 263.52 234.4 264.46 234.32 265.39C234.15 267.31 233.91 269.21 233.6 271.11C233.47 271.91 233.81 272.72 234.65 272.96C235.37 273.16 236.36 272.72 236.5 271.91C236.85 269.75 237.13 267.57 237.32 265.39C237.49 263.48 238.06 260.97 236.54 259.47C235.87 258.8 234.97 258.32 234.2 257.79C233.25 257.15 232.3 256.51 231.35 255.87C229.45 254.59 227.55 253.31 225.65 252.03C224.04 250.95 222.53 253.55 224.13 254.62Z" fill="#F7931E"/>
</g>
</g>
<g opacity="0.8">
<g opacity="0.8">
<path opacity="0.8" d="M255.64 235.47C253.76 235.9 251.85 236.06 249.92 235.96C249.05 235.91 248.18 235.72 247.33 236.01C246.33 236.35 245.79 237.25 245.56 238.24C244.64 242.22 244.01 246.29 243.45 250.33C243.34 251.13 243.64 251.94 244.5 252.18C245.2 252.37 246.23 251.94 246.35 251.13C246.87 247.42 247.5 243.73 248.25 240.06C248.33 239.66 248.4 239.25 248.51 238.85C248.57 238.62 248.68 238.51 248.49 238.74C248.27 239 248.26 238.77 248.41 238.85C248.69 239 249.36 238.93 249.68 238.95C250.11 238.98 250.54 238.99 250.96 239C252.8 239.01 254.66 238.78 256.45 238.37C258.32 237.93 257.52 235.04 255.64 235.47Z" fill="#F7931E"/>
</g>
</g>
</g>
</g>
<defs>
<clipPath id="clip0">
<rect width="351.32" height="705.82" fill="white"/>
</clipPath>
</defs>
</svg>
