<svg width="79" height="73" viewBox="0 0 79 73" fill="none" xmlns="http://www.w3.org/2000/svg">
<path d="M78.035 13.0462L40.7021 68.9766C39.2917 71.0627 37.1072 72.46 34.9359 72.46C32.7711 72.46 30.3504 71.2464 28.8088 69.6982L1.40118 41.8511C0.502814 40.9298 0 39.6939 0 38.4071C0 37.1203 0.502814 35.8844 1.40118 34.9631L8.16453 28.0751C8.60772 27.6295 9.13464 27.2758 9.71499 27.0344C10.2953 26.7931 10.9177 26.6689 11.5462 26.6689C12.1747 26.6689 12.7971 26.7931 13.3774 27.0344C13.9578 27.2758 14.4847 27.6295 14.9279 28.0751L32.7645 46.1938L62.1795 2.12383C62.5281 1.5983 62.978 1.14747 63.5027 0.797642C64.0275 0.447817 64.6166 0.206003 65.2358 0.0863145C65.855 -0.0333738 66.4919 -0.0285426 67.1092 0.100528C67.7265 0.229599 68.312 0.480323 68.8313 0.838071L76.7624 6.28942C78.9468 7.79822 79.511 10.8355 78.035 13.0462Z" fill="#2E950F"/>
</svg>
