<svg width="68" height="69" viewBox="0 0 68 69" fill="none" xmlns="http://www.w3.org/2000/svg">
<path fill-rule="evenodd" clip-rule="evenodd" d="M47.9564 61.7448L34.0043 47.5871L20.0521 61.7448C14.3572 67.5236 10.0757 72.5559 3.28148 65.67C-3.4962 58.7841 1.43828 54.4395 7.15799 48.6523L21.1101 34.503L7.15799 20.3454C1.45481 14.5666 -3.4962 10.222 3.28148 3.32768C10.0757 -3.54986 14.3572 1.4741 20.0521 7.26129L34.0043 21.4022L47.9564 7.26129C53.6596 1.48248 57.9163 -3.55825 64.7105 3.32768C71.5047 10.222 66.5537 14.5666 60.8505 20.3454L46.8984 34.4947L60.8505 48.6439C66.5454 54.4395 71.5047 58.7841 64.7105 65.67C57.9328 72.5559 53.6596 67.5236 47.9564 61.7448Z" fill="#BB0000"/>
</svg>
